M48
; DRILL file {KiCad (5.1.10)-1} date 11/04/21 11:44:15
; FORMAT={-:-/ absolute / metric / decimal}
; #@! TF.CreationDate,2021-11-04T11:44:15+08:00
; #@! TF.GenerationSoftware,Kicad,Pcbnew,(5.1.10)-1
FMAT,2
METRIC
T1C0.200
T2C0.300
T3C0.400
T4C0.600
T5C0.700
T6C0.710
T7C0.800
T8C0.920
T9C1.000
T10C1.016
T11C1.200
T12C2.330
T13C3.200
T14C5.000
%
G90
G05
T1
X68.754Y-112.588
X68.754Y-114.488
X70.104Y-112.588
X70.104Y-114.488
X71.454Y-112.588
X71.454Y-114.488
X93.665Y-79.168
X93.665Y-80.518
X93.665Y-81.868
X95.565Y-79.168
X95.565Y-80.518
X95.565Y-81.868
T2
X43.307Y-146.875
X49.847Y-138.62
X50.417Y-139.959
X50.48Y-134.81
X51.562Y-145.415
X54.356Y-132.969
X55.753Y-145.796
X56.388Y-76.708
X57.404Y-145.796
X57.594Y-131.064
X61.404Y-138.239
X63.881Y-143.573
X67.281Y-127.093
X68.389Y-136.715
X68.516Y-128.969
X76.454Y-133.096
X85.598Y-134.112
X86.106Y-70.866
X97.536Y-103.505
X98.933Y-89.662
X99.949Y-89.916
X101.854Y-101.6
X102.997Y-101.6
X104.394Y-101.727
X104.902Y-89.662
X105.283Y-108.077
X105.41Y-98.806
X106.299Y-124.714
X107.442Y-119.253
X110.49Y-75.311
X113.284Y-80.518
X114.427Y-83.566
X114.453Y-82.042
X114.554Y-84.709
X114.681Y-85.852
X114.74Y-94.742
X115.062Y-88.519
X120.918Y-113.679
X120.968Y-115.379
X123.444Y-89.789
X123.571Y-86.995
X124.079Y-85.471
X124.714Y-83.693
X125.349Y-84.709
X126.873Y-81.661
X128.27Y-114.3
X128.397Y-80.899
X128.651Y-73.025
X128.778Y-127.508
X128.836Y-114.866
X129.032Y-85.852
X129.159Y-83.82
X129.794Y-76.327
X129.794Y-132.842
X130.429Y-127.572
X131.455Y-127.762
X132.842Y-137.414
X133.985Y-98.171
X134.217Y-83.794
X134.366Y-87.757
X135.382Y-135.636
X135.382Y-151.511
X136.144Y-129.286
X137.16Y-83.82
X137.414Y-109.22
X137.731Y-102.425
X138.176Y-83.82
X138.43Y-150.368
X138.938Y-102.362
X139.192Y-135.636
X139.446Y-127.444
X140.97Y-151.638
X143.764Y-100.52
X143.764Y-152.4
X143.764Y-153.416
X144.78Y-83.693
X145.274Y-117.461
X145.298Y-115.843
X145.542Y-92.202
X145.923Y-114.427
X146.177Y-76.136
X146.177Y-81.788
X146.431Y-92.265
X146.494Y-69.278
X146.494Y-70.802
X147.256Y-92.265
X148.221Y-83.693
X149.717Y-130.572
X150.495Y-70.739
X151.13Y-71.374
X151.765Y-77.216
X152.4Y-153.797
X155.702Y-77.978
X157.988Y-149.352
X158.379Y-151.003
X159.004Y-73.406
X159.639Y-151.003
X160.147Y-151.892
X160.782Y-77.724
X164.147Y-84.201
X164.259Y-86.65
X164.338Y-85.344
X164.338Y-150.495
X170.434Y-139.99
X172.72Y-148.717
X174.498Y-139.99
T3
X52.324Y-108.331
X63.246Y-108.585
X66.929Y-115.189
X69.342Y-109.435
X70.739Y-109.435
X72.663Y-117.71
X73.41Y-127.723
X76.708Y-72.898
X77.47Y-132.334
X77.978Y-110.49
X84.201Y-124.333
X105.029Y-74.084
X112.268Y-128.27
X122.5Y-75.057
T4
X45.72Y-127.953
X89.662Y-77.089
X89.662Y-79.883
X89.916Y-82.423
X89.916Y-86.934
X98.806Y-79.248
X99.568Y-74.676
X101.6Y-70.231
X101.6Y-77.47
X101.6Y-122.682
X105.029Y-115.316
X105.156Y-117.221
X116.84Y-75.692
X117.221Y-128.143
X120.777Y-75.819
T5
X52.832Y-77.47
X54.864Y-100.33
X57.234Y-100.584
X66.548Y-76.454
X67.734Y-100.584
X69.173Y-99.145
X70.358Y-76.454
X74.422Y-76.454
X159.004Y-59.436
T6
X85.07Y-92.526
X90.17Y-93.726
T7
X41.148Y-145.669
X41.148Y-148.526
X48.768Y-145.669
X48.768Y-148.526
X53.594Y-110.49
X53.594Y-113.03
X53.594Y-115.57
X53.594Y-118.11
X53.594Y-122.682
X53.594Y-125.222
X53.594Y-127.762
X53.594Y-130.302
X61.214Y-110.49
X61.214Y-113.03
X61.214Y-115.57
X61.214Y-118.11
X61.214Y-122.682
X61.214Y-125.222
X61.214Y-127.762
X61.214Y-130.302
X70.358Y-136.779
X70.358Y-144.399
X72.898Y-136.779
X72.898Y-144.399
X75.438Y-136.779
X75.438Y-144.399
X75.946Y-120.65
X77.978Y-136.779
X77.978Y-144.399
X79.446Y-120.65
X82.804Y-136.779
X82.804Y-144.399
X85.344Y-120.396
X85.344Y-136.779
X85.344Y-144.399
X87.884Y-136.779
X87.884Y-144.399
X88.646Y-102.108
X88.844Y-120.396
X90.424Y-136.779
X90.424Y-144.399
X91.567Y-125.603
X91.567Y-133.223
X92.146Y-102.108
X94.107Y-125.603
X94.107Y-133.223
X95.25Y-136.779
X95.25Y-144.399
X96.647Y-125.603
X96.647Y-133.223
X97.79Y-136.779
X97.79Y-144.399
X99.187Y-125.603
X99.187Y-133.223
X100.33Y-136.779
X100.33Y-144.399
X102.87Y-136.779
X102.87Y-144.399
X107.696Y-136.779
X107.696Y-144.399
X108.204Y-98.806
X108.458Y-111.76
X110.236Y-136.779
X110.236Y-144.399
X111.704Y-98.806
X111.958Y-111.76
X112.776Y-136.779
X112.776Y-144.399
X115.316Y-136.779
X115.316Y-144.399
X117.602Y-98.552
X120.142Y-136.779
X120.142Y-144.399
X121.102Y-98.552
X122.682Y-136.779
X122.682Y-144.399
X125.222Y-136.779
X125.222Y-144.399
X127.762Y-136.779
X127.762Y-144.399
X153.861Y-115.57
X153.861Y-118.11
X153.861Y-120.65
X153.861Y-123.19
X153.861Y-128.27
X153.861Y-130.81
X153.861Y-133.35
X153.861Y-135.89
X161.481Y-115.57
X161.481Y-118.11
X161.481Y-120.65
X161.481Y-123.19
X161.481Y-128.27
X161.481Y-130.81
X161.481Y-133.35
X161.481Y-135.89
X166.751Y-115.697
X166.751Y-118.237
X166.751Y-120.777
X166.751Y-123.317
X166.751Y-128.27
X166.751Y-130.81
X166.751Y-133.35
X166.751Y-135.89
X174.371Y-115.697
X174.371Y-118.237
X174.371Y-120.777
X174.371Y-123.317
X174.371Y-128.27
X174.371Y-130.81
X174.371Y-133.35
X174.371Y-135.89
T8
X138.724Y-141.478
X138.724Y-143.478
X141.224Y-141.478
X141.224Y-143.478
X158.028Y-141.478
X158.028Y-143.478
X160.528Y-141.478
X160.528Y-143.478
T9
X154.686Y-94.361
X154.686Y-96.901
X154.686Y-99.441
X154.686Y-104.521
X154.686Y-107.061
X154.686Y-109.601
X157.226Y-94.361
X157.226Y-96.901
X157.226Y-99.441
X157.226Y-104.521
X157.226Y-107.061
X157.226Y-109.601
T10
X48.768Y-54.483
X48.768Y-67.183
X51.308Y-54.483
X51.308Y-67.183
X53.848Y-54.483
X53.848Y-67.183
X56.388Y-54.483
X56.388Y-67.183
X58.928Y-54.483
X58.928Y-67.183
X61.468Y-54.483
X61.468Y-67.183
X64.008Y-54.483
X64.008Y-67.183
X64.897Y-63.373
X66.548Y-54.483
X66.548Y-62.103
X66.548Y-64.643
X66.548Y-67.183
X77.724Y-54.483
X77.724Y-67.183
X80.264Y-54.483
X80.264Y-67.183
X82.804Y-54.483
X82.804Y-67.183
X85.344Y-54.483
X85.344Y-67.183
X87.884Y-54.483
X87.884Y-67.183
X90.424Y-54.483
X90.424Y-67.183
X92.964Y-54.483
X92.964Y-67.183
X93.853Y-63.373
X95.504Y-54.483
X95.504Y-62.103
X95.504Y-64.643
X95.504Y-67.183
X106.934Y-54.483
X106.934Y-67.183
X109.474Y-54.483
X109.474Y-67.183
X112.014Y-54.483
X112.014Y-67.183
X114.554Y-54.483
X114.554Y-67.183
X117.094Y-54.483
X117.094Y-67.183
X119.634Y-54.483
X119.634Y-67.183
X122.174Y-54.483
X122.174Y-67.183
X123.063Y-63.373
X124.714Y-54.483
X124.714Y-62.103
X124.714Y-64.643
X124.714Y-67.183
X136.398Y-54.483
X136.398Y-67.183
X138.938Y-54.483
X138.938Y-67.183
X141.478Y-54.483
X141.478Y-67.183
X144.018Y-54.483
X144.018Y-67.183
X146.558Y-54.483
X146.558Y-67.183
X149.098Y-54.483
X149.098Y-67.183
X151.638Y-54.483
X151.638Y-67.183
X152.527Y-63.373
X154.178Y-54.483
X154.178Y-62.103
X154.178Y-64.643
X154.178Y-67.183
T11
X44.022Y-100.33
X48.133Y-114.808
X48.133Y-118.618
X48.133Y-126.047
X48.133Y-129.857
X48.133Y-136.779
X48.133Y-140.589
X48.514Y-77.47
X48.514Y-81.28
X48.514Y-85.09
X48.514Y-88.9
X49.022Y-100.33
X51.816Y-29.083
X53.086Y-149.86
X55.626Y-29.083
X56.896Y-149.86
X59.436Y-29.083
X63.246Y-29.083
X67.564Y-149.86
X71.374Y-149.86
X75.184Y-149.86
X75.438Y-100.584
X80.438Y-100.584
X81.026Y-29.083
X83.82Y-149.86
X84.836Y-29.083
X87.63Y-149.86
X88.646Y-29.083
X92.456Y-29.083
X96.012Y-149.86
X99.822Y-149.86
X108.204Y-149.86
X110.236Y-29.083
X112.014Y-149.86
X114.046Y-29.083
X115.824Y-149.86
X117.856Y-29.083
X119.634Y-149.86
X121.666Y-29.083
X123.444Y-149.86
X127.254Y-149.86
X139.446Y-29.083
X143.256Y-29.083
X147.066Y-29.083
X150.876Y-29.083
X169.164Y-60.706
X169.164Y-64.516
X169.164Y-68.326
X169.164Y-72.136
X169.164Y-75.946
X169.164Y-79.756
X169.164Y-83.566
X169.164Y-87.376
T12
X133.954Y-146.188
X145.994Y-146.188
X153.258Y-146.188
X165.298Y-146.188
T13
X44.704Y-25.4
X44.704Y-153.416
X172.72Y-25.4
X172.72Y-153.416
T14
X63.712Y-35.368
X63.712Y-87.568
X108.712Y-35.368
X108.712Y-87.568
X153.712Y-35.368
X153.712Y-87.568
T0
M30
