%FSLAX45Y45*%
G04 Gerber Fmt 4.5, Leading zero omitted, Abs format (unit mm)*
G04 Created by KiCad (PCBNEW (5.1.10)-1) date 2021-11-04 11:44:27*
%MOMM*%
%LPD*%
G01*
G04 APERTURE LIST*
%TA.AperFunction,Profile*%
%ADD10C,0.050000*%
%TD*%
%ADD11C,0.200000*%
%ADD12C,0.300000*%
G04 APERTURE END LIST*
D10*
X17272000Y-15862300D02*
X4445000Y-15862300D01*
X4445000Y-15862300D02*
G75*
G02*
X3937000Y-15354300I0J508000D01*
G01*
X3937000Y-2540000D02*
X3937000Y-15354300D01*
X17780000Y-15354300D02*
G75*
G02*
X17272000Y-15862300I-508000J0D01*
G01*
X17780000Y-2540000D02*
X17780000Y-15354300D01*
X3937000Y-2540000D02*
G75*
G02*
X4445000Y-2032000I508000J0D01*
G01*
X17272000Y-2032000D02*
G75*
G02*
X17780000Y-2540000I0J-508000D01*
G01*
X17272000Y-2032000D02*
X4445000Y-2032000D01*
D11*
X6865400Y-11248800D02*
X6885400Y-11268800D01*
X6885400Y-11248800D02*
X6865400Y-11268800D01*
X6865400Y-11438800D02*
X6885400Y-11458800D01*
X6885400Y-11438800D02*
X6865400Y-11458800D01*
X7000400Y-11248800D02*
X7020400Y-11268800D01*
X7020400Y-11248800D02*
X7000400Y-11268800D01*
X7000400Y-11438800D02*
X7020400Y-11458800D01*
X7020400Y-11438800D02*
X7000400Y-11458800D01*
X7135400Y-11248800D02*
X7155400Y-11268800D01*
X7155400Y-11248800D02*
X7135400Y-11268800D01*
X7135400Y-11438800D02*
X7155400Y-11458800D01*
X7155400Y-11438800D02*
X7135400Y-11458800D01*
X9356500Y-7906800D02*
X9376500Y-7926800D01*
X9376500Y-7906800D02*
X9356500Y-7926800D01*
X9356500Y-8041800D02*
X9376500Y-8061800D01*
X9376500Y-8041800D02*
X9356500Y-8061800D01*
X9356500Y-8176800D02*
X9376500Y-8196800D01*
X9376500Y-8176800D02*
X9356500Y-8196800D01*
X9546500Y-7906800D02*
X9566500Y-7926800D01*
X9566500Y-7906800D02*
X9546500Y-7926800D01*
X9546500Y-8041800D02*
X9566500Y-8061800D01*
X9566500Y-8041800D02*
X9546500Y-8061800D01*
X9546500Y-8176800D02*
X9566500Y-8196800D01*
X9566500Y-8176800D02*
X9546500Y-8196800D01*
X4345700Y-14687550D02*
G75*
G03*
X4345700Y-14687550I-15000J0D01*
G01*
X4999750Y-13862050D02*
G75*
G03*
X4999750Y-13862050I-15000J0D01*
G01*
X5056745Y-13995852D02*
G75*
G03*
X5056745Y-13995852I-15000J0D01*
G01*
X5063000Y-13481050D02*
G75*
G03*
X5063000Y-13481050I-15000J0D01*
G01*
X5171200Y-14541500D02*
G75*
G03*
X5171200Y-14541500I-15000J0D01*
G01*
X5450600Y-13296900D02*
G75*
G03*
X5450600Y-13296900I-15000J0D01*
G01*
X5590300Y-14579600D02*
G75*
G03*
X5590300Y-14579600I-15000J0D01*
G01*
X5653800Y-7670800D02*
G75*
G03*
X5653800Y-7670800I-15000J0D01*
G01*
X5755400Y-14579600D02*
G75*
G03*
X5755400Y-14579600I-15000J0D01*
G01*
X5774450Y-13106400D02*
G75*
G03*
X5774450Y-13106400I-15000J0D01*
G01*
X6155450Y-13823950D02*
G75*
G03*
X6155450Y-13823950I-15000J0D01*
G01*
X6403100Y-14357350D02*
G75*
G03*
X6403100Y-14357350I-15000J0D01*
G01*
X6743081Y-12709269D02*
G75*
G03*
X6743081Y-12709269I-15000J0D01*
G01*
X6853950Y-13671550D02*
G75*
G03*
X6853950Y-13671550I-15000J0D01*
G01*
X6866650Y-12896850D02*
G75*
G03*
X6866650Y-12896850I-15000J0D01*
G01*
X7660400Y-13309600D02*
G75*
G03*
X7660400Y-13309600I-15000J0D01*
G01*
X8574800Y-13411200D02*
G75*
G03*
X8574800Y-13411200I-15000J0D01*
G01*
X8625600Y-7086600D02*
G75*
G03*
X8625600Y-7086600I-15000J0D01*
G01*
X9768600Y-10350500D02*
G75*
G03*
X9768600Y-10350500I-15000J0D01*
G01*
X9908300Y-8966200D02*
G75*
G03*
X9908300Y-8966200I-15000J0D01*
G01*
X10009900Y-8991600D02*
G75*
G03*
X10009900Y-8991600I-15000J0D01*
G01*
X10200400Y-10160000D02*
G75*
G03*
X10200400Y-10160000I-15000J0D01*
G01*
X10314700Y-10160000D02*
G75*
G03*
X10314700Y-10160000I-15000J0D01*
G01*
X10454400Y-10172700D02*
G75*
G03*
X10454400Y-10172700I-15000J0D01*
G01*
X10505200Y-8966200D02*
G75*
G03*
X10505200Y-8966200I-15000J0D01*
G01*
X10543300Y-10807700D02*
G75*
G03*
X10543300Y-10807700I-15000J0D01*
G01*
X10556000Y-9880600D02*
G75*
G03*
X10556000Y-9880600I-15000J0D01*
G01*
X10644900Y-12471400D02*
G75*
G03*
X10644900Y-12471400I-15000J0D01*
G01*
X10759200Y-11925300D02*
G75*
G03*
X10759200Y-11925300I-15000J0D01*
G01*
X11064000Y-7531100D02*
G75*
G03*
X11064000Y-7531100I-15000J0D01*
G01*
X11343400Y-8051800D02*
G75*
G03*
X11343400Y-8051800I-15000J0D01*
G01*
X11457700Y-8356600D02*
G75*
G03*
X11457700Y-8356600I-15000J0D01*
G01*
X11460298Y-8204200D02*
G75*
G03*
X11460298Y-8204200I-15000J0D01*
G01*
X11470400Y-8470900D02*
G75*
G03*
X11470400Y-8470900I-15000J0D01*
G01*
X11483100Y-8585200D02*
G75*
G03*
X11483100Y-8585200I-15000J0D01*
G01*
X11489002Y-9474200D02*
G75*
G03*
X11489002Y-9474200I-15000J0D01*
G01*
X11521200Y-8851900D02*
G75*
G03*
X11521200Y-8851900I-15000J0D01*
G01*
X12106801Y-11367900D02*
G75*
G03*
X12106801Y-11367900I-15000J0D01*
G01*
X12111750Y-11537950D02*
G75*
G03*
X12111750Y-11537950I-15000J0D01*
G01*
X12359401Y-8978900D02*
G75*
G03*
X12359401Y-8978900I-15000J0D01*
G01*
X12372100Y-8699500D02*
G75*
G03*
X12372100Y-8699500I-15000J0D01*
G01*
X12422900Y-8547100D02*
G75*
G03*
X12422900Y-8547100I-15000J0D01*
G01*
X12486400Y-8369300D02*
G75*
G03*
X12486400Y-8369300I-15000J0D01*
G01*
X12549900Y-8470900D02*
G75*
G03*
X12549900Y-8470900I-15000J0D01*
G01*
X12702300Y-8166100D02*
G75*
G03*
X12702300Y-8166100I-15000J0D01*
G01*
X12842000Y-11430000D02*
G75*
G03*
X12842000Y-11430000I-15000J0D01*
G01*
X12854700Y-8089900D02*
G75*
G03*
X12854700Y-8089900I-15000J0D01*
G01*
X12880100Y-7302500D02*
G75*
G03*
X12880100Y-7302500I-15000J0D01*
G01*
X12892800Y-12750800D02*
G75*
G03*
X12892800Y-12750800I-15000J0D01*
G01*
X12898569Y-11486569D02*
G75*
G03*
X12898569Y-11486569I-15000J0D01*
G01*
X12918200Y-8585200D02*
G75*
G03*
X12918200Y-8585200I-15000J0D01*
G01*
X12930900Y-8382000D02*
G75*
G03*
X12930900Y-8382000I-15000J0D01*
G01*
X12994400Y-7632700D02*
G75*
G03*
X12994400Y-7632700I-15000J0D01*
G01*
X12994400Y-13284200D02*
G75*
G03*
X12994400Y-13284200I-15000J0D01*
G01*
X13057900Y-12757150D02*
G75*
G03*
X13057900Y-12757150I-15000J0D01*
G01*
X13160500Y-12776200D02*
G75*
G03*
X13160500Y-12776200I-15000J0D01*
G01*
X13299200Y-13741400D02*
G75*
G03*
X13299200Y-13741400I-15000J0D01*
G01*
X13413500Y-9817100D02*
G75*
G03*
X13413500Y-9817100I-15000J0D01*
G01*
X13436670Y-8379367D02*
G75*
G03*
X13436670Y-8379367I-15000J0D01*
G01*
X13451600Y-8775700D02*
G75*
G03*
X13451600Y-8775700I-15000J0D01*
G01*
X13553200Y-13563600D02*
G75*
G03*
X13553200Y-13563600I-15000J0D01*
G01*
X13553200Y-15151100D02*
G75*
G03*
X13553200Y-15151100I-15000J0D01*
G01*
X13629400Y-12928600D02*
G75*
G03*
X13629400Y-12928600I-15000J0D01*
G01*
X13731000Y-8382000D02*
G75*
G03*
X13731000Y-8382000I-15000J0D01*
G01*
X13756400Y-10922000D02*
G75*
G03*
X13756400Y-10922000I-15000J0D01*
G01*
X13788150Y-10242550D02*
G75*
G03*
X13788150Y-10242550I-15000J0D01*
G01*
X13832600Y-8382000D02*
G75*
G03*
X13832600Y-8382000I-15000J0D01*
G01*
X13858000Y-15036800D02*
G75*
G03*
X13858000Y-15036800I-15000J0D01*
G01*
X13908800Y-10236200D02*
G75*
G03*
X13908800Y-10236200I-15000J0D01*
G01*
X13934200Y-13563600D02*
G75*
G03*
X13934200Y-13563600I-15000J0D01*
G01*
X13959600Y-12744450D02*
G75*
G03*
X13959600Y-12744450I-15000J0D01*
G01*
X14112000Y-15163800D02*
G75*
G03*
X14112000Y-15163800I-15000J0D01*
G01*
X14391400Y-10052050D02*
G75*
G03*
X14391400Y-10052050I-15000J0D01*
G01*
X14391400Y-15240000D02*
G75*
G03*
X14391400Y-15240000I-15000J0D01*
G01*
X14391400Y-15341600D02*
G75*
G03*
X14391400Y-15341600I-15000J0D01*
G01*
X14493000Y-8369300D02*
G75*
G03*
X14493000Y-8369300I-15000J0D01*
G01*
X14542400Y-11746100D02*
G75*
G03*
X14542400Y-11746100I-15000J0D01*
G01*
X14544799Y-11584291D02*
G75*
G03*
X14544799Y-11584291I-15000J0D01*
G01*
X14569200Y-9220200D02*
G75*
G03*
X14569200Y-9220200I-15000J0D01*
G01*
X14607300Y-11442700D02*
G75*
G03*
X14607300Y-11442700I-15000J0D01*
G01*
X14632700Y-7613650D02*
G75*
G03*
X14632700Y-7613650I-15000J0D01*
G01*
X14632700Y-8178800D02*
G75*
G03*
X14632700Y-8178800I-15000J0D01*
G01*
X14658100Y-9226550D02*
G75*
G03*
X14658100Y-9226550I-15000J0D01*
G01*
X14664450Y-6927850D02*
G75*
G03*
X14664450Y-6927850I-15000J0D01*
G01*
X14664450Y-7080250D02*
G75*
G03*
X14664450Y-7080250I-15000J0D01*
G01*
X14740650Y-9226550D02*
G75*
G03*
X14740650Y-9226550I-15000J0D01*
G01*
X14837099Y-8369300D02*
G75*
G03*
X14837099Y-8369300I-15000J0D01*
G01*
X14986730Y-13057170D02*
G75*
G03*
X14986730Y-13057170I-15000J0D01*
G01*
X15064500Y-7073900D02*
G75*
G03*
X15064500Y-7073900I-15000J0D01*
G01*
X15128000Y-7137400D02*
G75*
G03*
X15128000Y-7137400I-15000J0D01*
G01*
X15191500Y-7721600D02*
G75*
G03*
X15191500Y-7721600I-15000J0D01*
G01*
X15255000Y-15379700D02*
G75*
G03*
X15255000Y-15379700I-15000J0D01*
G01*
X15585200Y-7797800D02*
G75*
G03*
X15585200Y-7797800I-15000J0D01*
G01*
X15813800Y-14935200D02*
G75*
G03*
X15813800Y-14935200I-15000J0D01*
G01*
X15852900Y-15100300D02*
G75*
G03*
X15852900Y-15100300I-15000J0D01*
G01*
X15915400Y-7340600D02*
G75*
G03*
X15915400Y-7340600I-15000J0D01*
G01*
X15978900Y-15100300D02*
G75*
G03*
X15978900Y-15100300I-15000J0D01*
G01*
X16029700Y-15189200D02*
G75*
G03*
X16029700Y-15189200I-15000J0D01*
G01*
X16093200Y-7772400D02*
G75*
G03*
X16093200Y-7772400I-15000J0D01*
G01*
X16429750Y-8420100D02*
G75*
G03*
X16429750Y-8420100I-15000J0D01*
G01*
X16440900Y-8665001D02*
G75*
G03*
X16440900Y-8665001I-15000J0D01*
G01*
X16448800Y-8534400D02*
G75*
G03*
X16448800Y-8534400I-15000J0D01*
G01*
X16448800Y-15049500D02*
G75*
G03*
X16448800Y-15049500I-15000J0D01*
G01*
X17058400Y-13999050D02*
G75*
G03*
X17058400Y-13999050I-15000J0D01*
G01*
X17287000Y-14871700D02*
G75*
G03*
X17287000Y-14871700I-15000J0D01*
G01*
X17464800Y-13999050D02*
G75*
G03*
X17464800Y-13999050I-15000J0D01*
G01*
X5232400Y-10813100D02*
X5232400Y-10853100D01*
X5212400Y-10833100D02*
X5252400Y-10833100D01*
X6324600Y-10838500D02*
X6324600Y-10878500D01*
X6304600Y-10858500D02*
X6344600Y-10858500D01*
X6692900Y-11498900D02*
X6692900Y-11538900D01*
X6672900Y-11518900D02*
X6712900Y-11518900D01*
X6934200Y-10923500D02*
X6934200Y-10963500D01*
X6914200Y-10943500D02*
X6954200Y-10943500D01*
X7073900Y-10923500D02*
X7073900Y-10963500D01*
X7053900Y-10943500D02*
X7093900Y-10943500D01*
X7266304Y-11750996D02*
X7266304Y-11790996D01*
X7246304Y-11770996D02*
X7286304Y-11770996D01*
X7340966Y-12752300D02*
X7340966Y-12792300D01*
X7320966Y-12772300D02*
X7360966Y-12772300D01*
X7670800Y-7269800D02*
X7670800Y-7309800D01*
X7650800Y-7289800D02*
X7690800Y-7289800D01*
X7747000Y-13213400D02*
X7747000Y-13253400D01*
X7727000Y-13233400D02*
X7767000Y-13233400D01*
X7797800Y-11029000D02*
X7797800Y-11069000D01*
X7777800Y-11049000D02*
X7817800Y-11049000D01*
X8420100Y-12413300D02*
X8420100Y-12453300D01*
X8400100Y-12433300D02*
X8440100Y-12433300D01*
X10502900Y-7388404D02*
X10502900Y-7428404D01*
X10482900Y-7408404D02*
X10522900Y-7408404D01*
X11226800Y-12807000D02*
X11226800Y-12847000D01*
X11206800Y-12827000D02*
X11246800Y-12827000D01*
X12250001Y-7485700D02*
X12250001Y-7525700D01*
X12230001Y-7505700D02*
X12270001Y-7505700D01*
X4593213Y-12816463D02*
X4593213Y-12774037D01*
X4550787Y-12774037D01*
X4550787Y-12816463D01*
X4593213Y-12816463D01*
X8987413Y-7730113D02*
X8987413Y-7687687D01*
X8944987Y-7687687D01*
X8944987Y-7730113D01*
X8987413Y-7730113D01*
X8987413Y-8009513D02*
X8987413Y-7967087D01*
X8944987Y-7967087D01*
X8944987Y-8009513D01*
X8987413Y-8009513D01*
X9012813Y-8263513D02*
X9012813Y-8221087D01*
X8970387Y-8221087D01*
X8970387Y-8263513D01*
X9012813Y-8263513D01*
X9012814Y-8714614D02*
X9012814Y-8672188D01*
X8970387Y-8672188D01*
X8970387Y-8714614D01*
X9012814Y-8714614D01*
X9901813Y-7946013D02*
X9901813Y-7903587D01*
X9859387Y-7903587D01*
X9859387Y-7946013D01*
X9901813Y-7946013D01*
X9978013Y-7488813D02*
X9978013Y-7446387D01*
X9935587Y-7446387D01*
X9935587Y-7488813D01*
X9978013Y-7488813D01*
X10181213Y-7044313D02*
X10181213Y-7001887D01*
X10138787Y-7001887D01*
X10138787Y-7044313D01*
X10181213Y-7044313D01*
X10181213Y-7768213D02*
X10181213Y-7725787D01*
X10138787Y-7725787D01*
X10138787Y-7768213D01*
X10181213Y-7768213D01*
X10181213Y-12289413D02*
X10181213Y-12246987D01*
X10138787Y-12246987D01*
X10138787Y-12289413D01*
X10181213Y-12289413D01*
X10524113Y-11552813D02*
X10524113Y-11510387D01*
X10481687Y-11510387D01*
X10481687Y-11552813D01*
X10524113Y-11552813D01*
X10536813Y-11743313D02*
X10536813Y-11700887D01*
X10494387Y-11700887D01*
X10494387Y-11743313D01*
X10536813Y-11743313D01*
X11705213Y-7590413D02*
X11705213Y-7547987D01*
X11662787Y-7547987D01*
X11662787Y-7590413D01*
X11705213Y-7590413D01*
X11743313Y-12835513D02*
X11743313Y-12793087D01*
X11700887Y-12793087D01*
X11700887Y-12835513D01*
X11743313Y-12835513D01*
X12098913Y-7603113D02*
X12098913Y-7560687D01*
X12056487Y-7560687D01*
X12056487Y-7603113D01*
X12098913Y-7603113D01*
X5283200Y-7782000D02*
X5318200Y-7747000D01*
X5283200Y-7712000D01*
X5248200Y-7747000D01*
X5283200Y-7782000D01*
X5486400Y-10068000D02*
X5521400Y-10033000D01*
X5486400Y-9998000D01*
X5451400Y-10033000D01*
X5486400Y-10068000D01*
X5723400Y-10093400D02*
X5758400Y-10058400D01*
X5723400Y-10023400D01*
X5688400Y-10058400D01*
X5723400Y-10093400D01*
X6654800Y-7680400D02*
X6689800Y-7645400D01*
X6654800Y-7610400D01*
X6619800Y-7645400D01*
X6654800Y-7680400D01*
X6773400Y-10093400D02*
X6808400Y-10058400D01*
X6773400Y-10023400D01*
X6738400Y-10058400D01*
X6773400Y-10093400D01*
X6917300Y-9949500D02*
X6952300Y-9914500D01*
X6917300Y-9879500D01*
X6882300Y-9914500D01*
X6917300Y-9949500D01*
X7035800Y-7680400D02*
X7070800Y-7645400D01*
X7035800Y-7610400D01*
X7000800Y-7645400D01*
X7035800Y-7680400D01*
X7442200Y-7680400D02*
X7477200Y-7645400D01*
X7442200Y-7610400D01*
X7407200Y-7645400D01*
X7442200Y-7680400D01*
X15900400Y-5978600D02*
X15935400Y-5943600D01*
X15900400Y-5908600D01*
X15865400Y-5943600D01*
X15900400Y-5978600D01*
X8471500Y-9217100D02*
X8542500Y-9288100D01*
X8542500Y-9217100D02*
X8471500Y-9288100D01*
X8542500Y-9252600D02*
G75*
G03*
X8542500Y-9252600I-35500J0D01*
G01*
X8981500Y-9337100D02*
X9052500Y-9408100D01*
X9052500Y-9337100D02*
X8981500Y-9408100D01*
X9052500Y-9372600D02*
G75*
G03*
X9052500Y-9372600I-35500J0D01*
G01*
X4074800Y-14526900D02*
X4154800Y-14606900D01*
X4154800Y-14526900D02*
X4074800Y-14606900D01*
X4114800Y-14526900D02*
X4114800Y-14606900D01*
X4074800Y-14566900D02*
X4154800Y-14566900D01*
X4074800Y-14812650D02*
X4154800Y-14892650D01*
X4154800Y-14812650D02*
X4074800Y-14892650D01*
X4114800Y-14812650D02*
X4114800Y-14892650D01*
X4074800Y-14852650D02*
X4154800Y-14852650D01*
X4836800Y-14526900D02*
X4916800Y-14606900D01*
X4916800Y-14526900D02*
X4836800Y-14606900D01*
X4876800Y-14526900D02*
X4876800Y-14606900D01*
X4836800Y-14566900D02*
X4916800Y-14566900D01*
X4836800Y-14812650D02*
X4916800Y-14892650D01*
X4916800Y-14812650D02*
X4836800Y-14892650D01*
X4876800Y-14812650D02*
X4876800Y-14892650D01*
X4836800Y-14852650D02*
X4916800Y-14852650D01*
X5319400Y-11009000D02*
X5399400Y-11089000D01*
X5399400Y-11009000D02*
X5319400Y-11089000D01*
X5359400Y-11009000D02*
X5359400Y-11089000D01*
X5319400Y-11049000D02*
X5399400Y-11049000D01*
X5319400Y-11263000D02*
X5399400Y-11343000D01*
X5399400Y-11263000D02*
X5319400Y-11343000D01*
X5359400Y-11263000D02*
X5359400Y-11343000D01*
X5319400Y-11303000D02*
X5399400Y-11303000D01*
X5319400Y-11517000D02*
X5399400Y-11597000D01*
X5399400Y-11517000D02*
X5319400Y-11597000D01*
X5359400Y-11517000D02*
X5359400Y-11597000D01*
X5319400Y-11557000D02*
X5399400Y-11557000D01*
X5319400Y-11771000D02*
X5399400Y-11851000D01*
X5399400Y-11771000D02*
X5319400Y-11851000D01*
X5359400Y-11771000D02*
X5359400Y-11851000D01*
X5319400Y-11811000D02*
X5399400Y-11811000D01*
X5319400Y-12228200D02*
X5399400Y-12308200D01*
X5399400Y-12228200D02*
X5319400Y-12308200D01*
X5359400Y-12228200D02*
X5359400Y-12308200D01*
X5319400Y-12268200D02*
X5399400Y-12268200D01*
X5319400Y-12482200D02*
X5399400Y-12562200D01*
X5399400Y-12482200D02*
X5319400Y-12562200D01*
X5359400Y-12482200D02*
X5359400Y-12562200D01*
X5319400Y-12522200D02*
X5399400Y-12522200D01*
X5319400Y-12736200D02*
X5399400Y-12816200D01*
X5399400Y-12736200D02*
X5319400Y-12816200D01*
X5359400Y-12736200D02*
X5359400Y-12816200D01*
X5319400Y-12776200D02*
X5399400Y-12776200D01*
X5319400Y-12990200D02*
X5399400Y-13070200D01*
X5399400Y-12990200D02*
X5319400Y-13070200D01*
X5359400Y-12990200D02*
X5359400Y-13070200D01*
X5319400Y-13030200D02*
X5399400Y-13030200D01*
X6081400Y-11009000D02*
X6161400Y-11089000D01*
X6161400Y-11009000D02*
X6081400Y-11089000D01*
X6121400Y-11009000D02*
X6121400Y-11089000D01*
X6081400Y-11049000D02*
X6161400Y-11049000D01*
X6081400Y-11263000D02*
X6161400Y-11343000D01*
X6161400Y-11263000D02*
X6081400Y-11343000D01*
X6121400Y-11263000D02*
X6121400Y-11343000D01*
X6081400Y-11303000D02*
X6161400Y-11303000D01*
X6081400Y-11517000D02*
X6161400Y-11597000D01*
X6161400Y-11517000D02*
X6081400Y-11597000D01*
X6121400Y-11517000D02*
X6121400Y-11597000D01*
X6081400Y-11557000D02*
X6161400Y-11557000D01*
X6081400Y-11771000D02*
X6161400Y-11851000D01*
X6161400Y-11771000D02*
X6081400Y-11851000D01*
X6121400Y-11771000D02*
X6121400Y-11851000D01*
X6081400Y-11811000D02*
X6161400Y-11811000D01*
X6081400Y-12228200D02*
X6161400Y-12308200D01*
X6161400Y-12228200D02*
X6081400Y-12308200D01*
X6121400Y-12228200D02*
X6121400Y-12308200D01*
X6081400Y-12268200D02*
X6161400Y-12268200D01*
X6081400Y-12482200D02*
X6161400Y-12562200D01*
X6161400Y-12482200D02*
X6081400Y-12562200D01*
X6121400Y-12482200D02*
X6121400Y-12562200D01*
X6081400Y-12522200D02*
X6161400Y-12522200D01*
X6081400Y-12736200D02*
X6161400Y-12816200D01*
X6161400Y-12736200D02*
X6081400Y-12816200D01*
X6121400Y-12736200D02*
X6121400Y-12816200D01*
X6081400Y-12776200D02*
X6161400Y-12776200D01*
X6081400Y-12990200D02*
X6161400Y-13070200D01*
X6161400Y-12990200D02*
X6081400Y-13070200D01*
X6121400Y-12990200D02*
X6121400Y-13070200D01*
X6081400Y-13030200D02*
X6161400Y-13030200D01*
X6995800Y-13637900D02*
X7075800Y-13717900D01*
X7075800Y-13637900D02*
X6995800Y-13717900D01*
X7035800Y-13637900D02*
X7035800Y-13717900D01*
X6995800Y-13677900D02*
X7075800Y-13677900D01*
X6995800Y-14399900D02*
X7075800Y-14479900D01*
X7075800Y-14399900D02*
X6995800Y-14479900D01*
X7035800Y-14399900D02*
X7035800Y-14479900D01*
X6995800Y-14439900D02*
X7075800Y-14439900D01*
X7249800Y-13637900D02*
X7329800Y-13717900D01*
X7329800Y-13637900D02*
X7249800Y-13717900D01*
X7289800Y-13637900D02*
X7289800Y-13717900D01*
X7249800Y-13677900D02*
X7329800Y-13677900D01*
X7249800Y-14399900D02*
X7329800Y-14479900D01*
X7329800Y-14399900D02*
X7249800Y-14479900D01*
X7289800Y-14399900D02*
X7289800Y-14479900D01*
X7249800Y-14439900D02*
X7329800Y-14439900D01*
X7503800Y-13637900D02*
X7583800Y-13717900D01*
X7583800Y-13637900D02*
X7503800Y-13717900D01*
X7543800Y-13637900D02*
X7543800Y-13717900D01*
X7503800Y-13677900D02*
X7583800Y-13677900D01*
X7503800Y-14399900D02*
X7583800Y-14479900D01*
X7583800Y-14399900D02*
X7503800Y-14479900D01*
X7543800Y-14399900D02*
X7543800Y-14479900D01*
X7503800Y-14439900D02*
X7583800Y-14439900D01*
X7554600Y-12025000D02*
X7634600Y-12105000D01*
X7634600Y-12025000D02*
X7554600Y-12105000D01*
X7594600Y-12025000D02*
X7594600Y-12105000D01*
X7554600Y-12065000D02*
X7634600Y-12065000D01*
X7757800Y-13637900D02*
X7837800Y-13717900D01*
X7837800Y-13637900D02*
X7757800Y-13717900D01*
X7797800Y-13637900D02*
X7797800Y-13717900D01*
X7757800Y-13677900D02*
X7837800Y-13677900D01*
X7757800Y-14399900D02*
X7837800Y-14479900D01*
X7837800Y-14399900D02*
X7757800Y-14479900D01*
X7797800Y-14399900D02*
X7797800Y-14479900D01*
X7757800Y-14439900D02*
X7837800Y-14439900D01*
X7904600Y-12025000D02*
X7984600Y-12105000D01*
X7984600Y-12025000D02*
X7904600Y-12105000D01*
X7944600Y-12025000D02*
X7944600Y-12105000D01*
X7904600Y-12065000D02*
X7984600Y-12065000D01*
X8240400Y-13637900D02*
X8320400Y-13717900D01*
X8320400Y-13637900D02*
X8240400Y-13717900D01*
X8280400Y-13637900D02*
X8280400Y-13717900D01*
X8240400Y-13677900D02*
X8320400Y-13677900D01*
X8240400Y-14399900D02*
X8320400Y-14479900D01*
X8320400Y-14399900D02*
X8240400Y-14479900D01*
X8280400Y-14399900D02*
X8280400Y-14479900D01*
X8240400Y-14439900D02*
X8320400Y-14439900D01*
X8494400Y-11999600D02*
X8574400Y-12079600D01*
X8574400Y-11999600D02*
X8494400Y-12079600D01*
X8534400Y-11999600D02*
X8534400Y-12079600D01*
X8494400Y-12039600D02*
X8574400Y-12039600D01*
X8494400Y-13637900D02*
X8574400Y-13717900D01*
X8574400Y-13637900D02*
X8494400Y-13717900D01*
X8534400Y-13637900D02*
X8534400Y-13717900D01*
X8494400Y-13677900D02*
X8574400Y-13677900D01*
X8494400Y-14399900D02*
X8574400Y-14479900D01*
X8574400Y-14399900D02*
X8494400Y-14479900D01*
X8534400Y-14399900D02*
X8534400Y-14479900D01*
X8494400Y-14439900D02*
X8574400Y-14439900D01*
X8748400Y-13637900D02*
X8828400Y-13717900D01*
X8828400Y-13637900D02*
X8748400Y-13717900D01*
X8788400Y-13637900D02*
X8788400Y-13717900D01*
X8748400Y-13677900D02*
X8828400Y-13677900D01*
X8748400Y-14399900D02*
X8828400Y-14479900D01*
X8828400Y-14399900D02*
X8748400Y-14479900D01*
X8788400Y-14399900D02*
X8788400Y-14479900D01*
X8748400Y-14439900D02*
X8828400Y-14439900D01*
X8824600Y-10170800D02*
X8904600Y-10250800D01*
X8904600Y-10170800D02*
X8824600Y-10250800D01*
X8864600Y-10170800D02*
X8864600Y-10250800D01*
X8824600Y-10210800D02*
X8904600Y-10210800D01*
X8844400Y-11999600D02*
X8924400Y-12079600D01*
X8924400Y-11999600D02*
X8844400Y-12079600D01*
X8884400Y-11999600D02*
X8884400Y-12079600D01*
X8844400Y-12039600D02*
X8924400Y-12039600D01*
X9002400Y-13637900D02*
X9082400Y-13717900D01*
X9082400Y-13637900D02*
X9002400Y-13717900D01*
X9042400Y-13637900D02*
X9042400Y-13717900D01*
X9002400Y-13677900D02*
X9082400Y-13677900D01*
X9002400Y-14399900D02*
X9082400Y-14479900D01*
X9082400Y-14399900D02*
X9002400Y-14479900D01*
X9042400Y-14399900D02*
X9042400Y-14479900D01*
X9002400Y-14439900D02*
X9082400Y-14439900D01*
X9116700Y-12520300D02*
X9196700Y-12600300D01*
X9196700Y-12520300D02*
X9116700Y-12600300D01*
X9156700Y-12520300D02*
X9156700Y-12600300D01*
X9116700Y-12560300D02*
X9196700Y-12560300D01*
X9116700Y-13282300D02*
X9196700Y-13362300D01*
X9196700Y-13282300D02*
X9116700Y-13362300D01*
X9156700Y-13282300D02*
X9156700Y-13362300D01*
X9116700Y-13322300D02*
X9196700Y-13322300D01*
X9174600Y-10170800D02*
X9254600Y-10250800D01*
X9254600Y-10170800D02*
X9174600Y-10250800D01*
X9214600Y-10170800D02*
X9214600Y-10250800D01*
X9174600Y-10210800D02*
X9254600Y-10210800D01*
X9370700Y-12520300D02*
X9450700Y-12600300D01*
X9450700Y-12520300D02*
X9370700Y-12600300D01*
X9410700Y-12520300D02*
X9410700Y-12600300D01*
X9370700Y-12560300D02*
X9450700Y-12560300D01*
X9370700Y-13282300D02*
X9450700Y-13362300D01*
X9450700Y-13282300D02*
X9370700Y-13362300D01*
X9410700Y-13282300D02*
X9410700Y-13362300D01*
X9370700Y-13322300D02*
X9450700Y-13322300D01*
X9485000Y-13637900D02*
X9565000Y-13717900D01*
X9565000Y-13637900D02*
X9485000Y-13717900D01*
X9525000Y-13637900D02*
X9525000Y-13717900D01*
X9485000Y-13677900D02*
X9565000Y-13677900D01*
X9485000Y-14399900D02*
X9565000Y-14479900D01*
X9565000Y-14399900D02*
X9485000Y-14479900D01*
X9525000Y-14399900D02*
X9525000Y-14479900D01*
X9485000Y-14439900D02*
X9565000Y-14439900D01*
X9624700Y-12520300D02*
X9704700Y-12600300D01*
X9704700Y-12520300D02*
X9624700Y-12600300D01*
X9664700Y-12520300D02*
X9664700Y-12600300D01*
X9624700Y-12560300D02*
X9704700Y-12560300D01*
X9624700Y-13282300D02*
X9704700Y-13362300D01*
X9704700Y-13282300D02*
X9624700Y-13362300D01*
X9664700Y-13282300D02*
X9664700Y-13362300D01*
X9624700Y-13322300D02*
X9704700Y-13322300D01*
X9739000Y-13637900D02*
X9819000Y-13717900D01*
X9819000Y-13637900D02*
X9739000Y-13717900D01*
X9779000Y-13637900D02*
X9779000Y-13717900D01*
X9739000Y-13677900D02*
X9819000Y-13677900D01*
X9739000Y-14399900D02*
X9819000Y-14479900D01*
X9819000Y-14399900D02*
X9739000Y-14479900D01*
X9779000Y-14399900D02*
X9779000Y-14479900D01*
X9739000Y-14439900D02*
X9819000Y-14439900D01*
X9878700Y-12520300D02*
X9958700Y-12600300D01*
X9958700Y-12520300D02*
X9878700Y-12600300D01*
X9918700Y-12520300D02*
X9918700Y-12600300D01*
X9878700Y-12560300D02*
X9958700Y-12560300D01*
X9878700Y-13282300D02*
X9958700Y-13362300D01*
X9958700Y-13282300D02*
X9878700Y-13362300D01*
X9918700Y-13282300D02*
X9918700Y-13362300D01*
X9878700Y-13322300D02*
X9958700Y-13322300D01*
X9993000Y-13637900D02*
X10073000Y-13717900D01*
X10073000Y-13637900D02*
X9993000Y-13717900D01*
X10033000Y-13637900D02*
X10033000Y-13717900D01*
X9993000Y-13677900D02*
X10073000Y-13677900D01*
X9993000Y-14399900D02*
X10073000Y-14479900D01*
X10073000Y-14399900D02*
X9993000Y-14479900D01*
X10033000Y-14399900D02*
X10033000Y-14479900D01*
X9993000Y-14439900D02*
X10073000Y-14439900D01*
X10247000Y-13637900D02*
X10327000Y-13717900D01*
X10327000Y-13637900D02*
X10247000Y-13717900D01*
X10287000Y-13637900D02*
X10287000Y-13717900D01*
X10247000Y-13677900D02*
X10327000Y-13677900D01*
X10247000Y-14399900D02*
X10327000Y-14479900D01*
X10327000Y-14399900D02*
X10247000Y-14479900D01*
X10287000Y-14399900D02*
X10287000Y-14479900D01*
X10247000Y-14439900D02*
X10327000Y-14439900D01*
X10729600Y-13637900D02*
X10809600Y-13717900D01*
X10809600Y-13637900D02*
X10729600Y-13717900D01*
X10769600Y-13637900D02*
X10769600Y-13717900D01*
X10729600Y-13677900D02*
X10809600Y-13677900D01*
X10729600Y-14399900D02*
X10809600Y-14479900D01*
X10809600Y-14399900D02*
X10729600Y-14479900D01*
X10769600Y-14399900D02*
X10769600Y-14479900D01*
X10729600Y-14439900D02*
X10809600Y-14439900D01*
X10780400Y-9840600D02*
X10860400Y-9920600D01*
X10860400Y-9840600D02*
X10780400Y-9920600D01*
X10820400Y-9840600D02*
X10820400Y-9920600D01*
X10780400Y-9880600D02*
X10860400Y-9880600D01*
X10805800Y-11136000D02*
X10885800Y-11216000D01*
X10885800Y-11136000D02*
X10805800Y-11216000D01*
X10845800Y-11136000D02*
X10845800Y-11216000D01*
X10805800Y-11176000D02*
X10885800Y-11176000D01*
X10983600Y-13637900D02*
X11063600Y-13717900D01*
X11063600Y-13637900D02*
X10983600Y-13717900D01*
X11023600Y-13637900D02*
X11023600Y-13717900D01*
X10983600Y-13677900D02*
X11063600Y-13677900D01*
X10983600Y-14399900D02*
X11063600Y-14479900D01*
X11063600Y-14399900D02*
X10983600Y-14479900D01*
X11023600Y-14399900D02*
X11023600Y-14479900D01*
X10983600Y-14439900D02*
X11063600Y-14439900D01*
X11130400Y-9840600D02*
X11210400Y-9920600D01*
X11210400Y-9840600D02*
X11130400Y-9920600D01*
X11170400Y-9840600D02*
X11170400Y-9920600D01*
X11130400Y-9880600D02*
X11210400Y-9880600D01*
X11155800Y-11136000D02*
X11235800Y-11216000D01*
X11235800Y-11136000D02*
X11155800Y-11216000D01*
X11195800Y-11136000D02*
X11195800Y-11216000D01*
X11155800Y-11176000D02*
X11235800Y-11176000D01*
X11237600Y-13637900D02*
X11317600Y-13717900D01*
X11317600Y-13637900D02*
X11237600Y-13717900D01*
X11277600Y-13637900D02*
X11277600Y-13717900D01*
X11237600Y-13677900D02*
X11317600Y-13677900D01*
X11237600Y-14399900D02*
X11317600Y-14479900D01*
X11317600Y-14399900D02*
X11237600Y-14479900D01*
X11277600Y-14399900D02*
X11277600Y-14479900D01*
X11237600Y-14439900D02*
X11317600Y-14439900D01*
X11491600Y-13637900D02*
X11571600Y-13717900D01*
X11571600Y-13637900D02*
X11491600Y-13717900D01*
X11531600Y-13637900D02*
X11531600Y-13717900D01*
X11491600Y-13677900D02*
X11571600Y-13677900D01*
X11491600Y-14399900D02*
X11571600Y-14479900D01*
X11571600Y-14399900D02*
X11491600Y-14479900D01*
X11531600Y-14399900D02*
X11531600Y-14479900D01*
X11491600Y-14439900D02*
X11571600Y-14439900D01*
X11720200Y-9815200D02*
X11800200Y-9895200D01*
X11800200Y-9815200D02*
X11720200Y-9895200D01*
X11760200Y-9815200D02*
X11760200Y-9895200D01*
X11720200Y-9855200D02*
X11800200Y-9855200D01*
X11974200Y-13637900D02*
X12054200Y-13717900D01*
X12054200Y-13637900D02*
X11974200Y-13717900D01*
X12014200Y-13637900D02*
X12014200Y-13717900D01*
X11974200Y-13677900D02*
X12054200Y-13677900D01*
X11974200Y-14399900D02*
X12054200Y-14479900D01*
X12054200Y-14399900D02*
X11974200Y-14479900D01*
X12014200Y-14399900D02*
X12014200Y-14479900D01*
X11974200Y-14439900D02*
X12054200Y-14439900D01*
X12070200Y-9815200D02*
X12150200Y-9895200D01*
X12150200Y-9815200D02*
X12070200Y-9895200D01*
X12110200Y-9815200D02*
X12110200Y-9895200D01*
X12070200Y-9855200D02*
X12150200Y-9855200D01*
X12228200Y-13637900D02*
X12308200Y-13717900D01*
X12308200Y-13637900D02*
X12228200Y-13717900D01*
X12268200Y-13637900D02*
X12268200Y-13717900D01*
X12228200Y-13677900D02*
X12308200Y-13677900D01*
X12228200Y-14399900D02*
X12308200Y-14479900D01*
X12308200Y-14399900D02*
X12228200Y-14479900D01*
X12268200Y-14399900D02*
X12268200Y-14479900D01*
X12228200Y-14439900D02*
X12308200Y-14439900D01*
X12482200Y-13637900D02*
X12562200Y-13717900D01*
X12562200Y-13637900D02*
X12482200Y-13717900D01*
X12522200Y-13637900D02*
X12522200Y-13717900D01*
X12482200Y-13677900D02*
X12562200Y-13677900D01*
X12482200Y-14399900D02*
X12562200Y-14479900D01*
X12562200Y-14399900D02*
X12482200Y-14479900D01*
X12522200Y-14399900D02*
X12522200Y-14479900D01*
X12482200Y-14439900D02*
X12562200Y-14439900D01*
X12736200Y-13637900D02*
X12816200Y-13717900D01*
X12816200Y-13637900D02*
X12736200Y-13717900D01*
X12776200Y-13637900D02*
X12776200Y-13717900D01*
X12736200Y-13677900D02*
X12816200Y-13677900D01*
X12736200Y-14399900D02*
X12816200Y-14479900D01*
X12816200Y-14399900D02*
X12736200Y-14479900D01*
X12776200Y-14399900D02*
X12776200Y-14479900D01*
X12736200Y-14439900D02*
X12816200Y-14439900D01*
X15346050Y-11517000D02*
X15426050Y-11597000D01*
X15426050Y-11517000D02*
X15346050Y-11597000D01*
X15386050Y-11517000D02*
X15386050Y-11597000D01*
X15346050Y-11557000D02*
X15426050Y-11557000D01*
X15346050Y-11771000D02*
X15426050Y-11851000D01*
X15426050Y-11771000D02*
X15346050Y-11851000D01*
X15386050Y-11771000D02*
X15386050Y-11851000D01*
X15346050Y-11811000D02*
X15426050Y-11811000D01*
X15346050Y-12025000D02*
X15426050Y-12105000D01*
X15426050Y-12025000D02*
X15346050Y-12105000D01*
X15386050Y-12025000D02*
X15386050Y-12105000D01*
X15346050Y-12065000D02*
X15426050Y-12065000D01*
X15346050Y-12279000D02*
X15426050Y-12359000D01*
X15426050Y-12279000D02*
X15346050Y-12359000D01*
X15386050Y-12279000D02*
X15386050Y-12359000D01*
X15346050Y-12319000D02*
X15426050Y-12319000D01*
X15346050Y-12787000D02*
X15426050Y-12867000D01*
X15426050Y-12787000D02*
X15346050Y-12867000D01*
X15386050Y-12787000D02*
X15386050Y-12867000D01*
X15346050Y-12827000D02*
X15426050Y-12827000D01*
X15346050Y-13041000D02*
X15426050Y-13121000D01*
X15426050Y-13041000D02*
X15346050Y-13121000D01*
X15386050Y-13041000D02*
X15386050Y-13121000D01*
X15346050Y-13081000D02*
X15426050Y-13081000D01*
X15346050Y-13295000D02*
X15426050Y-13375000D01*
X15426050Y-13295000D02*
X15346050Y-13375000D01*
X15386050Y-13295000D02*
X15386050Y-13375000D01*
X15346050Y-13335000D02*
X15426050Y-13335000D01*
X15346050Y-13549000D02*
X15426050Y-13629000D01*
X15426050Y-13549000D02*
X15346050Y-13629000D01*
X15386050Y-13549000D02*
X15386050Y-13629000D01*
X15346050Y-13589000D02*
X15426050Y-13589000D01*
X16108050Y-11517000D02*
X16188050Y-11597000D01*
X16188050Y-11517000D02*
X16108050Y-11597000D01*
X16148050Y-11517000D02*
X16148050Y-11597000D01*
X16108050Y-11557000D02*
X16188050Y-11557000D01*
X16108050Y-11771000D02*
X16188050Y-11851000D01*
X16188050Y-11771000D02*
X16108050Y-11851000D01*
X16148050Y-11771000D02*
X16148050Y-11851000D01*
X16108050Y-11811000D02*
X16188050Y-11811000D01*
X16108050Y-12025000D02*
X16188050Y-12105000D01*
X16188050Y-12025000D02*
X16108050Y-12105000D01*
X16148050Y-12025000D02*
X16148050Y-12105000D01*
X16108050Y-12065000D02*
X16188050Y-12065000D01*
X16108050Y-12279000D02*
X16188050Y-12359000D01*
X16188050Y-12279000D02*
X16108050Y-12359000D01*
X16148050Y-12279000D02*
X16148050Y-12359000D01*
X16108050Y-12319000D02*
X16188050Y-12319000D01*
X16108050Y-12787000D02*
X16188050Y-12867000D01*
X16188050Y-12787000D02*
X16108050Y-12867000D01*
X16148050Y-12787000D02*
X16148050Y-12867000D01*
X16108050Y-12827000D02*
X16188050Y-12827000D01*
X16108050Y-13041000D02*
X16188050Y-13121000D01*
X16188050Y-13041000D02*
X16108050Y-13121000D01*
X16148050Y-13041000D02*
X16148050Y-13121000D01*
X16108050Y-13081000D02*
X16188050Y-13081000D01*
X16108050Y-13295000D02*
X16188050Y-13375000D01*
X16188050Y-13295000D02*
X16108050Y-13375000D01*
X16148050Y-13295000D02*
X16148050Y-13375000D01*
X16108050Y-13335000D02*
X16188050Y-13335000D01*
X16108050Y-13549000D02*
X16188050Y-13629000D01*
X16188050Y-13549000D02*
X16108050Y-13629000D01*
X16148050Y-13549000D02*
X16148050Y-13629000D01*
X16108050Y-13589000D02*
X16188050Y-13589000D01*
X16635100Y-11529700D02*
X16715100Y-11609700D01*
X16715100Y-11529700D02*
X16635100Y-11609700D01*
X16675100Y-11529700D02*
X16675100Y-11609700D01*
X16635100Y-11569700D02*
X16715100Y-11569700D01*
X16635100Y-11783700D02*
X16715100Y-11863700D01*
X16715100Y-11783700D02*
X16635100Y-11863700D01*
X16675100Y-11783700D02*
X16675100Y-11863700D01*
X16635100Y-11823700D02*
X16715100Y-11823700D01*
X16635100Y-12037700D02*
X16715100Y-12117700D01*
X16715100Y-12037700D02*
X16635100Y-12117700D01*
X16675100Y-12037700D02*
X16675100Y-12117700D01*
X16635100Y-12077700D02*
X16715100Y-12077700D01*
X16635100Y-12291700D02*
X16715100Y-12371700D01*
X16715100Y-12291700D02*
X16635100Y-12371700D01*
X16675100Y-12291700D02*
X16675100Y-12371700D01*
X16635100Y-12331700D02*
X16715100Y-12331700D01*
X16635100Y-12787000D02*
X16715100Y-12867000D01*
X16715100Y-12787000D02*
X16635100Y-12867000D01*
X16675100Y-12787000D02*
X16675100Y-12867000D01*
X16635100Y-12827000D02*
X16715100Y-12827000D01*
X16635100Y-13041000D02*
X16715100Y-13121000D01*
X16715100Y-13041000D02*
X16635100Y-13121000D01*
X16675100Y-13041000D02*
X16675100Y-13121000D01*
X16635100Y-13081000D02*
X16715100Y-13081000D01*
X16635100Y-13295000D02*
X16715100Y-13375000D01*
X16715100Y-13295000D02*
X16635100Y-13375000D01*
X16675100Y-13295000D02*
X16675100Y-13375000D01*
X16635100Y-13335000D02*
X16715100Y-13335000D01*
X16635100Y-13549000D02*
X16715100Y-13629000D01*
X16715100Y-13549000D02*
X16635100Y-13629000D01*
X16675100Y-13549000D02*
X16675100Y-13629000D01*
X16635100Y-13589000D02*
X16715100Y-13589000D01*
X17397100Y-11529700D02*
X17477100Y-11609700D01*
X17477100Y-11529700D02*
X17397100Y-11609700D01*
X17437100Y-11529700D02*
X17437100Y-11609700D01*
X17397100Y-11569700D02*
X17477100Y-11569700D01*
X17397100Y-11783700D02*
X17477100Y-11863700D01*
X17477100Y-11783700D02*
X17397100Y-11863700D01*
X17437100Y-11783700D02*
X17437100Y-11863700D01*
X17397100Y-11823700D02*
X17477100Y-11823700D01*
X17397100Y-12037700D02*
X17477100Y-12117700D01*
X17477100Y-12037700D02*
X17397100Y-12117700D01*
X17437100Y-12037700D02*
X17437100Y-12117700D01*
X17397100Y-12077700D02*
X17477100Y-12077700D01*
X17397100Y-12291700D02*
X17477100Y-12371700D01*
X17477100Y-12291700D02*
X17397100Y-12371700D01*
X17437100Y-12291700D02*
X17437100Y-12371700D01*
X17397100Y-12331700D02*
X17477100Y-12331700D01*
X17397100Y-12787000D02*
X17477100Y-12867000D01*
X17477100Y-12787000D02*
X17397100Y-12867000D01*
X17437100Y-12787000D02*
X17437100Y-12867000D01*
X17397100Y-12827000D02*
X17477100Y-12827000D01*
X17397100Y-13041000D02*
X17477100Y-13121000D01*
X17477100Y-13041000D02*
X17397100Y-13121000D01*
X17437100Y-13041000D02*
X17437100Y-13121000D01*
X17397100Y-13081000D02*
X17477100Y-13081000D01*
X17397100Y-13295000D02*
X17477100Y-13375000D01*
X17477100Y-13295000D02*
X17397100Y-13375000D01*
X17437100Y-13295000D02*
X17437100Y-13375000D01*
X17397100Y-13335000D02*
X17477100Y-13335000D01*
X17397100Y-13549000D02*
X17477100Y-13629000D01*
X17477100Y-13549000D02*
X17397100Y-13629000D01*
X17437100Y-13549000D02*
X17437100Y-13629000D01*
X17397100Y-13589000D02*
X17477100Y-13589000D01*
X13826400Y-14101800D02*
X13918400Y-14193800D01*
X13918400Y-14101800D02*
X13826400Y-14193800D01*
X13904927Y-14180327D02*
X13904927Y-14115273D01*
X13839873Y-14115273D01*
X13839873Y-14180327D01*
X13904927Y-14180327D01*
X13826400Y-14301800D02*
X13918400Y-14393800D01*
X13918400Y-14301800D02*
X13826400Y-14393800D01*
X13904927Y-14380327D02*
X13904927Y-14315273D01*
X13839873Y-14315273D01*
X13839873Y-14380327D01*
X13904927Y-14380327D01*
X14076400Y-14101800D02*
X14168400Y-14193800D01*
X14168400Y-14101800D02*
X14076400Y-14193800D01*
X14154927Y-14180327D02*
X14154927Y-14115273D01*
X14089873Y-14115273D01*
X14089873Y-14180327D01*
X14154927Y-14180327D01*
X14076400Y-14301800D02*
X14168400Y-14393800D01*
X14168400Y-14301800D02*
X14076400Y-14393800D01*
X14154927Y-14380327D02*
X14154927Y-14315273D01*
X14089873Y-14315273D01*
X14089873Y-14380327D01*
X14154927Y-14380327D01*
X15756800Y-14101800D02*
X15848800Y-14193800D01*
X15848800Y-14101800D02*
X15756800Y-14193800D01*
X15835327Y-14180327D02*
X15835327Y-14115273D01*
X15770273Y-14115273D01*
X15770273Y-14180327D01*
X15835327Y-14180327D01*
X15756800Y-14301800D02*
X15848800Y-14393800D01*
X15848800Y-14301800D02*
X15756800Y-14393800D01*
X15835327Y-14380327D02*
X15835327Y-14315273D01*
X15770273Y-14315273D01*
X15770273Y-14380327D01*
X15835327Y-14380327D01*
X16006800Y-14101800D02*
X16098800Y-14193800D01*
X16098800Y-14101800D02*
X16006800Y-14193800D01*
X16085327Y-14180327D02*
X16085327Y-14115273D01*
X16020273Y-14115273D01*
X16020273Y-14180327D01*
X16085327Y-14180327D01*
X16006800Y-14301800D02*
X16098800Y-14393800D01*
X16098800Y-14301800D02*
X16006800Y-14393800D01*
X16085327Y-14380327D02*
X16085327Y-14315273D01*
X16020273Y-14315273D01*
X16020273Y-14380327D01*
X16085327Y-14380327D01*
X15418600Y-9386100D02*
X15518600Y-9486100D01*
X15518600Y-9386100D02*
X15418600Y-9486100D01*
X15468600Y-9486100D02*
X15518600Y-9436100D01*
X15468600Y-9386100D01*
X15418600Y-9436100D01*
X15468600Y-9486100D01*
X15418600Y-9640100D02*
X15518600Y-9740100D01*
X15518600Y-9640100D02*
X15418600Y-9740100D01*
X15468600Y-9740100D02*
X15518600Y-9690100D01*
X15468600Y-9640100D01*
X15418600Y-9690100D01*
X15468600Y-9740100D01*
X15418600Y-9894100D02*
X15518600Y-9994100D01*
X15518600Y-9894100D02*
X15418600Y-9994100D01*
X15468600Y-9994100D02*
X15518600Y-9944100D01*
X15468600Y-9894100D01*
X15418600Y-9944100D01*
X15468600Y-9994100D01*
X15418600Y-10402100D02*
X15518600Y-10502100D01*
X15518600Y-10402100D02*
X15418600Y-10502100D01*
X15468600Y-10502100D02*
X15518600Y-10452100D01*
X15468600Y-10402100D01*
X15418600Y-10452100D01*
X15468600Y-10502100D01*
X15418600Y-10656100D02*
X15518600Y-10756100D01*
X15518600Y-10656100D02*
X15418600Y-10756100D01*
X15468600Y-10756100D02*
X15518600Y-10706100D01*
X15468600Y-10656100D01*
X15418600Y-10706100D01*
X15468600Y-10756100D01*
X15418600Y-10910100D02*
X15518600Y-11010100D01*
X15518600Y-10910100D02*
X15418600Y-11010100D01*
X15468600Y-11010100D02*
X15518600Y-10960100D01*
X15468600Y-10910100D01*
X15418600Y-10960100D01*
X15468600Y-11010100D01*
X15672600Y-9386100D02*
X15772600Y-9486100D01*
X15772600Y-9386100D02*
X15672600Y-9486100D01*
X15722600Y-9486100D02*
X15772600Y-9436100D01*
X15722600Y-9386100D01*
X15672600Y-9436100D01*
X15722600Y-9486100D01*
X15672600Y-9640100D02*
X15772600Y-9740100D01*
X15772600Y-9640100D02*
X15672600Y-9740100D01*
X15722600Y-9740100D02*
X15772600Y-9690100D01*
X15722600Y-9640100D01*
X15672600Y-9690100D01*
X15722600Y-9740100D01*
X15672600Y-9894100D02*
X15772600Y-9994100D01*
X15772600Y-9894100D02*
X15672600Y-9994100D01*
X15722600Y-9994100D02*
X15772600Y-9944100D01*
X15722600Y-9894100D01*
X15672600Y-9944100D01*
X15722600Y-9994100D01*
X15672600Y-10402100D02*
X15772600Y-10502100D01*
X15772600Y-10402100D02*
X15672600Y-10502100D01*
X15722600Y-10502100D02*
X15772600Y-10452100D01*
X15722600Y-10402100D01*
X15672600Y-10452100D01*
X15722600Y-10502100D01*
X15672600Y-10656100D02*
X15772600Y-10756100D01*
X15772600Y-10656100D02*
X15672600Y-10756100D01*
X15722600Y-10756100D02*
X15772600Y-10706100D01*
X15722600Y-10656100D01*
X15672600Y-10706100D01*
X15722600Y-10756100D01*
X15672600Y-10910100D02*
X15772600Y-11010100D01*
X15772600Y-10910100D02*
X15672600Y-11010100D01*
X15722600Y-11010100D02*
X15772600Y-10960100D01*
X15722600Y-10910100D01*
X15672600Y-10960100D01*
X15722600Y-11010100D01*
X4876800Y-5397500D02*
X4876800Y-5499100D01*
X4826000Y-5448300D02*
X4927600Y-5448300D01*
X4927600Y-5448300D02*
G75*
G03*
X4927600Y-5448300I-50800J0D01*
G01*
X4876800Y-6667500D02*
X4876800Y-6769100D01*
X4826000Y-6718300D02*
X4927600Y-6718300D01*
X4927600Y-6718300D02*
G75*
G03*
X4927600Y-6718300I-50800J0D01*
G01*
X5130800Y-5397500D02*
X5130800Y-5499100D01*
X5080000Y-5448300D02*
X5181600Y-5448300D01*
X5181600Y-5448300D02*
G75*
G03*
X5181600Y-5448300I-50800J0D01*
G01*
X5130800Y-6667500D02*
X5130800Y-6769100D01*
X5080000Y-6718300D02*
X5181600Y-6718300D01*
X5181600Y-6718300D02*
G75*
G03*
X5181600Y-6718300I-50800J0D01*
G01*
X5384800Y-5397500D02*
X5384800Y-5499100D01*
X5334000Y-5448300D02*
X5435600Y-5448300D01*
X5435600Y-5448300D02*
G75*
G03*
X5435600Y-5448300I-50800J0D01*
G01*
X5384800Y-6667500D02*
X5384800Y-6769100D01*
X5334000Y-6718300D02*
X5435600Y-6718300D01*
X5435600Y-6718300D02*
G75*
G03*
X5435600Y-6718300I-50800J0D01*
G01*
X5638800Y-5397500D02*
X5638800Y-5499100D01*
X5588000Y-5448300D02*
X5689600Y-5448300D01*
X5689600Y-5448300D02*
G75*
G03*
X5689600Y-5448300I-50800J0D01*
G01*
X5638800Y-6667500D02*
X5638800Y-6769100D01*
X5588000Y-6718300D02*
X5689600Y-6718300D01*
X5689600Y-6718300D02*
G75*
G03*
X5689600Y-6718300I-50800J0D01*
G01*
X5892800Y-5397500D02*
X5892800Y-5499100D01*
X5842000Y-5448300D02*
X5943600Y-5448300D01*
X5943600Y-5448300D02*
G75*
G03*
X5943600Y-5448300I-50800J0D01*
G01*
X5892800Y-6667500D02*
X5892800Y-6769100D01*
X5842000Y-6718300D02*
X5943600Y-6718300D01*
X5943600Y-6718300D02*
G75*
G03*
X5943600Y-6718300I-50800J0D01*
G01*
X6146800Y-5397500D02*
X6146800Y-5499100D01*
X6096000Y-5448300D02*
X6197600Y-5448300D01*
X6197600Y-5448300D02*
G75*
G03*
X6197600Y-5448300I-50800J0D01*
G01*
X6146800Y-6667500D02*
X6146800Y-6769100D01*
X6096000Y-6718300D02*
X6197600Y-6718300D01*
X6197600Y-6718300D02*
G75*
G03*
X6197600Y-6718300I-50800J0D01*
G01*
X6400800Y-5397500D02*
X6400800Y-5499100D01*
X6350000Y-5448300D02*
X6451600Y-5448300D01*
X6451600Y-5448300D02*
G75*
G03*
X6451600Y-5448300I-50800J0D01*
G01*
X6400800Y-6667500D02*
X6400800Y-6769100D01*
X6350000Y-6718300D02*
X6451600Y-6718300D01*
X6451600Y-6718300D02*
G75*
G03*
X6451600Y-6718300I-50800J0D01*
G01*
X6489700Y-6286500D02*
X6489700Y-6388100D01*
X6438900Y-6337300D02*
X6540500Y-6337300D01*
X6540500Y-6337300D02*
G75*
G03*
X6540500Y-6337300I-50800J0D01*
G01*
X6654800Y-5397500D02*
X6654800Y-5499100D01*
X6604000Y-5448300D02*
X6705600Y-5448300D01*
X6705600Y-5448300D02*
G75*
G03*
X6705600Y-5448300I-50800J0D01*
G01*
X6654800Y-6159500D02*
X6654800Y-6261100D01*
X6604000Y-6210300D02*
X6705600Y-6210300D01*
X6705600Y-6210300D02*
G75*
G03*
X6705600Y-6210300I-50800J0D01*
G01*
X6654800Y-6413500D02*
X6654800Y-6515100D01*
X6604000Y-6464300D02*
X6705600Y-6464300D01*
X6705600Y-6464300D02*
G75*
G03*
X6705600Y-6464300I-50800J0D01*
G01*
X6654800Y-6667500D02*
X6654800Y-6769100D01*
X6604000Y-6718300D02*
X6705600Y-6718300D01*
X6705600Y-6718300D02*
G75*
G03*
X6705600Y-6718300I-50800J0D01*
G01*
X7772400Y-5397500D02*
X7772400Y-5499100D01*
X7721600Y-5448300D02*
X7823200Y-5448300D01*
X7823200Y-5448300D02*
G75*
G03*
X7823200Y-5448300I-50800J0D01*
G01*
X7772400Y-6667500D02*
X7772400Y-6769100D01*
X7721600Y-6718300D02*
X7823200Y-6718300D01*
X7823200Y-6718300D02*
G75*
G03*
X7823200Y-6718300I-50800J0D01*
G01*
X8026400Y-5397500D02*
X8026400Y-5499100D01*
X7975600Y-5448300D02*
X8077200Y-5448300D01*
X8077200Y-5448300D02*
G75*
G03*
X8077200Y-5448300I-50800J0D01*
G01*
X8026400Y-6667500D02*
X8026400Y-6769100D01*
X7975600Y-6718300D02*
X8077200Y-6718300D01*
X8077200Y-6718300D02*
G75*
G03*
X8077200Y-6718300I-50800J0D01*
G01*
X8280400Y-5397500D02*
X8280400Y-5499100D01*
X8229600Y-5448300D02*
X8331200Y-5448300D01*
X8331200Y-5448300D02*
G75*
G03*
X8331200Y-5448300I-50800J0D01*
G01*
X8280400Y-6667500D02*
X8280400Y-6769100D01*
X8229600Y-6718300D02*
X8331200Y-6718300D01*
X8331200Y-6718300D02*
G75*
G03*
X8331200Y-6718300I-50800J0D01*
G01*
X8534400Y-5397500D02*
X8534400Y-5499100D01*
X8483600Y-5448300D02*
X8585200Y-5448300D01*
X8585200Y-5448300D02*
G75*
G03*
X8585200Y-5448300I-50800J0D01*
G01*
X8534400Y-6667500D02*
X8534400Y-6769100D01*
X8483600Y-6718300D02*
X8585200Y-6718300D01*
X8585200Y-6718300D02*
G75*
G03*
X8585200Y-6718300I-50800J0D01*
G01*
X8788400Y-5397500D02*
X8788400Y-5499100D01*
X8737600Y-5448300D02*
X8839200Y-5448300D01*
X8839200Y-5448300D02*
G75*
G03*
X8839200Y-5448300I-50800J0D01*
G01*
X8788400Y-6667500D02*
X8788400Y-6769100D01*
X8737600Y-6718300D02*
X8839200Y-6718300D01*
X8839200Y-6718300D02*
G75*
G03*
X8839200Y-6718300I-50800J0D01*
G01*
X9042400Y-5397500D02*
X9042400Y-5499100D01*
X8991600Y-5448300D02*
X9093200Y-5448300D01*
X9093200Y-5448300D02*
G75*
G03*
X9093200Y-5448300I-50800J0D01*
G01*
X9042400Y-6667500D02*
X9042400Y-6769100D01*
X8991600Y-6718300D02*
X9093200Y-6718300D01*
X9093200Y-6718300D02*
G75*
G03*
X9093200Y-6718300I-50800J0D01*
G01*
X9296400Y-5397500D02*
X9296400Y-5499100D01*
X9245600Y-5448300D02*
X9347200Y-5448300D01*
X9347200Y-5448300D02*
G75*
G03*
X9347200Y-5448300I-50800J0D01*
G01*
X9296400Y-6667500D02*
X9296400Y-6769100D01*
X9245600Y-6718300D02*
X9347200Y-6718300D01*
X9347200Y-6718300D02*
G75*
G03*
X9347200Y-6718300I-50800J0D01*
G01*
X9385300Y-6286500D02*
X9385300Y-6388100D01*
X9334500Y-6337300D02*
X9436100Y-6337300D01*
X9436100Y-6337300D02*
G75*
G03*
X9436100Y-6337300I-50800J0D01*
G01*
X9550400Y-5397500D02*
X9550400Y-5499100D01*
X9499600Y-5448300D02*
X9601200Y-5448300D01*
X9601200Y-5448300D02*
G75*
G03*
X9601200Y-5448300I-50800J0D01*
G01*
X9550400Y-6159500D02*
X9550400Y-6261100D01*
X9499600Y-6210300D02*
X9601200Y-6210300D01*
X9601200Y-6210300D02*
G75*
G03*
X9601200Y-6210300I-50800J0D01*
G01*
X9550400Y-6413500D02*
X9550400Y-6515100D01*
X9499600Y-6464300D02*
X9601200Y-6464300D01*
X9601200Y-6464300D02*
G75*
G03*
X9601200Y-6464300I-50800J0D01*
G01*
X9550400Y-6667500D02*
X9550400Y-6769100D01*
X9499600Y-6718300D02*
X9601200Y-6718300D01*
X9601200Y-6718300D02*
G75*
G03*
X9601200Y-6718300I-50800J0D01*
G01*
X10693400Y-5397500D02*
X10693400Y-5499100D01*
X10642600Y-5448300D02*
X10744200Y-5448300D01*
X10744200Y-5448300D02*
G75*
G03*
X10744200Y-5448300I-50800J0D01*
G01*
X10693400Y-6667500D02*
X10693400Y-6769100D01*
X10642600Y-6718300D02*
X10744200Y-6718300D01*
X10744200Y-6718300D02*
G75*
G03*
X10744200Y-6718300I-50800J0D01*
G01*
X10947400Y-5397500D02*
X10947400Y-5499100D01*
X10896600Y-5448300D02*
X10998200Y-5448300D01*
X10998200Y-5448300D02*
G75*
G03*
X10998200Y-5448300I-50800J0D01*
G01*
X10947400Y-6667500D02*
X10947400Y-6769100D01*
X10896600Y-6718300D02*
X10998200Y-6718300D01*
X10998200Y-6718300D02*
G75*
G03*
X10998200Y-6718300I-50800J0D01*
G01*
X11201400Y-5397500D02*
X11201400Y-5499100D01*
X11150600Y-5448300D02*
X11252200Y-5448300D01*
X11252200Y-5448300D02*
G75*
G03*
X11252200Y-5448300I-50800J0D01*
G01*
X11201400Y-6667500D02*
X11201400Y-6769100D01*
X11150600Y-6718300D02*
X11252200Y-6718300D01*
X11252200Y-6718300D02*
G75*
G03*
X11252200Y-6718300I-50800J0D01*
G01*
X11455400Y-5397500D02*
X11455400Y-5499100D01*
X11404600Y-5448300D02*
X11506200Y-5448300D01*
X11506200Y-5448300D02*
G75*
G03*
X11506200Y-5448300I-50800J0D01*
G01*
X11455400Y-6667500D02*
X11455400Y-6769100D01*
X11404600Y-6718300D02*
X11506200Y-6718300D01*
X11506200Y-6718300D02*
G75*
G03*
X11506200Y-6718300I-50800J0D01*
G01*
X11709400Y-5397500D02*
X11709400Y-5499100D01*
X11658600Y-5448300D02*
X11760200Y-5448300D01*
X11760200Y-5448300D02*
G75*
G03*
X11760200Y-5448300I-50800J0D01*
G01*
X11709400Y-6667500D02*
X11709400Y-6769100D01*
X11658600Y-6718300D02*
X11760200Y-6718300D01*
X11760200Y-6718300D02*
G75*
G03*
X11760200Y-6718300I-50800J0D01*
G01*
X11963400Y-5397500D02*
X11963400Y-5499100D01*
X11912600Y-5448300D02*
X12014200Y-5448300D01*
X12014200Y-5448300D02*
G75*
G03*
X12014200Y-5448300I-50800J0D01*
G01*
X11963400Y-6667500D02*
X11963400Y-6769100D01*
X11912600Y-6718300D02*
X12014200Y-6718300D01*
X12014200Y-6718300D02*
G75*
G03*
X12014200Y-6718300I-50800J0D01*
G01*
X12217400Y-5397500D02*
X12217400Y-5499100D01*
X12166600Y-5448300D02*
X12268200Y-5448300D01*
X12268200Y-5448300D02*
G75*
G03*
X12268200Y-5448300I-50800J0D01*
G01*
X12217400Y-6667500D02*
X12217400Y-6769100D01*
X12166600Y-6718300D02*
X12268200Y-6718300D01*
X12268200Y-6718300D02*
G75*
G03*
X12268200Y-6718300I-50800J0D01*
G01*
X12306300Y-6286500D02*
X12306300Y-6388100D01*
X12255500Y-6337300D02*
X12357100Y-6337300D01*
X12357100Y-6337300D02*
G75*
G03*
X12357100Y-6337300I-50800J0D01*
G01*
X12471400Y-5397500D02*
X12471400Y-5499100D01*
X12420600Y-5448300D02*
X12522200Y-5448300D01*
X12522200Y-5448300D02*
G75*
G03*
X12522200Y-5448300I-50800J0D01*
G01*
X12471400Y-6159500D02*
X12471400Y-6261100D01*
X12420600Y-6210300D02*
X12522200Y-6210300D01*
X12522200Y-6210300D02*
G75*
G03*
X12522200Y-6210300I-50800J0D01*
G01*
X12471400Y-6413500D02*
X12471400Y-6515100D01*
X12420600Y-6464300D02*
X12522200Y-6464300D01*
X12522200Y-6464300D02*
G75*
G03*
X12522200Y-6464300I-50800J0D01*
G01*
X12471400Y-6667500D02*
X12471400Y-6769100D01*
X12420600Y-6718300D02*
X12522200Y-6718300D01*
X12522200Y-6718300D02*
G75*
G03*
X12522200Y-6718300I-50800J0D01*
G01*
X13639800Y-5397500D02*
X13639800Y-5499100D01*
X13589000Y-5448300D02*
X13690600Y-5448300D01*
X13690600Y-5448300D02*
G75*
G03*
X13690600Y-5448300I-50800J0D01*
G01*
X13639800Y-6667500D02*
X13639800Y-6769100D01*
X13589000Y-6718300D02*
X13690600Y-6718300D01*
X13690600Y-6718300D02*
G75*
G03*
X13690600Y-6718300I-50800J0D01*
G01*
X13893800Y-5397500D02*
X13893800Y-5499100D01*
X13843000Y-5448300D02*
X13944600Y-5448300D01*
X13944600Y-5448300D02*
G75*
G03*
X13944600Y-5448300I-50800J0D01*
G01*
X13893800Y-6667500D02*
X13893800Y-6769100D01*
X13843000Y-6718300D02*
X13944600Y-6718300D01*
X13944600Y-6718300D02*
G75*
G03*
X13944600Y-6718300I-50800J0D01*
G01*
X14147800Y-5397500D02*
X14147800Y-5499100D01*
X14097000Y-5448300D02*
X14198600Y-5448300D01*
X14198600Y-5448300D02*
G75*
G03*
X14198600Y-5448300I-50800J0D01*
G01*
X14147800Y-6667500D02*
X14147800Y-6769100D01*
X14097000Y-6718300D02*
X14198600Y-6718300D01*
X14198600Y-6718300D02*
G75*
G03*
X14198600Y-6718300I-50800J0D01*
G01*
X14401800Y-5397500D02*
X14401800Y-5499100D01*
X14351000Y-5448300D02*
X14452600Y-5448300D01*
X14452600Y-5448300D02*
G75*
G03*
X14452600Y-5448300I-50800J0D01*
G01*
X14401800Y-6667500D02*
X14401800Y-6769100D01*
X14351000Y-6718300D02*
X14452600Y-6718300D01*
X14452600Y-6718300D02*
G75*
G03*
X14452600Y-6718300I-50800J0D01*
G01*
X14655800Y-5397500D02*
X14655800Y-5499100D01*
X14605000Y-5448300D02*
X14706600Y-5448300D01*
X14706600Y-5448300D02*
G75*
G03*
X14706600Y-5448300I-50800J0D01*
G01*
X14655800Y-6667500D02*
X14655800Y-6769100D01*
X14605000Y-6718300D02*
X14706600Y-6718300D01*
X14706600Y-6718300D02*
G75*
G03*
X14706600Y-6718300I-50800J0D01*
G01*
X14909800Y-5397500D02*
X14909800Y-5499100D01*
X14859000Y-5448300D02*
X14960600Y-5448300D01*
X14960600Y-5448300D02*
G75*
G03*
X14960600Y-5448300I-50800J0D01*
G01*
X14909800Y-6667500D02*
X14909800Y-6769100D01*
X14859000Y-6718300D02*
X14960600Y-6718300D01*
X14960600Y-6718300D02*
G75*
G03*
X14960600Y-6718300I-50800J0D01*
G01*
X15163800Y-5397500D02*
X15163800Y-5499100D01*
X15113000Y-5448300D02*
X15214600Y-5448300D01*
X15214600Y-5448300D02*
G75*
G03*
X15214600Y-5448300I-50800J0D01*
G01*
X15163800Y-6667500D02*
X15163800Y-6769100D01*
X15113000Y-6718300D02*
X15214600Y-6718300D01*
X15214600Y-6718300D02*
G75*
G03*
X15214600Y-6718300I-50800J0D01*
G01*
X15252700Y-6286500D02*
X15252700Y-6388100D01*
X15201900Y-6337300D02*
X15303500Y-6337300D01*
X15303500Y-6337300D02*
G75*
G03*
X15303500Y-6337300I-50800J0D01*
G01*
X15417800Y-5397500D02*
X15417800Y-5499100D01*
X15367000Y-5448300D02*
X15468600Y-5448300D01*
X15468600Y-5448300D02*
G75*
G03*
X15468600Y-5448300I-50800J0D01*
G01*
X15417800Y-6159500D02*
X15417800Y-6261100D01*
X15367000Y-6210300D02*
X15468600Y-6210300D01*
X15468600Y-6210300D02*
G75*
G03*
X15468600Y-6210300I-50800J0D01*
G01*
X15417800Y-6413500D02*
X15417800Y-6515100D01*
X15367000Y-6464300D02*
X15468600Y-6464300D01*
X15468600Y-6464300D02*
G75*
G03*
X15468600Y-6464300I-50800J0D01*
G01*
X15417800Y-6667500D02*
X15417800Y-6769100D01*
X15367000Y-6718300D02*
X15468600Y-6718300D01*
X15468600Y-6718300D02*
G75*
G03*
X15468600Y-6718300I-50800J0D01*
G01*
X4444627Y-10075427D02*
X4444627Y-9990573D01*
X4359773Y-9990573D01*
X4359773Y-10075427D01*
X4444627Y-10075427D01*
X4462200Y-10033000D02*
G75*
G03*
X4462200Y-10033000I-60000J0D01*
G01*
X4855727Y-11523227D02*
X4855727Y-11438373D01*
X4770873Y-11438373D01*
X4770873Y-11523227D01*
X4855727Y-11523227D01*
X4873300Y-11480800D02*
G75*
G03*
X4873300Y-11480800I-60000J0D01*
G01*
X4855727Y-11904227D02*
X4855727Y-11819373D01*
X4770873Y-11819373D01*
X4770873Y-11904227D01*
X4855727Y-11904227D01*
X4873300Y-11861800D02*
G75*
G03*
X4873300Y-11861800I-60000J0D01*
G01*
X4855727Y-12647177D02*
X4855727Y-12562323D01*
X4770873Y-12562323D01*
X4770873Y-12647177D01*
X4855727Y-12647177D01*
X4873300Y-12604750D02*
G75*
G03*
X4873300Y-12604750I-60000J0D01*
G01*
X4855727Y-13028177D02*
X4855727Y-12943323D01*
X4770873Y-12943323D01*
X4770873Y-13028177D01*
X4855727Y-13028177D01*
X4873300Y-12985750D02*
G75*
G03*
X4873300Y-12985750I-60000J0D01*
G01*
X4855727Y-13720327D02*
X4855727Y-13635473D01*
X4770873Y-13635473D01*
X4770873Y-13720327D01*
X4855727Y-13720327D01*
X4873300Y-13677900D02*
G75*
G03*
X4873300Y-13677900I-60000J0D01*
G01*
X4855727Y-14101327D02*
X4855727Y-14016473D01*
X4770873Y-14016473D01*
X4770873Y-14101327D01*
X4855727Y-14101327D01*
X4873300Y-14058900D02*
G75*
G03*
X4873300Y-14058900I-60000J0D01*
G01*
X4893827Y-7789427D02*
X4893827Y-7704573D01*
X4808973Y-7704573D01*
X4808973Y-7789427D01*
X4893827Y-7789427D01*
X4911400Y-7747000D02*
G75*
G03*
X4911400Y-7747000I-60000J0D01*
G01*
X4893827Y-8170427D02*
X4893827Y-8085573D01*
X4808973Y-8085573D01*
X4808973Y-8170427D01*
X4893827Y-8170427D01*
X4911400Y-8128000D02*
G75*
G03*
X4911400Y-8128000I-60000J0D01*
G01*
X4893827Y-8551427D02*
X4893827Y-8466573D01*
X4808973Y-8466573D01*
X4808973Y-8551427D01*
X4893827Y-8551427D01*
X4911400Y-8509000D02*
G75*
G03*
X4911400Y-8509000I-60000J0D01*
G01*
X4893827Y-8932427D02*
X4893827Y-8847573D01*
X4808973Y-8847573D01*
X4808973Y-8932427D01*
X4893827Y-8932427D01*
X4911400Y-8890000D02*
G75*
G03*
X4911400Y-8890000I-60000J0D01*
G01*
X4944627Y-10075427D02*
X4944627Y-9990573D01*
X4859773Y-9990573D01*
X4859773Y-10075427D01*
X4944627Y-10075427D01*
X4962200Y-10033000D02*
G75*
G03*
X4962200Y-10033000I-60000J0D01*
G01*
X5224027Y-2950727D02*
X5224027Y-2865873D01*
X5139173Y-2865873D01*
X5139173Y-2950727D01*
X5224027Y-2950727D01*
X5241600Y-2908300D02*
G75*
G03*
X5241600Y-2908300I-60000J0D01*
G01*
X5351027Y-15028427D02*
X5351027Y-14943573D01*
X5266173Y-14943573D01*
X5266173Y-15028427D01*
X5351027Y-15028427D01*
X5368600Y-14986000D02*
G75*
G03*
X5368600Y-14986000I-60000J0D01*
G01*
X5605027Y-2950727D02*
X5605027Y-2865873D01*
X5520173Y-2865873D01*
X5520173Y-2950727D01*
X5605027Y-2950727D01*
X5622600Y-2908300D02*
G75*
G03*
X5622600Y-2908300I-60000J0D01*
G01*
X5732027Y-15028427D02*
X5732027Y-14943573D01*
X5647173Y-14943573D01*
X5647173Y-15028427D01*
X5732027Y-15028427D01*
X5749600Y-14986000D02*
G75*
G03*
X5749600Y-14986000I-60000J0D01*
G01*
X5986027Y-2950727D02*
X5986027Y-2865873D01*
X5901173Y-2865873D01*
X5901173Y-2950727D01*
X5986027Y-2950727D01*
X6003600Y-2908300D02*
G75*
G03*
X6003600Y-2908300I-60000J0D01*
G01*
X6367027Y-2950727D02*
X6367027Y-2865873D01*
X6282173Y-2865873D01*
X6282173Y-2950727D01*
X6367027Y-2950727D01*
X6384600Y-2908300D02*
G75*
G03*
X6384600Y-2908300I-60000J0D01*
G01*
X6798827Y-15028427D02*
X6798827Y-14943573D01*
X6713973Y-14943573D01*
X6713973Y-15028427D01*
X6798827Y-15028427D01*
X6816400Y-14986000D02*
G75*
G03*
X6816400Y-14986000I-60000J0D01*
G01*
X7179827Y-15028427D02*
X7179827Y-14943573D01*
X7094973Y-14943573D01*
X7094973Y-15028427D01*
X7179827Y-15028427D01*
X7197400Y-14986000D02*
G75*
G03*
X7197400Y-14986000I-60000J0D01*
G01*
X7560827Y-15028427D02*
X7560827Y-14943573D01*
X7475973Y-14943573D01*
X7475973Y-15028427D01*
X7560827Y-15028427D01*
X7578400Y-14986000D02*
G75*
G03*
X7578400Y-14986000I-60000J0D01*
G01*
X7586227Y-10100827D02*
X7586227Y-10015973D01*
X7501373Y-10015973D01*
X7501373Y-10100827D01*
X7586227Y-10100827D01*
X7603800Y-10058400D02*
G75*
G03*
X7603800Y-10058400I-60000J0D01*
G01*
X8086227Y-10100827D02*
X8086227Y-10015973D01*
X8001373Y-10015973D01*
X8001373Y-10100827D01*
X8086227Y-10100827D01*
X8103800Y-10058400D02*
G75*
G03*
X8103800Y-10058400I-60000J0D01*
G01*
X8145027Y-2950727D02*
X8145027Y-2865873D01*
X8060173Y-2865873D01*
X8060173Y-2950727D01*
X8145027Y-2950727D01*
X8162600Y-2908300D02*
G75*
G03*
X8162600Y-2908300I-60000J0D01*
G01*
X8424427Y-15028427D02*
X8424427Y-14943573D01*
X8339573Y-14943573D01*
X8339573Y-15028427D01*
X8424427Y-15028427D01*
X8442000Y-14986000D02*
G75*
G03*
X8442000Y-14986000I-60000J0D01*
G01*
X8526027Y-2950727D02*
X8526027Y-2865873D01*
X8441173Y-2865873D01*
X8441173Y-2950727D01*
X8526027Y-2950727D01*
X8543600Y-2908300D02*
G75*
G03*
X8543600Y-2908300I-60000J0D01*
G01*
X8805427Y-15028427D02*
X8805427Y-14943573D01*
X8720573Y-14943573D01*
X8720573Y-15028427D01*
X8805427Y-15028427D01*
X8823000Y-14986000D02*
G75*
G03*
X8823000Y-14986000I-60000J0D01*
G01*
X8907027Y-2950727D02*
X8907027Y-2865873D01*
X8822173Y-2865873D01*
X8822173Y-2950727D01*
X8907027Y-2950727D01*
X8924600Y-2908300D02*
G75*
G03*
X8924600Y-2908300I-60000J0D01*
G01*
X9288027Y-2950727D02*
X9288027Y-2865873D01*
X9203173Y-2865873D01*
X9203173Y-2950727D01*
X9288027Y-2950727D01*
X9305600Y-2908300D02*
G75*
G03*
X9305600Y-2908300I-60000J0D01*
G01*
X9643627Y-15028427D02*
X9643627Y-14943573D01*
X9558773Y-14943573D01*
X9558773Y-15028427D01*
X9643627Y-15028427D01*
X9661200Y-14986000D02*
G75*
G03*
X9661200Y-14986000I-60000J0D01*
G01*
X10024627Y-15028427D02*
X10024627Y-14943573D01*
X9939773Y-14943573D01*
X9939773Y-15028427D01*
X10024627Y-15028427D01*
X10042200Y-14986000D02*
G75*
G03*
X10042200Y-14986000I-60000J0D01*
G01*
X10862827Y-15028427D02*
X10862827Y-14943573D01*
X10777973Y-14943573D01*
X10777973Y-15028427D01*
X10862827Y-15028427D01*
X10880400Y-14986000D02*
G75*
G03*
X10880400Y-14986000I-60000J0D01*
G01*
X11066027Y-2950727D02*
X11066027Y-2865873D01*
X10981173Y-2865873D01*
X10981173Y-2950727D01*
X11066027Y-2950727D01*
X11083600Y-2908300D02*
G75*
G03*
X11083600Y-2908300I-60000J0D01*
G01*
X11243827Y-15028427D02*
X11243827Y-14943573D01*
X11158973Y-14943573D01*
X11158973Y-15028427D01*
X11243827Y-15028427D01*
X11261400Y-14986000D02*
G75*
G03*
X11261400Y-14986000I-60000J0D01*
G01*
X11447027Y-2950727D02*
X11447027Y-2865873D01*
X11362173Y-2865873D01*
X11362173Y-2950727D01*
X11447027Y-2950727D01*
X11464600Y-2908300D02*
G75*
G03*
X11464600Y-2908300I-60000J0D01*
G01*
X11624827Y-15028427D02*
X11624827Y-14943573D01*
X11539973Y-14943573D01*
X11539973Y-15028427D01*
X11624827Y-15028427D01*
X11642400Y-14986000D02*
G75*
G03*
X11642400Y-14986000I-60000J0D01*
G01*
X11828027Y-2950727D02*
X11828027Y-2865873D01*
X11743173Y-2865873D01*
X11743173Y-2950727D01*
X11828027Y-2950727D01*
X11845600Y-2908300D02*
G75*
G03*
X11845600Y-2908300I-60000J0D01*
G01*
X12005827Y-15028427D02*
X12005827Y-14943573D01*
X11920973Y-14943573D01*
X11920973Y-15028427D01*
X12005827Y-15028427D01*
X12023400Y-14986000D02*
G75*
G03*
X12023400Y-14986000I-60000J0D01*
G01*
X12209027Y-2950727D02*
X12209027Y-2865873D01*
X12124173Y-2865873D01*
X12124173Y-2950727D01*
X12209027Y-2950727D01*
X12226600Y-2908300D02*
G75*
G03*
X12226600Y-2908300I-60000J0D01*
G01*
X12386827Y-15028427D02*
X12386827Y-14943573D01*
X12301973Y-14943573D01*
X12301973Y-15028427D01*
X12386827Y-15028427D01*
X12404400Y-14986000D02*
G75*
G03*
X12404400Y-14986000I-60000J0D01*
G01*
X12767827Y-15028427D02*
X12767827Y-14943573D01*
X12682973Y-14943573D01*
X12682973Y-15028427D01*
X12767827Y-15028427D01*
X12785400Y-14986000D02*
G75*
G03*
X12785400Y-14986000I-60000J0D01*
G01*
X13987027Y-2950727D02*
X13987027Y-2865873D01*
X13902173Y-2865873D01*
X13902173Y-2950727D01*
X13987027Y-2950727D01*
X14004600Y-2908300D02*
G75*
G03*
X14004600Y-2908300I-60000J0D01*
G01*
X14368027Y-2950727D02*
X14368027Y-2865873D01*
X14283173Y-2865873D01*
X14283173Y-2950727D01*
X14368027Y-2950727D01*
X14385600Y-2908300D02*
G75*
G03*
X14385600Y-2908300I-60000J0D01*
G01*
X14749027Y-2950727D02*
X14749027Y-2865873D01*
X14664173Y-2865873D01*
X14664173Y-2950727D01*
X14749027Y-2950727D01*
X14766600Y-2908300D02*
G75*
G03*
X14766600Y-2908300I-60000J0D01*
G01*
X15130027Y-2950727D02*
X15130027Y-2865873D01*
X15045173Y-2865873D01*
X15045173Y-2950727D01*
X15130027Y-2950727D01*
X15147600Y-2908300D02*
G75*
G03*
X15147600Y-2908300I-60000J0D01*
G01*
X16958827Y-6113027D02*
X16958827Y-6028173D01*
X16873973Y-6028173D01*
X16873973Y-6113027D01*
X16958827Y-6113027D01*
X16976400Y-6070600D02*
G75*
G03*
X16976400Y-6070600I-60000J0D01*
G01*
X16958827Y-6494027D02*
X16958827Y-6409173D01*
X16873973Y-6409173D01*
X16873973Y-6494027D01*
X16958827Y-6494027D01*
X16976400Y-6451600D02*
G75*
G03*
X16976400Y-6451600I-60000J0D01*
G01*
X16958827Y-6875027D02*
X16958827Y-6790173D01*
X16873973Y-6790173D01*
X16873973Y-6875027D01*
X16958827Y-6875027D01*
X16976400Y-6832600D02*
G75*
G03*
X16976400Y-6832600I-60000J0D01*
G01*
X16958827Y-7256027D02*
X16958827Y-7171173D01*
X16873973Y-7171173D01*
X16873973Y-7256027D01*
X16958827Y-7256027D01*
X16976400Y-7213600D02*
G75*
G03*
X16976400Y-7213600I-60000J0D01*
G01*
X16958827Y-7637027D02*
X16958827Y-7552173D01*
X16873973Y-7552173D01*
X16873973Y-7637027D01*
X16958827Y-7637027D01*
X16976400Y-7594600D02*
G75*
G03*
X16976400Y-7594600I-60000J0D01*
G01*
X16958827Y-8018027D02*
X16958827Y-7933173D01*
X16873973Y-7933173D01*
X16873973Y-8018027D01*
X16958827Y-8018027D01*
X16976400Y-7975600D02*
G75*
G03*
X16976400Y-7975600I-60000J0D01*
G01*
X16958827Y-8399027D02*
X16958827Y-8314173D01*
X16873973Y-8314173D01*
X16873973Y-8399027D01*
X16958827Y-8399027D01*
X16976400Y-8356600D02*
G75*
G03*
X16976400Y-8356600I-60000J0D01*
G01*
X16958827Y-8780027D02*
X16958827Y-8695173D01*
X16873973Y-8695173D01*
X16873973Y-8780027D01*
X16958827Y-8780027D01*
X16976400Y-8737600D02*
G75*
G03*
X16976400Y-8737600I-60000J0D01*
G01*
X13395400Y-14735300D02*
X13511900Y-14618800D01*
X13395400Y-14502300D01*
X13278900Y-14618800D01*
X13395400Y-14735300D01*
X13511900Y-14618800D02*
G75*
G03*
X13511900Y-14618800I-116500J0D01*
G01*
X14599400Y-14735300D02*
X14715900Y-14618800D01*
X14599400Y-14502300D01*
X14482900Y-14618800D01*
X14599400Y-14735300D01*
X14715900Y-14618800D02*
G75*
G03*
X14715900Y-14618800I-116500J0D01*
G01*
X15325800Y-14735300D02*
X15442300Y-14618800D01*
X15325800Y-14502300D01*
X15209300Y-14618800D01*
X15325800Y-14735300D01*
X15442300Y-14618800D02*
G75*
G03*
X15442300Y-14618800I-116500J0D01*
G01*
X16529800Y-14735300D02*
X16646300Y-14618800D01*
X16529800Y-14502300D01*
X16413300Y-14618800D01*
X16529800Y-14735300D01*
X16646300Y-14618800D02*
G75*
G03*
X16646300Y-14618800I-116500J0D01*
G01*
X4470400Y-2380000D02*
X4470400Y-2700000D01*
X4310400Y-2540000D02*
X4630400Y-2540000D01*
X4583538Y-2653138D02*
X4583538Y-2426862D01*
X4357262Y-2426862D01*
X4357262Y-2653138D01*
X4583538Y-2653138D01*
X4470400Y-15181600D02*
X4470400Y-15501600D01*
X4310400Y-15341600D02*
X4630400Y-15341600D01*
X4583538Y-15454738D02*
X4583538Y-15228462D01*
X4357262Y-15228462D01*
X4357262Y-15454738D01*
X4583538Y-15454738D01*
X17272000Y-2380000D02*
X17272000Y-2700000D01*
X17112000Y-2540000D02*
X17432000Y-2540000D01*
X17385138Y-2653138D02*
X17385138Y-2426862D01*
X17158862Y-2426862D01*
X17158862Y-2653138D01*
X17385138Y-2653138D01*
X17272000Y-15181600D02*
X17272000Y-15501600D01*
X17112000Y-15341600D02*
X17432000Y-15341600D01*
X17385138Y-15454738D02*
X17385138Y-15228462D01*
X17158862Y-15228462D01*
X17158862Y-15454738D01*
X17385138Y-15454738D01*
X6371200Y-3286800D02*
X6371200Y-3786800D01*
X6121200Y-3536800D02*
X6621200Y-3536800D01*
X6371200Y-3786800D02*
X6621200Y-3536800D01*
X6371200Y-3286800D01*
X6121200Y-3536800D01*
X6371200Y-3786800D01*
X6371200Y-8506800D02*
X6371200Y-9006800D01*
X6121200Y-8756800D02*
X6621200Y-8756800D01*
X6371200Y-9006800D02*
X6621200Y-8756800D01*
X6371200Y-8506800D01*
X6121200Y-8756800D01*
X6371200Y-9006800D01*
X10871200Y-3286800D02*
X10871200Y-3786800D01*
X10621200Y-3536800D02*
X11121200Y-3536800D01*
X10871200Y-3786800D02*
X11121200Y-3536800D01*
X10871200Y-3286800D01*
X10621200Y-3536800D01*
X10871200Y-3786800D01*
X10871200Y-8506800D02*
X10871200Y-9006800D01*
X10621200Y-8756800D02*
X11121200Y-8756800D01*
X10871200Y-9006800D02*
X11121200Y-8756800D01*
X10871200Y-8506800D01*
X10621200Y-8756800D01*
X10871200Y-9006800D01*
X15371200Y-3286800D02*
X15371200Y-3786800D01*
X15121200Y-3536800D02*
X15621200Y-3536800D01*
X15371200Y-3786800D02*
X15621200Y-3536800D01*
X15371200Y-3286800D01*
X15121200Y-3536800D01*
X15371200Y-3786800D01*
X15371200Y-8506800D02*
X15371200Y-9006800D01*
X15121200Y-8756800D02*
X15621200Y-8756800D01*
X15371200Y-9006800D02*
X15621200Y-8756800D01*
X15371200Y-8506800D01*
X15121200Y-8756800D01*
X15371200Y-9006800D01*
D12*
X4220928Y-16330514D02*
X4220928Y-16030514D01*
X4292357Y-16030514D01*
X4335214Y-16044800D01*
X4363786Y-16073371D01*
X4378071Y-16101943D01*
X4392357Y-16159086D01*
X4392357Y-16201943D01*
X4378071Y-16259086D01*
X4363786Y-16287657D01*
X4335214Y-16316229D01*
X4292357Y-16330514D01*
X4220928Y-16330514D01*
X4520928Y-16330514D02*
X4520928Y-16130514D01*
X4520928Y-16187657D02*
X4535214Y-16159086D01*
X4549500Y-16144800D01*
X4578071Y-16130514D01*
X4606643Y-16130514D01*
X4706643Y-16330514D02*
X4706643Y-16130514D01*
X4706643Y-16030514D02*
X4692357Y-16044800D01*
X4706643Y-16059086D01*
X4720928Y-16044800D01*
X4706643Y-16030514D01*
X4706643Y-16059086D01*
X4892357Y-16330514D02*
X4863786Y-16316229D01*
X4849500Y-16287657D01*
X4849500Y-16030514D01*
X5049500Y-16330514D02*
X5020928Y-16316229D01*
X5006643Y-16287657D01*
X5006643Y-16030514D01*
X5392357Y-16330514D02*
X5392357Y-16030514D01*
X5492357Y-16244800D01*
X5592357Y-16030514D01*
X5592357Y-16330514D01*
X5863786Y-16330514D02*
X5863786Y-16173371D01*
X5849500Y-16144800D01*
X5820928Y-16130514D01*
X5763786Y-16130514D01*
X5735214Y-16144800D01*
X5863786Y-16316229D02*
X5835214Y-16330514D01*
X5763786Y-16330514D01*
X5735214Y-16316229D01*
X5720928Y-16287657D01*
X5720928Y-16259086D01*
X5735214Y-16230514D01*
X5763786Y-16216229D01*
X5835214Y-16216229D01*
X5863786Y-16201943D01*
X6006643Y-16130514D02*
X6006643Y-16430514D01*
X6006643Y-16144800D02*
X6035214Y-16130514D01*
X6092357Y-16130514D01*
X6120928Y-16144800D01*
X6135214Y-16159086D01*
X6149500Y-16187657D01*
X6149500Y-16273371D01*
X6135214Y-16301943D01*
X6120928Y-16316229D01*
X6092357Y-16330514D01*
X6035214Y-16330514D01*
X6006643Y-16316229D01*
X6278071Y-16301943D02*
X6292357Y-16316229D01*
X6278071Y-16330514D01*
X6263786Y-16316229D01*
X6278071Y-16301943D01*
X6278071Y-16330514D01*
X6278071Y-16144800D02*
X6292357Y-16159086D01*
X6278071Y-16173371D01*
X6263786Y-16159086D01*
X6278071Y-16144800D01*
X6278071Y-16173371D01*
X3914500Y-16814800D02*
X3934500Y-16834800D01*
X3934500Y-16814800D02*
X3914500Y-16834800D01*
X4278071Y-16660514D02*
X4306643Y-16660514D01*
X4335214Y-16674800D01*
X4349500Y-16689086D01*
X4363786Y-16717657D01*
X4378071Y-16774800D01*
X4378071Y-16846229D01*
X4363786Y-16903372D01*
X4349500Y-16931943D01*
X4335214Y-16946229D01*
X4306643Y-16960514D01*
X4278071Y-16960514D01*
X4249500Y-16946229D01*
X4235214Y-16931943D01*
X4220928Y-16903372D01*
X4206643Y-16846229D01*
X4206643Y-16774800D01*
X4220928Y-16717657D01*
X4235214Y-16689086D01*
X4249500Y-16674800D01*
X4278071Y-16660514D01*
X4506643Y-16931943D02*
X4520928Y-16946229D01*
X4506643Y-16960514D01*
X4492357Y-16946229D01*
X4506643Y-16931943D01*
X4506643Y-16960514D01*
X4635214Y-16689086D02*
X4649500Y-16674800D01*
X4678071Y-16660514D01*
X4749500Y-16660514D01*
X4778071Y-16674800D01*
X4792357Y-16689086D01*
X4806643Y-16717657D01*
X4806643Y-16746229D01*
X4792357Y-16789086D01*
X4620928Y-16960514D01*
X4806643Y-16960514D01*
X4992357Y-16660514D02*
X5020928Y-16660514D01*
X5049500Y-16674800D01*
X5063786Y-16689086D01*
X5078071Y-16717657D01*
X5092357Y-16774800D01*
X5092357Y-16846229D01*
X5078071Y-16903372D01*
X5063786Y-16931943D01*
X5049500Y-16946229D01*
X5020928Y-16960514D01*
X4992357Y-16960514D01*
X4963786Y-16946229D01*
X4949500Y-16931943D01*
X4935214Y-16903372D01*
X4920928Y-16846229D01*
X4920928Y-16774800D01*
X4935214Y-16717657D01*
X4949500Y-16689086D01*
X4963786Y-16674800D01*
X4992357Y-16660514D01*
X5278071Y-16660514D02*
X5306643Y-16660514D01*
X5335214Y-16674800D01*
X5349500Y-16689086D01*
X5363786Y-16717657D01*
X5378071Y-16774800D01*
X5378071Y-16846229D01*
X5363786Y-16903372D01*
X5349500Y-16931943D01*
X5335214Y-16946229D01*
X5306643Y-16960514D01*
X5278071Y-16960514D01*
X5249500Y-16946229D01*
X5235214Y-16931943D01*
X5220928Y-16903372D01*
X5206643Y-16846229D01*
X5206643Y-16774800D01*
X5220928Y-16717657D01*
X5235214Y-16689086D01*
X5249500Y-16674800D01*
X5278071Y-16660514D01*
X5506643Y-16960514D02*
X5506643Y-16760514D01*
X5506643Y-16789086D02*
X5520928Y-16774800D01*
X5549500Y-16760514D01*
X5592357Y-16760514D01*
X5620928Y-16774800D01*
X5635214Y-16803372D01*
X5635214Y-16960514D01*
X5635214Y-16803372D02*
X5649500Y-16774800D01*
X5678071Y-16760514D01*
X5720928Y-16760514D01*
X5749500Y-16774800D01*
X5763786Y-16803372D01*
X5763786Y-16960514D01*
X5906643Y-16960514D02*
X5906643Y-16760514D01*
X5906643Y-16789086D02*
X5920928Y-16774800D01*
X5949500Y-16760514D01*
X5992357Y-16760514D01*
X6020928Y-16774800D01*
X6035214Y-16803372D01*
X6035214Y-16960514D01*
X6035214Y-16803372D02*
X6049500Y-16774800D01*
X6078071Y-16760514D01*
X6120928Y-16760514D01*
X6149500Y-16774800D01*
X6163786Y-16803372D01*
X6163786Y-16960514D01*
X6749500Y-16646229D02*
X6492357Y-17031943D01*
X7135214Y-16660514D02*
X7163786Y-16660514D01*
X7192357Y-16674800D01*
X7206643Y-16689086D01*
X7220928Y-16717657D01*
X7235214Y-16774800D01*
X7235214Y-16846229D01*
X7220928Y-16903372D01*
X7206643Y-16931943D01*
X7192357Y-16946229D01*
X7163786Y-16960514D01*
X7135214Y-16960514D01*
X7106643Y-16946229D01*
X7092357Y-16931943D01*
X7078071Y-16903372D01*
X7063786Y-16846229D01*
X7063786Y-16774800D01*
X7078071Y-16717657D01*
X7092357Y-16689086D01*
X7106643Y-16674800D01*
X7135214Y-16660514D01*
X7363786Y-16931943D02*
X7378071Y-16946229D01*
X7363786Y-16960514D01*
X7349500Y-16946229D01*
X7363786Y-16931943D01*
X7363786Y-16960514D01*
X7563786Y-16660514D02*
X7592357Y-16660514D01*
X7620928Y-16674800D01*
X7635214Y-16689086D01*
X7649500Y-16717657D01*
X7663786Y-16774800D01*
X7663786Y-16846229D01*
X7649500Y-16903372D01*
X7635214Y-16931943D01*
X7620928Y-16946229D01*
X7592357Y-16960514D01*
X7563786Y-16960514D01*
X7535214Y-16946229D01*
X7520928Y-16931943D01*
X7506643Y-16903372D01*
X7492357Y-16846229D01*
X7492357Y-16774800D01*
X7506643Y-16717657D01*
X7520928Y-16689086D01*
X7535214Y-16674800D01*
X7563786Y-16660514D01*
X7849500Y-16660514D02*
X7878071Y-16660514D01*
X7906643Y-16674800D01*
X7920928Y-16689086D01*
X7935214Y-16717657D01*
X7949500Y-16774800D01*
X7949500Y-16846229D01*
X7935214Y-16903372D01*
X7920928Y-16931943D01*
X7906643Y-16946229D01*
X7878071Y-16960514D01*
X7849500Y-16960514D01*
X7820928Y-16946229D01*
X7806643Y-16931943D01*
X7792357Y-16903372D01*
X7778071Y-16846229D01*
X7778071Y-16774800D01*
X7792357Y-16717657D01*
X7806643Y-16689086D01*
X7820928Y-16674800D01*
X7849500Y-16660514D01*
X8049500Y-16660514D02*
X8249500Y-16660514D01*
X8120928Y-16960514D01*
X8378071Y-16960514D02*
X8435214Y-16960514D01*
X8463786Y-16946229D01*
X8478071Y-16931943D01*
X8506643Y-16889086D01*
X8520928Y-16831943D01*
X8520928Y-16717657D01*
X8506643Y-16689086D01*
X8492357Y-16674800D01*
X8463786Y-16660514D01*
X8406643Y-16660514D01*
X8378071Y-16674800D01*
X8363786Y-16689086D01*
X8349500Y-16717657D01*
X8349500Y-16789086D01*
X8363786Y-16817657D01*
X8378071Y-16831943D01*
X8406643Y-16846229D01*
X8463786Y-16846229D01*
X8492357Y-16831943D01*
X8506643Y-16817657D01*
X8520928Y-16789086D01*
X8635214Y-16660514D02*
X8635214Y-16717657D01*
X8749500Y-16660514D02*
X8749500Y-16717657D01*
X9192357Y-17074800D02*
X9178071Y-17060514D01*
X9149500Y-17017657D01*
X9135214Y-16989086D01*
X9120928Y-16946229D01*
X9106643Y-16874800D01*
X9106643Y-16817657D01*
X9120928Y-16746229D01*
X9135214Y-16703371D01*
X9149500Y-16674800D01*
X9178071Y-16631943D01*
X9192357Y-16617657D01*
X9463786Y-16960514D02*
X9292357Y-16960514D01*
X9378071Y-16960514D02*
X9378071Y-16660514D01*
X9349500Y-16703371D01*
X9320928Y-16731943D01*
X9292357Y-16746229D01*
X9578071Y-16689086D02*
X9592357Y-16674800D01*
X9620928Y-16660514D01*
X9692357Y-16660514D01*
X9720928Y-16674800D01*
X9735214Y-16689086D01*
X9749500Y-16717657D01*
X9749500Y-16746229D01*
X9735214Y-16789086D01*
X9563786Y-16960514D01*
X9749500Y-16960514D01*
X10106643Y-16960514D02*
X10106643Y-16660514D01*
X10235214Y-16960514D02*
X10235214Y-16803372D01*
X10220928Y-16774800D01*
X10192357Y-16760514D01*
X10149500Y-16760514D01*
X10120928Y-16774800D01*
X10106643Y-16789086D01*
X10420928Y-16960514D02*
X10392357Y-16946229D01*
X10378071Y-16931943D01*
X10363786Y-16903372D01*
X10363786Y-16817657D01*
X10378071Y-16789086D01*
X10392357Y-16774800D01*
X10420928Y-16760514D01*
X10463786Y-16760514D01*
X10492357Y-16774800D01*
X10506643Y-16789086D01*
X10520928Y-16817657D01*
X10520928Y-16903372D01*
X10506643Y-16931943D01*
X10492357Y-16946229D01*
X10463786Y-16960514D01*
X10420928Y-16960514D01*
X10692357Y-16960514D02*
X10663786Y-16946229D01*
X10649500Y-16917657D01*
X10649500Y-16660514D01*
X10920928Y-16946229D02*
X10892357Y-16960514D01*
X10835214Y-16960514D01*
X10806643Y-16946229D01*
X10792357Y-16917657D01*
X10792357Y-16803372D01*
X10806643Y-16774800D01*
X10835214Y-16760514D01*
X10892357Y-16760514D01*
X10920928Y-16774800D01*
X10935214Y-16803372D01*
X10935214Y-16831943D01*
X10792357Y-16860514D01*
X11049500Y-16946229D02*
X11078071Y-16960514D01*
X11135214Y-16960514D01*
X11163786Y-16946229D01*
X11178071Y-16917657D01*
X11178071Y-16903372D01*
X11163786Y-16874800D01*
X11135214Y-16860514D01*
X11092357Y-16860514D01*
X11063786Y-16846229D01*
X11049500Y-16817657D01*
X11049500Y-16803372D01*
X11063786Y-16774800D01*
X11092357Y-16760514D01*
X11135214Y-16760514D01*
X11163786Y-16774800D01*
X11278071Y-17074800D02*
X11292357Y-17060514D01*
X11320928Y-17017657D01*
X11335214Y-16989086D01*
X11349500Y-16946229D01*
X11363786Y-16874800D01*
X11363786Y-16817657D01*
X11349500Y-16746229D01*
X11335214Y-16703371D01*
X11320928Y-16674800D01*
X11292357Y-16631943D01*
X11278071Y-16617657D01*
X3934500Y-17220800D02*
G75*
G03*
X3934500Y-17220800I-15000J0D01*
G01*
X4278071Y-17056514D02*
X4306643Y-17056514D01*
X4335214Y-17070800D01*
X4349500Y-17085086D01*
X4363786Y-17113657D01*
X4378071Y-17170800D01*
X4378071Y-17242229D01*
X4363786Y-17299372D01*
X4349500Y-17327943D01*
X4335214Y-17342229D01*
X4306643Y-17356514D01*
X4278071Y-17356514D01*
X4249500Y-17342229D01*
X4235214Y-17327943D01*
X4220928Y-17299372D01*
X4206643Y-17242229D01*
X4206643Y-17170800D01*
X4220928Y-17113657D01*
X4235214Y-17085086D01*
X4249500Y-17070800D01*
X4278071Y-17056514D01*
X4506643Y-17327943D02*
X4520928Y-17342229D01*
X4506643Y-17356514D01*
X4492357Y-17342229D01*
X4506643Y-17327943D01*
X4506643Y-17356514D01*
X4620928Y-17056514D02*
X4806643Y-17056514D01*
X4706643Y-17170800D01*
X4749500Y-17170800D01*
X4778071Y-17185086D01*
X4792357Y-17199372D01*
X4806643Y-17227943D01*
X4806643Y-17299372D01*
X4792357Y-17327943D01*
X4778071Y-17342229D01*
X4749500Y-17356514D01*
X4663786Y-17356514D01*
X4635214Y-17342229D01*
X4620928Y-17327943D01*
X4992357Y-17056514D02*
X5020928Y-17056514D01*
X5049500Y-17070800D01*
X5063786Y-17085086D01*
X5078071Y-17113657D01*
X5092357Y-17170800D01*
X5092357Y-17242229D01*
X5078071Y-17299372D01*
X5063786Y-17327943D01*
X5049500Y-17342229D01*
X5020928Y-17356514D01*
X4992357Y-17356514D01*
X4963786Y-17342229D01*
X4949500Y-17327943D01*
X4935214Y-17299372D01*
X4920928Y-17242229D01*
X4920928Y-17170800D01*
X4935214Y-17113657D01*
X4949500Y-17085086D01*
X4963786Y-17070800D01*
X4992357Y-17056514D01*
X5278071Y-17056514D02*
X5306643Y-17056514D01*
X5335214Y-17070800D01*
X5349500Y-17085086D01*
X5363786Y-17113657D01*
X5378071Y-17170800D01*
X5378071Y-17242229D01*
X5363786Y-17299372D01*
X5349500Y-17327943D01*
X5335214Y-17342229D01*
X5306643Y-17356514D01*
X5278071Y-17356514D01*
X5249500Y-17342229D01*
X5235214Y-17327943D01*
X5220928Y-17299372D01*
X5206643Y-17242229D01*
X5206643Y-17170800D01*
X5220928Y-17113657D01*
X5235214Y-17085086D01*
X5249500Y-17070800D01*
X5278071Y-17056514D01*
X5506643Y-17356514D02*
X5506643Y-17156514D01*
X5506643Y-17185086D02*
X5520928Y-17170800D01*
X5549500Y-17156514D01*
X5592357Y-17156514D01*
X5620928Y-17170800D01*
X5635214Y-17199372D01*
X5635214Y-17356514D01*
X5635214Y-17199372D02*
X5649500Y-17170800D01*
X5678071Y-17156514D01*
X5720928Y-17156514D01*
X5749500Y-17170800D01*
X5763786Y-17199372D01*
X5763786Y-17356514D01*
X5906643Y-17356514D02*
X5906643Y-17156514D01*
X5906643Y-17185086D02*
X5920928Y-17170800D01*
X5949500Y-17156514D01*
X5992357Y-17156514D01*
X6020928Y-17170800D01*
X6035214Y-17199372D01*
X6035214Y-17356514D01*
X6035214Y-17199372D02*
X6049500Y-17170800D01*
X6078071Y-17156514D01*
X6120928Y-17156514D01*
X6149500Y-17170800D01*
X6163786Y-17199372D01*
X6163786Y-17356514D01*
X6749500Y-17042229D02*
X6492357Y-17427943D01*
X7135214Y-17056514D02*
X7163786Y-17056514D01*
X7192357Y-17070800D01*
X7206643Y-17085086D01*
X7220928Y-17113657D01*
X7235214Y-17170800D01*
X7235214Y-17242229D01*
X7220928Y-17299372D01*
X7206643Y-17327943D01*
X7192357Y-17342229D01*
X7163786Y-17356514D01*
X7135214Y-17356514D01*
X7106643Y-17342229D01*
X7092357Y-17327943D01*
X7078071Y-17299372D01*
X7063786Y-17242229D01*
X7063786Y-17170800D01*
X7078071Y-17113657D01*
X7092357Y-17085086D01*
X7106643Y-17070800D01*
X7135214Y-17056514D01*
X7363786Y-17327943D02*
X7378071Y-17342229D01*
X7363786Y-17356514D01*
X7349500Y-17342229D01*
X7363786Y-17327943D01*
X7363786Y-17356514D01*
X7563786Y-17056514D02*
X7592357Y-17056514D01*
X7620928Y-17070800D01*
X7635214Y-17085086D01*
X7649500Y-17113657D01*
X7663786Y-17170800D01*
X7663786Y-17242229D01*
X7649500Y-17299372D01*
X7635214Y-17327943D01*
X7620928Y-17342229D01*
X7592357Y-17356514D01*
X7563786Y-17356514D01*
X7535214Y-17342229D01*
X7520928Y-17327943D01*
X7506643Y-17299372D01*
X7492357Y-17242229D01*
X7492357Y-17170800D01*
X7506643Y-17113657D01*
X7520928Y-17085086D01*
X7535214Y-17070800D01*
X7563786Y-17056514D01*
X7949500Y-17356514D02*
X7778071Y-17356514D01*
X7863786Y-17356514D02*
X7863786Y-17056514D01*
X7835214Y-17099372D01*
X7806643Y-17127943D01*
X7778071Y-17142229D01*
X8235214Y-17356514D02*
X8063786Y-17356514D01*
X8149500Y-17356514D02*
X8149500Y-17056514D01*
X8120928Y-17099372D01*
X8092357Y-17127943D01*
X8063786Y-17142229D01*
X8406643Y-17185086D02*
X8378071Y-17170800D01*
X8363786Y-17156514D01*
X8349500Y-17127943D01*
X8349500Y-17113657D01*
X8363786Y-17085086D01*
X8378071Y-17070800D01*
X8406643Y-17056514D01*
X8463786Y-17056514D01*
X8492357Y-17070800D01*
X8506643Y-17085086D01*
X8520928Y-17113657D01*
X8520928Y-17127943D01*
X8506643Y-17156514D01*
X8492357Y-17170800D01*
X8463786Y-17185086D01*
X8406643Y-17185086D01*
X8378071Y-17199372D01*
X8363786Y-17213657D01*
X8349500Y-17242229D01*
X8349500Y-17299372D01*
X8363786Y-17327943D01*
X8378071Y-17342229D01*
X8406643Y-17356514D01*
X8463786Y-17356514D01*
X8492357Y-17342229D01*
X8506643Y-17327943D01*
X8520928Y-17299372D01*
X8520928Y-17242229D01*
X8506643Y-17213657D01*
X8492357Y-17199372D01*
X8463786Y-17185086D01*
X8635214Y-17056514D02*
X8635214Y-17113657D01*
X8749500Y-17056514D02*
X8749500Y-17113657D01*
X9192357Y-17470800D02*
X9178071Y-17456514D01*
X9149500Y-17413657D01*
X9135214Y-17385086D01*
X9120928Y-17342229D01*
X9106643Y-17270800D01*
X9106643Y-17213657D01*
X9120928Y-17142229D01*
X9135214Y-17099372D01*
X9149500Y-17070800D01*
X9178071Y-17027943D01*
X9192357Y-17013657D01*
X9463786Y-17356514D02*
X9292357Y-17356514D01*
X9378071Y-17356514D02*
X9378071Y-17056514D01*
X9349500Y-17099372D01*
X9320928Y-17127943D01*
X9292357Y-17142229D01*
X9649500Y-17056514D02*
X9678071Y-17056514D01*
X9706643Y-17070800D01*
X9720928Y-17085086D01*
X9735214Y-17113657D01*
X9749500Y-17170800D01*
X9749500Y-17242229D01*
X9735214Y-17299372D01*
X9720928Y-17327943D01*
X9706643Y-17342229D01*
X9678071Y-17356514D01*
X9649500Y-17356514D01*
X9620928Y-17342229D01*
X9606643Y-17327943D01*
X9592357Y-17299372D01*
X9578071Y-17242229D01*
X9578071Y-17170800D01*
X9592357Y-17113657D01*
X9606643Y-17085086D01*
X9620928Y-17070800D01*
X9649500Y-17056514D01*
X10006643Y-17056514D02*
X9949500Y-17056514D01*
X9920928Y-17070800D01*
X9906643Y-17085086D01*
X9878071Y-17127943D01*
X9863786Y-17185086D01*
X9863786Y-17299372D01*
X9878071Y-17327943D01*
X9892357Y-17342229D01*
X9920928Y-17356514D01*
X9978071Y-17356514D01*
X10006643Y-17342229D01*
X10020928Y-17327943D01*
X10035214Y-17299372D01*
X10035214Y-17227943D01*
X10020928Y-17199372D01*
X10006643Y-17185086D01*
X9978071Y-17170800D01*
X9920928Y-17170800D01*
X9892357Y-17185086D01*
X9878071Y-17199372D01*
X9863786Y-17227943D01*
X10392357Y-17356514D02*
X10392357Y-17056514D01*
X10520928Y-17356514D02*
X10520928Y-17199372D01*
X10506643Y-17170800D01*
X10478071Y-17156514D01*
X10435214Y-17156514D01*
X10406643Y-17170800D01*
X10392357Y-17185086D01*
X10706643Y-17356514D02*
X10678071Y-17342229D01*
X10663786Y-17327943D01*
X10649500Y-17299372D01*
X10649500Y-17213657D01*
X10663786Y-17185086D01*
X10678071Y-17170800D01*
X10706643Y-17156514D01*
X10749500Y-17156514D01*
X10778071Y-17170800D01*
X10792357Y-17185086D01*
X10806643Y-17213657D01*
X10806643Y-17299372D01*
X10792357Y-17327943D01*
X10778071Y-17342229D01*
X10749500Y-17356514D01*
X10706643Y-17356514D01*
X10978071Y-17356514D02*
X10949500Y-17342229D01*
X10935214Y-17313657D01*
X10935214Y-17056514D01*
X11206643Y-17342229D02*
X11178071Y-17356514D01*
X11120928Y-17356514D01*
X11092357Y-17342229D01*
X11078071Y-17313657D01*
X11078071Y-17199372D01*
X11092357Y-17170800D01*
X11120928Y-17156514D01*
X11178071Y-17156514D01*
X11206643Y-17170800D01*
X11220928Y-17199372D01*
X11220928Y-17227943D01*
X11078071Y-17256514D01*
X11335214Y-17342229D02*
X11363786Y-17356514D01*
X11420928Y-17356514D01*
X11449500Y-17342229D01*
X11463786Y-17313657D01*
X11463786Y-17299372D01*
X11449500Y-17270800D01*
X11420928Y-17256514D01*
X11378071Y-17256514D01*
X11349500Y-17242229D01*
X11335214Y-17213657D01*
X11335214Y-17199372D01*
X11349500Y-17170800D01*
X11378071Y-17156514D01*
X11420928Y-17156514D01*
X11449500Y-17170800D01*
X11563786Y-17470800D02*
X11578071Y-17456514D01*
X11606643Y-17413657D01*
X11620928Y-17385086D01*
X11635214Y-17342229D01*
X11649500Y-17270800D01*
X11649500Y-17213657D01*
X11635214Y-17142229D01*
X11620928Y-17099372D01*
X11606643Y-17070800D01*
X11578071Y-17027943D01*
X11563786Y-17013657D01*
X3914500Y-17596800D02*
X3914500Y-17636800D01*
X3894500Y-17616800D02*
X3934500Y-17616800D01*
X4278071Y-17452514D02*
X4306643Y-17452514D01*
X4335214Y-17466800D01*
X4349500Y-17481086D01*
X4363786Y-17509657D01*
X4378071Y-17566800D01*
X4378071Y-17638229D01*
X4363786Y-17695372D01*
X4349500Y-17723943D01*
X4335214Y-17738229D01*
X4306643Y-17752514D01*
X4278071Y-17752514D01*
X4249500Y-17738229D01*
X4235214Y-17723943D01*
X4220928Y-17695372D01*
X4206643Y-17638229D01*
X4206643Y-17566800D01*
X4220928Y-17509657D01*
X4235214Y-17481086D01*
X4249500Y-17466800D01*
X4278071Y-17452514D01*
X4506643Y-17723943D02*
X4520928Y-17738229D01*
X4506643Y-17752514D01*
X4492357Y-17738229D01*
X4506643Y-17723943D01*
X4506643Y-17752514D01*
X4778071Y-17552514D02*
X4778071Y-17752514D01*
X4706643Y-17438229D02*
X4635214Y-17652514D01*
X4820928Y-17652514D01*
X4992357Y-17452514D02*
X5020928Y-17452514D01*
X5049500Y-17466800D01*
X5063786Y-17481086D01*
X5078071Y-17509657D01*
X5092357Y-17566800D01*
X5092357Y-17638229D01*
X5078071Y-17695372D01*
X5063786Y-17723943D01*
X5049500Y-17738229D01*
X5020928Y-17752514D01*
X4992357Y-17752514D01*
X4963786Y-17738229D01*
X4949500Y-17723943D01*
X4935214Y-17695372D01*
X4920928Y-17638229D01*
X4920928Y-17566800D01*
X4935214Y-17509657D01*
X4949500Y-17481086D01*
X4963786Y-17466800D01*
X4992357Y-17452514D01*
X5278071Y-17452514D02*
X5306643Y-17452514D01*
X5335214Y-17466800D01*
X5349500Y-17481086D01*
X5363786Y-17509657D01*
X5378071Y-17566800D01*
X5378071Y-17638229D01*
X5363786Y-17695372D01*
X5349500Y-17723943D01*
X5335214Y-17738229D01*
X5306643Y-17752514D01*
X5278071Y-17752514D01*
X5249500Y-17738229D01*
X5235214Y-17723943D01*
X5220928Y-17695372D01*
X5206643Y-17638229D01*
X5206643Y-17566800D01*
X5220928Y-17509657D01*
X5235214Y-17481086D01*
X5249500Y-17466800D01*
X5278071Y-17452514D01*
X5506643Y-17752514D02*
X5506643Y-17552514D01*
X5506643Y-17581086D02*
X5520928Y-17566800D01*
X5549500Y-17552514D01*
X5592357Y-17552514D01*
X5620928Y-17566800D01*
X5635214Y-17595372D01*
X5635214Y-17752514D01*
X5635214Y-17595372D02*
X5649500Y-17566800D01*
X5678071Y-17552514D01*
X5720928Y-17552514D01*
X5749500Y-17566800D01*
X5763786Y-17595372D01*
X5763786Y-17752514D01*
X5906643Y-17752514D02*
X5906643Y-17552514D01*
X5906643Y-17581086D02*
X5920928Y-17566800D01*
X5949500Y-17552514D01*
X5992357Y-17552514D01*
X6020928Y-17566800D01*
X6035214Y-17595372D01*
X6035214Y-17752514D01*
X6035214Y-17595372D02*
X6049500Y-17566800D01*
X6078071Y-17552514D01*
X6120928Y-17552514D01*
X6149500Y-17566800D01*
X6163786Y-17595372D01*
X6163786Y-17752514D01*
X6749500Y-17438229D02*
X6492357Y-17823943D01*
X7135214Y-17452514D02*
X7163786Y-17452514D01*
X7192357Y-17466800D01*
X7206643Y-17481086D01*
X7220928Y-17509657D01*
X7235214Y-17566800D01*
X7235214Y-17638229D01*
X7220928Y-17695372D01*
X7206643Y-17723943D01*
X7192357Y-17738229D01*
X7163786Y-17752514D01*
X7135214Y-17752514D01*
X7106643Y-17738229D01*
X7092357Y-17723943D01*
X7078071Y-17695372D01*
X7063786Y-17638229D01*
X7063786Y-17566800D01*
X7078071Y-17509657D01*
X7092357Y-17481086D01*
X7106643Y-17466800D01*
X7135214Y-17452514D01*
X7363786Y-17723943D02*
X7378071Y-17738229D01*
X7363786Y-17752514D01*
X7349500Y-17738229D01*
X7363786Y-17723943D01*
X7363786Y-17752514D01*
X7563786Y-17452514D02*
X7592357Y-17452514D01*
X7620928Y-17466800D01*
X7635214Y-17481086D01*
X7649500Y-17509657D01*
X7663786Y-17566800D01*
X7663786Y-17638229D01*
X7649500Y-17695372D01*
X7635214Y-17723943D01*
X7620928Y-17738229D01*
X7592357Y-17752514D01*
X7563786Y-17752514D01*
X7535214Y-17738229D01*
X7520928Y-17723943D01*
X7506643Y-17695372D01*
X7492357Y-17638229D01*
X7492357Y-17566800D01*
X7506643Y-17509657D01*
X7520928Y-17481086D01*
X7535214Y-17466800D01*
X7563786Y-17452514D01*
X7949500Y-17752514D02*
X7778071Y-17752514D01*
X7863786Y-17752514D02*
X7863786Y-17452514D01*
X7835214Y-17495372D01*
X7806643Y-17523943D01*
X7778071Y-17538229D01*
X8220928Y-17452514D02*
X8078071Y-17452514D01*
X8063786Y-17595372D01*
X8078071Y-17581086D01*
X8106643Y-17566800D01*
X8178071Y-17566800D01*
X8206643Y-17581086D01*
X8220928Y-17595372D01*
X8235214Y-17623943D01*
X8235214Y-17695372D01*
X8220928Y-17723943D01*
X8206643Y-17738229D01*
X8178071Y-17752514D01*
X8106643Y-17752514D01*
X8078071Y-17738229D01*
X8063786Y-17723943D01*
X8335214Y-17452514D02*
X8535214Y-17452514D01*
X8406643Y-17752514D01*
X8635214Y-17452514D02*
X8635214Y-17509657D01*
X8749500Y-17452514D02*
X8749500Y-17509657D01*
X9192357Y-17866800D02*
X9178071Y-17852514D01*
X9149500Y-17809657D01*
X9135214Y-17781086D01*
X9120928Y-17738229D01*
X9106643Y-17666800D01*
X9106643Y-17609657D01*
X9120928Y-17538229D01*
X9135214Y-17495372D01*
X9149500Y-17466800D01*
X9178071Y-17423943D01*
X9192357Y-17409657D01*
X9463786Y-17752514D02*
X9292357Y-17752514D01*
X9378071Y-17752514D02*
X9378071Y-17452514D01*
X9349500Y-17495372D01*
X9320928Y-17523943D01*
X9292357Y-17538229D01*
X9720928Y-17552514D02*
X9720928Y-17752514D01*
X9649500Y-17438229D02*
X9578071Y-17652514D01*
X9763786Y-17652514D01*
X10106643Y-17752514D02*
X10106643Y-17452514D01*
X10235214Y-17752514D02*
X10235214Y-17595372D01*
X10220928Y-17566800D01*
X10192357Y-17552514D01*
X10149500Y-17552514D01*
X10120928Y-17566800D01*
X10106643Y-17581086D01*
X10420928Y-17752514D02*
X10392357Y-17738229D01*
X10378071Y-17723943D01*
X10363786Y-17695372D01*
X10363786Y-17609657D01*
X10378071Y-17581086D01*
X10392357Y-17566800D01*
X10420928Y-17552514D01*
X10463786Y-17552514D01*
X10492357Y-17566800D01*
X10506643Y-17581086D01*
X10520928Y-17609657D01*
X10520928Y-17695372D01*
X10506643Y-17723943D01*
X10492357Y-17738229D01*
X10463786Y-17752514D01*
X10420928Y-17752514D01*
X10692357Y-17752514D02*
X10663786Y-17738229D01*
X10649500Y-17709657D01*
X10649500Y-17452514D01*
X10920928Y-17738229D02*
X10892357Y-17752514D01*
X10835214Y-17752514D01*
X10806643Y-17738229D01*
X10792357Y-17709657D01*
X10792357Y-17595372D01*
X10806643Y-17566800D01*
X10835214Y-17552514D01*
X10892357Y-17552514D01*
X10920928Y-17566800D01*
X10935214Y-17595372D01*
X10935214Y-17623943D01*
X10792357Y-17652514D01*
X11049500Y-17738229D02*
X11078071Y-17752514D01*
X11135214Y-17752514D01*
X11163786Y-17738229D01*
X11178071Y-17709657D01*
X11178071Y-17695372D01*
X11163786Y-17666800D01*
X11135214Y-17652514D01*
X11092357Y-17652514D01*
X11063786Y-17638229D01*
X11049500Y-17609657D01*
X11049500Y-17595372D01*
X11063786Y-17566800D01*
X11092357Y-17552514D01*
X11135214Y-17552514D01*
X11163786Y-17566800D01*
X11278071Y-17866800D02*
X11292357Y-17852514D01*
X11320928Y-17809657D01*
X11335214Y-17781086D01*
X11349500Y-17738229D01*
X11363786Y-17666800D01*
X11363786Y-17609657D01*
X11349500Y-17538229D01*
X11335214Y-17495372D01*
X11320928Y-17466800D01*
X11292357Y-17423943D01*
X11278071Y-17409657D01*
X3925713Y-18034014D02*
X3925713Y-17991587D01*
X3883286Y-17991587D01*
X3883286Y-18034014D01*
X3925713Y-18034014D01*
X4278071Y-17848514D02*
X4306643Y-17848514D01*
X4335214Y-17862800D01*
X4349500Y-17877086D01*
X4363786Y-17905657D01*
X4378071Y-17962800D01*
X4378071Y-18034229D01*
X4363786Y-18091372D01*
X4349500Y-18119943D01*
X4335214Y-18134229D01*
X4306643Y-18148514D01*
X4278071Y-18148514D01*
X4249500Y-18134229D01*
X4235214Y-18119943D01*
X4220928Y-18091372D01*
X4206643Y-18034229D01*
X4206643Y-17962800D01*
X4220928Y-17905657D01*
X4235214Y-17877086D01*
X4249500Y-17862800D01*
X4278071Y-17848514D01*
X4506643Y-18119943D02*
X4520928Y-18134229D01*
X4506643Y-18148514D01*
X4492357Y-18134229D01*
X4506643Y-18119943D01*
X4506643Y-18148514D01*
X4778071Y-17848514D02*
X4720928Y-17848514D01*
X4692357Y-17862800D01*
X4678071Y-17877086D01*
X4649500Y-17919943D01*
X4635214Y-17977086D01*
X4635214Y-18091372D01*
X4649500Y-18119943D01*
X4663786Y-18134229D01*
X4692357Y-18148514D01*
X4749500Y-18148514D01*
X4778071Y-18134229D01*
X4792357Y-18119943D01*
X4806643Y-18091372D01*
X4806643Y-18019943D01*
X4792357Y-17991372D01*
X4778071Y-17977086D01*
X4749500Y-17962800D01*
X4692357Y-17962800D01*
X4663786Y-17977086D01*
X4649500Y-17991372D01*
X4635214Y-18019943D01*
X4992357Y-17848514D02*
X5020928Y-17848514D01*
X5049500Y-17862800D01*
X5063786Y-17877086D01*
X5078071Y-17905657D01*
X5092357Y-17962800D01*
X5092357Y-18034229D01*
X5078071Y-18091372D01*
X5063786Y-18119943D01*
X5049500Y-18134229D01*
X5020928Y-18148514D01*
X4992357Y-18148514D01*
X4963786Y-18134229D01*
X4949500Y-18119943D01*
X4935214Y-18091372D01*
X4920928Y-18034229D01*
X4920928Y-17962800D01*
X4935214Y-17905657D01*
X4949500Y-17877086D01*
X4963786Y-17862800D01*
X4992357Y-17848514D01*
X5278071Y-17848514D02*
X5306643Y-17848514D01*
X5335214Y-17862800D01*
X5349500Y-17877086D01*
X5363786Y-17905657D01*
X5378071Y-17962800D01*
X5378071Y-18034229D01*
X5363786Y-18091372D01*
X5349500Y-18119943D01*
X5335214Y-18134229D01*
X5306643Y-18148514D01*
X5278071Y-18148514D01*
X5249500Y-18134229D01*
X5235214Y-18119943D01*
X5220928Y-18091372D01*
X5206643Y-18034229D01*
X5206643Y-17962800D01*
X5220928Y-17905657D01*
X5235214Y-17877086D01*
X5249500Y-17862800D01*
X5278071Y-17848514D01*
X5506643Y-18148514D02*
X5506643Y-17948514D01*
X5506643Y-17977086D02*
X5520928Y-17962800D01*
X5549500Y-17948514D01*
X5592357Y-17948514D01*
X5620928Y-17962800D01*
X5635214Y-17991372D01*
X5635214Y-18148514D01*
X5635214Y-17991372D02*
X5649500Y-17962800D01*
X5678071Y-17948514D01*
X5720928Y-17948514D01*
X5749500Y-17962800D01*
X5763786Y-17991372D01*
X5763786Y-18148514D01*
X5906643Y-18148514D02*
X5906643Y-17948514D01*
X5906643Y-17977086D02*
X5920928Y-17962800D01*
X5949500Y-17948514D01*
X5992357Y-17948514D01*
X6020928Y-17962800D01*
X6035214Y-17991372D01*
X6035214Y-18148514D01*
X6035214Y-17991372D02*
X6049500Y-17962800D01*
X6078071Y-17948514D01*
X6120928Y-17948514D01*
X6149500Y-17962800D01*
X6163786Y-17991372D01*
X6163786Y-18148514D01*
X6749500Y-17834229D02*
X6492357Y-18219943D01*
X7135214Y-17848514D02*
X7163786Y-17848514D01*
X7192357Y-17862800D01*
X7206643Y-17877086D01*
X7220928Y-17905657D01*
X7235214Y-17962800D01*
X7235214Y-18034229D01*
X7220928Y-18091372D01*
X7206643Y-18119943D01*
X7192357Y-18134229D01*
X7163786Y-18148514D01*
X7135214Y-18148514D01*
X7106643Y-18134229D01*
X7092357Y-18119943D01*
X7078071Y-18091372D01*
X7063786Y-18034229D01*
X7063786Y-17962800D01*
X7078071Y-17905657D01*
X7092357Y-17877086D01*
X7106643Y-17862800D01*
X7135214Y-17848514D01*
X7363786Y-18119943D02*
X7378071Y-18134229D01*
X7363786Y-18148514D01*
X7349500Y-18134229D01*
X7363786Y-18119943D01*
X7363786Y-18148514D01*
X7563786Y-17848514D02*
X7592357Y-17848514D01*
X7620928Y-17862800D01*
X7635214Y-17877086D01*
X7649500Y-17905657D01*
X7663786Y-17962800D01*
X7663786Y-18034229D01*
X7649500Y-18091372D01*
X7635214Y-18119943D01*
X7620928Y-18134229D01*
X7592357Y-18148514D01*
X7563786Y-18148514D01*
X7535214Y-18134229D01*
X7520928Y-18119943D01*
X7506643Y-18091372D01*
X7492357Y-18034229D01*
X7492357Y-17962800D01*
X7506643Y-17905657D01*
X7520928Y-17877086D01*
X7535214Y-17862800D01*
X7563786Y-17848514D01*
X7778071Y-17877086D02*
X7792357Y-17862800D01*
X7820928Y-17848514D01*
X7892357Y-17848514D01*
X7920928Y-17862800D01*
X7935214Y-17877086D01*
X7949500Y-17905657D01*
X7949500Y-17934229D01*
X7935214Y-17977086D01*
X7763786Y-18148514D01*
X7949500Y-18148514D01*
X8049500Y-17848514D02*
X8235214Y-17848514D01*
X8135214Y-17962800D01*
X8178071Y-17962800D01*
X8206643Y-17977086D01*
X8220928Y-17991372D01*
X8235214Y-18019943D01*
X8235214Y-18091372D01*
X8220928Y-18119943D01*
X8206643Y-18134229D01*
X8178071Y-18148514D01*
X8092357Y-18148514D01*
X8063786Y-18134229D01*
X8049500Y-18119943D01*
X8492357Y-17848514D02*
X8435214Y-17848514D01*
X8406643Y-17862800D01*
X8392357Y-17877086D01*
X8363786Y-17919943D01*
X8349500Y-17977086D01*
X8349500Y-18091372D01*
X8363786Y-18119943D01*
X8378071Y-18134229D01*
X8406643Y-18148514D01*
X8463786Y-18148514D01*
X8492357Y-18134229D01*
X8506643Y-18119943D01*
X8520928Y-18091372D01*
X8520928Y-18019943D01*
X8506643Y-17991372D01*
X8492357Y-17977086D01*
X8463786Y-17962800D01*
X8406643Y-17962800D01*
X8378071Y-17977086D01*
X8363786Y-17991372D01*
X8349500Y-18019943D01*
X8635214Y-17848514D02*
X8635214Y-17905657D01*
X8749500Y-17848514D02*
X8749500Y-17905657D01*
X9192357Y-18262800D02*
X9178071Y-18248514D01*
X9149500Y-18205657D01*
X9135214Y-18177086D01*
X9120928Y-18134229D01*
X9106643Y-18062800D01*
X9106643Y-18005657D01*
X9120928Y-17934229D01*
X9135214Y-17891372D01*
X9149500Y-17862800D01*
X9178071Y-17819943D01*
X9192357Y-17805657D01*
X9463786Y-18148514D02*
X9292357Y-18148514D01*
X9378071Y-18148514D02*
X9378071Y-17848514D01*
X9349500Y-17891372D01*
X9320928Y-17919943D01*
X9292357Y-17934229D01*
X9735214Y-17848514D02*
X9592357Y-17848514D01*
X9578071Y-17991372D01*
X9592357Y-17977086D01*
X9620928Y-17962800D01*
X9692357Y-17962800D01*
X9720928Y-17977086D01*
X9735214Y-17991372D01*
X9749500Y-18019943D01*
X9749500Y-18091372D01*
X9735214Y-18119943D01*
X9720928Y-18134229D01*
X9692357Y-18148514D01*
X9620928Y-18148514D01*
X9592357Y-18134229D01*
X9578071Y-18119943D01*
X10106643Y-18148514D02*
X10106643Y-17848514D01*
X10235214Y-18148514D02*
X10235214Y-17991372D01*
X10220928Y-17962800D01*
X10192357Y-17948514D01*
X10149500Y-17948514D01*
X10120928Y-17962800D01*
X10106643Y-17977086D01*
X10420928Y-18148514D02*
X10392357Y-18134229D01*
X10378071Y-18119943D01*
X10363786Y-18091372D01*
X10363786Y-18005657D01*
X10378071Y-17977086D01*
X10392357Y-17962800D01*
X10420928Y-17948514D01*
X10463786Y-17948514D01*
X10492357Y-17962800D01*
X10506643Y-17977086D01*
X10520928Y-18005657D01*
X10520928Y-18091372D01*
X10506643Y-18119943D01*
X10492357Y-18134229D01*
X10463786Y-18148514D01*
X10420928Y-18148514D01*
X10692357Y-18148514D02*
X10663786Y-18134229D01*
X10649500Y-18105657D01*
X10649500Y-17848514D01*
X10920928Y-18134229D02*
X10892357Y-18148514D01*
X10835214Y-18148514D01*
X10806643Y-18134229D01*
X10792357Y-18105657D01*
X10792357Y-17991372D01*
X10806643Y-17962800D01*
X10835214Y-17948514D01*
X10892357Y-17948514D01*
X10920928Y-17962800D01*
X10935214Y-17991372D01*
X10935214Y-18019943D01*
X10792357Y-18048514D01*
X11049500Y-18134229D02*
X11078071Y-18148514D01*
X11135214Y-18148514D01*
X11163786Y-18134229D01*
X11178071Y-18105657D01*
X11178071Y-18091372D01*
X11163786Y-18062800D01*
X11135214Y-18048514D01*
X11092357Y-18048514D01*
X11063786Y-18034229D01*
X11049500Y-18005657D01*
X11049500Y-17991372D01*
X11063786Y-17962800D01*
X11092357Y-17948514D01*
X11135214Y-17948514D01*
X11163786Y-17962800D01*
X11278071Y-18262800D02*
X11292357Y-18248514D01*
X11320928Y-18205657D01*
X11335214Y-18177086D01*
X11349500Y-18134229D01*
X11363786Y-18062800D01*
X11363786Y-18005657D01*
X11349500Y-17934229D01*
X11335214Y-17891372D01*
X11320928Y-17862800D01*
X11292357Y-17819943D01*
X11278071Y-17805657D01*
X3899500Y-18443800D02*
X3934500Y-18408800D01*
X3899500Y-18373800D01*
X3864500Y-18408800D01*
X3899500Y-18443800D01*
X4278071Y-18244514D02*
X4306643Y-18244514D01*
X4335214Y-18258800D01*
X4349500Y-18273086D01*
X4363786Y-18301657D01*
X4378071Y-18358800D01*
X4378071Y-18430229D01*
X4363786Y-18487372D01*
X4349500Y-18515943D01*
X4335214Y-18530229D01*
X4306643Y-18544514D01*
X4278071Y-18544514D01*
X4249500Y-18530229D01*
X4235214Y-18515943D01*
X4220928Y-18487372D01*
X4206643Y-18430229D01*
X4206643Y-18358800D01*
X4220928Y-18301657D01*
X4235214Y-18273086D01*
X4249500Y-18258800D01*
X4278071Y-18244514D01*
X4506643Y-18515943D02*
X4520928Y-18530229D01*
X4506643Y-18544514D01*
X4492357Y-18530229D01*
X4506643Y-18515943D01*
X4506643Y-18544514D01*
X4620928Y-18244514D02*
X4820928Y-18244514D01*
X4692357Y-18544514D01*
X4992357Y-18244514D02*
X5020928Y-18244514D01*
X5049500Y-18258800D01*
X5063786Y-18273086D01*
X5078071Y-18301657D01*
X5092357Y-18358800D01*
X5092357Y-18430229D01*
X5078071Y-18487372D01*
X5063786Y-18515943D01*
X5049500Y-18530229D01*
X5020928Y-18544514D01*
X4992357Y-18544514D01*
X4963786Y-18530229D01*
X4949500Y-18515943D01*
X4935214Y-18487372D01*
X4920928Y-18430229D01*
X4920928Y-18358800D01*
X4935214Y-18301657D01*
X4949500Y-18273086D01*
X4963786Y-18258800D01*
X4992357Y-18244514D01*
X5278071Y-18244514D02*
X5306643Y-18244514D01*
X5335214Y-18258800D01*
X5349500Y-18273086D01*
X5363786Y-18301657D01*
X5378071Y-18358800D01*
X5378071Y-18430229D01*
X5363786Y-18487372D01*
X5349500Y-18515943D01*
X5335214Y-18530229D01*
X5306643Y-18544514D01*
X5278071Y-18544514D01*
X5249500Y-18530229D01*
X5235214Y-18515943D01*
X5220928Y-18487372D01*
X5206643Y-18430229D01*
X5206643Y-18358800D01*
X5220928Y-18301657D01*
X5235214Y-18273086D01*
X5249500Y-18258800D01*
X5278071Y-18244514D01*
X5506643Y-18544514D02*
X5506643Y-18344514D01*
X5506643Y-18373086D02*
X5520928Y-18358800D01*
X5549500Y-18344514D01*
X5592357Y-18344514D01*
X5620928Y-18358800D01*
X5635214Y-18387372D01*
X5635214Y-18544514D01*
X5635214Y-18387372D02*
X5649500Y-18358800D01*
X5678071Y-18344514D01*
X5720928Y-18344514D01*
X5749500Y-18358800D01*
X5763786Y-18387372D01*
X5763786Y-18544514D01*
X5906643Y-18544514D02*
X5906643Y-18344514D01*
X5906643Y-18373086D02*
X5920928Y-18358800D01*
X5949500Y-18344514D01*
X5992357Y-18344514D01*
X6020928Y-18358800D01*
X6035214Y-18387372D01*
X6035214Y-18544514D01*
X6035214Y-18387372D02*
X6049500Y-18358800D01*
X6078071Y-18344514D01*
X6120928Y-18344514D01*
X6149500Y-18358800D01*
X6163786Y-18387372D01*
X6163786Y-18544514D01*
X6749500Y-18230229D02*
X6492357Y-18615943D01*
X7135214Y-18244514D02*
X7163786Y-18244514D01*
X7192357Y-18258800D01*
X7206643Y-18273086D01*
X7220928Y-18301657D01*
X7235214Y-18358800D01*
X7235214Y-18430229D01*
X7220928Y-18487372D01*
X7206643Y-18515943D01*
X7192357Y-18530229D01*
X7163786Y-18544514D01*
X7135214Y-18544514D01*
X7106643Y-18530229D01*
X7092357Y-18515943D01*
X7078071Y-18487372D01*
X7063786Y-18430229D01*
X7063786Y-18358800D01*
X7078071Y-18301657D01*
X7092357Y-18273086D01*
X7106643Y-18258800D01*
X7135214Y-18244514D01*
X7363786Y-18515943D02*
X7378071Y-18530229D01*
X7363786Y-18544514D01*
X7349500Y-18530229D01*
X7363786Y-18515943D01*
X7363786Y-18544514D01*
X7563786Y-18244514D02*
X7592357Y-18244514D01*
X7620928Y-18258800D01*
X7635214Y-18273086D01*
X7649500Y-18301657D01*
X7663786Y-18358800D01*
X7663786Y-18430229D01*
X7649500Y-18487372D01*
X7635214Y-18515943D01*
X7620928Y-18530229D01*
X7592357Y-18544514D01*
X7563786Y-18544514D01*
X7535214Y-18530229D01*
X7520928Y-18515943D01*
X7506643Y-18487372D01*
X7492357Y-18430229D01*
X7492357Y-18358800D01*
X7506643Y-18301657D01*
X7520928Y-18273086D01*
X7535214Y-18258800D01*
X7563786Y-18244514D01*
X7778071Y-18273086D02*
X7792357Y-18258800D01*
X7820928Y-18244514D01*
X7892357Y-18244514D01*
X7920928Y-18258800D01*
X7935214Y-18273086D01*
X7949500Y-18301657D01*
X7949500Y-18330229D01*
X7935214Y-18373086D01*
X7763786Y-18544514D01*
X7949500Y-18544514D01*
X8049500Y-18244514D02*
X8249500Y-18244514D01*
X8120928Y-18544514D01*
X8492357Y-18244514D02*
X8435214Y-18244514D01*
X8406643Y-18258800D01*
X8392357Y-18273086D01*
X8363786Y-18315943D01*
X8349500Y-18373086D01*
X8349500Y-18487372D01*
X8363786Y-18515943D01*
X8378071Y-18530229D01*
X8406643Y-18544514D01*
X8463786Y-18544514D01*
X8492357Y-18530229D01*
X8506643Y-18515943D01*
X8520928Y-18487372D01*
X8520928Y-18415943D01*
X8506643Y-18387372D01*
X8492357Y-18373086D01*
X8463786Y-18358800D01*
X8406643Y-18358800D01*
X8378071Y-18373086D01*
X8363786Y-18387372D01*
X8349500Y-18415943D01*
X8635214Y-18244514D02*
X8635214Y-18301657D01*
X8749500Y-18244514D02*
X8749500Y-18301657D01*
X9192357Y-18658800D02*
X9178071Y-18644514D01*
X9149500Y-18601657D01*
X9135214Y-18573086D01*
X9120928Y-18530229D01*
X9106643Y-18458800D01*
X9106643Y-18401657D01*
X9120928Y-18330229D01*
X9135214Y-18287372D01*
X9149500Y-18258800D01*
X9178071Y-18215943D01*
X9192357Y-18201657D01*
X9320928Y-18544514D02*
X9378071Y-18544514D01*
X9406643Y-18530229D01*
X9420928Y-18515943D01*
X9449500Y-18473086D01*
X9463786Y-18415943D01*
X9463786Y-18301657D01*
X9449500Y-18273086D01*
X9435214Y-18258800D01*
X9406643Y-18244514D01*
X9349500Y-18244514D01*
X9320928Y-18258800D01*
X9306643Y-18273086D01*
X9292357Y-18301657D01*
X9292357Y-18373086D01*
X9306643Y-18401657D01*
X9320928Y-18415943D01*
X9349500Y-18430229D01*
X9406643Y-18430229D01*
X9435214Y-18415943D01*
X9449500Y-18401657D01*
X9463786Y-18373086D01*
X9820928Y-18544514D02*
X9820928Y-18244514D01*
X9949500Y-18544514D02*
X9949500Y-18387372D01*
X9935214Y-18358800D01*
X9906643Y-18344514D01*
X9863786Y-18344514D01*
X9835214Y-18358800D01*
X9820928Y-18373086D01*
X10135214Y-18544514D02*
X10106643Y-18530229D01*
X10092357Y-18515943D01*
X10078071Y-18487372D01*
X10078071Y-18401657D01*
X10092357Y-18373086D01*
X10106643Y-18358800D01*
X10135214Y-18344514D01*
X10178071Y-18344514D01*
X10206643Y-18358800D01*
X10220928Y-18373086D01*
X10235214Y-18401657D01*
X10235214Y-18487372D01*
X10220928Y-18515943D01*
X10206643Y-18530229D01*
X10178071Y-18544514D01*
X10135214Y-18544514D01*
X10406643Y-18544514D02*
X10378071Y-18530229D01*
X10363786Y-18501657D01*
X10363786Y-18244514D01*
X10635214Y-18530229D02*
X10606643Y-18544514D01*
X10549500Y-18544514D01*
X10520928Y-18530229D01*
X10506643Y-18501657D01*
X10506643Y-18387372D01*
X10520928Y-18358800D01*
X10549500Y-18344514D01*
X10606643Y-18344514D01*
X10635214Y-18358800D01*
X10649500Y-18387372D01*
X10649500Y-18415943D01*
X10506643Y-18444514D01*
X10763786Y-18530229D02*
X10792357Y-18544514D01*
X10849500Y-18544514D01*
X10878071Y-18530229D01*
X10892357Y-18501657D01*
X10892357Y-18487372D01*
X10878071Y-18458800D01*
X10849500Y-18444514D01*
X10806643Y-18444514D01*
X10778071Y-18430229D01*
X10763786Y-18401657D01*
X10763786Y-18387372D01*
X10778071Y-18358800D01*
X10806643Y-18344514D01*
X10849500Y-18344514D01*
X10878071Y-18358800D01*
X10992357Y-18658800D02*
X11006643Y-18644514D01*
X11035214Y-18601657D01*
X11049500Y-18573086D01*
X11063786Y-18530229D01*
X11078071Y-18458800D01*
X11078071Y-18401657D01*
X11063786Y-18330229D01*
X11049500Y-18287372D01*
X11035214Y-18258800D01*
X11006643Y-18215943D01*
X10992357Y-18201657D01*
X3863500Y-18769300D02*
X3934500Y-18840300D01*
X3934500Y-18769300D02*
X3863500Y-18840300D01*
X3934500Y-18804800D02*
G75*
G03*
X3934500Y-18804800I-35500J0D01*
G01*
X4278071Y-18640514D02*
X4306643Y-18640514D01*
X4335214Y-18654800D01*
X4349500Y-18669086D01*
X4363786Y-18697657D01*
X4378071Y-18754800D01*
X4378071Y-18826229D01*
X4363786Y-18883372D01*
X4349500Y-18911943D01*
X4335214Y-18926229D01*
X4306643Y-18940514D01*
X4278071Y-18940514D01*
X4249500Y-18926229D01*
X4235214Y-18911943D01*
X4220928Y-18883372D01*
X4206643Y-18826229D01*
X4206643Y-18754800D01*
X4220928Y-18697657D01*
X4235214Y-18669086D01*
X4249500Y-18654800D01*
X4278071Y-18640514D01*
X4506643Y-18911943D02*
X4520928Y-18926229D01*
X4506643Y-18940514D01*
X4492357Y-18926229D01*
X4506643Y-18911943D01*
X4506643Y-18940514D01*
X4620928Y-18640514D02*
X4820928Y-18640514D01*
X4692357Y-18940514D01*
X5092357Y-18940514D02*
X4920928Y-18940514D01*
X5006643Y-18940514D02*
X5006643Y-18640514D01*
X4978071Y-18683372D01*
X4949500Y-18711943D01*
X4920928Y-18726229D01*
X5278071Y-18640514D02*
X5306643Y-18640514D01*
X5335214Y-18654800D01*
X5349500Y-18669086D01*
X5363786Y-18697657D01*
X5378071Y-18754800D01*
X5378071Y-18826229D01*
X5363786Y-18883372D01*
X5349500Y-18911943D01*
X5335214Y-18926229D01*
X5306643Y-18940514D01*
X5278071Y-18940514D01*
X5249500Y-18926229D01*
X5235214Y-18911943D01*
X5220928Y-18883372D01*
X5206643Y-18826229D01*
X5206643Y-18754800D01*
X5220928Y-18697657D01*
X5235214Y-18669086D01*
X5249500Y-18654800D01*
X5278071Y-18640514D01*
X5506643Y-18940514D02*
X5506643Y-18740514D01*
X5506643Y-18769086D02*
X5520928Y-18754800D01*
X5549500Y-18740514D01*
X5592357Y-18740514D01*
X5620928Y-18754800D01*
X5635214Y-18783372D01*
X5635214Y-18940514D01*
X5635214Y-18783372D02*
X5649500Y-18754800D01*
X5678071Y-18740514D01*
X5720928Y-18740514D01*
X5749500Y-18754800D01*
X5763786Y-18783372D01*
X5763786Y-18940514D01*
X5906643Y-18940514D02*
X5906643Y-18740514D01*
X5906643Y-18769086D02*
X5920928Y-18754800D01*
X5949500Y-18740514D01*
X5992357Y-18740514D01*
X6020928Y-18754800D01*
X6035214Y-18783372D01*
X6035214Y-18940514D01*
X6035214Y-18783372D02*
X6049500Y-18754800D01*
X6078071Y-18740514D01*
X6120928Y-18740514D01*
X6149500Y-18754800D01*
X6163786Y-18783372D01*
X6163786Y-18940514D01*
X6749500Y-18626229D02*
X6492357Y-19011943D01*
X7135214Y-18640514D02*
X7163786Y-18640514D01*
X7192357Y-18654800D01*
X7206643Y-18669086D01*
X7220928Y-18697657D01*
X7235214Y-18754800D01*
X7235214Y-18826229D01*
X7220928Y-18883372D01*
X7206643Y-18911943D01*
X7192357Y-18926229D01*
X7163786Y-18940514D01*
X7135214Y-18940514D01*
X7106643Y-18926229D01*
X7092357Y-18911943D01*
X7078071Y-18883372D01*
X7063786Y-18826229D01*
X7063786Y-18754800D01*
X7078071Y-18697657D01*
X7092357Y-18669086D01*
X7106643Y-18654800D01*
X7135214Y-18640514D01*
X7363786Y-18911943D02*
X7378071Y-18926229D01*
X7363786Y-18940514D01*
X7349500Y-18926229D01*
X7363786Y-18911943D01*
X7363786Y-18940514D01*
X7563786Y-18640514D02*
X7592357Y-18640514D01*
X7620928Y-18654800D01*
X7635214Y-18669086D01*
X7649500Y-18697657D01*
X7663786Y-18754800D01*
X7663786Y-18826229D01*
X7649500Y-18883372D01*
X7635214Y-18911943D01*
X7620928Y-18926229D01*
X7592357Y-18940514D01*
X7563786Y-18940514D01*
X7535214Y-18926229D01*
X7520928Y-18911943D01*
X7506643Y-18883372D01*
X7492357Y-18826229D01*
X7492357Y-18754800D01*
X7506643Y-18697657D01*
X7520928Y-18669086D01*
X7535214Y-18654800D01*
X7563786Y-18640514D01*
X7778071Y-18669086D02*
X7792357Y-18654800D01*
X7820928Y-18640514D01*
X7892357Y-18640514D01*
X7920928Y-18654800D01*
X7935214Y-18669086D01*
X7949500Y-18697657D01*
X7949500Y-18726229D01*
X7935214Y-18769086D01*
X7763786Y-18940514D01*
X7949500Y-18940514D01*
X8120928Y-18769086D02*
X8092357Y-18754800D01*
X8078071Y-18740514D01*
X8063786Y-18711943D01*
X8063786Y-18697657D01*
X8078071Y-18669086D01*
X8092357Y-18654800D01*
X8120928Y-18640514D01*
X8178071Y-18640514D01*
X8206643Y-18654800D01*
X8220928Y-18669086D01*
X8235214Y-18697657D01*
X8235214Y-18711943D01*
X8220928Y-18740514D01*
X8206643Y-18754800D01*
X8178071Y-18769086D01*
X8120928Y-18769086D01*
X8092357Y-18783372D01*
X8078071Y-18797657D01*
X8063786Y-18826229D01*
X8063786Y-18883372D01*
X8078071Y-18911943D01*
X8092357Y-18926229D01*
X8120928Y-18940514D01*
X8178071Y-18940514D01*
X8206643Y-18926229D01*
X8220928Y-18911943D01*
X8235214Y-18883372D01*
X8235214Y-18826229D01*
X8220928Y-18797657D01*
X8206643Y-18783372D01*
X8178071Y-18769086D01*
X8420928Y-18640514D02*
X8449500Y-18640514D01*
X8478071Y-18654800D01*
X8492357Y-18669086D01*
X8506643Y-18697657D01*
X8520928Y-18754800D01*
X8520928Y-18826229D01*
X8506643Y-18883372D01*
X8492357Y-18911943D01*
X8478071Y-18926229D01*
X8449500Y-18940514D01*
X8420928Y-18940514D01*
X8392357Y-18926229D01*
X8378071Y-18911943D01*
X8363786Y-18883372D01*
X8349500Y-18826229D01*
X8349500Y-18754800D01*
X8363786Y-18697657D01*
X8378071Y-18669086D01*
X8392357Y-18654800D01*
X8420928Y-18640514D01*
X8635214Y-18640514D02*
X8635214Y-18697657D01*
X8749500Y-18640514D02*
X8749500Y-18697657D01*
X9192357Y-19054800D02*
X9178071Y-19040514D01*
X9149500Y-18997657D01*
X9135214Y-18969086D01*
X9120928Y-18926229D01*
X9106643Y-18854800D01*
X9106643Y-18797657D01*
X9120928Y-18726229D01*
X9135214Y-18683372D01*
X9149500Y-18654800D01*
X9178071Y-18611943D01*
X9192357Y-18597657D01*
X9292357Y-18669086D02*
X9306643Y-18654800D01*
X9335214Y-18640514D01*
X9406643Y-18640514D01*
X9435214Y-18654800D01*
X9449500Y-18669086D01*
X9463786Y-18697657D01*
X9463786Y-18726229D01*
X9449500Y-18769086D01*
X9278071Y-18940514D01*
X9463786Y-18940514D01*
X9820928Y-18940514D02*
X9820928Y-18640514D01*
X9949500Y-18940514D02*
X9949500Y-18783372D01*
X9935214Y-18754800D01*
X9906643Y-18740514D01*
X9863786Y-18740514D01*
X9835214Y-18754800D01*
X9820928Y-18769086D01*
X10135214Y-18940514D02*
X10106643Y-18926229D01*
X10092357Y-18911943D01*
X10078071Y-18883372D01*
X10078071Y-18797657D01*
X10092357Y-18769086D01*
X10106643Y-18754800D01*
X10135214Y-18740514D01*
X10178071Y-18740514D01*
X10206643Y-18754800D01*
X10220928Y-18769086D01*
X10235214Y-18797657D01*
X10235214Y-18883372D01*
X10220928Y-18911943D01*
X10206643Y-18926229D01*
X10178071Y-18940514D01*
X10135214Y-18940514D01*
X10406643Y-18940514D02*
X10378071Y-18926229D01*
X10363786Y-18897657D01*
X10363786Y-18640514D01*
X10635214Y-18926229D02*
X10606643Y-18940514D01*
X10549500Y-18940514D01*
X10520928Y-18926229D01*
X10506643Y-18897657D01*
X10506643Y-18783372D01*
X10520928Y-18754800D01*
X10549500Y-18740514D01*
X10606643Y-18740514D01*
X10635214Y-18754800D01*
X10649500Y-18783372D01*
X10649500Y-18811943D01*
X10506643Y-18840514D01*
X10763786Y-18926229D02*
X10792357Y-18940514D01*
X10849500Y-18940514D01*
X10878071Y-18926229D01*
X10892357Y-18897657D01*
X10892357Y-18883372D01*
X10878071Y-18854800D01*
X10849500Y-18840514D01*
X10806643Y-18840514D01*
X10778071Y-18826229D01*
X10763786Y-18797657D01*
X10763786Y-18783372D01*
X10778071Y-18754800D01*
X10806643Y-18740514D01*
X10849500Y-18740514D01*
X10878071Y-18754800D01*
X10992357Y-19054800D02*
X11006643Y-19040514D01*
X11035214Y-18997657D01*
X11049500Y-18969086D01*
X11063786Y-18926229D01*
X11078071Y-18854800D01*
X11078071Y-18797657D01*
X11063786Y-18726229D01*
X11049500Y-18683372D01*
X11035214Y-18654800D01*
X11006643Y-18611943D01*
X10992357Y-18597657D01*
X3854500Y-19160800D02*
X3934500Y-19240800D01*
X3934500Y-19160800D02*
X3854500Y-19240800D01*
X3894500Y-19160800D02*
X3894500Y-19240800D01*
X3854500Y-19200800D02*
X3934500Y-19200800D01*
X4278071Y-19036514D02*
X4306643Y-19036514D01*
X4335214Y-19050800D01*
X4349500Y-19065086D01*
X4363786Y-19093657D01*
X4378071Y-19150800D01*
X4378071Y-19222229D01*
X4363786Y-19279372D01*
X4349500Y-19307943D01*
X4335214Y-19322229D01*
X4306643Y-19336514D01*
X4278071Y-19336514D01*
X4249500Y-19322229D01*
X4235214Y-19307943D01*
X4220928Y-19279372D01*
X4206643Y-19222229D01*
X4206643Y-19150800D01*
X4220928Y-19093657D01*
X4235214Y-19065086D01*
X4249500Y-19050800D01*
X4278071Y-19036514D01*
X4506643Y-19307943D02*
X4520928Y-19322229D01*
X4506643Y-19336514D01*
X4492357Y-19322229D01*
X4506643Y-19307943D01*
X4506643Y-19336514D01*
X4692357Y-19165086D02*
X4663786Y-19150800D01*
X4649500Y-19136514D01*
X4635214Y-19107943D01*
X4635214Y-19093657D01*
X4649500Y-19065086D01*
X4663786Y-19050800D01*
X4692357Y-19036514D01*
X4749500Y-19036514D01*
X4778071Y-19050800D01*
X4792357Y-19065086D01*
X4806643Y-19093657D01*
X4806643Y-19107943D01*
X4792357Y-19136514D01*
X4778071Y-19150800D01*
X4749500Y-19165086D01*
X4692357Y-19165086D01*
X4663786Y-19179372D01*
X4649500Y-19193657D01*
X4635214Y-19222229D01*
X4635214Y-19279372D01*
X4649500Y-19307943D01*
X4663786Y-19322229D01*
X4692357Y-19336514D01*
X4749500Y-19336514D01*
X4778071Y-19322229D01*
X4792357Y-19307943D01*
X4806643Y-19279372D01*
X4806643Y-19222229D01*
X4792357Y-19193657D01*
X4778071Y-19179372D01*
X4749500Y-19165086D01*
X4992357Y-19036514D02*
X5020928Y-19036514D01*
X5049500Y-19050800D01*
X5063786Y-19065086D01*
X5078071Y-19093657D01*
X5092357Y-19150800D01*
X5092357Y-19222229D01*
X5078071Y-19279372D01*
X5063786Y-19307943D01*
X5049500Y-19322229D01*
X5020928Y-19336514D01*
X4992357Y-19336514D01*
X4963786Y-19322229D01*
X4949500Y-19307943D01*
X4935214Y-19279372D01*
X4920928Y-19222229D01*
X4920928Y-19150800D01*
X4935214Y-19093657D01*
X4949500Y-19065086D01*
X4963786Y-19050800D01*
X4992357Y-19036514D01*
X5278071Y-19036514D02*
X5306643Y-19036514D01*
X5335214Y-19050800D01*
X5349500Y-19065086D01*
X5363786Y-19093657D01*
X5378071Y-19150800D01*
X5378071Y-19222229D01*
X5363786Y-19279372D01*
X5349500Y-19307943D01*
X5335214Y-19322229D01*
X5306643Y-19336514D01*
X5278071Y-19336514D01*
X5249500Y-19322229D01*
X5235214Y-19307943D01*
X5220928Y-19279372D01*
X5206643Y-19222229D01*
X5206643Y-19150800D01*
X5220928Y-19093657D01*
X5235214Y-19065086D01*
X5249500Y-19050800D01*
X5278071Y-19036514D01*
X5506643Y-19336514D02*
X5506643Y-19136514D01*
X5506643Y-19165086D02*
X5520928Y-19150800D01*
X5549500Y-19136514D01*
X5592357Y-19136514D01*
X5620928Y-19150800D01*
X5635214Y-19179372D01*
X5635214Y-19336514D01*
X5635214Y-19179372D02*
X5649500Y-19150800D01*
X5678071Y-19136514D01*
X5720928Y-19136514D01*
X5749500Y-19150800D01*
X5763786Y-19179372D01*
X5763786Y-19336514D01*
X5906643Y-19336514D02*
X5906643Y-19136514D01*
X5906643Y-19165086D02*
X5920928Y-19150800D01*
X5949500Y-19136514D01*
X5992357Y-19136514D01*
X6020928Y-19150800D01*
X6035214Y-19179372D01*
X6035214Y-19336514D01*
X6035214Y-19179372D02*
X6049500Y-19150800D01*
X6078071Y-19136514D01*
X6120928Y-19136514D01*
X6149500Y-19150800D01*
X6163786Y-19179372D01*
X6163786Y-19336514D01*
X6749500Y-19022229D02*
X6492357Y-19407943D01*
X7135214Y-19036514D02*
X7163786Y-19036514D01*
X7192357Y-19050800D01*
X7206643Y-19065086D01*
X7220928Y-19093657D01*
X7235214Y-19150800D01*
X7235214Y-19222229D01*
X7220928Y-19279372D01*
X7206643Y-19307943D01*
X7192357Y-19322229D01*
X7163786Y-19336514D01*
X7135214Y-19336514D01*
X7106643Y-19322229D01*
X7092357Y-19307943D01*
X7078071Y-19279372D01*
X7063786Y-19222229D01*
X7063786Y-19150800D01*
X7078071Y-19093657D01*
X7092357Y-19065086D01*
X7106643Y-19050800D01*
X7135214Y-19036514D01*
X7363786Y-19307943D02*
X7378071Y-19322229D01*
X7363786Y-19336514D01*
X7349500Y-19322229D01*
X7363786Y-19307943D01*
X7363786Y-19336514D01*
X7563786Y-19036514D02*
X7592357Y-19036514D01*
X7620928Y-19050800D01*
X7635214Y-19065086D01*
X7649500Y-19093657D01*
X7663786Y-19150800D01*
X7663786Y-19222229D01*
X7649500Y-19279372D01*
X7635214Y-19307943D01*
X7620928Y-19322229D01*
X7592357Y-19336514D01*
X7563786Y-19336514D01*
X7535214Y-19322229D01*
X7520928Y-19307943D01*
X7506643Y-19279372D01*
X7492357Y-19222229D01*
X7492357Y-19150800D01*
X7506643Y-19093657D01*
X7520928Y-19065086D01*
X7535214Y-19050800D01*
X7563786Y-19036514D01*
X7763786Y-19036514D02*
X7949500Y-19036514D01*
X7849500Y-19150800D01*
X7892357Y-19150800D01*
X7920928Y-19165086D01*
X7935214Y-19179372D01*
X7949500Y-19207943D01*
X7949500Y-19279372D01*
X7935214Y-19307943D01*
X7920928Y-19322229D01*
X7892357Y-19336514D01*
X7806643Y-19336514D01*
X7778071Y-19322229D01*
X7763786Y-19307943D01*
X8235214Y-19336514D02*
X8063786Y-19336514D01*
X8149500Y-19336514D02*
X8149500Y-19036514D01*
X8120928Y-19079372D01*
X8092357Y-19107943D01*
X8063786Y-19122229D01*
X8506643Y-19036514D02*
X8363786Y-19036514D01*
X8349500Y-19179372D01*
X8363786Y-19165086D01*
X8392357Y-19150800D01*
X8463786Y-19150800D01*
X8492357Y-19165086D01*
X8506643Y-19179372D01*
X8520928Y-19207943D01*
X8520928Y-19279372D01*
X8506643Y-19307943D01*
X8492357Y-19322229D01*
X8463786Y-19336514D01*
X8392357Y-19336514D01*
X8363786Y-19322229D01*
X8349500Y-19307943D01*
X8635214Y-19036514D02*
X8635214Y-19093657D01*
X8749500Y-19036514D02*
X8749500Y-19093657D01*
X9192357Y-19450800D02*
X9178071Y-19436514D01*
X9149500Y-19393657D01*
X9135214Y-19365086D01*
X9120928Y-19322229D01*
X9106643Y-19250800D01*
X9106643Y-19193657D01*
X9120928Y-19122229D01*
X9135214Y-19079372D01*
X9149500Y-19050800D01*
X9178071Y-19007943D01*
X9192357Y-18993657D01*
X9463786Y-19336514D02*
X9292357Y-19336514D01*
X9378071Y-19336514D02*
X9378071Y-19036514D01*
X9349500Y-19079372D01*
X9320928Y-19107943D01*
X9292357Y-19122229D01*
X9749500Y-19336514D02*
X9578071Y-19336514D01*
X9663786Y-19336514D02*
X9663786Y-19036514D01*
X9635214Y-19079372D01*
X9606643Y-19107943D01*
X9578071Y-19122229D01*
X9863786Y-19065086D02*
X9878071Y-19050800D01*
X9906643Y-19036514D01*
X9978071Y-19036514D01*
X10006643Y-19050800D01*
X10020928Y-19065086D01*
X10035214Y-19093657D01*
X10035214Y-19122229D01*
X10020928Y-19165086D01*
X9849500Y-19336514D01*
X10035214Y-19336514D01*
X10392357Y-19336514D02*
X10392357Y-19036514D01*
X10520928Y-19336514D02*
X10520928Y-19179372D01*
X10506643Y-19150800D01*
X10478071Y-19136514D01*
X10435214Y-19136514D01*
X10406643Y-19150800D01*
X10392357Y-19165086D01*
X10706643Y-19336514D02*
X10678071Y-19322229D01*
X10663786Y-19307943D01*
X10649500Y-19279372D01*
X10649500Y-19193657D01*
X10663786Y-19165086D01*
X10678071Y-19150800D01*
X10706643Y-19136514D01*
X10749500Y-19136514D01*
X10778071Y-19150800D01*
X10792357Y-19165086D01*
X10806643Y-19193657D01*
X10806643Y-19279372D01*
X10792357Y-19307943D01*
X10778071Y-19322229D01*
X10749500Y-19336514D01*
X10706643Y-19336514D01*
X10978071Y-19336514D02*
X10949500Y-19322229D01*
X10935214Y-19293657D01*
X10935214Y-19036514D01*
X11206643Y-19322229D02*
X11178071Y-19336514D01*
X11120928Y-19336514D01*
X11092357Y-19322229D01*
X11078071Y-19293657D01*
X11078071Y-19179372D01*
X11092357Y-19150800D01*
X11120928Y-19136514D01*
X11178071Y-19136514D01*
X11206643Y-19150800D01*
X11220928Y-19179372D01*
X11220928Y-19207943D01*
X11078071Y-19236514D01*
X11335214Y-19322229D02*
X11363786Y-19336514D01*
X11420928Y-19336514D01*
X11449500Y-19322229D01*
X11463786Y-19293657D01*
X11463786Y-19279372D01*
X11449500Y-19250800D01*
X11420928Y-19236514D01*
X11378071Y-19236514D01*
X11349500Y-19222229D01*
X11335214Y-19193657D01*
X11335214Y-19179372D01*
X11349500Y-19150800D01*
X11378071Y-19136514D01*
X11420928Y-19136514D01*
X11449500Y-19150800D01*
X11563786Y-19450800D02*
X11578071Y-19436514D01*
X11606643Y-19393657D01*
X11620928Y-19365086D01*
X11635214Y-19322229D01*
X11649500Y-19250800D01*
X11649500Y-19193657D01*
X11635214Y-19122229D01*
X11620928Y-19079372D01*
X11606643Y-19050800D01*
X11578071Y-19007943D01*
X11563786Y-18993657D01*
X3842500Y-19550800D02*
X3934500Y-19642800D01*
X3934500Y-19550800D02*
X3842500Y-19642800D01*
X3921027Y-19629327D02*
X3921027Y-19564273D01*
X3855973Y-19564273D01*
X3855973Y-19629327D01*
X3921027Y-19629327D01*
X4278071Y-19432514D02*
X4306643Y-19432514D01*
X4335214Y-19446800D01*
X4349500Y-19461086D01*
X4363786Y-19489657D01*
X4378071Y-19546800D01*
X4378071Y-19618229D01*
X4363786Y-19675372D01*
X4349500Y-19703943D01*
X4335214Y-19718229D01*
X4306643Y-19732514D01*
X4278071Y-19732514D01*
X4249500Y-19718229D01*
X4235214Y-19703943D01*
X4220928Y-19675372D01*
X4206643Y-19618229D01*
X4206643Y-19546800D01*
X4220928Y-19489657D01*
X4235214Y-19461086D01*
X4249500Y-19446800D01*
X4278071Y-19432514D01*
X4506643Y-19703943D02*
X4520928Y-19718229D01*
X4506643Y-19732514D01*
X4492357Y-19718229D01*
X4506643Y-19703943D01*
X4506643Y-19732514D01*
X4663786Y-19732514D02*
X4720928Y-19732514D01*
X4749500Y-19718229D01*
X4763786Y-19703943D01*
X4792357Y-19661086D01*
X4806643Y-19603943D01*
X4806643Y-19489657D01*
X4792357Y-19461086D01*
X4778071Y-19446800D01*
X4749500Y-19432514D01*
X4692357Y-19432514D01*
X4663786Y-19446800D01*
X4649500Y-19461086D01*
X4635214Y-19489657D01*
X4635214Y-19561086D01*
X4649500Y-19589657D01*
X4663786Y-19603943D01*
X4692357Y-19618229D01*
X4749500Y-19618229D01*
X4778071Y-19603943D01*
X4792357Y-19589657D01*
X4806643Y-19561086D01*
X4920928Y-19461086D02*
X4935214Y-19446800D01*
X4963786Y-19432514D01*
X5035214Y-19432514D01*
X5063786Y-19446800D01*
X5078071Y-19461086D01*
X5092357Y-19489657D01*
X5092357Y-19518229D01*
X5078071Y-19561086D01*
X4906643Y-19732514D01*
X5092357Y-19732514D01*
X5278071Y-19432514D02*
X5306643Y-19432514D01*
X5335214Y-19446800D01*
X5349500Y-19461086D01*
X5363786Y-19489657D01*
X5378071Y-19546800D01*
X5378071Y-19618229D01*
X5363786Y-19675372D01*
X5349500Y-19703943D01*
X5335214Y-19718229D01*
X5306643Y-19732514D01*
X5278071Y-19732514D01*
X5249500Y-19718229D01*
X5235214Y-19703943D01*
X5220928Y-19675372D01*
X5206643Y-19618229D01*
X5206643Y-19546800D01*
X5220928Y-19489657D01*
X5235214Y-19461086D01*
X5249500Y-19446800D01*
X5278071Y-19432514D01*
X5506643Y-19732514D02*
X5506643Y-19532514D01*
X5506643Y-19561086D02*
X5520928Y-19546800D01*
X5549500Y-19532514D01*
X5592357Y-19532514D01*
X5620928Y-19546800D01*
X5635214Y-19575372D01*
X5635214Y-19732514D01*
X5635214Y-19575372D02*
X5649500Y-19546800D01*
X5678071Y-19532514D01*
X5720928Y-19532514D01*
X5749500Y-19546800D01*
X5763786Y-19575372D01*
X5763786Y-19732514D01*
X5906643Y-19732514D02*
X5906643Y-19532514D01*
X5906643Y-19561086D02*
X5920928Y-19546800D01*
X5949500Y-19532514D01*
X5992357Y-19532514D01*
X6020928Y-19546800D01*
X6035214Y-19575372D01*
X6035214Y-19732514D01*
X6035214Y-19575372D02*
X6049500Y-19546800D01*
X6078071Y-19532514D01*
X6120928Y-19532514D01*
X6149500Y-19546800D01*
X6163786Y-19575372D01*
X6163786Y-19732514D01*
X6749500Y-19418229D02*
X6492357Y-19803943D01*
X7135214Y-19432514D02*
X7163786Y-19432514D01*
X7192357Y-19446800D01*
X7206643Y-19461086D01*
X7220928Y-19489657D01*
X7235214Y-19546800D01*
X7235214Y-19618229D01*
X7220928Y-19675372D01*
X7206643Y-19703943D01*
X7192357Y-19718229D01*
X7163786Y-19732514D01*
X7135214Y-19732514D01*
X7106643Y-19718229D01*
X7092357Y-19703943D01*
X7078071Y-19675372D01*
X7063786Y-19618229D01*
X7063786Y-19546800D01*
X7078071Y-19489657D01*
X7092357Y-19461086D01*
X7106643Y-19446800D01*
X7135214Y-19432514D01*
X7363786Y-19703943D02*
X7378071Y-19718229D01*
X7363786Y-19732514D01*
X7349500Y-19718229D01*
X7363786Y-19703943D01*
X7363786Y-19732514D01*
X7563786Y-19432514D02*
X7592357Y-19432514D01*
X7620928Y-19446800D01*
X7635214Y-19461086D01*
X7649500Y-19489657D01*
X7663786Y-19546800D01*
X7663786Y-19618229D01*
X7649500Y-19675372D01*
X7635214Y-19703943D01*
X7620928Y-19718229D01*
X7592357Y-19732514D01*
X7563786Y-19732514D01*
X7535214Y-19718229D01*
X7520928Y-19703943D01*
X7506643Y-19675372D01*
X7492357Y-19618229D01*
X7492357Y-19546800D01*
X7506643Y-19489657D01*
X7520928Y-19461086D01*
X7535214Y-19446800D01*
X7563786Y-19432514D01*
X7763786Y-19432514D02*
X7949500Y-19432514D01*
X7849500Y-19546800D01*
X7892357Y-19546800D01*
X7920928Y-19561086D01*
X7935214Y-19575372D01*
X7949500Y-19603943D01*
X7949500Y-19675372D01*
X7935214Y-19703943D01*
X7920928Y-19718229D01*
X7892357Y-19732514D01*
X7806643Y-19732514D01*
X7778071Y-19718229D01*
X7763786Y-19703943D01*
X8206643Y-19432514D02*
X8149500Y-19432514D01*
X8120928Y-19446800D01*
X8106643Y-19461086D01*
X8078071Y-19503943D01*
X8063786Y-19561086D01*
X8063786Y-19675372D01*
X8078071Y-19703943D01*
X8092357Y-19718229D01*
X8120928Y-19732514D01*
X8178071Y-19732514D01*
X8206643Y-19718229D01*
X8220928Y-19703943D01*
X8235214Y-19675372D01*
X8235214Y-19603943D01*
X8220928Y-19575372D01*
X8206643Y-19561086D01*
X8178071Y-19546800D01*
X8120928Y-19546800D01*
X8092357Y-19561086D01*
X8078071Y-19575372D01*
X8063786Y-19603943D01*
X8349500Y-19461086D02*
X8363786Y-19446800D01*
X8392357Y-19432514D01*
X8463786Y-19432514D01*
X8492357Y-19446800D01*
X8506643Y-19461086D01*
X8520928Y-19489657D01*
X8520928Y-19518229D01*
X8506643Y-19561086D01*
X8335214Y-19732514D01*
X8520928Y-19732514D01*
X8635214Y-19432514D02*
X8635214Y-19489657D01*
X8749500Y-19432514D02*
X8749500Y-19489657D01*
X9192357Y-19846800D02*
X9178071Y-19832514D01*
X9149500Y-19789657D01*
X9135214Y-19761086D01*
X9120928Y-19718229D01*
X9106643Y-19646800D01*
X9106643Y-19589657D01*
X9120928Y-19518229D01*
X9135214Y-19475372D01*
X9149500Y-19446800D01*
X9178071Y-19403943D01*
X9192357Y-19389657D01*
X9349500Y-19561086D02*
X9320928Y-19546800D01*
X9306643Y-19532514D01*
X9292357Y-19503943D01*
X9292357Y-19489657D01*
X9306643Y-19461086D01*
X9320928Y-19446800D01*
X9349500Y-19432514D01*
X9406643Y-19432514D01*
X9435214Y-19446800D01*
X9449500Y-19461086D01*
X9463786Y-19489657D01*
X9463786Y-19503943D01*
X9449500Y-19532514D01*
X9435214Y-19546800D01*
X9406643Y-19561086D01*
X9349500Y-19561086D01*
X9320928Y-19575372D01*
X9306643Y-19589657D01*
X9292357Y-19618229D01*
X9292357Y-19675372D01*
X9306643Y-19703943D01*
X9320928Y-19718229D01*
X9349500Y-19732514D01*
X9406643Y-19732514D01*
X9435214Y-19718229D01*
X9449500Y-19703943D01*
X9463786Y-19675372D01*
X9463786Y-19618229D01*
X9449500Y-19589657D01*
X9435214Y-19575372D01*
X9406643Y-19561086D01*
X9820928Y-19732514D02*
X9820928Y-19432514D01*
X9949500Y-19732514D02*
X9949500Y-19575372D01*
X9935214Y-19546800D01*
X9906643Y-19532514D01*
X9863786Y-19532514D01*
X9835214Y-19546800D01*
X9820928Y-19561086D01*
X10135214Y-19732514D02*
X10106643Y-19718229D01*
X10092357Y-19703943D01*
X10078071Y-19675372D01*
X10078071Y-19589657D01*
X10092357Y-19561086D01*
X10106643Y-19546800D01*
X10135214Y-19532514D01*
X10178071Y-19532514D01*
X10206643Y-19546800D01*
X10220928Y-19561086D01*
X10235214Y-19589657D01*
X10235214Y-19675372D01*
X10220928Y-19703943D01*
X10206643Y-19718229D01*
X10178071Y-19732514D01*
X10135214Y-19732514D01*
X10406643Y-19732514D02*
X10378071Y-19718229D01*
X10363786Y-19689657D01*
X10363786Y-19432514D01*
X10635214Y-19718229D02*
X10606643Y-19732514D01*
X10549500Y-19732514D01*
X10520928Y-19718229D01*
X10506643Y-19689657D01*
X10506643Y-19575372D01*
X10520928Y-19546800D01*
X10549500Y-19532514D01*
X10606643Y-19532514D01*
X10635214Y-19546800D01*
X10649500Y-19575372D01*
X10649500Y-19603943D01*
X10506643Y-19632514D01*
X10763786Y-19718229D02*
X10792357Y-19732514D01*
X10849500Y-19732514D01*
X10878071Y-19718229D01*
X10892357Y-19689657D01*
X10892357Y-19675372D01*
X10878071Y-19646800D01*
X10849500Y-19632514D01*
X10806643Y-19632514D01*
X10778071Y-19618229D01*
X10763786Y-19589657D01*
X10763786Y-19575372D01*
X10778071Y-19546800D01*
X10806643Y-19532514D01*
X10849500Y-19532514D01*
X10878071Y-19546800D01*
X10992357Y-19846800D02*
X11006643Y-19832514D01*
X11035214Y-19789657D01*
X11049500Y-19761086D01*
X11063786Y-19718229D01*
X11078071Y-19646800D01*
X11078071Y-19589657D01*
X11063786Y-19518229D01*
X11049500Y-19475372D01*
X11035214Y-19446800D01*
X11006643Y-19403943D01*
X10992357Y-19389657D01*
X3834500Y-19942800D02*
X3934500Y-20042800D01*
X3934500Y-19942800D02*
X3834500Y-20042800D01*
X3884500Y-20042800D02*
X3934500Y-19992800D01*
X3884500Y-19942800D01*
X3834500Y-19992800D01*
X3884500Y-20042800D01*
X4378071Y-20128514D02*
X4206643Y-20128514D01*
X4292357Y-20128514D02*
X4292357Y-19828514D01*
X4263786Y-19871372D01*
X4235214Y-19899943D01*
X4206643Y-19914229D01*
X4506643Y-20099943D02*
X4520928Y-20114229D01*
X4506643Y-20128514D01*
X4492357Y-20114229D01*
X4506643Y-20099943D01*
X4506643Y-20128514D01*
X4706643Y-19828514D02*
X4735214Y-19828514D01*
X4763786Y-19842800D01*
X4778071Y-19857086D01*
X4792357Y-19885657D01*
X4806643Y-19942800D01*
X4806643Y-20014229D01*
X4792357Y-20071372D01*
X4778071Y-20099943D01*
X4763786Y-20114229D01*
X4735214Y-20128514D01*
X4706643Y-20128514D01*
X4678071Y-20114229D01*
X4663786Y-20099943D01*
X4649500Y-20071372D01*
X4635214Y-20014229D01*
X4635214Y-19942800D01*
X4649500Y-19885657D01*
X4663786Y-19857086D01*
X4678071Y-19842800D01*
X4706643Y-19828514D01*
X4992357Y-19828514D02*
X5020928Y-19828514D01*
X5049500Y-19842800D01*
X5063786Y-19857086D01*
X5078071Y-19885657D01*
X5092357Y-19942800D01*
X5092357Y-20014229D01*
X5078071Y-20071372D01*
X5063786Y-20099943D01*
X5049500Y-20114229D01*
X5020928Y-20128514D01*
X4992357Y-20128514D01*
X4963786Y-20114229D01*
X4949500Y-20099943D01*
X4935214Y-20071372D01*
X4920928Y-20014229D01*
X4920928Y-19942800D01*
X4935214Y-19885657D01*
X4949500Y-19857086D01*
X4963786Y-19842800D01*
X4992357Y-19828514D01*
X5278071Y-19828514D02*
X5306643Y-19828514D01*
X5335214Y-19842800D01*
X5349500Y-19857086D01*
X5363786Y-19885657D01*
X5378071Y-19942800D01*
X5378071Y-20014229D01*
X5363786Y-20071372D01*
X5349500Y-20099943D01*
X5335214Y-20114229D01*
X5306643Y-20128514D01*
X5278071Y-20128514D01*
X5249500Y-20114229D01*
X5235214Y-20099943D01*
X5220928Y-20071372D01*
X5206643Y-20014229D01*
X5206643Y-19942800D01*
X5220928Y-19885657D01*
X5235214Y-19857086D01*
X5249500Y-19842800D01*
X5278071Y-19828514D01*
X5506643Y-20128514D02*
X5506643Y-19928514D01*
X5506643Y-19957086D02*
X5520928Y-19942800D01*
X5549500Y-19928514D01*
X5592357Y-19928514D01*
X5620928Y-19942800D01*
X5635214Y-19971372D01*
X5635214Y-20128514D01*
X5635214Y-19971372D02*
X5649500Y-19942800D01*
X5678071Y-19928514D01*
X5720928Y-19928514D01*
X5749500Y-19942800D01*
X5763786Y-19971372D01*
X5763786Y-20128514D01*
X5906643Y-20128514D02*
X5906643Y-19928514D01*
X5906643Y-19957086D02*
X5920928Y-19942800D01*
X5949500Y-19928514D01*
X5992357Y-19928514D01*
X6020928Y-19942800D01*
X6035214Y-19971372D01*
X6035214Y-20128514D01*
X6035214Y-19971372D02*
X6049500Y-19942800D01*
X6078071Y-19928514D01*
X6120928Y-19928514D01*
X6149500Y-19942800D01*
X6163786Y-19971372D01*
X6163786Y-20128514D01*
X6749500Y-19814229D02*
X6492357Y-20199943D01*
X7135214Y-19828514D02*
X7163786Y-19828514D01*
X7192357Y-19842800D01*
X7206643Y-19857086D01*
X7220928Y-19885657D01*
X7235214Y-19942800D01*
X7235214Y-20014229D01*
X7220928Y-20071372D01*
X7206643Y-20099943D01*
X7192357Y-20114229D01*
X7163786Y-20128514D01*
X7135214Y-20128514D01*
X7106643Y-20114229D01*
X7092357Y-20099943D01*
X7078071Y-20071372D01*
X7063786Y-20014229D01*
X7063786Y-19942800D01*
X7078071Y-19885657D01*
X7092357Y-19857086D01*
X7106643Y-19842800D01*
X7135214Y-19828514D01*
X7363786Y-20099943D02*
X7378071Y-20114229D01*
X7363786Y-20128514D01*
X7349500Y-20114229D01*
X7363786Y-20099943D01*
X7363786Y-20128514D01*
X7563786Y-19828514D02*
X7592357Y-19828514D01*
X7620928Y-19842800D01*
X7635214Y-19857086D01*
X7649500Y-19885657D01*
X7663786Y-19942800D01*
X7663786Y-20014229D01*
X7649500Y-20071372D01*
X7635214Y-20099943D01*
X7620928Y-20114229D01*
X7592357Y-20128514D01*
X7563786Y-20128514D01*
X7535214Y-20114229D01*
X7520928Y-20099943D01*
X7506643Y-20071372D01*
X7492357Y-20014229D01*
X7492357Y-19942800D01*
X7506643Y-19885657D01*
X7520928Y-19857086D01*
X7535214Y-19842800D01*
X7563786Y-19828514D01*
X7763786Y-19828514D02*
X7949500Y-19828514D01*
X7849500Y-19942800D01*
X7892357Y-19942800D01*
X7920928Y-19957086D01*
X7935214Y-19971372D01*
X7949500Y-19999943D01*
X7949500Y-20071372D01*
X7935214Y-20099943D01*
X7920928Y-20114229D01*
X7892357Y-20128514D01*
X7806643Y-20128514D01*
X7778071Y-20114229D01*
X7763786Y-20099943D01*
X8092357Y-20128514D02*
X8149500Y-20128514D01*
X8178071Y-20114229D01*
X8192357Y-20099943D01*
X8220928Y-20057086D01*
X8235214Y-19999943D01*
X8235214Y-19885657D01*
X8220928Y-19857086D01*
X8206643Y-19842800D01*
X8178071Y-19828514D01*
X8120928Y-19828514D01*
X8092357Y-19842800D01*
X8078071Y-19857086D01*
X8063786Y-19885657D01*
X8063786Y-19957086D01*
X8078071Y-19985657D01*
X8092357Y-19999943D01*
X8120928Y-20014229D01*
X8178071Y-20014229D01*
X8206643Y-19999943D01*
X8220928Y-19985657D01*
X8235214Y-19957086D01*
X8492357Y-19928514D02*
X8492357Y-20128514D01*
X8420928Y-19814229D02*
X8349500Y-20028514D01*
X8535214Y-20028514D01*
X8635214Y-19828514D02*
X8635214Y-19885657D01*
X8749500Y-19828514D02*
X8749500Y-19885657D01*
X9192357Y-20242800D02*
X9178071Y-20228514D01*
X9149500Y-20185657D01*
X9135214Y-20157086D01*
X9120928Y-20114229D01*
X9106643Y-20042800D01*
X9106643Y-19985657D01*
X9120928Y-19914229D01*
X9135214Y-19871372D01*
X9149500Y-19842800D01*
X9178071Y-19799943D01*
X9192357Y-19785657D01*
X9463786Y-20128514D02*
X9292357Y-20128514D01*
X9378071Y-20128514D02*
X9378071Y-19828514D01*
X9349500Y-19871372D01*
X9320928Y-19899943D01*
X9292357Y-19914229D01*
X9578071Y-19857086D02*
X9592357Y-19842800D01*
X9620928Y-19828514D01*
X9692357Y-19828514D01*
X9720928Y-19842800D01*
X9735214Y-19857086D01*
X9749500Y-19885657D01*
X9749500Y-19914229D01*
X9735214Y-19957086D01*
X9563786Y-20128514D01*
X9749500Y-20128514D01*
X10106643Y-20128514D02*
X10106643Y-19828514D01*
X10235214Y-20128514D02*
X10235214Y-19971372D01*
X10220928Y-19942800D01*
X10192357Y-19928514D01*
X10149500Y-19928514D01*
X10120928Y-19942800D01*
X10106643Y-19957086D01*
X10420928Y-20128514D02*
X10392357Y-20114229D01*
X10378071Y-20099943D01*
X10363786Y-20071372D01*
X10363786Y-19985657D01*
X10378071Y-19957086D01*
X10392357Y-19942800D01*
X10420928Y-19928514D01*
X10463786Y-19928514D01*
X10492357Y-19942800D01*
X10506643Y-19957086D01*
X10520928Y-19985657D01*
X10520928Y-20071372D01*
X10506643Y-20099943D01*
X10492357Y-20114229D01*
X10463786Y-20128514D01*
X10420928Y-20128514D01*
X10692357Y-20128514D02*
X10663786Y-20114229D01*
X10649500Y-20085657D01*
X10649500Y-19828514D01*
X10920928Y-20114229D02*
X10892357Y-20128514D01*
X10835214Y-20128514D01*
X10806643Y-20114229D01*
X10792357Y-20085657D01*
X10792357Y-19971372D01*
X10806643Y-19942800D01*
X10835214Y-19928514D01*
X10892357Y-19928514D01*
X10920928Y-19942800D01*
X10935214Y-19971372D01*
X10935214Y-19999943D01*
X10792357Y-20028514D01*
X11049500Y-20114229D02*
X11078071Y-20128514D01*
X11135214Y-20128514D01*
X11163786Y-20114229D01*
X11178071Y-20085657D01*
X11178071Y-20071372D01*
X11163786Y-20042800D01*
X11135214Y-20028514D01*
X11092357Y-20028514D01*
X11063786Y-20014229D01*
X11049500Y-19985657D01*
X11049500Y-19971372D01*
X11063786Y-19942800D01*
X11092357Y-19928514D01*
X11135214Y-19928514D01*
X11163786Y-19942800D01*
X11278071Y-20242800D02*
X11292357Y-20228514D01*
X11320928Y-20185657D01*
X11335214Y-20157086D01*
X11349500Y-20114229D01*
X11363786Y-20042800D01*
X11363786Y-19985657D01*
X11349500Y-19914229D01*
X11335214Y-19871372D01*
X11320928Y-19842800D01*
X11292357Y-19799943D01*
X11278071Y-19785657D01*
X3883700Y-20338000D02*
X3883700Y-20439600D01*
X3832900Y-20388800D02*
X3934500Y-20388800D01*
X3934500Y-20388800D02*
G75*
G03*
X3934500Y-20388800I-50800J0D01*
G01*
X4378071Y-20524514D02*
X4206643Y-20524514D01*
X4292357Y-20524514D02*
X4292357Y-20224514D01*
X4263786Y-20267372D01*
X4235214Y-20295943D01*
X4206643Y-20310229D01*
X4506643Y-20495943D02*
X4520928Y-20510229D01*
X4506643Y-20524514D01*
X4492357Y-20510229D01*
X4506643Y-20495943D01*
X4506643Y-20524514D01*
X4706643Y-20224514D02*
X4735214Y-20224514D01*
X4763786Y-20238800D01*
X4778071Y-20253086D01*
X4792357Y-20281657D01*
X4806643Y-20338800D01*
X4806643Y-20410229D01*
X4792357Y-20467372D01*
X4778071Y-20495943D01*
X4763786Y-20510229D01*
X4735214Y-20524514D01*
X4706643Y-20524514D01*
X4678071Y-20510229D01*
X4663786Y-20495943D01*
X4649500Y-20467372D01*
X4635214Y-20410229D01*
X4635214Y-20338800D01*
X4649500Y-20281657D01*
X4663786Y-20253086D01*
X4678071Y-20238800D01*
X4706643Y-20224514D01*
X5092357Y-20524514D02*
X4920928Y-20524514D01*
X5006643Y-20524514D02*
X5006643Y-20224514D01*
X4978071Y-20267372D01*
X4949500Y-20295943D01*
X4920928Y-20310229D01*
X5349500Y-20224514D02*
X5292357Y-20224514D01*
X5263786Y-20238800D01*
X5249500Y-20253086D01*
X5220928Y-20295943D01*
X5206643Y-20353086D01*
X5206643Y-20467372D01*
X5220928Y-20495943D01*
X5235214Y-20510229D01*
X5263786Y-20524514D01*
X5320928Y-20524514D01*
X5349500Y-20510229D01*
X5363786Y-20495943D01*
X5378071Y-20467372D01*
X5378071Y-20395943D01*
X5363786Y-20367372D01*
X5349500Y-20353086D01*
X5320928Y-20338800D01*
X5263786Y-20338800D01*
X5235214Y-20353086D01*
X5220928Y-20367372D01*
X5206643Y-20395943D01*
X5506643Y-20524514D02*
X5506643Y-20324514D01*
X5506643Y-20353086D02*
X5520928Y-20338800D01*
X5549500Y-20324514D01*
X5592357Y-20324514D01*
X5620928Y-20338800D01*
X5635214Y-20367372D01*
X5635214Y-20524514D01*
X5635214Y-20367372D02*
X5649500Y-20338800D01*
X5678071Y-20324514D01*
X5720928Y-20324514D01*
X5749500Y-20338800D01*
X5763786Y-20367372D01*
X5763786Y-20524514D01*
X5906643Y-20524514D02*
X5906643Y-20324514D01*
X5906643Y-20353086D02*
X5920928Y-20338800D01*
X5949500Y-20324514D01*
X5992357Y-20324514D01*
X6020928Y-20338800D01*
X6035214Y-20367372D01*
X6035214Y-20524514D01*
X6035214Y-20367372D02*
X6049500Y-20338800D01*
X6078071Y-20324514D01*
X6120928Y-20324514D01*
X6149500Y-20338800D01*
X6163786Y-20367372D01*
X6163786Y-20524514D01*
X6749500Y-20210229D02*
X6492357Y-20595943D01*
X7135214Y-20224514D02*
X7163786Y-20224514D01*
X7192357Y-20238800D01*
X7206643Y-20253086D01*
X7220928Y-20281657D01*
X7235214Y-20338800D01*
X7235214Y-20410229D01*
X7220928Y-20467372D01*
X7206643Y-20495943D01*
X7192357Y-20510229D01*
X7163786Y-20524514D01*
X7135214Y-20524514D01*
X7106643Y-20510229D01*
X7092357Y-20495943D01*
X7078071Y-20467372D01*
X7063786Y-20410229D01*
X7063786Y-20338800D01*
X7078071Y-20281657D01*
X7092357Y-20253086D01*
X7106643Y-20238800D01*
X7135214Y-20224514D01*
X7363786Y-20495943D02*
X7378071Y-20510229D01*
X7363786Y-20524514D01*
X7349500Y-20510229D01*
X7363786Y-20495943D01*
X7363786Y-20524514D01*
X7563786Y-20224514D02*
X7592357Y-20224514D01*
X7620928Y-20238800D01*
X7635214Y-20253086D01*
X7649500Y-20281657D01*
X7663786Y-20338800D01*
X7663786Y-20410229D01*
X7649500Y-20467372D01*
X7635214Y-20495943D01*
X7620928Y-20510229D01*
X7592357Y-20524514D01*
X7563786Y-20524514D01*
X7535214Y-20510229D01*
X7520928Y-20495943D01*
X7506643Y-20467372D01*
X7492357Y-20410229D01*
X7492357Y-20338800D01*
X7506643Y-20281657D01*
X7520928Y-20253086D01*
X7535214Y-20238800D01*
X7563786Y-20224514D01*
X7920928Y-20324514D02*
X7920928Y-20524514D01*
X7849500Y-20210229D02*
X7778071Y-20424514D01*
X7963786Y-20424514D01*
X8135214Y-20224514D02*
X8163786Y-20224514D01*
X8192357Y-20238800D01*
X8206643Y-20253086D01*
X8220928Y-20281657D01*
X8235214Y-20338800D01*
X8235214Y-20410229D01*
X8220928Y-20467372D01*
X8206643Y-20495943D01*
X8192357Y-20510229D01*
X8163786Y-20524514D01*
X8135214Y-20524514D01*
X8106643Y-20510229D01*
X8092357Y-20495943D01*
X8078071Y-20467372D01*
X8063786Y-20410229D01*
X8063786Y-20338800D01*
X8078071Y-20281657D01*
X8092357Y-20253086D01*
X8106643Y-20238800D01*
X8135214Y-20224514D01*
X8420928Y-20224514D02*
X8449500Y-20224514D01*
X8478071Y-20238800D01*
X8492357Y-20253086D01*
X8506643Y-20281657D01*
X8520928Y-20338800D01*
X8520928Y-20410229D01*
X8506643Y-20467372D01*
X8492357Y-20495943D01*
X8478071Y-20510229D01*
X8449500Y-20524514D01*
X8420928Y-20524514D01*
X8392357Y-20510229D01*
X8378071Y-20495943D01*
X8363786Y-20467372D01*
X8349500Y-20410229D01*
X8349500Y-20338800D01*
X8363786Y-20281657D01*
X8378071Y-20253086D01*
X8392357Y-20238800D01*
X8420928Y-20224514D01*
X8635214Y-20224514D02*
X8635214Y-20281657D01*
X8749500Y-20224514D02*
X8749500Y-20281657D01*
X9192357Y-20638800D02*
X9178071Y-20624514D01*
X9149500Y-20581657D01*
X9135214Y-20553086D01*
X9120928Y-20510229D01*
X9106643Y-20438800D01*
X9106643Y-20381657D01*
X9120928Y-20310229D01*
X9135214Y-20267372D01*
X9149500Y-20238800D01*
X9178071Y-20195943D01*
X9192357Y-20181657D01*
X9278071Y-20224514D02*
X9478071Y-20224514D01*
X9349500Y-20524514D01*
X9720928Y-20224514D02*
X9663786Y-20224514D01*
X9635214Y-20238800D01*
X9620928Y-20253086D01*
X9592357Y-20295943D01*
X9578071Y-20353086D01*
X9578071Y-20467372D01*
X9592357Y-20495943D01*
X9606643Y-20510229D01*
X9635214Y-20524514D01*
X9692357Y-20524514D01*
X9720928Y-20510229D01*
X9735214Y-20495943D01*
X9749500Y-20467372D01*
X9749500Y-20395943D01*
X9735214Y-20367372D01*
X9720928Y-20353086D01*
X9692357Y-20338800D01*
X9635214Y-20338800D01*
X9606643Y-20353086D01*
X9592357Y-20367372D01*
X9578071Y-20395943D01*
X10106643Y-20524514D02*
X10106643Y-20224514D01*
X10235214Y-20524514D02*
X10235214Y-20367372D01*
X10220928Y-20338800D01*
X10192357Y-20324514D01*
X10149500Y-20324514D01*
X10120928Y-20338800D01*
X10106643Y-20353086D01*
X10420928Y-20524514D02*
X10392357Y-20510229D01*
X10378071Y-20495943D01*
X10363786Y-20467372D01*
X10363786Y-20381657D01*
X10378071Y-20353086D01*
X10392357Y-20338800D01*
X10420928Y-20324514D01*
X10463786Y-20324514D01*
X10492357Y-20338800D01*
X10506643Y-20353086D01*
X10520928Y-20381657D01*
X10520928Y-20467372D01*
X10506643Y-20495943D01*
X10492357Y-20510229D01*
X10463786Y-20524514D01*
X10420928Y-20524514D01*
X10692357Y-20524514D02*
X10663786Y-20510229D01*
X10649500Y-20481657D01*
X10649500Y-20224514D01*
X10920928Y-20510229D02*
X10892357Y-20524514D01*
X10835214Y-20524514D01*
X10806643Y-20510229D01*
X10792357Y-20481657D01*
X10792357Y-20367372D01*
X10806643Y-20338800D01*
X10835214Y-20324514D01*
X10892357Y-20324514D01*
X10920928Y-20338800D01*
X10935214Y-20367372D01*
X10935214Y-20395943D01*
X10792357Y-20424514D01*
X11049500Y-20510229D02*
X11078071Y-20524514D01*
X11135214Y-20524514D01*
X11163786Y-20510229D01*
X11178071Y-20481657D01*
X11178071Y-20467372D01*
X11163786Y-20438800D01*
X11135214Y-20424514D01*
X11092357Y-20424514D01*
X11063786Y-20410229D01*
X11049500Y-20381657D01*
X11049500Y-20367372D01*
X11063786Y-20338800D01*
X11092357Y-20324514D01*
X11135214Y-20324514D01*
X11163786Y-20338800D01*
X11278071Y-20638800D02*
X11292357Y-20624514D01*
X11320928Y-20581657D01*
X11335214Y-20553086D01*
X11349500Y-20510229D01*
X11363786Y-20438800D01*
X11363786Y-20381657D01*
X11349500Y-20310229D01*
X11335214Y-20267372D01*
X11320928Y-20238800D01*
X11292357Y-20195943D01*
X11278071Y-20181657D01*
X3916927Y-20827227D02*
X3916927Y-20742373D01*
X3832073Y-20742373D01*
X3832073Y-20827227D01*
X3916927Y-20827227D01*
X3934500Y-20784800D02*
G75*
G03*
X3934500Y-20784800I-60000J0D01*
G01*
X4378071Y-20920514D02*
X4206643Y-20920514D01*
X4292357Y-20920514D02*
X4292357Y-20620514D01*
X4263786Y-20663372D01*
X4235214Y-20691943D01*
X4206643Y-20706229D01*
X4506643Y-20891943D02*
X4520928Y-20906229D01*
X4506643Y-20920514D01*
X4492357Y-20906229D01*
X4506643Y-20891943D01*
X4506643Y-20920514D01*
X4635214Y-20649086D02*
X4649500Y-20634800D01*
X4678071Y-20620514D01*
X4749500Y-20620514D01*
X4778071Y-20634800D01*
X4792357Y-20649086D01*
X4806643Y-20677657D01*
X4806643Y-20706229D01*
X4792357Y-20749086D01*
X4620928Y-20920514D01*
X4806643Y-20920514D01*
X4992357Y-20620514D02*
X5020928Y-20620514D01*
X5049500Y-20634800D01*
X5063786Y-20649086D01*
X5078071Y-20677657D01*
X5092357Y-20734800D01*
X5092357Y-20806229D01*
X5078071Y-20863372D01*
X5063786Y-20891943D01*
X5049500Y-20906229D01*
X5020928Y-20920514D01*
X4992357Y-20920514D01*
X4963786Y-20906229D01*
X4949500Y-20891943D01*
X4935214Y-20863372D01*
X4920928Y-20806229D01*
X4920928Y-20734800D01*
X4935214Y-20677657D01*
X4949500Y-20649086D01*
X4963786Y-20634800D01*
X4992357Y-20620514D01*
X5278071Y-20620514D02*
X5306643Y-20620514D01*
X5335214Y-20634800D01*
X5349500Y-20649086D01*
X5363786Y-20677657D01*
X5378071Y-20734800D01*
X5378071Y-20806229D01*
X5363786Y-20863372D01*
X5349500Y-20891943D01*
X5335214Y-20906229D01*
X5306643Y-20920514D01*
X5278071Y-20920514D01*
X5249500Y-20906229D01*
X5235214Y-20891943D01*
X5220928Y-20863372D01*
X5206643Y-20806229D01*
X5206643Y-20734800D01*
X5220928Y-20677657D01*
X5235214Y-20649086D01*
X5249500Y-20634800D01*
X5278071Y-20620514D01*
X5506643Y-20920514D02*
X5506643Y-20720514D01*
X5506643Y-20749086D02*
X5520928Y-20734800D01*
X5549500Y-20720514D01*
X5592357Y-20720514D01*
X5620928Y-20734800D01*
X5635214Y-20763372D01*
X5635214Y-20920514D01*
X5635214Y-20763372D02*
X5649500Y-20734800D01*
X5678071Y-20720514D01*
X5720928Y-20720514D01*
X5749500Y-20734800D01*
X5763786Y-20763372D01*
X5763786Y-20920514D01*
X5906643Y-20920514D02*
X5906643Y-20720514D01*
X5906643Y-20749086D02*
X5920928Y-20734800D01*
X5949500Y-20720514D01*
X5992357Y-20720514D01*
X6020928Y-20734800D01*
X6035214Y-20763372D01*
X6035214Y-20920514D01*
X6035214Y-20763372D02*
X6049500Y-20734800D01*
X6078071Y-20720514D01*
X6120928Y-20720514D01*
X6149500Y-20734800D01*
X6163786Y-20763372D01*
X6163786Y-20920514D01*
X6749500Y-20606229D02*
X6492357Y-20991943D01*
X7135214Y-20620514D02*
X7163786Y-20620514D01*
X7192357Y-20634800D01*
X7206643Y-20649086D01*
X7220928Y-20677657D01*
X7235214Y-20734800D01*
X7235214Y-20806229D01*
X7220928Y-20863372D01*
X7206643Y-20891943D01*
X7192357Y-20906229D01*
X7163786Y-20920514D01*
X7135214Y-20920514D01*
X7106643Y-20906229D01*
X7092357Y-20891943D01*
X7078071Y-20863372D01*
X7063786Y-20806229D01*
X7063786Y-20734800D01*
X7078071Y-20677657D01*
X7092357Y-20649086D01*
X7106643Y-20634800D01*
X7135214Y-20620514D01*
X7363786Y-20891943D02*
X7378071Y-20906229D01*
X7363786Y-20920514D01*
X7349500Y-20906229D01*
X7363786Y-20891943D01*
X7363786Y-20920514D01*
X7563786Y-20620514D02*
X7592357Y-20620514D01*
X7620928Y-20634800D01*
X7635214Y-20649086D01*
X7649500Y-20677657D01*
X7663786Y-20734800D01*
X7663786Y-20806229D01*
X7649500Y-20863372D01*
X7635214Y-20891943D01*
X7620928Y-20906229D01*
X7592357Y-20920514D01*
X7563786Y-20920514D01*
X7535214Y-20906229D01*
X7520928Y-20891943D01*
X7506643Y-20863372D01*
X7492357Y-20806229D01*
X7492357Y-20734800D01*
X7506643Y-20677657D01*
X7520928Y-20649086D01*
X7535214Y-20634800D01*
X7563786Y-20620514D01*
X7920928Y-20720514D02*
X7920928Y-20920514D01*
X7849500Y-20606229D02*
X7778071Y-20820514D01*
X7963786Y-20820514D01*
X8049500Y-20620514D02*
X8249500Y-20620514D01*
X8120928Y-20920514D01*
X8349500Y-20649086D02*
X8363786Y-20634800D01*
X8392357Y-20620514D01*
X8463786Y-20620514D01*
X8492357Y-20634800D01*
X8506643Y-20649086D01*
X8520928Y-20677657D01*
X8520928Y-20706229D01*
X8506643Y-20749086D01*
X8335214Y-20920514D01*
X8520928Y-20920514D01*
X8635214Y-20620514D02*
X8635214Y-20677657D01*
X8749500Y-20620514D02*
X8749500Y-20677657D01*
X9192357Y-21034800D02*
X9178071Y-21020514D01*
X9149500Y-20977657D01*
X9135214Y-20949086D01*
X9120928Y-20906229D01*
X9106643Y-20834800D01*
X9106643Y-20777657D01*
X9120928Y-20706229D01*
X9135214Y-20663372D01*
X9149500Y-20634800D01*
X9178071Y-20591943D01*
X9192357Y-20577657D01*
X9449500Y-20620514D02*
X9306643Y-20620514D01*
X9292357Y-20763372D01*
X9306643Y-20749086D01*
X9335214Y-20734800D01*
X9406643Y-20734800D01*
X9435214Y-20749086D01*
X9449500Y-20763372D01*
X9463786Y-20791943D01*
X9463786Y-20863372D01*
X9449500Y-20891943D01*
X9435214Y-20906229D01*
X9406643Y-20920514D01*
X9335214Y-20920514D01*
X9306643Y-20906229D01*
X9292357Y-20891943D01*
X9563786Y-20620514D02*
X9749500Y-20620514D01*
X9649500Y-20734800D01*
X9692357Y-20734800D01*
X9720928Y-20749086D01*
X9735214Y-20763372D01*
X9749500Y-20791943D01*
X9749500Y-20863372D01*
X9735214Y-20891943D01*
X9720928Y-20906229D01*
X9692357Y-20920514D01*
X9606643Y-20920514D01*
X9578071Y-20906229D01*
X9563786Y-20891943D01*
X10106643Y-20920514D02*
X10106643Y-20620514D01*
X10235214Y-20920514D02*
X10235214Y-20763372D01*
X10220928Y-20734800D01*
X10192357Y-20720514D01*
X10149500Y-20720514D01*
X10120928Y-20734800D01*
X10106643Y-20749086D01*
X10420928Y-20920514D02*
X10392357Y-20906229D01*
X10378071Y-20891943D01*
X10363786Y-20863372D01*
X10363786Y-20777657D01*
X10378071Y-20749086D01*
X10392357Y-20734800D01*
X10420928Y-20720514D01*
X10463786Y-20720514D01*
X10492357Y-20734800D01*
X10506643Y-20749086D01*
X10520928Y-20777657D01*
X10520928Y-20863372D01*
X10506643Y-20891943D01*
X10492357Y-20906229D01*
X10463786Y-20920514D01*
X10420928Y-20920514D01*
X10692357Y-20920514D02*
X10663786Y-20906229D01*
X10649500Y-20877657D01*
X10649500Y-20620514D01*
X10920928Y-20906229D02*
X10892357Y-20920514D01*
X10835214Y-20920514D01*
X10806643Y-20906229D01*
X10792357Y-20877657D01*
X10792357Y-20763372D01*
X10806643Y-20734800D01*
X10835214Y-20720514D01*
X10892357Y-20720514D01*
X10920928Y-20734800D01*
X10935214Y-20763372D01*
X10935214Y-20791943D01*
X10792357Y-20820514D01*
X11049500Y-20906229D02*
X11078071Y-20920514D01*
X11135214Y-20920514D01*
X11163786Y-20906229D01*
X11178071Y-20877657D01*
X11178071Y-20863372D01*
X11163786Y-20834800D01*
X11135214Y-20820514D01*
X11092357Y-20820514D01*
X11063786Y-20806229D01*
X11049500Y-20777657D01*
X11049500Y-20763372D01*
X11063786Y-20734800D01*
X11092357Y-20720514D01*
X11135214Y-20720514D01*
X11163786Y-20734800D01*
X11278071Y-21034800D02*
X11292357Y-21020514D01*
X11320928Y-20977657D01*
X11335214Y-20949086D01*
X11349500Y-20906229D01*
X11363786Y-20834800D01*
X11363786Y-20777657D01*
X11349500Y-20706229D01*
X11335214Y-20663372D01*
X11320928Y-20634800D01*
X11292357Y-20591943D01*
X11278071Y-20577657D01*
X3818000Y-21297300D02*
X3934500Y-21180800D01*
X3818000Y-21064300D01*
X3701500Y-21180800D01*
X3818000Y-21297300D01*
X3934500Y-21180800D02*
G75*
G03*
X3934500Y-21180800I-116500J0D01*
G01*
X4206643Y-21045086D02*
X4220928Y-21030800D01*
X4249500Y-21016514D01*
X4320928Y-21016514D01*
X4349500Y-21030800D01*
X4363786Y-21045086D01*
X4378071Y-21073657D01*
X4378071Y-21102229D01*
X4363786Y-21145086D01*
X4192357Y-21316514D01*
X4378071Y-21316514D01*
X4506643Y-21287943D02*
X4520928Y-21302229D01*
X4506643Y-21316514D01*
X4492357Y-21302229D01*
X4506643Y-21287943D01*
X4506643Y-21316514D01*
X4620928Y-21016514D02*
X4806643Y-21016514D01*
X4706643Y-21130800D01*
X4749500Y-21130800D01*
X4778071Y-21145086D01*
X4792357Y-21159372D01*
X4806643Y-21187943D01*
X4806643Y-21259372D01*
X4792357Y-21287943D01*
X4778071Y-21302229D01*
X4749500Y-21316514D01*
X4663786Y-21316514D01*
X4635214Y-21302229D01*
X4620928Y-21287943D01*
X4906643Y-21016514D02*
X5092357Y-21016514D01*
X4992357Y-21130800D01*
X5035214Y-21130800D01*
X5063786Y-21145086D01*
X5078071Y-21159372D01*
X5092357Y-21187943D01*
X5092357Y-21259372D01*
X5078071Y-21287943D01*
X5063786Y-21302229D01*
X5035214Y-21316514D01*
X4949500Y-21316514D01*
X4920928Y-21302229D01*
X4906643Y-21287943D01*
X5278071Y-21016514D02*
X5306643Y-21016514D01*
X5335214Y-21030800D01*
X5349500Y-21045086D01*
X5363786Y-21073657D01*
X5378071Y-21130800D01*
X5378071Y-21202229D01*
X5363786Y-21259372D01*
X5349500Y-21287943D01*
X5335214Y-21302229D01*
X5306643Y-21316514D01*
X5278071Y-21316514D01*
X5249500Y-21302229D01*
X5235214Y-21287943D01*
X5220928Y-21259372D01*
X5206643Y-21202229D01*
X5206643Y-21130800D01*
X5220928Y-21073657D01*
X5235214Y-21045086D01*
X5249500Y-21030800D01*
X5278071Y-21016514D01*
X5506643Y-21316514D02*
X5506643Y-21116514D01*
X5506643Y-21145086D02*
X5520928Y-21130800D01*
X5549500Y-21116514D01*
X5592357Y-21116514D01*
X5620928Y-21130800D01*
X5635214Y-21159372D01*
X5635214Y-21316514D01*
X5635214Y-21159372D02*
X5649500Y-21130800D01*
X5678071Y-21116514D01*
X5720928Y-21116514D01*
X5749500Y-21130800D01*
X5763786Y-21159372D01*
X5763786Y-21316514D01*
X5906643Y-21316514D02*
X5906643Y-21116514D01*
X5906643Y-21145086D02*
X5920928Y-21130800D01*
X5949500Y-21116514D01*
X5992357Y-21116514D01*
X6020928Y-21130800D01*
X6035214Y-21159372D01*
X6035214Y-21316514D01*
X6035214Y-21159372D02*
X6049500Y-21130800D01*
X6078071Y-21116514D01*
X6120928Y-21116514D01*
X6149500Y-21130800D01*
X6163786Y-21159372D01*
X6163786Y-21316514D01*
X6749500Y-21002229D02*
X6492357Y-21387943D01*
X7135214Y-21016514D02*
X7163786Y-21016514D01*
X7192357Y-21030800D01*
X7206643Y-21045086D01*
X7220928Y-21073657D01*
X7235214Y-21130800D01*
X7235214Y-21202229D01*
X7220928Y-21259372D01*
X7206643Y-21287943D01*
X7192357Y-21302229D01*
X7163786Y-21316514D01*
X7135214Y-21316514D01*
X7106643Y-21302229D01*
X7092357Y-21287943D01*
X7078071Y-21259372D01*
X7063786Y-21202229D01*
X7063786Y-21130800D01*
X7078071Y-21073657D01*
X7092357Y-21045086D01*
X7106643Y-21030800D01*
X7135214Y-21016514D01*
X7363786Y-21287943D02*
X7378071Y-21302229D01*
X7363786Y-21316514D01*
X7349500Y-21302229D01*
X7363786Y-21287943D01*
X7363786Y-21316514D01*
X7563786Y-21016514D02*
X7592357Y-21016514D01*
X7620928Y-21030800D01*
X7635214Y-21045086D01*
X7649500Y-21073657D01*
X7663786Y-21130800D01*
X7663786Y-21202229D01*
X7649500Y-21259372D01*
X7635214Y-21287943D01*
X7620928Y-21302229D01*
X7592357Y-21316514D01*
X7563786Y-21316514D01*
X7535214Y-21302229D01*
X7520928Y-21287943D01*
X7506643Y-21259372D01*
X7492357Y-21202229D01*
X7492357Y-21130800D01*
X7506643Y-21073657D01*
X7520928Y-21045086D01*
X7535214Y-21030800D01*
X7563786Y-21016514D01*
X7806643Y-21316514D02*
X7863786Y-21316514D01*
X7892357Y-21302229D01*
X7906643Y-21287943D01*
X7935214Y-21245086D01*
X7949500Y-21187943D01*
X7949500Y-21073657D01*
X7935214Y-21045086D01*
X7920928Y-21030800D01*
X7892357Y-21016514D01*
X7835214Y-21016514D01*
X7806643Y-21030800D01*
X7792357Y-21045086D01*
X7778071Y-21073657D01*
X7778071Y-21145086D01*
X7792357Y-21173657D01*
X7806643Y-21187943D01*
X7835214Y-21202229D01*
X7892357Y-21202229D01*
X7920928Y-21187943D01*
X7935214Y-21173657D01*
X7949500Y-21145086D01*
X8235214Y-21316514D02*
X8063786Y-21316514D01*
X8149500Y-21316514D02*
X8149500Y-21016514D01*
X8120928Y-21059372D01*
X8092357Y-21087943D01*
X8063786Y-21102229D01*
X8335214Y-21016514D02*
X8535214Y-21016514D01*
X8406643Y-21316514D01*
X8635214Y-21016514D02*
X8635214Y-21073657D01*
X8749500Y-21016514D02*
X8749500Y-21073657D01*
X9192357Y-21430800D02*
X9178071Y-21416514D01*
X9149500Y-21373657D01*
X9135214Y-21345086D01*
X9120928Y-21302229D01*
X9106643Y-21230800D01*
X9106643Y-21173657D01*
X9120928Y-21102229D01*
X9135214Y-21059372D01*
X9149500Y-21030800D01*
X9178071Y-20987943D01*
X9192357Y-20973657D01*
X9435214Y-21116514D02*
X9435214Y-21316514D01*
X9363786Y-21002229D02*
X9292357Y-21216514D01*
X9478071Y-21216514D01*
X9820928Y-21316514D02*
X9820928Y-21016514D01*
X9949500Y-21316514D02*
X9949500Y-21159372D01*
X9935214Y-21130800D01*
X9906643Y-21116514D01*
X9863786Y-21116514D01*
X9835214Y-21130800D01*
X9820928Y-21145086D01*
X10135214Y-21316514D02*
X10106643Y-21302229D01*
X10092357Y-21287943D01*
X10078071Y-21259372D01*
X10078071Y-21173657D01*
X10092357Y-21145086D01*
X10106643Y-21130800D01*
X10135214Y-21116514D01*
X10178071Y-21116514D01*
X10206643Y-21130800D01*
X10220928Y-21145086D01*
X10235214Y-21173657D01*
X10235214Y-21259372D01*
X10220928Y-21287943D01*
X10206643Y-21302229D01*
X10178071Y-21316514D01*
X10135214Y-21316514D01*
X10406643Y-21316514D02*
X10378071Y-21302229D01*
X10363786Y-21273657D01*
X10363786Y-21016514D01*
X10635214Y-21302229D02*
X10606643Y-21316514D01*
X10549500Y-21316514D01*
X10520928Y-21302229D01*
X10506643Y-21273657D01*
X10506643Y-21159372D01*
X10520928Y-21130800D01*
X10549500Y-21116514D01*
X10606643Y-21116514D01*
X10635214Y-21130800D01*
X10649500Y-21159372D01*
X10649500Y-21187943D01*
X10506643Y-21216514D01*
X10763786Y-21302229D02*
X10792357Y-21316514D01*
X10849500Y-21316514D01*
X10878071Y-21302229D01*
X10892357Y-21273657D01*
X10892357Y-21259372D01*
X10878071Y-21230800D01*
X10849500Y-21216514D01*
X10806643Y-21216514D01*
X10778071Y-21202229D01*
X10763786Y-21173657D01*
X10763786Y-21159372D01*
X10778071Y-21130800D01*
X10806643Y-21116514D01*
X10849500Y-21116514D01*
X10878071Y-21130800D01*
X10992357Y-21430800D02*
X11006643Y-21416514D01*
X11035214Y-21373657D01*
X11049500Y-21345086D01*
X11063786Y-21302229D01*
X11078071Y-21230800D01*
X11078071Y-21173657D01*
X11063786Y-21102229D01*
X11049500Y-21059372D01*
X11035214Y-21030800D01*
X11006643Y-20987943D01*
X10992357Y-20973657D01*
X3774500Y-21416800D02*
X3774500Y-21736800D01*
X3614500Y-21576800D02*
X3934500Y-21576800D01*
X3887638Y-21689938D02*
X3887638Y-21463662D01*
X3661362Y-21463662D01*
X3661362Y-21689938D01*
X3887638Y-21689938D01*
X4192357Y-21412514D02*
X4378071Y-21412514D01*
X4278071Y-21526800D01*
X4320928Y-21526800D01*
X4349500Y-21541086D01*
X4363786Y-21555372D01*
X4378071Y-21583943D01*
X4378071Y-21655372D01*
X4363786Y-21683943D01*
X4349500Y-21698229D01*
X4320928Y-21712514D01*
X4235214Y-21712514D01*
X4206643Y-21698229D01*
X4192357Y-21683943D01*
X4506643Y-21683943D02*
X4520928Y-21698229D01*
X4506643Y-21712514D01*
X4492357Y-21698229D01*
X4506643Y-21683943D01*
X4506643Y-21712514D01*
X4635214Y-21441086D02*
X4649500Y-21426800D01*
X4678071Y-21412514D01*
X4749500Y-21412514D01*
X4778071Y-21426800D01*
X4792357Y-21441086D01*
X4806643Y-21469657D01*
X4806643Y-21498229D01*
X4792357Y-21541086D01*
X4620928Y-21712514D01*
X4806643Y-21712514D01*
X4992357Y-21412514D02*
X5020928Y-21412514D01*
X5049500Y-21426800D01*
X5063786Y-21441086D01*
X5078071Y-21469657D01*
X5092357Y-21526800D01*
X5092357Y-21598229D01*
X5078071Y-21655372D01*
X5063786Y-21683943D01*
X5049500Y-21698229D01*
X5020928Y-21712514D01*
X4992357Y-21712514D01*
X4963786Y-21698229D01*
X4949500Y-21683943D01*
X4935214Y-21655372D01*
X4920928Y-21598229D01*
X4920928Y-21526800D01*
X4935214Y-21469657D01*
X4949500Y-21441086D01*
X4963786Y-21426800D01*
X4992357Y-21412514D01*
X5278071Y-21412514D02*
X5306643Y-21412514D01*
X5335214Y-21426800D01*
X5349500Y-21441086D01*
X5363786Y-21469657D01*
X5378071Y-21526800D01*
X5378071Y-21598229D01*
X5363786Y-21655372D01*
X5349500Y-21683943D01*
X5335214Y-21698229D01*
X5306643Y-21712514D01*
X5278071Y-21712514D01*
X5249500Y-21698229D01*
X5235214Y-21683943D01*
X5220928Y-21655372D01*
X5206643Y-21598229D01*
X5206643Y-21526800D01*
X5220928Y-21469657D01*
X5235214Y-21441086D01*
X5249500Y-21426800D01*
X5278071Y-21412514D01*
X5506643Y-21712514D02*
X5506643Y-21512514D01*
X5506643Y-21541086D02*
X5520928Y-21526800D01*
X5549500Y-21512514D01*
X5592357Y-21512514D01*
X5620928Y-21526800D01*
X5635214Y-21555372D01*
X5635214Y-21712514D01*
X5635214Y-21555372D02*
X5649500Y-21526800D01*
X5678071Y-21512514D01*
X5720928Y-21512514D01*
X5749500Y-21526800D01*
X5763786Y-21555372D01*
X5763786Y-21712514D01*
X5906643Y-21712514D02*
X5906643Y-21512514D01*
X5906643Y-21541086D02*
X5920928Y-21526800D01*
X5949500Y-21512514D01*
X5992357Y-21512514D01*
X6020928Y-21526800D01*
X6035214Y-21555372D01*
X6035214Y-21712514D01*
X6035214Y-21555372D02*
X6049500Y-21526800D01*
X6078071Y-21512514D01*
X6120928Y-21512514D01*
X6149500Y-21526800D01*
X6163786Y-21555372D01*
X6163786Y-21712514D01*
X6749500Y-21398229D02*
X6492357Y-21783943D01*
X7135214Y-21412514D02*
X7163786Y-21412514D01*
X7192357Y-21426800D01*
X7206643Y-21441086D01*
X7220928Y-21469657D01*
X7235214Y-21526800D01*
X7235214Y-21598229D01*
X7220928Y-21655372D01*
X7206643Y-21683943D01*
X7192357Y-21698229D01*
X7163786Y-21712514D01*
X7135214Y-21712514D01*
X7106643Y-21698229D01*
X7092357Y-21683943D01*
X7078071Y-21655372D01*
X7063786Y-21598229D01*
X7063786Y-21526800D01*
X7078071Y-21469657D01*
X7092357Y-21441086D01*
X7106643Y-21426800D01*
X7135214Y-21412514D01*
X7363786Y-21683943D02*
X7378071Y-21698229D01*
X7363786Y-21712514D01*
X7349500Y-21698229D01*
X7363786Y-21683943D01*
X7363786Y-21712514D01*
X7663786Y-21712514D02*
X7492357Y-21712514D01*
X7578071Y-21712514D02*
X7578071Y-21412514D01*
X7549500Y-21455372D01*
X7520928Y-21483943D01*
X7492357Y-21498229D01*
X7778071Y-21441086D02*
X7792357Y-21426800D01*
X7820928Y-21412514D01*
X7892357Y-21412514D01*
X7920928Y-21426800D01*
X7935214Y-21441086D01*
X7949500Y-21469657D01*
X7949500Y-21498229D01*
X7935214Y-21541086D01*
X7763786Y-21712514D01*
X7949500Y-21712514D01*
X8206643Y-21412514D02*
X8149500Y-21412514D01*
X8120928Y-21426800D01*
X8106643Y-21441086D01*
X8078071Y-21483943D01*
X8063786Y-21541086D01*
X8063786Y-21655372D01*
X8078071Y-21683943D01*
X8092357Y-21698229D01*
X8120928Y-21712514D01*
X8178071Y-21712514D01*
X8206643Y-21698229D01*
X8220928Y-21683943D01*
X8235214Y-21655372D01*
X8235214Y-21583943D01*
X8220928Y-21555372D01*
X8206643Y-21541086D01*
X8178071Y-21526800D01*
X8120928Y-21526800D01*
X8092357Y-21541086D01*
X8078071Y-21555372D01*
X8063786Y-21583943D01*
X8420928Y-21412514D02*
X8449500Y-21412514D01*
X8478071Y-21426800D01*
X8492357Y-21441086D01*
X8506643Y-21469657D01*
X8520928Y-21526800D01*
X8520928Y-21598229D01*
X8506643Y-21655372D01*
X8492357Y-21683943D01*
X8478071Y-21698229D01*
X8449500Y-21712514D01*
X8420928Y-21712514D01*
X8392357Y-21698229D01*
X8378071Y-21683943D01*
X8363786Y-21655372D01*
X8349500Y-21598229D01*
X8349500Y-21526800D01*
X8363786Y-21469657D01*
X8378071Y-21441086D01*
X8392357Y-21426800D01*
X8420928Y-21412514D01*
X8635214Y-21412514D02*
X8635214Y-21469657D01*
X8749500Y-21412514D02*
X8749500Y-21469657D01*
X9192357Y-21826800D02*
X9178071Y-21812514D01*
X9149500Y-21769657D01*
X9135214Y-21741086D01*
X9120928Y-21698229D01*
X9106643Y-21626800D01*
X9106643Y-21569657D01*
X9120928Y-21498229D01*
X9135214Y-21455372D01*
X9149500Y-21426800D01*
X9178071Y-21383943D01*
X9192357Y-21369657D01*
X9435214Y-21512514D02*
X9435214Y-21712514D01*
X9363786Y-21398229D02*
X9292357Y-21612514D01*
X9478071Y-21612514D01*
X9820928Y-21712514D02*
X9820928Y-21412514D01*
X9949500Y-21712514D02*
X9949500Y-21555372D01*
X9935214Y-21526800D01*
X9906643Y-21512514D01*
X9863786Y-21512514D01*
X9835214Y-21526800D01*
X9820928Y-21541086D01*
X10135214Y-21712514D02*
X10106643Y-21698229D01*
X10092357Y-21683943D01*
X10078071Y-21655372D01*
X10078071Y-21569657D01*
X10092357Y-21541086D01*
X10106643Y-21526800D01*
X10135214Y-21512514D01*
X10178071Y-21512514D01*
X10206643Y-21526800D01*
X10220928Y-21541086D01*
X10235214Y-21569657D01*
X10235214Y-21655372D01*
X10220928Y-21683943D01*
X10206643Y-21698229D01*
X10178071Y-21712514D01*
X10135214Y-21712514D01*
X10406643Y-21712514D02*
X10378071Y-21698229D01*
X10363786Y-21669657D01*
X10363786Y-21412514D01*
X10635214Y-21698229D02*
X10606643Y-21712514D01*
X10549500Y-21712514D01*
X10520928Y-21698229D01*
X10506643Y-21669657D01*
X10506643Y-21555372D01*
X10520928Y-21526800D01*
X10549500Y-21512514D01*
X10606643Y-21512514D01*
X10635214Y-21526800D01*
X10649500Y-21555372D01*
X10649500Y-21583943D01*
X10506643Y-21612514D01*
X10763786Y-21698229D02*
X10792357Y-21712514D01*
X10849500Y-21712514D01*
X10878071Y-21698229D01*
X10892357Y-21669657D01*
X10892357Y-21655372D01*
X10878071Y-21626800D01*
X10849500Y-21612514D01*
X10806643Y-21612514D01*
X10778071Y-21598229D01*
X10763786Y-21569657D01*
X10763786Y-21555372D01*
X10778071Y-21526800D01*
X10806643Y-21512514D01*
X10849500Y-21512514D01*
X10878071Y-21526800D01*
X10992357Y-21826800D02*
X11006643Y-21812514D01*
X11035214Y-21769657D01*
X11049500Y-21741086D01*
X11063786Y-21698229D01*
X11078071Y-21626800D01*
X11078071Y-21569657D01*
X11063786Y-21498229D01*
X11049500Y-21455372D01*
X11035214Y-21426800D01*
X11006643Y-21383943D01*
X10992357Y-21369657D01*
X3684500Y-21776800D02*
X3684500Y-22276800D01*
X3434500Y-22026800D02*
X3934500Y-22026800D01*
X3684500Y-22276800D02*
X3934500Y-22026800D01*
X3684500Y-21776800D01*
X3434500Y-22026800D01*
X3684500Y-22276800D01*
X4363786Y-21862514D02*
X4220928Y-21862514D01*
X4206643Y-22005372D01*
X4220928Y-21991086D01*
X4249500Y-21976800D01*
X4320928Y-21976800D01*
X4349500Y-21991086D01*
X4363786Y-22005372D01*
X4378071Y-22033943D01*
X4378071Y-22105372D01*
X4363786Y-22133943D01*
X4349500Y-22148229D01*
X4320928Y-22162514D01*
X4249500Y-22162514D01*
X4220928Y-22148229D01*
X4206643Y-22133943D01*
X4506643Y-22133943D02*
X4520928Y-22148229D01*
X4506643Y-22162514D01*
X4492357Y-22148229D01*
X4506643Y-22133943D01*
X4506643Y-22162514D01*
X4706643Y-21862514D02*
X4735214Y-21862514D01*
X4763786Y-21876800D01*
X4778071Y-21891086D01*
X4792357Y-21919657D01*
X4806643Y-21976800D01*
X4806643Y-22048229D01*
X4792357Y-22105372D01*
X4778071Y-22133943D01*
X4763786Y-22148229D01*
X4735214Y-22162514D01*
X4706643Y-22162514D01*
X4678071Y-22148229D01*
X4663786Y-22133943D01*
X4649500Y-22105372D01*
X4635214Y-22048229D01*
X4635214Y-21976800D01*
X4649500Y-21919657D01*
X4663786Y-21891086D01*
X4678071Y-21876800D01*
X4706643Y-21862514D01*
X4992357Y-21862514D02*
X5020928Y-21862514D01*
X5049500Y-21876800D01*
X5063786Y-21891086D01*
X5078071Y-21919657D01*
X5092357Y-21976800D01*
X5092357Y-22048229D01*
X5078071Y-22105372D01*
X5063786Y-22133943D01*
X5049500Y-22148229D01*
X5020928Y-22162514D01*
X4992357Y-22162514D01*
X4963786Y-22148229D01*
X4949500Y-22133943D01*
X4935214Y-22105372D01*
X4920928Y-22048229D01*
X4920928Y-21976800D01*
X4935214Y-21919657D01*
X4949500Y-21891086D01*
X4963786Y-21876800D01*
X4992357Y-21862514D01*
X5278071Y-21862514D02*
X5306643Y-21862514D01*
X5335214Y-21876800D01*
X5349500Y-21891086D01*
X5363786Y-21919657D01*
X5378071Y-21976800D01*
X5378071Y-22048229D01*
X5363786Y-22105372D01*
X5349500Y-22133943D01*
X5335214Y-22148229D01*
X5306643Y-22162514D01*
X5278071Y-22162514D01*
X5249500Y-22148229D01*
X5235214Y-22133943D01*
X5220928Y-22105372D01*
X5206643Y-22048229D01*
X5206643Y-21976800D01*
X5220928Y-21919657D01*
X5235214Y-21891086D01*
X5249500Y-21876800D01*
X5278071Y-21862514D01*
X5506643Y-22162514D02*
X5506643Y-21962514D01*
X5506643Y-21991086D02*
X5520928Y-21976800D01*
X5549500Y-21962514D01*
X5592357Y-21962514D01*
X5620928Y-21976800D01*
X5635214Y-22005372D01*
X5635214Y-22162514D01*
X5635214Y-22005372D02*
X5649500Y-21976800D01*
X5678071Y-21962514D01*
X5720928Y-21962514D01*
X5749500Y-21976800D01*
X5763786Y-22005372D01*
X5763786Y-22162514D01*
X5906643Y-22162514D02*
X5906643Y-21962514D01*
X5906643Y-21991086D02*
X5920928Y-21976800D01*
X5949500Y-21962514D01*
X5992357Y-21962514D01*
X6020928Y-21976800D01*
X6035214Y-22005372D01*
X6035214Y-22162514D01*
X6035214Y-22005372D02*
X6049500Y-21976800D01*
X6078071Y-21962514D01*
X6120928Y-21962514D01*
X6149500Y-21976800D01*
X6163786Y-22005372D01*
X6163786Y-22162514D01*
X6749500Y-21848229D02*
X6492357Y-22233943D01*
X7135214Y-21862514D02*
X7163786Y-21862514D01*
X7192357Y-21876800D01*
X7206643Y-21891086D01*
X7220928Y-21919657D01*
X7235214Y-21976800D01*
X7235214Y-22048229D01*
X7220928Y-22105372D01*
X7206643Y-22133943D01*
X7192357Y-22148229D01*
X7163786Y-22162514D01*
X7135214Y-22162514D01*
X7106643Y-22148229D01*
X7092357Y-22133943D01*
X7078071Y-22105372D01*
X7063786Y-22048229D01*
X7063786Y-21976800D01*
X7078071Y-21919657D01*
X7092357Y-21891086D01*
X7106643Y-21876800D01*
X7135214Y-21862514D01*
X7363786Y-22133943D02*
X7378071Y-22148229D01*
X7363786Y-22162514D01*
X7349500Y-22148229D01*
X7363786Y-22133943D01*
X7363786Y-22162514D01*
X7663786Y-22162514D02*
X7492357Y-22162514D01*
X7578071Y-22162514D02*
X7578071Y-21862514D01*
X7549500Y-21905372D01*
X7520928Y-21933943D01*
X7492357Y-21948229D01*
X7806643Y-22162514D02*
X7863786Y-22162514D01*
X7892357Y-22148229D01*
X7906643Y-22133943D01*
X7935214Y-22091086D01*
X7949500Y-22033943D01*
X7949500Y-21919657D01*
X7935214Y-21891086D01*
X7920928Y-21876800D01*
X7892357Y-21862514D01*
X7835214Y-21862514D01*
X7806643Y-21876800D01*
X7792357Y-21891086D01*
X7778071Y-21919657D01*
X7778071Y-21991086D01*
X7792357Y-22019657D01*
X7806643Y-22033943D01*
X7835214Y-22048229D01*
X7892357Y-22048229D01*
X7920928Y-22033943D01*
X7935214Y-22019657D01*
X7949500Y-21991086D01*
X8206643Y-21862514D02*
X8149500Y-21862514D01*
X8120928Y-21876800D01*
X8106643Y-21891086D01*
X8078071Y-21933943D01*
X8063786Y-21991086D01*
X8063786Y-22105372D01*
X8078071Y-22133943D01*
X8092357Y-22148229D01*
X8120928Y-22162514D01*
X8178071Y-22162514D01*
X8206643Y-22148229D01*
X8220928Y-22133943D01*
X8235214Y-22105372D01*
X8235214Y-22033943D01*
X8220928Y-22005372D01*
X8206643Y-21991086D01*
X8178071Y-21976800D01*
X8120928Y-21976800D01*
X8092357Y-21991086D01*
X8078071Y-22005372D01*
X8063786Y-22033943D01*
X8378071Y-22162514D02*
X8435214Y-22162514D01*
X8463786Y-22148229D01*
X8478071Y-22133943D01*
X8506643Y-22091086D01*
X8520928Y-22033943D01*
X8520928Y-21919657D01*
X8506643Y-21891086D01*
X8492357Y-21876800D01*
X8463786Y-21862514D01*
X8406643Y-21862514D01*
X8378071Y-21876800D01*
X8363786Y-21891086D01*
X8349500Y-21919657D01*
X8349500Y-21991086D01*
X8363786Y-22019657D01*
X8378071Y-22033943D01*
X8406643Y-22048229D01*
X8463786Y-22048229D01*
X8492357Y-22033943D01*
X8506643Y-22019657D01*
X8520928Y-21991086D01*
X8635214Y-21862514D02*
X8635214Y-21919657D01*
X8749500Y-21862514D02*
X8749500Y-21919657D01*
X9192357Y-22276800D02*
X9178071Y-22262514D01*
X9149500Y-22219657D01*
X9135214Y-22191086D01*
X9120928Y-22148229D01*
X9106643Y-22076800D01*
X9106643Y-22019657D01*
X9120928Y-21948229D01*
X9135214Y-21905372D01*
X9149500Y-21876800D01*
X9178071Y-21833943D01*
X9192357Y-21819657D01*
X9435214Y-21862514D02*
X9378071Y-21862514D01*
X9349500Y-21876800D01*
X9335214Y-21891086D01*
X9306643Y-21933943D01*
X9292357Y-21991086D01*
X9292357Y-22105372D01*
X9306643Y-22133943D01*
X9320928Y-22148229D01*
X9349500Y-22162514D01*
X9406643Y-22162514D01*
X9435214Y-22148229D01*
X9449500Y-22133943D01*
X9463786Y-22105372D01*
X9463786Y-22033943D01*
X9449500Y-22005372D01*
X9435214Y-21991086D01*
X9406643Y-21976800D01*
X9349500Y-21976800D01*
X9320928Y-21991086D01*
X9306643Y-22005372D01*
X9292357Y-22033943D01*
X9820928Y-22162514D02*
X9820928Y-21862514D01*
X9949500Y-22162514D02*
X9949500Y-22005372D01*
X9935214Y-21976800D01*
X9906643Y-21962514D01*
X9863786Y-21962514D01*
X9835214Y-21976800D01*
X9820928Y-21991086D01*
X10135214Y-22162514D02*
X10106643Y-22148229D01*
X10092357Y-22133943D01*
X10078071Y-22105372D01*
X10078071Y-22019657D01*
X10092357Y-21991086D01*
X10106643Y-21976800D01*
X10135214Y-21962514D01*
X10178071Y-21962514D01*
X10206643Y-21976800D01*
X10220928Y-21991086D01*
X10235214Y-22019657D01*
X10235214Y-22105372D01*
X10220928Y-22133943D01*
X10206643Y-22148229D01*
X10178071Y-22162514D01*
X10135214Y-22162514D01*
X10406643Y-22162514D02*
X10378071Y-22148229D01*
X10363786Y-22119657D01*
X10363786Y-21862514D01*
X10635214Y-22148229D02*
X10606643Y-22162514D01*
X10549500Y-22162514D01*
X10520928Y-22148229D01*
X10506643Y-22119657D01*
X10506643Y-22005372D01*
X10520928Y-21976800D01*
X10549500Y-21962514D01*
X10606643Y-21962514D01*
X10635214Y-21976800D01*
X10649500Y-22005372D01*
X10649500Y-22033943D01*
X10506643Y-22062514D01*
X10763786Y-22148229D02*
X10792357Y-22162514D01*
X10849500Y-22162514D01*
X10878071Y-22148229D01*
X10892357Y-22119657D01*
X10892357Y-22105372D01*
X10878071Y-22076800D01*
X10849500Y-22062514D01*
X10806643Y-22062514D01*
X10778071Y-22048229D01*
X10763786Y-22019657D01*
X10763786Y-22005372D01*
X10778071Y-21976800D01*
X10806643Y-21962514D01*
X10849500Y-21962514D01*
X10878071Y-21976800D01*
X10992357Y-22276800D02*
X11006643Y-22262514D01*
X11035214Y-22219657D01*
X11049500Y-22191086D01*
X11063786Y-22148229D01*
X11078071Y-22076800D01*
X11078071Y-22019657D01*
X11063786Y-21948229D01*
X11049500Y-21905372D01*
X11035214Y-21876800D01*
X11006643Y-21833943D01*
X10992357Y-21819657D01*
M02*
