M48
; DRILL file {KiCad (5.1.10)-1} date 11/24/21 08:50:32
; FORMAT={-:-/ absolute / metric / decimal}
; #@! TF.CreationDate,2021-11-24T08:50:32+08:00
; #@! TF.GenerationSoftware,Kicad,Pcbnew,(5.1.10)-1
; #@! TF.FileFunction,Plated,1,4,PTH
FMAT,2
METRIC
T1C0.200
T2C0.300
T3C0.400
T4C0.600
T5C0.700
T6C0.710
T7C0.800
T8C0.920
T9C1.000
T10C1.016
T11C1.200
T12C2.330
T13C3.200
T14C5.000
%
G90
G05
T1
X102.218Y-115.001
X102.218Y-116.901
X103.569Y-115.001
X103.569Y-116.901
X104.918Y-115.001
X104.918Y-116.901
X127.129Y-81.581
X127.129Y-82.931
X127.129Y-84.281
X129.029Y-81.581
X129.029Y-82.931
X129.029Y-84.281
T2
X76.772Y-149.288
X83.312Y-141.034
X83.882Y-142.372
X83.944Y-137.224
X85.026Y-147.828
X87.82Y-135.382
X89.218Y-148.209
X89.852Y-79.121
X90.868Y-148.209
X91.059Y-133.477
X94.869Y-140.653
X97.346Y-145.987
X100.745Y-129.506
X101.854Y-139.129
X101.981Y-131.381
X109.918Y-135.509
X110.363Y-74.93
X119.062Y-136.525
X119.57Y-73.279
X131.0Y-105.918
X132.398Y-92.075
X133.413Y-92.329
X135.319Y-104.013
X136.462Y-104.013
X137.858Y-104.14
X138.367Y-92.075
X138.748Y-110.49
X138.874Y-101.219
X139.763Y-127.127
X140.906Y-121.666
X143.954Y-77.724
X146.749Y-82.931
X147.891Y-85.979
X147.917Y-84.455
X148.019Y-87.122
X148.145Y-88.265
X148.205Y-97.155
X148.468Y-90.177
X149.415Y-71.056
X154.383Y-116.092
X154.432Y-117.792
X155.638Y-75.497
X155.638Y-76.297
X156.909Y-92.202
X157.035Y-88.075
X160.338Y-84.074
X161.734Y-116.713
X161.862Y-83.312
X162.115Y-75.438
X162.243Y-129.921
X162.3Y-117.279
X162.496Y-88.265
X162.623Y-86.233
X163.195Y-75.057
X163.258Y-78.74
X163.258Y-135.255
X163.893Y-129.984
X164.919Y-130.175
X166.306Y-139.827
X167.45Y-100.584
X167.681Y-86.207
X167.831Y-90.17
X168.529Y-80.518
X168.846Y-138.049
X168.846Y-153.924
X169.608Y-131.699
X170.053Y-61.607
X170.117Y-64.325
X170.624Y-86.233
X170.815Y-77.025
X170.879Y-111.633
X171.196Y-104.838
X171.641Y-86.233
X171.894Y-152.781
X172.403Y-104.775
X172.656Y-138.049
X172.91Y-129.857
X174.434Y-154.051
X177.228Y-102.933
X177.228Y-154.813
X177.228Y-155.829
X178.244Y-86.106
X178.738Y-119.874
X178.762Y-118.256
X179.006Y-94.615
X179.387Y-116.84
X179.641Y-78.549
X179.641Y-84.201
X179.895Y-94.678
X179.959Y-71.691
X179.959Y-73.215
X180.721Y-94.678
X181.685Y-86.106
X181.685Y-90.5
X183.182Y-132.985
X184.785Y-72.898
X184.998Y-74.585
X185.23Y-79.629
X185.864Y-156.21
X188.023Y-77.837
X190.085Y-80.782
X190.5Y-76.136
X191.452Y-151.765
X191.833Y-76.073
X191.843Y-153.416
X193.05Y-76.073
X193.103Y-153.416
X193.611Y-154.305
X193.675Y-74.422
X194.3Y-80.149
X197.612Y-86.614
X197.724Y-89.063
X197.802Y-87.757
X197.802Y-152.908
X203.898Y-142.403
X206.184Y-151.13
X207.962Y-142.403
T3
X85.788Y-110.744
X96.71Y-110.998
X100.393Y-117.602
X102.806Y-111.848
X104.203Y-111.848
X106.128Y-120.123
X106.874Y-130.136
X110.934Y-134.747
X111.442Y-112.903
X117.665Y-126.746
X145.732Y-130.683
T4
X79.184Y-130.365
X123.126Y-79.502
X123.126Y-82.296
X123.38Y-84.836
X123.381Y-89.347
X132.27Y-81.661
X133.032Y-77.089
X135.064Y-72.644
X135.064Y-79.883
X135.064Y-125.095
X138.493Y-117.729
X138.62Y-119.634
X150.304Y-78.105
X150.685Y-130.556
X154.242Y-78.232
T5
X86.296Y-79.883
X88.328Y-102.743
X90.698Y-102.997
X100.012Y-78.867
X101.198Y-102.997
X102.637Y-101.558
X103.822Y-78.867
X107.886Y-78.867
X192.468Y-63.182
T6
X118.534Y-94.939
X123.634Y-96.139
T7
X74.612Y-148.082
X74.612Y-150.939
X82.233Y-148.082
X82.233Y-150.939
X87.058Y-112.903
X87.058Y-115.443
X87.058Y-117.983
X87.058Y-120.523
X87.058Y-125.095
X87.058Y-127.635
X87.058Y-130.175
X87.058Y-132.715
X94.678Y-112.903
X94.678Y-115.443
X94.678Y-117.983
X94.678Y-120.523
X94.678Y-125.095
X94.678Y-127.635
X94.678Y-130.175
X94.678Y-132.715
X103.822Y-139.192
X103.822Y-146.812
X106.362Y-139.192
X106.362Y-146.812
X108.902Y-139.192
X108.902Y-146.812
X109.41Y-123.063
X111.442Y-139.192
X111.442Y-146.812
X112.91Y-123.063
X116.268Y-139.192
X116.268Y-146.812
X118.808Y-122.809
X118.808Y-139.192
X118.808Y-146.812
X121.349Y-139.192
X121.349Y-146.812
X122.11Y-104.521
X122.308Y-122.809
X123.888Y-139.192
X123.888Y-146.812
X125.031Y-128.016
X125.031Y-135.636
X125.61Y-104.521
X127.572Y-128.016
X127.572Y-135.636
X128.714Y-139.192
X128.714Y-146.812
X130.112Y-128.016
X130.112Y-135.636
X131.255Y-139.192
X131.255Y-146.812
X132.651Y-128.016
X132.651Y-135.636
X133.794Y-139.192
X133.794Y-146.812
X136.334Y-139.192
X136.334Y-146.812
X141.16Y-139.192
X141.16Y-146.812
X141.668Y-101.219
X141.922Y-114.173
X143.701Y-139.192
X143.701Y-146.812
X145.168Y-101.219
X145.422Y-114.173
X146.24Y-139.192
X146.24Y-146.812
X148.78Y-139.192
X148.78Y-146.812
X151.066Y-100.965
X153.606Y-139.192
X153.606Y-146.812
X154.566Y-100.965
X156.147Y-139.192
X156.147Y-146.812
X158.686Y-139.192
X158.686Y-146.812
X161.226Y-139.192
X161.226Y-146.812
X187.325Y-117.983
X187.325Y-120.523
X187.325Y-123.063
X187.325Y-125.603
X187.325Y-130.683
X187.325Y-133.223
X187.325Y-135.763
X187.325Y-138.303
X194.945Y-117.983
X194.945Y-120.523
X194.945Y-123.063
X194.945Y-125.603
X194.945Y-130.683
X194.945Y-133.223
X194.945Y-135.763
X194.945Y-138.303
X200.215Y-118.11
X200.215Y-120.65
X200.215Y-123.19
X200.215Y-125.73
X200.215Y-130.683
X200.215Y-133.223
X200.215Y-135.763
X200.215Y-138.303
X207.835Y-118.11
X207.835Y-120.65
X207.835Y-123.19
X207.835Y-125.73
X207.835Y-130.683
X207.835Y-133.223
X207.835Y-135.763
X207.835Y-138.303
T8
X172.189Y-143.891
X172.189Y-145.891
X174.689Y-143.891
X174.689Y-145.891
X191.492Y-143.891
X191.492Y-145.891
X193.992Y-143.891
X193.992Y-145.891
T9
X188.15Y-96.774
X188.15Y-99.314
X188.15Y-101.854
X188.15Y-106.934
X188.15Y-109.474
X188.15Y-112.014
X190.69Y-96.774
X190.69Y-99.314
X190.69Y-101.854
X190.69Y-106.934
X190.69Y-109.474
X190.69Y-112.014
T10
X82.233Y-56.896
X82.233Y-69.596
X84.772Y-56.896
X84.772Y-69.596
X87.312Y-56.896
X87.312Y-69.596
X89.852Y-56.896
X89.852Y-69.596
X92.392Y-56.896
X92.392Y-69.596
X94.932Y-56.896
X94.932Y-69.596
X97.472Y-56.896
X97.472Y-69.596
X98.361Y-65.786
X100.012Y-56.896
X100.012Y-64.516
X100.012Y-67.056
X100.012Y-69.596
X111.188Y-56.896
X111.188Y-69.596
X113.728Y-56.896
X113.728Y-69.596
X116.268Y-56.896
X116.268Y-69.596
X118.808Y-56.896
X118.808Y-69.596
X121.349Y-56.896
X121.349Y-69.596
X123.888Y-56.896
X123.888Y-69.596
X126.428Y-56.896
X126.428Y-69.596
X127.317Y-65.786
X128.969Y-56.896
X128.969Y-64.516
X128.969Y-67.056
X128.969Y-69.596
X140.398Y-56.896
X140.398Y-69.596
X142.939Y-56.896
X142.939Y-69.596
X145.478Y-56.896
X145.478Y-69.596
X148.018Y-56.896
X148.018Y-69.596
X150.558Y-56.896
X150.558Y-69.596
X153.099Y-56.896
X153.099Y-69.596
X155.638Y-56.896
X155.638Y-69.596
X156.528Y-65.786
X158.178Y-56.896
X158.178Y-64.516
X158.178Y-67.056
X158.178Y-69.596
X169.862Y-56.896
X169.862Y-69.596
X172.403Y-56.896
X172.403Y-69.596
X174.942Y-56.896
X174.942Y-69.596
X177.482Y-56.896
X177.482Y-69.596
X180.022Y-56.896
X180.022Y-69.596
X182.562Y-56.896
X182.562Y-69.596
X185.102Y-56.896
X185.102Y-69.596
X185.992Y-65.786
X187.642Y-56.896
X187.642Y-64.516
X187.642Y-67.056
X187.642Y-69.596
T11
X77.486Y-102.743
X81.597Y-117.221
X81.597Y-121.031
X81.597Y-128.46
X81.597Y-132.27
X81.597Y-139.192
X81.597Y-143.002
X81.978Y-79.883
X81.978Y-83.693
X81.978Y-87.503
X81.978Y-91.313
X82.486Y-102.743
X85.28Y-31.496
X86.55Y-152.273
X89.09Y-31.496
X90.361Y-152.273
X92.9Y-31.496
X96.71Y-31.496
X101.028Y-152.273
X104.838Y-152.273
X108.648Y-152.273
X108.902Y-102.997
X113.902Y-102.997
X114.49Y-31.496
X117.284Y-152.273
X118.3Y-31.496
X121.094Y-152.273
X122.11Y-31.496
X125.92Y-31.496
X129.476Y-152.273
X133.286Y-152.273
X141.668Y-152.273
X143.701Y-31.496
X145.478Y-152.273
X147.511Y-31.496
X149.288Y-152.273
X151.32Y-31.496
X153.099Y-152.273
X155.13Y-31.496
X156.909Y-152.273
X160.719Y-152.273
X172.91Y-31.496
X176.72Y-31.496
X180.53Y-31.496
X184.34Y-31.496
X202.629Y-63.119
X202.629Y-66.929
X202.629Y-70.739
X202.629Y-74.549
X202.629Y-78.359
X202.629Y-82.169
X202.629Y-85.979
X202.629Y-89.789
T12
X167.418Y-148.601
X179.458Y-148.601
X186.722Y-148.601
X198.762Y-148.601
T13
X78.168Y-27.813
X78.168Y-155.829
X206.184Y-27.813
X206.184Y-155.829
T14
X97.176Y-37.781
X97.176Y-89.981
X142.177Y-37.781
X142.177Y-89.981
X187.177Y-37.781
X187.177Y-89.981
T0
M30
