%FSLAX45Y45*%
G04 Gerber Fmt 4.5, Leading zero omitted, Abs format (unit mm)*
G04 Created by KiCad (PCBNEW (5.1.10)-1) date 2021-11-24 08:50:35*
%MOMM*%
%LPD*%
G01*
G04 APERTURE LIST*
%TA.AperFunction,Profile*%
%ADD10C,0.050000*%
%TD*%
%ADD11C,0.200000*%
%ADD12C,0.300000*%
G04 APERTURE END LIST*
D10*
X20618450Y-16103600D02*
X7791450Y-16103600D01*
X7791450Y-16103600D02*
G75*
G02*
X7283450Y-15595600I0J508000D01*
G01*
X7283450Y-2781300D02*
X7283450Y-15595600D01*
X21126450Y-15595600D02*
G75*
G02*
X20618450Y-16103600I-508000J0D01*
G01*
X21126450Y-2781300D02*
X21126450Y-15595600D01*
X7283450Y-2781300D02*
G75*
G02*
X7791450Y-2273300I508000J0D01*
G01*
X20618450Y-2273300D02*
G75*
G02*
X21126450Y-2781300I0J-508000D01*
G01*
X20618450Y-2273300D02*
X7791450Y-2273300D01*
D11*
X10211850Y-11490100D02*
X10231850Y-11510100D01*
X10231850Y-11490100D02*
X10211850Y-11510100D01*
X10211850Y-11680100D02*
X10231850Y-11700100D01*
X10231850Y-11680100D02*
X10211850Y-11700100D01*
X10346850Y-11490100D02*
X10366850Y-11510100D01*
X10366850Y-11490100D02*
X10346850Y-11510100D01*
X10346850Y-11680100D02*
X10366850Y-11700100D01*
X10366850Y-11680100D02*
X10346850Y-11700100D01*
X10481850Y-11490100D02*
X10501850Y-11510100D01*
X10501850Y-11490100D02*
X10481850Y-11510100D01*
X10481850Y-11680100D02*
X10501850Y-11700100D01*
X10501850Y-11680100D02*
X10481850Y-11700100D01*
X12702950Y-8148100D02*
X12722950Y-8168100D01*
X12722950Y-8148100D02*
X12702950Y-8168100D01*
X12702950Y-8283100D02*
X12722950Y-8303100D01*
X12722950Y-8283100D02*
X12702950Y-8303100D01*
X12702950Y-8418100D02*
X12722950Y-8438100D01*
X12722950Y-8418100D02*
X12702950Y-8438100D01*
X12892950Y-8148100D02*
X12912950Y-8168100D01*
X12912950Y-8148100D02*
X12892950Y-8168100D01*
X12892950Y-8283100D02*
X12912950Y-8303100D01*
X12912950Y-8283100D02*
X12892950Y-8303100D01*
X12892950Y-8418100D02*
X12912950Y-8438100D01*
X12912950Y-8418100D02*
X12892950Y-8438100D01*
X7692150Y-14928850D02*
G75*
G03*
X7692150Y-14928850I-15000J0D01*
G01*
X8346200Y-14103350D02*
G75*
G03*
X8346200Y-14103350I-15000J0D01*
G01*
X8403195Y-14237152D02*
G75*
G03*
X8403195Y-14237152I-15000J0D01*
G01*
X8409450Y-13722350D02*
G75*
G03*
X8409450Y-13722350I-15000J0D01*
G01*
X8517650Y-14782800D02*
G75*
G03*
X8517650Y-14782800I-15000J0D01*
G01*
X8797050Y-13538200D02*
G75*
G03*
X8797050Y-13538200I-15000J0D01*
G01*
X8936750Y-14820900D02*
G75*
G03*
X8936750Y-14820900I-15000J0D01*
G01*
X9000250Y-7912100D02*
G75*
G03*
X9000250Y-7912100I-15000J0D01*
G01*
X9101850Y-14820900D02*
G75*
G03*
X9101850Y-14820900I-15000J0D01*
G01*
X9120900Y-13347700D02*
G75*
G03*
X9120900Y-13347700I-15000J0D01*
G01*
X9501900Y-14065250D02*
G75*
G03*
X9501900Y-14065250I-15000J0D01*
G01*
X9749550Y-14598650D02*
G75*
G03*
X9749550Y-14598650I-15000J0D01*
G01*
X10089531Y-12950569D02*
G75*
G03*
X10089531Y-12950569I-15000J0D01*
G01*
X10200400Y-13912850D02*
G75*
G03*
X10200400Y-13912850I-15000J0D01*
G01*
X10213100Y-13138150D02*
G75*
G03*
X10213100Y-13138150I-15000J0D01*
G01*
X11006850Y-13550900D02*
G75*
G03*
X11006850Y-13550900I-15000J0D01*
G01*
X11051300Y-7493000D02*
G75*
G03*
X11051300Y-7493000I-15000J0D01*
G01*
X11921250Y-13652500D02*
G75*
G03*
X11921250Y-13652500I-15000J0D01*
G01*
X11972050Y-7327900D02*
G75*
G03*
X11972050Y-7327900I-15000J0D01*
G01*
X13115050Y-10591800D02*
G75*
G03*
X13115050Y-10591800I-15000J0D01*
G01*
X13254750Y-9207500D02*
G75*
G03*
X13254750Y-9207500I-15000J0D01*
G01*
X13356350Y-9232900D02*
G75*
G03*
X13356350Y-9232900I-15000J0D01*
G01*
X13546850Y-10401300D02*
G75*
G03*
X13546850Y-10401300I-15000J0D01*
G01*
X13661150Y-10401300D02*
G75*
G03*
X13661150Y-10401300I-15000J0D01*
G01*
X13800850Y-10414000D02*
G75*
G03*
X13800850Y-10414000I-15000J0D01*
G01*
X13851650Y-9207500D02*
G75*
G03*
X13851650Y-9207500I-15000J0D01*
G01*
X13889750Y-11049000D02*
G75*
G03*
X13889750Y-11049000I-15000J0D01*
G01*
X13902450Y-10121900D02*
G75*
G03*
X13902450Y-10121900I-15000J0D01*
G01*
X13991350Y-12712700D02*
G75*
G03*
X13991350Y-12712700I-15000J0D01*
G01*
X14105650Y-12166600D02*
G75*
G03*
X14105650Y-12166600I-15000J0D01*
G01*
X14410450Y-7772400D02*
G75*
G03*
X14410450Y-7772400I-15000J0D01*
G01*
X14689850Y-8293100D02*
G75*
G03*
X14689850Y-8293100I-15000J0D01*
G01*
X14804150Y-8597900D02*
G75*
G03*
X14804150Y-8597900I-15000J0D01*
G01*
X14806748Y-8445500D02*
G75*
G03*
X14806748Y-8445500I-15000J0D01*
G01*
X14816850Y-8712200D02*
G75*
G03*
X14816850Y-8712200I-15000J0D01*
G01*
X14829550Y-8826500D02*
G75*
G03*
X14829550Y-8826500I-15000J0D01*
G01*
X14835452Y-9715500D02*
G75*
G03*
X14835452Y-9715500I-15000J0D01*
G01*
X14861756Y-9017705D02*
G75*
G03*
X14861756Y-9017705I-15000J0D01*
G01*
X14956550Y-7105650D02*
G75*
G03*
X14956550Y-7105650I-15000J0D01*
G01*
X15453251Y-11609200D02*
G75*
G03*
X15453251Y-11609200I-15000J0D01*
G01*
X15458200Y-11779250D02*
G75*
G03*
X15458200Y-11779250I-15000J0D01*
G01*
X15578850Y-7549701D02*
G75*
G03*
X15578850Y-7549701I-15000J0D01*
G01*
X15578850Y-7629701D02*
G75*
G03*
X15578850Y-7629701I-15000J0D01*
G01*
X15705851Y-9220200D02*
G75*
G03*
X15705851Y-9220200I-15000J0D01*
G01*
X15718550Y-8807450D02*
G75*
G03*
X15718550Y-8807450I-15000J0D01*
G01*
X16048750Y-8407400D02*
G75*
G03*
X16048750Y-8407400I-15000J0D01*
G01*
X16188450Y-11671300D02*
G75*
G03*
X16188450Y-11671300I-15000J0D01*
G01*
X16201150Y-8331200D02*
G75*
G03*
X16201150Y-8331200I-15000J0D01*
G01*
X16226550Y-7543800D02*
G75*
G03*
X16226550Y-7543800I-15000J0D01*
G01*
X16239250Y-12992100D02*
G75*
G03*
X16239250Y-12992100I-15000J0D01*
G01*
X16245019Y-11727869D02*
G75*
G03*
X16245019Y-11727869I-15000J0D01*
G01*
X16264650Y-8826500D02*
G75*
G03*
X16264650Y-8826500I-15000J0D01*
G01*
X16277350Y-8623300D02*
G75*
G03*
X16277350Y-8623300I-15000J0D01*
G01*
X16334500Y-7505700D02*
G75*
G03*
X16334500Y-7505700I-15000J0D01*
G01*
X16340850Y-7874000D02*
G75*
G03*
X16340850Y-7874000I-15000J0D01*
G01*
X16340850Y-13525500D02*
G75*
G03*
X16340850Y-13525500I-15000J0D01*
G01*
X16404350Y-12998450D02*
G75*
G03*
X16404350Y-12998450I-15000J0D01*
G01*
X16506950Y-13017500D02*
G75*
G03*
X16506950Y-13017500I-15000J0D01*
G01*
X16645650Y-13982700D02*
G75*
G03*
X16645650Y-13982700I-15000J0D01*
G01*
X16759950Y-10058400D02*
G75*
G03*
X16759950Y-10058400I-15000J0D01*
G01*
X16783120Y-8620667D02*
G75*
G03*
X16783120Y-8620667I-15000J0D01*
G01*
X16798050Y-9017000D02*
G75*
G03*
X16798050Y-9017000I-15000J0D01*
G01*
X16867900Y-8051800D02*
G75*
G03*
X16867900Y-8051800I-15000J0D01*
G01*
X16899650Y-13804900D02*
G75*
G03*
X16899650Y-13804900I-15000J0D01*
G01*
X16899650Y-15392400D02*
G75*
G03*
X16899650Y-15392400I-15000J0D01*
G01*
X16975850Y-13169900D02*
G75*
G03*
X16975850Y-13169900I-15000J0D01*
G01*
X17020300Y-6160700D02*
G75*
G03*
X17020300Y-6160700I-15000J0D01*
G01*
X17026650Y-6432550D02*
G75*
G03*
X17026650Y-6432550I-15000J0D01*
G01*
X17077450Y-8623300D02*
G75*
G03*
X17077450Y-8623300I-15000J0D01*
G01*
X17096500Y-7702550D02*
G75*
G03*
X17096500Y-7702550I-15000J0D01*
G01*
X17102850Y-11163300D02*
G75*
G03*
X17102850Y-11163300I-15000J0D01*
G01*
X17134600Y-10483850D02*
G75*
G03*
X17134600Y-10483850I-15000J0D01*
G01*
X17179050Y-8623300D02*
G75*
G03*
X17179050Y-8623300I-15000J0D01*
G01*
X17204450Y-15278100D02*
G75*
G03*
X17204450Y-15278100I-15000J0D01*
G01*
X17255250Y-10477500D02*
G75*
G03*
X17255250Y-10477500I-15000J0D01*
G01*
X17280650Y-13804900D02*
G75*
G03*
X17280650Y-13804900I-15000J0D01*
G01*
X17306050Y-12985750D02*
G75*
G03*
X17306050Y-12985750I-15000J0D01*
G01*
X17458450Y-15405100D02*
G75*
G03*
X17458450Y-15405100I-15000J0D01*
G01*
X17737850Y-10293350D02*
G75*
G03*
X17737850Y-10293350I-15000J0D01*
G01*
X17737850Y-15481300D02*
G75*
G03*
X17737850Y-15481300I-15000J0D01*
G01*
X17737850Y-15582900D02*
G75*
G03*
X17737850Y-15582900I-15000J0D01*
G01*
X17839450Y-8610600D02*
G75*
G03*
X17839450Y-8610600I-15000J0D01*
G01*
X17888850Y-11987400D02*
G75*
G03*
X17888850Y-11987400I-15000J0D01*
G01*
X17891249Y-11825591D02*
G75*
G03*
X17891249Y-11825591I-15000J0D01*
G01*
X17915650Y-9461500D02*
G75*
G03*
X17915650Y-9461500I-15000J0D01*
G01*
X17953750Y-11684000D02*
G75*
G03*
X17953750Y-11684000I-15000J0D01*
G01*
X17979150Y-7854950D02*
G75*
G03*
X17979150Y-7854950I-15000J0D01*
G01*
X17979150Y-8420100D02*
G75*
G03*
X17979150Y-8420100I-15000J0D01*
G01*
X18004550Y-9467850D02*
G75*
G03*
X18004550Y-9467850I-15000J0D01*
G01*
X18010900Y-7169150D02*
G75*
G03*
X18010900Y-7169150I-15000J0D01*
G01*
X18010900Y-7321550D02*
G75*
G03*
X18010900Y-7321550I-15000J0D01*
G01*
X18087100Y-9467850D02*
G75*
G03*
X18087100Y-9467850I-15000J0D01*
G01*
X18183549Y-8610600D02*
G75*
G03*
X18183549Y-8610600I-15000J0D01*
G01*
X18183550Y-9050000D02*
G75*
G03*
X18183550Y-9050000I-15000J0D01*
G01*
X18333180Y-13298470D02*
G75*
G03*
X18333180Y-13298470I-15000J0D01*
G01*
X18493500Y-7289800D02*
G75*
G03*
X18493500Y-7289800I-15000J0D01*
G01*
X18514788Y-7458471D02*
G75*
G03*
X18514788Y-7458471I-15000J0D01*
G01*
X18537950Y-7962900D02*
G75*
G03*
X18537950Y-7962900I-15000J0D01*
G01*
X18601450Y-15621000D02*
G75*
G03*
X18601450Y-15621000I-15000J0D01*
G01*
X18817350Y-7783651D02*
G75*
G03*
X18817350Y-7783651I-15000J0D01*
G01*
X19023470Y-8078199D02*
G75*
G03*
X19023470Y-8078199I-15000J0D01*
G01*
X19065000Y-7613650D02*
G75*
G03*
X19065000Y-7613650I-15000J0D01*
G01*
X19160250Y-15176500D02*
G75*
G03*
X19160250Y-15176500I-15000J0D01*
G01*
X19198350Y-7607300D02*
G75*
G03*
X19198350Y-7607300I-15000J0D01*
G01*
X19199350Y-15341600D02*
G75*
G03*
X19199350Y-15341600I-15000J0D01*
G01*
X19320000Y-7607300D02*
G75*
G03*
X19320000Y-7607300I-15000J0D01*
G01*
X19325350Y-15341600D02*
G75*
G03*
X19325350Y-15341600I-15000J0D01*
G01*
X19376150Y-15430500D02*
G75*
G03*
X19376150Y-15430500I-15000J0D01*
G01*
X19382500Y-7442200D02*
G75*
G03*
X19382500Y-7442200I-15000J0D01*
G01*
X19445001Y-8014932D02*
G75*
G03*
X19445001Y-8014932I-15000J0D01*
G01*
X19776200Y-8661400D02*
G75*
G03*
X19776200Y-8661400I-15000J0D01*
G01*
X19787350Y-8906301D02*
G75*
G03*
X19787350Y-8906301I-15000J0D01*
G01*
X19795250Y-8775700D02*
G75*
G03*
X19795250Y-8775700I-15000J0D01*
G01*
X19795250Y-15290800D02*
G75*
G03*
X19795250Y-15290800I-15000J0D01*
G01*
X20404850Y-14240350D02*
G75*
G03*
X20404850Y-14240350I-15000J0D01*
G01*
X20633450Y-15113000D02*
G75*
G03*
X20633450Y-15113000I-15000J0D01*
G01*
X20811250Y-14240350D02*
G75*
G03*
X20811250Y-14240350I-15000J0D01*
G01*
X8578850Y-11054400D02*
X8578850Y-11094400D01*
X8558850Y-11074400D02*
X8598850Y-11074400D01*
X9671050Y-11079800D02*
X9671050Y-11119800D01*
X9651050Y-11099800D02*
X9691050Y-11099800D01*
X10039350Y-11740200D02*
X10039350Y-11780200D01*
X10019350Y-11760200D02*
X10059350Y-11760200D01*
X10280650Y-11164800D02*
X10280650Y-11204800D01*
X10260650Y-11184800D02*
X10300650Y-11184800D01*
X10420350Y-11164800D02*
X10420350Y-11204800D01*
X10400350Y-11184800D02*
X10440350Y-11184800D01*
X10612754Y-11992296D02*
X10612754Y-12032296D01*
X10592754Y-12012296D02*
X10632754Y-12012296D01*
X10687416Y-12993600D02*
X10687416Y-13033600D01*
X10667416Y-13013600D02*
X10707416Y-13013600D01*
X11093450Y-13454700D02*
X11093450Y-13494700D01*
X11073450Y-13474700D02*
X11113450Y-13474700D01*
X11144250Y-11270300D02*
X11144250Y-11310300D01*
X11124250Y-11290300D02*
X11164250Y-11290300D01*
X11766550Y-12654600D02*
X11766550Y-12694600D01*
X11746550Y-12674600D02*
X11786550Y-12674600D01*
X14573250Y-13048300D02*
X14573250Y-13088300D01*
X14553250Y-13068300D02*
X14593250Y-13068300D01*
X7939663Y-13057763D02*
X7939663Y-13015337D01*
X7897237Y-13015337D01*
X7897237Y-13057763D01*
X7939663Y-13057763D01*
X12333863Y-7971413D02*
X12333863Y-7928987D01*
X12291437Y-7928987D01*
X12291437Y-7971413D01*
X12333863Y-7971413D01*
X12333863Y-8250813D02*
X12333863Y-8208387D01*
X12291437Y-8208387D01*
X12291437Y-8250813D01*
X12333863Y-8250813D01*
X12359263Y-8504813D02*
X12359263Y-8462387D01*
X12316837Y-8462387D01*
X12316837Y-8504813D01*
X12359263Y-8504813D01*
X12359264Y-8955914D02*
X12359264Y-8913488D01*
X12316837Y-8913488D01*
X12316837Y-8955914D01*
X12359264Y-8955914D01*
X13248263Y-8187313D02*
X13248263Y-8144887D01*
X13205837Y-8144887D01*
X13205837Y-8187313D01*
X13248263Y-8187313D01*
X13324463Y-7730113D02*
X13324463Y-7687687D01*
X13282037Y-7687687D01*
X13282037Y-7730113D01*
X13324463Y-7730113D01*
X13527663Y-7285613D02*
X13527663Y-7243187D01*
X13485237Y-7243187D01*
X13485237Y-7285613D01*
X13527663Y-7285613D01*
X13527663Y-8009513D02*
X13527663Y-7967087D01*
X13485237Y-7967087D01*
X13485237Y-8009513D01*
X13527663Y-8009513D01*
X13527663Y-12530713D02*
X13527663Y-12488287D01*
X13485237Y-12488287D01*
X13485237Y-12530713D01*
X13527663Y-12530713D01*
X13870563Y-11794113D02*
X13870563Y-11751687D01*
X13828137Y-11751687D01*
X13828137Y-11794113D01*
X13870563Y-11794113D01*
X13883263Y-11984613D02*
X13883263Y-11942187D01*
X13840837Y-11942187D01*
X13840837Y-11984613D01*
X13883263Y-11984613D01*
X15051663Y-7831713D02*
X15051663Y-7789287D01*
X15009237Y-7789287D01*
X15009237Y-7831713D01*
X15051663Y-7831713D01*
X15089763Y-13076813D02*
X15089763Y-13034387D01*
X15047337Y-13034387D01*
X15047337Y-13076813D01*
X15089763Y-13076813D01*
X15445363Y-7844413D02*
X15445363Y-7801987D01*
X15402937Y-7801987D01*
X15402937Y-7844413D01*
X15445363Y-7844413D01*
X8629650Y-8023300D02*
X8664650Y-7988300D01*
X8629650Y-7953300D01*
X8594650Y-7988300D01*
X8629650Y-8023300D01*
X8832850Y-10309300D02*
X8867850Y-10274300D01*
X8832850Y-10239300D01*
X8797850Y-10274300D01*
X8832850Y-10309300D01*
X9069850Y-10334700D02*
X9104850Y-10299700D01*
X9069850Y-10264700D01*
X9034850Y-10299700D01*
X9069850Y-10334700D01*
X10001250Y-7921700D02*
X10036250Y-7886700D01*
X10001250Y-7851700D01*
X9966250Y-7886700D01*
X10001250Y-7921700D01*
X10119850Y-10334700D02*
X10154850Y-10299700D01*
X10119850Y-10264700D01*
X10084850Y-10299700D01*
X10119850Y-10334700D01*
X10263750Y-10190800D02*
X10298750Y-10155800D01*
X10263750Y-10120800D01*
X10228750Y-10155800D01*
X10263750Y-10190800D01*
X10382250Y-7921700D02*
X10417250Y-7886700D01*
X10382250Y-7851700D01*
X10347250Y-7886700D01*
X10382250Y-7921700D01*
X10788650Y-7921700D02*
X10823650Y-7886700D01*
X10788650Y-7851700D01*
X10753650Y-7886700D01*
X10788650Y-7921700D01*
X19246850Y-6353250D02*
X19281850Y-6318250D01*
X19246850Y-6283250D01*
X19211850Y-6318250D01*
X19246850Y-6353250D01*
X11817950Y-9458400D02*
X11888950Y-9529400D01*
X11888950Y-9458400D02*
X11817950Y-9529400D01*
X11888950Y-9493900D02*
G75*
G03*
X11888950Y-9493900I-35500J0D01*
G01*
X12327950Y-9578400D02*
X12398950Y-9649400D01*
X12398950Y-9578400D02*
X12327950Y-9649400D01*
X12398950Y-9613900D02*
G75*
G03*
X12398950Y-9613900I-35500J0D01*
G01*
X7421250Y-14768200D02*
X7501250Y-14848200D01*
X7501250Y-14768200D02*
X7421250Y-14848200D01*
X7461250Y-14768200D02*
X7461250Y-14848200D01*
X7421250Y-14808200D02*
X7501250Y-14808200D01*
X7421250Y-15053950D02*
X7501250Y-15133950D01*
X7501250Y-15053950D02*
X7421250Y-15133950D01*
X7461250Y-15053950D02*
X7461250Y-15133950D01*
X7421250Y-15093950D02*
X7501250Y-15093950D01*
X8183250Y-14768200D02*
X8263250Y-14848200D01*
X8263250Y-14768200D02*
X8183250Y-14848200D01*
X8223250Y-14768200D02*
X8223250Y-14848200D01*
X8183250Y-14808200D02*
X8263250Y-14808200D01*
X8183250Y-15053950D02*
X8263250Y-15133950D01*
X8263250Y-15053950D02*
X8183250Y-15133950D01*
X8223250Y-15053950D02*
X8223250Y-15133950D01*
X8183250Y-15093950D02*
X8263250Y-15093950D01*
X8665850Y-11250300D02*
X8745850Y-11330300D01*
X8745850Y-11250300D02*
X8665850Y-11330300D01*
X8705850Y-11250300D02*
X8705850Y-11330300D01*
X8665850Y-11290300D02*
X8745850Y-11290300D01*
X8665850Y-11504300D02*
X8745850Y-11584300D01*
X8745850Y-11504300D02*
X8665850Y-11584300D01*
X8705850Y-11504300D02*
X8705850Y-11584300D01*
X8665850Y-11544300D02*
X8745850Y-11544300D01*
X8665850Y-11758300D02*
X8745850Y-11838300D01*
X8745850Y-11758300D02*
X8665850Y-11838300D01*
X8705850Y-11758300D02*
X8705850Y-11838300D01*
X8665850Y-11798300D02*
X8745850Y-11798300D01*
X8665850Y-12012300D02*
X8745850Y-12092300D01*
X8745850Y-12012300D02*
X8665850Y-12092300D01*
X8705850Y-12012300D02*
X8705850Y-12092300D01*
X8665850Y-12052300D02*
X8745850Y-12052300D01*
X8665850Y-12469500D02*
X8745850Y-12549500D01*
X8745850Y-12469500D02*
X8665850Y-12549500D01*
X8705850Y-12469500D02*
X8705850Y-12549500D01*
X8665850Y-12509500D02*
X8745850Y-12509500D01*
X8665850Y-12723500D02*
X8745850Y-12803500D01*
X8745850Y-12723500D02*
X8665850Y-12803500D01*
X8705850Y-12723500D02*
X8705850Y-12803500D01*
X8665850Y-12763500D02*
X8745850Y-12763500D01*
X8665850Y-12977500D02*
X8745850Y-13057500D01*
X8745850Y-12977500D02*
X8665850Y-13057500D01*
X8705850Y-12977500D02*
X8705850Y-13057500D01*
X8665850Y-13017500D02*
X8745850Y-13017500D01*
X8665850Y-13231500D02*
X8745850Y-13311500D01*
X8745850Y-13231500D02*
X8665850Y-13311500D01*
X8705850Y-13231500D02*
X8705850Y-13311500D01*
X8665850Y-13271500D02*
X8745850Y-13271500D01*
X9427850Y-11250300D02*
X9507850Y-11330300D01*
X9507850Y-11250300D02*
X9427850Y-11330300D01*
X9467850Y-11250300D02*
X9467850Y-11330300D01*
X9427850Y-11290300D02*
X9507850Y-11290300D01*
X9427850Y-11504300D02*
X9507850Y-11584300D01*
X9507850Y-11504300D02*
X9427850Y-11584300D01*
X9467850Y-11504300D02*
X9467850Y-11584300D01*
X9427850Y-11544300D02*
X9507850Y-11544300D01*
X9427850Y-11758300D02*
X9507850Y-11838300D01*
X9507850Y-11758300D02*
X9427850Y-11838300D01*
X9467850Y-11758300D02*
X9467850Y-11838300D01*
X9427850Y-11798300D02*
X9507850Y-11798300D01*
X9427850Y-12012300D02*
X9507850Y-12092300D01*
X9507850Y-12012300D02*
X9427850Y-12092300D01*
X9467850Y-12012300D02*
X9467850Y-12092300D01*
X9427850Y-12052300D02*
X9507850Y-12052300D01*
X9427850Y-12469500D02*
X9507850Y-12549500D01*
X9507850Y-12469500D02*
X9427850Y-12549500D01*
X9467850Y-12469500D02*
X9467850Y-12549500D01*
X9427850Y-12509500D02*
X9507850Y-12509500D01*
X9427850Y-12723500D02*
X9507850Y-12803500D01*
X9507850Y-12723500D02*
X9427850Y-12803500D01*
X9467850Y-12723500D02*
X9467850Y-12803500D01*
X9427850Y-12763500D02*
X9507850Y-12763500D01*
X9427850Y-12977500D02*
X9507850Y-13057500D01*
X9507850Y-12977500D02*
X9427850Y-13057500D01*
X9467850Y-12977500D02*
X9467850Y-13057500D01*
X9427850Y-13017500D02*
X9507850Y-13017500D01*
X9427850Y-13231500D02*
X9507850Y-13311500D01*
X9507850Y-13231500D02*
X9427850Y-13311500D01*
X9467850Y-13231500D02*
X9467850Y-13311500D01*
X9427850Y-13271500D02*
X9507850Y-13271500D01*
X10342250Y-13879200D02*
X10422250Y-13959200D01*
X10422250Y-13879200D02*
X10342250Y-13959200D01*
X10382250Y-13879200D02*
X10382250Y-13959200D01*
X10342250Y-13919200D02*
X10422250Y-13919200D01*
X10342250Y-14641200D02*
X10422250Y-14721200D01*
X10422250Y-14641200D02*
X10342250Y-14721200D01*
X10382250Y-14641200D02*
X10382250Y-14721200D01*
X10342250Y-14681200D02*
X10422250Y-14681200D01*
X10596250Y-13879200D02*
X10676250Y-13959200D01*
X10676250Y-13879200D02*
X10596250Y-13959200D01*
X10636250Y-13879200D02*
X10636250Y-13959200D01*
X10596250Y-13919200D02*
X10676250Y-13919200D01*
X10596250Y-14641200D02*
X10676250Y-14721200D01*
X10676250Y-14641200D02*
X10596250Y-14721200D01*
X10636250Y-14641200D02*
X10636250Y-14721200D01*
X10596250Y-14681200D02*
X10676250Y-14681200D01*
X10850250Y-13879200D02*
X10930250Y-13959200D01*
X10930250Y-13879200D02*
X10850250Y-13959200D01*
X10890250Y-13879200D02*
X10890250Y-13959200D01*
X10850250Y-13919200D02*
X10930250Y-13919200D01*
X10850250Y-14641200D02*
X10930250Y-14721200D01*
X10930250Y-14641200D02*
X10850250Y-14721200D01*
X10890250Y-14641200D02*
X10890250Y-14721200D01*
X10850250Y-14681200D02*
X10930250Y-14681200D01*
X10901050Y-12266300D02*
X10981050Y-12346300D01*
X10981050Y-12266300D02*
X10901050Y-12346300D01*
X10941050Y-12266300D02*
X10941050Y-12346300D01*
X10901050Y-12306300D02*
X10981050Y-12306300D01*
X11104250Y-13879200D02*
X11184250Y-13959200D01*
X11184250Y-13879200D02*
X11104250Y-13959200D01*
X11144250Y-13879200D02*
X11144250Y-13959200D01*
X11104250Y-13919200D02*
X11184250Y-13919200D01*
X11104250Y-14641200D02*
X11184250Y-14721200D01*
X11184250Y-14641200D02*
X11104250Y-14721200D01*
X11144250Y-14641200D02*
X11144250Y-14721200D01*
X11104250Y-14681200D02*
X11184250Y-14681200D01*
X11251050Y-12266300D02*
X11331050Y-12346300D01*
X11331050Y-12266300D02*
X11251050Y-12346300D01*
X11291050Y-12266300D02*
X11291050Y-12346300D01*
X11251050Y-12306300D02*
X11331050Y-12306300D01*
X11586850Y-13879200D02*
X11666850Y-13959200D01*
X11666850Y-13879200D02*
X11586850Y-13959200D01*
X11626850Y-13879200D02*
X11626850Y-13959200D01*
X11586850Y-13919200D02*
X11666850Y-13919200D01*
X11586850Y-14641200D02*
X11666850Y-14721200D01*
X11666850Y-14641200D02*
X11586850Y-14721200D01*
X11626850Y-14641200D02*
X11626850Y-14721200D01*
X11586850Y-14681200D02*
X11666850Y-14681200D01*
X11840850Y-12240900D02*
X11920850Y-12320900D01*
X11920850Y-12240900D02*
X11840850Y-12320900D01*
X11880850Y-12240900D02*
X11880850Y-12320900D01*
X11840850Y-12280900D02*
X11920850Y-12280900D01*
X11840850Y-13879200D02*
X11920850Y-13959200D01*
X11920850Y-13879200D02*
X11840850Y-13959200D01*
X11880850Y-13879200D02*
X11880850Y-13959200D01*
X11840850Y-13919200D02*
X11920850Y-13919200D01*
X11840850Y-14641200D02*
X11920850Y-14721200D01*
X11920850Y-14641200D02*
X11840850Y-14721200D01*
X11880850Y-14641200D02*
X11880850Y-14721200D01*
X11840850Y-14681200D02*
X11920850Y-14681200D01*
X12094850Y-13879200D02*
X12174850Y-13959200D01*
X12174850Y-13879200D02*
X12094850Y-13959200D01*
X12134850Y-13879200D02*
X12134850Y-13959200D01*
X12094850Y-13919200D02*
X12174850Y-13919200D01*
X12094850Y-14641200D02*
X12174850Y-14721200D01*
X12174850Y-14641200D02*
X12094850Y-14721200D01*
X12134850Y-14641200D02*
X12134850Y-14721200D01*
X12094850Y-14681200D02*
X12174850Y-14681200D01*
X12171050Y-10412100D02*
X12251050Y-10492100D01*
X12251050Y-10412100D02*
X12171050Y-10492100D01*
X12211050Y-10412100D02*
X12211050Y-10492100D01*
X12171050Y-10452100D02*
X12251050Y-10452100D01*
X12190850Y-12240900D02*
X12270850Y-12320900D01*
X12270850Y-12240900D02*
X12190850Y-12320900D01*
X12230850Y-12240900D02*
X12230850Y-12320900D01*
X12190850Y-12280900D02*
X12270850Y-12280900D01*
X12348850Y-13879200D02*
X12428850Y-13959200D01*
X12428850Y-13879200D02*
X12348850Y-13959200D01*
X12388850Y-13879200D02*
X12388850Y-13959200D01*
X12348850Y-13919200D02*
X12428850Y-13919200D01*
X12348850Y-14641200D02*
X12428850Y-14721200D01*
X12428850Y-14641200D02*
X12348850Y-14721200D01*
X12388850Y-14641200D02*
X12388850Y-14721200D01*
X12348850Y-14681200D02*
X12428850Y-14681200D01*
X12463150Y-12761600D02*
X12543150Y-12841600D01*
X12543150Y-12761600D02*
X12463150Y-12841600D01*
X12503150Y-12761600D02*
X12503150Y-12841600D01*
X12463150Y-12801600D02*
X12543150Y-12801600D01*
X12463150Y-13523600D02*
X12543150Y-13603600D01*
X12543150Y-13523600D02*
X12463150Y-13603600D01*
X12503150Y-13523600D02*
X12503150Y-13603600D01*
X12463150Y-13563600D02*
X12543150Y-13563600D01*
X12521050Y-10412100D02*
X12601050Y-10492100D01*
X12601050Y-10412100D02*
X12521050Y-10492100D01*
X12561050Y-10412100D02*
X12561050Y-10492100D01*
X12521050Y-10452100D02*
X12601050Y-10452100D01*
X12717150Y-12761600D02*
X12797150Y-12841600D01*
X12797150Y-12761600D02*
X12717150Y-12841600D01*
X12757150Y-12761600D02*
X12757150Y-12841600D01*
X12717150Y-12801600D02*
X12797150Y-12801600D01*
X12717150Y-13523600D02*
X12797150Y-13603600D01*
X12797150Y-13523600D02*
X12717150Y-13603600D01*
X12757150Y-13523600D02*
X12757150Y-13603600D01*
X12717150Y-13563600D02*
X12797150Y-13563600D01*
X12831450Y-13879200D02*
X12911450Y-13959200D01*
X12911450Y-13879200D02*
X12831450Y-13959200D01*
X12871450Y-13879200D02*
X12871450Y-13959200D01*
X12831450Y-13919200D02*
X12911450Y-13919200D01*
X12831450Y-14641200D02*
X12911450Y-14721200D01*
X12911450Y-14641200D02*
X12831450Y-14721200D01*
X12871450Y-14641200D02*
X12871450Y-14721200D01*
X12831450Y-14681200D02*
X12911450Y-14681200D01*
X12971150Y-12761600D02*
X13051150Y-12841600D01*
X13051150Y-12761600D02*
X12971150Y-12841600D01*
X13011150Y-12761600D02*
X13011150Y-12841600D01*
X12971150Y-12801600D02*
X13051150Y-12801600D01*
X12971150Y-13523600D02*
X13051150Y-13603600D01*
X13051150Y-13523600D02*
X12971150Y-13603600D01*
X13011150Y-13523600D02*
X13011150Y-13603600D01*
X12971150Y-13563600D02*
X13051150Y-13563600D01*
X13085450Y-13879200D02*
X13165450Y-13959200D01*
X13165450Y-13879200D02*
X13085450Y-13959200D01*
X13125450Y-13879200D02*
X13125450Y-13959200D01*
X13085450Y-13919200D02*
X13165450Y-13919200D01*
X13085450Y-14641200D02*
X13165450Y-14721200D01*
X13165450Y-14641200D02*
X13085450Y-14721200D01*
X13125450Y-14641200D02*
X13125450Y-14721200D01*
X13085450Y-14681200D02*
X13165450Y-14681200D01*
X13225150Y-12761600D02*
X13305150Y-12841600D01*
X13305150Y-12761600D02*
X13225150Y-12841600D01*
X13265150Y-12761600D02*
X13265150Y-12841600D01*
X13225150Y-12801600D02*
X13305150Y-12801600D01*
X13225150Y-13523600D02*
X13305150Y-13603600D01*
X13305150Y-13523600D02*
X13225150Y-13603600D01*
X13265150Y-13523600D02*
X13265150Y-13603600D01*
X13225150Y-13563600D02*
X13305150Y-13563600D01*
X13339450Y-13879200D02*
X13419450Y-13959200D01*
X13419450Y-13879200D02*
X13339450Y-13959200D01*
X13379450Y-13879200D02*
X13379450Y-13959200D01*
X13339450Y-13919200D02*
X13419450Y-13919200D01*
X13339450Y-14641200D02*
X13419450Y-14721200D01*
X13419450Y-14641200D02*
X13339450Y-14721200D01*
X13379450Y-14641200D02*
X13379450Y-14721200D01*
X13339450Y-14681200D02*
X13419450Y-14681200D01*
X13593450Y-13879200D02*
X13673450Y-13959200D01*
X13673450Y-13879200D02*
X13593450Y-13959200D01*
X13633450Y-13879200D02*
X13633450Y-13959200D01*
X13593450Y-13919200D02*
X13673450Y-13919200D01*
X13593450Y-14641200D02*
X13673450Y-14721200D01*
X13673450Y-14641200D02*
X13593450Y-14721200D01*
X13633450Y-14641200D02*
X13633450Y-14721200D01*
X13593450Y-14681200D02*
X13673450Y-14681200D01*
X14076050Y-13879200D02*
X14156050Y-13959200D01*
X14156050Y-13879200D02*
X14076050Y-13959200D01*
X14116050Y-13879200D02*
X14116050Y-13959200D01*
X14076050Y-13919200D02*
X14156050Y-13919200D01*
X14076050Y-14641200D02*
X14156050Y-14721200D01*
X14156050Y-14641200D02*
X14076050Y-14721200D01*
X14116050Y-14641200D02*
X14116050Y-14721200D01*
X14076050Y-14681200D02*
X14156050Y-14681200D01*
X14126850Y-10081900D02*
X14206850Y-10161900D01*
X14206850Y-10081900D02*
X14126850Y-10161900D01*
X14166850Y-10081900D02*
X14166850Y-10161900D01*
X14126850Y-10121900D02*
X14206850Y-10121900D01*
X14152250Y-11377300D02*
X14232250Y-11457300D01*
X14232250Y-11377300D02*
X14152250Y-11457300D01*
X14192250Y-11377300D02*
X14192250Y-11457300D01*
X14152250Y-11417300D02*
X14232250Y-11417300D01*
X14330050Y-13879200D02*
X14410050Y-13959200D01*
X14410050Y-13879200D02*
X14330050Y-13959200D01*
X14370050Y-13879200D02*
X14370050Y-13959200D01*
X14330050Y-13919200D02*
X14410050Y-13919200D01*
X14330050Y-14641200D02*
X14410050Y-14721200D01*
X14410050Y-14641200D02*
X14330050Y-14721200D01*
X14370050Y-14641200D02*
X14370050Y-14721200D01*
X14330050Y-14681200D02*
X14410050Y-14681200D01*
X14476850Y-10081900D02*
X14556850Y-10161900D01*
X14556850Y-10081900D02*
X14476850Y-10161900D01*
X14516850Y-10081900D02*
X14516850Y-10161900D01*
X14476850Y-10121900D02*
X14556850Y-10121900D01*
X14502250Y-11377300D02*
X14582250Y-11457300D01*
X14582250Y-11377300D02*
X14502250Y-11457300D01*
X14542250Y-11377300D02*
X14542250Y-11457300D01*
X14502250Y-11417300D02*
X14582250Y-11417300D01*
X14584050Y-13879200D02*
X14664050Y-13959200D01*
X14664050Y-13879200D02*
X14584050Y-13959200D01*
X14624050Y-13879200D02*
X14624050Y-13959200D01*
X14584050Y-13919200D02*
X14664050Y-13919200D01*
X14584050Y-14641200D02*
X14664050Y-14721200D01*
X14664050Y-14641200D02*
X14584050Y-14721200D01*
X14624050Y-14641200D02*
X14624050Y-14721200D01*
X14584050Y-14681200D02*
X14664050Y-14681200D01*
X14838050Y-13879200D02*
X14918050Y-13959200D01*
X14918050Y-13879200D02*
X14838050Y-13959200D01*
X14878050Y-13879200D02*
X14878050Y-13959200D01*
X14838050Y-13919200D02*
X14918050Y-13919200D01*
X14838050Y-14641200D02*
X14918050Y-14721200D01*
X14918050Y-14641200D02*
X14838050Y-14721200D01*
X14878050Y-14641200D02*
X14878050Y-14721200D01*
X14838050Y-14681200D02*
X14918050Y-14681200D01*
X15066650Y-10056500D02*
X15146650Y-10136500D01*
X15146650Y-10056500D02*
X15066650Y-10136500D01*
X15106650Y-10056500D02*
X15106650Y-10136500D01*
X15066650Y-10096500D02*
X15146650Y-10096500D01*
X15320650Y-13879200D02*
X15400650Y-13959200D01*
X15400650Y-13879200D02*
X15320650Y-13959200D01*
X15360650Y-13879200D02*
X15360650Y-13959200D01*
X15320650Y-13919200D02*
X15400650Y-13919200D01*
X15320650Y-14641200D02*
X15400650Y-14721200D01*
X15400650Y-14641200D02*
X15320650Y-14721200D01*
X15360650Y-14641200D02*
X15360650Y-14721200D01*
X15320650Y-14681200D02*
X15400650Y-14681200D01*
X15416650Y-10056500D02*
X15496650Y-10136500D01*
X15496650Y-10056500D02*
X15416650Y-10136500D01*
X15456650Y-10056500D02*
X15456650Y-10136500D01*
X15416650Y-10096500D02*
X15496650Y-10096500D01*
X15574650Y-13879200D02*
X15654650Y-13959200D01*
X15654650Y-13879200D02*
X15574650Y-13959200D01*
X15614650Y-13879200D02*
X15614650Y-13959200D01*
X15574650Y-13919200D02*
X15654650Y-13919200D01*
X15574650Y-14641200D02*
X15654650Y-14721200D01*
X15654650Y-14641200D02*
X15574650Y-14721200D01*
X15614650Y-14641200D02*
X15614650Y-14721200D01*
X15574650Y-14681200D02*
X15654650Y-14681200D01*
X15828650Y-13879200D02*
X15908650Y-13959200D01*
X15908650Y-13879200D02*
X15828650Y-13959200D01*
X15868650Y-13879200D02*
X15868650Y-13959200D01*
X15828650Y-13919200D02*
X15908650Y-13919200D01*
X15828650Y-14641200D02*
X15908650Y-14721200D01*
X15908650Y-14641200D02*
X15828650Y-14721200D01*
X15868650Y-14641200D02*
X15868650Y-14721200D01*
X15828650Y-14681200D02*
X15908650Y-14681200D01*
X16082650Y-13879200D02*
X16162650Y-13959200D01*
X16162650Y-13879200D02*
X16082650Y-13959200D01*
X16122650Y-13879200D02*
X16122650Y-13959200D01*
X16082650Y-13919200D02*
X16162650Y-13919200D01*
X16082650Y-14641200D02*
X16162650Y-14721200D01*
X16162650Y-14641200D02*
X16082650Y-14721200D01*
X16122650Y-14641200D02*
X16122650Y-14721200D01*
X16082650Y-14681200D02*
X16162650Y-14681200D01*
X18692500Y-11758300D02*
X18772500Y-11838300D01*
X18772500Y-11758300D02*
X18692500Y-11838300D01*
X18732500Y-11758300D02*
X18732500Y-11838300D01*
X18692500Y-11798300D02*
X18772500Y-11798300D01*
X18692500Y-12012300D02*
X18772500Y-12092300D01*
X18772500Y-12012300D02*
X18692500Y-12092300D01*
X18732500Y-12012300D02*
X18732500Y-12092300D01*
X18692500Y-12052300D02*
X18772500Y-12052300D01*
X18692500Y-12266300D02*
X18772500Y-12346300D01*
X18772500Y-12266300D02*
X18692500Y-12346300D01*
X18732500Y-12266300D02*
X18732500Y-12346300D01*
X18692500Y-12306300D02*
X18772500Y-12306300D01*
X18692500Y-12520300D02*
X18772500Y-12600300D01*
X18772500Y-12520300D02*
X18692500Y-12600300D01*
X18732500Y-12520300D02*
X18732500Y-12600300D01*
X18692500Y-12560300D02*
X18772500Y-12560300D01*
X18692500Y-13028300D02*
X18772500Y-13108300D01*
X18772500Y-13028300D02*
X18692500Y-13108300D01*
X18732500Y-13028300D02*
X18732500Y-13108300D01*
X18692500Y-13068300D02*
X18772500Y-13068300D01*
X18692500Y-13282300D02*
X18772500Y-13362300D01*
X18772500Y-13282300D02*
X18692500Y-13362300D01*
X18732500Y-13282300D02*
X18732500Y-13362300D01*
X18692500Y-13322300D02*
X18772500Y-13322300D01*
X18692500Y-13536300D02*
X18772500Y-13616300D01*
X18772500Y-13536300D02*
X18692500Y-13616300D01*
X18732500Y-13536300D02*
X18732500Y-13616300D01*
X18692500Y-13576300D02*
X18772500Y-13576300D01*
X18692500Y-13790300D02*
X18772500Y-13870300D01*
X18772500Y-13790300D02*
X18692500Y-13870300D01*
X18732500Y-13790300D02*
X18732500Y-13870300D01*
X18692500Y-13830300D02*
X18772500Y-13830300D01*
X19454500Y-11758300D02*
X19534500Y-11838300D01*
X19534500Y-11758300D02*
X19454500Y-11838300D01*
X19494500Y-11758300D02*
X19494500Y-11838300D01*
X19454500Y-11798300D02*
X19534500Y-11798300D01*
X19454500Y-12012300D02*
X19534500Y-12092300D01*
X19534500Y-12012300D02*
X19454500Y-12092300D01*
X19494500Y-12012300D02*
X19494500Y-12092300D01*
X19454500Y-12052300D02*
X19534500Y-12052300D01*
X19454500Y-12266300D02*
X19534500Y-12346300D01*
X19534500Y-12266300D02*
X19454500Y-12346300D01*
X19494500Y-12266300D02*
X19494500Y-12346300D01*
X19454500Y-12306300D02*
X19534500Y-12306300D01*
X19454500Y-12520300D02*
X19534500Y-12600300D01*
X19534500Y-12520300D02*
X19454500Y-12600300D01*
X19494500Y-12520300D02*
X19494500Y-12600300D01*
X19454500Y-12560300D02*
X19534500Y-12560300D01*
X19454500Y-13028300D02*
X19534500Y-13108300D01*
X19534500Y-13028300D02*
X19454500Y-13108300D01*
X19494500Y-13028300D02*
X19494500Y-13108300D01*
X19454500Y-13068300D02*
X19534500Y-13068300D01*
X19454500Y-13282300D02*
X19534500Y-13362300D01*
X19534500Y-13282300D02*
X19454500Y-13362300D01*
X19494500Y-13282300D02*
X19494500Y-13362300D01*
X19454500Y-13322300D02*
X19534500Y-13322300D01*
X19454500Y-13536300D02*
X19534500Y-13616300D01*
X19534500Y-13536300D02*
X19454500Y-13616300D01*
X19494500Y-13536300D02*
X19494500Y-13616300D01*
X19454500Y-13576300D02*
X19534500Y-13576300D01*
X19454500Y-13790300D02*
X19534500Y-13870300D01*
X19534500Y-13790300D02*
X19454500Y-13870300D01*
X19494500Y-13790300D02*
X19494500Y-13870300D01*
X19454500Y-13830300D02*
X19534500Y-13830300D01*
X19981550Y-11771000D02*
X20061550Y-11851000D01*
X20061550Y-11771000D02*
X19981550Y-11851000D01*
X20021550Y-11771000D02*
X20021550Y-11851000D01*
X19981550Y-11811000D02*
X20061550Y-11811000D01*
X19981550Y-12025000D02*
X20061550Y-12105000D01*
X20061550Y-12025000D02*
X19981550Y-12105000D01*
X20021550Y-12025000D02*
X20021550Y-12105000D01*
X19981550Y-12065000D02*
X20061550Y-12065000D01*
X19981550Y-12279000D02*
X20061550Y-12359000D01*
X20061550Y-12279000D02*
X19981550Y-12359000D01*
X20021550Y-12279000D02*
X20021550Y-12359000D01*
X19981550Y-12319000D02*
X20061550Y-12319000D01*
X19981550Y-12533000D02*
X20061550Y-12613000D01*
X20061550Y-12533000D02*
X19981550Y-12613000D01*
X20021550Y-12533000D02*
X20021550Y-12613000D01*
X19981550Y-12573000D02*
X20061550Y-12573000D01*
X19981550Y-13028300D02*
X20061550Y-13108300D01*
X20061550Y-13028300D02*
X19981550Y-13108300D01*
X20021550Y-13028300D02*
X20021550Y-13108300D01*
X19981550Y-13068300D02*
X20061550Y-13068300D01*
X19981550Y-13282300D02*
X20061550Y-13362300D01*
X20061550Y-13282300D02*
X19981550Y-13362300D01*
X20021550Y-13282300D02*
X20021550Y-13362300D01*
X19981550Y-13322300D02*
X20061550Y-13322300D01*
X19981550Y-13536300D02*
X20061550Y-13616300D01*
X20061550Y-13536300D02*
X19981550Y-13616300D01*
X20021550Y-13536300D02*
X20021550Y-13616300D01*
X19981550Y-13576300D02*
X20061550Y-13576300D01*
X19981550Y-13790300D02*
X20061550Y-13870300D01*
X20061550Y-13790300D02*
X19981550Y-13870300D01*
X20021550Y-13790300D02*
X20021550Y-13870300D01*
X19981550Y-13830300D02*
X20061550Y-13830300D01*
X20743550Y-11771000D02*
X20823550Y-11851000D01*
X20823550Y-11771000D02*
X20743550Y-11851000D01*
X20783550Y-11771000D02*
X20783550Y-11851000D01*
X20743550Y-11811000D02*
X20823550Y-11811000D01*
X20743550Y-12025000D02*
X20823550Y-12105000D01*
X20823550Y-12025000D02*
X20743550Y-12105000D01*
X20783550Y-12025000D02*
X20783550Y-12105000D01*
X20743550Y-12065000D02*
X20823550Y-12065000D01*
X20743550Y-12279000D02*
X20823550Y-12359000D01*
X20823550Y-12279000D02*
X20743550Y-12359000D01*
X20783550Y-12279000D02*
X20783550Y-12359000D01*
X20743550Y-12319000D02*
X20823550Y-12319000D01*
X20743550Y-12533000D02*
X20823550Y-12613000D01*
X20823550Y-12533000D02*
X20743550Y-12613000D01*
X20783550Y-12533000D02*
X20783550Y-12613000D01*
X20743550Y-12573000D02*
X20823550Y-12573000D01*
X20743550Y-13028300D02*
X20823550Y-13108300D01*
X20823550Y-13028300D02*
X20743550Y-13108300D01*
X20783550Y-13028300D02*
X20783550Y-13108300D01*
X20743550Y-13068300D02*
X20823550Y-13068300D01*
X20743550Y-13282300D02*
X20823550Y-13362300D01*
X20823550Y-13282300D02*
X20743550Y-13362300D01*
X20783550Y-13282300D02*
X20783550Y-13362300D01*
X20743550Y-13322300D02*
X20823550Y-13322300D01*
X20743550Y-13536300D02*
X20823550Y-13616300D01*
X20823550Y-13536300D02*
X20743550Y-13616300D01*
X20783550Y-13536300D02*
X20783550Y-13616300D01*
X20743550Y-13576300D02*
X20823550Y-13576300D01*
X20743550Y-13790300D02*
X20823550Y-13870300D01*
X20823550Y-13790300D02*
X20743550Y-13870300D01*
X20783550Y-13790300D02*
X20783550Y-13870300D01*
X20743550Y-13830300D02*
X20823550Y-13830300D01*
X17172850Y-14343100D02*
X17264850Y-14435100D01*
X17264850Y-14343100D02*
X17172850Y-14435100D01*
X17251377Y-14421627D02*
X17251377Y-14356573D01*
X17186323Y-14356573D01*
X17186323Y-14421627D01*
X17251377Y-14421627D01*
X17172850Y-14543100D02*
X17264850Y-14635100D01*
X17264850Y-14543100D02*
X17172850Y-14635100D01*
X17251377Y-14621627D02*
X17251377Y-14556573D01*
X17186323Y-14556573D01*
X17186323Y-14621627D01*
X17251377Y-14621627D01*
X17422850Y-14343100D02*
X17514850Y-14435100D01*
X17514850Y-14343100D02*
X17422850Y-14435100D01*
X17501377Y-14421627D02*
X17501377Y-14356573D01*
X17436323Y-14356573D01*
X17436323Y-14421627D01*
X17501377Y-14421627D01*
X17422850Y-14543100D02*
X17514850Y-14635100D01*
X17514850Y-14543100D02*
X17422850Y-14635100D01*
X17501377Y-14621627D02*
X17501377Y-14556573D01*
X17436323Y-14556573D01*
X17436323Y-14621627D01*
X17501377Y-14621627D01*
X19103250Y-14343100D02*
X19195250Y-14435100D01*
X19195250Y-14343100D02*
X19103250Y-14435100D01*
X19181777Y-14421627D02*
X19181777Y-14356573D01*
X19116723Y-14356573D01*
X19116723Y-14421627D01*
X19181777Y-14421627D01*
X19103250Y-14543100D02*
X19195250Y-14635100D01*
X19195250Y-14543100D02*
X19103250Y-14635100D01*
X19181777Y-14621627D02*
X19181777Y-14556573D01*
X19116723Y-14556573D01*
X19116723Y-14621627D01*
X19181777Y-14621627D01*
X19353250Y-14343100D02*
X19445250Y-14435100D01*
X19445250Y-14343100D02*
X19353250Y-14435100D01*
X19431777Y-14421627D02*
X19431777Y-14356573D01*
X19366723Y-14356573D01*
X19366723Y-14421627D01*
X19431777Y-14421627D01*
X19353250Y-14543100D02*
X19445250Y-14635100D01*
X19445250Y-14543100D02*
X19353250Y-14635100D01*
X19431777Y-14621627D02*
X19431777Y-14556573D01*
X19366723Y-14556573D01*
X19366723Y-14621627D01*
X19431777Y-14621627D01*
X18765050Y-9627400D02*
X18865050Y-9727400D01*
X18865050Y-9627400D02*
X18765050Y-9727400D01*
X18815050Y-9727400D02*
X18865050Y-9677400D01*
X18815050Y-9627400D01*
X18765050Y-9677400D01*
X18815050Y-9727400D01*
X18765050Y-9881400D02*
X18865050Y-9981400D01*
X18865050Y-9881400D02*
X18765050Y-9981400D01*
X18815050Y-9981400D02*
X18865050Y-9931400D01*
X18815050Y-9881400D01*
X18765050Y-9931400D01*
X18815050Y-9981400D01*
X18765050Y-10135400D02*
X18865050Y-10235400D01*
X18865050Y-10135400D02*
X18765050Y-10235400D01*
X18815050Y-10235400D02*
X18865050Y-10185400D01*
X18815050Y-10135400D01*
X18765050Y-10185400D01*
X18815050Y-10235400D01*
X18765050Y-10643400D02*
X18865050Y-10743400D01*
X18865050Y-10643400D02*
X18765050Y-10743400D01*
X18815050Y-10743400D02*
X18865050Y-10693400D01*
X18815050Y-10643400D01*
X18765050Y-10693400D01*
X18815050Y-10743400D01*
X18765050Y-10897400D02*
X18865050Y-10997400D01*
X18865050Y-10897400D02*
X18765050Y-10997400D01*
X18815050Y-10997400D02*
X18865050Y-10947400D01*
X18815050Y-10897400D01*
X18765050Y-10947400D01*
X18815050Y-10997400D01*
X18765050Y-11151400D02*
X18865050Y-11251400D01*
X18865050Y-11151400D02*
X18765050Y-11251400D01*
X18815050Y-11251400D02*
X18865050Y-11201400D01*
X18815050Y-11151400D01*
X18765050Y-11201400D01*
X18815050Y-11251400D01*
X19019050Y-9627400D02*
X19119050Y-9727400D01*
X19119050Y-9627400D02*
X19019050Y-9727400D01*
X19069050Y-9727400D02*
X19119050Y-9677400D01*
X19069050Y-9627400D01*
X19019050Y-9677400D01*
X19069050Y-9727400D01*
X19019050Y-9881400D02*
X19119050Y-9981400D01*
X19119050Y-9881400D02*
X19019050Y-9981400D01*
X19069050Y-9981400D02*
X19119050Y-9931400D01*
X19069050Y-9881400D01*
X19019050Y-9931400D01*
X19069050Y-9981400D01*
X19019050Y-10135400D02*
X19119050Y-10235400D01*
X19119050Y-10135400D02*
X19019050Y-10235400D01*
X19069050Y-10235400D02*
X19119050Y-10185400D01*
X19069050Y-10135400D01*
X19019050Y-10185400D01*
X19069050Y-10235400D01*
X19019050Y-10643400D02*
X19119050Y-10743400D01*
X19119050Y-10643400D02*
X19019050Y-10743400D01*
X19069050Y-10743400D02*
X19119050Y-10693400D01*
X19069050Y-10643400D01*
X19019050Y-10693400D01*
X19069050Y-10743400D01*
X19019050Y-10897400D02*
X19119050Y-10997400D01*
X19119050Y-10897400D02*
X19019050Y-10997400D01*
X19069050Y-10997400D02*
X19119050Y-10947400D01*
X19069050Y-10897400D01*
X19019050Y-10947400D01*
X19069050Y-10997400D01*
X19019050Y-11151400D02*
X19119050Y-11251400D01*
X19119050Y-11151400D02*
X19019050Y-11251400D01*
X19069050Y-11251400D02*
X19119050Y-11201400D01*
X19069050Y-11151400D01*
X19019050Y-11201400D01*
X19069050Y-11251400D01*
X8223250Y-5638800D02*
X8223250Y-5740400D01*
X8172450Y-5689600D02*
X8274050Y-5689600D01*
X8274050Y-5689600D02*
G75*
G03*
X8274050Y-5689600I-50800J0D01*
G01*
X8223250Y-6908800D02*
X8223250Y-7010400D01*
X8172450Y-6959600D02*
X8274050Y-6959600D01*
X8274050Y-6959600D02*
G75*
G03*
X8274050Y-6959600I-50800J0D01*
G01*
X8477250Y-5638800D02*
X8477250Y-5740400D01*
X8426450Y-5689600D02*
X8528050Y-5689600D01*
X8528050Y-5689600D02*
G75*
G03*
X8528050Y-5689600I-50800J0D01*
G01*
X8477250Y-6908800D02*
X8477250Y-7010400D01*
X8426450Y-6959600D02*
X8528050Y-6959600D01*
X8528050Y-6959600D02*
G75*
G03*
X8528050Y-6959600I-50800J0D01*
G01*
X8731250Y-5638800D02*
X8731250Y-5740400D01*
X8680450Y-5689600D02*
X8782050Y-5689600D01*
X8782050Y-5689600D02*
G75*
G03*
X8782050Y-5689600I-50800J0D01*
G01*
X8731250Y-6908800D02*
X8731250Y-7010400D01*
X8680450Y-6959600D02*
X8782050Y-6959600D01*
X8782050Y-6959600D02*
G75*
G03*
X8782050Y-6959600I-50800J0D01*
G01*
X8985250Y-5638800D02*
X8985250Y-5740400D01*
X8934450Y-5689600D02*
X9036050Y-5689600D01*
X9036050Y-5689600D02*
G75*
G03*
X9036050Y-5689600I-50800J0D01*
G01*
X8985250Y-6908800D02*
X8985250Y-7010400D01*
X8934450Y-6959600D02*
X9036050Y-6959600D01*
X9036050Y-6959600D02*
G75*
G03*
X9036050Y-6959600I-50800J0D01*
G01*
X9239250Y-5638800D02*
X9239250Y-5740400D01*
X9188450Y-5689600D02*
X9290050Y-5689600D01*
X9290050Y-5689600D02*
G75*
G03*
X9290050Y-5689600I-50800J0D01*
G01*
X9239250Y-6908800D02*
X9239250Y-7010400D01*
X9188450Y-6959600D02*
X9290050Y-6959600D01*
X9290050Y-6959600D02*
G75*
G03*
X9290050Y-6959600I-50800J0D01*
G01*
X9493250Y-5638800D02*
X9493250Y-5740400D01*
X9442450Y-5689600D02*
X9544050Y-5689600D01*
X9544050Y-5689600D02*
G75*
G03*
X9544050Y-5689600I-50800J0D01*
G01*
X9493250Y-6908800D02*
X9493250Y-7010400D01*
X9442450Y-6959600D02*
X9544050Y-6959600D01*
X9544050Y-6959600D02*
G75*
G03*
X9544050Y-6959600I-50800J0D01*
G01*
X9747250Y-5638800D02*
X9747250Y-5740400D01*
X9696450Y-5689600D02*
X9798050Y-5689600D01*
X9798050Y-5689600D02*
G75*
G03*
X9798050Y-5689600I-50800J0D01*
G01*
X9747250Y-6908800D02*
X9747250Y-7010400D01*
X9696450Y-6959600D02*
X9798050Y-6959600D01*
X9798050Y-6959600D02*
G75*
G03*
X9798050Y-6959600I-50800J0D01*
G01*
X9836150Y-6527800D02*
X9836150Y-6629400D01*
X9785350Y-6578600D02*
X9886950Y-6578600D01*
X9886950Y-6578600D02*
G75*
G03*
X9886950Y-6578600I-50800J0D01*
G01*
X10001250Y-5638800D02*
X10001250Y-5740400D01*
X9950450Y-5689600D02*
X10052050Y-5689600D01*
X10052050Y-5689600D02*
G75*
G03*
X10052050Y-5689600I-50800J0D01*
G01*
X10001250Y-6400800D02*
X10001250Y-6502400D01*
X9950450Y-6451600D02*
X10052050Y-6451600D01*
X10052050Y-6451600D02*
G75*
G03*
X10052050Y-6451600I-50800J0D01*
G01*
X10001250Y-6654800D02*
X10001250Y-6756400D01*
X9950450Y-6705600D02*
X10052050Y-6705600D01*
X10052050Y-6705600D02*
G75*
G03*
X10052050Y-6705600I-50800J0D01*
G01*
X10001250Y-6908800D02*
X10001250Y-7010400D01*
X9950450Y-6959600D02*
X10052050Y-6959600D01*
X10052050Y-6959600D02*
G75*
G03*
X10052050Y-6959600I-50800J0D01*
G01*
X11118850Y-5638800D02*
X11118850Y-5740400D01*
X11068050Y-5689600D02*
X11169650Y-5689600D01*
X11169650Y-5689600D02*
G75*
G03*
X11169650Y-5689600I-50800J0D01*
G01*
X11118850Y-6908800D02*
X11118850Y-7010400D01*
X11068050Y-6959600D02*
X11169650Y-6959600D01*
X11169650Y-6959600D02*
G75*
G03*
X11169650Y-6959600I-50800J0D01*
G01*
X11372850Y-5638800D02*
X11372850Y-5740400D01*
X11322050Y-5689600D02*
X11423650Y-5689600D01*
X11423650Y-5689600D02*
G75*
G03*
X11423650Y-5689600I-50800J0D01*
G01*
X11372850Y-6908800D02*
X11372850Y-7010400D01*
X11322050Y-6959600D02*
X11423650Y-6959600D01*
X11423650Y-6959600D02*
G75*
G03*
X11423650Y-6959600I-50800J0D01*
G01*
X11626850Y-5638800D02*
X11626850Y-5740400D01*
X11576050Y-5689600D02*
X11677650Y-5689600D01*
X11677650Y-5689600D02*
G75*
G03*
X11677650Y-5689600I-50800J0D01*
G01*
X11626850Y-6908800D02*
X11626850Y-7010400D01*
X11576050Y-6959600D02*
X11677650Y-6959600D01*
X11677650Y-6959600D02*
G75*
G03*
X11677650Y-6959600I-50800J0D01*
G01*
X11880850Y-5638800D02*
X11880850Y-5740400D01*
X11830050Y-5689600D02*
X11931650Y-5689600D01*
X11931650Y-5689600D02*
G75*
G03*
X11931650Y-5689600I-50800J0D01*
G01*
X11880850Y-6908800D02*
X11880850Y-7010400D01*
X11830050Y-6959600D02*
X11931650Y-6959600D01*
X11931650Y-6959600D02*
G75*
G03*
X11931650Y-6959600I-50800J0D01*
G01*
X12134850Y-5638800D02*
X12134850Y-5740400D01*
X12084050Y-5689600D02*
X12185650Y-5689600D01*
X12185650Y-5689600D02*
G75*
G03*
X12185650Y-5689600I-50800J0D01*
G01*
X12134850Y-6908800D02*
X12134850Y-7010400D01*
X12084050Y-6959600D02*
X12185650Y-6959600D01*
X12185650Y-6959600D02*
G75*
G03*
X12185650Y-6959600I-50800J0D01*
G01*
X12388850Y-5638800D02*
X12388850Y-5740400D01*
X12338050Y-5689600D02*
X12439650Y-5689600D01*
X12439650Y-5689600D02*
G75*
G03*
X12439650Y-5689600I-50800J0D01*
G01*
X12388850Y-6908800D02*
X12388850Y-7010400D01*
X12338050Y-6959600D02*
X12439650Y-6959600D01*
X12439650Y-6959600D02*
G75*
G03*
X12439650Y-6959600I-50800J0D01*
G01*
X12642850Y-5638800D02*
X12642850Y-5740400D01*
X12592050Y-5689600D02*
X12693650Y-5689600D01*
X12693650Y-5689600D02*
G75*
G03*
X12693650Y-5689600I-50800J0D01*
G01*
X12642850Y-6908800D02*
X12642850Y-7010400D01*
X12592050Y-6959600D02*
X12693650Y-6959600D01*
X12693650Y-6959600D02*
G75*
G03*
X12693650Y-6959600I-50800J0D01*
G01*
X12731750Y-6527800D02*
X12731750Y-6629400D01*
X12680950Y-6578600D02*
X12782550Y-6578600D01*
X12782550Y-6578600D02*
G75*
G03*
X12782550Y-6578600I-50800J0D01*
G01*
X12896850Y-5638800D02*
X12896850Y-5740400D01*
X12846050Y-5689600D02*
X12947650Y-5689600D01*
X12947650Y-5689600D02*
G75*
G03*
X12947650Y-5689600I-50800J0D01*
G01*
X12896850Y-6400800D02*
X12896850Y-6502400D01*
X12846050Y-6451600D02*
X12947650Y-6451600D01*
X12947650Y-6451600D02*
G75*
G03*
X12947650Y-6451600I-50800J0D01*
G01*
X12896850Y-6654800D02*
X12896850Y-6756400D01*
X12846050Y-6705600D02*
X12947650Y-6705600D01*
X12947650Y-6705600D02*
G75*
G03*
X12947650Y-6705600I-50800J0D01*
G01*
X12896850Y-6908800D02*
X12896850Y-7010400D01*
X12846050Y-6959600D02*
X12947650Y-6959600D01*
X12947650Y-6959600D02*
G75*
G03*
X12947650Y-6959600I-50800J0D01*
G01*
X14039850Y-5638800D02*
X14039850Y-5740400D01*
X13989050Y-5689600D02*
X14090650Y-5689600D01*
X14090650Y-5689600D02*
G75*
G03*
X14090650Y-5689600I-50800J0D01*
G01*
X14039850Y-6908800D02*
X14039850Y-7010400D01*
X13989050Y-6959600D02*
X14090650Y-6959600D01*
X14090650Y-6959600D02*
G75*
G03*
X14090650Y-6959600I-50800J0D01*
G01*
X14293850Y-5638800D02*
X14293850Y-5740400D01*
X14243050Y-5689600D02*
X14344650Y-5689600D01*
X14344650Y-5689600D02*
G75*
G03*
X14344650Y-5689600I-50800J0D01*
G01*
X14293850Y-6908800D02*
X14293850Y-7010400D01*
X14243050Y-6959600D02*
X14344650Y-6959600D01*
X14344650Y-6959600D02*
G75*
G03*
X14344650Y-6959600I-50800J0D01*
G01*
X14547850Y-5638800D02*
X14547850Y-5740400D01*
X14497050Y-5689600D02*
X14598650Y-5689600D01*
X14598650Y-5689600D02*
G75*
G03*
X14598650Y-5689600I-50800J0D01*
G01*
X14547850Y-6908800D02*
X14547850Y-7010400D01*
X14497050Y-6959600D02*
X14598650Y-6959600D01*
X14598650Y-6959600D02*
G75*
G03*
X14598650Y-6959600I-50800J0D01*
G01*
X14801850Y-5638800D02*
X14801850Y-5740400D01*
X14751050Y-5689600D02*
X14852650Y-5689600D01*
X14852650Y-5689600D02*
G75*
G03*
X14852650Y-5689600I-50800J0D01*
G01*
X14801850Y-6908800D02*
X14801850Y-7010400D01*
X14751050Y-6959600D02*
X14852650Y-6959600D01*
X14852650Y-6959600D02*
G75*
G03*
X14852650Y-6959600I-50800J0D01*
G01*
X15055850Y-5638800D02*
X15055850Y-5740400D01*
X15005050Y-5689600D02*
X15106650Y-5689600D01*
X15106650Y-5689600D02*
G75*
G03*
X15106650Y-5689600I-50800J0D01*
G01*
X15055850Y-6908800D02*
X15055850Y-7010400D01*
X15005050Y-6959600D02*
X15106650Y-6959600D01*
X15106650Y-6959600D02*
G75*
G03*
X15106650Y-6959600I-50800J0D01*
G01*
X15309850Y-5638800D02*
X15309850Y-5740400D01*
X15259050Y-5689600D02*
X15360650Y-5689600D01*
X15360650Y-5689600D02*
G75*
G03*
X15360650Y-5689600I-50800J0D01*
G01*
X15309850Y-6908800D02*
X15309850Y-7010400D01*
X15259050Y-6959600D02*
X15360650Y-6959600D01*
X15360650Y-6959600D02*
G75*
G03*
X15360650Y-6959600I-50800J0D01*
G01*
X15563850Y-5638800D02*
X15563850Y-5740400D01*
X15513050Y-5689600D02*
X15614650Y-5689600D01*
X15614650Y-5689600D02*
G75*
G03*
X15614650Y-5689600I-50800J0D01*
G01*
X15563850Y-6908800D02*
X15563850Y-7010400D01*
X15513050Y-6959600D02*
X15614650Y-6959600D01*
X15614650Y-6959600D02*
G75*
G03*
X15614650Y-6959600I-50800J0D01*
G01*
X15652750Y-6527800D02*
X15652750Y-6629400D01*
X15601950Y-6578600D02*
X15703550Y-6578600D01*
X15703550Y-6578600D02*
G75*
G03*
X15703550Y-6578600I-50800J0D01*
G01*
X15817850Y-5638800D02*
X15817850Y-5740400D01*
X15767050Y-5689600D02*
X15868650Y-5689600D01*
X15868650Y-5689600D02*
G75*
G03*
X15868650Y-5689600I-50800J0D01*
G01*
X15817850Y-6400800D02*
X15817850Y-6502400D01*
X15767050Y-6451600D02*
X15868650Y-6451600D01*
X15868650Y-6451600D02*
G75*
G03*
X15868650Y-6451600I-50800J0D01*
G01*
X15817850Y-6654800D02*
X15817850Y-6756400D01*
X15767050Y-6705600D02*
X15868650Y-6705600D01*
X15868650Y-6705600D02*
G75*
G03*
X15868650Y-6705600I-50800J0D01*
G01*
X15817850Y-6908800D02*
X15817850Y-7010400D01*
X15767050Y-6959600D02*
X15868650Y-6959600D01*
X15868650Y-6959600D02*
G75*
G03*
X15868650Y-6959600I-50800J0D01*
G01*
X16986250Y-5638800D02*
X16986250Y-5740400D01*
X16935450Y-5689600D02*
X17037050Y-5689600D01*
X17037050Y-5689600D02*
G75*
G03*
X17037050Y-5689600I-50800J0D01*
G01*
X16986250Y-6908800D02*
X16986250Y-7010400D01*
X16935450Y-6959600D02*
X17037050Y-6959600D01*
X17037050Y-6959600D02*
G75*
G03*
X17037050Y-6959600I-50800J0D01*
G01*
X17240250Y-5638800D02*
X17240250Y-5740400D01*
X17189450Y-5689600D02*
X17291050Y-5689600D01*
X17291050Y-5689600D02*
G75*
G03*
X17291050Y-5689600I-50800J0D01*
G01*
X17240250Y-6908800D02*
X17240250Y-7010400D01*
X17189450Y-6959600D02*
X17291050Y-6959600D01*
X17291050Y-6959600D02*
G75*
G03*
X17291050Y-6959600I-50800J0D01*
G01*
X17494250Y-5638800D02*
X17494250Y-5740400D01*
X17443450Y-5689600D02*
X17545050Y-5689600D01*
X17545050Y-5689600D02*
G75*
G03*
X17545050Y-5689600I-50800J0D01*
G01*
X17494250Y-6908800D02*
X17494250Y-7010400D01*
X17443450Y-6959600D02*
X17545050Y-6959600D01*
X17545050Y-6959600D02*
G75*
G03*
X17545050Y-6959600I-50800J0D01*
G01*
X17748250Y-5638800D02*
X17748250Y-5740400D01*
X17697450Y-5689600D02*
X17799050Y-5689600D01*
X17799050Y-5689600D02*
G75*
G03*
X17799050Y-5689600I-50800J0D01*
G01*
X17748250Y-6908800D02*
X17748250Y-7010400D01*
X17697450Y-6959600D02*
X17799050Y-6959600D01*
X17799050Y-6959600D02*
G75*
G03*
X17799050Y-6959600I-50800J0D01*
G01*
X18002250Y-5638800D02*
X18002250Y-5740400D01*
X17951450Y-5689600D02*
X18053050Y-5689600D01*
X18053050Y-5689600D02*
G75*
G03*
X18053050Y-5689600I-50800J0D01*
G01*
X18002250Y-6908800D02*
X18002250Y-7010400D01*
X17951450Y-6959600D02*
X18053050Y-6959600D01*
X18053050Y-6959600D02*
G75*
G03*
X18053050Y-6959600I-50800J0D01*
G01*
X18256250Y-5638800D02*
X18256250Y-5740400D01*
X18205450Y-5689600D02*
X18307050Y-5689600D01*
X18307050Y-5689600D02*
G75*
G03*
X18307050Y-5689600I-50800J0D01*
G01*
X18256250Y-6908800D02*
X18256250Y-7010400D01*
X18205450Y-6959600D02*
X18307050Y-6959600D01*
X18307050Y-6959600D02*
G75*
G03*
X18307050Y-6959600I-50800J0D01*
G01*
X18510250Y-5638800D02*
X18510250Y-5740400D01*
X18459450Y-5689600D02*
X18561050Y-5689600D01*
X18561050Y-5689600D02*
G75*
G03*
X18561050Y-5689600I-50800J0D01*
G01*
X18510250Y-6908800D02*
X18510250Y-7010400D01*
X18459450Y-6959600D02*
X18561050Y-6959600D01*
X18561050Y-6959600D02*
G75*
G03*
X18561050Y-6959600I-50800J0D01*
G01*
X18599150Y-6527800D02*
X18599150Y-6629400D01*
X18548350Y-6578600D02*
X18649950Y-6578600D01*
X18649950Y-6578600D02*
G75*
G03*
X18649950Y-6578600I-50800J0D01*
G01*
X18764250Y-5638800D02*
X18764250Y-5740400D01*
X18713450Y-5689600D02*
X18815050Y-5689600D01*
X18815050Y-5689600D02*
G75*
G03*
X18815050Y-5689600I-50800J0D01*
G01*
X18764250Y-6400800D02*
X18764250Y-6502400D01*
X18713450Y-6451600D02*
X18815050Y-6451600D01*
X18815050Y-6451600D02*
G75*
G03*
X18815050Y-6451600I-50800J0D01*
G01*
X18764250Y-6654800D02*
X18764250Y-6756400D01*
X18713450Y-6705600D02*
X18815050Y-6705600D01*
X18815050Y-6705600D02*
G75*
G03*
X18815050Y-6705600I-50800J0D01*
G01*
X18764250Y-6908800D02*
X18764250Y-7010400D01*
X18713450Y-6959600D02*
X18815050Y-6959600D01*
X18815050Y-6959600D02*
G75*
G03*
X18815050Y-6959600I-50800J0D01*
G01*
X7791077Y-10316727D02*
X7791077Y-10231873D01*
X7706223Y-10231873D01*
X7706223Y-10316727D01*
X7791077Y-10316727D01*
X7808650Y-10274300D02*
G75*
G03*
X7808650Y-10274300I-60000J0D01*
G01*
X8202177Y-11764527D02*
X8202177Y-11679673D01*
X8117323Y-11679673D01*
X8117323Y-11764527D01*
X8202177Y-11764527D01*
X8219750Y-11722100D02*
G75*
G03*
X8219750Y-11722100I-60000J0D01*
G01*
X8202177Y-12145527D02*
X8202177Y-12060673D01*
X8117323Y-12060673D01*
X8117323Y-12145527D01*
X8202177Y-12145527D01*
X8219750Y-12103100D02*
G75*
G03*
X8219750Y-12103100I-60000J0D01*
G01*
X8202177Y-12888477D02*
X8202177Y-12803623D01*
X8117323Y-12803623D01*
X8117323Y-12888477D01*
X8202177Y-12888477D01*
X8219750Y-12846050D02*
G75*
G03*
X8219750Y-12846050I-60000J0D01*
G01*
X8202177Y-13269477D02*
X8202177Y-13184623D01*
X8117323Y-13184623D01*
X8117323Y-13269477D01*
X8202177Y-13269477D01*
X8219750Y-13227050D02*
G75*
G03*
X8219750Y-13227050I-60000J0D01*
G01*
X8202177Y-13961627D02*
X8202177Y-13876773D01*
X8117323Y-13876773D01*
X8117323Y-13961627D01*
X8202177Y-13961627D01*
X8219750Y-13919200D02*
G75*
G03*
X8219750Y-13919200I-60000J0D01*
G01*
X8202177Y-14342627D02*
X8202177Y-14257773D01*
X8117323Y-14257773D01*
X8117323Y-14342627D01*
X8202177Y-14342627D01*
X8219750Y-14300200D02*
G75*
G03*
X8219750Y-14300200I-60000J0D01*
G01*
X8240277Y-8030727D02*
X8240277Y-7945873D01*
X8155423Y-7945873D01*
X8155423Y-8030727D01*
X8240277Y-8030727D01*
X8257850Y-7988300D02*
G75*
G03*
X8257850Y-7988300I-60000J0D01*
G01*
X8240277Y-8411727D02*
X8240277Y-8326873D01*
X8155423Y-8326873D01*
X8155423Y-8411727D01*
X8240277Y-8411727D01*
X8257850Y-8369300D02*
G75*
G03*
X8257850Y-8369300I-60000J0D01*
G01*
X8240277Y-8792727D02*
X8240277Y-8707873D01*
X8155423Y-8707873D01*
X8155423Y-8792727D01*
X8240277Y-8792727D01*
X8257850Y-8750300D02*
G75*
G03*
X8257850Y-8750300I-60000J0D01*
G01*
X8240277Y-9173727D02*
X8240277Y-9088873D01*
X8155423Y-9088873D01*
X8155423Y-9173727D01*
X8240277Y-9173727D01*
X8257850Y-9131300D02*
G75*
G03*
X8257850Y-9131300I-60000J0D01*
G01*
X8291077Y-10316727D02*
X8291077Y-10231873D01*
X8206223Y-10231873D01*
X8206223Y-10316727D01*
X8291077Y-10316727D01*
X8308650Y-10274300D02*
G75*
G03*
X8308650Y-10274300I-60000J0D01*
G01*
X8570477Y-3192027D02*
X8570477Y-3107173D01*
X8485623Y-3107173D01*
X8485623Y-3192027D01*
X8570477Y-3192027D01*
X8588050Y-3149600D02*
G75*
G03*
X8588050Y-3149600I-60000J0D01*
G01*
X8697477Y-15269727D02*
X8697477Y-15184873D01*
X8612623Y-15184873D01*
X8612623Y-15269727D01*
X8697477Y-15269727D01*
X8715050Y-15227300D02*
G75*
G03*
X8715050Y-15227300I-60000J0D01*
G01*
X8951477Y-3192027D02*
X8951477Y-3107173D01*
X8866623Y-3107173D01*
X8866623Y-3192027D01*
X8951477Y-3192027D01*
X8969050Y-3149600D02*
G75*
G03*
X8969050Y-3149600I-60000J0D01*
G01*
X9078477Y-15269727D02*
X9078477Y-15184873D01*
X8993623Y-15184873D01*
X8993623Y-15269727D01*
X9078477Y-15269727D01*
X9096050Y-15227300D02*
G75*
G03*
X9096050Y-15227300I-60000J0D01*
G01*
X9332477Y-3192027D02*
X9332477Y-3107173D01*
X9247623Y-3107173D01*
X9247623Y-3192027D01*
X9332477Y-3192027D01*
X9350050Y-3149600D02*
G75*
G03*
X9350050Y-3149600I-60000J0D01*
G01*
X9713477Y-3192027D02*
X9713477Y-3107173D01*
X9628623Y-3107173D01*
X9628623Y-3192027D01*
X9713477Y-3192027D01*
X9731050Y-3149600D02*
G75*
G03*
X9731050Y-3149600I-60000J0D01*
G01*
X10145277Y-15269727D02*
X10145277Y-15184873D01*
X10060423Y-15184873D01*
X10060423Y-15269727D01*
X10145277Y-15269727D01*
X10162850Y-15227300D02*
G75*
G03*
X10162850Y-15227300I-60000J0D01*
G01*
X10526277Y-15269727D02*
X10526277Y-15184873D01*
X10441423Y-15184873D01*
X10441423Y-15269727D01*
X10526277Y-15269727D01*
X10543850Y-15227300D02*
G75*
G03*
X10543850Y-15227300I-60000J0D01*
G01*
X10907277Y-15269727D02*
X10907277Y-15184873D01*
X10822423Y-15184873D01*
X10822423Y-15269727D01*
X10907277Y-15269727D01*
X10924850Y-15227300D02*
G75*
G03*
X10924850Y-15227300I-60000J0D01*
G01*
X10932677Y-10342127D02*
X10932677Y-10257273D01*
X10847823Y-10257273D01*
X10847823Y-10342127D01*
X10932677Y-10342127D01*
X10950250Y-10299700D02*
G75*
G03*
X10950250Y-10299700I-60000J0D01*
G01*
X11432677Y-10342127D02*
X11432677Y-10257273D01*
X11347823Y-10257273D01*
X11347823Y-10342127D01*
X11432677Y-10342127D01*
X11450250Y-10299700D02*
G75*
G03*
X11450250Y-10299700I-60000J0D01*
G01*
X11491477Y-3192027D02*
X11491477Y-3107173D01*
X11406623Y-3107173D01*
X11406623Y-3192027D01*
X11491477Y-3192027D01*
X11509050Y-3149600D02*
G75*
G03*
X11509050Y-3149600I-60000J0D01*
G01*
X11770877Y-15269727D02*
X11770877Y-15184873D01*
X11686023Y-15184873D01*
X11686023Y-15269727D01*
X11770877Y-15269727D01*
X11788450Y-15227300D02*
G75*
G03*
X11788450Y-15227300I-60000J0D01*
G01*
X11872477Y-3192027D02*
X11872477Y-3107173D01*
X11787623Y-3107173D01*
X11787623Y-3192027D01*
X11872477Y-3192027D01*
X11890050Y-3149600D02*
G75*
G03*
X11890050Y-3149600I-60000J0D01*
G01*
X12151877Y-15269727D02*
X12151877Y-15184873D01*
X12067023Y-15184873D01*
X12067023Y-15269727D01*
X12151877Y-15269727D01*
X12169450Y-15227300D02*
G75*
G03*
X12169450Y-15227300I-60000J0D01*
G01*
X12253477Y-3192027D02*
X12253477Y-3107173D01*
X12168623Y-3107173D01*
X12168623Y-3192027D01*
X12253477Y-3192027D01*
X12271050Y-3149600D02*
G75*
G03*
X12271050Y-3149600I-60000J0D01*
G01*
X12634477Y-3192027D02*
X12634477Y-3107173D01*
X12549623Y-3107173D01*
X12549623Y-3192027D01*
X12634477Y-3192027D01*
X12652050Y-3149600D02*
G75*
G03*
X12652050Y-3149600I-60000J0D01*
G01*
X12990077Y-15269727D02*
X12990077Y-15184873D01*
X12905223Y-15184873D01*
X12905223Y-15269727D01*
X12990077Y-15269727D01*
X13007650Y-15227300D02*
G75*
G03*
X13007650Y-15227300I-60000J0D01*
G01*
X13371077Y-15269727D02*
X13371077Y-15184873D01*
X13286223Y-15184873D01*
X13286223Y-15269727D01*
X13371077Y-15269727D01*
X13388650Y-15227300D02*
G75*
G03*
X13388650Y-15227300I-60000J0D01*
G01*
X14209277Y-15269727D02*
X14209277Y-15184873D01*
X14124423Y-15184873D01*
X14124423Y-15269727D01*
X14209277Y-15269727D01*
X14226850Y-15227300D02*
G75*
G03*
X14226850Y-15227300I-60000J0D01*
G01*
X14412477Y-3192027D02*
X14412477Y-3107173D01*
X14327623Y-3107173D01*
X14327623Y-3192027D01*
X14412477Y-3192027D01*
X14430050Y-3149600D02*
G75*
G03*
X14430050Y-3149600I-60000J0D01*
G01*
X14590277Y-15269727D02*
X14590277Y-15184873D01*
X14505423Y-15184873D01*
X14505423Y-15269727D01*
X14590277Y-15269727D01*
X14607850Y-15227300D02*
G75*
G03*
X14607850Y-15227300I-60000J0D01*
G01*
X14793477Y-3192027D02*
X14793477Y-3107173D01*
X14708623Y-3107173D01*
X14708623Y-3192027D01*
X14793477Y-3192027D01*
X14811050Y-3149600D02*
G75*
G03*
X14811050Y-3149600I-60000J0D01*
G01*
X14971277Y-15269727D02*
X14971277Y-15184873D01*
X14886423Y-15184873D01*
X14886423Y-15269727D01*
X14971277Y-15269727D01*
X14988850Y-15227300D02*
G75*
G03*
X14988850Y-15227300I-60000J0D01*
G01*
X15174477Y-3192027D02*
X15174477Y-3107173D01*
X15089623Y-3107173D01*
X15089623Y-3192027D01*
X15174477Y-3192027D01*
X15192050Y-3149600D02*
G75*
G03*
X15192050Y-3149600I-60000J0D01*
G01*
X15352277Y-15269727D02*
X15352277Y-15184873D01*
X15267423Y-15184873D01*
X15267423Y-15269727D01*
X15352277Y-15269727D01*
X15369850Y-15227300D02*
G75*
G03*
X15369850Y-15227300I-60000J0D01*
G01*
X15555477Y-3192027D02*
X15555477Y-3107173D01*
X15470623Y-3107173D01*
X15470623Y-3192027D01*
X15555477Y-3192027D01*
X15573050Y-3149600D02*
G75*
G03*
X15573050Y-3149600I-60000J0D01*
G01*
X15733277Y-15269727D02*
X15733277Y-15184873D01*
X15648423Y-15184873D01*
X15648423Y-15269727D01*
X15733277Y-15269727D01*
X15750850Y-15227300D02*
G75*
G03*
X15750850Y-15227300I-60000J0D01*
G01*
X16114277Y-15269727D02*
X16114277Y-15184873D01*
X16029423Y-15184873D01*
X16029423Y-15269727D01*
X16114277Y-15269727D01*
X16131850Y-15227300D02*
G75*
G03*
X16131850Y-15227300I-60000J0D01*
G01*
X17333477Y-3192027D02*
X17333477Y-3107173D01*
X17248623Y-3107173D01*
X17248623Y-3192027D01*
X17333477Y-3192027D01*
X17351050Y-3149600D02*
G75*
G03*
X17351050Y-3149600I-60000J0D01*
G01*
X17714477Y-3192027D02*
X17714477Y-3107173D01*
X17629623Y-3107173D01*
X17629623Y-3192027D01*
X17714477Y-3192027D01*
X17732050Y-3149600D02*
G75*
G03*
X17732050Y-3149600I-60000J0D01*
G01*
X18095477Y-3192027D02*
X18095477Y-3107173D01*
X18010623Y-3107173D01*
X18010623Y-3192027D01*
X18095477Y-3192027D01*
X18113050Y-3149600D02*
G75*
G03*
X18113050Y-3149600I-60000J0D01*
G01*
X18476477Y-3192027D02*
X18476477Y-3107173D01*
X18391623Y-3107173D01*
X18391623Y-3192027D01*
X18476477Y-3192027D01*
X18494050Y-3149600D02*
G75*
G03*
X18494050Y-3149600I-60000J0D01*
G01*
X20305277Y-6354327D02*
X20305277Y-6269473D01*
X20220423Y-6269473D01*
X20220423Y-6354327D01*
X20305277Y-6354327D01*
X20322850Y-6311900D02*
G75*
G03*
X20322850Y-6311900I-60000J0D01*
G01*
X20305277Y-6735327D02*
X20305277Y-6650473D01*
X20220423Y-6650473D01*
X20220423Y-6735327D01*
X20305277Y-6735327D01*
X20322850Y-6692900D02*
G75*
G03*
X20322850Y-6692900I-60000J0D01*
G01*
X20305277Y-7116327D02*
X20305277Y-7031473D01*
X20220423Y-7031473D01*
X20220423Y-7116327D01*
X20305277Y-7116327D01*
X20322850Y-7073900D02*
G75*
G03*
X20322850Y-7073900I-60000J0D01*
G01*
X20305277Y-7497327D02*
X20305277Y-7412473D01*
X20220423Y-7412473D01*
X20220423Y-7497327D01*
X20305277Y-7497327D01*
X20322850Y-7454900D02*
G75*
G03*
X20322850Y-7454900I-60000J0D01*
G01*
X20305277Y-7878327D02*
X20305277Y-7793473D01*
X20220423Y-7793473D01*
X20220423Y-7878327D01*
X20305277Y-7878327D01*
X20322850Y-7835900D02*
G75*
G03*
X20322850Y-7835900I-60000J0D01*
G01*
X20305277Y-8259327D02*
X20305277Y-8174473D01*
X20220423Y-8174473D01*
X20220423Y-8259327D01*
X20305277Y-8259327D01*
X20322850Y-8216900D02*
G75*
G03*
X20322850Y-8216900I-60000J0D01*
G01*
X20305277Y-8640327D02*
X20305277Y-8555473D01*
X20220423Y-8555473D01*
X20220423Y-8640327D01*
X20305277Y-8640327D01*
X20322850Y-8597900D02*
G75*
G03*
X20322850Y-8597900I-60000J0D01*
G01*
X20305277Y-9021327D02*
X20305277Y-8936473D01*
X20220423Y-8936473D01*
X20220423Y-9021327D01*
X20305277Y-9021327D01*
X20322850Y-8978900D02*
G75*
G03*
X20322850Y-8978900I-60000J0D01*
G01*
X16741850Y-14976600D02*
X16858350Y-14860100D01*
X16741850Y-14743600D01*
X16625350Y-14860100D01*
X16741850Y-14976600D01*
X16858350Y-14860100D02*
G75*
G03*
X16858350Y-14860100I-116500J0D01*
G01*
X17945850Y-14976600D02*
X18062350Y-14860100D01*
X17945850Y-14743600D01*
X17829350Y-14860100D01*
X17945850Y-14976600D01*
X18062350Y-14860100D02*
G75*
G03*
X18062350Y-14860100I-116500J0D01*
G01*
X18672250Y-14976600D02*
X18788750Y-14860100D01*
X18672250Y-14743600D01*
X18555750Y-14860100D01*
X18672250Y-14976600D01*
X18788750Y-14860100D02*
G75*
G03*
X18788750Y-14860100I-116500J0D01*
G01*
X19876250Y-14976600D02*
X19992750Y-14860100D01*
X19876250Y-14743600D01*
X19759750Y-14860100D01*
X19876250Y-14976600D01*
X19992750Y-14860100D02*
G75*
G03*
X19992750Y-14860100I-116500J0D01*
G01*
X7816850Y-2621300D02*
X7816850Y-2941300D01*
X7656850Y-2781300D02*
X7976850Y-2781300D01*
X7929988Y-2894438D02*
X7929988Y-2668162D01*
X7703712Y-2668162D01*
X7703712Y-2894438D01*
X7929988Y-2894438D01*
X7816850Y-15422900D02*
X7816850Y-15742900D01*
X7656850Y-15582900D02*
X7976850Y-15582900D01*
X7929988Y-15696038D02*
X7929988Y-15469762D01*
X7703712Y-15469762D01*
X7703712Y-15696038D01*
X7929988Y-15696038D01*
X20618450Y-2621300D02*
X20618450Y-2941300D01*
X20458450Y-2781300D02*
X20778450Y-2781300D01*
X20731588Y-2894438D02*
X20731588Y-2668162D01*
X20505312Y-2668162D01*
X20505312Y-2894438D01*
X20731588Y-2894438D01*
X20618450Y-15422900D02*
X20618450Y-15742900D01*
X20458450Y-15582900D02*
X20778450Y-15582900D01*
X20731588Y-15696038D02*
X20731588Y-15469762D01*
X20505312Y-15469762D01*
X20505312Y-15696038D01*
X20731588Y-15696038D01*
X9717650Y-3528100D02*
X9717650Y-4028100D01*
X9467650Y-3778100D02*
X9967650Y-3778100D01*
X9717650Y-4028100D02*
X9967650Y-3778100D01*
X9717650Y-3528100D01*
X9467650Y-3778100D01*
X9717650Y-4028100D01*
X9717650Y-8748100D02*
X9717650Y-9248100D01*
X9467650Y-8998100D02*
X9967650Y-8998100D01*
X9717650Y-9248100D02*
X9967650Y-8998100D01*
X9717650Y-8748100D01*
X9467650Y-8998100D01*
X9717650Y-9248100D01*
X14217650Y-3528100D02*
X14217650Y-4028100D01*
X13967650Y-3778100D02*
X14467650Y-3778100D01*
X14217650Y-4028100D02*
X14467650Y-3778100D01*
X14217650Y-3528100D01*
X13967650Y-3778100D01*
X14217650Y-4028100D01*
X14217650Y-8748100D02*
X14217650Y-9248100D01*
X13967650Y-8998100D02*
X14467650Y-8998100D01*
X14217650Y-9248100D02*
X14467650Y-8998100D01*
X14217650Y-8748100D01*
X13967650Y-8998100D01*
X14217650Y-9248100D01*
X18717650Y-3528100D02*
X18717650Y-4028100D01*
X18467650Y-3778100D02*
X18967650Y-3778100D01*
X18717650Y-4028100D02*
X18967650Y-3778100D01*
X18717650Y-3528100D01*
X18467650Y-3778100D01*
X18717650Y-4028100D01*
X18717650Y-8748100D02*
X18717650Y-9248100D01*
X18467650Y-8998100D02*
X18967650Y-8998100D01*
X18717650Y-9248100D02*
X18967650Y-8998100D01*
X18717650Y-8748100D01*
X18467650Y-8998100D01*
X18717650Y-9248100D01*
D12*
X7567378Y-16571814D02*
X7567378Y-16271814D01*
X7638807Y-16271814D01*
X7681664Y-16286100D01*
X7710236Y-16314671D01*
X7724521Y-16343243D01*
X7738807Y-16400386D01*
X7738807Y-16443243D01*
X7724521Y-16500386D01*
X7710236Y-16528957D01*
X7681664Y-16557529D01*
X7638807Y-16571814D01*
X7567378Y-16571814D01*
X7867378Y-16571814D02*
X7867378Y-16371814D01*
X7867378Y-16428957D02*
X7881664Y-16400386D01*
X7895950Y-16386100D01*
X7924521Y-16371814D01*
X7953093Y-16371814D01*
X8053093Y-16571814D02*
X8053093Y-16371814D01*
X8053093Y-16271814D02*
X8038807Y-16286100D01*
X8053093Y-16300386D01*
X8067378Y-16286100D01*
X8053093Y-16271814D01*
X8053093Y-16300386D01*
X8238807Y-16571814D02*
X8210236Y-16557529D01*
X8195950Y-16528957D01*
X8195950Y-16271814D01*
X8395950Y-16571814D02*
X8367378Y-16557529D01*
X8353093Y-16528957D01*
X8353093Y-16271814D01*
X8738807Y-16571814D02*
X8738807Y-16271814D01*
X8838807Y-16486100D01*
X8938807Y-16271814D01*
X8938807Y-16571814D01*
X9210236Y-16571814D02*
X9210236Y-16414671D01*
X9195950Y-16386100D01*
X9167378Y-16371814D01*
X9110236Y-16371814D01*
X9081664Y-16386100D01*
X9210236Y-16557529D02*
X9181664Y-16571814D01*
X9110236Y-16571814D01*
X9081664Y-16557529D01*
X9067378Y-16528957D01*
X9067378Y-16500386D01*
X9081664Y-16471814D01*
X9110236Y-16457529D01*
X9181664Y-16457529D01*
X9210236Y-16443243D01*
X9353093Y-16371814D02*
X9353093Y-16671814D01*
X9353093Y-16386100D02*
X9381664Y-16371814D01*
X9438807Y-16371814D01*
X9467378Y-16386100D01*
X9481664Y-16400386D01*
X9495950Y-16428957D01*
X9495950Y-16514671D01*
X9481664Y-16543243D01*
X9467378Y-16557529D01*
X9438807Y-16571814D01*
X9381664Y-16571814D01*
X9353093Y-16557529D01*
X9624521Y-16543243D02*
X9638807Y-16557529D01*
X9624521Y-16571814D01*
X9610236Y-16557529D01*
X9624521Y-16543243D01*
X9624521Y-16571814D01*
X9624521Y-16386100D02*
X9638807Y-16400386D01*
X9624521Y-16414671D01*
X9610236Y-16400386D01*
X9624521Y-16386100D01*
X9624521Y-16414671D01*
X7260950Y-17056100D02*
X7280950Y-17076100D01*
X7280950Y-17056100D02*
X7260950Y-17076100D01*
X7624521Y-16901814D02*
X7653093Y-16901814D01*
X7681664Y-16916100D01*
X7695950Y-16930386D01*
X7710236Y-16958957D01*
X7724521Y-17016100D01*
X7724521Y-17087529D01*
X7710236Y-17144672D01*
X7695950Y-17173243D01*
X7681664Y-17187529D01*
X7653093Y-17201814D01*
X7624521Y-17201814D01*
X7595950Y-17187529D01*
X7581664Y-17173243D01*
X7567378Y-17144672D01*
X7553093Y-17087529D01*
X7553093Y-17016100D01*
X7567378Y-16958957D01*
X7581664Y-16930386D01*
X7595950Y-16916100D01*
X7624521Y-16901814D01*
X7853093Y-17173243D02*
X7867378Y-17187529D01*
X7853093Y-17201814D01*
X7838807Y-17187529D01*
X7853093Y-17173243D01*
X7853093Y-17201814D01*
X7981664Y-16930386D02*
X7995950Y-16916100D01*
X8024521Y-16901814D01*
X8095950Y-16901814D01*
X8124521Y-16916100D01*
X8138807Y-16930386D01*
X8153093Y-16958957D01*
X8153093Y-16987529D01*
X8138807Y-17030386D01*
X7967378Y-17201814D01*
X8153093Y-17201814D01*
X8338807Y-16901814D02*
X8367378Y-16901814D01*
X8395950Y-16916100D01*
X8410236Y-16930386D01*
X8424521Y-16958957D01*
X8438807Y-17016100D01*
X8438807Y-17087529D01*
X8424521Y-17144672D01*
X8410236Y-17173243D01*
X8395950Y-17187529D01*
X8367378Y-17201814D01*
X8338807Y-17201814D01*
X8310236Y-17187529D01*
X8295950Y-17173243D01*
X8281664Y-17144672D01*
X8267378Y-17087529D01*
X8267378Y-17016100D01*
X8281664Y-16958957D01*
X8295950Y-16930386D01*
X8310236Y-16916100D01*
X8338807Y-16901814D01*
X8624521Y-16901814D02*
X8653093Y-16901814D01*
X8681664Y-16916100D01*
X8695950Y-16930386D01*
X8710236Y-16958957D01*
X8724521Y-17016100D01*
X8724521Y-17087529D01*
X8710236Y-17144672D01*
X8695950Y-17173243D01*
X8681664Y-17187529D01*
X8653093Y-17201814D01*
X8624521Y-17201814D01*
X8595950Y-17187529D01*
X8581664Y-17173243D01*
X8567378Y-17144672D01*
X8553093Y-17087529D01*
X8553093Y-17016100D01*
X8567378Y-16958957D01*
X8581664Y-16930386D01*
X8595950Y-16916100D01*
X8624521Y-16901814D01*
X8853093Y-17201814D02*
X8853093Y-17001814D01*
X8853093Y-17030386D02*
X8867378Y-17016100D01*
X8895950Y-17001814D01*
X8938807Y-17001814D01*
X8967378Y-17016100D01*
X8981664Y-17044672D01*
X8981664Y-17201814D01*
X8981664Y-17044672D02*
X8995950Y-17016100D01*
X9024521Y-17001814D01*
X9067378Y-17001814D01*
X9095950Y-17016100D01*
X9110236Y-17044672D01*
X9110236Y-17201814D01*
X9253093Y-17201814D02*
X9253093Y-17001814D01*
X9253093Y-17030386D02*
X9267378Y-17016100D01*
X9295950Y-17001814D01*
X9338807Y-17001814D01*
X9367378Y-17016100D01*
X9381664Y-17044672D01*
X9381664Y-17201814D01*
X9381664Y-17044672D02*
X9395950Y-17016100D01*
X9424521Y-17001814D01*
X9467378Y-17001814D01*
X9495950Y-17016100D01*
X9510236Y-17044672D01*
X9510236Y-17201814D01*
X10095950Y-16887529D02*
X9838807Y-17273243D01*
X10481664Y-16901814D02*
X10510236Y-16901814D01*
X10538807Y-16916100D01*
X10553093Y-16930386D01*
X10567378Y-16958957D01*
X10581664Y-17016100D01*
X10581664Y-17087529D01*
X10567378Y-17144672D01*
X10553093Y-17173243D01*
X10538807Y-17187529D01*
X10510236Y-17201814D01*
X10481664Y-17201814D01*
X10453093Y-17187529D01*
X10438807Y-17173243D01*
X10424521Y-17144672D01*
X10410236Y-17087529D01*
X10410236Y-17016100D01*
X10424521Y-16958957D01*
X10438807Y-16930386D01*
X10453093Y-16916100D01*
X10481664Y-16901814D01*
X10710236Y-17173243D02*
X10724521Y-17187529D01*
X10710236Y-17201814D01*
X10695950Y-17187529D01*
X10710236Y-17173243D01*
X10710236Y-17201814D01*
X10910236Y-16901814D02*
X10938807Y-16901814D01*
X10967378Y-16916100D01*
X10981664Y-16930386D01*
X10995950Y-16958957D01*
X11010236Y-17016100D01*
X11010236Y-17087529D01*
X10995950Y-17144672D01*
X10981664Y-17173243D01*
X10967378Y-17187529D01*
X10938807Y-17201814D01*
X10910236Y-17201814D01*
X10881664Y-17187529D01*
X10867378Y-17173243D01*
X10853093Y-17144672D01*
X10838807Y-17087529D01*
X10838807Y-17016100D01*
X10853093Y-16958957D01*
X10867378Y-16930386D01*
X10881664Y-16916100D01*
X10910236Y-16901814D01*
X11195950Y-16901814D02*
X11224521Y-16901814D01*
X11253093Y-16916100D01*
X11267378Y-16930386D01*
X11281664Y-16958957D01*
X11295950Y-17016100D01*
X11295950Y-17087529D01*
X11281664Y-17144672D01*
X11267378Y-17173243D01*
X11253093Y-17187529D01*
X11224521Y-17201814D01*
X11195950Y-17201814D01*
X11167378Y-17187529D01*
X11153093Y-17173243D01*
X11138807Y-17144672D01*
X11124521Y-17087529D01*
X11124521Y-17016100D01*
X11138807Y-16958957D01*
X11153093Y-16930386D01*
X11167378Y-16916100D01*
X11195950Y-16901814D01*
X11395950Y-16901814D02*
X11595950Y-16901814D01*
X11467378Y-17201814D01*
X11724521Y-17201814D02*
X11781664Y-17201814D01*
X11810236Y-17187529D01*
X11824521Y-17173243D01*
X11853093Y-17130386D01*
X11867378Y-17073243D01*
X11867378Y-16958957D01*
X11853093Y-16930386D01*
X11838807Y-16916100D01*
X11810236Y-16901814D01*
X11753093Y-16901814D01*
X11724521Y-16916100D01*
X11710236Y-16930386D01*
X11695950Y-16958957D01*
X11695950Y-17030386D01*
X11710236Y-17058957D01*
X11724521Y-17073243D01*
X11753093Y-17087529D01*
X11810236Y-17087529D01*
X11838807Y-17073243D01*
X11853093Y-17058957D01*
X11867378Y-17030386D01*
X11981664Y-16901814D02*
X11981664Y-16958957D01*
X12095950Y-16901814D02*
X12095950Y-16958957D01*
X12538807Y-17316100D02*
X12524521Y-17301814D01*
X12495950Y-17258957D01*
X12481664Y-17230386D01*
X12467378Y-17187529D01*
X12453093Y-17116100D01*
X12453093Y-17058957D01*
X12467378Y-16987529D01*
X12481664Y-16944672D01*
X12495950Y-16916100D01*
X12524521Y-16873243D01*
X12538807Y-16858957D01*
X12810236Y-17201814D02*
X12638807Y-17201814D01*
X12724521Y-17201814D02*
X12724521Y-16901814D01*
X12695950Y-16944672D01*
X12667378Y-16973243D01*
X12638807Y-16987529D01*
X12924521Y-16930386D02*
X12938807Y-16916100D01*
X12967378Y-16901814D01*
X13038807Y-16901814D01*
X13067378Y-16916100D01*
X13081664Y-16930386D01*
X13095950Y-16958957D01*
X13095950Y-16987529D01*
X13081664Y-17030386D01*
X12910236Y-17201814D01*
X13095950Y-17201814D01*
X13453093Y-17201814D02*
X13453093Y-16901814D01*
X13581664Y-17201814D02*
X13581664Y-17044672D01*
X13567378Y-17016100D01*
X13538807Y-17001814D01*
X13495950Y-17001814D01*
X13467378Y-17016100D01*
X13453093Y-17030386D01*
X13767378Y-17201814D02*
X13738807Y-17187529D01*
X13724521Y-17173243D01*
X13710236Y-17144672D01*
X13710236Y-17058957D01*
X13724521Y-17030386D01*
X13738807Y-17016100D01*
X13767378Y-17001814D01*
X13810236Y-17001814D01*
X13838807Y-17016100D01*
X13853093Y-17030386D01*
X13867378Y-17058957D01*
X13867378Y-17144672D01*
X13853093Y-17173243D01*
X13838807Y-17187529D01*
X13810236Y-17201814D01*
X13767378Y-17201814D01*
X14038807Y-17201814D02*
X14010236Y-17187529D01*
X13995950Y-17158957D01*
X13995950Y-16901814D01*
X14267378Y-17187529D02*
X14238807Y-17201814D01*
X14181664Y-17201814D01*
X14153093Y-17187529D01*
X14138807Y-17158957D01*
X14138807Y-17044672D01*
X14153093Y-17016100D01*
X14181664Y-17001814D01*
X14238807Y-17001814D01*
X14267378Y-17016100D01*
X14281664Y-17044672D01*
X14281664Y-17073243D01*
X14138807Y-17101814D01*
X14395950Y-17187529D02*
X14424521Y-17201814D01*
X14481664Y-17201814D01*
X14510236Y-17187529D01*
X14524521Y-17158957D01*
X14524521Y-17144672D01*
X14510236Y-17116100D01*
X14481664Y-17101814D01*
X14438807Y-17101814D01*
X14410236Y-17087529D01*
X14395950Y-17058957D01*
X14395950Y-17044672D01*
X14410236Y-17016100D01*
X14438807Y-17001814D01*
X14481664Y-17001814D01*
X14510236Y-17016100D01*
X14624521Y-17316100D02*
X14638807Y-17301814D01*
X14667378Y-17258957D01*
X14681664Y-17230386D01*
X14695950Y-17187529D01*
X14710236Y-17116100D01*
X14710236Y-17058957D01*
X14695950Y-16987529D01*
X14681664Y-16944672D01*
X14667378Y-16916100D01*
X14638807Y-16873243D01*
X14624521Y-16858957D01*
X7280950Y-17462100D02*
G75*
G03*
X7280950Y-17462100I-15000J0D01*
G01*
X7624521Y-17297814D02*
X7653093Y-17297814D01*
X7681664Y-17312100D01*
X7695950Y-17326386D01*
X7710236Y-17354957D01*
X7724521Y-17412100D01*
X7724521Y-17483529D01*
X7710236Y-17540672D01*
X7695950Y-17569243D01*
X7681664Y-17583529D01*
X7653093Y-17597814D01*
X7624521Y-17597814D01*
X7595950Y-17583529D01*
X7581664Y-17569243D01*
X7567378Y-17540672D01*
X7553093Y-17483529D01*
X7553093Y-17412100D01*
X7567378Y-17354957D01*
X7581664Y-17326386D01*
X7595950Y-17312100D01*
X7624521Y-17297814D01*
X7853093Y-17569243D02*
X7867378Y-17583529D01*
X7853093Y-17597814D01*
X7838807Y-17583529D01*
X7853093Y-17569243D01*
X7853093Y-17597814D01*
X7967378Y-17297814D02*
X8153093Y-17297814D01*
X8053093Y-17412100D01*
X8095950Y-17412100D01*
X8124521Y-17426386D01*
X8138807Y-17440672D01*
X8153093Y-17469243D01*
X8153093Y-17540672D01*
X8138807Y-17569243D01*
X8124521Y-17583529D01*
X8095950Y-17597814D01*
X8010236Y-17597814D01*
X7981664Y-17583529D01*
X7967378Y-17569243D01*
X8338807Y-17297814D02*
X8367378Y-17297814D01*
X8395950Y-17312100D01*
X8410236Y-17326386D01*
X8424521Y-17354957D01*
X8438807Y-17412100D01*
X8438807Y-17483529D01*
X8424521Y-17540672D01*
X8410236Y-17569243D01*
X8395950Y-17583529D01*
X8367378Y-17597814D01*
X8338807Y-17597814D01*
X8310236Y-17583529D01*
X8295950Y-17569243D01*
X8281664Y-17540672D01*
X8267378Y-17483529D01*
X8267378Y-17412100D01*
X8281664Y-17354957D01*
X8295950Y-17326386D01*
X8310236Y-17312100D01*
X8338807Y-17297814D01*
X8624521Y-17297814D02*
X8653093Y-17297814D01*
X8681664Y-17312100D01*
X8695950Y-17326386D01*
X8710236Y-17354957D01*
X8724521Y-17412100D01*
X8724521Y-17483529D01*
X8710236Y-17540672D01*
X8695950Y-17569243D01*
X8681664Y-17583529D01*
X8653093Y-17597814D01*
X8624521Y-17597814D01*
X8595950Y-17583529D01*
X8581664Y-17569243D01*
X8567378Y-17540672D01*
X8553093Y-17483529D01*
X8553093Y-17412100D01*
X8567378Y-17354957D01*
X8581664Y-17326386D01*
X8595950Y-17312100D01*
X8624521Y-17297814D01*
X8853093Y-17597814D02*
X8853093Y-17397814D01*
X8853093Y-17426386D02*
X8867378Y-17412100D01*
X8895950Y-17397814D01*
X8938807Y-17397814D01*
X8967378Y-17412100D01*
X8981664Y-17440672D01*
X8981664Y-17597814D01*
X8981664Y-17440672D02*
X8995950Y-17412100D01*
X9024521Y-17397814D01*
X9067378Y-17397814D01*
X9095950Y-17412100D01*
X9110236Y-17440672D01*
X9110236Y-17597814D01*
X9253093Y-17597814D02*
X9253093Y-17397814D01*
X9253093Y-17426386D02*
X9267378Y-17412100D01*
X9295950Y-17397814D01*
X9338807Y-17397814D01*
X9367378Y-17412100D01*
X9381664Y-17440672D01*
X9381664Y-17597814D01*
X9381664Y-17440672D02*
X9395950Y-17412100D01*
X9424521Y-17397814D01*
X9467378Y-17397814D01*
X9495950Y-17412100D01*
X9510236Y-17440672D01*
X9510236Y-17597814D01*
X10095950Y-17283529D02*
X9838807Y-17669243D01*
X10481664Y-17297814D02*
X10510236Y-17297814D01*
X10538807Y-17312100D01*
X10553093Y-17326386D01*
X10567378Y-17354957D01*
X10581664Y-17412100D01*
X10581664Y-17483529D01*
X10567378Y-17540672D01*
X10553093Y-17569243D01*
X10538807Y-17583529D01*
X10510236Y-17597814D01*
X10481664Y-17597814D01*
X10453093Y-17583529D01*
X10438807Y-17569243D01*
X10424521Y-17540672D01*
X10410236Y-17483529D01*
X10410236Y-17412100D01*
X10424521Y-17354957D01*
X10438807Y-17326386D01*
X10453093Y-17312100D01*
X10481664Y-17297814D01*
X10710236Y-17569243D02*
X10724521Y-17583529D01*
X10710236Y-17597814D01*
X10695950Y-17583529D01*
X10710236Y-17569243D01*
X10710236Y-17597814D01*
X10910236Y-17297814D02*
X10938807Y-17297814D01*
X10967378Y-17312100D01*
X10981664Y-17326386D01*
X10995950Y-17354957D01*
X11010236Y-17412100D01*
X11010236Y-17483529D01*
X10995950Y-17540672D01*
X10981664Y-17569243D01*
X10967378Y-17583529D01*
X10938807Y-17597814D01*
X10910236Y-17597814D01*
X10881664Y-17583529D01*
X10867378Y-17569243D01*
X10853093Y-17540672D01*
X10838807Y-17483529D01*
X10838807Y-17412100D01*
X10853093Y-17354957D01*
X10867378Y-17326386D01*
X10881664Y-17312100D01*
X10910236Y-17297814D01*
X11295950Y-17597814D02*
X11124521Y-17597814D01*
X11210236Y-17597814D02*
X11210236Y-17297814D01*
X11181664Y-17340672D01*
X11153093Y-17369243D01*
X11124521Y-17383529D01*
X11581664Y-17597814D02*
X11410236Y-17597814D01*
X11495950Y-17597814D02*
X11495950Y-17297814D01*
X11467378Y-17340672D01*
X11438807Y-17369243D01*
X11410236Y-17383529D01*
X11753093Y-17426386D02*
X11724521Y-17412100D01*
X11710236Y-17397814D01*
X11695950Y-17369243D01*
X11695950Y-17354957D01*
X11710236Y-17326386D01*
X11724521Y-17312100D01*
X11753093Y-17297814D01*
X11810236Y-17297814D01*
X11838807Y-17312100D01*
X11853093Y-17326386D01*
X11867378Y-17354957D01*
X11867378Y-17369243D01*
X11853093Y-17397814D01*
X11838807Y-17412100D01*
X11810236Y-17426386D01*
X11753093Y-17426386D01*
X11724521Y-17440672D01*
X11710236Y-17454957D01*
X11695950Y-17483529D01*
X11695950Y-17540672D01*
X11710236Y-17569243D01*
X11724521Y-17583529D01*
X11753093Y-17597814D01*
X11810236Y-17597814D01*
X11838807Y-17583529D01*
X11853093Y-17569243D01*
X11867378Y-17540672D01*
X11867378Y-17483529D01*
X11853093Y-17454957D01*
X11838807Y-17440672D01*
X11810236Y-17426386D01*
X11981664Y-17297814D02*
X11981664Y-17354957D01*
X12095950Y-17297814D02*
X12095950Y-17354957D01*
X12538807Y-17712100D02*
X12524521Y-17697814D01*
X12495950Y-17654957D01*
X12481664Y-17626386D01*
X12467378Y-17583529D01*
X12453093Y-17512100D01*
X12453093Y-17454957D01*
X12467378Y-17383529D01*
X12481664Y-17340672D01*
X12495950Y-17312100D01*
X12524521Y-17269243D01*
X12538807Y-17254957D01*
X12810236Y-17597814D02*
X12638807Y-17597814D01*
X12724521Y-17597814D02*
X12724521Y-17297814D01*
X12695950Y-17340672D01*
X12667378Y-17369243D01*
X12638807Y-17383529D01*
X13095950Y-17597814D02*
X12924521Y-17597814D01*
X13010236Y-17597814D02*
X13010236Y-17297814D01*
X12981664Y-17340672D01*
X12953093Y-17369243D01*
X12924521Y-17383529D01*
X13195950Y-17297814D02*
X13395950Y-17297814D01*
X13267378Y-17597814D01*
X13738807Y-17597814D02*
X13738807Y-17297814D01*
X13867378Y-17597814D02*
X13867378Y-17440672D01*
X13853093Y-17412100D01*
X13824521Y-17397814D01*
X13781664Y-17397814D01*
X13753093Y-17412100D01*
X13738807Y-17426386D01*
X14053093Y-17597814D02*
X14024521Y-17583529D01*
X14010236Y-17569243D01*
X13995950Y-17540672D01*
X13995950Y-17454957D01*
X14010236Y-17426386D01*
X14024521Y-17412100D01*
X14053093Y-17397814D01*
X14095950Y-17397814D01*
X14124521Y-17412100D01*
X14138807Y-17426386D01*
X14153093Y-17454957D01*
X14153093Y-17540672D01*
X14138807Y-17569243D01*
X14124521Y-17583529D01*
X14095950Y-17597814D01*
X14053093Y-17597814D01*
X14324521Y-17597814D02*
X14295950Y-17583529D01*
X14281664Y-17554957D01*
X14281664Y-17297814D01*
X14553093Y-17583529D02*
X14524521Y-17597814D01*
X14467378Y-17597814D01*
X14438807Y-17583529D01*
X14424521Y-17554957D01*
X14424521Y-17440672D01*
X14438807Y-17412100D01*
X14467378Y-17397814D01*
X14524521Y-17397814D01*
X14553093Y-17412100D01*
X14567378Y-17440672D01*
X14567378Y-17469243D01*
X14424521Y-17497814D01*
X14681664Y-17583529D02*
X14710236Y-17597814D01*
X14767378Y-17597814D01*
X14795950Y-17583529D01*
X14810236Y-17554957D01*
X14810236Y-17540672D01*
X14795950Y-17512100D01*
X14767378Y-17497814D01*
X14724521Y-17497814D01*
X14695950Y-17483529D01*
X14681664Y-17454957D01*
X14681664Y-17440672D01*
X14695950Y-17412100D01*
X14724521Y-17397814D01*
X14767378Y-17397814D01*
X14795950Y-17412100D01*
X14910236Y-17712100D02*
X14924521Y-17697814D01*
X14953093Y-17654957D01*
X14967378Y-17626386D01*
X14981664Y-17583529D01*
X14995950Y-17512100D01*
X14995950Y-17454957D01*
X14981664Y-17383529D01*
X14967378Y-17340672D01*
X14953093Y-17312100D01*
X14924521Y-17269243D01*
X14910236Y-17254957D01*
X7260950Y-17838100D02*
X7260950Y-17878100D01*
X7240950Y-17858100D02*
X7280950Y-17858100D01*
X7624521Y-17693814D02*
X7653093Y-17693814D01*
X7681664Y-17708100D01*
X7695950Y-17722386D01*
X7710236Y-17750957D01*
X7724521Y-17808100D01*
X7724521Y-17879529D01*
X7710236Y-17936672D01*
X7695950Y-17965243D01*
X7681664Y-17979529D01*
X7653093Y-17993814D01*
X7624521Y-17993814D01*
X7595950Y-17979529D01*
X7581664Y-17965243D01*
X7567378Y-17936672D01*
X7553093Y-17879529D01*
X7553093Y-17808100D01*
X7567378Y-17750957D01*
X7581664Y-17722386D01*
X7595950Y-17708100D01*
X7624521Y-17693814D01*
X7853093Y-17965243D02*
X7867378Y-17979529D01*
X7853093Y-17993814D01*
X7838807Y-17979529D01*
X7853093Y-17965243D01*
X7853093Y-17993814D01*
X8124521Y-17793814D02*
X8124521Y-17993814D01*
X8053093Y-17679529D02*
X7981664Y-17893814D01*
X8167378Y-17893814D01*
X8338807Y-17693814D02*
X8367378Y-17693814D01*
X8395950Y-17708100D01*
X8410236Y-17722386D01*
X8424521Y-17750957D01*
X8438807Y-17808100D01*
X8438807Y-17879529D01*
X8424521Y-17936672D01*
X8410236Y-17965243D01*
X8395950Y-17979529D01*
X8367378Y-17993814D01*
X8338807Y-17993814D01*
X8310236Y-17979529D01*
X8295950Y-17965243D01*
X8281664Y-17936672D01*
X8267378Y-17879529D01*
X8267378Y-17808100D01*
X8281664Y-17750957D01*
X8295950Y-17722386D01*
X8310236Y-17708100D01*
X8338807Y-17693814D01*
X8624521Y-17693814D02*
X8653093Y-17693814D01*
X8681664Y-17708100D01*
X8695950Y-17722386D01*
X8710236Y-17750957D01*
X8724521Y-17808100D01*
X8724521Y-17879529D01*
X8710236Y-17936672D01*
X8695950Y-17965243D01*
X8681664Y-17979529D01*
X8653093Y-17993814D01*
X8624521Y-17993814D01*
X8595950Y-17979529D01*
X8581664Y-17965243D01*
X8567378Y-17936672D01*
X8553093Y-17879529D01*
X8553093Y-17808100D01*
X8567378Y-17750957D01*
X8581664Y-17722386D01*
X8595950Y-17708100D01*
X8624521Y-17693814D01*
X8853093Y-17993814D02*
X8853093Y-17793814D01*
X8853093Y-17822386D02*
X8867378Y-17808100D01*
X8895950Y-17793814D01*
X8938807Y-17793814D01*
X8967378Y-17808100D01*
X8981664Y-17836672D01*
X8981664Y-17993814D01*
X8981664Y-17836672D02*
X8995950Y-17808100D01*
X9024521Y-17793814D01*
X9067378Y-17793814D01*
X9095950Y-17808100D01*
X9110236Y-17836672D01*
X9110236Y-17993814D01*
X9253093Y-17993814D02*
X9253093Y-17793814D01*
X9253093Y-17822386D02*
X9267378Y-17808100D01*
X9295950Y-17793814D01*
X9338807Y-17793814D01*
X9367378Y-17808100D01*
X9381664Y-17836672D01*
X9381664Y-17993814D01*
X9381664Y-17836672D02*
X9395950Y-17808100D01*
X9424521Y-17793814D01*
X9467378Y-17793814D01*
X9495950Y-17808100D01*
X9510236Y-17836672D01*
X9510236Y-17993814D01*
X10095950Y-17679529D02*
X9838807Y-18065243D01*
X10481664Y-17693814D02*
X10510236Y-17693814D01*
X10538807Y-17708100D01*
X10553093Y-17722386D01*
X10567378Y-17750957D01*
X10581664Y-17808100D01*
X10581664Y-17879529D01*
X10567378Y-17936672D01*
X10553093Y-17965243D01*
X10538807Y-17979529D01*
X10510236Y-17993814D01*
X10481664Y-17993814D01*
X10453093Y-17979529D01*
X10438807Y-17965243D01*
X10424521Y-17936672D01*
X10410236Y-17879529D01*
X10410236Y-17808100D01*
X10424521Y-17750957D01*
X10438807Y-17722386D01*
X10453093Y-17708100D01*
X10481664Y-17693814D01*
X10710236Y-17965243D02*
X10724521Y-17979529D01*
X10710236Y-17993814D01*
X10695950Y-17979529D01*
X10710236Y-17965243D01*
X10710236Y-17993814D01*
X10910236Y-17693814D02*
X10938807Y-17693814D01*
X10967378Y-17708100D01*
X10981664Y-17722386D01*
X10995950Y-17750957D01*
X11010236Y-17808100D01*
X11010236Y-17879529D01*
X10995950Y-17936672D01*
X10981664Y-17965243D01*
X10967378Y-17979529D01*
X10938807Y-17993814D01*
X10910236Y-17993814D01*
X10881664Y-17979529D01*
X10867378Y-17965243D01*
X10853093Y-17936672D01*
X10838807Y-17879529D01*
X10838807Y-17808100D01*
X10853093Y-17750957D01*
X10867378Y-17722386D01*
X10881664Y-17708100D01*
X10910236Y-17693814D01*
X11295950Y-17993814D02*
X11124521Y-17993814D01*
X11210236Y-17993814D02*
X11210236Y-17693814D01*
X11181664Y-17736672D01*
X11153093Y-17765243D01*
X11124521Y-17779529D01*
X11567378Y-17693814D02*
X11424521Y-17693814D01*
X11410236Y-17836672D01*
X11424521Y-17822386D01*
X11453093Y-17808100D01*
X11524521Y-17808100D01*
X11553093Y-17822386D01*
X11567378Y-17836672D01*
X11581664Y-17865243D01*
X11581664Y-17936672D01*
X11567378Y-17965243D01*
X11553093Y-17979529D01*
X11524521Y-17993814D01*
X11453093Y-17993814D01*
X11424521Y-17979529D01*
X11410236Y-17965243D01*
X11681664Y-17693814D02*
X11881664Y-17693814D01*
X11753093Y-17993814D01*
X11981664Y-17693814D02*
X11981664Y-17750957D01*
X12095950Y-17693814D02*
X12095950Y-17750957D01*
X12538807Y-18108100D02*
X12524521Y-18093814D01*
X12495950Y-18050957D01*
X12481664Y-18022386D01*
X12467378Y-17979529D01*
X12453093Y-17908100D01*
X12453093Y-17850957D01*
X12467378Y-17779529D01*
X12481664Y-17736672D01*
X12495950Y-17708100D01*
X12524521Y-17665243D01*
X12538807Y-17650957D01*
X12810236Y-17993814D02*
X12638807Y-17993814D01*
X12724521Y-17993814D02*
X12724521Y-17693814D01*
X12695950Y-17736672D01*
X12667378Y-17765243D01*
X12638807Y-17779529D01*
X13095950Y-17993814D02*
X12924521Y-17993814D01*
X13010236Y-17993814D02*
X13010236Y-17693814D01*
X12981664Y-17736672D01*
X12953093Y-17765243D01*
X12924521Y-17779529D01*
X13453093Y-17993814D02*
X13453093Y-17693814D01*
X13581664Y-17993814D02*
X13581664Y-17836672D01*
X13567378Y-17808100D01*
X13538807Y-17793814D01*
X13495950Y-17793814D01*
X13467378Y-17808100D01*
X13453093Y-17822386D01*
X13767378Y-17993814D02*
X13738807Y-17979529D01*
X13724521Y-17965243D01*
X13710236Y-17936672D01*
X13710236Y-17850957D01*
X13724521Y-17822386D01*
X13738807Y-17808100D01*
X13767378Y-17793814D01*
X13810236Y-17793814D01*
X13838807Y-17808100D01*
X13853093Y-17822386D01*
X13867378Y-17850957D01*
X13867378Y-17936672D01*
X13853093Y-17965243D01*
X13838807Y-17979529D01*
X13810236Y-17993814D01*
X13767378Y-17993814D01*
X14038807Y-17993814D02*
X14010236Y-17979529D01*
X13995950Y-17950957D01*
X13995950Y-17693814D01*
X14267378Y-17979529D02*
X14238807Y-17993814D01*
X14181664Y-17993814D01*
X14153093Y-17979529D01*
X14138807Y-17950957D01*
X14138807Y-17836672D01*
X14153093Y-17808100D01*
X14181664Y-17793814D01*
X14238807Y-17793814D01*
X14267378Y-17808100D01*
X14281664Y-17836672D01*
X14281664Y-17865243D01*
X14138807Y-17893814D01*
X14395950Y-17979529D02*
X14424521Y-17993814D01*
X14481664Y-17993814D01*
X14510236Y-17979529D01*
X14524521Y-17950957D01*
X14524521Y-17936672D01*
X14510236Y-17908100D01*
X14481664Y-17893814D01*
X14438807Y-17893814D01*
X14410236Y-17879529D01*
X14395950Y-17850957D01*
X14395950Y-17836672D01*
X14410236Y-17808100D01*
X14438807Y-17793814D01*
X14481664Y-17793814D01*
X14510236Y-17808100D01*
X14624521Y-18108100D02*
X14638807Y-18093814D01*
X14667378Y-18050957D01*
X14681664Y-18022386D01*
X14695950Y-17979529D01*
X14710236Y-17908100D01*
X14710236Y-17850957D01*
X14695950Y-17779529D01*
X14681664Y-17736672D01*
X14667378Y-17708100D01*
X14638807Y-17665243D01*
X14624521Y-17650957D01*
X7272163Y-18275314D02*
X7272163Y-18232887D01*
X7229736Y-18232887D01*
X7229736Y-18275314D01*
X7272163Y-18275314D01*
X7624521Y-18089814D02*
X7653093Y-18089814D01*
X7681664Y-18104100D01*
X7695950Y-18118386D01*
X7710236Y-18146957D01*
X7724521Y-18204100D01*
X7724521Y-18275529D01*
X7710236Y-18332672D01*
X7695950Y-18361243D01*
X7681664Y-18375529D01*
X7653093Y-18389814D01*
X7624521Y-18389814D01*
X7595950Y-18375529D01*
X7581664Y-18361243D01*
X7567378Y-18332672D01*
X7553093Y-18275529D01*
X7553093Y-18204100D01*
X7567378Y-18146957D01*
X7581664Y-18118386D01*
X7595950Y-18104100D01*
X7624521Y-18089814D01*
X7853093Y-18361243D02*
X7867378Y-18375529D01*
X7853093Y-18389814D01*
X7838807Y-18375529D01*
X7853093Y-18361243D01*
X7853093Y-18389814D01*
X8124521Y-18089814D02*
X8067378Y-18089814D01*
X8038807Y-18104100D01*
X8024521Y-18118386D01*
X7995950Y-18161243D01*
X7981664Y-18218386D01*
X7981664Y-18332672D01*
X7995950Y-18361243D01*
X8010236Y-18375529D01*
X8038807Y-18389814D01*
X8095950Y-18389814D01*
X8124521Y-18375529D01*
X8138807Y-18361243D01*
X8153093Y-18332672D01*
X8153093Y-18261243D01*
X8138807Y-18232672D01*
X8124521Y-18218386D01*
X8095950Y-18204100D01*
X8038807Y-18204100D01*
X8010236Y-18218386D01*
X7995950Y-18232672D01*
X7981664Y-18261243D01*
X8338807Y-18089814D02*
X8367378Y-18089814D01*
X8395950Y-18104100D01*
X8410236Y-18118386D01*
X8424521Y-18146957D01*
X8438807Y-18204100D01*
X8438807Y-18275529D01*
X8424521Y-18332672D01*
X8410236Y-18361243D01*
X8395950Y-18375529D01*
X8367378Y-18389814D01*
X8338807Y-18389814D01*
X8310236Y-18375529D01*
X8295950Y-18361243D01*
X8281664Y-18332672D01*
X8267378Y-18275529D01*
X8267378Y-18204100D01*
X8281664Y-18146957D01*
X8295950Y-18118386D01*
X8310236Y-18104100D01*
X8338807Y-18089814D01*
X8624521Y-18089814D02*
X8653093Y-18089814D01*
X8681664Y-18104100D01*
X8695950Y-18118386D01*
X8710236Y-18146957D01*
X8724521Y-18204100D01*
X8724521Y-18275529D01*
X8710236Y-18332672D01*
X8695950Y-18361243D01*
X8681664Y-18375529D01*
X8653093Y-18389814D01*
X8624521Y-18389814D01*
X8595950Y-18375529D01*
X8581664Y-18361243D01*
X8567378Y-18332672D01*
X8553093Y-18275529D01*
X8553093Y-18204100D01*
X8567378Y-18146957D01*
X8581664Y-18118386D01*
X8595950Y-18104100D01*
X8624521Y-18089814D01*
X8853093Y-18389814D02*
X8853093Y-18189814D01*
X8853093Y-18218386D02*
X8867378Y-18204100D01*
X8895950Y-18189814D01*
X8938807Y-18189814D01*
X8967378Y-18204100D01*
X8981664Y-18232672D01*
X8981664Y-18389814D01*
X8981664Y-18232672D02*
X8995950Y-18204100D01*
X9024521Y-18189814D01*
X9067378Y-18189814D01*
X9095950Y-18204100D01*
X9110236Y-18232672D01*
X9110236Y-18389814D01*
X9253093Y-18389814D02*
X9253093Y-18189814D01*
X9253093Y-18218386D02*
X9267378Y-18204100D01*
X9295950Y-18189814D01*
X9338807Y-18189814D01*
X9367378Y-18204100D01*
X9381664Y-18232672D01*
X9381664Y-18389814D01*
X9381664Y-18232672D02*
X9395950Y-18204100D01*
X9424521Y-18189814D01*
X9467378Y-18189814D01*
X9495950Y-18204100D01*
X9510236Y-18232672D01*
X9510236Y-18389814D01*
X10095950Y-18075529D02*
X9838807Y-18461243D01*
X10481664Y-18089814D02*
X10510236Y-18089814D01*
X10538807Y-18104100D01*
X10553093Y-18118386D01*
X10567378Y-18146957D01*
X10581664Y-18204100D01*
X10581664Y-18275529D01*
X10567378Y-18332672D01*
X10553093Y-18361243D01*
X10538807Y-18375529D01*
X10510236Y-18389814D01*
X10481664Y-18389814D01*
X10453093Y-18375529D01*
X10438807Y-18361243D01*
X10424521Y-18332672D01*
X10410236Y-18275529D01*
X10410236Y-18204100D01*
X10424521Y-18146957D01*
X10438807Y-18118386D01*
X10453093Y-18104100D01*
X10481664Y-18089814D01*
X10710236Y-18361243D02*
X10724521Y-18375529D01*
X10710236Y-18389814D01*
X10695950Y-18375529D01*
X10710236Y-18361243D01*
X10710236Y-18389814D01*
X10910236Y-18089814D02*
X10938807Y-18089814D01*
X10967378Y-18104100D01*
X10981664Y-18118386D01*
X10995950Y-18146957D01*
X11010236Y-18204100D01*
X11010236Y-18275529D01*
X10995950Y-18332672D01*
X10981664Y-18361243D01*
X10967378Y-18375529D01*
X10938807Y-18389814D01*
X10910236Y-18389814D01*
X10881664Y-18375529D01*
X10867378Y-18361243D01*
X10853093Y-18332672D01*
X10838807Y-18275529D01*
X10838807Y-18204100D01*
X10853093Y-18146957D01*
X10867378Y-18118386D01*
X10881664Y-18104100D01*
X10910236Y-18089814D01*
X11124521Y-18118386D02*
X11138807Y-18104100D01*
X11167378Y-18089814D01*
X11238807Y-18089814D01*
X11267378Y-18104100D01*
X11281664Y-18118386D01*
X11295950Y-18146957D01*
X11295950Y-18175529D01*
X11281664Y-18218386D01*
X11110236Y-18389814D01*
X11295950Y-18389814D01*
X11395950Y-18089814D02*
X11581664Y-18089814D01*
X11481664Y-18204100D01*
X11524521Y-18204100D01*
X11553093Y-18218386D01*
X11567378Y-18232672D01*
X11581664Y-18261243D01*
X11581664Y-18332672D01*
X11567378Y-18361243D01*
X11553093Y-18375529D01*
X11524521Y-18389814D01*
X11438807Y-18389814D01*
X11410236Y-18375529D01*
X11395950Y-18361243D01*
X11838807Y-18089814D02*
X11781664Y-18089814D01*
X11753093Y-18104100D01*
X11738807Y-18118386D01*
X11710236Y-18161243D01*
X11695950Y-18218386D01*
X11695950Y-18332672D01*
X11710236Y-18361243D01*
X11724521Y-18375529D01*
X11753093Y-18389814D01*
X11810236Y-18389814D01*
X11838807Y-18375529D01*
X11853093Y-18361243D01*
X11867378Y-18332672D01*
X11867378Y-18261243D01*
X11853093Y-18232672D01*
X11838807Y-18218386D01*
X11810236Y-18204100D01*
X11753093Y-18204100D01*
X11724521Y-18218386D01*
X11710236Y-18232672D01*
X11695950Y-18261243D01*
X11981664Y-18089814D02*
X11981664Y-18146957D01*
X12095950Y-18089814D02*
X12095950Y-18146957D01*
X12538807Y-18504100D02*
X12524521Y-18489814D01*
X12495950Y-18446957D01*
X12481664Y-18418386D01*
X12467378Y-18375529D01*
X12453093Y-18304100D01*
X12453093Y-18246957D01*
X12467378Y-18175529D01*
X12481664Y-18132672D01*
X12495950Y-18104100D01*
X12524521Y-18061243D01*
X12538807Y-18046957D01*
X12810236Y-18389814D02*
X12638807Y-18389814D01*
X12724521Y-18389814D02*
X12724521Y-18089814D01*
X12695950Y-18132672D01*
X12667378Y-18161243D01*
X12638807Y-18175529D01*
X13081664Y-18089814D02*
X12938807Y-18089814D01*
X12924521Y-18232672D01*
X12938807Y-18218386D01*
X12967378Y-18204100D01*
X13038807Y-18204100D01*
X13067378Y-18218386D01*
X13081664Y-18232672D01*
X13095950Y-18261243D01*
X13095950Y-18332672D01*
X13081664Y-18361243D01*
X13067378Y-18375529D01*
X13038807Y-18389814D01*
X12967378Y-18389814D01*
X12938807Y-18375529D01*
X12924521Y-18361243D01*
X13453093Y-18389814D02*
X13453093Y-18089814D01*
X13581664Y-18389814D02*
X13581664Y-18232672D01*
X13567378Y-18204100D01*
X13538807Y-18189814D01*
X13495950Y-18189814D01*
X13467378Y-18204100D01*
X13453093Y-18218386D01*
X13767378Y-18389814D02*
X13738807Y-18375529D01*
X13724521Y-18361243D01*
X13710236Y-18332672D01*
X13710236Y-18246957D01*
X13724521Y-18218386D01*
X13738807Y-18204100D01*
X13767378Y-18189814D01*
X13810236Y-18189814D01*
X13838807Y-18204100D01*
X13853093Y-18218386D01*
X13867378Y-18246957D01*
X13867378Y-18332672D01*
X13853093Y-18361243D01*
X13838807Y-18375529D01*
X13810236Y-18389814D01*
X13767378Y-18389814D01*
X14038807Y-18389814D02*
X14010236Y-18375529D01*
X13995950Y-18346957D01*
X13995950Y-18089814D01*
X14267378Y-18375529D02*
X14238807Y-18389814D01*
X14181664Y-18389814D01*
X14153093Y-18375529D01*
X14138807Y-18346957D01*
X14138807Y-18232672D01*
X14153093Y-18204100D01*
X14181664Y-18189814D01*
X14238807Y-18189814D01*
X14267378Y-18204100D01*
X14281664Y-18232672D01*
X14281664Y-18261243D01*
X14138807Y-18289814D01*
X14395950Y-18375529D02*
X14424521Y-18389814D01*
X14481664Y-18389814D01*
X14510236Y-18375529D01*
X14524521Y-18346957D01*
X14524521Y-18332672D01*
X14510236Y-18304100D01*
X14481664Y-18289814D01*
X14438807Y-18289814D01*
X14410236Y-18275529D01*
X14395950Y-18246957D01*
X14395950Y-18232672D01*
X14410236Y-18204100D01*
X14438807Y-18189814D01*
X14481664Y-18189814D01*
X14510236Y-18204100D01*
X14624521Y-18504100D02*
X14638807Y-18489814D01*
X14667378Y-18446957D01*
X14681664Y-18418386D01*
X14695950Y-18375529D01*
X14710236Y-18304100D01*
X14710236Y-18246957D01*
X14695950Y-18175529D01*
X14681664Y-18132672D01*
X14667378Y-18104100D01*
X14638807Y-18061243D01*
X14624521Y-18046957D01*
X7245950Y-18685100D02*
X7280950Y-18650100D01*
X7245950Y-18615100D01*
X7210950Y-18650100D01*
X7245950Y-18685100D01*
X7624521Y-18485814D02*
X7653093Y-18485814D01*
X7681664Y-18500100D01*
X7695950Y-18514386D01*
X7710236Y-18542957D01*
X7724521Y-18600100D01*
X7724521Y-18671529D01*
X7710236Y-18728672D01*
X7695950Y-18757243D01*
X7681664Y-18771529D01*
X7653093Y-18785814D01*
X7624521Y-18785814D01*
X7595950Y-18771529D01*
X7581664Y-18757243D01*
X7567378Y-18728672D01*
X7553093Y-18671529D01*
X7553093Y-18600100D01*
X7567378Y-18542957D01*
X7581664Y-18514386D01*
X7595950Y-18500100D01*
X7624521Y-18485814D01*
X7853093Y-18757243D02*
X7867378Y-18771529D01*
X7853093Y-18785814D01*
X7838807Y-18771529D01*
X7853093Y-18757243D01*
X7853093Y-18785814D01*
X7967378Y-18485814D02*
X8167378Y-18485814D01*
X8038807Y-18785814D01*
X8338807Y-18485814D02*
X8367378Y-18485814D01*
X8395950Y-18500100D01*
X8410236Y-18514386D01*
X8424521Y-18542957D01*
X8438807Y-18600100D01*
X8438807Y-18671529D01*
X8424521Y-18728672D01*
X8410236Y-18757243D01*
X8395950Y-18771529D01*
X8367378Y-18785814D01*
X8338807Y-18785814D01*
X8310236Y-18771529D01*
X8295950Y-18757243D01*
X8281664Y-18728672D01*
X8267378Y-18671529D01*
X8267378Y-18600100D01*
X8281664Y-18542957D01*
X8295950Y-18514386D01*
X8310236Y-18500100D01*
X8338807Y-18485814D01*
X8624521Y-18485814D02*
X8653093Y-18485814D01*
X8681664Y-18500100D01*
X8695950Y-18514386D01*
X8710236Y-18542957D01*
X8724521Y-18600100D01*
X8724521Y-18671529D01*
X8710236Y-18728672D01*
X8695950Y-18757243D01*
X8681664Y-18771529D01*
X8653093Y-18785814D01*
X8624521Y-18785814D01*
X8595950Y-18771529D01*
X8581664Y-18757243D01*
X8567378Y-18728672D01*
X8553093Y-18671529D01*
X8553093Y-18600100D01*
X8567378Y-18542957D01*
X8581664Y-18514386D01*
X8595950Y-18500100D01*
X8624521Y-18485814D01*
X8853093Y-18785814D02*
X8853093Y-18585814D01*
X8853093Y-18614386D02*
X8867378Y-18600100D01*
X8895950Y-18585814D01*
X8938807Y-18585814D01*
X8967378Y-18600100D01*
X8981664Y-18628672D01*
X8981664Y-18785814D01*
X8981664Y-18628672D02*
X8995950Y-18600100D01*
X9024521Y-18585814D01*
X9067378Y-18585814D01*
X9095950Y-18600100D01*
X9110236Y-18628672D01*
X9110236Y-18785814D01*
X9253093Y-18785814D02*
X9253093Y-18585814D01*
X9253093Y-18614386D02*
X9267378Y-18600100D01*
X9295950Y-18585814D01*
X9338807Y-18585814D01*
X9367378Y-18600100D01*
X9381664Y-18628672D01*
X9381664Y-18785814D01*
X9381664Y-18628672D02*
X9395950Y-18600100D01*
X9424521Y-18585814D01*
X9467378Y-18585814D01*
X9495950Y-18600100D01*
X9510236Y-18628672D01*
X9510236Y-18785814D01*
X10095950Y-18471529D02*
X9838807Y-18857243D01*
X10481664Y-18485814D02*
X10510236Y-18485814D01*
X10538807Y-18500100D01*
X10553093Y-18514386D01*
X10567378Y-18542957D01*
X10581664Y-18600100D01*
X10581664Y-18671529D01*
X10567378Y-18728672D01*
X10553093Y-18757243D01*
X10538807Y-18771529D01*
X10510236Y-18785814D01*
X10481664Y-18785814D01*
X10453093Y-18771529D01*
X10438807Y-18757243D01*
X10424521Y-18728672D01*
X10410236Y-18671529D01*
X10410236Y-18600100D01*
X10424521Y-18542957D01*
X10438807Y-18514386D01*
X10453093Y-18500100D01*
X10481664Y-18485814D01*
X10710236Y-18757243D02*
X10724521Y-18771529D01*
X10710236Y-18785814D01*
X10695950Y-18771529D01*
X10710236Y-18757243D01*
X10710236Y-18785814D01*
X10910236Y-18485814D02*
X10938807Y-18485814D01*
X10967378Y-18500100D01*
X10981664Y-18514386D01*
X10995950Y-18542957D01*
X11010236Y-18600100D01*
X11010236Y-18671529D01*
X10995950Y-18728672D01*
X10981664Y-18757243D01*
X10967378Y-18771529D01*
X10938807Y-18785814D01*
X10910236Y-18785814D01*
X10881664Y-18771529D01*
X10867378Y-18757243D01*
X10853093Y-18728672D01*
X10838807Y-18671529D01*
X10838807Y-18600100D01*
X10853093Y-18542957D01*
X10867378Y-18514386D01*
X10881664Y-18500100D01*
X10910236Y-18485814D01*
X11124521Y-18514386D02*
X11138807Y-18500100D01*
X11167378Y-18485814D01*
X11238807Y-18485814D01*
X11267378Y-18500100D01*
X11281664Y-18514386D01*
X11295950Y-18542957D01*
X11295950Y-18571529D01*
X11281664Y-18614386D01*
X11110236Y-18785814D01*
X11295950Y-18785814D01*
X11395950Y-18485814D02*
X11595950Y-18485814D01*
X11467378Y-18785814D01*
X11838807Y-18485814D02*
X11781664Y-18485814D01*
X11753093Y-18500100D01*
X11738807Y-18514386D01*
X11710236Y-18557243D01*
X11695950Y-18614386D01*
X11695950Y-18728672D01*
X11710236Y-18757243D01*
X11724521Y-18771529D01*
X11753093Y-18785814D01*
X11810236Y-18785814D01*
X11838807Y-18771529D01*
X11853093Y-18757243D01*
X11867378Y-18728672D01*
X11867378Y-18657243D01*
X11853093Y-18628672D01*
X11838807Y-18614386D01*
X11810236Y-18600100D01*
X11753093Y-18600100D01*
X11724521Y-18614386D01*
X11710236Y-18628672D01*
X11695950Y-18657243D01*
X11981664Y-18485814D02*
X11981664Y-18542957D01*
X12095950Y-18485814D02*
X12095950Y-18542957D01*
X12538807Y-18900100D02*
X12524521Y-18885814D01*
X12495950Y-18842957D01*
X12481664Y-18814386D01*
X12467378Y-18771529D01*
X12453093Y-18700100D01*
X12453093Y-18642957D01*
X12467378Y-18571529D01*
X12481664Y-18528672D01*
X12495950Y-18500100D01*
X12524521Y-18457243D01*
X12538807Y-18442957D01*
X12667378Y-18785814D02*
X12724521Y-18785814D01*
X12753093Y-18771529D01*
X12767378Y-18757243D01*
X12795950Y-18714386D01*
X12810236Y-18657243D01*
X12810236Y-18542957D01*
X12795950Y-18514386D01*
X12781664Y-18500100D01*
X12753093Y-18485814D01*
X12695950Y-18485814D01*
X12667378Y-18500100D01*
X12653093Y-18514386D01*
X12638807Y-18542957D01*
X12638807Y-18614386D01*
X12653093Y-18642957D01*
X12667378Y-18657243D01*
X12695950Y-18671529D01*
X12753093Y-18671529D01*
X12781664Y-18657243D01*
X12795950Y-18642957D01*
X12810236Y-18614386D01*
X13167378Y-18785814D02*
X13167378Y-18485814D01*
X13295950Y-18785814D02*
X13295950Y-18628672D01*
X13281664Y-18600100D01*
X13253093Y-18585814D01*
X13210236Y-18585814D01*
X13181664Y-18600100D01*
X13167378Y-18614386D01*
X13481664Y-18785814D02*
X13453093Y-18771529D01*
X13438807Y-18757243D01*
X13424521Y-18728672D01*
X13424521Y-18642957D01*
X13438807Y-18614386D01*
X13453093Y-18600100D01*
X13481664Y-18585814D01*
X13524521Y-18585814D01*
X13553093Y-18600100D01*
X13567378Y-18614386D01*
X13581664Y-18642957D01*
X13581664Y-18728672D01*
X13567378Y-18757243D01*
X13553093Y-18771529D01*
X13524521Y-18785814D01*
X13481664Y-18785814D01*
X13753093Y-18785814D02*
X13724521Y-18771529D01*
X13710236Y-18742957D01*
X13710236Y-18485814D01*
X13981664Y-18771529D02*
X13953093Y-18785814D01*
X13895950Y-18785814D01*
X13867378Y-18771529D01*
X13853093Y-18742957D01*
X13853093Y-18628672D01*
X13867378Y-18600100D01*
X13895950Y-18585814D01*
X13953093Y-18585814D01*
X13981664Y-18600100D01*
X13995950Y-18628672D01*
X13995950Y-18657243D01*
X13853093Y-18685814D01*
X14110236Y-18771529D02*
X14138807Y-18785814D01*
X14195950Y-18785814D01*
X14224521Y-18771529D01*
X14238807Y-18742957D01*
X14238807Y-18728672D01*
X14224521Y-18700100D01*
X14195950Y-18685814D01*
X14153093Y-18685814D01*
X14124521Y-18671529D01*
X14110236Y-18642957D01*
X14110236Y-18628672D01*
X14124521Y-18600100D01*
X14153093Y-18585814D01*
X14195950Y-18585814D01*
X14224521Y-18600100D01*
X14338807Y-18900100D02*
X14353093Y-18885814D01*
X14381664Y-18842957D01*
X14395950Y-18814386D01*
X14410236Y-18771529D01*
X14424521Y-18700100D01*
X14424521Y-18642957D01*
X14410236Y-18571529D01*
X14395950Y-18528672D01*
X14381664Y-18500100D01*
X14353093Y-18457243D01*
X14338807Y-18442957D01*
X7209950Y-19010600D02*
X7280950Y-19081600D01*
X7280950Y-19010600D02*
X7209950Y-19081600D01*
X7280950Y-19046100D02*
G75*
G03*
X7280950Y-19046100I-35500J0D01*
G01*
X7624521Y-18881814D02*
X7653093Y-18881814D01*
X7681664Y-18896100D01*
X7695950Y-18910386D01*
X7710236Y-18938957D01*
X7724521Y-18996100D01*
X7724521Y-19067529D01*
X7710236Y-19124672D01*
X7695950Y-19153243D01*
X7681664Y-19167529D01*
X7653093Y-19181814D01*
X7624521Y-19181814D01*
X7595950Y-19167529D01*
X7581664Y-19153243D01*
X7567378Y-19124672D01*
X7553093Y-19067529D01*
X7553093Y-18996100D01*
X7567378Y-18938957D01*
X7581664Y-18910386D01*
X7595950Y-18896100D01*
X7624521Y-18881814D01*
X7853093Y-19153243D02*
X7867378Y-19167529D01*
X7853093Y-19181814D01*
X7838807Y-19167529D01*
X7853093Y-19153243D01*
X7853093Y-19181814D01*
X7967378Y-18881814D02*
X8167378Y-18881814D01*
X8038807Y-19181814D01*
X8438807Y-19181814D02*
X8267378Y-19181814D01*
X8353093Y-19181814D02*
X8353093Y-18881814D01*
X8324521Y-18924672D01*
X8295950Y-18953243D01*
X8267378Y-18967529D01*
X8624521Y-18881814D02*
X8653093Y-18881814D01*
X8681664Y-18896100D01*
X8695950Y-18910386D01*
X8710236Y-18938957D01*
X8724521Y-18996100D01*
X8724521Y-19067529D01*
X8710236Y-19124672D01*
X8695950Y-19153243D01*
X8681664Y-19167529D01*
X8653093Y-19181814D01*
X8624521Y-19181814D01*
X8595950Y-19167529D01*
X8581664Y-19153243D01*
X8567378Y-19124672D01*
X8553093Y-19067529D01*
X8553093Y-18996100D01*
X8567378Y-18938957D01*
X8581664Y-18910386D01*
X8595950Y-18896100D01*
X8624521Y-18881814D01*
X8853093Y-19181814D02*
X8853093Y-18981814D01*
X8853093Y-19010386D02*
X8867378Y-18996100D01*
X8895950Y-18981814D01*
X8938807Y-18981814D01*
X8967378Y-18996100D01*
X8981664Y-19024672D01*
X8981664Y-19181814D01*
X8981664Y-19024672D02*
X8995950Y-18996100D01*
X9024521Y-18981814D01*
X9067378Y-18981814D01*
X9095950Y-18996100D01*
X9110236Y-19024672D01*
X9110236Y-19181814D01*
X9253093Y-19181814D02*
X9253093Y-18981814D01*
X9253093Y-19010386D02*
X9267378Y-18996100D01*
X9295950Y-18981814D01*
X9338807Y-18981814D01*
X9367378Y-18996100D01*
X9381664Y-19024672D01*
X9381664Y-19181814D01*
X9381664Y-19024672D02*
X9395950Y-18996100D01*
X9424521Y-18981814D01*
X9467378Y-18981814D01*
X9495950Y-18996100D01*
X9510236Y-19024672D01*
X9510236Y-19181814D01*
X10095950Y-18867529D02*
X9838807Y-19253243D01*
X10481664Y-18881814D02*
X10510236Y-18881814D01*
X10538807Y-18896100D01*
X10553093Y-18910386D01*
X10567378Y-18938957D01*
X10581664Y-18996100D01*
X10581664Y-19067529D01*
X10567378Y-19124672D01*
X10553093Y-19153243D01*
X10538807Y-19167529D01*
X10510236Y-19181814D01*
X10481664Y-19181814D01*
X10453093Y-19167529D01*
X10438807Y-19153243D01*
X10424521Y-19124672D01*
X10410236Y-19067529D01*
X10410236Y-18996100D01*
X10424521Y-18938957D01*
X10438807Y-18910386D01*
X10453093Y-18896100D01*
X10481664Y-18881814D01*
X10710236Y-19153243D02*
X10724521Y-19167529D01*
X10710236Y-19181814D01*
X10695950Y-19167529D01*
X10710236Y-19153243D01*
X10710236Y-19181814D01*
X10910236Y-18881814D02*
X10938807Y-18881814D01*
X10967378Y-18896100D01*
X10981664Y-18910386D01*
X10995950Y-18938957D01*
X11010236Y-18996100D01*
X11010236Y-19067529D01*
X10995950Y-19124672D01*
X10981664Y-19153243D01*
X10967378Y-19167529D01*
X10938807Y-19181814D01*
X10910236Y-19181814D01*
X10881664Y-19167529D01*
X10867378Y-19153243D01*
X10853093Y-19124672D01*
X10838807Y-19067529D01*
X10838807Y-18996100D01*
X10853093Y-18938957D01*
X10867378Y-18910386D01*
X10881664Y-18896100D01*
X10910236Y-18881814D01*
X11124521Y-18910386D02*
X11138807Y-18896100D01*
X11167378Y-18881814D01*
X11238807Y-18881814D01*
X11267378Y-18896100D01*
X11281664Y-18910386D01*
X11295950Y-18938957D01*
X11295950Y-18967529D01*
X11281664Y-19010386D01*
X11110236Y-19181814D01*
X11295950Y-19181814D01*
X11467378Y-19010386D02*
X11438807Y-18996100D01*
X11424521Y-18981814D01*
X11410236Y-18953243D01*
X11410236Y-18938957D01*
X11424521Y-18910386D01*
X11438807Y-18896100D01*
X11467378Y-18881814D01*
X11524521Y-18881814D01*
X11553093Y-18896100D01*
X11567378Y-18910386D01*
X11581664Y-18938957D01*
X11581664Y-18953243D01*
X11567378Y-18981814D01*
X11553093Y-18996100D01*
X11524521Y-19010386D01*
X11467378Y-19010386D01*
X11438807Y-19024672D01*
X11424521Y-19038957D01*
X11410236Y-19067529D01*
X11410236Y-19124672D01*
X11424521Y-19153243D01*
X11438807Y-19167529D01*
X11467378Y-19181814D01*
X11524521Y-19181814D01*
X11553093Y-19167529D01*
X11567378Y-19153243D01*
X11581664Y-19124672D01*
X11581664Y-19067529D01*
X11567378Y-19038957D01*
X11553093Y-19024672D01*
X11524521Y-19010386D01*
X11767378Y-18881814D02*
X11795950Y-18881814D01*
X11824521Y-18896100D01*
X11838807Y-18910386D01*
X11853093Y-18938957D01*
X11867378Y-18996100D01*
X11867378Y-19067529D01*
X11853093Y-19124672D01*
X11838807Y-19153243D01*
X11824521Y-19167529D01*
X11795950Y-19181814D01*
X11767378Y-19181814D01*
X11738807Y-19167529D01*
X11724521Y-19153243D01*
X11710236Y-19124672D01*
X11695950Y-19067529D01*
X11695950Y-18996100D01*
X11710236Y-18938957D01*
X11724521Y-18910386D01*
X11738807Y-18896100D01*
X11767378Y-18881814D01*
X11981664Y-18881814D02*
X11981664Y-18938957D01*
X12095950Y-18881814D02*
X12095950Y-18938957D01*
X12538807Y-19296100D02*
X12524521Y-19281814D01*
X12495950Y-19238957D01*
X12481664Y-19210386D01*
X12467378Y-19167529D01*
X12453093Y-19096100D01*
X12453093Y-19038957D01*
X12467378Y-18967529D01*
X12481664Y-18924672D01*
X12495950Y-18896100D01*
X12524521Y-18853243D01*
X12538807Y-18838957D01*
X12638807Y-18910386D02*
X12653093Y-18896100D01*
X12681664Y-18881814D01*
X12753093Y-18881814D01*
X12781664Y-18896100D01*
X12795950Y-18910386D01*
X12810236Y-18938957D01*
X12810236Y-18967529D01*
X12795950Y-19010386D01*
X12624521Y-19181814D01*
X12810236Y-19181814D01*
X13167378Y-19181814D02*
X13167378Y-18881814D01*
X13295950Y-19181814D02*
X13295950Y-19024672D01*
X13281664Y-18996100D01*
X13253093Y-18981814D01*
X13210236Y-18981814D01*
X13181664Y-18996100D01*
X13167378Y-19010386D01*
X13481664Y-19181814D02*
X13453093Y-19167529D01*
X13438807Y-19153243D01*
X13424521Y-19124672D01*
X13424521Y-19038957D01*
X13438807Y-19010386D01*
X13453093Y-18996100D01*
X13481664Y-18981814D01*
X13524521Y-18981814D01*
X13553093Y-18996100D01*
X13567378Y-19010386D01*
X13581664Y-19038957D01*
X13581664Y-19124672D01*
X13567378Y-19153243D01*
X13553093Y-19167529D01*
X13524521Y-19181814D01*
X13481664Y-19181814D01*
X13753093Y-19181814D02*
X13724521Y-19167529D01*
X13710236Y-19138957D01*
X13710236Y-18881814D01*
X13981664Y-19167529D02*
X13953093Y-19181814D01*
X13895950Y-19181814D01*
X13867378Y-19167529D01*
X13853093Y-19138957D01*
X13853093Y-19024672D01*
X13867378Y-18996100D01*
X13895950Y-18981814D01*
X13953093Y-18981814D01*
X13981664Y-18996100D01*
X13995950Y-19024672D01*
X13995950Y-19053243D01*
X13853093Y-19081814D01*
X14110236Y-19167529D02*
X14138807Y-19181814D01*
X14195950Y-19181814D01*
X14224521Y-19167529D01*
X14238807Y-19138957D01*
X14238807Y-19124672D01*
X14224521Y-19096100D01*
X14195950Y-19081814D01*
X14153093Y-19081814D01*
X14124521Y-19067529D01*
X14110236Y-19038957D01*
X14110236Y-19024672D01*
X14124521Y-18996100D01*
X14153093Y-18981814D01*
X14195950Y-18981814D01*
X14224521Y-18996100D01*
X14338807Y-19296100D02*
X14353093Y-19281814D01*
X14381664Y-19238957D01*
X14395950Y-19210386D01*
X14410236Y-19167529D01*
X14424521Y-19096100D01*
X14424521Y-19038957D01*
X14410236Y-18967529D01*
X14395950Y-18924672D01*
X14381664Y-18896100D01*
X14353093Y-18853243D01*
X14338807Y-18838957D01*
X7200950Y-19402100D02*
X7280950Y-19482100D01*
X7280950Y-19402100D02*
X7200950Y-19482100D01*
X7240950Y-19402100D02*
X7240950Y-19482100D01*
X7200950Y-19442100D02*
X7280950Y-19442100D01*
X7624521Y-19277814D02*
X7653093Y-19277814D01*
X7681664Y-19292100D01*
X7695950Y-19306386D01*
X7710236Y-19334957D01*
X7724521Y-19392100D01*
X7724521Y-19463529D01*
X7710236Y-19520672D01*
X7695950Y-19549243D01*
X7681664Y-19563529D01*
X7653093Y-19577814D01*
X7624521Y-19577814D01*
X7595950Y-19563529D01*
X7581664Y-19549243D01*
X7567378Y-19520672D01*
X7553093Y-19463529D01*
X7553093Y-19392100D01*
X7567378Y-19334957D01*
X7581664Y-19306386D01*
X7595950Y-19292100D01*
X7624521Y-19277814D01*
X7853093Y-19549243D02*
X7867378Y-19563529D01*
X7853093Y-19577814D01*
X7838807Y-19563529D01*
X7853093Y-19549243D01*
X7853093Y-19577814D01*
X8038807Y-19406386D02*
X8010236Y-19392100D01*
X7995950Y-19377814D01*
X7981664Y-19349243D01*
X7981664Y-19334957D01*
X7995950Y-19306386D01*
X8010236Y-19292100D01*
X8038807Y-19277814D01*
X8095950Y-19277814D01*
X8124521Y-19292100D01*
X8138807Y-19306386D01*
X8153093Y-19334957D01*
X8153093Y-19349243D01*
X8138807Y-19377814D01*
X8124521Y-19392100D01*
X8095950Y-19406386D01*
X8038807Y-19406386D01*
X8010236Y-19420672D01*
X7995950Y-19434957D01*
X7981664Y-19463529D01*
X7981664Y-19520672D01*
X7995950Y-19549243D01*
X8010236Y-19563529D01*
X8038807Y-19577814D01*
X8095950Y-19577814D01*
X8124521Y-19563529D01*
X8138807Y-19549243D01*
X8153093Y-19520672D01*
X8153093Y-19463529D01*
X8138807Y-19434957D01*
X8124521Y-19420672D01*
X8095950Y-19406386D01*
X8338807Y-19277814D02*
X8367378Y-19277814D01*
X8395950Y-19292100D01*
X8410236Y-19306386D01*
X8424521Y-19334957D01*
X8438807Y-19392100D01*
X8438807Y-19463529D01*
X8424521Y-19520672D01*
X8410236Y-19549243D01*
X8395950Y-19563529D01*
X8367378Y-19577814D01*
X8338807Y-19577814D01*
X8310236Y-19563529D01*
X8295950Y-19549243D01*
X8281664Y-19520672D01*
X8267378Y-19463529D01*
X8267378Y-19392100D01*
X8281664Y-19334957D01*
X8295950Y-19306386D01*
X8310236Y-19292100D01*
X8338807Y-19277814D01*
X8624521Y-19277814D02*
X8653093Y-19277814D01*
X8681664Y-19292100D01*
X8695950Y-19306386D01*
X8710236Y-19334957D01*
X8724521Y-19392100D01*
X8724521Y-19463529D01*
X8710236Y-19520672D01*
X8695950Y-19549243D01*
X8681664Y-19563529D01*
X8653093Y-19577814D01*
X8624521Y-19577814D01*
X8595950Y-19563529D01*
X8581664Y-19549243D01*
X8567378Y-19520672D01*
X8553093Y-19463529D01*
X8553093Y-19392100D01*
X8567378Y-19334957D01*
X8581664Y-19306386D01*
X8595950Y-19292100D01*
X8624521Y-19277814D01*
X8853093Y-19577814D02*
X8853093Y-19377814D01*
X8853093Y-19406386D02*
X8867378Y-19392100D01*
X8895950Y-19377814D01*
X8938807Y-19377814D01*
X8967378Y-19392100D01*
X8981664Y-19420672D01*
X8981664Y-19577814D01*
X8981664Y-19420672D02*
X8995950Y-19392100D01*
X9024521Y-19377814D01*
X9067378Y-19377814D01*
X9095950Y-19392100D01*
X9110236Y-19420672D01*
X9110236Y-19577814D01*
X9253093Y-19577814D02*
X9253093Y-19377814D01*
X9253093Y-19406386D02*
X9267378Y-19392100D01*
X9295950Y-19377814D01*
X9338807Y-19377814D01*
X9367378Y-19392100D01*
X9381664Y-19420672D01*
X9381664Y-19577814D01*
X9381664Y-19420672D02*
X9395950Y-19392100D01*
X9424521Y-19377814D01*
X9467378Y-19377814D01*
X9495950Y-19392100D01*
X9510236Y-19420672D01*
X9510236Y-19577814D01*
X10095950Y-19263529D02*
X9838807Y-19649243D01*
X10481664Y-19277814D02*
X10510236Y-19277814D01*
X10538807Y-19292100D01*
X10553093Y-19306386D01*
X10567378Y-19334957D01*
X10581664Y-19392100D01*
X10581664Y-19463529D01*
X10567378Y-19520672D01*
X10553093Y-19549243D01*
X10538807Y-19563529D01*
X10510236Y-19577814D01*
X10481664Y-19577814D01*
X10453093Y-19563529D01*
X10438807Y-19549243D01*
X10424521Y-19520672D01*
X10410236Y-19463529D01*
X10410236Y-19392100D01*
X10424521Y-19334957D01*
X10438807Y-19306386D01*
X10453093Y-19292100D01*
X10481664Y-19277814D01*
X10710236Y-19549243D02*
X10724521Y-19563529D01*
X10710236Y-19577814D01*
X10695950Y-19563529D01*
X10710236Y-19549243D01*
X10710236Y-19577814D01*
X10910236Y-19277814D02*
X10938807Y-19277814D01*
X10967378Y-19292100D01*
X10981664Y-19306386D01*
X10995950Y-19334957D01*
X11010236Y-19392100D01*
X11010236Y-19463529D01*
X10995950Y-19520672D01*
X10981664Y-19549243D01*
X10967378Y-19563529D01*
X10938807Y-19577814D01*
X10910236Y-19577814D01*
X10881664Y-19563529D01*
X10867378Y-19549243D01*
X10853093Y-19520672D01*
X10838807Y-19463529D01*
X10838807Y-19392100D01*
X10853093Y-19334957D01*
X10867378Y-19306386D01*
X10881664Y-19292100D01*
X10910236Y-19277814D01*
X11110236Y-19277814D02*
X11295950Y-19277814D01*
X11195950Y-19392100D01*
X11238807Y-19392100D01*
X11267378Y-19406386D01*
X11281664Y-19420672D01*
X11295950Y-19449243D01*
X11295950Y-19520672D01*
X11281664Y-19549243D01*
X11267378Y-19563529D01*
X11238807Y-19577814D01*
X11153093Y-19577814D01*
X11124521Y-19563529D01*
X11110236Y-19549243D01*
X11581664Y-19577814D02*
X11410236Y-19577814D01*
X11495950Y-19577814D02*
X11495950Y-19277814D01*
X11467378Y-19320672D01*
X11438807Y-19349243D01*
X11410236Y-19363529D01*
X11853093Y-19277814D02*
X11710236Y-19277814D01*
X11695950Y-19420672D01*
X11710236Y-19406386D01*
X11738807Y-19392100D01*
X11810236Y-19392100D01*
X11838807Y-19406386D01*
X11853093Y-19420672D01*
X11867378Y-19449243D01*
X11867378Y-19520672D01*
X11853093Y-19549243D01*
X11838807Y-19563529D01*
X11810236Y-19577814D01*
X11738807Y-19577814D01*
X11710236Y-19563529D01*
X11695950Y-19549243D01*
X11981664Y-19277814D02*
X11981664Y-19334957D01*
X12095950Y-19277814D02*
X12095950Y-19334957D01*
X12538807Y-19692100D02*
X12524521Y-19677814D01*
X12495950Y-19634957D01*
X12481664Y-19606386D01*
X12467378Y-19563529D01*
X12453093Y-19492100D01*
X12453093Y-19434957D01*
X12467378Y-19363529D01*
X12481664Y-19320672D01*
X12495950Y-19292100D01*
X12524521Y-19249243D01*
X12538807Y-19234957D01*
X12810236Y-19577814D02*
X12638807Y-19577814D01*
X12724521Y-19577814D02*
X12724521Y-19277814D01*
X12695950Y-19320672D01*
X12667378Y-19349243D01*
X12638807Y-19363529D01*
X13095950Y-19577814D02*
X12924521Y-19577814D01*
X13010236Y-19577814D02*
X13010236Y-19277814D01*
X12981664Y-19320672D01*
X12953093Y-19349243D01*
X12924521Y-19363529D01*
X13210236Y-19306386D02*
X13224521Y-19292100D01*
X13253093Y-19277814D01*
X13324521Y-19277814D01*
X13353093Y-19292100D01*
X13367378Y-19306386D01*
X13381664Y-19334957D01*
X13381664Y-19363529D01*
X13367378Y-19406386D01*
X13195950Y-19577814D01*
X13381664Y-19577814D01*
X13738807Y-19577814D02*
X13738807Y-19277814D01*
X13867378Y-19577814D02*
X13867378Y-19420672D01*
X13853093Y-19392100D01*
X13824521Y-19377814D01*
X13781664Y-19377814D01*
X13753093Y-19392100D01*
X13738807Y-19406386D01*
X14053093Y-19577814D02*
X14024521Y-19563529D01*
X14010236Y-19549243D01*
X13995950Y-19520672D01*
X13995950Y-19434957D01*
X14010236Y-19406386D01*
X14024521Y-19392100D01*
X14053093Y-19377814D01*
X14095950Y-19377814D01*
X14124521Y-19392100D01*
X14138807Y-19406386D01*
X14153093Y-19434957D01*
X14153093Y-19520672D01*
X14138807Y-19549243D01*
X14124521Y-19563529D01*
X14095950Y-19577814D01*
X14053093Y-19577814D01*
X14324521Y-19577814D02*
X14295950Y-19563529D01*
X14281664Y-19534957D01*
X14281664Y-19277814D01*
X14553093Y-19563529D02*
X14524521Y-19577814D01*
X14467378Y-19577814D01*
X14438807Y-19563529D01*
X14424521Y-19534957D01*
X14424521Y-19420672D01*
X14438807Y-19392100D01*
X14467378Y-19377814D01*
X14524521Y-19377814D01*
X14553093Y-19392100D01*
X14567378Y-19420672D01*
X14567378Y-19449243D01*
X14424521Y-19477814D01*
X14681664Y-19563529D02*
X14710236Y-19577814D01*
X14767378Y-19577814D01*
X14795950Y-19563529D01*
X14810236Y-19534957D01*
X14810236Y-19520672D01*
X14795950Y-19492100D01*
X14767378Y-19477814D01*
X14724521Y-19477814D01*
X14695950Y-19463529D01*
X14681664Y-19434957D01*
X14681664Y-19420672D01*
X14695950Y-19392100D01*
X14724521Y-19377814D01*
X14767378Y-19377814D01*
X14795950Y-19392100D01*
X14910236Y-19692100D02*
X14924521Y-19677814D01*
X14953093Y-19634957D01*
X14967378Y-19606386D01*
X14981664Y-19563529D01*
X14995950Y-19492100D01*
X14995950Y-19434957D01*
X14981664Y-19363529D01*
X14967378Y-19320672D01*
X14953093Y-19292100D01*
X14924521Y-19249243D01*
X14910236Y-19234957D01*
X7188950Y-19792100D02*
X7280950Y-19884100D01*
X7280950Y-19792100D02*
X7188950Y-19884100D01*
X7267477Y-19870627D02*
X7267477Y-19805573D01*
X7202423Y-19805573D01*
X7202423Y-19870627D01*
X7267477Y-19870627D01*
X7624521Y-19673814D02*
X7653093Y-19673814D01*
X7681664Y-19688100D01*
X7695950Y-19702386D01*
X7710236Y-19730957D01*
X7724521Y-19788100D01*
X7724521Y-19859529D01*
X7710236Y-19916672D01*
X7695950Y-19945243D01*
X7681664Y-19959529D01*
X7653093Y-19973814D01*
X7624521Y-19973814D01*
X7595950Y-19959529D01*
X7581664Y-19945243D01*
X7567378Y-19916672D01*
X7553093Y-19859529D01*
X7553093Y-19788100D01*
X7567378Y-19730957D01*
X7581664Y-19702386D01*
X7595950Y-19688100D01*
X7624521Y-19673814D01*
X7853093Y-19945243D02*
X7867378Y-19959529D01*
X7853093Y-19973814D01*
X7838807Y-19959529D01*
X7853093Y-19945243D01*
X7853093Y-19973814D01*
X8010236Y-19973814D02*
X8067378Y-19973814D01*
X8095950Y-19959529D01*
X8110236Y-19945243D01*
X8138807Y-19902386D01*
X8153093Y-19845243D01*
X8153093Y-19730957D01*
X8138807Y-19702386D01*
X8124521Y-19688100D01*
X8095950Y-19673814D01*
X8038807Y-19673814D01*
X8010236Y-19688100D01*
X7995950Y-19702386D01*
X7981664Y-19730957D01*
X7981664Y-19802386D01*
X7995950Y-19830957D01*
X8010236Y-19845243D01*
X8038807Y-19859529D01*
X8095950Y-19859529D01*
X8124521Y-19845243D01*
X8138807Y-19830957D01*
X8153093Y-19802386D01*
X8267378Y-19702386D02*
X8281664Y-19688100D01*
X8310236Y-19673814D01*
X8381664Y-19673814D01*
X8410236Y-19688100D01*
X8424521Y-19702386D01*
X8438807Y-19730957D01*
X8438807Y-19759529D01*
X8424521Y-19802386D01*
X8253093Y-19973814D01*
X8438807Y-19973814D01*
X8624521Y-19673814D02*
X8653093Y-19673814D01*
X8681664Y-19688100D01*
X8695950Y-19702386D01*
X8710236Y-19730957D01*
X8724521Y-19788100D01*
X8724521Y-19859529D01*
X8710236Y-19916672D01*
X8695950Y-19945243D01*
X8681664Y-19959529D01*
X8653093Y-19973814D01*
X8624521Y-19973814D01*
X8595950Y-19959529D01*
X8581664Y-19945243D01*
X8567378Y-19916672D01*
X8553093Y-19859529D01*
X8553093Y-19788100D01*
X8567378Y-19730957D01*
X8581664Y-19702386D01*
X8595950Y-19688100D01*
X8624521Y-19673814D01*
X8853093Y-19973814D02*
X8853093Y-19773814D01*
X8853093Y-19802386D02*
X8867378Y-19788100D01*
X8895950Y-19773814D01*
X8938807Y-19773814D01*
X8967378Y-19788100D01*
X8981664Y-19816672D01*
X8981664Y-19973814D01*
X8981664Y-19816672D02*
X8995950Y-19788100D01*
X9024521Y-19773814D01*
X9067378Y-19773814D01*
X9095950Y-19788100D01*
X9110236Y-19816672D01*
X9110236Y-19973814D01*
X9253093Y-19973814D02*
X9253093Y-19773814D01*
X9253093Y-19802386D02*
X9267378Y-19788100D01*
X9295950Y-19773814D01*
X9338807Y-19773814D01*
X9367378Y-19788100D01*
X9381664Y-19816672D01*
X9381664Y-19973814D01*
X9381664Y-19816672D02*
X9395950Y-19788100D01*
X9424521Y-19773814D01*
X9467378Y-19773814D01*
X9495950Y-19788100D01*
X9510236Y-19816672D01*
X9510236Y-19973814D01*
X10095950Y-19659529D02*
X9838807Y-20045243D01*
X10481664Y-19673814D02*
X10510236Y-19673814D01*
X10538807Y-19688100D01*
X10553093Y-19702386D01*
X10567378Y-19730957D01*
X10581664Y-19788100D01*
X10581664Y-19859529D01*
X10567378Y-19916672D01*
X10553093Y-19945243D01*
X10538807Y-19959529D01*
X10510236Y-19973814D01*
X10481664Y-19973814D01*
X10453093Y-19959529D01*
X10438807Y-19945243D01*
X10424521Y-19916672D01*
X10410236Y-19859529D01*
X10410236Y-19788100D01*
X10424521Y-19730957D01*
X10438807Y-19702386D01*
X10453093Y-19688100D01*
X10481664Y-19673814D01*
X10710236Y-19945243D02*
X10724521Y-19959529D01*
X10710236Y-19973814D01*
X10695950Y-19959529D01*
X10710236Y-19945243D01*
X10710236Y-19973814D01*
X10910236Y-19673814D02*
X10938807Y-19673814D01*
X10967378Y-19688100D01*
X10981664Y-19702386D01*
X10995950Y-19730957D01*
X11010236Y-19788100D01*
X11010236Y-19859529D01*
X10995950Y-19916672D01*
X10981664Y-19945243D01*
X10967378Y-19959529D01*
X10938807Y-19973814D01*
X10910236Y-19973814D01*
X10881664Y-19959529D01*
X10867378Y-19945243D01*
X10853093Y-19916672D01*
X10838807Y-19859529D01*
X10838807Y-19788100D01*
X10853093Y-19730957D01*
X10867378Y-19702386D01*
X10881664Y-19688100D01*
X10910236Y-19673814D01*
X11110236Y-19673814D02*
X11295950Y-19673814D01*
X11195950Y-19788100D01*
X11238807Y-19788100D01*
X11267378Y-19802386D01*
X11281664Y-19816672D01*
X11295950Y-19845243D01*
X11295950Y-19916672D01*
X11281664Y-19945243D01*
X11267378Y-19959529D01*
X11238807Y-19973814D01*
X11153093Y-19973814D01*
X11124521Y-19959529D01*
X11110236Y-19945243D01*
X11553093Y-19673814D02*
X11495950Y-19673814D01*
X11467378Y-19688100D01*
X11453093Y-19702386D01*
X11424521Y-19745243D01*
X11410236Y-19802386D01*
X11410236Y-19916672D01*
X11424521Y-19945243D01*
X11438807Y-19959529D01*
X11467378Y-19973814D01*
X11524521Y-19973814D01*
X11553093Y-19959529D01*
X11567378Y-19945243D01*
X11581664Y-19916672D01*
X11581664Y-19845243D01*
X11567378Y-19816672D01*
X11553093Y-19802386D01*
X11524521Y-19788100D01*
X11467378Y-19788100D01*
X11438807Y-19802386D01*
X11424521Y-19816672D01*
X11410236Y-19845243D01*
X11695950Y-19702386D02*
X11710236Y-19688100D01*
X11738807Y-19673814D01*
X11810236Y-19673814D01*
X11838807Y-19688100D01*
X11853093Y-19702386D01*
X11867378Y-19730957D01*
X11867378Y-19759529D01*
X11853093Y-19802386D01*
X11681664Y-19973814D01*
X11867378Y-19973814D01*
X11981664Y-19673814D02*
X11981664Y-19730957D01*
X12095950Y-19673814D02*
X12095950Y-19730957D01*
X12538807Y-20088100D02*
X12524521Y-20073814D01*
X12495950Y-20030957D01*
X12481664Y-20002386D01*
X12467378Y-19959529D01*
X12453093Y-19888100D01*
X12453093Y-19830957D01*
X12467378Y-19759529D01*
X12481664Y-19716672D01*
X12495950Y-19688100D01*
X12524521Y-19645243D01*
X12538807Y-19630957D01*
X12695950Y-19802386D02*
X12667378Y-19788100D01*
X12653093Y-19773814D01*
X12638807Y-19745243D01*
X12638807Y-19730957D01*
X12653093Y-19702386D01*
X12667378Y-19688100D01*
X12695950Y-19673814D01*
X12753093Y-19673814D01*
X12781664Y-19688100D01*
X12795950Y-19702386D01*
X12810236Y-19730957D01*
X12810236Y-19745243D01*
X12795950Y-19773814D01*
X12781664Y-19788100D01*
X12753093Y-19802386D01*
X12695950Y-19802386D01*
X12667378Y-19816672D01*
X12653093Y-19830957D01*
X12638807Y-19859529D01*
X12638807Y-19916672D01*
X12653093Y-19945243D01*
X12667378Y-19959529D01*
X12695950Y-19973814D01*
X12753093Y-19973814D01*
X12781664Y-19959529D01*
X12795950Y-19945243D01*
X12810236Y-19916672D01*
X12810236Y-19859529D01*
X12795950Y-19830957D01*
X12781664Y-19816672D01*
X12753093Y-19802386D01*
X13167378Y-19973814D02*
X13167378Y-19673814D01*
X13295950Y-19973814D02*
X13295950Y-19816672D01*
X13281664Y-19788100D01*
X13253093Y-19773814D01*
X13210236Y-19773814D01*
X13181664Y-19788100D01*
X13167378Y-19802386D01*
X13481664Y-19973814D02*
X13453093Y-19959529D01*
X13438807Y-19945243D01*
X13424521Y-19916672D01*
X13424521Y-19830957D01*
X13438807Y-19802386D01*
X13453093Y-19788100D01*
X13481664Y-19773814D01*
X13524521Y-19773814D01*
X13553093Y-19788100D01*
X13567378Y-19802386D01*
X13581664Y-19830957D01*
X13581664Y-19916672D01*
X13567378Y-19945243D01*
X13553093Y-19959529D01*
X13524521Y-19973814D01*
X13481664Y-19973814D01*
X13753093Y-19973814D02*
X13724521Y-19959529D01*
X13710236Y-19930957D01*
X13710236Y-19673814D01*
X13981664Y-19959529D02*
X13953093Y-19973814D01*
X13895950Y-19973814D01*
X13867378Y-19959529D01*
X13853093Y-19930957D01*
X13853093Y-19816672D01*
X13867378Y-19788100D01*
X13895950Y-19773814D01*
X13953093Y-19773814D01*
X13981664Y-19788100D01*
X13995950Y-19816672D01*
X13995950Y-19845243D01*
X13853093Y-19873814D01*
X14110236Y-19959529D02*
X14138807Y-19973814D01*
X14195950Y-19973814D01*
X14224521Y-19959529D01*
X14238807Y-19930957D01*
X14238807Y-19916672D01*
X14224521Y-19888100D01*
X14195950Y-19873814D01*
X14153093Y-19873814D01*
X14124521Y-19859529D01*
X14110236Y-19830957D01*
X14110236Y-19816672D01*
X14124521Y-19788100D01*
X14153093Y-19773814D01*
X14195950Y-19773814D01*
X14224521Y-19788100D01*
X14338807Y-20088100D02*
X14353093Y-20073814D01*
X14381664Y-20030957D01*
X14395950Y-20002386D01*
X14410236Y-19959529D01*
X14424521Y-19888100D01*
X14424521Y-19830957D01*
X14410236Y-19759529D01*
X14395950Y-19716672D01*
X14381664Y-19688100D01*
X14353093Y-19645243D01*
X14338807Y-19630957D01*
X7180950Y-20184100D02*
X7280950Y-20284100D01*
X7280950Y-20184100D02*
X7180950Y-20284100D01*
X7230950Y-20284100D02*
X7280950Y-20234100D01*
X7230950Y-20184100D01*
X7180950Y-20234100D01*
X7230950Y-20284100D01*
X7724521Y-20369814D02*
X7553093Y-20369814D01*
X7638807Y-20369814D02*
X7638807Y-20069814D01*
X7610236Y-20112672D01*
X7581664Y-20141243D01*
X7553093Y-20155529D01*
X7853093Y-20341243D02*
X7867378Y-20355529D01*
X7853093Y-20369814D01*
X7838807Y-20355529D01*
X7853093Y-20341243D01*
X7853093Y-20369814D01*
X8053093Y-20069814D02*
X8081664Y-20069814D01*
X8110236Y-20084100D01*
X8124521Y-20098386D01*
X8138807Y-20126957D01*
X8153093Y-20184100D01*
X8153093Y-20255529D01*
X8138807Y-20312672D01*
X8124521Y-20341243D01*
X8110236Y-20355529D01*
X8081664Y-20369814D01*
X8053093Y-20369814D01*
X8024521Y-20355529D01*
X8010236Y-20341243D01*
X7995950Y-20312672D01*
X7981664Y-20255529D01*
X7981664Y-20184100D01*
X7995950Y-20126957D01*
X8010236Y-20098386D01*
X8024521Y-20084100D01*
X8053093Y-20069814D01*
X8338807Y-20069814D02*
X8367378Y-20069814D01*
X8395950Y-20084100D01*
X8410236Y-20098386D01*
X8424521Y-20126957D01*
X8438807Y-20184100D01*
X8438807Y-20255529D01*
X8424521Y-20312672D01*
X8410236Y-20341243D01*
X8395950Y-20355529D01*
X8367378Y-20369814D01*
X8338807Y-20369814D01*
X8310236Y-20355529D01*
X8295950Y-20341243D01*
X8281664Y-20312672D01*
X8267378Y-20255529D01*
X8267378Y-20184100D01*
X8281664Y-20126957D01*
X8295950Y-20098386D01*
X8310236Y-20084100D01*
X8338807Y-20069814D01*
X8624521Y-20069814D02*
X8653093Y-20069814D01*
X8681664Y-20084100D01*
X8695950Y-20098386D01*
X8710236Y-20126957D01*
X8724521Y-20184100D01*
X8724521Y-20255529D01*
X8710236Y-20312672D01*
X8695950Y-20341243D01*
X8681664Y-20355529D01*
X8653093Y-20369814D01*
X8624521Y-20369814D01*
X8595950Y-20355529D01*
X8581664Y-20341243D01*
X8567378Y-20312672D01*
X8553093Y-20255529D01*
X8553093Y-20184100D01*
X8567378Y-20126957D01*
X8581664Y-20098386D01*
X8595950Y-20084100D01*
X8624521Y-20069814D01*
X8853093Y-20369814D02*
X8853093Y-20169814D01*
X8853093Y-20198386D02*
X8867378Y-20184100D01*
X8895950Y-20169814D01*
X8938807Y-20169814D01*
X8967378Y-20184100D01*
X8981664Y-20212672D01*
X8981664Y-20369814D01*
X8981664Y-20212672D02*
X8995950Y-20184100D01*
X9024521Y-20169814D01*
X9067378Y-20169814D01*
X9095950Y-20184100D01*
X9110236Y-20212672D01*
X9110236Y-20369814D01*
X9253093Y-20369814D02*
X9253093Y-20169814D01*
X9253093Y-20198386D02*
X9267378Y-20184100D01*
X9295950Y-20169814D01*
X9338807Y-20169814D01*
X9367378Y-20184100D01*
X9381664Y-20212672D01*
X9381664Y-20369814D01*
X9381664Y-20212672D02*
X9395950Y-20184100D01*
X9424521Y-20169814D01*
X9467378Y-20169814D01*
X9495950Y-20184100D01*
X9510236Y-20212672D01*
X9510236Y-20369814D01*
X10095950Y-20055529D02*
X9838807Y-20441243D01*
X10481664Y-20069814D02*
X10510236Y-20069814D01*
X10538807Y-20084100D01*
X10553093Y-20098386D01*
X10567378Y-20126957D01*
X10581664Y-20184100D01*
X10581664Y-20255529D01*
X10567378Y-20312672D01*
X10553093Y-20341243D01*
X10538807Y-20355529D01*
X10510236Y-20369814D01*
X10481664Y-20369814D01*
X10453093Y-20355529D01*
X10438807Y-20341243D01*
X10424521Y-20312672D01*
X10410236Y-20255529D01*
X10410236Y-20184100D01*
X10424521Y-20126957D01*
X10438807Y-20098386D01*
X10453093Y-20084100D01*
X10481664Y-20069814D01*
X10710236Y-20341243D02*
X10724521Y-20355529D01*
X10710236Y-20369814D01*
X10695950Y-20355529D01*
X10710236Y-20341243D01*
X10710236Y-20369814D01*
X10910236Y-20069814D02*
X10938807Y-20069814D01*
X10967378Y-20084100D01*
X10981664Y-20098386D01*
X10995950Y-20126957D01*
X11010236Y-20184100D01*
X11010236Y-20255529D01*
X10995950Y-20312672D01*
X10981664Y-20341243D01*
X10967378Y-20355529D01*
X10938807Y-20369814D01*
X10910236Y-20369814D01*
X10881664Y-20355529D01*
X10867378Y-20341243D01*
X10853093Y-20312672D01*
X10838807Y-20255529D01*
X10838807Y-20184100D01*
X10853093Y-20126957D01*
X10867378Y-20098386D01*
X10881664Y-20084100D01*
X10910236Y-20069814D01*
X11110236Y-20069814D02*
X11295950Y-20069814D01*
X11195950Y-20184100D01*
X11238807Y-20184100D01*
X11267378Y-20198386D01*
X11281664Y-20212672D01*
X11295950Y-20241243D01*
X11295950Y-20312672D01*
X11281664Y-20341243D01*
X11267378Y-20355529D01*
X11238807Y-20369814D01*
X11153093Y-20369814D01*
X11124521Y-20355529D01*
X11110236Y-20341243D01*
X11438807Y-20369814D02*
X11495950Y-20369814D01*
X11524521Y-20355529D01*
X11538807Y-20341243D01*
X11567378Y-20298386D01*
X11581664Y-20241243D01*
X11581664Y-20126957D01*
X11567378Y-20098386D01*
X11553093Y-20084100D01*
X11524521Y-20069814D01*
X11467378Y-20069814D01*
X11438807Y-20084100D01*
X11424521Y-20098386D01*
X11410236Y-20126957D01*
X11410236Y-20198386D01*
X11424521Y-20226957D01*
X11438807Y-20241243D01*
X11467378Y-20255529D01*
X11524521Y-20255529D01*
X11553093Y-20241243D01*
X11567378Y-20226957D01*
X11581664Y-20198386D01*
X11838807Y-20169814D02*
X11838807Y-20369814D01*
X11767378Y-20055529D02*
X11695950Y-20269814D01*
X11881664Y-20269814D01*
X11981664Y-20069814D02*
X11981664Y-20126957D01*
X12095950Y-20069814D02*
X12095950Y-20126957D01*
X12538807Y-20484100D02*
X12524521Y-20469814D01*
X12495950Y-20426957D01*
X12481664Y-20398386D01*
X12467378Y-20355529D01*
X12453093Y-20284100D01*
X12453093Y-20226957D01*
X12467378Y-20155529D01*
X12481664Y-20112672D01*
X12495950Y-20084100D01*
X12524521Y-20041243D01*
X12538807Y-20026957D01*
X12810236Y-20369814D02*
X12638807Y-20369814D01*
X12724521Y-20369814D02*
X12724521Y-20069814D01*
X12695950Y-20112672D01*
X12667378Y-20141243D01*
X12638807Y-20155529D01*
X12924521Y-20098386D02*
X12938807Y-20084100D01*
X12967378Y-20069814D01*
X13038807Y-20069814D01*
X13067378Y-20084100D01*
X13081664Y-20098386D01*
X13095950Y-20126957D01*
X13095950Y-20155529D01*
X13081664Y-20198386D01*
X12910236Y-20369814D01*
X13095950Y-20369814D01*
X13453093Y-20369814D02*
X13453093Y-20069814D01*
X13581664Y-20369814D02*
X13581664Y-20212672D01*
X13567378Y-20184100D01*
X13538807Y-20169814D01*
X13495950Y-20169814D01*
X13467378Y-20184100D01*
X13453093Y-20198386D01*
X13767378Y-20369814D02*
X13738807Y-20355529D01*
X13724521Y-20341243D01*
X13710236Y-20312672D01*
X13710236Y-20226957D01*
X13724521Y-20198386D01*
X13738807Y-20184100D01*
X13767378Y-20169814D01*
X13810236Y-20169814D01*
X13838807Y-20184100D01*
X13853093Y-20198386D01*
X13867378Y-20226957D01*
X13867378Y-20312672D01*
X13853093Y-20341243D01*
X13838807Y-20355529D01*
X13810236Y-20369814D01*
X13767378Y-20369814D01*
X14038807Y-20369814D02*
X14010236Y-20355529D01*
X13995950Y-20326957D01*
X13995950Y-20069814D01*
X14267378Y-20355529D02*
X14238807Y-20369814D01*
X14181664Y-20369814D01*
X14153093Y-20355529D01*
X14138807Y-20326957D01*
X14138807Y-20212672D01*
X14153093Y-20184100D01*
X14181664Y-20169814D01*
X14238807Y-20169814D01*
X14267378Y-20184100D01*
X14281664Y-20212672D01*
X14281664Y-20241243D01*
X14138807Y-20269814D01*
X14395950Y-20355529D02*
X14424521Y-20369814D01*
X14481664Y-20369814D01*
X14510236Y-20355529D01*
X14524521Y-20326957D01*
X14524521Y-20312672D01*
X14510236Y-20284100D01*
X14481664Y-20269814D01*
X14438807Y-20269814D01*
X14410236Y-20255529D01*
X14395950Y-20226957D01*
X14395950Y-20212672D01*
X14410236Y-20184100D01*
X14438807Y-20169814D01*
X14481664Y-20169814D01*
X14510236Y-20184100D01*
X14624521Y-20484100D02*
X14638807Y-20469814D01*
X14667378Y-20426957D01*
X14681664Y-20398386D01*
X14695950Y-20355529D01*
X14710236Y-20284100D01*
X14710236Y-20226957D01*
X14695950Y-20155529D01*
X14681664Y-20112672D01*
X14667378Y-20084100D01*
X14638807Y-20041243D01*
X14624521Y-20026957D01*
X7230150Y-20579300D02*
X7230150Y-20680900D01*
X7179350Y-20630100D02*
X7280950Y-20630100D01*
X7280950Y-20630100D02*
G75*
G03*
X7280950Y-20630100I-50800J0D01*
G01*
X7724521Y-20765814D02*
X7553093Y-20765814D01*
X7638807Y-20765814D02*
X7638807Y-20465814D01*
X7610236Y-20508672D01*
X7581664Y-20537243D01*
X7553093Y-20551529D01*
X7853093Y-20737243D02*
X7867378Y-20751529D01*
X7853093Y-20765814D01*
X7838807Y-20751529D01*
X7853093Y-20737243D01*
X7853093Y-20765814D01*
X8053093Y-20465814D02*
X8081664Y-20465814D01*
X8110236Y-20480100D01*
X8124521Y-20494386D01*
X8138807Y-20522957D01*
X8153093Y-20580100D01*
X8153093Y-20651529D01*
X8138807Y-20708672D01*
X8124521Y-20737243D01*
X8110236Y-20751529D01*
X8081664Y-20765814D01*
X8053093Y-20765814D01*
X8024521Y-20751529D01*
X8010236Y-20737243D01*
X7995950Y-20708672D01*
X7981664Y-20651529D01*
X7981664Y-20580100D01*
X7995950Y-20522957D01*
X8010236Y-20494386D01*
X8024521Y-20480100D01*
X8053093Y-20465814D01*
X8438807Y-20765814D02*
X8267378Y-20765814D01*
X8353093Y-20765814D02*
X8353093Y-20465814D01*
X8324521Y-20508672D01*
X8295950Y-20537243D01*
X8267378Y-20551529D01*
X8695950Y-20465814D02*
X8638807Y-20465814D01*
X8610236Y-20480100D01*
X8595950Y-20494386D01*
X8567378Y-20537243D01*
X8553093Y-20594386D01*
X8553093Y-20708672D01*
X8567378Y-20737243D01*
X8581664Y-20751529D01*
X8610236Y-20765814D01*
X8667378Y-20765814D01*
X8695950Y-20751529D01*
X8710236Y-20737243D01*
X8724521Y-20708672D01*
X8724521Y-20637243D01*
X8710236Y-20608672D01*
X8695950Y-20594386D01*
X8667378Y-20580100D01*
X8610236Y-20580100D01*
X8581664Y-20594386D01*
X8567378Y-20608672D01*
X8553093Y-20637243D01*
X8853093Y-20765814D02*
X8853093Y-20565814D01*
X8853093Y-20594386D02*
X8867378Y-20580100D01*
X8895950Y-20565814D01*
X8938807Y-20565814D01*
X8967378Y-20580100D01*
X8981664Y-20608672D01*
X8981664Y-20765814D01*
X8981664Y-20608672D02*
X8995950Y-20580100D01*
X9024521Y-20565814D01*
X9067378Y-20565814D01*
X9095950Y-20580100D01*
X9110236Y-20608672D01*
X9110236Y-20765814D01*
X9253093Y-20765814D02*
X9253093Y-20565814D01*
X9253093Y-20594386D02*
X9267378Y-20580100D01*
X9295950Y-20565814D01*
X9338807Y-20565814D01*
X9367378Y-20580100D01*
X9381664Y-20608672D01*
X9381664Y-20765814D01*
X9381664Y-20608672D02*
X9395950Y-20580100D01*
X9424521Y-20565814D01*
X9467378Y-20565814D01*
X9495950Y-20580100D01*
X9510236Y-20608672D01*
X9510236Y-20765814D01*
X10095950Y-20451529D02*
X9838807Y-20837243D01*
X10481664Y-20465814D02*
X10510236Y-20465814D01*
X10538807Y-20480100D01*
X10553093Y-20494386D01*
X10567378Y-20522957D01*
X10581664Y-20580100D01*
X10581664Y-20651529D01*
X10567378Y-20708672D01*
X10553093Y-20737243D01*
X10538807Y-20751529D01*
X10510236Y-20765814D01*
X10481664Y-20765814D01*
X10453093Y-20751529D01*
X10438807Y-20737243D01*
X10424521Y-20708672D01*
X10410236Y-20651529D01*
X10410236Y-20580100D01*
X10424521Y-20522957D01*
X10438807Y-20494386D01*
X10453093Y-20480100D01*
X10481664Y-20465814D01*
X10710236Y-20737243D02*
X10724521Y-20751529D01*
X10710236Y-20765814D01*
X10695950Y-20751529D01*
X10710236Y-20737243D01*
X10710236Y-20765814D01*
X10910236Y-20465814D02*
X10938807Y-20465814D01*
X10967378Y-20480100D01*
X10981664Y-20494386D01*
X10995950Y-20522957D01*
X11010236Y-20580100D01*
X11010236Y-20651529D01*
X10995950Y-20708672D01*
X10981664Y-20737243D01*
X10967378Y-20751529D01*
X10938807Y-20765814D01*
X10910236Y-20765814D01*
X10881664Y-20751529D01*
X10867378Y-20737243D01*
X10853093Y-20708672D01*
X10838807Y-20651529D01*
X10838807Y-20580100D01*
X10853093Y-20522957D01*
X10867378Y-20494386D01*
X10881664Y-20480100D01*
X10910236Y-20465814D01*
X11267378Y-20565814D02*
X11267378Y-20765814D01*
X11195950Y-20451529D02*
X11124521Y-20665814D01*
X11310236Y-20665814D01*
X11481664Y-20465814D02*
X11510236Y-20465814D01*
X11538807Y-20480100D01*
X11553093Y-20494386D01*
X11567378Y-20522957D01*
X11581664Y-20580100D01*
X11581664Y-20651529D01*
X11567378Y-20708672D01*
X11553093Y-20737243D01*
X11538807Y-20751529D01*
X11510236Y-20765814D01*
X11481664Y-20765814D01*
X11453093Y-20751529D01*
X11438807Y-20737243D01*
X11424521Y-20708672D01*
X11410236Y-20651529D01*
X11410236Y-20580100D01*
X11424521Y-20522957D01*
X11438807Y-20494386D01*
X11453093Y-20480100D01*
X11481664Y-20465814D01*
X11767378Y-20465814D02*
X11795950Y-20465814D01*
X11824521Y-20480100D01*
X11838807Y-20494386D01*
X11853093Y-20522957D01*
X11867378Y-20580100D01*
X11867378Y-20651529D01*
X11853093Y-20708672D01*
X11838807Y-20737243D01*
X11824521Y-20751529D01*
X11795950Y-20765814D01*
X11767378Y-20765814D01*
X11738807Y-20751529D01*
X11724521Y-20737243D01*
X11710236Y-20708672D01*
X11695950Y-20651529D01*
X11695950Y-20580100D01*
X11710236Y-20522957D01*
X11724521Y-20494386D01*
X11738807Y-20480100D01*
X11767378Y-20465814D01*
X11981664Y-20465814D02*
X11981664Y-20522957D01*
X12095950Y-20465814D02*
X12095950Y-20522957D01*
X12538807Y-20880100D02*
X12524521Y-20865814D01*
X12495950Y-20822957D01*
X12481664Y-20794386D01*
X12467378Y-20751529D01*
X12453093Y-20680100D01*
X12453093Y-20622957D01*
X12467378Y-20551529D01*
X12481664Y-20508672D01*
X12495950Y-20480100D01*
X12524521Y-20437243D01*
X12538807Y-20422957D01*
X12624521Y-20465814D02*
X12824521Y-20465814D01*
X12695950Y-20765814D01*
X13067378Y-20465814D02*
X13010236Y-20465814D01*
X12981664Y-20480100D01*
X12967378Y-20494386D01*
X12938807Y-20537243D01*
X12924521Y-20594386D01*
X12924521Y-20708672D01*
X12938807Y-20737243D01*
X12953093Y-20751529D01*
X12981664Y-20765814D01*
X13038807Y-20765814D01*
X13067378Y-20751529D01*
X13081664Y-20737243D01*
X13095950Y-20708672D01*
X13095950Y-20637243D01*
X13081664Y-20608672D01*
X13067378Y-20594386D01*
X13038807Y-20580100D01*
X12981664Y-20580100D01*
X12953093Y-20594386D01*
X12938807Y-20608672D01*
X12924521Y-20637243D01*
X13453093Y-20765814D02*
X13453093Y-20465814D01*
X13581664Y-20765814D02*
X13581664Y-20608672D01*
X13567378Y-20580100D01*
X13538807Y-20565814D01*
X13495950Y-20565814D01*
X13467378Y-20580100D01*
X13453093Y-20594386D01*
X13767378Y-20765814D02*
X13738807Y-20751529D01*
X13724521Y-20737243D01*
X13710236Y-20708672D01*
X13710236Y-20622957D01*
X13724521Y-20594386D01*
X13738807Y-20580100D01*
X13767378Y-20565814D01*
X13810236Y-20565814D01*
X13838807Y-20580100D01*
X13853093Y-20594386D01*
X13867378Y-20622957D01*
X13867378Y-20708672D01*
X13853093Y-20737243D01*
X13838807Y-20751529D01*
X13810236Y-20765814D01*
X13767378Y-20765814D01*
X14038807Y-20765814D02*
X14010236Y-20751529D01*
X13995950Y-20722957D01*
X13995950Y-20465814D01*
X14267378Y-20751529D02*
X14238807Y-20765814D01*
X14181664Y-20765814D01*
X14153093Y-20751529D01*
X14138807Y-20722957D01*
X14138807Y-20608672D01*
X14153093Y-20580100D01*
X14181664Y-20565814D01*
X14238807Y-20565814D01*
X14267378Y-20580100D01*
X14281664Y-20608672D01*
X14281664Y-20637243D01*
X14138807Y-20665814D01*
X14395950Y-20751529D02*
X14424521Y-20765814D01*
X14481664Y-20765814D01*
X14510236Y-20751529D01*
X14524521Y-20722957D01*
X14524521Y-20708672D01*
X14510236Y-20680100D01*
X14481664Y-20665814D01*
X14438807Y-20665814D01*
X14410236Y-20651529D01*
X14395950Y-20622957D01*
X14395950Y-20608672D01*
X14410236Y-20580100D01*
X14438807Y-20565814D01*
X14481664Y-20565814D01*
X14510236Y-20580100D01*
X14624521Y-20880100D02*
X14638807Y-20865814D01*
X14667378Y-20822957D01*
X14681664Y-20794386D01*
X14695950Y-20751529D01*
X14710236Y-20680100D01*
X14710236Y-20622957D01*
X14695950Y-20551529D01*
X14681664Y-20508672D01*
X14667378Y-20480100D01*
X14638807Y-20437243D01*
X14624521Y-20422957D01*
X7263377Y-21068527D02*
X7263377Y-20983673D01*
X7178523Y-20983673D01*
X7178523Y-21068527D01*
X7263377Y-21068527D01*
X7280950Y-21026100D02*
G75*
G03*
X7280950Y-21026100I-60000J0D01*
G01*
X7724521Y-21161814D02*
X7553093Y-21161814D01*
X7638807Y-21161814D02*
X7638807Y-20861814D01*
X7610236Y-20904672D01*
X7581664Y-20933243D01*
X7553093Y-20947529D01*
X7853093Y-21133243D02*
X7867378Y-21147529D01*
X7853093Y-21161814D01*
X7838807Y-21147529D01*
X7853093Y-21133243D01*
X7853093Y-21161814D01*
X7981664Y-20890386D02*
X7995950Y-20876100D01*
X8024521Y-20861814D01*
X8095950Y-20861814D01*
X8124521Y-20876100D01*
X8138807Y-20890386D01*
X8153093Y-20918957D01*
X8153093Y-20947529D01*
X8138807Y-20990386D01*
X7967378Y-21161814D01*
X8153093Y-21161814D01*
X8338807Y-20861814D02*
X8367378Y-20861814D01*
X8395950Y-20876100D01*
X8410236Y-20890386D01*
X8424521Y-20918957D01*
X8438807Y-20976100D01*
X8438807Y-21047529D01*
X8424521Y-21104672D01*
X8410236Y-21133243D01*
X8395950Y-21147529D01*
X8367378Y-21161814D01*
X8338807Y-21161814D01*
X8310236Y-21147529D01*
X8295950Y-21133243D01*
X8281664Y-21104672D01*
X8267378Y-21047529D01*
X8267378Y-20976100D01*
X8281664Y-20918957D01*
X8295950Y-20890386D01*
X8310236Y-20876100D01*
X8338807Y-20861814D01*
X8624521Y-20861814D02*
X8653093Y-20861814D01*
X8681664Y-20876100D01*
X8695950Y-20890386D01*
X8710236Y-20918957D01*
X8724521Y-20976100D01*
X8724521Y-21047529D01*
X8710236Y-21104672D01*
X8695950Y-21133243D01*
X8681664Y-21147529D01*
X8653093Y-21161814D01*
X8624521Y-21161814D01*
X8595950Y-21147529D01*
X8581664Y-21133243D01*
X8567378Y-21104672D01*
X8553093Y-21047529D01*
X8553093Y-20976100D01*
X8567378Y-20918957D01*
X8581664Y-20890386D01*
X8595950Y-20876100D01*
X8624521Y-20861814D01*
X8853093Y-21161814D02*
X8853093Y-20961814D01*
X8853093Y-20990386D02*
X8867378Y-20976100D01*
X8895950Y-20961814D01*
X8938807Y-20961814D01*
X8967378Y-20976100D01*
X8981664Y-21004672D01*
X8981664Y-21161814D01*
X8981664Y-21004672D02*
X8995950Y-20976100D01*
X9024521Y-20961814D01*
X9067378Y-20961814D01*
X9095950Y-20976100D01*
X9110236Y-21004672D01*
X9110236Y-21161814D01*
X9253093Y-21161814D02*
X9253093Y-20961814D01*
X9253093Y-20990386D02*
X9267378Y-20976100D01*
X9295950Y-20961814D01*
X9338807Y-20961814D01*
X9367378Y-20976100D01*
X9381664Y-21004672D01*
X9381664Y-21161814D01*
X9381664Y-21004672D02*
X9395950Y-20976100D01*
X9424521Y-20961814D01*
X9467378Y-20961814D01*
X9495950Y-20976100D01*
X9510236Y-21004672D01*
X9510236Y-21161814D01*
X10095950Y-20847529D02*
X9838807Y-21233243D01*
X10481664Y-20861814D02*
X10510236Y-20861814D01*
X10538807Y-20876100D01*
X10553093Y-20890386D01*
X10567378Y-20918957D01*
X10581664Y-20976100D01*
X10581664Y-21047529D01*
X10567378Y-21104672D01*
X10553093Y-21133243D01*
X10538807Y-21147529D01*
X10510236Y-21161814D01*
X10481664Y-21161814D01*
X10453093Y-21147529D01*
X10438807Y-21133243D01*
X10424521Y-21104672D01*
X10410236Y-21047529D01*
X10410236Y-20976100D01*
X10424521Y-20918957D01*
X10438807Y-20890386D01*
X10453093Y-20876100D01*
X10481664Y-20861814D01*
X10710236Y-21133243D02*
X10724521Y-21147529D01*
X10710236Y-21161814D01*
X10695950Y-21147529D01*
X10710236Y-21133243D01*
X10710236Y-21161814D01*
X10910236Y-20861814D02*
X10938807Y-20861814D01*
X10967378Y-20876100D01*
X10981664Y-20890386D01*
X10995950Y-20918957D01*
X11010236Y-20976100D01*
X11010236Y-21047529D01*
X10995950Y-21104672D01*
X10981664Y-21133243D01*
X10967378Y-21147529D01*
X10938807Y-21161814D01*
X10910236Y-21161814D01*
X10881664Y-21147529D01*
X10867378Y-21133243D01*
X10853093Y-21104672D01*
X10838807Y-21047529D01*
X10838807Y-20976100D01*
X10853093Y-20918957D01*
X10867378Y-20890386D01*
X10881664Y-20876100D01*
X10910236Y-20861814D01*
X11267378Y-20961814D02*
X11267378Y-21161814D01*
X11195950Y-20847529D02*
X11124521Y-21061814D01*
X11310236Y-21061814D01*
X11395950Y-20861814D02*
X11595950Y-20861814D01*
X11467378Y-21161814D01*
X11695950Y-20890386D02*
X11710236Y-20876100D01*
X11738807Y-20861814D01*
X11810236Y-20861814D01*
X11838807Y-20876100D01*
X11853093Y-20890386D01*
X11867378Y-20918957D01*
X11867378Y-20947529D01*
X11853093Y-20990386D01*
X11681664Y-21161814D01*
X11867378Y-21161814D01*
X11981664Y-20861814D02*
X11981664Y-20918957D01*
X12095950Y-20861814D02*
X12095950Y-20918957D01*
X12538807Y-21276100D02*
X12524521Y-21261814D01*
X12495950Y-21218957D01*
X12481664Y-21190386D01*
X12467378Y-21147529D01*
X12453093Y-21076100D01*
X12453093Y-21018957D01*
X12467378Y-20947529D01*
X12481664Y-20904672D01*
X12495950Y-20876100D01*
X12524521Y-20833243D01*
X12538807Y-20818957D01*
X12795950Y-20861814D02*
X12653093Y-20861814D01*
X12638807Y-21004672D01*
X12653093Y-20990386D01*
X12681664Y-20976100D01*
X12753093Y-20976100D01*
X12781664Y-20990386D01*
X12795950Y-21004672D01*
X12810236Y-21033243D01*
X12810236Y-21104672D01*
X12795950Y-21133243D01*
X12781664Y-21147529D01*
X12753093Y-21161814D01*
X12681664Y-21161814D01*
X12653093Y-21147529D01*
X12638807Y-21133243D01*
X12910236Y-20861814D02*
X13095950Y-20861814D01*
X12995950Y-20976100D01*
X13038807Y-20976100D01*
X13067378Y-20990386D01*
X13081664Y-21004672D01*
X13095950Y-21033243D01*
X13095950Y-21104672D01*
X13081664Y-21133243D01*
X13067378Y-21147529D01*
X13038807Y-21161814D01*
X12953093Y-21161814D01*
X12924521Y-21147529D01*
X12910236Y-21133243D01*
X13453093Y-21161814D02*
X13453093Y-20861814D01*
X13581664Y-21161814D02*
X13581664Y-21004672D01*
X13567378Y-20976100D01*
X13538807Y-20961814D01*
X13495950Y-20961814D01*
X13467378Y-20976100D01*
X13453093Y-20990386D01*
X13767378Y-21161814D02*
X13738807Y-21147529D01*
X13724521Y-21133243D01*
X13710236Y-21104672D01*
X13710236Y-21018957D01*
X13724521Y-20990386D01*
X13738807Y-20976100D01*
X13767378Y-20961814D01*
X13810236Y-20961814D01*
X13838807Y-20976100D01*
X13853093Y-20990386D01*
X13867378Y-21018957D01*
X13867378Y-21104672D01*
X13853093Y-21133243D01*
X13838807Y-21147529D01*
X13810236Y-21161814D01*
X13767378Y-21161814D01*
X14038807Y-21161814D02*
X14010236Y-21147529D01*
X13995950Y-21118957D01*
X13995950Y-20861814D01*
X14267378Y-21147529D02*
X14238807Y-21161814D01*
X14181664Y-21161814D01*
X14153093Y-21147529D01*
X14138807Y-21118957D01*
X14138807Y-21004672D01*
X14153093Y-20976100D01*
X14181664Y-20961814D01*
X14238807Y-20961814D01*
X14267378Y-20976100D01*
X14281664Y-21004672D01*
X14281664Y-21033243D01*
X14138807Y-21061814D01*
X14395950Y-21147529D02*
X14424521Y-21161814D01*
X14481664Y-21161814D01*
X14510236Y-21147529D01*
X14524521Y-21118957D01*
X14524521Y-21104672D01*
X14510236Y-21076100D01*
X14481664Y-21061814D01*
X14438807Y-21061814D01*
X14410236Y-21047529D01*
X14395950Y-21018957D01*
X14395950Y-21004672D01*
X14410236Y-20976100D01*
X14438807Y-20961814D01*
X14481664Y-20961814D01*
X14510236Y-20976100D01*
X14624521Y-21276100D02*
X14638807Y-21261814D01*
X14667378Y-21218957D01*
X14681664Y-21190386D01*
X14695950Y-21147529D01*
X14710236Y-21076100D01*
X14710236Y-21018957D01*
X14695950Y-20947529D01*
X14681664Y-20904672D01*
X14667378Y-20876100D01*
X14638807Y-20833243D01*
X14624521Y-20818957D01*
X7164450Y-21538600D02*
X7280950Y-21422100D01*
X7164450Y-21305600D01*
X7047950Y-21422100D01*
X7164450Y-21538600D01*
X7280950Y-21422100D02*
G75*
G03*
X7280950Y-21422100I-116500J0D01*
G01*
X7553093Y-21286386D02*
X7567378Y-21272100D01*
X7595950Y-21257814D01*
X7667378Y-21257814D01*
X7695950Y-21272100D01*
X7710236Y-21286386D01*
X7724521Y-21314957D01*
X7724521Y-21343529D01*
X7710236Y-21386386D01*
X7538807Y-21557814D01*
X7724521Y-21557814D01*
X7853093Y-21529243D02*
X7867378Y-21543529D01*
X7853093Y-21557814D01*
X7838807Y-21543529D01*
X7853093Y-21529243D01*
X7853093Y-21557814D01*
X7967378Y-21257814D02*
X8153093Y-21257814D01*
X8053093Y-21372100D01*
X8095950Y-21372100D01*
X8124521Y-21386386D01*
X8138807Y-21400672D01*
X8153093Y-21429243D01*
X8153093Y-21500672D01*
X8138807Y-21529243D01*
X8124521Y-21543529D01*
X8095950Y-21557814D01*
X8010236Y-21557814D01*
X7981664Y-21543529D01*
X7967378Y-21529243D01*
X8253093Y-21257814D02*
X8438807Y-21257814D01*
X8338807Y-21372100D01*
X8381664Y-21372100D01*
X8410236Y-21386386D01*
X8424521Y-21400672D01*
X8438807Y-21429243D01*
X8438807Y-21500672D01*
X8424521Y-21529243D01*
X8410236Y-21543529D01*
X8381664Y-21557814D01*
X8295950Y-21557814D01*
X8267378Y-21543529D01*
X8253093Y-21529243D01*
X8624521Y-21257814D02*
X8653093Y-21257814D01*
X8681664Y-21272100D01*
X8695950Y-21286386D01*
X8710236Y-21314957D01*
X8724521Y-21372100D01*
X8724521Y-21443529D01*
X8710236Y-21500672D01*
X8695950Y-21529243D01*
X8681664Y-21543529D01*
X8653093Y-21557814D01*
X8624521Y-21557814D01*
X8595950Y-21543529D01*
X8581664Y-21529243D01*
X8567378Y-21500672D01*
X8553093Y-21443529D01*
X8553093Y-21372100D01*
X8567378Y-21314957D01*
X8581664Y-21286386D01*
X8595950Y-21272100D01*
X8624521Y-21257814D01*
X8853093Y-21557814D02*
X8853093Y-21357814D01*
X8853093Y-21386386D02*
X8867378Y-21372100D01*
X8895950Y-21357814D01*
X8938807Y-21357814D01*
X8967378Y-21372100D01*
X8981664Y-21400672D01*
X8981664Y-21557814D01*
X8981664Y-21400672D02*
X8995950Y-21372100D01*
X9024521Y-21357814D01*
X9067378Y-21357814D01*
X9095950Y-21372100D01*
X9110236Y-21400672D01*
X9110236Y-21557814D01*
X9253093Y-21557814D02*
X9253093Y-21357814D01*
X9253093Y-21386386D02*
X9267378Y-21372100D01*
X9295950Y-21357814D01*
X9338807Y-21357814D01*
X9367378Y-21372100D01*
X9381664Y-21400672D01*
X9381664Y-21557814D01*
X9381664Y-21400672D02*
X9395950Y-21372100D01*
X9424521Y-21357814D01*
X9467378Y-21357814D01*
X9495950Y-21372100D01*
X9510236Y-21400672D01*
X9510236Y-21557814D01*
X10095950Y-21243529D02*
X9838807Y-21629243D01*
X10481664Y-21257814D02*
X10510236Y-21257814D01*
X10538807Y-21272100D01*
X10553093Y-21286386D01*
X10567378Y-21314957D01*
X10581664Y-21372100D01*
X10581664Y-21443529D01*
X10567378Y-21500672D01*
X10553093Y-21529243D01*
X10538807Y-21543529D01*
X10510236Y-21557814D01*
X10481664Y-21557814D01*
X10453093Y-21543529D01*
X10438807Y-21529243D01*
X10424521Y-21500672D01*
X10410236Y-21443529D01*
X10410236Y-21372100D01*
X10424521Y-21314957D01*
X10438807Y-21286386D01*
X10453093Y-21272100D01*
X10481664Y-21257814D01*
X10710236Y-21529243D02*
X10724521Y-21543529D01*
X10710236Y-21557814D01*
X10695950Y-21543529D01*
X10710236Y-21529243D01*
X10710236Y-21557814D01*
X10910236Y-21257814D02*
X10938807Y-21257814D01*
X10967378Y-21272100D01*
X10981664Y-21286386D01*
X10995950Y-21314957D01*
X11010236Y-21372100D01*
X11010236Y-21443529D01*
X10995950Y-21500672D01*
X10981664Y-21529243D01*
X10967378Y-21543529D01*
X10938807Y-21557814D01*
X10910236Y-21557814D01*
X10881664Y-21543529D01*
X10867378Y-21529243D01*
X10853093Y-21500672D01*
X10838807Y-21443529D01*
X10838807Y-21372100D01*
X10853093Y-21314957D01*
X10867378Y-21286386D01*
X10881664Y-21272100D01*
X10910236Y-21257814D01*
X11153093Y-21557814D02*
X11210236Y-21557814D01*
X11238807Y-21543529D01*
X11253093Y-21529243D01*
X11281664Y-21486386D01*
X11295950Y-21429243D01*
X11295950Y-21314957D01*
X11281664Y-21286386D01*
X11267378Y-21272100D01*
X11238807Y-21257814D01*
X11181664Y-21257814D01*
X11153093Y-21272100D01*
X11138807Y-21286386D01*
X11124521Y-21314957D01*
X11124521Y-21386386D01*
X11138807Y-21414957D01*
X11153093Y-21429243D01*
X11181664Y-21443529D01*
X11238807Y-21443529D01*
X11267378Y-21429243D01*
X11281664Y-21414957D01*
X11295950Y-21386386D01*
X11581664Y-21557814D02*
X11410236Y-21557814D01*
X11495950Y-21557814D02*
X11495950Y-21257814D01*
X11467378Y-21300672D01*
X11438807Y-21329243D01*
X11410236Y-21343529D01*
X11681664Y-21257814D02*
X11881664Y-21257814D01*
X11753093Y-21557814D01*
X11981664Y-21257814D02*
X11981664Y-21314957D01*
X12095950Y-21257814D02*
X12095950Y-21314957D01*
X12538807Y-21672100D02*
X12524521Y-21657814D01*
X12495950Y-21614957D01*
X12481664Y-21586386D01*
X12467378Y-21543529D01*
X12453093Y-21472100D01*
X12453093Y-21414957D01*
X12467378Y-21343529D01*
X12481664Y-21300672D01*
X12495950Y-21272100D01*
X12524521Y-21229243D01*
X12538807Y-21214957D01*
X12781664Y-21357814D02*
X12781664Y-21557814D01*
X12710236Y-21243529D02*
X12638807Y-21457814D01*
X12824521Y-21457814D01*
X13167378Y-21557814D02*
X13167378Y-21257814D01*
X13295950Y-21557814D02*
X13295950Y-21400672D01*
X13281664Y-21372100D01*
X13253093Y-21357814D01*
X13210236Y-21357814D01*
X13181664Y-21372100D01*
X13167378Y-21386386D01*
X13481664Y-21557814D02*
X13453093Y-21543529D01*
X13438807Y-21529243D01*
X13424521Y-21500672D01*
X13424521Y-21414957D01*
X13438807Y-21386386D01*
X13453093Y-21372100D01*
X13481664Y-21357814D01*
X13524521Y-21357814D01*
X13553093Y-21372100D01*
X13567378Y-21386386D01*
X13581664Y-21414957D01*
X13581664Y-21500672D01*
X13567378Y-21529243D01*
X13553093Y-21543529D01*
X13524521Y-21557814D01*
X13481664Y-21557814D01*
X13753093Y-21557814D02*
X13724521Y-21543529D01*
X13710236Y-21514957D01*
X13710236Y-21257814D01*
X13981664Y-21543529D02*
X13953093Y-21557814D01*
X13895950Y-21557814D01*
X13867378Y-21543529D01*
X13853093Y-21514957D01*
X13853093Y-21400672D01*
X13867378Y-21372100D01*
X13895950Y-21357814D01*
X13953093Y-21357814D01*
X13981664Y-21372100D01*
X13995950Y-21400672D01*
X13995950Y-21429243D01*
X13853093Y-21457814D01*
X14110236Y-21543529D02*
X14138807Y-21557814D01*
X14195950Y-21557814D01*
X14224521Y-21543529D01*
X14238807Y-21514957D01*
X14238807Y-21500672D01*
X14224521Y-21472100D01*
X14195950Y-21457814D01*
X14153093Y-21457814D01*
X14124521Y-21443529D01*
X14110236Y-21414957D01*
X14110236Y-21400672D01*
X14124521Y-21372100D01*
X14153093Y-21357814D01*
X14195950Y-21357814D01*
X14224521Y-21372100D01*
X14338807Y-21672100D02*
X14353093Y-21657814D01*
X14381664Y-21614957D01*
X14395950Y-21586386D01*
X14410236Y-21543529D01*
X14424521Y-21472100D01*
X14424521Y-21414957D01*
X14410236Y-21343529D01*
X14395950Y-21300672D01*
X14381664Y-21272100D01*
X14353093Y-21229243D01*
X14338807Y-21214957D01*
X7120950Y-21658100D02*
X7120950Y-21978100D01*
X6960950Y-21818100D02*
X7280950Y-21818100D01*
X7234088Y-21931238D02*
X7234088Y-21704962D01*
X7007812Y-21704962D01*
X7007812Y-21931238D01*
X7234088Y-21931238D01*
X7538807Y-21653814D02*
X7724521Y-21653814D01*
X7624521Y-21768100D01*
X7667378Y-21768100D01*
X7695950Y-21782386D01*
X7710236Y-21796672D01*
X7724521Y-21825243D01*
X7724521Y-21896672D01*
X7710236Y-21925243D01*
X7695950Y-21939529D01*
X7667378Y-21953814D01*
X7581664Y-21953814D01*
X7553093Y-21939529D01*
X7538807Y-21925243D01*
X7853093Y-21925243D02*
X7867378Y-21939529D01*
X7853093Y-21953814D01*
X7838807Y-21939529D01*
X7853093Y-21925243D01*
X7853093Y-21953814D01*
X7981664Y-21682386D02*
X7995950Y-21668100D01*
X8024521Y-21653814D01*
X8095950Y-21653814D01*
X8124521Y-21668100D01*
X8138807Y-21682386D01*
X8153093Y-21710957D01*
X8153093Y-21739529D01*
X8138807Y-21782386D01*
X7967378Y-21953814D01*
X8153093Y-21953814D01*
X8338807Y-21653814D02*
X8367378Y-21653814D01*
X8395950Y-21668100D01*
X8410236Y-21682386D01*
X8424521Y-21710957D01*
X8438807Y-21768100D01*
X8438807Y-21839529D01*
X8424521Y-21896672D01*
X8410236Y-21925243D01*
X8395950Y-21939529D01*
X8367378Y-21953814D01*
X8338807Y-21953814D01*
X8310236Y-21939529D01*
X8295950Y-21925243D01*
X8281664Y-21896672D01*
X8267378Y-21839529D01*
X8267378Y-21768100D01*
X8281664Y-21710957D01*
X8295950Y-21682386D01*
X8310236Y-21668100D01*
X8338807Y-21653814D01*
X8624521Y-21653814D02*
X8653093Y-21653814D01*
X8681664Y-21668100D01*
X8695950Y-21682386D01*
X8710236Y-21710957D01*
X8724521Y-21768100D01*
X8724521Y-21839529D01*
X8710236Y-21896672D01*
X8695950Y-21925243D01*
X8681664Y-21939529D01*
X8653093Y-21953814D01*
X8624521Y-21953814D01*
X8595950Y-21939529D01*
X8581664Y-21925243D01*
X8567378Y-21896672D01*
X8553093Y-21839529D01*
X8553093Y-21768100D01*
X8567378Y-21710957D01*
X8581664Y-21682386D01*
X8595950Y-21668100D01*
X8624521Y-21653814D01*
X8853093Y-21953814D02*
X8853093Y-21753814D01*
X8853093Y-21782386D02*
X8867378Y-21768100D01*
X8895950Y-21753814D01*
X8938807Y-21753814D01*
X8967378Y-21768100D01*
X8981664Y-21796672D01*
X8981664Y-21953814D01*
X8981664Y-21796672D02*
X8995950Y-21768100D01*
X9024521Y-21753814D01*
X9067378Y-21753814D01*
X9095950Y-21768100D01*
X9110236Y-21796672D01*
X9110236Y-21953814D01*
X9253093Y-21953814D02*
X9253093Y-21753814D01*
X9253093Y-21782386D02*
X9267378Y-21768100D01*
X9295950Y-21753814D01*
X9338807Y-21753814D01*
X9367378Y-21768100D01*
X9381664Y-21796672D01*
X9381664Y-21953814D01*
X9381664Y-21796672D02*
X9395950Y-21768100D01*
X9424521Y-21753814D01*
X9467378Y-21753814D01*
X9495950Y-21768100D01*
X9510236Y-21796672D01*
X9510236Y-21953814D01*
X10095950Y-21639529D02*
X9838807Y-22025243D01*
X10481664Y-21653814D02*
X10510236Y-21653814D01*
X10538807Y-21668100D01*
X10553093Y-21682386D01*
X10567378Y-21710957D01*
X10581664Y-21768100D01*
X10581664Y-21839529D01*
X10567378Y-21896672D01*
X10553093Y-21925243D01*
X10538807Y-21939529D01*
X10510236Y-21953814D01*
X10481664Y-21953814D01*
X10453093Y-21939529D01*
X10438807Y-21925243D01*
X10424521Y-21896672D01*
X10410236Y-21839529D01*
X10410236Y-21768100D01*
X10424521Y-21710957D01*
X10438807Y-21682386D01*
X10453093Y-21668100D01*
X10481664Y-21653814D01*
X10710236Y-21925243D02*
X10724521Y-21939529D01*
X10710236Y-21953814D01*
X10695950Y-21939529D01*
X10710236Y-21925243D01*
X10710236Y-21953814D01*
X11010236Y-21953814D02*
X10838807Y-21953814D01*
X10924521Y-21953814D02*
X10924521Y-21653814D01*
X10895950Y-21696672D01*
X10867378Y-21725243D01*
X10838807Y-21739529D01*
X11124521Y-21682386D02*
X11138807Y-21668100D01*
X11167378Y-21653814D01*
X11238807Y-21653814D01*
X11267378Y-21668100D01*
X11281664Y-21682386D01*
X11295950Y-21710957D01*
X11295950Y-21739529D01*
X11281664Y-21782386D01*
X11110236Y-21953814D01*
X11295950Y-21953814D01*
X11553093Y-21653814D02*
X11495950Y-21653814D01*
X11467378Y-21668100D01*
X11453093Y-21682386D01*
X11424521Y-21725243D01*
X11410236Y-21782386D01*
X11410236Y-21896672D01*
X11424521Y-21925243D01*
X11438807Y-21939529D01*
X11467378Y-21953814D01*
X11524521Y-21953814D01*
X11553093Y-21939529D01*
X11567378Y-21925243D01*
X11581664Y-21896672D01*
X11581664Y-21825243D01*
X11567378Y-21796672D01*
X11553093Y-21782386D01*
X11524521Y-21768100D01*
X11467378Y-21768100D01*
X11438807Y-21782386D01*
X11424521Y-21796672D01*
X11410236Y-21825243D01*
X11767378Y-21653814D02*
X11795950Y-21653814D01*
X11824521Y-21668100D01*
X11838807Y-21682386D01*
X11853093Y-21710957D01*
X11867378Y-21768100D01*
X11867378Y-21839529D01*
X11853093Y-21896672D01*
X11838807Y-21925243D01*
X11824521Y-21939529D01*
X11795950Y-21953814D01*
X11767378Y-21953814D01*
X11738807Y-21939529D01*
X11724521Y-21925243D01*
X11710236Y-21896672D01*
X11695950Y-21839529D01*
X11695950Y-21768100D01*
X11710236Y-21710957D01*
X11724521Y-21682386D01*
X11738807Y-21668100D01*
X11767378Y-21653814D01*
X11981664Y-21653814D02*
X11981664Y-21710957D01*
X12095950Y-21653814D02*
X12095950Y-21710957D01*
X12538807Y-22068100D02*
X12524521Y-22053814D01*
X12495950Y-22010957D01*
X12481664Y-21982386D01*
X12467378Y-21939529D01*
X12453093Y-21868100D01*
X12453093Y-21810957D01*
X12467378Y-21739529D01*
X12481664Y-21696672D01*
X12495950Y-21668100D01*
X12524521Y-21625243D01*
X12538807Y-21610957D01*
X12781664Y-21753814D02*
X12781664Y-21953814D01*
X12710236Y-21639529D02*
X12638807Y-21853814D01*
X12824521Y-21853814D01*
X13167378Y-21953814D02*
X13167378Y-21653814D01*
X13295950Y-21953814D02*
X13295950Y-21796672D01*
X13281664Y-21768100D01*
X13253093Y-21753814D01*
X13210236Y-21753814D01*
X13181664Y-21768100D01*
X13167378Y-21782386D01*
X13481664Y-21953814D02*
X13453093Y-21939529D01*
X13438807Y-21925243D01*
X13424521Y-21896672D01*
X13424521Y-21810957D01*
X13438807Y-21782386D01*
X13453093Y-21768100D01*
X13481664Y-21753814D01*
X13524521Y-21753814D01*
X13553093Y-21768100D01*
X13567378Y-21782386D01*
X13581664Y-21810957D01*
X13581664Y-21896672D01*
X13567378Y-21925243D01*
X13553093Y-21939529D01*
X13524521Y-21953814D01*
X13481664Y-21953814D01*
X13753093Y-21953814D02*
X13724521Y-21939529D01*
X13710236Y-21910957D01*
X13710236Y-21653814D01*
X13981664Y-21939529D02*
X13953093Y-21953814D01*
X13895950Y-21953814D01*
X13867378Y-21939529D01*
X13853093Y-21910957D01*
X13853093Y-21796672D01*
X13867378Y-21768100D01*
X13895950Y-21753814D01*
X13953093Y-21753814D01*
X13981664Y-21768100D01*
X13995950Y-21796672D01*
X13995950Y-21825243D01*
X13853093Y-21853814D01*
X14110236Y-21939529D02*
X14138807Y-21953814D01*
X14195950Y-21953814D01*
X14224521Y-21939529D01*
X14238807Y-21910957D01*
X14238807Y-21896672D01*
X14224521Y-21868100D01*
X14195950Y-21853814D01*
X14153093Y-21853814D01*
X14124521Y-21839529D01*
X14110236Y-21810957D01*
X14110236Y-21796672D01*
X14124521Y-21768100D01*
X14153093Y-21753814D01*
X14195950Y-21753814D01*
X14224521Y-21768100D01*
X14338807Y-22068100D02*
X14353093Y-22053814D01*
X14381664Y-22010957D01*
X14395950Y-21982386D01*
X14410236Y-21939529D01*
X14424521Y-21868100D01*
X14424521Y-21810957D01*
X14410236Y-21739529D01*
X14395950Y-21696672D01*
X14381664Y-21668100D01*
X14353093Y-21625243D01*
X14338807Y-21610957D01*
X7030950Y-22018100D02*
X7030950Y-22518100D01*
X6780950Y-22268100D02*
X7280950Y-22268100D01*
X7030950Y-22518100D02*
X7280950Y-22268100D01*
X7030950Y-22018100D01*
X6780950Y-22268100D01*
X7030950Y-22518100D01*
X7710236Y-22103814D02*
X7567378Y-22103814D01*
X7553093Y-22246672D01*
X7567378Y-22232386D01*
X7595950Y-22218100D01*
X7667378Y-22218100D01*
X7695950Y-22232386D01*
X7710236Y-22246672D01*
X7724521Y-22275243D01*
X7724521Y-22346672D01*
X7710236Y-22375243D01*
X7695950Y-22389529D01*
X7667378Y-22403814D01*
X7595950Y-22403814D01*
X7567378Y-22389529D01*
X7553093Y-22375243D01*
X7853093Y-22375243D02*
X7867378Y-22389529D01*
X7853093Y-22403814D01*
X7838807Y-22389529D01*
X7853093Y-22375243D01*
X7853093Y-22403814D01*
X8053093Y-22103814D02*
X8081664Y-22103814D01*
X8110236Y-22118100D01*
X8124521Y-22132386D01*
X8138807Y-22160957D01*
X8153093Y-22218100D01*
X8153093Y-22289529D01*
X8138807Y-22346672D01*
X8124521Y-22375243D01*
X8110236Y-22389529D01*
X8081664Y-22403814D01*
X8053093Y-22403814D01*
X8024521Y-22389529D01*
X8010236Y-22375243D01*
X7995950Y-22346672D01*
X7981664Y-22289529D01*
X7981664Y-22218100D01*
X7995950Y-22160957D01*
X8010236Y-22132386D01*
X8024521Y-22118100D01*
X8053093Y-22103814D01*
X8338807Y-22103814D02*
X8367378Y-22103814D01*
X8395950Y-22118100D01*
X8410236Y-22132386D01*
X8424521Y-22160957D01*
X8438807Y-22218100D01*
X8438807Y-22289529D01*
X8424521Y-22346672D01*
X8410236Y-22375243D01*
X8395950Y-22389529D01*
X8367378Y-22403814D01*
X8338807Y-22403814D01*
X8310236Y-22389529D01*
X8295950Y-22375243D01*
X8281664Y-22346672D01*
X8267378Y-22289529D01*
X8267378Y-22218100D01*
X8281664Y-22160957D01*
X8295950Y-22132386D01*
X8310236Y-22118100D01*
X8338807Y-22103814D01*
X8624521Y-22103814D02*
X8653093Y-22103814D01*
X8681664Y-22118100D01*
X8695950Y-22132386D01*
X8710236Y-22160957D01*
X8724521Y-22218100D01*
X8724521Y-22289529D01*
X8710236Y-22346672D01*
X8695950Y-22375243D01*
X8681664Y-22389529D01*
X8653093Y-22403814D01*
X8624521Y-22403814D01*
X8595950Y-22389529D01*
X8581664Y-22375243D01*
X8567378Y-22346672D01*
X8553093Y-22289529D01*
X8553093Y-22218100D01*
X8567378Y-22160957D01*
X8581664Y-22132386D01*
X8595950Y-22118100D01*
X8624521Y-22103814D01*
X8853093Y-22403814D02*
X8853093Y-22203814D01*
X8853093Y-22232386D02*
X8867378Y-22218100D01*
X8895950Y-22203814D01*
X8938807Y-22203814D01*
X8967378Y-22218100D01*
X8981664Y-22246672D01*
X8981664Y-22403814D01*
X8981664Y-22246672D02*
X8995950Y-22218100D01*
X9024521Y-22203814D01*
X9067378Y-22203814D01*
X9095950Y-22218100D01*
X9110236Y-22246672D01*
X9110236Y-22403814D01*
X9253093Y-22403814D02*
X9253093Y-22203814D01*
X9253093Y-22232386D02*
X9267378Y-22218100D01*
X9295950Y-22203814D01*
X9338807Y-22203814D01*
X9367378Y-22218100D01*
X9381664Y-22246672D01*
X9381664Y-22403814D01*
X9381664Y-22246672D02*
X9395950Y-22218100D01*
X9424521Y-22203814D01*
X9467378Y-22203814D01*
X9495950Y-22218100D01*
X9510236Y-22246672D01*
X9510236Y-22403814D01*
X10095950Y-22089529D02*
X9838807Y-22475243D01*
X10481664Y-22103814D02*
X10510236Y-22103814D01*
X10538807Y-22118100D01*
X10553093Y-22132386D01*
X10567378Y-22160957D01*
X10581664Y-22218100D01*
X10581664Y-22289529D01*
X10567378Y-22346672D01*
X10553093Y-22375243D01*
X10538807Y-22389529D01*
X10510236Y-22403814D01*
X10481664Y-22403814D01*
X10453093Y-22389529D01*
X10438807Y-22375243D01*
X10424521Y-22346672D01*
X10410236Y-22289529D01*
X10410236Y-22218100D01*
X10424521Y-22160957D01*
X10438807Y-22132386D01*
X10453093Y-22118100D01*
X10481664Y-22103814D01*
X10710236Y-22375243D02*
X10724521Y-22389529D01*
X10710236Y-22403814D01*
X10695950Y-22389529D01*
X10710236Y-22375243D01*
X10710236Y-22403814D01*
X11010236Y-22403814D02*
X10838807Y-22403814D01*
X10924521Y-22403814D02*
X10924521Y-22103814D01*
X10895950Y-22146672D01*
X10867378Y-22175243D01*
X10838807Y-22189529D01*
X11153093Y-22403814D02*
X11210236Y-22403814D01*
X11238807Y-22389529D01*
X11253093Y-22375243D01*
X11281664Y-22332386D01*
X11295950Y-22275243D01*
X11295950Y-22160957D01*
X11281664Y-22132386D01*
X11267378Y-22118100D01*
X11238807Y-22103814D01*
X11181664Y-22103814D01*
X11153093Y-22118100D01*
X11138807Y-22132386D01*
X11124521Y-22160957D01*
X11124521Y-22232386D01*
X11138807Y-22260957D01*
X11153093Y-22275243D01*
X11181664Y-22289529D01*
X11238807Y-22289529D01*
X11267378Y-22275243D01*
X11281664Y-22260957D01*
X11295950Y-22232386D01*
X11553093Y-22103814D02*
X11495950Y-22103814D01*
X11467378Y-22118100D01*
X11453093Y-22132386D01*
X11424521Y-22175243D01*
X11410236Y-22232386D01*
X11410236Y-22346672D01*
X11424521Y-22375243D01*
X11438807Y-22389529D01*
X11467378Y-22403814D01*
X11524521Y-22403814D01*
X11553093Y-22389529D01*
X11567378Y-22375243D01*
X11581664Y-22346672D01*
X11581664Y-22275243D01*
X11567378Y-22246672D01*
X11553093Y-22232386D01*
X11524521Y-22218100D01*
X11467378Y-22218100D01*
X11438807Y-22232386D01*
X11424521Y-22246672D01*
X11410236Y-22275243D01*
X11724521Y-22403814D02*
X11781664Y-22403814D01*
X11810236Y-22389529D01*
X11824521Y-22375243D01*
X11853093Y-22332386D01*
X11867378Y-22275243D01*
X11867378Y-22160957D01*
X11853093Y-22132386D01*
X11838807Y-22118100D01*
X11810236Y-22103814D01*
X11753093Y-22103814D01*
X11724521Y-22118100D01*
X11710236Y-22132386D01*
X11695950Y-22160957D01*
X11695950Y-22232386D01*
X11710236Y-22260957D01*
X11724521Y-22275243D01*
X11753093Y-22289529D01*
X11810236Y-22289529D01*
X11838807Y-22275243D01*
X11853093Y-22260957D01*
X11867378Y-22232386D01*
X11981664Y-22103814D02*
X11981664Y-22160957D01*
X12095950Y-22103814D02*
X12095950Y-22160957D01*
X12538807Y-22518100D02*
X12524521Y-22503814D01*
X12495950Y-22460957D01*
X12481664Y-22432386D01*
X12467378Y-22389529D01*
X12453093Y-22318100D01*
X12453093Y-22260957D01*
X12467378Y-22189529D01*
X12481664Y-22146672D01*
X12495950Y-22118100D01*
X12524521Y-22075243D01*
X12538807Y-22060957D01*
X12781664Y-22103814D02*
X12724521Y-22103814D01*
X12695950Y-22118100D01*
X12681664Y-22132386D01*
X12653093Y-22175243D01*
X12638807Y-22232386D01*
X12638807Y-22346672D01*
X12653093Y-22375243D01*
X12667378Y-22389529D01*
X12695950Y-22403814D01*
X12753093Y-22403814D01*
X12781664Y-22389529D01*
X12795950Y-22375243D01*
X12810236Y-22346672D01*
X12810236Y-22275243D01*
X12795950Y-22246672D01*
X12781664Y-22232386D01*
X12753093Y-22218100D01*
X12695950Y-22218100D01*
X12667378Y-22232386D01*
X12653093Y-22246672D01*
X12638807Y-22275243D01*
X13167378Y-22403814D02*
X13167378Y-22103814D01*
X13295950Y-22403814D02*
X13295950Y-22246672D01*
X13281664Y-22218100D01*
X13253093Y-22203814D01*
X13210236Y-22203814D01*
X13181664Y-22218100D01*
X13167378Y-22232386D01*
X13481664Y-22403814D02*
X13453093Y-22389529D01*
X13438807Y-22375243D01*
X13424521Y-22346672D01*
X13424521Y-22260957D01*
X13438807Y-22232386D01*
X13453093Y-22218100D01*
X13481664Y-22203814D01*
X13524521Y-22203814D01*
X13553093Y-22218100D01*
X13567378Y-22232386D01*
X13581664Y-22260957D01*
X13581664Y-22346672D01*
X13567378Y-22375243D01*
X13553093Y-22389529D01*
X13524521Y-22403814D01*
X13481664Y-22403814D01*
X13753093Y-22403814D02*
X13724521Y-22389529D01*
X13710236Y-22360957D01*
X13710236Y-22103814D01*
X13981664Y-22389529D02*
X13953093Y-22403814D01*
X13895950Y-22403814D01*
X13867378Y-22389529D01*
X13853093Y-22360957D01*
X13853093Y-22246672D01*
X13867378Y-22218100D01*
X13895950Y-22203814D01*
X13953093Y-22203814D01*
X13981664Y-22218100D01*
X13995950Y-22246672D01*
X13995950Y-22275243D01*
X13853093Y-22303814D01*
X14110236Y-22389529D02*
X14138807Y-22403814D01*
X14195950Y-22403814D01*
X14224521Y-22389529D01*
X14238807Y-22360957D01*
X14238807Y-22346672D01*
X14224521Y-22318100D01*
X14195950Y-22303814D01*
X14153093Y-22303814D01*
X14124521Y-22289529D01*
X14110236Y-22260957D01*
X14110236Y-22246672D01*
X14124521Y-22218100D01*
X14153093Y-22203814D01*
X14195950Y-22203814D01*
X14224521Y-22218100D01*
X14338807Y-22518100D02*
X14353093Y-22503814D01*
X14381664Y-22460957D01*
X14395950Y-22432386D01*
X14410236Y-22389529D01*
X14424521Y-22318100D01*
X14424521Y-22260957D01*
X14410236Y-22189529D01*
X14395950Y-22146672D01*
X14381664Y-22118100D01*
X14353093Y-22075243D01*
X14338807Y-22060957D01*
M02*
