%TF.GenerationSoftware,KiCad,Pcbnew,(5.1.10)-1*%
%TF.CreationDate,2021-11-24T08:50:27+08:00*%
%TF.ProjectId,grbl_board,6772626c-5f62-46f6-9172-642e6b696361,rev?*%
%TF.SameCoordinates,Original*%
%TF.FileFunction,Legend,Bot*%
%TF.FilePolarity,Positive*%
%FSLAX46Y46*%
G04 Gerber Fmt 4.6, Leading zero omitted, Abs format (unit mm)*
G04 Created by KiCad (PCBNEW (5.1.10)-1) date 2021-11-24 08:50:27*
%MOMM*%
%LPD*%
G01*
G04 APERTURE LIST*
%ADD10C,0.120000*%
%ADD11C,0.150000*%
%ADD12C,3.500000*%
%ADD13C,1.700000*%
%ADD14R,1.700000X1.700000*%
%ADD15C,1.524000*%
%ADD16R,1.524000X1.524000*%
%ADD17C,7.000000*%
%ADD18O,3.600000X1.800000*%
%ADD19O,1.600000X1.600000*%
%ADD20R,1.600000X1.600000*%
%ADD21R,2.100000X1.725000*%
%ADD22R,0.550000X1.600000*%
%ADD23R,1.600000X0.550000*%
%ADD24R,1.200000X0.400000*%
%ADD25R,9.400000X10.800000*%
%ADD26R,4.600000X1.100000*%
%ADD27R,0.900000X0.800000*%
%ADD28R,3.175000X4.950000*%
%ADD29O,1.700000X1.700000*%
%ADD30O,1.800000X3.600000*%
%ADD31C,6.400000*%
%ADD32C,1.710000*%
%ADD33R,3.500000X1.800000*%
%ADD34R,1.800000X3.500000*%
%ADD35C,1.600000*%
%ADD36C,2.400000*%
%ADD37R,2.400000X2.400000*%
G04 APERTURE END LIST*
D10*
%TO.C,R60*%
X159519252Y-87745500D02*
X158996748Y-87745500D01*
X159519252Y-89165500D02*
X158996748Y-89165500D01*
%TO.C,C22*%
X143575500Y-122027733D02*
X143575500Y-122320267D01*
X142555500Y-122027733D02*
X142555500Y-122320267D01*
%TO.C,Y2*%
X162529500Y-77225000D02*
X162529500Y-81525000D01*
X162529500Y-81525000D02*
X157129500Y-81525000D01*
%TO.C,U29*%
X152844500Y-82697000D02*
X154794500Y-82697000D01*
X152844500Y-82697000D02*
X150894500Y-82697000D01*
X152844500Y-92817000D02*
X154794500Y-92817000D01*
X152844500Y-92817000D02*
X149394500Y-92817000D01*
D11*
%TO.C,U28*%
X166872500Y-87064000D02*
X166872500Y-86839000D01*
X174122500Y-87064000D02*
X174122500Y-86739000D01*
X174122500Y-79814000D02*
X174122500Y-80139000D01*
X166872500Y-79814000D02*
X166872500Y-80139000D01*
X166872500Y-87064000D02*
X167197500Y-87064000D01*
X166872500Y-79814000D02*
X167197500Y-79814000D01*
X174122500Y-79814000D02*
X173797500Y-79814000D01*
X174122500Y-87064000D02*
X173797500Y-87064000D01*
X166872500Y-86839000D02*
X165447500Y-86839000D01*
D10*
%TO.C,U27*%
X139299000Y-96710500D02*
X139299000Y-98660500D01*
X139299000Y-96710500D02*
X139299000Y-94760500D01*
X129179000Y-96710500D02*
X129179000Y-98660500D01*
X129179000Y-96710500D02*
X129179000Y-93260500D01*
%TO.C,U26*%
X139262000Y-105346500D02*
X139262000Y-107546500D01*
X139262000Y-105346500D02*
X139262000Y-103146500D01*
X134042000Y-105346500D02*
X134042000Y-107546500D01*
X134042000Y-105346500D02*
X134042000Y-101746500D01*
D11*
%TO.C,U25*%
X190393500Y-156654000D02*
X190393500Y-157764000D01*
X194543500Y-157764000D02*
X194543500Y-156654000D01*
X194543500Y-148814000D02*
X194543500Y-149924000D01*
X190393500Y-148814000D02*
X190393500Y-149924000D01*
X190393500Y-157764000D02*
X194543500Y-157764000D01*
X190393500Y-148814000D02*
X194543500Y-148814000D01*
X190393500Y-156654000D02*
X189268500Y-156654000D01*
D10*
%TO.C,U24*%
X119136500Y-120643000D02*
X117636500Y-120643000D01*
X117636500Y-120643000D02*
X117636500Y-118833000D01*
X117636500Y-118833000D02*
X112511500Y-118833000D01*
X119136500Y-110243000D02*
X117636500Y-110243000D01*
X117636500Y-110243000D02*
X117636500Y-112053000D01*
X117636500Y-112053000D02*
X116536500Y-112053000D01*
%TO.C,U3*%
X136715500Y-124292000D02*
X135215500Y-124292000D01*
X136715500Y-124292000D02*
X138215500Y-124292000D01*
X136715500Y-121072000D02*
X135215500Y-121072000D01*
X136715500Y-121072000D02*
X139640500Y-121072000D01*
D11*
%TO.C,U1*%
X171089500Y-156400000D02*
X171089500Y-157510000D01*
X175239500Y-157510000D02*
X175239500Y-156400000D01*
X175239500Y-148560000D02*
X175239500Y-149670000D01*
X171089500Y-148560000D02*
X171089500Y-149670000D01*
X171089500Y-157510000D02*
X175239500Y-157510000D01*
X171089500Y-148560000D02*
X175239500Y-148560000D01*
X171089500Y-156400000D02*
X169964500Y-156400000D01*
D10*
%TO.C,R63*%
X148795000Y-95123724D02*
X148795000Y-94614276D01*
X147750000Y-95123724D02*
X147750000Y-94614276D01*
%TO.C,R58*%
X130366224Y-103617500D02*
X129856776Y-103617500D01*
X130366224Y-104662500D02*
X129856776Y-104662500D01*
%TO.C,R57*%
X209030500Y-142867748D02*
X209030500Y-143390252D01*
X210450500Y-142867748D02*
X210450500Y-143390252D01*
%TO.C,R56*%
X183310000Y-130301276D02*
X183310000Y-130810724D01*
X184355000Y-130301276D02*
X184355000Y-130810724D01*
%TO.C,R55*%
X180262000Y-130301276D02*
X180262000Y-130810724D01*
X181307000Y-130301276D02*
X181307000Y-130810724D01*
%TO.C,R54*%
X205474500Y-142867748D02*
X205474500Y-143390252D01*
X206894500Y-142867748D02*
X206894500Y-143390252D01*
%TO.C,R52*%
X188659224Y-142098500D02*
X188149776Y-142098500D01*
X188659224Y-143143500D02*
X188149776Y-143143500D01*
%TO.C,R51*%
X188555724Y-144892500D02*
X188046276Y-144892500D01*
X188555724Y-145937500D02*
X188046276Y-145937500D01*
%TO.C,R49*%
X77608500Y-143009252D02*
X77608500Y-142486748D01*
X76188500Y-143009252D02*
X76188500Y-142486748D01*
%TO.C,R48*%
X96330224Y-134605500D02*
X95820776Y-134605500D01*
X96330224Y-135650500D02*
X95820776Y-135650500D01*
%TO.C,R39*%
X110990748Y-131647000D02*
X111513252Y-131647000D01*
X110990748Y-130227000D02*
X111513252Y-130227000D01*
%TO.C,R38*%
X109028776Y-120664500D02*
X109538224Y-120664500D01*
X109028776Y-119619500D02*
X109538224Y-119619500D01*
%TO.C,R37*%
X106363224Y-106538500D02*
X105853776Y-106538500D01*
X106363224Y-107583500D02*
X105853776Y-107583500D01*
%TO.C,R36*%
X115308748Y-131647000D02*
X115831252Y-131647000D01*
X115308748Y-130227000D02*
X115831252Y-130227000D01*
%TO.C,R34*%
X119753748Y-131647000D02*
X120276252Y-131647000D01*
X119753748Y-130227000D02*
X120276252Y-130227000D01*
%TO.C,R32*%
X83704500Y-125673752D02*
X83704500Y-125151248D01*
X82284500Y-125673752D02*
X82284500Y-125151248D01*
%TO.C,R31*%
X84149000Y-114053252D02*
X84149000Y-113530748D01*
X82729000Y-114053252D02*
X82729000Y-113530748D01*
%TO.C,R30*%
X121487000Y-135897252D02*
X121487000Y-135374748D01*
X120067000Y-135897252D02*
X120067000Y-135374748D01*
%TO.C,R27*%
X128453248Y-132790000D02*
X128975752Y-132790000D01*
X128453248Y-131370000D02*
X128975752Y-131370000D01*
%TO.C,R25*%
X98472248Y-120725000D02*
X98994752Y-120725000D01*
X98472248Y-119305000D02*
X98994752Y-119305000D01*
%TO.C,R24*%
X192045000Y-122266064D02*
X192045000Y-120811936D01*
X190225000Y-122266064D02*
X190225000Y-120811936D01*
%TO.C,R23*%
X204935500Y-122393064D02*
X204935500Y-120938936D01*
X203115500Y-122393064D02*
X203115500Y-120938936D01*
%TO.C,R22*%
X204935500Y-134966064D02*
X204935500Y-133511936D01*
X203115500Y-134966064D02*
X203115500Y-133511936D01*
%TO.C,R21*%
X192045000Y-134966064D02*
X192045000Y-133511936D01*
X190225000Y-134966064D02*
X190225000Y-133511936D01*
%TO.C,R20*%
X119605436Y-143785000D02*
X121059564Y-143785000D01*
X119605436Y-141965000D02*
X121059564Y-141965000D01*
%TO.C,R19*%
X107159436Y-143785000D02*
X108613564Y-143785000D01*
X107159436Y-141965000D02*
X108613564Y-141965000D01*
%TO.C,R18*%
X132051436Y-143785000D02*
X133505564Y-143785000D01*
X132051436Y-141965000D02*
X133505564Y-141965000D01*
%TO.C,R17*%
X144497436Y-143912000D02*
X145951564Y-143912000D01*
X144497436Y-142092000D02*
X145951564Y-142092000D01*
%TO.C,R16*%
X156943436Y-143912000D02*
X158397564Y-143912000D01*
X156943436Y-142092000D02*
X158397564Y-142092000D01*
%TO.C,R7*%
X180836500Y-141089748D02*
X180836500Y-141612252D01*
X182256500Y-141089748D02*
X182256500Y-141612252D01*
%TO.C,R4*%
X177534500Y-141089748D02*
X177534500Y-141612252D01*
X178954500Y-141089748D02*
X178954500Y-141612252D01*
%TO.C,R2*%
X169355224Y-142098500D02*
X168845776Y-142098500D01*
X169355224Y-143143500D02*
X168845776Y-143143500D01*
%TO.C,R1*%
X169355224Y-144638500D02*
X168845776Y-144638500D01*
X169355224Y-145683500D02*
X168845776Y-145683500D01*
%TO.C,Q4*%
X93969500Y-136532000D02*
X95469500Y-136532000D01*
X95469500Y-136532000D02*
X95469500Y-138342000D01*
X95469500Y-138342000D02*
X100594500Y-138342000D01*
X93969500Y-146932000D02*
X95469500Y-146932000D01*
X95469500Y-146932000D02*
X95469500Y-145122000D01*
X95469500Y-145122000D02*
X96569500Y-145122000D01*
%TO.C,Q2*%
X90108500Y-133787000D02*
X90108500Y-132857000D01*
X90108500Y-130627000D02*
X90108500Y-131557000D01*
X90108500Y-130627000D02*
X92268500Y-130627000D01*
X90108500Y-133787000D02*
X91568500Y-133787000D01*
%TO.C,Q1*%
X77785500Y-127198000D02*
X77785500Y-128128000D01*
X77785500Y-130358000D02*
X77785500Y-129428000D01*
X77785500Y-130358000D02*
X75625500Y-130358000D01*
X77785500Y-127198000D02*
X76325500Y-127198000D01*
%TO.C,L5*%
X182614500Y-81626742D02*
X182614500Y-80806258D01*
X181494500Y-81626742D02*
X181494500Y-80806258D01*
%TO.C,L4*%
X99023500Y-116186000D02*
X99023500Y-118591000D01*
X99023500Y-118591000D02*
X109383500Y-118591000D01*
X109383500Y-118591000D02*
X109383500Y-116186000D01*
X99023500Y-110636000D02*
X99023500Y-108231000D01*
X99023500Y-108231000D02*
X109383500Y-108231000D01*
X109383500Y-108231000D02*
X109383500Y-110636000D01*
%TO.C,FB2*%
X205593767Y-149477000D02*
X205251233Y-149477000D01*
X205593767Y-150497000D02*
X205251233Y-150497000D01*
%TO.C,FB1*%
X182564500Y-153460267D02*
X182564500Y-153117733D01*
X181544500Y-153460267D02*
X181544500Y-153117733D01*
%TO.C,D42*%
X80542500Y-146962000D02*
X80542500Y-149202000D01*
X80542500Y-149202000D02*
X76302500Y-149202000D01*
X76302500Y-149202000D02*
X76302500Y-146962000D01*
X76302500Y-146962000D02*
X80542500Y-146962000D01*
X81192500Y-148082000D02*
X80542500Y-148082000D01*
X75652500Y-148082000D02*
X76302500Y-148082000D01*
X79822500Y-146962000D02*
X79822500Y-149202000D01*
X79702500Y-146962000D02*
X79702500Y-149202000D01*
X79942500Y-146962000D02*
X79942500Y-149202000D01*
%TO.C,D41*%
X76302500Y-152059500D02*
X76302500Y-149819500D01*
X76302500Y-149819500D02*
X80542500Y-149819500D01*
X80542500Y-149819500D02*
X80542500Y-152059500D01*
X80542500Y-152059500D02*
X76302500Y-152059500D01*
X75652500Y-150939500D02*
X76302500Y-150939500D01*
X81192500Y-150939500D02*
X80542500Y-150939500D01*
X77022500Y-152059500D02*
X77022500Y-149819500D01*
X77142500Y-152059500D02*
X77142500Y-149819500D01*
X76902500Y-152059500D02*
X76902500Y-149819500D01*
%TO.C,D39*%
X90108500Y-129215000D02*
X90108500Y-128285000D01*
X90108500Y-126055000D02*
X90108500Y-126985000D01*
X90108500Y-126055000D02*
X92268500Y-126055000D01*
X90108500Y-129215000D02*
X91568500Y-129215000D01*
%TO.C,D38*%
X77785500Y-131770000D02*
X77785500Y-132700000D01*
X77785500Y-134930000D02*
X77785500Y-134000000D01*
X77785500Y-134930000D02*
X75625500Y-134930000D01*
X77785500Y-131770000D02*
X76325500Y-131770000D01*
%TO.C,D36*%
X167748500Y-52831000D02*
X167748500Y-49531000D01*
X167748500Y-49531000D02*
X174648500Y-49531000D01*
X167748500Y-52831000D02*
X174648500Y-52831000D01*
%TO.C,D34*%
X138157500Y-52831000D02*
X138157500Y-49531000D01*
X138157500Y-49531000D02*
X145057500Y-49531000D01*
X138157500Y-52831000D02*
X145057500Y-52831000D01*
%TO.C,D32*%
X167748500Y-47751000D02*
X167748500Y-44451000D01*
X167748500Y-44451000D02*
X174648500Y-44451000D01*
X167748500Y-47751000D02*
X174648500Y-47751000D01*
%TO.C,D30*%
X138157500Y-47751000D02*
X138157500Y-44451000D01*
X138157500Y-44451000D02*
X145057500Y-44451000D01*
X138157500Y-47751000D02*
X145057500Y-47751000D01*
%TO.C,D28*%
X177908500Y-52831000D02*
X177908500Y-49531000D01*
X177908500Y-49531000D02*
X184808500Y-49531000D01*
X177908500Y-52831000D02*
X184808500Y-52831000D01*
%TO.C,D26*%
X148317500Y-52831000D02*
X148317500Y-49531000D01*
X148317500Y-49531000D02*
X155217500Y-49531000D01*
X148317500Y-52831000D02*
X155217500Y-52831000D01*
%TO.C,D24*%
X177908500Y-47751000D02*
X177908500Y-44451000D01*
X177908500Y-44451000D02*
X184808500Y-44451000D01*
X177908500Y-47751000D02*
X184808500Y-47751000D01*
%TO.C,D22*%
X148317500Y-47751000D02*
X148317500Y-44451000D01*
X148317500Y-44451000D02*
X155217500Y-44451000D01*
X148317500Y-47751000D02*
X155217500Y-47751000D01*
%TO.C,D20*%
X108947500Y-52831000D02*
X108947500Y-49531000D01*
X108947500Y-49531000D02*
X115847500Y-49531000D01*
X108947500Y-52831000D02*
X115847500Y-52831000D01*
%TO.C,D18*%
X79991500Y-52831000D02*
X79991500Y-49531000D01*
X79991500Y-49531000D02*
X86891500Y-49531000D01*
X79991500Y-52831000D02*
X86891500Y-52831000D01*
%TO.C,D16*%
X108947500Y-47751000D02*
X108947500Y-44451000D01*
X108947500Y-44451000D02*
X115847500Y-44451000D01*
X108947500Y-47751000D02*
X115847500Y-47751000D01*
%TO.C,D14*%
X79991500Y-47751000D02*
X79991500Y-44451000D01*
X79991500Y-44451000D02*
X86891500Y-44451000D01*
X79991500Y-47751000D02*
X86891500Y-47751000D01*
%TO.C,D12*%
X119234500Y-52831000D02*
X119234500Y-49531000D01*
X119234500Y-49531000D02*
X126134500Y-49531000D01*
X119234500Y-52831000D02*
X126134500Y-52831000D01*
%TO.C,D10*%
X90278500Y-52831000D02*
X90278500Y-49531000D01*
X90278500Y-49531000D02*
X97178500Y-49531000D01*
X90278500Y-52831000D02*
X97178500Y-52831000D01*
%TO.C,D8*%
X119234500Y-47751000D02*
X119234500Y-44451000D01*
X119234500Y-44451000D02*
X126134500Y-44451000D01*
X119234500Y-47751000D02*
X126134500Y-47751000D01*
%TO.C,D6*%
X90278500Y-47751000D02*
X90278500Y-44451000D01*
X90278500Y-44451000D02*
X97178500Y-44451000D01*
X90278500Y-47751000D02*
X97178500Y-47751000D01*
%TO.C,D5*%
X76518500Y-56179000D02*
X79818500Y-56179000D01*
X79818500Y-56179000D02*
X79818500Y-63079000D01*
X76518500Y-56179000D02*
X76518500Y-63079000D01*
%TO.C,C46*%
X177734500Y-83394733D02*
X177734500Y-83737267D01*
X178754500Y-83394733D02*
X178754500Y-83737267D01*
%TO.C,C43*%
X178454233Y-80393000D02*
X178796767Y-80393000D01*
X178454233Y-79373000D02*
X178796767Y-79373000D01*
%TO.C,C45*%
X183576500Y-126066733D02*
X183576500Y-126409267D01*
X184596500Y-126066733D02*
X184596500Y-126409267D01*
%TO.C,C44*%
X186497500Y-153752733D02*
X186497500Y-154095267D01*
X187517500Y-153752733D02*
X187517500Y-154095267D01*
%TO.C,C42*%
X199083665Y-154411000D02*
X199315335Y-154411000D01*
X199083665Y-153691000D02*
X199315335Y-153691000D01*
%TO.C,C35*%
X163387500Y-83737267D02*
X163387500Y-83394733D01*
X162367500Y-83737267D02*
X162367500Y-83394733D01*
%TO.C,C41*%
X198901233Y-158371000D02*
X199243767Y-158371000D01*
X198901233Y-157351000D02*
X199243767Y-157351000D01*
%TO.C,C39*%
X199083665Y-151998000D02*
X199315335Y-151998000D01*
X199083665Y-151278000D02*
X199315335Y-151278000D01*
%TO.C,C38*%
X159658233Y-75948000D02*
X160000767Y-75948000D01*
X159658233Y-74928000D02*
X160000767Y-74928000D01*
%TO.C,C37*%
X160000767Y-82167000D02*
X159658233Y-82167000D01*
X160000767Y-83187000D02*
X159658233Y-83187000D01*
%TO.C,C36*%
X210396500Y-149174252D02*
X210396500Y-147751748D01*
X208576500Y-149174252D02*
X208576500Y-147751748D01*
%TO.C,C34*%
X115931767Y-124585000D02*
X115589233Y-124585000D01*
X115931767Y-125605000D02*
X115589233Y-125605000D01*
%TO.C,C31*%
X76919500Y-138758665D02*
X76919500Y-138990335D01*
X77639500Y-138758665D02*
X77639500Y-138990335D01*
%TO.C,C30*%
X107694000Y-135210733D02*
X107694000Y-135553267D01*
X108714000Y-135210733D02*
X108714000Y-135553267D01*
%TO.C,C28*%
X111758000Y-135224733D02*
X111758000Y-135567267D01*
X112778000Y-135224733D02*
X112778000Y-135567267D01*
%TO.C,C27*%
X116203000Y-135337733D02*
X116203000Y-135680267D01*
X117223000Y-135337733D02*
X117223000Y-135680267D01*
%TO.C,C16*%
X136004248Y-127910000D02*
X137426752Y-127910000D01*
X136004248Y-126090000D02*
X137426752Y-126090000D01*
%TO.C,C12*%
X165034500Y-137115733D02*
X165034500Y-137458267D01*
X166054500Y-137115733D02*
X166054500Y-137458267D01*
%TO.C,C5*%
X166812500Y-153625733D02*
X166812500Y-153968267D01*
X167832500Y-153625733D02*
X167832500Y-153968267D01*
%TO.C,C4*%
X178636665Y-153649000D02*
X178868335Y-153649000D01*
X178636665Y-152929000D02*
X178868335Y-152929000D01*
%TO.C,C3*%
X177819233Y-159006000D02*
X178161767Y-159006000D01*
X177819233Y-157986000D02*
X178161767Y-157986000D01*
%TO.C,C2*%
X178636665Y-151363000D02*
X178868335Y-151363000D01*
X178636665Y-150643000D02*
X178868335Y-150643000D01*
%TO.C,C1*%
X183273752Y-156951000D02*
X181851248Y-156951000D01*
X183273752Y-158771000D02*
X181851248Y-158771000D01*
%TO.C,R60*%
D11*
X159900857Y-87257880D02*
X160234190Y-86781690D01*
X160472285Y-87257880D02*
X160472285Y-86257880D01*
X160091333Y-86257880D01*
X159996095Y-86305500D01*
X159948476Y-86353119D01*
X159900857Y-86448357D01*
X159900857Y-86591214D01*
X159948476Y-86686452D01*
X159996095Y-86734071D01*
X160091333Y-86781690D01*
X160472285Y-86781690D01*
X159043714Y-86257880D02*
X159234190Y-86257880D01*
X159329428Y-86305500D01*
X159377047Y-86353119D01*
X159472285Y-86495976D01*
X159519904Y-86686452D01*
X159519904Y-87067404D01*
X159472285Y-87162642D01*
X159424666Y-87210261D01*
X159329428Y-87257880D01*
X159138952Y-87257880D01*
X159043714Y-87210261D01*
X158996095Y-87162642D01*
X158948476Y-87067404D01*
X158948476Y-86829309D01*
X158996095Y-86734071D01*
X159043714Y-86686452D01*
X159138952Y-86638833D01*
X159329428Y-86638833D01*
X159424666Y-86686452D01*
X159472285Y-86734071D01*
X159519904Y-86829309D01*
X158329428Y-86257880D02*
X158234190Y-86257880D01*
X158138952Y-86305500D01*
X158091333Y-86353119D01*
X158043714Y-86448357D01*
X157996095Y-86638833D01*
X157996095Y-86876928D01*
X158043714Y-87067404D01*
X158091333Y-87162642D01*
X158138952Y-87210261D01*
X158234190Y-87257880D01*
X158329428Y-87257880D01*
X158424666Y-87210261D01*
X158472285Y-87162642D01*
X158519904Y-87067404D01*
X158567523Y-86876928D01*
X158567523Y-86638833D01*
X158519904Y-86448357D01*
X158472285Y-86353119D01*
X158424666Y-86305500D01*
X158329428Y-86257880D01*
%TO.C,C22*%
X141992642Y-121531142D02*
X142040261Y-121483523D01*
X142087880Y-121340666D01*
X142087880Y-121245428D01*
X142040261Y-121102571D01*
X141945023Y-121007333D01*
X141849785Y-120959714D01*
X141659309Y-120912095D01*
X141516452Y-120912095D01*
X141325976Y-120959714D01*
X141230738Y-121007333D01*
X141135500Y-121102571D01*
X141087880Y-121245428D01*
X141087880Y-121340666D01*
X141135500Y-121483523D01*
X141183119Y-121531142D01*
X141183119Y-121912095D02*
X141135500Y-121959714D01*
X141087880Y-122054952D01*
X141087880Y-122293047D01*
X141135500Y-122388285D01*
X141183119Y-122435904D01*
X141278357Y-122483523D01*
X141373595Y-122483523D01*
X141516452Y-122435904D01*
X142087880Y-121864476D01*
X142087880Y-122483523D01*
X141183119Y-122864476D02*
X141135500Y-122912095D01*
X141087880Y-123007333D01*
X141087880Y-123245428D01*
X141135500Y-123340666D01*
X141183119Y-123388285D01*
X141278357Y-123435904D01*
X141373595Y-123435904D01*
X141516452Y-123388285D01*
X142087880Y-122816857D01*
X142087880Y-123435904D01*
%TO.C,Y2*%
X164115690Y-79605190D02*
X164115690Y-80081380D01*
X164449023Y-79081380D02*
X164115690Y-79605190D01*
X163782357Y-79081380D01*
X163496642Y-79176619D02*
X163449023Y-79129000D01*
X163353785Y-79081380D01*
X163115690Y-79081380D01*
X163020452Y-79129000D01*
X162972833Y-79176619D01*
X162925214Y-79271857D01*
X162925214Y-79367095D01*
X162972833Y-79509952D01*
X163544261Y-80081380D01*
X162925214Y-80081380D01*
%TO.C,U29*%
X154082595Y-93109380D02*
X154082595Y-93918904D01*
X154034976Y-94014142D01*
X153987357Y-94061761D01*
X153892119Y-94109380D01*
X153701642Y-94109380D01*
X153606404Y-94061761D01*
X153558785Y-94014142D01*
X153511166Y-93918904D01*
X153511166Y-93109380D01*
X153082595Y-93204619D02*
X153034976Y-93157000D01*
X152939738Y-93109380D01*
X152701642Y-93109380D01*
X152606404Y-93157000D01*
X152558785Y-93204619D01*
X152511166Y-93299857D01*
X152511166Y-93395095D01*
X152558785Y-93537952D01*
X153130214Y-94109380D01*
X152511166Y-94109380D01*
X152034976Y-94109380D02*
X151844500Y-94109380D01*
X151749261Y-94061761D01*
X151701642Y-94014142D01*
X151606404Y-93871285D01*
X151558785Y-93680809D01*
X151558785Y-93299857D01*
X151606404Y-93204619D01*
X151654023Y-93157000D01*
X151749261Y-93109380D01*
X151939738Y-93109380D01*
X152034976Y-93157000D01*
X152082595Y-93204619D01*
X152130214Y-93299857D01*
X152130214Y-93537952D01*
X152082595Y-93633190D01*
X152034976Y-93680809D01*
X151939738Y-93728428D01*
X151749261Y-93728428D01*
X151654023Y-93680809D01*
X151606404Y-93633190D01*
X151558785Y-93537952D01*
%TO.C,U28*%
X171735595Y-88941380D02*
X171735595Y-89750904D01*
X171687976Y-89846142D01*
X171640357Y-89893761D01*
X171545119Y-89941380D01*
X171354642Y-89941380D01*
X171259404Y-89893761D01*
X171211785Y-89846142D01*
X171164166Y-89750904D01*
X171164166Y-88941380D01*
X170735595Y-89036619D02*
X170687976Y-88989000D01*
X170592738Y-88941380D01*
X170354642Y-88941380D01*
X170259404Y-88989000D01*
X170211785Y-89036619D01*
X170164166Y-89131857D01*
X170164166Y-89227095D01*
X170211785Y-89369952D01*
X170783214Y-89941380D01*
X170164166Y-89941380D01*
X169592738Y-89369952D02*
X169687976Y-89322333D01*
X169735595Y-89274714D01*
X169783214Y-89179476D01*
X169783214Y-89131857D01*
X169735595Y-89036619D01*
X169687976Y-88989000D01*
X169592738Y-88941380D01*
X169402261Y-88941380D01*
X169307023Y-88989000D01*
X169259404Y-89036619D01*
X169211785Y-89131857D01*
X169211785Y-89179476D01*
X169259404Y-89274714D01*
X169307023Y-89322333D01*
X169402261Y-89369952D01*
X169592738Y-89369952D01*
X169687976Y-89417571D01*
X169735595Y-89465190D01*
X169783214Y-89560428D01*
X169783214Y-89750904D01*
X169735595Y-89846142D01*
X169687976Y-89893761D01*
X169592738Y-89941380D01*
X169402261Y-89941380D01*
X169307023Y-89893761D01*
X169259404Y-89846142D01*
X169211785Y-89750904D01*
X169211785Y-89560428D01*
X169259404Y-89465190D01*
X169307023Y-89417571D01*
X169402261Y-89369952D01*
%TO.C,U27*%
X127791380Y-95472404D02*
X128600904Y-95472404D01*
X128696142Y-95520023D01*
X128743761Y-95567642D01*
X128791380Y-95662880D01*
X128791380Y-95853357D01*
X128743761Y-95948595D01*
X128696142Y-95996214D01*
X128600904Y-96043833D01*
X127791380Y-96043833D01*
X127886619Y-96472404D02*
X127839000Y-96520023D01*
X127791380Y-96615261D01*
X127791380Y-96853357D01*
X127839000Y-96948595D01*
X127886619Y-96996214D01*
X127981857Y-97043833D01*
X128077095Y-97043833D01*
X128219952Y-96996214D01*
X128791380Y-96424785D01*
X128791380Y-97043833D01*
X127791380Y-97377166D02*
X127791380Y-98043833D01*
X128791380Y-97615261D01*
%TO.C,U26*%
X132654380Y-104108404D02*
X133463904Y-104108404D01*
X133559142Y-104156023D01*
X133606761Y-104203642D01*
X133654380Y-104298880D01*
X133654380Y-104489357D01*
X133606761Y-104584595D01*
X133559142Y-104632214D01*
X133463904Y-104679833D01*
X132654380Y-104679833D01*
X132749619Y-105108404D02*
X132702000Y-105156023D01*
X132654380Y-105251261D01*
X132654380Y-105489357D01*
X132702000Y-105584595D01*
X132749619Y-105632214D01*
X132844857Y-105679833D01*
X132940095Y-105679833D01*
X133082952Y-105632214D01*
X133654380Y-105060785D01*
X133654380Y-105679833D01*
X132654380Y-106536976D02*
X132654380Y-106346500D01*
X132702000Y-106251261D01*
X132749619Y-106203642D01*
X132892476Y-106108404D01*
X133082952Y-106060785D01*
X133463904Y-106060785D01*
X133559142Y-106108404D01*
X133606761Y-106156023D01*
X133654380Y-106251261D01*
X133654380Y-106441738D01*
X133606761Y-106536976D01*
X133559142Y-106584595D01*
X133463904Y-106632214D01*
X133225809Y-106632214D01*
X133130571Y-106584595D01*
X133082952Y-106536976D01*
X133035333Y-106441738D01*
X133035333Y-106251261D01*
X133082952Y-106156023D01*
X133130571Y-106108404D01*
X133225809Y-106060785D01*
%TO.C,U25*%
X193706595Y-158141380D02*
X193706595Y-158950904D01*
X193658976Y-159046142D01*
X193611357Y-159093761D01*
X193516119Y-159141380D01*
X193325642Y-159141380D01*
X193230404Y-159093761D01*
X193182785Y-159046142D01*
X193135166Y-158950904D01*
X193135166Y-158141380D01*
X192706595Y-158236619D02*
X192658976Y-158189000D01*
X192563738Y-158141380D01*
X192325642Y-158141380D01*
X192230404Y-158189000D01*
X192182785Y-158236619D01*
X192135166Y-158331857D01*
X192135166Y-158427095D01*
X192182785Y-158569952D01*
X192754214Y-159141380D01*
X192135166Y-159141380D01*
X191230404Y-158141380D02*
X191706595Y-158141380D01*
X191754214Y-158617571D01*
X191706595Y-158569952D01*
X191611357Y-158522333D01*
X191373261Y-158522333D01*
X191278023Y-158569952D01*
X191230404Y-158617571D01*
X191182785Y-158712809D01*
X191182785Y-158950904D01*
X191230404Y-159046142D01*
X191278023Y-159093761D01*
X191373261Y-159141380D01*
X191611357Y-159141380D01*
X191706595Y-159093761D01*
X191754214Y-159046142D01*
%TO.C,U24*%
X121824595Y-121545380D02*
X121824595Y-122354904D01*
X121776976Y-122450142D01*
X121729357Y-122497761D01*
X121634119Y-122545380D01*
X121443642Y-122545380D01*
X121348404Y-122497761D01*
X121300785Y-122450142D01*
X121253166Y-122354904D01*
X121253166Y-121545380D01*
X120824595Y-121640619D02*
X120776976Y-121593000D01*
X120681738Y-121545380D01*
X120443642Y-121545380D01*
X120348404Y-121593000D01*
X120300785Y-121640619D01*
X120253166Y-121735857D01*
X120253166Y-121831095D01*
X120300785Y-121973952D01*
X120872214Y-122545380D01*
X120253166Y-122545380D01*
X119396023Y-121878714D02*
X119396023Y-122545380D01*
X119634119Y-121497761D02*
X119872214Y-122212047D01*
X119253166Y-122212047D01*
%TO.C,U3*%
X137477404Y-119684380D02*
X137477404Y-120493904D01*
X137429785Y-120589142D01*
X137382166Y-120636761D01*
X137286928Y-120684380D01*
X137096452Y-120684380D01*
X137001214Y-120636761D01*
X136953595Y-120589142D01*
X136905976Y-120493904D01*
X136905976Y-119684380D01*
X136525023Y-119684380D02*
X135905976Y-119684380D01*
X136239309Y-120065333D01*
X136096452Y-120065333D01*
X136001214Y-120112952D01*
X135953595Y-120160571D01*
X135905976Y-120255809D01*
X135905976Y-120493904D01*
X135953595Y-120589142D01*
X136001214Y-120636761D01*
X136096452Y-120684380D01*
X136382166Y-120684380D01*
X136477404Y-120636761D01*
X136525023Y-120589142D01*
%TO.C,U1*%
X173926404Y-157887380D02*
X173926404Y-158696904D01*
X173878785Y-158792142D01*
X173831166Y-158839761D01*
X173735928Y-158887380D01*
X173545452Y-158887380D01*
X173450214Y-158839761D01*
X173402595Y-158792142D01*
X173354976Y-158696904D01*
X173354976Y-157887380D01*
X172354976Y-158887380D02*
X172926404Y-158887380D01*
X172640690Y-158887380D02*
X172640690Y-157887380D01*
X172735928Y-158030238D01*
X172831166Y-158125476D01*
X172926404Y-158173095D01*
%TO.C,R63*%
X150154880Y-94226142D02*
X149678690Y-93892809D01*
X150154880Y-93654714D02*
X149154880Y-93654714D01*
X149154880Y-94035666D01*
X149202500Y-94130904D01*
X149250119Y-94178523D01*
X149345357Y-94226142D01*
X149488214Y-94226142D01*
X149583452Y-94178523D01*
X149631071Y-94130904D01*
X149678690Y-94035666D01*
X149678690Y-93654714D01*
X149154880Y-95083285D02*
X149154880Y-94892809D01*
X149202500Y-94797571D01*
X149250119Y-94749952D01*
X149392976Y-94654714D01*
X149583452Y-94607095D01*
X149964404Y-94607095D01*
X150059642Y-94654714D01*
X150107261Y-94702333D01*
X150154880Y-94797571D01*
X150154880Y-94988047D01*
X150107261Y-95083285D01*
X150059642Y-95130904D01*
X149964404Y-95178523D01*
X149726309Y-95178523D01*
X149631071Y-95130904D01*
X149583452Y-95083285D01*
X149535833Y-94988047D01*
X149535833Y-94797571D01*
X149583452Y-94702333D01*
X149631071Y-94654714D01*
X149726309Y-94607095D01*
X149154880Y-95511857D02*
X149154880Y-96130904D01*
X149535833Y-95797571D01*
X149535833Y-95940428D01*
X149583452Y-96035666D01*
X149631071Y-96083285D01*
X149726309Y-96130904D01*
X149964404Y-96130904D01*
X150059642Y-96083285D01*
X150107261Y-96035666D01*
X150154880Y-95940428D01*
X150154880Y-95654714D01*
X150107261Y-95559476D01*
X150059642Y-95511857D01*
%TO.C,R58*%
X130754357Y-103162380D02*
X131087690Y-102686190D01*
X131325785Y-103162380D02*
X131325785Y-102162380D01*
X130944833Y-102162380D01*
X130849595Y-102210000D01*
X130801976Y-102257619D01*
X130754357Y-102352857D01*
X130754357Y-102495714D01*
X130801976Y-102590952D01*
X130849595Y-102638571D01*
X130944833Y-102686190D01*
X131325785Y-102686190D01*
X129849595Y-102162380D02*
X130325785Y-102162380D01*
X130373404Y-102638571D01*
X130325785Y-102590952D01*
X130230547Y-102543333D01*
X129992452Y-102543333D01*
X129897214Y-102590952D01*
X129849595Y-102638571D01*
X129801976Y-102733809D01*
X129801976Y-102971904D01*
X129849595Y-103067142D01*
X129897214Y-103114761D01*
X129992452Y-103162380D01*
X130230547Y-103162380D01*
X130325785Y-103114761D01*
X130373404Y-103067142D01*
X129230547Y-102590952D02*
X129325785Y-102543333D01*
X129373404Y-102495714D01*
X129421023Y-102400476D01*
X129421023Y-102352857D01*
X129373404Y-102257619D01*
X129325785Y-102210000D01*
X129230547Y-102162380D01*
X129040071Y-102162380D01*
X128944833Y-102210000D01*
X128897214Y-102257619D01*
X128849595Y-102352857D01*
X128849595Y-102400476D01*
X128897214Y-102495714D01*
X128944833Y-102543333D01*
X129040071Y-102590952D01*
X129230547Y-102590952D01*
X129325785Y-102638571D01*
X129373404Y-102686190D01*
X129421023Y-102781428D01*
X129421023Y-102971904D01*
X129373404Y-103067142D01*
X129325785Y-103114761D01*
X129230547Y-103162380D01*
X129040071Y-103162380D01*
X128944833Y-103114761D01*
X128897214Y-103067142D01*
X128849595Y-102971904D01*
X128849595Y-102781428D01*
X128897214Y-102686190D01*
X128944833Y-102638571D01*
X129040071Y-102590952D01*
%TO.C,R57*%
X208542880Y-142486142D02*
X208066690Y-142152809D01*
X208542880Y-141914714D02*
X207542880Y-141914714D01*
X207542880Y-142295666D01*
X207590500Y-142390904D01*
X207638119Y-142438523D01*
X207733357Y-142486142D01*
X207876214Y-142486142D01*
X207971452Y-142438523D01*
X208019071Y-142390904D01*
X208066690Y-142295666D01*
X208066690Y-141914714D01*
X207542880Y-143390904D02*
X207542880Y-142914714D01*
X208019071Y-142867095D01*
X207971452Y-142914714D01*
X207923833Y-143009952D01*
X207923833Y-143248047D01*
X207971452Y-143343285D01*
X208019071Y-143390904D01*
X208114309Y-143438523D01*
X208352404Y-143438523D01*
X208447642Y-143390904D01*
X208495261Y-143343285D01*
X208542880Y-143248047D01*
X208542880Y-143009952D01*
X208495261Y-142914714D01*
X208447642Y-142867095D01*
X207542880Y-143771857D02*
X207542880Y-144438523D01*
X208542880Y-144009952D01*
%TO.C,R56*%
X182854880Y-129913142D02*
X182378690Y-129579809D01*
X182854880Y-129341714D02*
X181854880Y-129341714D01*
X181854880Y-129722666D01*
X181902500Y-129817904D01*
X181950119Y-129865523D01*
X182045357Y-129913142D01*
X182188214Y-129913142D01*
X182283452Y-129865523D01*
X182331071Y-129817904D01*
X182378690Y-129722666D01*
X182378690Y-129341714D01*
X181854880Y-130817904D02*
X181854880Y-130341714D01*
X182331071Y-130294095D01*
X182283452Y-130341714D01*
X182235833Y-130436952D01*
X182235833Y-130675047D01*
X182283452Y-130770285D01*
X182331071Y-130817904D01*
X182426309Y-130865523D01*
X182664404Y-130865523D01*
X182759642Y-130817904D01*
X182807261Y-130770285D01*
X182854880Y-130675047D01*
X182854880Y-130436952D01*
X182807261Y-130341714D01*
X182759642Y-130294095D01*
X181854880Y-131722666D02*
X181854880Y-131532190D01*
X181902500Y-131436952D01*
X181950119Y-131389333D01*
X182092976Y-131294095D01*
X182283452Y-131246476D01*
X182664404Y-131246476D01*
X182759642Y-131294095D01*
X182807261Y-131341714D01*
X182854880Y-131436952D01*
X182854880Y-131627428D01*
X182807261Y-131722666D01*
X182759642Y-131770285D01*
X182664404Y-131817904D01*
X182426309Y-131817904D01*
X182331071Y-131770285D01*
X182283452Y-131722666D01*
X182235833Y-131627428D01*
X182235833Y-131436952D01*
X182283452Y-131341714D01*
X182331071Y-131294095D01*
X182426309Y-131246476D01*
%TO.C,R55*%
X179806880Y-129913142D02*
X179330690Y-129579809D01*
X179806880Y-129341714D02*
X178806880Y-129341714D01*
X178806880Y-129722666D01*
X178854500Y-129817904D01*
X178902119Y-129865523D01*
X178997357Y-129913142D01*
X179140214Y-129913142D01*
X179235452Y-129865523D01*
X179283071Y-129817904D01*
X179330690Y-129722666D01*
X179330690Y-129341714D01*
X178806880Y-130817904D02*
X178806880Y-130341714D01*
X179283071Y-130294095D01*
X179235452Y-130341714D01*
X179187833Y-130436952D01*
X179187833Y-130675047D01*
X179235452Y-130770285D01*
X179283071Y-130817904D01*
X179378309Y-130865523D01*
X179616404Y-130865523D01*
X179711642Y-130817904D01*
X179759261Y-130770285D01*
X179806880Y-130675047D01*
X179806880Y-130436952D01*
X179759261Y-130341714D01*
X179711642Y-130294095D01*
X178806880Y-131770285D02*
X178806880Y-131294095D01*
X179283071Y-131246476D01*
X179235452Y-131294095D01*
X179187833Y-131389333D01*
X179187833Y-131627428D01*
X179235452Y-131722666D01*
X179283071Y-131770285D01*
X179378309Y-131817904D01*
X179616404Y-131817904D01*
X179711642Y-131770285D01*
X179759261Y-131722666D01*
X179806880Y-131627428D01*
X179806880Y-131389333D01*
X179759261Y-131294095D01*
X179711642Y-131246476D01*
%TO.C,R54*%
X204986880Y-142486142D02*
X204510690Y-142152809D01*
X204986880Y-141914714D02*
X203986880Y-141914714D01*
X203986880Y-142295666D01*
X204034500Y-142390904D01*
X204082119Y-142438523D01*
X204177357Y-142486142D01*
X204320214Y-142486142D01*
X204415452Y-142438523D01*
X204463071Y-142390904D01*
X204510690Y-142295666D01*
X204510690Y-141914714D01*
X203986880Y-143390904D02*
X203986880Y-142914714D01*
X204463071Y-142867095D01*
X204415452Y-142914714D01*
X204367833Y-143009952D01*
X204367833Y-143248047D01*
X204415452Y-143343285D01*
X204463071Y-143390904D01*
X204558309Y-143438523D01*
X204796404Y-143438523D01*
X204891642Y-143390904D01*
X204939261Y-143343285D01*
X204986880Y-143248047D01*
X204986880Y-143009952D01*
X204939261Y-142914714D01*
X204891642Y-142867095D01*
X204320214Y-144295666D02*
X204986880Y-144295666D01*
X203939261Y-144057571D02*
X204653547Y-143819476D01*
X204653547Y-144438523D01*
%TO.C,R52*%
X189047357Y-141643380D02*
X189380690Y-141167190D01*
X189618785Y-141643380D02*
X189618785Y-140643380D01*
X189237833Y-140643380D01*
X189142595Y-140691000D01*
X189094976Y-140738619D01*
X189047357Y-140833857D01*
X189047357Y-140976714D01*
X189094976Y-141071952D01*
X189142595Y-141119571D01*
X189237833Y-141167190D01*
X189618785Y-141167190D01*
X188142595Y-140643380D02*
X188618785Y-140643380D01*
X188666404Y-141119571D01*
X188618785Y-141071952D01*
X188523547Y-141024333D01*
X188285452Y-141024333D01*
X188190214Y-141071952D01*
X188142595Y-141119571D01*
X188094976Y-141214809D01*
X188094976Y-141452904D01*
X188142595Y-141548142D01*
X188190214Y-141595761D01*
X188285452Y-141643380D01*
X188523547Y-141643380D01*
X188618785Y-141595761D01*
X188666404Y-141548142D01*
X187714023Y-140738619D02*
X187666404Y-140691000D01*
X187571166Y-140643380D01*
X187333071Y-140643380D01*
X187237833Y-140691000D01*
X187190214Y-140738619D01*
X187142595Y-140833857D01*
X187142595Y-140929095D01*
X187190214Y-141071952D01*
X187761642Y-141643380D01*
X187142595Y-141643380D01*
%TO.C,R51*%
X188943857Y-144437380D02*
X189277190Y-143961190D01*
X189515285Y-144437380D02*
X189515285Y-143437380D01*
X189134333Y-143437380D01*
X189039095Y-143485000D01*
X188991476Y-143532619D01*
X188943857Y-143627857D01*
X188943857Y-143770714D01*
X188991476Y-143865952D01*
X189039095Y-143913571D01*
X189134333Y-143961190D01*
X189515285Y-143961190D01*
X188039095Y-143437380D02*
X188515285Y-143437380D01*
X188562904Y-143913571D01*
X188515285Y-143865952D01*
X188420047Y-143818333D01*
X188181952Y-143818333D01*
X188086714Y-143865952D01*
X188039095Y-143913571D01*
X187991476Y-144008809D01*
X187991476Y-144246904D01*
X188039095Y-144342142D01*
X188086714Y-144389761D01*
X188181952Y-144437380D01*
X188420047Y-144437380D01*
X188515285Y-144389761D01*
X188562904Y-144342142D01*
X187039095Y-144437380D02*
X187610523Y-144437380D01*
X187324809Y-144437380D02*
X187324809Y-143437380D01*
X187420047Y-143580238D01*
X187515285Y-143675476D01*
X187610523Y-143723095D01*
%TO.C,R49*%
X79000880Y-142105142D02*
X78524690Y-141771809D01*
X79000880Y-141533714D02*
X78000880Y-141533714D01*
X78000880Y-141914666D01*
X78048500Y-142009904D01*
X78096119Y-142057523D01*
X78191357Y-142105142D01*
X78334214Y-142105142D01*
X78429452Y-142057523D01*
X78477071Y-142009904D01*
X78524690Y-141914666D01*
X78524690Y-141533714D01*
X78334214Y-142962285D02*
X79000880Y-142962285D01*
X77953261Y-142724190D02*
X78667547Y-142486095D01*
X78667547Y-143105142D01*
X79000880Y-143533714D02*
X79000880Y-143724190D01*
X78953261Y-143819428D01*
X78905642Y-143867047D01*
X78762785Y-143962285D01*
X78572309Y-144009904D01*
X78191357Y-144009904D01*
X78096119Y-143962285D01*
X78048500Y-143914666D01*
X78000880Y-143819428D01*
X78000880Y-143628952D01*
X78048500Y-143533714D01*
X78096119Y-143486095D01*
X78191357Y-143438476D01*
X78429452Y-143438476D01*
X78524690Y-143486095D01*
X78572309Y-143533714D01*
X78619928Y-143628952D01*
X78619928Y-143819428D01*
X78572309Y-143914666D01*
X78524690Y-143962285D01*
X78429452Y-144009904D01*
%TO.C,R48*%
X97416880Y-132199142D02*
X96940690Y-131865809D01*
X97416880Y-131627714D02*
X96416880Y-131627714D01*
X96416880Y-132008666D01*
X96464500Y-132103904D01*
X96512119Y-132151523D01*
X96607357Y-132199142D01*
X96750214Y-132199142D01*
X96845452Y-132151523D01*
X96893071Y-132103904D01*
X96940690Y-132008666D01*
X96940690Y-131627714D01*
X96750214Y-133056285D02*
X97416880Y-133056285D01*
X96369261Y-132818190D02*
X97083547Y-132580095D01*
X97083547Y-133199142D01*
X96845452Y-133722952D02*
X96797833Y-133627714D01*
X96750214Y-133580095D01*
X96654976Y-133532476D01*
X96607357Y-133532476D01*
X96512119Y-133580095D01*
X96464500Y-133627714D01*
X96416880Y-133722952D01*
X96416880Y-133913428D01*
X96464500Y-134008666D01*
X96512119Y-134056285D01*
X96607357Y-134103904D01*
X96654976Y-134103904D01*
X96750214Y-134056285D01*
X96797833Y-134008666D01*
X96845452Y-133913428D01*
X96845452Y-133722952D01*
X96893071Y-133627714D01*
X96940690Y-133580095D01*
X97035928Y-133532476D01*
X97226404Y-133532476D01*
X97321642Y-133580095D01*
X97369261Y-133627714D01*
X97416880Y-133722952D01*
X97416880Y-133913428D01*
X97369261Y-134008666D01*
X97321642Y-134056285D01*
X97226404Y-134103904D01*
X97035928Y-134103904D01*
X96940690Y-134056285D01*
X96893071Y-134008666D01*
X96845452Y-133913428D01*
%TO.C,R39*%
X111894857Y-133039380D02*
X112228190Y-132563190D01*
X112466285Y-133039380D02*
X112466285Y-132039380D01*
X112085333Y-132039380D01*
X111990095Y-132087000D01*
X111942476Y-132134619D01*
X111894857Y-132229857D01*
X111894857Y-132372714D01*
X111942476Y-132467952D01*
X111990095Y-132515571D01*
X112085333Y-132563190D01*
X112466285Y-132563190D01*
X111561523Y-132039380D02*
X110942476Y-132039380D01*
X111275809Y-132420333D01*
X111132952Y-132420333D01*
X111037714Y-132467952D01*
X110990095Y-132515571D01*
X110942476Y-132610809D01*
X110942476Y-132848904D01*
X110990095Y-132944142D01*
X111037714Y-132991761D01*
X111132952Y-133039380D01*
X111418666Y-133039380D01*
X111513904Y-132991761D01*
X111561523Y-132944142D01*
X110466285Y-133039380D02*
X110275809Y-133039380D01*
X110180571Y-132991761D01*
X110132952Y-132944142D01*
X110037714Y-132801285D01*
X109990095Y-132610809D01*
X109990095Y-132229857D01*
X110037714Y-132134619D01*
X110085333Y-132087000D01*
X110180571Y-132039380D01*
X110371047Y-132039380D01*
X110466285Y-132087000D01*
X110513904Y-132134619D01*
X110561523Y-132229857D01*
X110561523Y-132467952D01*
X110513904Y-132563190D01*
X110466285Y-132610809D01*
X110371047Y-132658428D01*
X110180571Y-132658428D01*
X110085333Y-132610809D01*
X110037714Y-132563190D01*
X109990095Y-132467952D01*
%TO.C,R38*%
X109926357Y-122024380D02*
X110259690Y-121548190D01*
X110497785Y-122024380D02*
X110497785Y-121024380D01*
X110116833Y-121024380D01*
X110021595Y-121072000D01*
X109973976Y-121119619D01*
X109926357Y-121214857D01*
X109926357Y-121357714D01*
X109973976Y-121452952D01*
X110021595Y-121500571D01*
X110116833Y-121548190D01*
X110497785Y-121548190D01*
X109593023Y-121024380D02*
X108973976Y-121024380D01*
X109307309Y-121405333D01*
X109164452Y-121405333D01*
X109069214Y-121452952D01*
X109021595Y-121500571D01*
X108973976Y-121595809D01*
X108973976Y-121833904D01*
X109021595Y-121929142D01*
X109069214Y-121976761D01*
X109164452Y-122024380D01*
X109450166Y-122024380D01*
X109545404Y-121976761D01*
X109593023Y-121929142D01*
X108402547Y-121452952D02*
X108497785Y-121405333D01*
X108545404Y-121357714D01*
X108593023Y-121262476D01*
X108593023Y-121214857D01*
X108545404Y-121119619D01*
X108497785Y-121072000D01*
X108402547Y-121024380D01*
X108212071Y-121024380D01*
X108116833Y-121072000D01*
X108069214Y-121119619D01*
X108021595Y-121214857D01*
X108021595Y-121262476D01*
X108069214Y-121357714D01*
X108116833Y-121405333D01*
X108212071Y-121452952D01*
X108402547Y-121452952D01*
X108497785Y-121500571D01*
X108545404Y-121548190D01*
X108593023Y-121643428D01*
X108593023Y-121833904D01*
X108545404Y-121929142D01*
X108497785Y-121976761D01*
X108402547Y-122024380D01*
X108212071Y-122024380D01*
X108116833Y-121976761D01*
X108069214Y-121929142D01*
X108021595Y-121833904D01*
X108021595Y-121643428D01*
X108069214Y-121548190D01*
X108116833Y-121500571D01*
X108212071Y-121452952D01*
%TO.C,R37*%
X106751357Y-106083380D02*
X107084690Y-105607190D01*
X107322785Y-106083380D02*
X107322785Y-105083380D01*
X106941833Y-105083380D01*
X106846595Y-105131000D01*
X106798976Y-105178619D01*
X106751357Y-105273857D01*
X106751357Y-105416714D01*
X106798976Y-105511952D01*
X106846595Y-105559571D01*
X106941833Y-105607190D01*
X107322785Y-105607190D01*
X106418023Y-105083380D02*
X105798976Y-105083380D01*
X106132309Y-105464333D01*
X105989452Y-105464333D01*
X105894214Y-105511952D01*
X105846595Y-105559571D01*
X105798976Y-105654809D01*
X105798976Y-105892904D01*
X105846595Y-105988142D01*
X105894214Y-106035761D01*
X105989452Y-106083380D01*
X106275166Y-106083380D01*
X106370404Y-106035761D01*
X106418023Y-105988142D01*
X105465642Y-105083380D02*
X104798976Y-105083380D01*
X105227547Y-106083380D01*
%TO.C,R36*%
X116212857Y-133039380D02*
X116546190Y-132563190D01*
X116784285Y-133039380D02*
X116784285Y-132039380D01*
X116403333Y-132039380D01*
X116308095Y-132087000D01*
X116260476Y-132134619D01*
X116212857Y-132229857D01*
X116212857Y-132372714D01*
X116260476Y-132467952D01*
X116308095Y-132515571D01*
X116403333Y-132563190D01*
X116784285Y-132563190D01*
X115879523Y-132039380D02*
X115260476Y-132039380D01*
X115593809Y-132420333D01*
X115450952Y-132420333D01*
X115355714Y-132467952D01*
X115308095Y-132515571D01*
X115260476Y-132610809D01*
X115260476Y-132848904D01*
X115308095Y-132944142D01*
X115355714Y-132991761D01*
X115450952Y-133039380D01*
X115736666Y-133039380D01*
X115831904Y-132991761D01*
X115879523Y-132944142D01*
X114403333Y-132039380D02*
X114593809Y-132039380D01*
X114689047Y-132087000D01*
X114736666Y-132134619D01*
X114831904Y-132277476D01*
X114879523Y-132467952D01*
X114879523Y-132848904D01*
X114831904Y-132944142D01*
X114784285Y-132991761D01*
X114689047Y-133039380D01*
X114498571Y-133039380D01*
X114403333Y-132991761D01*
X114355714Y-132944142D01*
X114308095Y-132848904D01*
X114308095Y-132610809D01*
X114355714Y-132515571D01*
X114403333Y-132467952D01*
X114498571Y-132420333D01*
X114689047Y-132420333D01*
X114784285Y-132467952D01*
X114831904Y-132515571D01*
X114879523Y-132610809D01*
%TO.C,R34*%
X120657857Y-133039380D02*
X120991190Y-132563190D01*
X121229285Y-133039380D02*
X121229285Y-132039380D01*
X120848333Y-132039380D01*
X120753095Y-132087000D01*
X120705476Y-132134619D01*
X120657857Y-132229857D01*
X120657857Y-132372714D01*
X120705476Y-132467952D01*
X120753095Y-132515571D01*
X120848333Y-132563190D01*
X121229285Y-132563190D01*
X120324523Y-132039380D02*
X119705476Y-132039380D01*
X120038809Y-132420333D01*
X119895952Y-132420333D01*
X119800714Y-132467952D01*
X119753095Y-132515571D01*
X119705476Y-132610809D01*
X119705476Y-132848904D01*
X119753095Y-132944142D01*
X119800714Y-132991761D01*
X119895952Y-133039380D01*
X120181666Y-133039380D01*
X120276904Y-132991761D01*
X120324523Y-132944142D01*
X118848333Y-132372714D02*
X118848333Y-133039380D01*
X119086428Y-131991761D02*
X119324523Y-132706047D01*
X118705476Y-132706047D01*
%TO.C,R32*%
X85096880Y-124769642D02*
X84620690Y-124436309D01*
X85096880Y-124198214D02*
X84096880Y-124198214D01*
X84096880Y-124579166D01*
X84144500Y-124674404D01*
X84192119Y-124722023D01*
X84287357Y-124769642D01*
X84430214Y-124769642D01*
X84525452Y-124722023D01*
X84573071Y-124674404D01*
X84620690Y-124579166D01*
X84620690Y-124198214D01*
X84096880Y-125102976D02*
X84096880Y-125722023D01*
X84477833Y-125388690D01*
X84477833Y-125531547D01*
X84525452Y-125626785D01*
X84573071Y-125674404D01*
X84668309Y-125722023D01*
X84906404Y-125722023D01*
X85001642Y-125674404D01*
X85049261Y-125626785D01*
X85096880Y-125531547D01*
X85096880Y-125245833D01*
X85049261Y-125150595D01*
X85001642Y-125102976D01*
X84192119Y-126102976D02*
X84144500Y-126150595D01*
X84096880Y-126245833D01*
X84096880Y-126483928D01*
X84144500Y-126579166D01*
X84192119Y-126626785D01*
X84287357Y-126674404D01*
X84382595Y-126674404D01*
X84525452Y-126626785D01*
X85096880Y-126055357D01*
X85096880Y-126674404D01*
%TO.C,R31*%
X85541380Y-113149142D02*
X85065190Y-112815809D01*
X85541380Y-112577714D02*
X84541380Y-112577714D01*
X84541380Y-112958666D01*
X84589000Y-113053904D01*
X84636619Y-113101523D01*
X84731857Y-113149142D01*
X84874714Y-113149142D01*
X84969952Y-113101523D01*
X85017571Y-113053904D01*
X85065190Y-112958666D01*
X85065190Y-112577714D01*
X84541380Y-113482476D02*
X84541380Y-114101523D01*
X84922333Y-113768190D01*
X84922333Y-113911047D01*
X84969952Y-114006285D01*
X85017571Y-114053904D01*
X85112809Y-114101523D01*
X85350904Y-114101523D01*
X85446142Y-114053904D01*
X85493761Y-114006285D01*
X85541380Y-113911047D01*
X85541380Y-113625333D01*
X85493761Y-113530095D01*
X85446142Y-113482476D01*
X85541380Y-115053904D02*
X85541380Y-114482476D01*
X85541380Y-114768190D02*
X84541380Y-114768190D01*
X84684238Y-114672952D01*
X84779476Y-114577714D01*
X84827095Y-114482476D01*
%TO.C,R30*%
X122879380Y-134993142D02*
X122403190Y-134659809D01*
X122879380Y-134421714D02*
X121879380Y-134421714D01*
X121879380Y-134802666D01*
X121927000Y-134897904D01*
X121974619Y-134945523D01*
X122069857Y-134993142D01*
X122212714Y-134993142D01*
X122307952Y-134945523D01*
X122355571Y-134897904D01*
X122403190Y-134802666D01*
X122403190Y-134421714D01*
X121879380Y-135326476D02*
X121879380Y-135945523D01*
X122260333Y-135612190D01*
X122260333Y-135755047D01*
X122307952Y-135850285D01*
X122355571Y-135897904D01*
X122450809Y-135945523D01*
X122688904Y-135945523D01*
X122784142Y-135897904D01*
X122831761Y-135850285D01*
X122879380Y-135755047D01*
X122879380Y-135469333D01*
X122831761Y-135374095D01*
X122784142Y-135326476D01*
X121879380Y-136564571D02*
X121879380Y-136659809D01*
X121927000Y-136755047D01*
X121974619Y-136802666D01*
X122069857Y-136850285D01*
X122260333Y-136897904D01*
X122498428Y-136897904D01*
X122688904Y-136850285D01*
X122784142Y-136802666D01*
X122831761Y-136755047D01*
X122879380Y-136659809D01*
X122879380Y-136564571D01*
X122831761Y-136469333D01*
X122784142Y-136421714D01*
X122688904Y-136374095D01*
X122498428Y-136326476D01*
X122260333Y-136326476D01*
X122069857Y-136374095D01*
X121974619Y-136421714D01*
X121927000Y-136469333D01*
X121879380Y-136564571D01*
%TO.C,R27*%
X129357357Y-134182380D02*
X129690690Y-133706190D01*
X129928785Y-134182380D02*
X129928785Y-133182380D01*
X129547833Y-133182380D01*
X129452595Y-133230000D01*
X129404976Y-133277619D01*
X129357357Y-133372857D01*
X129357357Y-133515714D01*
X129404976Y-133610952D01*
X129452595Y-133658571D01*
X129547833Y-133706190D01*
X129928785Y-133706190D01*
X128976404Y-133277619D02*
X128928785Y-133230000D01*
X128833547Y-133182380D01*
X128595452Y-133182380D01*
X128500214Y-133230000D01*
X128452595Y-133277619D01*
X128404976Y-133372857D01*
X128404976Y-133468095D01*
X128452595Y-133610952D01*
X129024023Y-134182380D01*
X128404976Y-134182380D01*
X128071642Y-133182380D02*
X127404976Y-133182380D01*
X127833547Y-134182380D01*
%TO.C,R25*%
X99376357Y-122117380D02*
X99709690Y-121641190D01*
X99947785Y-122117380D02*
X99947785Y-121117380D01*
X99566833Y-121117380D01*
X99471595Y-121165000D01*
X99423976Y-121212619D01*
X99376357Y-121307857D01*
X99376357Y-121450714D01*
X99423976Y-121545952D01*
X99471595Y-121593571D01*
X99566833Y-121641190D01*
X99947785Y-121641190D01*
X98995404Y-121212619D02*
X98947785Y-121165000D01*
X98852547Y-121117380D01*
X98614452Y-121117380D01*
X98519214Y-121165000D01*
X98471595Y-121212619D01*
X98423976Y-121307857D01*
X98423976Y-121403095D01*
X98471595Y-121545952D01*
X99043023Y-122117380D01*
X98423976Y-122117380D01*
X97519214Y-121117380D02*
X97995404Y-121117380D01*
X98043023Y-121593571D01*
X97995404Y-121545952D01*
X97900166Y-121498333D01*
X97662071Y-121498333D01*
X97566833Y-121545952D01*
X97519214Y-121593571D01*
X97471595Y-121688809D01*
X97471595Y-121926904D01*
X97519214Y-122022142D01*
X97566833Y-122069761D01*
X97662071Y-122117380D01*
X97900166Y-122117380D01*
X97995404Y-122069761D01*
X98043023Y-122022142D01*
%TO.C,R24*%
X193407380Y-120896142D02*
X192931190Y-120562809D01*
X193407380Y-120324714D02*
X192407380Y-120324714D01*
X192407380Y-120705666D01*
X192455000Y-120800904D01*
X192502619Y-120848523D01*
X192597857Y-120896142D01*
X192740714Y-120896142D01*
X192835952Y-120848523D01*
X192883571Y-120800904D01*
X192931190Y-120705666D01*
X192931190Y-120324714D01*
X192502619Y-121277095D02*
X192455000Y-121324714D01*
X192407380Y-121419952D01*
X192407380Y-121658047D01*
X192455000Y-121753285D01*
X192502619Y-121800904D01*
X192597857Y-121848523D01*
X192693095Y-121848523D01*
X192835952Y-121800904D01*
X193407380Y-121229476D01*
X193407380Y-121848523D01*
X192740714Y-122705666D02*
X193407380Y-122705666D01*
X192359761Y-122467571D02*
X193074047Y-122229476D01*
X193074047Y-122848523D01*
%TO.C,R23*%
X206297880Y-121023142D02*
X205821690Y-120689809D01*
X206297880Y-120451714D02*
X205297880Y-120451714D01*
X205297880Y-120832666D01*
X205345500Y-120927904D01*
X205393119Y-120975523D01*
X205488357Y-121023142D01*
X205631214Y-121023142D01*
X205726452Y-120975523D01*
X205774071Y-120927904D01*
X205821690Y-120832666D01*
X205821690Y-120451714D01*
X205393119Y-121404095D02*
X205345500Y-121451714D01*
X205297880Y-121546952D01*
X205297880Y-121785047D01*
X205345500Y-121880285D01*
X205393119Y-121927904D01*
X205488357Y-121975523D01*
X205583595Y-121975523D01*
X205726452Y-121927904D01*
X206297880Y-121356476D01*
X206297880Y-121975523D01*
X205297880Y-122308857D02*
X205297880Y-122927904D01*
X205678833Y-122594571D01*
X205678833Y-122737428D01*
X205726452Y-122832666D01*
X205774071Y-122880285D01*
X205869309Y-122927904D01*
X206107404Y-122927904D01*
X206202642Y-122880285D01*
X206250261Y-122832666D01*
X206297880Y-122737428D01*
X206297880Y-122451714D01*
X206250261Y-122356476D01*
X206202642Y-122308857D01*
%TO.C,R22*%
X206297880Y-133596142D02*
X205821690Y-133262809D01*
X206297880Y-133024714D02*
X205297880Y-133024714D01*
X205297880Y-133405666D01*
X205345500Y-133500904D01*
X205393119Y-133548523D01*
X205488357Y-133596142D01*
X205631214Y-133596142D01*
X205726452Y-133548523D01*
X205774071Y-133500904D01*
X205821690Y-133405666D01*
X205821690Y-133024714D01*
X205393119Y-133977095D02*
X205345500Y-134024714D01*
X205297880Y-134119952D01*
X205297880Y-134358047D01*
X205345500Y-134453285D01*
X205393119Y-134500904D01*
X205488357Y-134548523D01*
X205583595Y-134548523D01*
X205726452Y-134500904D01*
X206297880Y-133929476D01*
X206297880Y-134548523D01*
X205393119Y-134929476D02*
X205345500Y-134977095D01*
X205297880Y-135072333D01*
X205297880Y-135310428D01*
X205345500Y-135405666D01*
X205393119Y-135453285D01*
X205488357Y-135500904D01*
X205583595Y-135500904D01*
X205726452Y-135453285D01*
X206297880Y-134881857D01*
X206297880Y-135500904D01*
%TO.C,R21*%
X193407380Y-133596142D02*
X192931190Y-133262809D01*
X193407380Y-133024714D02*
X192407380Y-133024714D01*
X192407380Y-133405666D01*
X192455000Y-133500904D01*
X192502619Y-133548523D01*
X192597857Y-133596142D01*
X192740714Y-133596142D01*
X192835952Y-133548523D01*
X192883571Y-133500904D01*
X192931190Y-133405666D01*
X192931190Y-133024714D01*
X192502619Y-133977095D02*
X192455000Y-134024714D01*
X192407380Y-134119952D01*
X192407380Y-134358047D01*
X192455000Y-134453285D01*
X192502619Y-134500904D01*
X192597857Y-134548523D01*
X192693095Y-134548523D01*
X192835952Y-134500904D01*
X193407380Y-133929476D01*
X193407380Y-134548523D01*
X193407380Y-135500904D02*
X193407380Y-134929476D01*
X193407380Y-135215190D02*
X192407380Y-135215190D01*
X192550238Y-135119952D01*
X192645476Y-135024714D01*
X192693095Y-134929476D01*
%TO.C,R20*%
X120975357Y-145147380D02*
X121308690Y-144671190D01*
X121546785Y-145147380D02*
X121546785Y-144147380D01*
X121165833Y-144147380D01*
X121070595Y-144195000D01*
X121022976Y-144242619D01*
X120975357Y-144337857D01*
X120975357Y-144480714D01*
X121022976Y-144575952D01*
X121070595Y-144623571D01*
X121165833Y-144671190D01*
X121546785Y-144671190D01*
X120594404Y-144242619D02*
X120546785Y-144195000D01*
X120451547Y-144147380D01*
X120213452Y-144147380D01*
X120118214Y-144195000D01*
X120070595Y-144242619D01*
X120022976Y-144337857D01*
X120022976Y-144433095D01*
X120070595Y-144575952D01*
X120642023Y-145147380D01*
X120022976Y-145147380D01*
X119403928Y-144147380D02*
X119308690Y-144147380D01*
X119213452Y-144195000D01*
X119165833Y-144242619D01*
X119118214Y-144337857D01*
X119070595Y-144528333D01*
X119070595Y-144766428D01*
X119118214Y-144956904D01*
X119165833Y-145052142D01*
X119213452Y-145099761D01*
X119308690Y-145147380D01*
X119403928Y-145147380D01*
X119499166Y-145099761D01*
X119546785Y-145052142D01*
X119594404Y-144956904D01*
X119642023Y-144766428D01*
X119642023Y-144528333D01*
X119594404Y-144337857D01*
X119546785Y-144242619D01*
X119499166Y-144195000D01*
X119403928Y-144147380D01*
%TO.C,R19*%
X108529357Y-145147380D02*
X108862690Y-144671190D01*
X109100785Y-145147380D02*
X109100785Y-144147380D01*
X108719833Y-144147380D01*
X108624595Y-144195000D01*
X108576976Y-144242619D01*
X108529357Y-144337857D01*
X108529357Y-144480714D01*
X108576976Y-144575952D01*
X108624595Y-144623571D01*
X108719833Y-144671190D01*
X109100785Y-144671190D01*
X107576976Y-145147380D02*
X108148404Y-145147380D01*
X107862690Y-145147380D02*
X107862690Y-144147380D01*
X107957928Y-144290238D01*
X108053166Y-144385476D01*
X108148404Y-144433095D01*
X107100785Y-145147380D02*
X106910309Y-145147380D01*
X106815071Y-145099761D01*
X106767452Y-145052142D01*
X106672214Y-144909285D01*
X106624595Y-144718809D01*
X106624595Y-144337857D01*
X106672214Y-144242619D01*
X106719833Y-144195000D01*
X106815071Y-144147380D01*
X107005547Y-144147380D01*
X107100785Y-144195000D01*
X107148404Y-144242619D01*
X107196023Y-144337857D01*
X107196023Y-144575952D01*
X107148404Y-144671190D01*
X107100785Y-144718809D01*
X107005547Y-144766428D01*
X106815071Y-144766428D01*
X106719833Y-144718809D01*
X106672214Y-144671190D01*
X106624595Y-144575952D01*
%TO.C,R18*%
X133421357Y-145147380D02*
X133754690Y-144671190D01*
X133992785Y-145147380D02*
X133992785Y-144147380D01*
X133611833Y-144147380D01*
X133516595Y-144195000D01*
X133468976Y-144242619D01*
X133421357Y-144337857D01*
X133421357Y-144480714D01*
X133468976Y-144575952D01*
X133516595Y-144623571D01*
X133611833Y-144671190D01*
X133992785Y-144671190D01*
X132468976Y-145147380D02*
X133040404Y-145147380D01*
X132754690Y-145147380D02*
X132754690Y-144147380D01*
X132849928Y-144290238D01*
X132945166Y-144385476D01*
X133040404Y-144433095D01*
X131897547Y-144575952D02*
X131992785Y-144528333D01*
X132040404Y-144480714D01*
X132088023Y-144385476D01*
X132088023Y-144337857D01*
X132040404Y-144242619D01*
X131992785Y-144195000D01*
X131897547Y-144147380D01*
X131707071Y-144147380D01*
X131611833Y-144195000D01*
X131564214Y-144242619D01*
X131516595Y-144337857D01*
X131516595Y-144385476D01*
X131564214Y-144480714D01*
X131611833Y-144528333D01*
X131707071Y-144575952D01*
X131897547Y-144575952D01*
X131992785Y-144623571D01*
X132040404Y-144671190D01*
X132088023Y-144766428D01*
X132088023Y-144956904D01*
X132040404Y-145052142D01*
X131992785Y-145099761D01*
X131897547Y-145147380D01*
X131707071Y-145147380D01*
X131611833Y-145099761D01*
X131564214Y-145052142D01*
X131516595Y-144956904D01*
X131516595Y-144766428D01*
X131564214Y-144671190D01*
X131611833Y-144623571D01*
X131707071Y-144575952D01*
%TO.C,R17*%
X145867357Y-145274380D02*
X146200690Y-144798190D01*
X146438785Y-145274380D02*
X146438785Y-144274380D01*
X146057833Y-144274380D01*
X145962595Y-144322000D01*
X145914976Y-144369619D01*
X145867357Y-144464857D01*
X145867357Y-144607714D01*
X145914976Y-144702952D01*
X145962595Y-144750571D01*
X146057833Y-144798190D01*
X146438785Y-144798190D01*
X144914976Y-145274380D02*
X145486404Y-145274380D01*
X145200690Y-145274380D02*
X145200690Y-144274380D01*
X145295928Y-144417238D01*
X145391166Y-144512476D01*
X145486404Y-144560095D01*
X144581642Y-144274380D02*
X143914976Y-144274380D01*
X144343547Y-145274380D01*
%TO.C,R16*%
X158313357Y-145274380D02*
X158646690Y-144798190D01*
X158884785Y-145274380D02*
X158884785Y-144274380D01*
X158503833Y-144274380D01*
X158408595Y-144322000D01*
X158360976Y-144369619D01*
X158313357Y-144464857D01*
X158313357Y-144607714D01*
X158360976Y-144702952D01*
X158408595Y-144750571D01*
X158503833Y-144798190D01*
X158884785Y-144798190D01*
X157360976Y-145274380D02*
X157932404Y-145274380D01*
X157646690Y-145274380D02*
X157646690Y-144274380D01*
X157741928Y-144417238D01*
X157837166Y-144512476D01*
X157932404Y-144560095D01*
X156503833Y-144274380D02*
X156694309Y-144274380D01*
X156789547Y-144322000D01*
X156837166Y-144369619D01*
X156932404Y-144512476D01*
X156980023Y-144702952D01*
X156980023Y-145083904D01*
X156932404Y-145179142D01*
X156884785Y-145226761D01*
X156789547Y-145274380D01*
X156599071Y-145274380D01*
X156503833Y-145226761D01*
X156456214Y-145179142D01*
X156408595Y-145083904D01*
X156408595Y-144845809D01*
X156456214Y-144750571D01*
X156503833Y-144702952D01*
X156599071Y-144655333D01*
X156789547Y-144655333D01*
X156884785Y-144702952D01*
X156932404Y-144750571D01*
X156980023Y-144845809D01*
%TO.C,R7*%
X180348880Y-141184333D02*
X179872690Y-140851000D01*
X180348880Y-140612904D02*
X179348880Y-140612904D01*
X179348880Y-140993857D01*
X179396500Y-141089095D01*
X179444119Y-141136714D01*
X179539357Y-141184333D01*
X179682214Y-141184333D01*
X179777452Y-141136714D01*
X179825071Y-141089095D01*
X179872690Y-140993857D01*
X179872690Y-140612904D01*
X179348880Y-141517666D02*
X179348880Y-142184333D01*
X180348880Y-141755761D01*
%TO.C,R4*%
X177046880Y-141184333D02*
X176570690Y-140851000D01*
X177046880Y-140612904D02*
X176046880Y-140612904D01*
X176046880Y-140993857D01*
X176094500Y-141089095D01*
X176142119Y-141136714D01*
X176237357Y-141184333D01*
X176380214Y-141184333D01*
X176475452Y-141136714D01*
X176523071Y-141089095D01*
X176570690Y-140993857D01*
X176570690Y-140612904D01*
X176380214Y-142041476D02*
X177046880Y-142041476D01*
X175999261Y-141803380D02*
X176713547Y-141565285D01*
X176713547Y-142184333D01*
%TO.C,R2*%
X169267166Y-141643380D02*
X169600500Y-141167190D01*
X169838595Y-141643380D02*
X169838595Y-140643380D01*
X169457642Y-140643380D01*
X169362404Y-140691000D01*
X169314785Y-140738619D01*
X169267166Y-140833857D01*
X169267166Y-140976714D01*
X169314785Y-141071952D01*
X169362404Y-141119571D01*
X169457642Y-141167190D01*
X169838595Y-141167190D01*
X168886214Y-140738619D02*
X168838595Y-140691000D01*
X168743357Y-140643380D01*
X168505261Y-140643380D01*
X168410023Y-140691000D01*
X168362404Y-140738619D01*
X168314785Y-140833857D01*
X168314785Y-140929095D01*
X168362404Y-141071952D01*
X168933833Y-141643380D01*
X168314785Y-141643380D01*
%TO.C,R1*%
X169267166Y-144183380D02*
X169600500Y-143707190D01*
X169838595Y-144183380D02*
X169838595Y-143183380D01*
X169457642Y-143183380D01*
X169362404Y-143231000D01*
X169314785Y-143278619D01*
X169267166Y-143373857D01*
X169267166Y-143516714D01*
X169314785Y-143611952D01*
X169362404Y-143659571D01*
X169457642Y-143707190D01*
X169838595Y-143707190D01*
X168314785Y-144183380D02*
X168886214Y-144183380D01*
X168600500Y-144183380D02*
X168600500Y-143183380D01*
X168695738Y-143326238D01*
X168790976Y-143421476D01*
X168886214Y-143469095D01*
%TO.C,Q4*%
X92614738Y-135629619D02*
X92709976Y-135582000D01*
X92805214Y-135486761D01*
X92948071Y-135343904D01*
X93043309Y-135296285D01*
X93138547Y-135296285D01*
X93090928Y-135534380D02*
X93186166Y-135486761D01*
X93281404Y-135391523D01*
X93329023Y-135201047D01*
X93329023Y-134867714D01*
X93281404Y-134677238D01*
X93186166Y-134582000D01*
X93090928Y-134534380D01*
X92900452Y-134534380D01*
X92805214Y-134582000D01*
X92709976Y-134677238D01*
X92662357Y-134867714D01*
X92662357Y-135201047D01*
X92709976Y-135391523D01*
X92805214Y-135486761D01*
X92900452Y-135534380D01*
X93090928Y-135534380D01*
X91805214Y-134867714D02*
X91805214Y-135534380D01*
X92043309Y-134486761D02*
X92281404Y-135201047D01*
X91662357Y-135201047D01*
%TO.C,Q2*%
X90963738Y-130254619D02*
X91058976Y-130207000D01*
X91154214Y-130111761D01*
X91297071Y-129968904D01*
X91392309Y-129921285D01*
X91487547Y-129921285D01*
X91439928Y-130159380D02*
X91535166Y-130111761D01*
X91630404Y-130016523D01*
X91678023Y-129826047D01*
X91678023Y-129492714D01*
X91630404Y-129302238D01*
X91535166Y-129207000D01*
X91439928Y-129159380D01*
X91249452Y-129159380D01*
X91154214Y-129207000D01*
X91058976Y-129302238D01*
X91011357Y-129492714D01*
X91011357Y-129826047D01*
X91058976Y-130016523D01*
X91154214Y-130111761D01*
X91249452Y-130159380D01*
X91439928Y-130159380D01*
X90630404Y-129254619D02*
X90582785Y-129207000D01*
X90487547Y-129159380D01*
X90249452Y-129159380D01*
X90154214Y-129207000D01*
X90106595Y-129254619D01*
X90058976Y-129349857D01*
X90058976Y-129445095D01*
X90106595Y-129587952D01*
X90678023Y-130159380D01*
X90058976Y-130159380D01*
%TO.C,Q1*%
X77120738Y-131825619D02*
X77215976Y-131778000D01*
X77311214Y-131682761D01*
X77454071Y-131539904D01*
X77549309Y-131492285D01*
X77644547Y-131492285D01*
X77596928Y-131730380D02*
X77692166Y-131682761D01*
X77787404Y-131587523D01*
X77835023Y-131397047D01*
X77835023Y-131063714D01*
X77787404Y-130873238D01*
X77692166Y-130778000D01*
X77596928Y-130730380D01*
X77406452Y-130730380D01*
X77311214Y-130778000D01*
X77215976Y-130873238D01*
X77168357Y-131063714D01*
X77168357Y-131397047D01*
X77215976Y-131587523D01*
X77311214Y-131682761D01*
X77406452Y-131730380D01*
X77596928Y-131730380D01*
X76215976Y-131730380D02*
X76787404Y-131730380D01*
X76501690Y-131730380D02*
X76501690Y-130730380D01*
X76596928Y-130873238D01*
X76692166Y-130968476D01*
X76787404Y-131016095D01*
%TO.C,L5*%
X184056880Y-81049833D02*
X184056880Y-80573642D01*
X183056880Y-80573642D01*
X183056880Y-81859357D02*
X183056880Y-81383166D01*
X183533071Y-81335547D01*
X183485452Y-81383166D01*
X183437833Y-81478404D01*
X183437833Y-81716500D01*
X183485452Y-81811738D01*
X183533071Y-81859357D01*
X183628309Y-81906976D01*
X183866404Y-81906976D01*
X183961642Y-81859357D01*
X184009261Y-81811738D01*
X184056880Y-81716500D01*
X184056880Y-81478404D01*
X184009261Y-81383166D01*
X183961642Y-81335547D01*
%TO.C,L4*%
X104370166Y-119943380D02*
X104846357Y-119943380D01*
X104846357Y-118943380D01*
X103608261Y-119276714D02*
X103608261Y-119943380D01*
X103846357Y-118895761D02*
X104084452Y-119610047D01*
X103465404Y-119610047D01*
%TO.C,FB2*%
X206255833Y-148485571D02*
X206589166Y-148485571D01*
X206589166Y-149009380D02*
X206589166Y-148009380D01*
X206112976Y-148009380D01*
X205398690Y-148485571D02*
X205255833Y-148533190D01*
X205208214Y-148580809D01*
X205160595Y-148676047D01*
X205160595Y-148818904D01*
X205208214Y-148914142D01*
X205255833Y-148961761D01*
X205351071Y-149009380D01*
X205732023Y-149009380D01*
X205732023Y-148009380D01*
X205398690Y-148009380D01*
X205303452Y-148057000D01*
X205255833Y-148104619D01*
X205208214Y-148199857D01*
X205208214Y-148295095D01*
X205255833Y-148390333D01*
X205303452Y-148437952D01*
X205398690Y-148485571D01*
X205732023Y-148485571D01*
X204779642Y-148104619D02*
X204732023Y-148057000D01*
X204636785Y-148009380D01*
X204398690Y-148009380D01*
X204303452Y-148057000D01*
X204255833Y-148104619D01*
X204208214Y-148199857D01*
X204208214Y-148295095D01*
X204255833Y-148437952D01*
X204827261Y-149009380D01*
X204208214Y-149009380D01*
%TO.C,FB1*%
X183413071Y-152455666D02*
X183413071Y-152122333D01*
X183936880Y-152122333D02*
X182936880Y-152122333D01*
X182936880Y-152598523D01*
X183413071Y-153312809D02*
X183460690Y-153455666D01*
X183508309Y-153503285D01*
X183603547Y-153550904D01*
X183746404Y-153550904D01*
X183841642Y-153503285D01*
X183889261Y-153455666D01*
X183936880Y-153360428D01*
X183936880Y-152979476D01*
X182936880Y-152979476D01*
X182936880Y-153312809D01*
X182984500Y-153408047D01*
X183032119Y-153455666D01*
X183127357Y-153503285D01*
X183222595Y-153503285D01*
X183317833Y-153455666D01*
X183365452Y-153408047D01*
X183413071Y-153312809D01*
X183413071Y-152979476D01*
X183936880Y-154503285D02*
X183936880Y-153931857D01*
X183936880Y-154217571D02*
X182936880Y-154217571D01*
X183079738Y-154122333D01*
X183174976Y-154027095D01*
X183222595Y-153931857D01*
%TO.C,D42*%
X79636785Y-146414380D02*
X79636785Y-145414380D01*
X79398690Y-145414380D01*
X79255833Y-145462000D01*
X79160595Y-145557238D01*
X79112976Y-145652476D01*
X79065357Y-145842952D01*
X79065357Y-145985809D01*
X79112976Y-146176285D01*
X79160595Y-146271523D01*
X79255833Y-146366761D01*
X79398690Y-146414380D01*
X79636785Y-146414380D01*
X78208214Y-145747714D02*
X78208214Y-146414380D01*
X78446309Y-145366761D02*
X78684404Y-146081047D01*
X78065357Y-146081047D01*
X77732023Y-145509619D02*
X77684404Y-145462000D01*
X77589166Y-145414380D01*
X77351071Y-145414380D01*
X77255833Y-145462000D01*
X77208214Y-145509619D01*
X77160595Y-145604857D01*
X77160595Y-145700095D01*
X77208214Y-145842952D01*
X77779642Y-146414380D01*
X77160595Y-146414380D01*
X82494404Y-146734380D02*
X82494404Y-145734380D01*
X81922976Y-146734380D02*
X82351547Y-146162952D01*
X81922976Y-145734380D02*
X82494404Y-146305809D01*
%TO.C,D41*%
X79636785Y-153511880D02*
X79636785Y-152511880D01*
X79398690Y-152511880D01*
X79255833Y-152559500D01*
X79160595Y-152654738D01*
X79112976Y-152749976D01*
X79065357Y-152940452D01*
X79065357Y-153083309D01*
X79112976Y-153273785D01*
X79160595Y-153369023D01*
X79255833Y-153464261D01*
X79398690Y-153511880D01*
X79636785Y-153511880D01*
X78208214Y-152845214D02*
X78208214Y-153511880D01*
X78446309Y-152464261D02*
X78684404Y-153178547D01*
X78065357Y-153178547D01*
X77160595Y-153511880D02*
X77732023Y-153511880D01*
X77446309Y-153511880D02*
X77446309Y-152511880D01*
X77541547Y-152654738D01*
X77636785Y-152749976D01*
X77732023Y-152797595D01*
X74874404Y-153191880D02*
X74874404Y-152191880D01*
X74302976Y-153191880D02*
X74731547Y-152620452D01*
X74302976Y-152191880D02*
X74874404Y-152763309D01*
%TO.C,D39*%
X92082785Y-125587380D02*
X92082785Y-124587380D01*
X91844690Y-124587380D01*
X91701833Y-124635000D01*
X91606595Y-124730238D01*
X91558976Y-124825476D01*
X91511357Y-125015952D01*
X91511357Y-125158809D01*
X91558976Y-125349285D01*
X91606595Y-125444523D01*
X91701833Y-125539761D01*
X91844690Y-125587380D01*
X92082785Y-125587380D01*
X91178023Y-124587380D02*
X90558976Y-124587380D01*
X90892309Y-124968333D01*
X90749452Y-124968333D01*
X90654214Y-125015952D01*
X90606595Y-125063571D01*
X90558976Y-125158809D01*
X90558976Y-125396904D01*
X90606595Y-125492142D01*
X90654214Y-125539761D01*
X90749452Y-125587380D01*
X91035166Y-125587380D01*
X91130404Y-125539761D01*
X91178023Y-125492142D01*
X90082785Y-125587380D02*
X89892309Y-125587380D01*
X89797071Y-125539761D01*
X89749452Y-125492142D01*
X89654214Y-125349285D01*
X89606595Y-125158809D01*
X89606595Y-124777857D01*
X89654214Y-124682619D01*
X89701833Y-124635000D01*
X89797071Y-124587380D01*
X89987547Y-124587380D01*
X90082785Y-124635000D01*
X90130404Y-124682619D01*
X90178023Y-124777857D01*
X90178023Y-125015952D01*
X90130404Y-125111190D01*
X90082785Y-125158809D01*
X89987547Y-125206428D01*
X89797071Y-125206428D01*
X89701833Y-125158809D01*
X89654214Y-125111190D01*
X89606595Y-125015952D01*
%TO.C,D38*%
X78239785Y-136302380D02*
X78239785Y-135302380D01*
X78001690Y-135302380D01*
X77858833Y-135350000D01*
X77763595Y-135445238D01*
X77715976Y-135540476D01*
X77668357Y-135730952D01*
X77668357Y-135873809D01*
X77715976Y-136064285D01*
X77763595Y-136159523D01*
X77858833Y-136254761D01*
X78001690Y-136302380D01*
X78239785Y-136302380D01*
X77335023Y-135302380D02*
X76715976Y-135302380D01*
X77049309Y-135683333D01*
X76906452Y-135683333D01*
X76811214Y-135730952D01*
X76763595Y-135778571D01*
X76715976Y-135873809D01*
X76715976Y-136111904D01*
X76763595Y-136207142D01*
X76811214Y-136254761D01*
X76906452Y-136302380D01*
X77192166Y-136302380D01*
X77287404Y-136254761D01*
X77335023Y-136207142D01*
X76144547Y-135730952D02*
X76239785Y-135683333D01*
X76287404Y-135635714D01*
X76335023Y-135540476D01*
X76335023Y-135492857D01*
X76287404Y-135397619D01*
X76239785Y-135350000D01*
X76144547Y-135302380D01*
X75954071Y-135302380D01*
X75858833Y-135350000D01*
X75811214Y-135397619D01*
X75763595Y-135492857D01*
X75763595Y-135540476D01*
X75811214Y-135635714D01*
X75858833Y-135683333D01*
X75954071Y-135730952D01*
X76144547Y-135730952D01*
X76239785Y-135778571D01*
X76287404Y-135826190D01*
X76335023Y-135921428D01*
X76335023Y-136111904D01*
X76287404Y-136207142D01*
X76239785Y-136254761D01*
X76144547Y-136302380D01*
X75954071Y-136302380D01*
X75858833Y-136254761D01*
X75811214Y-136207142D01*
X75763595Y-136111904D01*
X75763595Y-135921428D01*
X75811214Y-135826190D01*
X75858833Y-135778571D01*
X75954071Y-135730952D01*
%TO.C,D36*%
X173362785Y-54133380D02*
X173362785Y-53133380D01*
X173124690Y-53133380D01*
X172981833Y-53181000D01*
X172886595Y-53276238D01*
X172838976Y-53371476D01*
X172791357Y-53561952D01*
X172791357Y-53704809D01*
X172838976Y-53895285D01*
X172886595Y-53990523D01*
X172981833Y-54085761D01*
X173124690Y-54133380D01*
X173362785Y-54133380D01*
X172458023Y-53133380D02*
X171838976Y-53133380D01*
X172172309Y-53514333D01*
X172029452Y-53514333D01*
X171934214Y-53561952D01*
X171886595Y-53609571D01*
X171838976Y-53704809D01*
X171838976Y-53942904D01*
X171886595Y-54038142D01*
X171934214Y-54085761D01*
X172029452Y-54133380D01*
X172315166Y-54133380D01*
X172410404Y-54085761D01*
X172458023Y-54038142D01*
X170981833Y-53133380D02*
X171172309Y-53133380D01*
X171267547Y-53181000D01*
X171315166Y-53228619D01*
X171410404Y-53371476D01*
X171458023Y-53561952D01*
X171458023Y-53942904D01*
X171410404Y-54038142D01*
X171362785Y-54085761D01*
X171267547Y-54133380D01*
X171077071Y-54133380D01*
X170981833Y-54085761D01*
X170934214Y-54038142D01*
X170886595Y-53942904D01*
X170886595Y-53704809D01*
X170934214Y-53609571D01*
X170981833Y-53561952D01*
X171077071Y-53514333D01*
X171267547Y-53514333D01*
X171362785Y-53561952D01*
X171410404Y-53609571D01*
X171458023Y-53704809D01*
%TO.C,D34*%
X143771785Y-54133380D02*
X143771785Y-53133380D01*
X143533690Y-53133380D01*
X143390833Y-53181000D01*
X143295595Y-53276238D01*
X143247976Y-53371476D01*
X143200357Y-53561952D01*
X143200357Y-53704809D01*
X143247976Y-53895285D01*
X143295595Y-53990523D01*
X143390833Y-54085761D01*
X143533690Y-54133380D01*
X143771785Y-54133380D01*
X142867023Y-53133380D02*
X142247976Y-53133380D01*
X142581309Y-53514333D01*
X142438452Y-53514333D01*
X142343214Y-53561952D01*
X142295595Y-53609571D01*
X142247976Y-53704809D01*
X142247976Y-53942904D01*
X142295595Y-54038142D01*
X142343214Y-54085761D01*
X142438452Y-54133380D01*
X142724166Y-54133380D01*
X142819404Y-54085761D01*
X142867023Y-54038142D01*
X141390833Y-53466714D02*
X141390833Y-54133380D01*
X141628928Y-53085761D02*
X141867023Y-53800047D01*
X141247976Y-53800047D01*
%TO.C,D32*%
X173362785Y-49053380D02*
X173362785Y-48053380D01*
X173124690Y-48053380D01*
X172981833Y-48101000D01*
X172886595Y-48196238D01*
X172838976Y-48291476D01*
X172791357Y-48481952D01*
X172791357Y-48624809D01*
X172838976Y-48815285D01*
X172886595Y-48910523D01*
X172981833Y-49005761D01*
X173124690Y-49053380D01*
X173362785Y-49053380D01*
X172458023Y-48053380D02*
X171838976Y-48053380D01*
X172172309Y-48434333D01*
X172029452Y-48434333D01*
X171934214Y-48481952D01*
X171886595Y-48529571D01*
X171838976Y-48624809D01*
X171838976Y-48862904D01*
X171886595Y-48958142D01*
X171934214Y-49005761D01*
X172029452Y-49053380D01*
X172315166Y-49053380D01*
X172410404Y-49005761D01*
X172458023Y-48958142D01*
X171458023Y-48148619D02*
X171410404Y-48101000D01*
X171315166Y-48053380D01*
X171077071Y-48053380D01*
X170981833Y-48101000D01*
X170934214Y-48148619D01*
X170886595Y-48243857D01*
X170886595Y-48339095D01*
X170934214Y-48481952D01*
X171505642Y-49053380D01*
X170886595Y-49053380D01*
%TO.C,D30*%
X143771785Y-49053380D02*
X143771785Y-48053380D01*
X143533690Y-48053380D01*
X143390833Y-48101000D01*
X143295595Y-48196238D01*
X143247976Y-48291476D01*
X143200357Y-48481952D01*
X143200357Y-48624809D01*
X143247976Y-48815285D01*
X143295595Y-48910523D01*
X143390833Y-49005761D01*
X143533690Y-49053380D01*
X143771785Y-49053380D01*
X142867023Y-48053380D02*
X142247976Y-48053380D01*
X142581309Y-48434333D01*
X142438452Y-48434333D01*
X142343214Y-48481952D01*
X142295595Y-48529571D01*
X142247976Y-48624809D01*
X142247976Y-48862904D01*
X142295595Y-48958142D01*
X142343214Y-49005761D01*
X142438452Y-49053380D01*
X142724166Y-49053380D01*
X142819404Y-49005761D01*
X142867023Y-48958142D01*
X141628928Y-48053380D02*
X141533690Y-48053380D01*
X141438452Y-48101000D01*
X141390833Y-48148619D01*
X141343214Y-48243857D01*
X141295595Y-48434333D01*
X141295595Y-48672428D01*
X141343214Y-48862904D01*
X141390833Y-48958142D01*
X141438452Y-49005761D01*
X141533690Y-49053380D01*
X141628928Y-49053380D01*
X141724166Y-49005761D01*
X141771785Y-48958142D01*
X141819404Y-48862904D01*
X141867023Y-48672428D01*
X141867023Y-48434333D01*
X141819404Y-48243857D01*
X141771785Y-48148619D01*
X141724166Y-48101000D01*
X141628928Y-48053380D01*
%TO.C,D28*%
X183522785Y-54133380D02*
X183522785Y-53133380D01*
X183284690Y-53133380D01*
X183141833Y-53181000D01*
X183046595Y-53276238D01*
X182998976Y-53371476D01*
X182951357Y-53561952D01*
X182951357Y-53704809D01*
X182998976Y-53895285D01*
X183046595Y-53990523D01*
X183141833Y-54085761D01*
X183284690Y-54133380D01*
X183522785Y-54133380D01*
X182570404Y-53228619D02*
X182522785Y-53181000D01*
X182427547Y-53133380D01*
X182189452Y-53133380D01*
X182094214Y-53181000D01*
X182046595Y-53228619D01*
X181998976Y-53323857D01*
X181998976Y-53419095D01*
X182046595Y-53561952D01*
X182618023Y-54133380D01*
X181998976Y-54133380D01*
X181427547Y-53561952D02*
X181522785Y-53514333D01*
X181570404Y-53466714D01*
X181618023Y-53371476D01*
X181618023Y-53323857D01*
X181570404Y-53228619D01*
X181522785Y-53181000D01*
X181427547Y-53133380D01*
X181237071Y-53133380D01*
X181141833Y-53181000D01*
X181094214Y-53228619D01*
X181046595Y-53323857D01*
X181046595Y-53371476D01*
X181094214Y-53466714D01*
X181141833Y-53514333D01*
X181237071Y-53561952D01*
X181427547Y-53561952D01*
X181522785Y-53609571D01*
X181570404Y-53657190D01*
X181618023Y-53752428D01*
X181618023Y-53942904D01*
X181570404Y-54038142D01*
X181522785Y-54085761D01*
X181427547Y-54133380D01*
X181237071Y-54133380D01*
X181141833Y-54085761D01*
X181094214Y-54038142D01*
X181046595Y-53942904D01*
X181046595Y-53752428D01*
X181094214Y-53657190D01*
X181141833Y-53609571D01*
X181237071Y-53561952D01*
%TO.C,D26*%
X153931785Y-54133380D02*
X153931785Y-53133380D01*
X153693690Y-53133380D01*
X153550833Y-53181000D01*
X153455595Y-53276238D01*
X153407976Y-53371476D01*
X153360357Y-53561952D01*
X153360357Y-53704809D01*
X153407976Y-53895285D01*
X153455595Y-53990523D01*
X153550833Y-54085761D01*
X153693690Y-54133380D01*
X153931785Y-54133380D01*
X152979404Y-53228619D02*
X152931785Y-53181000D01*
X152836547Y-53133380D01*
X152598452Y-53133380D01*
X152503214Y-53181000D01*
X152455595Y-53228619D01*
X152407976Y-53323857D01*
X152407976Y-53419095D01*
X152455595Y-53561952D01*
X153027023Y-54133380D01*
X152407976Y-54133380D01*
X151550833Y-53133380D02*
X151741309Y-53133380D01*
X151836547Y-53181000D01*
X151884166Y-53228619D01*
X151979404Y-53371476D01*
X152027023Y-53561952D01*
X152027023Y-53942904D01*
X151979404Y-54038142D01*
X151931785Y-54085761D01*
X151836547Y-54133380D01*
X151646071Y-54133380D01*
X151550833Y-54085761D01*
X151503214Y-54038142D01*
X151455595Y-53942904D01*
X151455595Y-53704809D01*
X151503214Y-53609571D01*
X151550833Y-53561952D01*
X151646071Y-53514333D01*
X151836547Y-53514333D01*
X151931785Y-53561952D01*
X151979404Y-53609571D01*
X152027023Y-53704809D01*
%TO.C,D24*%
X183522785Y-49053380D02*
X183522785Y-48053380D01*
X183284690Y-48053380D01*
X183141833Y-48101000D01*
X183046595Y-48196238D01*
X182998976Y-48291476D01*
X182951357Y-48481952D01*
X182951357Y-48624809D01*
X182998976Y-48815285D01*
X183046595Y-48910523D01*
X183141833Y-49005761D01*
X183284690Y-49053380D01*
X183522785Y-49053380D01*
X182570404Y-48148619D02*
X182522785Y-48101000D01*
X182427547Y-48053380D01*
X182189452Y-48053380D01*
X182094214Y-48101000D01*
X182046595Y-48148619D01*
X181998976Y-48243857D01*
X181998976Y-48339095D01*
X182046595Y-48481952D01*
X182618023Y-49053380D01*
X181998976Y-49053380D01*
X181141833Y-48386714D02*
X181141833Y-49053380D01*
X181379928Y-48005761D02*
X181618023Y-48720047D01*
X180998976Y-48720047D01*
%TO.C,D22*%
X153931785Y-49053380D02*
X153931785Y-48053380D01*
X153693690Y-48053380D01*
X153550833Y-48101000D01*
X153455595Y-48196238D01*
X153407976Y-48291476D01*
X153360357Y-48481952D01*
X153360357Y-48624809D01*
X153407976Y-48815285D01*
X153455595Y-48910523D01*
X153550833Y-49005761D01*
X153693690Y-49053380D01*
X153931785Y-49053380D01*
X152979404Y-48148619D02*
X152931785Y-48101000D01*
X152836547Y-48053380D01*
X152598452Y-48053380D01*
X152503214Y-48101000D01*
X152455595Y-48148619D01*
X152407976Y-48243857D01*
X152407976Y-48339095D01*
X152455595Y-48481952D01*
X153027023Y-49053380D01*
X152407976Y-49053380D01*
X152027023Y-48148619D02*
X151979404Y-48101000D01*
X151884166Y-48053380D01*
X151646071Y-48053380D01*
X151550833Y-48101000D01*
X151503214Y-48148619D01*
X151455595Y-48243857D01*
X151455595Y-48339095D01*
X151503214Y-48481952D01*
X152074642Y-49053380D01*
X151455595Y-49053380D01*
%TO.C,D20*%
X114561785Y-54133380D02*
X114561785Y-53133380D01*
X114323690Y-53133380D01*
X114180833Y-53181000D01*
X114085595Y-53276238D01*
X114037976Y-53371476D01*
X113990357Y-53561952D01*
X113990357Y-53704809D01*
X114037976Y-53895285D01*
X114085595Y-53990523D01*
X114180833Y-54085761D01*
X114323690Y-54133380D01*
X114561785Y-54133380D01*
X113609404Y-53228619D02*
X113561785Y-53181000D01*
X113466547Y-53133380D01*
X113228452Y-53133380D01*
X113133214Y-53181000D01*
X113085595Y-53228619D01*
X113037976Y-53323857D01*
X113037976Y-53419095D01*
X113085595Y-53561952D01*
X113657023Y-54133380D01*
X113037976Y-54133380D01*
X112418928Y-53133380D02*
X112323690Y-53133380D01*
X112228452Y-53181000D01*
X112180833Y-53228619D01*
X112133214Y-53323857D01*
X112085595Y-53514333D01*
X112085595Y-53752428D01*
X112133214Y-53942904D01*
X112180833Y-54038142D01*
X112228452Y-54085761D01*
X112323690Y-54133380D01*
X112418928Y-54133380D01*
X112514166Y-54085761D01*
X112561785Y-54038142D01*
X112609404Y-53942904D01*
X112657023Y-53752428D01*
X112657023Y-53514333D01*
X112609404Y-53323857D01*
X112561785Y-53228619D01*
X112514166Y-53181000D01*
X112418928Y-53133380D01*
%TO.C,D18*%
X85605785Y-54133380D02*
X85605785Y-53133380D01*
X85367690Y-53133380D01*
X85224833Y-53181000D01*
X85129595Y-53276238D01*
X85081976Y-53371476D01*
X85034357Y-53561952D01*
X85034357Y-53704809D01*
X85081976Y-53895285D01*
X85129595Y-53990523D01*
X85224833Y-54085761D01*
X85367690Y-54133380D01*
X85605785Y-54133380D01*
X84081976Y-54133380D02*
X84653404Y-54133380D01*
X84367690Y-54133380D02*
X84367690Y-53133380D01*
X84462928Y-53276238D01*
X84558166Y-53371476D01*
X84653404Y-53419095D01*
X83510547Y-53561952D02*
X83605785Y-53514333D01*
X83653404Y-53466714D01*
X83701023Y-53371476D01*
X83701023Y-53323857D01*
X83653404Y-53228619D01*
X83605785Y-53181000D01*
X83510547Y-53133380D01*
X83320071Y-53133380D01*
X83224833Y-53181000D01*
X83177214Y-53228619D01*
X83129595Y-53323857D01*
X83129595Y-53371476D01*
X83177214Y-53466714D01*
X83224833Y-53514333D01*
X83320071Y-53561952D01*
X83510547Y-53561952D01*
X83605785Y-53609571D01*
X83653404Y-53657190D01*
X83701023Y-53752428D01*
X83701023Y-53942904D01*
X83653404Y-54038142D01*
X83605785Y-54085761D01*
X83510547Y-54133380D01*
X83320071Y-54133380D01*
X83224833Y-54085761D01*
X83177214Y-54038142D01*
X83129595Y-53942904D01*
X83129595Y-53752428D01*
X83177214Y-53657190D01*
X83224833Y-53609571D01*
X83320071Y-53561952D01*
%TO.C,D16*%
X114561785Y-49053380D02*
X114561785Y-48053380D01*
X114323690Y-48053380D01*
X114180833Y-48101000D01*
X114085595Y-48196238D01*
X114037976Y-48291476D01*
X113990357Y-48481952D01*
X113990357Y-48624809D01*
X114037976Y-48815285D01*
X114085595Y-48910523D01*
X114180833Y-49005761D01*
X114323690Y-49053380D01*
X114561785Y-49053380D01*
X113037976Y-49053380D02*
X113609404Y-49053380D01*
X113323690Y-49053380D02*
X113323690Y-48053380D01*
X113418928Y-48196238D01*
X113514166Y-48291476D01*
X113609404Y-48339095D01*
X112180833Y-48053380D02*
X112371309Y-48053380D01*
X112466547Y-48101000D01*
X112514166Y-48148619D01*
X112609404Y-48291476D01*
X112657023Y-48481952D01*
X112657023Y-48862904D01*
X112609404Y-48958142D01*
X112561785Y-49005761D01*
X112466547Y-49053380D01*
X112276071Y-49053380D01*
X112180833Y-49005761D01*
X112133214Y-48958142D01*
X112085595Y-48862904D01*
X112085595Y-48624809D01*
X112133214Y-48529571D01*
X112180833Y-48481952D01*
X112276071Y-48434333D01*
X112466547Y-48434333D01*
X112561785Y-48481952D01*
X112609404Y-48529571D01*
X112657023Y-48624809D01*
%TO.C,D14*%
X85605785Y-49053380D02*
X85605785Y-48053380D01*
X85367690Y-48053380D01*
X85224833Y-48101000D01*
X85129595Y-48196238D01*
X85081976Y-48291476D01*
X85034357Y-48481952D01*
X85034357Y-48624809D01*
X85081976Y-48815285D01*
X85129595Y-48910523D01*
X85224833Y-49005761D01*
X85367690Y-49053380D01*
X85605785Y-49053380D01*
X84081976Y-49053380D02*
X84653404Y-49053380D01*
X84367690Y-49053380D02*
X84367690Y-48053380D01*
X84462928Y-48196238D01*
X84558166Y-48291476D01*
X84653404Y-48339095D01*
X83224833Y-48386714D02*
X83224833Y-49053380D01*
X83462928Y-48005761D02*
X83701023Y-48720047D01*
X83081976Y-48720047D01*
%TO.C,D12*%
X124848785Y-54133380D02*
X124848785Y-53133380D01*
X124610690Y-53133380D01*
X124467833Y-53181000D01*
X124372595Y-53276238D01*
X124324976Y-53371476D01*
X124277357Y-53561952D01*
X124277357Y-53704809D01*
X124324976Y-53895285D01*
X124372595Y-53990523D01*
X124467833Y-54085761D01*
X124610690Y-54133380D01*
X124848785Y-54133380D01*
X123324976Y-54133380D02*
X123896404Y-54133380D01*
X123610690Y-54133380D02*
X123610690Y-53133380D01*
X123705928Y-53276238D01*
X123801166Y-53371476D01*
X123896404Y-53419095D01*
X122944023Y-53228619D02*
X122896404Y-53181000D01*
X122801166Y-53133380D01*
X122563071Y-53133380D01*
X122467833Y-53181000D01*
X122420214Y-53228619D01*
X122372595Y-53323857D01*
X122372595Y-53419095D01*
X122420214Y-53561952D01*
X122991642Y-54133380D01*
X122372595Y-54133380D01*
%TO.C,D10*%
X95892785Y-54133380D02*
X95892785Y-53133380D01*
X95654690Y-53133380D01*
X95511833Y-53181000D01*
X95416595Y-53276238D01*
X95368976Y-53371476D01*
X95321357Y-53561952D01*
X95321357Y-53704809D01*
X95368976Y-53895285D01*
X95416595Y-53990523D01*
X95511833Y-54085761D01*
X95654690Y-54133380D01*
X95892785Y-54133380D01*
X94368976Y-54133380D02*
X94940404Y-54133380D01*
X94654690Y-54133380D02*
X94654690Y-53133380D01*
X94749928Y-53276238D01*
X94845166Y-53371476D01*
X94940404Y-53419095D01*
X93749928Y-53133380D02*
X93654690Y-53133380D01*
X93559452Y-53181000D01*
X93511833Y-53228619D01*
X93464214Y-53323857D01*
X93416595Y-53514333D01*
X93416595Y-53752428D01*
X93464214Y-53942904D01*
X93511833Y-54038142D01*
X93559452Y-54085761D01*
X93654690Y-54133380D01*
X93749928Y-54133380D01*
X93845166Y-54085761D01*
X93892785Y-54038142D01*
X93940404Y-53942904D01*
X93988023Y-53752428D01*
X93988023Y-53514333D01*
X93940404Y-53323857D01*
X93892785Y-53228619D01*
X93845166Y-53181000D01*
X93749928Y-53133380D01*
%TO.C,D8*%
X124372595Y-49053380D02*
X124372595Y-48053380D01*
X124134500Y-48053380D01*
X123991642Y-48101000D01*
X123896404Y-48196238D01*
X123848785Y-48291476D01*
X123801166Y-48481952D01*
X123801166Y-48624809D01*
X123848785Y-48815285D01*
X123896404Y-48910523D01*
X123991642Y-49005761D01*
X124134500Y-49053380D01*
X124372595Y-49053380D01*
X123229738Y-48481952D02*
X123324976Y-48434333D01*
X123372595Y-48386714D01*
X123420214Y-48291476D01*
X123420214Y-48243857D01*
X123372595Y-48148619D01*
X123324976Y-48101000D01*
X123229738Y-48053380D01*
X123039261Y-48053380D01*
X122944023Y-48101000D01*
X122896404Y-48148619D01*
X122848785Y-48243857D01*
X122848785Y-48291476D01*
X122896404Y-48386714D01*
X122944023Y-48434333D01*
X123039261Y-48481952D01*
X123229738Y-48481952D01*
X123324976Y-48529571D01*
X123372595Y-48577190D01*
X123420214Y-48672428D01*
X123420214Y-48862904D01*
X123372595Y-48958142D01*
X123324976Y-49005761D01*
X123229738Y-49053380D01*
X123039261Y-49053380D01*
X122944023Y-49005761D01*
X122896404Y-48958142D01*
X122848785Y-48862904D01*
X122848785Y-48672428D01*
X122896404Y-48577190D01*
X122944023Y-48529571D01*
X123039261Y-48481952D01*
%TO.C,D6*%
X95416595Y-49053380D02*
X95416595Y-48053380D01*
X95178500Y-48053380D01*
X95035642Y-48101000D01*
X94940404Y-48196238D01*
X94892785Y-48291476D01*
X94845166Y-48481952D01*
X94845166Y-48624809D01*
X94892785Y-48815285D01*
X94940404Y-48910523D01*
X95035642Y-49005761D01*
X95178500Y-49053380D01*
X95416595Y-49053380D01*
X93988023Y-48053380D02*
X94178500Y-48053380D01*
X94273738Y-48101000D01*
X94321357Y-48148619D01*
X94416595Y-48291476D01*
X94464214Y-48481952D01*
X94464214Y-48862904D01*
X94416595Y-48958142D01*
X94368976Y-49005761D01*
X94273738Y-49053380D01*
X94083261Y-49053380D01*
X93988023Y-49005761D01*
X93940404Y-48958142D01*
X93892785Y-48862904D01*
X93892785Y-48624809D01*
X93940404Y-48529571D01*
X93988023Y-48481952D01*
X94083261Y-48434333D01*
X94273738Y-48434333D01*
X94368976Y-48481952D01*
X94416595Y-48529571D01*
X94464214Y-48624809D01*
%TO.C,D5*%
X76120880Y-59840904D02*
X75120880Y-59840904D01*
X75120880Y-60079000D01*
X75168500Y-60221857D01*
X75263738Y-60317095D01*
X75358976Y-60364714D01*
X75549452Y-60412333D01*
X75692309Y-60412333D01*
X75882785Y-60364714D01*
X75978023Y-60317095D01*
X76073261Y-60221857D01*
X76120880Y-60079000D01*
X76120880Y-59840904D01*
X75120880Y-61317095D02*
X75120880Y-60840904D01*
X75597071Y-60793285D01*
X75549452Y-60840904D01*
X75501833Y-60936142D01*
X75501833Y-61174238D01*
X75549452Y-61269476D01*
X75597071Y-61317095D01*
X75692309Y-61364714D01*
X75930404Y-61364714D01*
X76025642Y-61317095D01*
X76073261Y-61269476D01*
X76120880Y-61174238D01*
X76120880Y-60936142D01*
X76073261Y-60840904D01*
X76025642Y-60793285D01*
%TO.C,C46*%
X177171642Y-82923142D02*
X177219261Y-82875523D01*
X177266880Y-82732666D01*
X177266880Y-82637428D01*
X177219261Y-82494571D01*
X177124023Y-82399333D01*
X177028785Y-82351714D01*
X176838309Y-82304095D01*
X176695452Y-82304095D01*
X176504976Y-82351714D01*
X176409738Y-82399333D01*
X176314500Y-82494571D01*
X176266880Y-82637428D01*
X176266880Y-82732666D01*
X176314500Y-82875523D01*
X176362119Y-82923142D01*
X176600214Y-83780285D02*
X177266880Y-83780285D01*
X176219261Y-83542190D02*
X176933547Y-83304095D01*
X176933547Y-83923142D01*
X176266880Y-84732666D02*
X176266880Y-84542190D01*
X176314500Y-84446952D01*
X176362119Y-84399333D01*
X176504976Y-84304095D01*
X176695452Y-84256476D01*
X177076404Y-84256476D01*
X177171642Y-84304095D01*
X177219261Y-84351714D01*
X177266880Y-84446952D01*
X177266880Y-84637428D01*
X177219261Y-84732666D01*
X177171642Y-84780285D01*
X177076404Y-84827904D01*
X176838309Y-84827904D01*
X176743071Y-84780285D01*
X176695452Y-84732666D01*
X176647833Y-84637428D01*
X176647833Y-84446952D01*
X176695452Y-84351714D01*
X176743071Y-84304095D01*
X176838309Y-84256476D01*
%TO.C,C43*%
X179268357Y-81670142D02*
X179315976Y-81717761D01*
X179458833Y-81765380D01*
X179554071Y-81765380D01*
X179696928Y-81717761D01*
X179792166Y-81622523D01*
X179839785Y-81527285D01*
X179887404Y-81336809D01*
X179887404Y-81193952D01*
X179839785Y-81003476D01*
X179792166Y-80908238D01*
X179696928Y-80813000D01*
X179554071Y-80765380D01*
X179458833Y-80765380D01*
X179315976Y-80813000D01*
X179268357Y-80860619D01*
X178411214Y-81098714D02*
X178411214Y-81765380D01*
X178649309Y-80717761D02*
X178887404Y-81432047D01*
X178268357Y-81432047D01*
X177982642Y-80765380D02*
X177363595Y-80765380D01*
X177696928Y-81146333D01*
X177554071Y-81146333D01*
X177458833Y-81193952D01*
X177411214Y-81241571D01*
X177363595Y-81336809D01*
X177363595Y-81574904D01*
X177411214Y-81670142D01*
X177458833Y-81717761D01*
X177554071Y-81765380D01*
X177839785Y-81765380D01*
X177935023Y-81717761D01*
X177982642Y-81670142D01*
%TO.C,C45*%
X183013642Y-125595142D02*
X183061261Y-125547523D01*
X183108880Y-125404666D01*
X183108880Y-125309428D01*
X183061261Y-125166571D01*
X182966023Y-125071333D01*
X182870785Y-125023714D01*
X182680309Y-124976095D01*
X182537452Y-124976095D01*
X182346976Y-125023714D01*
X182251738Y-125071333D01*
X182156500Y-125166571D01*
X182108880Y-125309428D01*
X182108880Y-125404666D01*
X182156500Y-125547523D01*
X182204119Y-125595142D01*
X182442214Y-126452285D02*
X183108880Y-126452285D01*
X182061261Y-126214190D02*
X182775547Y-125976095D01*
X182775547Y-126595142D01*
X182108880Y-127452285D02*
X182108880Y-126976095D01*
X182585071Y-126928476D01*
X182537452Y-126976095D01*
X182489833Y-127071333D01*
X182489833Y-127309428D01*
X182537452Y-127404666D01*
X182585071Y-127452285D01*
X182680309Y-127499904D01*
X182918404Y-127499904D01*
X183013642Y-127452285D01*
X183061261Y-127404666D01*
X183108880Y-127309428D01*
X183108880Y-127071333D01*
X183061261Y-126976095D01*
X183013642Y-126928476D01*
%TO.C,C44*%
X185967642Y-153154142D02*
X186015261Y-153106523D01*
X186062880Y-152963666D01*
X186062880Y-152868428D01*
X186015261Y-152725571D01*
X185920023Y-152630333D01*
X185824785Y-152582714D01*
X185634309Y-152535095D01*
X185491452Y-152535095D01*
X185300976Y-152582714D01*
X185205738Y-152630333D01*
X185110500Y-152725571D01*
X185062880Y-152868428D01*
X185062880Y-152963666D01*
X185110500Y-153106523D01*
X185158119Y-153154142D01*
X185396214Y-154011285D02*
X186062880Y-154011285D01*
X185015261Y-153773190D02*
X185729547Y-153535095D01*
X185729547Y-154154142D01*
X185396214Y-154963666D02*
X186062880Y-154963666D01*
X185015261Y-154725571D02*
X185729547Y-154487476D01*
X185729547Y-155106523D01*
%TO.C,C42*%
X199842357Y-155568142D02*
X199889976Y-155615761D01*
X200032833Y-155663380D01*
X200128071Y-155663380D01*
X200270928Y-155615761D01*
X200366166Y-155520523D01*
X200413785Y-155425285D01*
X200461404Y-155234809D01*
X200461404Y-155091952D01*
X200413785Y-154901476D01*
X200366166Y-154806238D01*
X200270928Y-154711000D01*
X200128071Y-154663380D01*
X200032833Y-154663380D01*
X199889976Y-154711000D01*
X199842357Y-154758619D01*
X198985214Y-154996714D02*
X198985214Y-155663380D01*
X199223309Y-154615761D02*
X199461404Y-155330047D01*
X198842357Y-155330047D01*
X198509023Y-154758619D02*
X198461404Y-154711000D01*
X198366166Y-154663380D01*
X198128071Y-154663380D01*
X198032833Y-154711000D01*
X197985214Y-154758619D01*
X197937595Y-154853857D01*
X197937595Y-154949095D01*
X197985214Y-155091952D01*
X198556642Y-155663380D01*
X197937595Y-155663380D01*
%TO.C,C35*%
X164664642Y-82923142D02*
X164712261Y-82875523D01*
X164759880Y-82732666D01*
X164759880Y-82637428D01*
X164712261Y-82494571D01*
X164617023Y-82399333D01*
X164521785Y-82351714D01*
X164331309Y-82304095D01*
X164188452Y-82304095D01*
X163997976Y-82351714D01*
X163902738Y-82399333D01*
X163807500Y-82494571D01*
X163759880Y-82637428D01*
X163759880Y-82732666D01*
X163807500Y-82875523D01*
X163855119Y-82923142D01*
X163759880Y-83256476D02*
X163759880Y-83875523D01*
X164140833Y-83542190D01*
X164140833Y-83685047D01*
X164188452Y-83780285D01*
X164236071Y-83827904D01*
X164331309Y-83875523D01*
X164569404Y-83875523D01*
X164664642Y-83827904D01*
X164712261Y-83780285D01*
X164759880Y-83685047D01*
X164759880Y-83399333D01*
X164712261Y-83304095D01*
X164664642Y-83256476D01*
X163759880Y-84780285D02*
X163759880Y-84304095D01*
X164236071Y-84256476D01*
X164188452Y-84304095D01*
X164140833Y-84399333D01*
X164140833Y-84637428D01*
X164188452Y-84732666D01*
X164236071Y-84780285D01*
X164331309Y-84827904D01*
X164569404Y-84827904D01*
X164664642Y-84780285D01*
X164712261Y-84732666D01*
X164759880Y-84637428D01*
X164759880Y-84399333D01*
X164712261Y-84304095D01*
X164664642Y-84256476D01*
%TO.C,C41*%
X199715357Y-159648142D02*
X199762976Y-159695761D01*
X199905833Y-159743380D01*
X200001071Y-159743380D01*
X200143928Y-159695761D01*
X200239166Y-159600523D01*
X200286785Y-159505285D01*
X200334404Y-159314809D01*
X200334404Y-159171952D01*
X200286785Y-158981476D01*
X200239166Y-158886238D01*
X200143928Y-158791000D01*
X200001071Y-158743380D01*
X199905833Y-158743380D01*
X199762976Y-158791000D01*
X199715357Y-158838619D01*
X198858214Y-159076714D02*
X198858214Y-159743380D01*
X199096309Y-158695761D02*
X199334404Y-159410047D01*
X198715357Y-159410047D01*
X197810595Y-159743380D02*
X198382023Y-159743380D01*
X198096309Y-159743380D02*
X198096309Y-158743380D01*
X198191547Y-158886238D01*
X198286785Y-158981476D01*
X198382023Y-159029095D01*
%TO.C,C39*%
X199842357Y-153155142D02*
X199889976Y-153202761D01*
X200032833Y-153250380D01*
X200128071Y-153250380D01*
X200270928Y-153202761D01*
X200366166Y-153107523D01*
X200413785Y-153012285D01*
X200461404Y-152821809D01*
X200461404Y-152678952D01*
X200413785Y-152488476D01*
X200366166Y-152393238D01*
X200270928Y-152298000D01*
X200128071Y-152250380D01*
X200032833Y-152250380D01*
X199889976Y-152298000D01*
X199842357Y-152345619D01*
X199509023Y-152250380D02*
X198889976Y-152250380D01*
X199223309Y-152631333D01*
X199080452Y-152631333D01*
X198985214Y-152678952D01*
X198937595Y-152726571D01*
X198889976Y-152821809D01*
X198889976Y-153059904D01*
X198937595Y-153155142D01*
X198985214Y-153202761D01*
X199080452Y-153250380D01*
X199366166Y-153250380D01*
X199461404Y-153202761D01*
X199509023Y-153155142D01*
X198413785Y-153250380D02*
X198223309Y-153250380D01*
X198128071Y-153202761D01*
X198080452Y-153155142D01*
X197985214Y-153012285D01*
X197937595Y-152821809D01*
X197937595Y-152440857D01*
X197985214Y-152345619D01*
X198032833Y-152298000D01*
X198128071Y-152250380D01*
X198318547Y-152250380D01*
X198413785Y-152298000D01*
X198461404Y-152345619D01*
X198509023Y-152440857D01*
X198509023Y-152678952D01*
X198461404Y-152774190D01*
X198413785Y-152821809D01*
X198318547Y-152869428D01*
X198128071Y-152869428D01*
X198032833Y-152821809D01*
X197985214Y-152774190D01*
X197937595Y-152678952D01*
%TO.C,C38*%
X160472357Y-74271142D02*
X160519976Y-74318761D01*
X160662833Y-74366380D01*
X160758071Y-74366380D01*
X160900928Y-74318761D01*
X160996166Y-74223523D01*
X161043785Y-74128285D01*
X161091404Y-73937809D01*
X161091404Y-73794952D01*
X161043785Y-73604476D01*
X160996166Y-73509238D01*
X160900928Y-73414000D01*
X160758071Y-73366380D01*
X160662833Y-73366380D01*
X160519976Y-73414000D01*
X160472357Y-73461619D01*
X160139023Y-73366380D02*
X159519976Y-73366380D01*
X159853309Y-73747333D01*
X159710452Y-73747333D01*
X159615214Y-73794952D01*
X159567595Y-73842571D01*
X159519976Y-73937809D01*
X159519976Y-74175904D01*
X159567595Y-74271142D01*
X159615214Y-74318761D01*
X159710452Y-74366380D01*
X159996166Y-74366380D01*
X160091404Y-74318761D01*
X160139023Y-74271142D01*
X158948547Y-73794952D02*
X159043785Y-73747333D01*
X159091404Y-73699714D01*
X159139023Y-73604476D01*
X159139023Y-73556857D01*
X159091404Y-73461619D01*
X159043785Y-73414000D01*
X158948547Y-73366380D01*
X158758071Y-73366380D01*
X158662833Y-73414000D01*
X158615214Y-73461619D01*
X158567595Y-73556857D01*
X158567595Y-73604476D01*
X158615214Y-73699714D01*
X158662833Y-73747333D01*
X158758071Y-73794952D01*
X158948547Y-73794952D01*
X159043785Y-73842571D01*
X159091404Y-73890190D01*
X159139023Y-73985428D01*
X159139023Y-74175904D01*
X159091404Y-74271142D01*
X159043785Y-74318761D01*
X158948547Y-74366380D01*
X158758071Y-74366380D01*
X158662833Y-74318761D01*
X158615214Y-74271142D01*
X158567595Y-74175904D01*
X158567595Y-73985428D01*
X158615214Y-73890190D01*
X158662833Y-73842571D01*
X158758071Y-73794952D01*
%TO.C,C37*%
X160726357Y-84558142D02*
X160773976Y-84605761D01*
X160916833Y-84653380D01*
X161012071Y-84653380D01*
X161154928Y-84605761D01*
X161250166Y-84510523D01*
X161297785Y-84415285D01*
X161345404Y-84224809D01*
X161345404Y-84081952D01*
X161297785Y-83891476D01*
X161250166Y-83796238D01*
X161154928Y-83701000D01*
X161012071Y-83653380D01*
X160916833Y-83653380D01*
X160773976Y-83701000D01*
X160726357Y-83748619D01*
X160393023Y-83653380D02*
X159773976Y-83653380D01*
X160107309Y-84034333D01*
X159964452Y-84034333D01*
X159869214Y-84081952D01*
X159821595Y-84129571D01*
X159773976Y-84224809D01*
X159773976Y-84462904D01*
X159821595Y-84558142D01*
X159869214Y-84605761D01*
X159964452Y-84653380D01*
X160250166Y-84653380D01*
X160345404Y-84605761D01*
X160393023Y-84558142D01*
X159440642Y-83653380D02*
X158773976Y-83653380D01*
X159202547Y-84653380D01*
%TO.C,C36*%
X211693642Y-147820142D02*
X211741261Y-147772523D01*
X211788880Y-147629666D01*
X211788880Y-147534428D01*
X211741261Y-147391571D01*
X211646023Y-147296333D01*
X211550785Y-147248714D01*
X211360309Y-147201095D01*
X211217452Y-147201095D01*
X211026976Y-147248714D01*
X210931738Y-147296333D01*
X210836500Y-147391571D01*
X210788880Y-147534428D01*
X210788880Y-147629666D01*
X210836500Y-147772523D01*
X210884119Y-147820142D01*
X210788880Y-148153476D02*
X210788880Y-148772523D01*
X211169833Y-148439190D01*
X211169833Y-148582047D01*
X211217452Y-148677285D01*
X211265071Y-148724904D01*
X211360309Y-148772523D01*
X211598404Y-148772523D01*
X211693642Y-148724904D01*
X211741261Y-148677285D01*
X211788880Y-148582047D01*
X211788880Y-148296333D01*
X211741261Y-148201095D01*
X211693642Y-148153476D01*
X210788880Y-149629666D02*
X210788880Y-149439190D01*
X210836500Y-149343952D01*
X210884119Y-149296333D01*
X211026976Y-149201095D01*
X211217452Y-149153476D01*
X211598404Y-149153476D01*
X211693642Y-149201095D01*
X211741261Y-149248714D01*
X211788880Y-149343952D01*
X211788880Y-149534428D01*
X211741261Y-149629666D01*
X211693642Y-149677285D01*
X211598404Y-149724904D01*
X211360309Y-149724904D01*
X211265071Y-149677285D01*
X211217452Y-149629666D01*
X211169833Y-149534428D01*
X211169833Y-149343952D01*
X211217452Y-149248714D01*
X211265071Y-149201095D01*
X211360309Y-149153476D01*
%TO.C,C34*%
X116403357Y-124022142D02*
X116450976Y-124069761D01*
X116593833Y-124117380D01*
X116689071Y-124117380D01*
X116831928Y-124069761D01*
X116927166Y-123974523D01*
X116974785Y-123879285D01*
X117022404Y-123688809D01*
X117022404Y-123545952D01*
X116974785Y-123355476D01*
X116927166Y-123260238D01*
X116831928Y-123165000D01*
X116689071Y-123117380D01*
X116593833Y-123117380D01*
X116450976Y-123165000D01*
X116403357Y-123212619D01*
X116070023Y-123117380D02*
X115450976Y-123117380D01*
X115784309Y-123498333D01*
X115641452Y-123498333D01*
X115546214Y-123545952D01*
X115498595Y-123593571D01*
X115450976Y-123688809D01*
X115450976Y-123926904D01*
X115498595Y-124022142D01*
X115546214Y-124069761D01*
X115641452Y-124117380D01*
X115927166Y-124117380D01*
X116022404Y-124069761D01*
X116070023Y-124022142D01*
X114593833Y-123450714D02*
X114593833Y-124117380D01*
X114831928Y-123069761D02*
X115070023Y-123784047D01*
X114450976Y-123784047D01*
%TO.C,C31*%
X76476642Y-138231642D02*
X76524261Y-138184023D01*
X76571880Y-138041166D01*
X76571880Y-137945928D01*
X76524261Y-137803071D01*
X76429023Y-137707833D01*
X76333785Y-137660214D01*
X76143309Y-137612595D01*
X76000452Y-137612595D01*
X75809976Y-137660214D01*
X75714738Y-137707833D01*
X75619500Y-137803071D01*
X75571880Y-137945928D01*
X75571880Y-138041166D01*
X75619500Y-138184023D01*
X75667119Y-138231642D01*
X75571880Y-138564976D02*
X75571880Y-139184023D01*
X75952833Y-138850690D01*
X75952833Y-138993547D01*
X76000452Y-139088785D01*
X76048071Y-139136404D01*
X76143309Y-139184023D01*
X76381404Y-139184023D01*
X76476642Y-139136404D01*
X76524261Y-139088785D01*
X76571880Y-138993547D01*
X76571880Y-138707833D01*
X76524261Y-138612595D01*
X76476642Y-138564976D01*
X76571880Y-140136404D02*
X76571880Y-139564976D01*
X76571880Y-139850690D02*
X75571880Y-139850690D01*
X75714738Y-139755452D01*
X75809976Y-139660214D01*
X75857595Y-139564976D01*
%TO.C,C30*%
X107131142Y-134739142D02*
X107178761Y-134691523D01*
X107226380Y-134548666D01*
X107226380Y-134453428D01*
X107178761Y-134310571D01*
X107083523Y-134215333D01*
X106988285Y-134167714D01*
X106797809Y-134120095D01*
X106654952Y-134120095D01*
X106464476Y-134167714D01*
X106369238Y-134215333D01*
X106274000Y-134310571D01*
X106226380Y-134453428D01*
X106226380Y-134548666D01*
X106274000Y-134691523D01*
X106321619Y-134739142D01*
X106226380Y-135072476D02*
X106226380Y-135691523D01*
X106607333Y-135358190D01*
X106607333Y-135501047D01*
X106654952Y-135596285D01*
X106702571Y-135643904D01*
X106797809Y-135691523D01*
X107035904Y-135691523D01*
X107131142Y-135643904D01*
X107178761Y-135596285D01*
X107226380Y-135501047D01*
X107226380Y-135215333D01*
X107178761Y-135120095D01*
X107131142Y-135072476D01*
X106226380Y-136310571D02*
X106226380Y-136405809D01*
X106274000Y-136501047D01*
X106321619Y-136548666D01*
X106416857Y-136596285D01*
X106607333Y-136643904D01*
X106845428Y-136643904D01*
X107035904Y-136596285D01*
X107131142Y-136548666D01*
X107178761Y-136501047D01*
X107226380Y-136405809D01*
X107226380Y-136310571D01*
X107178761Y-136215333D01*
X107131142Y-136167714D01*
X107035904Y-136120095D01*
X106845428Y-136072476D01*
X106607333Y-136072476D01*
X106416857Y-136120095D01*
X106321619Y-136167714D01*
X106274000Y-136215333D01*
X106226380Y-136310571D01*
%TO.C,C28*%
X111195142Y-134753142D02*
X111242761Y-134705523D01*
X111290380Y-134562666D01*
X111290380Y-134467428D01*
X111242761Y-134324571D01*
X111147523Y-134229333D01*
X111052285Y-134181714D01*
X110861809Y-134134095D01*
X110718952Y-134134095D01*
X110528476Y-134181714D01*
X110433238Y-134229333D01*
X110338000Y-134324571D01*
X110290380Y-134467428D01*
X110290380Y-134562666D01*
X110338000Y-134705523D01*
X110385619Y-134753142D01*
X110385619Y-135134095D02*
X110338000Y-135181714D01*
X110290380Y-135276952D01*
X110290380Y-135515047D01*
X110338000Y-135610285D01*
X110385619Y-135657904D01*
X110480857Y-135705523D01*
X110576095Y-135705523D01*
X110718952Y-135657904D01*
X111290380Y-135086476D01*
X111290380Y-135705523D01*
X110718952Y-136276952D02*
X110671333Y-136181714D01*
X110623714Y-136134095D01*
X110528476Y-136086476D01*
X110480857Y-136086476D01*
X110385619Y-136134095D01*
X110338000Y-136181714D01*
X110290380Y-136276952D01*
X110290380Y-136467428D01*
X110338000Y-136562666D01*
X110385619Y-136610285D01*
X110480857Y-136657904D01*
X110528476Y-136657904D01*
X110623714Y-136610285D01*
X110671333Y-136562666D01*
X110718952Y-136467428D01*
X110718952Y-136276952D01*
X110766571Y-136181714D01*
X110814190Y-136134095D01*
X110909428Y-136086476D01*
X111099904Y-136086476D01*
X111195142Y-136134095D01*
X111242761Y-136181714D01*
X111290380Y-136276952D01*
X111290380Y-136467428D01*
X111242761Y-136562666D01*
X111195142Y-136610285D01*
X111099904Y-136657904D01*
X110909428Y-136657904D01*
X110814190Y-136610285D01*
X110766571Y-136562666D01*
X110718952Y-136467428D01*
%TO.C,C27*%
X115640142Y-134866142D02*
X115687761Y-134818523D01*
X115735380Y-134675666D01*
X115735380Y-134580428D01*
X115687761Y-134437571D01*
X115592523Y-134342333D01*
X115497285Y-134294714D01*
X115306809Y-134247095D01*
X115163952Y-134247095D01*
X114973476Y-134294714D01*
X114878238Y-134342333D01*
X114783000Y-134437571D01*
X114735380Y-134580428D01*
X114735380Y-134675666D01*
X114783000Y-134818523D01*
X114830619Y-134866142D01*
X114830619Y-135247095D02*
X114783000Y-135294714D01*
X114735380Y-135389952D01*
X114735380Y-135628047D01*
X114783000Y-135723285D01*
X114830619Y-135770904D01*
X114925857Y-135818523D01*
X115021095Y-135818523D01*
X115163952Y-135770904D01*
X115735380Y-135199476D01*
X115735380Y-135818523D01*
X114735380Y-136151857D02*
X114735380Y-136818523D01*
X115735380Y-136389952D01*
%TO.C,C16*%
X137358357Y-129207142D02*
X137405976Y-129254761D01*
X137548833Y-129302380D01*
X137644071Y-129302380D01*
X137786928Y-129254761D01*
X137882166Y-129159523D01*
X137929785Y-129064285D01*
X137977404Y-128873809D01*
X137977404Y-128730952D01*
X137929785Y-128540476D01*
X137882166Y-128445238D01*
X137786928Y-128350000D01*
X137644071Y-128302380D01*
X137548833Y-128302380D01*
X137405976Y-128350000D01*
X137358357Y-128397619D01*
X136405976Y-129302380D02*
X136977404Y-129302380D01*
X136691690Y-129302380D02*
X136691690Y-128302380D01*
X136786928Y-128445238D01*
X136882166Y-128540476D01*
X136977404Y-128588095D01*
X135548833Y-128302380D02*
X135739309Y-128302380D01*
X135834547Y-128350000D01*
X135882166Y-128397619D01*
X135977404Y-128540476D01*
X136025023Y-128730952D01*
X136025023Y-129111904D01*
X135977404Y-129207142D01*
X135929785Y-129254761D01*
X135834547Y-129302380D01*
X135644071Y-129302380D01*
X135548833Y-129254761D01*
X135501214Y-129207142D01*
X135453595Y-129111904D01*
X135453595Y-128873809D01*
X135501214Y-128778571D01*
X135548833Y-128730952D01*
X135644071Y-128683333D01*
X135834547Y-128683333D01*
X135929785Y-128730952D01*
X135977404Y-128778571D01*
X136025023Y-128873809D01*
%TO.C,C12*%
X164471642Y-136644142D02*
X164519261Y-136596523D01*
X164566880Y-136453666D01*
X164566880Y-136358428D01*
X164519261Y-136215571D01*
X164424023Y-136120333D01*
X164328785Y-136072714D01*
X164138309Y-136025095D01*
X163995452Y-136025095D01*
X163804976Y-136072714D01*
X163709738Y-136120333D01*
X163614500Y-136215571D01*
X163566880Y-136358428D01*
X163566880Y-136453666D01*
X163614500Y-136596523D01*
X163662119Y-136644142D01*
X164566880Y-137596523D02*
X164566880Y-137025095D01*
X164566880Y-137310809D02*
X163566880Y-137310809D01*
X163709738Y-137215571D01*
X163804976Y-137120333D01*
X163852595Y-137025095D01*
X163662119Y-137977476D02*
X163614500Y-138025095D01*
X163566880Y-138120333D01*
X163566880Y-138358428D01*
X163614500Y-138453666D01*
X163662119Y-138501285D01*
X163757357Y-138548904D01*
X163852595Y-138548904D01*
X163995452Y-138501285D01*
X164566880Y-137929857D01*
X164566880Y-138548904D01*
%TO.C,C5*%
X166249642Y-153630333D02*
X166297261Y-153582714D01*
X166344880Y-153439857D01*
X166344880Y-153344619D01*
X166297261Y-153201761D01*
X166202023Y-153106523D01*
X166106785Y-153058904D01*
X165916309Y-153011285D01*
X165773452Y-153011285D01*
X165582976Y-153058904D01*
X165487738Y-153106523D01*
X165392500Y-153201761D01*
X165344880Y-153344619D01*
X165344880Y-153439857D01*
X165392500Y-153582714D01*
X165440119Y-153630333D01*
X165344880Y-154535095D02*
X165344880Y-154058904D01*
X165821071Y-154011285D01*
X165773452Y-154058904D01*
X165725833Y-154154142D01*
X165725833Y-154392238D01*
X165773452Y-154487476D01*
X165821071Y-154535095D01*
X165916309Y-154582714D01*
X166154404Y-154582714D01*
X166249642Y-154535095D01*
X166297261Y-154487476D01*
X166344880Y-154392238D01*
X166344880Y-154154142D01*
X166297261Y-154058904D01*
X166249642Y-154011285D01*
%TO.C,C4*%
X178919166Y-154806142D02*
X178966785Y-154853761D01*
X179109642Y-154901380D01*
X179204880Y-154901380D01*
X179347738Y-154853761D01*
X179442976Y-154758523D01*
X179490595Y-154663285D01*
X179538214Y-154472809D01*
X179538214Y-154329952D01*
X179490595Y-154139476D01*
X179442976Y-154044238D01*
X179347738Y-153949000D01*
X179204880Y-153901380D01*
X179109642Y-153901380D01*
X178966785Y-153949000D01*
X178919166Y-153996619D01*
X178062023Y-154234714D02*
X178062023Y-154901380D01*
X178300119Y-153853761D02*
X178538214Y-154568047D01*
X177919166Y-154568047D01*
%TO.C,C3*%
X178157166Y-160283142D02*
X178204785Y-160330761D01*
X178347642Y-160378380D01*
X178442880Y-160378380D01*
X178585738Y-160330761D01*
X178680976Y-160235523D01*
X178728595Y-160140285D01*
X178776214Y-159949809D01*
X178776214Y-159806952D01*
X178728595Y-159616476D01*
X178680976Y-159521238D01*
X178585738Y-159426000D01*
X178442880Y-159378380D01*
X178347642Y-159378380D01*
X178204785Y-159426000D01*
X178157166Y-159473619D01*
X177823833Y-159378380D02*
X177204785Y-159378380D01*
X177538119Y-159759333D01*
X177395261Y-159759333D01*
X177300023Y-159806952D01*
X177252404Y-159854571D01*
X177204785Y-159949809D01*
X177204785Y-160187904D01*
X177252404Y-160283142D01*
X177300023Y-160330761D01*
X177395261Y-160378380D01*
X177680976Y-160378380D01*
X177776214Y-160330761D01*
X177823833Y-160283142D01*
%TO.C,C2*%
X178919166Y-152520142D02*
X178966785Y-152567761D01*
X179109642Y-152615380D01*
X179204880Y-152615380D01*
X179347738Y-152567761D01*
X179442976Y-152472523D01*
X179490595Y-152377285D01*
X179538214Y-152186809D01*
X179538214Y-152043952D01*
X179490595Y-151853476D01*
X179442976Y-151758238D01*
X179347738Y-151663000D01*
X179204880Y-151615380D01*
X179109642Y-151615380D01*
X178966785Y-151663000D01*
X178919166Y-151710619D01*
X178538214Y-151710619D02*
X178490595Y-151663000D01*
X178395357Y-151615380D01*
X178157261Y-151615380D01*
X178062023Y-151663000D01*
X178014404Y-151710619D01*
X177966785Y-151805857D01*
X177966785Y-151901095D01*
X178014404Y-152043952D01*
X178585833Y-152615380D01*
X177966785Y-152615380D01*
%TO.C,C1*%
X182729166Y-156368142D02*
X182776785Y-156415761D01*
X182919642Y-156463380D01*
X183014880Y-156463380D01*
X183157738Y-156415761D01*
X183252976Y-156320523D01*
X183300595Y-156225285D01*
X183348214Y-156034809D01*
X183348214Y-155891952D01*
X183300595Y-155701476D01*
X183252976Y-155606238D01*
X183157738Y-155511000D01*
X183014880Y-155463380D01*
X182919642Y-155463380D01*
X182776785Y-155511000D01*
X182729166Y-155558619D01*
X181776785Y-156463380D02*
X182348214Y-156463380D01*
X182062500Y-156463380D02*
X182062500Y-155463380D01*
X182157738Y-155606238D01*
X182252976Y-155701476D01*
X182348214Y-155749095D01*
%TD*%
%LPC*%
%TO.C,R60*%
G36*
G01*
X158808000Y-88005499D02*
X158808000Y-88905501D01*
G75*
G02*
X158558001Y-89155500I-249999J0D01*
G01*
X157907999Y-89155500D01*
G75*
G02*
X157658000Y-88905501I0J249999D01*
G01*
X157658000Y-88005499D01*
G75*
G02*
X157907999Y-87755500I249999J0D01*
G01*
X158558001Y-87755500D01*
G75*
G02*
X158808000Y-88005499I0J-249999D01*
G01*
G37*
G36*
G01*
X160858000Y-88005499D02*
X160858000Y-88905501D01*
G75*
G02*
X160608001Y-89155500I-249999J0D01*
G01*
X159957999Y-89155500D01*
G75*
G02*
X159708000Y-88905501I0J249999D01*
G01*
X159708000Y-88005499D01*
G75*
G02*
X159957999Y-87755500I249999J0D01*
G01*
X160608001Y-87755500D01*
G75*
G02*
X160858000Y-88005499I0J-249999D01*
G01*
G37*
%TD*%
%TO.C,C22*%
G36*
G01*
X142828000Y-122499000D02*
X143303000Y-122499000D01*
G75*
G02*
X143540500Y-122736500I0J-237500D01*
G01*
X143540500Y-123336500D01*
G75*
G02*
X143303000Y-123574000I-237500J0D01*
G01*
X142828000Y-123574000D01*
G75*
G02*
X142590500Y-123336500I0J237500D01*
G01*
X142590500Y-122736500D01*
G75*
G02*
X142828000Y-122499000I237500J0D01*
G01*
G37*
G36*
G01*
X142828000Y-120774000D02*
X143303000Y-120774000D01*
G75*
G02*
X143540500Y-121011500I0J-237500D01*
G01*
X143540500Y-121611500D01*
G75*
G02*
X143303000Y-121849000I-237500J0D01*
G01*
X142828000Y-121849000D01*
G75*
G02*
X142590500Y-121611500I0J237500D01*
G01*
X142590500Y-121011500D01*
G75*
G02*
X142828000Y-120774000I237500J0D01*
G01*
G37*
%TD*%
D12*
%TO.C,J17*%
X186722500Y-148601000D03*
X198762500Y-148601000D03*
D13*
X193992500Y-145891000D03*
X191492500Y-145891000D03*
X191492500Y-143891000D03*
D14*
X193992500Y-143891000D03*
%TD*%
D12*
%TO.C,J3*%
X167418500Y-148601000D03*
X179458500Y-148601000D03*
D13*
X174688500Y-145891000D03*
X172188500Y-145891000D03*
X172188500Y-143891000D03*
D14*
X174688500Y-143891000D03*
%TD*%
D15*
%TO.C,U7*%
X156527500Y-65786000D03*
X158178500Y-64516000D03*
X158178500Y-67056000D03*
D16*
X140398500Y-69596000D03*
D15*
X142938500Y-69596000D03*
X145478500Y-69596000D03*
X148018500Y-69596000D03*
X150558500Y-69596000D03*
X153098500Y-69596000D03*
X155638500Y-69596000D03*
X158178500Y-69596000D03*
X158178500Y-56896000D03*
X155638500Y-56896000D03*
X153098500Y-56896000D03*
X150558500Y-56896000D03*
X148018500Y-56896000D03*
X145478500Y-56896000D03*
X142938500Y-56896000D03*
X140398500Y-56896000D03*
%TD*%
%TO.C,U5*%
X98361500Y-65786000D03*
X100012500Y-64516000D03*
X100012500Y-67056000D03*
D16*
X82232500Y-69596000D03*
D15*
X84772500Y-69596000D03*
X87312500Y-69596000D03*
X89852500Y-69596000D03*
X92392500Y-69596000D03*
X94932500Y-69596000D03*
X97472500Y-69596000D03*
X100012500Y-69596000D03*
X100012500Y-56896000D03*
X97472500Y-56896000D03*
X94932500Y-56896000D03*
X92392500Y-56896000D03*
X89852500Y-56896000D03*
X87312500Y-56896000D03*
X84772500Y-56896000D03*
X82232500Y-56896000D03*
%TD*%
D17*
%TO.C,HS1*%
X97176500Y-37781000D03*
X97176500Y-89981000D03*
X187176500Y-37781000D03*
X187176500Y-89981000D03*
X142176500Y-37781000D03*
X142176500Y-89981000D03*
%TD*%
D18*
%TO.C,J5*%
X81978500Y-91313000D03*
X81978500Y-87503000D03*
X81978500Y-83693000D03*
G36*
G01*
X80428500Y-78983000D02*
X83528500Y-78983000D01*
G75*
G02*
X83778500Y-79233000I0J-250000D01*
G01*
X83778500Y-80533000D01*
G75*
G02*
X83528500Y-80783000I-250000J0D01*
G01*
X80428500Y-80783000D01*
G75*
G02*
X80178500Y-80533000I0J250000D01*
G01*
X80178500Y-79233000D01*
G75*
G02*
X80428500Y-78983000I250000J0D01*
G01*
G37*
%TD*%
D19*
%TO.C,U15*%
X200215500Y-138303000D03*
X207835500Y-130683000D03*
X200215500Y-135763000D03*
X207835500Y-133223000D03*
X200215500Y-133223000D03*
X207835500Y-135763000D03*
X200215500Y-130683000D03*
D20*
X207835500Y-138303000D03*
%TD*%
D15*
%TO.C,U8*%
X185991500Y-65786000D03*
X187642500Y-64516000D03*
X187642500Y-67056000D03*
D16*
X169862500Y-69596000D03*
D15*
X172402500Y-69596000D03*
X174942500Y-69596000D03*
X177482500Y-69596000D03*
X180022500Y-69596000D03*
X182562500Y-69596000D03*
X185102500Y-69596000D03*
X187642500Y-69596000D03*
X187642500Y-56896000D03*
X185102500Y-56896000D03*
X182562500Y-56896000D03*
X180022500Y-56896000D03*
X177482500Y-56896000D03*
X174942500Y-56896000D03*
X172402500Y-56896000D03*
X169862500Y-56896000D03*
%TD*%
%TO.C,U6*%
X127317500Y-65786000D03*
X128968500Y-64516000D03*
X128968500Y-67056000D03*
D16*
X111188500Y-69596000D03*
D15*
X113728500Y-69596000D03*
X116268500Y-69596000D03*
X118808500Y-69596000D03*
X121348500Y-69596000D03*
X123888500Y-69596000D03*
X126428500Y-69596000D03*
X128968500Y-69596000D03*
X128968500Y-56896000D03*
X126428500Y-56896000D03*
X123888500Y-56896000D03*
X121348500Y-56896000D03*
X118808500Y-56896000D03*
X116268500Y-56896000D03*
X113728500Y-56896000D03*
X111188500Y-56896000D03*
%TD*%
D21*
%TO.C,Y2*%
X161279500Y-78287500D03*
X158379500Y-78287500D03*
X158379500Y-80462500D03*
X161279500Y-80462500D03*
%TD*%
%TO.C,U29*%
G36*
G01*
X154344500Y-92352000D02*
X154344500Y-92052000D01*
G75*
G02*
X154494500Y-91902000I150000J0D01*
G01*
X156144500Y-91902000D01*
G75*
G02*
X156294500Y-92052000I0J-150000D01*
G01*
X156294500Y-92352000D01*
G75*
G02*
X156144500Y-92502000I-150000J0D01*
G01*
X154494500Y-92502000D01*
G75*
G02*
X154344500Y-92352000I0J150000D01*
G01*
G37*
G36*
G01*
X154344500Y-91082000D02*
X154344500Y-90782000D01*
G75*
G02*
X154494500Y-90632000I150000J0D01*
G01*
X156144500Y-90632000D01*
G75*
G02*
X156294500Y-90782000I0J-150000D01*
G01*
X156294500Y-91082000D01*
G75*
G02*
X156144500Y-91232000I-150000J0D01*
G01*
X154494500Y-91232000D01*
G75*
G02*
X154344500Y-91082000I0J150000D01*
G01*
G37*
G36*
G01*
X154344500Y-89812000D02*
X154344500Y-89512000D01*
G75*
G02*
X154494500Y-89362000I150000J0D01*
G01*
X156144500Y-89362000D01*
G75*
G02*
X156294500Y-89512000I0J-150000D01*
G01*
X156294500Y-89812000D01*
G75*
G02*
X156144500Y-89962000I-150000J0D01*
G01*
X154494500Y-89962000D01*
G75*
G02*
X154344500Y-89812000I0J150000D01*
G01*
G37*
G36*
G01*
X154344500Y-88542000D02*
X154344500Y-88242000D01*
G75*
G02*
X154494500Y-88092000I150000J0D01*
G01*
X156144500Y-88092000D01*
G75*
G02*
X156294500Y-88242000I0J-150000D01*
G01*
X156294500Y-88542000D01*
G75*
G02*
X156144500Y-88692000I-150000J0D01*
G01*
X154494500Y-88692000D01*
G75*
G02*
X154344500Y-88542000I0J150000D01*
G01*
G37*
G36*
G01*
X154344500Y-87272000D02*
X154344500Y-86972000D01*
G75*
G02*
X154494500Y-86822000I150000J0D01*
G01*
X156144500Y-86822000D01*
G75*
G02*
X156294500Y-86972000I0J-150000D01*
G01*
X156294500Y-87272000D01*
G75*
G02*
X156144500Y-87422000I-150000J0D01*
G01*
X154494500Y-87422000D01*
G75*
G02*
X154344500Y-87272000I0J150000D01*
G01*
G37*
G36*
G01*
X154344500Y-86002000D02*
X154344500Y-85702000D01*
G75*
G02*
X154494500Y-85552000I150000J0D01*
G01*
X156144500Y-85552000D01*
G75*
G02*
X156294500Y-85702000I0J-150000D01*
G01*
X156294500Y-86002000D01*
G75*
G02*
X156144500Y-86152000I-150000J0D01*
G01*
X154494500Y-86152000D01*
G75*
G02*
X154344500Y-86002000I0J150000D01*
G01*
G37*
G36*
G01*
X154344500Y-84732000D02*
X154344500Y-84432000D01*
G75*
G02*
X154494500Y-84282000I150000J0D01*
G01*
X156144500Y-84282000D01*
G75*
G02*
X156294500Y-84432000I0J-150000D01*
G01*
X156294500Y-84732000D01*
G75*
G02*
X156144500Y-84882000I-150000J0D01*
G01*
X154494500Y-84882000D01*
G75*
G02*
X154344500Y-84732000I0J150000D01*
G01*
G37*
G36*
G01*
X154344500Y-83462000D02*
X154344500Y-83162000D01*
G75*
G02*
X154494500Y-83012000I150000J0D01*
G01*
X156144500Y-83012000D01*
G75*
G02*
X156294500Y-83162000I0J-150000D01*
G01*
X156294500Y-83462000D01*
G75*
G02*
X156144500Y-83612000I-150000J0D01*
G01*
X154494500Y-83612000D01*
G75*
G02*
X154344500Y-83462000I0J150000D01*
G01*
G37*
G36*
G01*
X149394500Y-83462000D02*
X149394500Y-83162000D01*
G75*
G02*
X149544500Y-83012000I150000J0D01*
G01*
X151194500Y-83012000D01*
G75*
G02*
X151344500Y-83162000I0J-150000D01*
G01*
X151344500Y-83462000D01*
G75*
G02*
X151194500Y-83612000I-150000J0D01*
G01*
X149544500Y-83612000D01*
G75*
G02*
X149394500Y-83462000I0J150000D01*
G01*
G37*
G36*
G01*
X149394500Y-84732000D02*
X149394500Y-84432000D01*
G75*
G02*
X149544500Y-84282000I150000J0D01*
G01*
X151194500Y-84282000D01*
G75*
G02*
X151344500Y-84432000I0J-150000D01*
G01*
X151344500Y-84732000D01*
G75*
G02*
X151194500Y-84882000I-150000J0D01*
G01*
X149544500Y-84882000D01*
G75*
G02*
X149394500Y-84732000I0J150000D01*
G01*
G37*
G36*
G01*
X149394500Y-86002000D02*
X149394500Y-85702000D01*
G75*
G02*
X149544500Y-85552000I150000J0D01*
G01*
X151194500Y-85552000D01*
G75*
G02*
X151344500Y-85702000I0J-150000D01*
G01*
X151344500Y-86002000D01*
G75*
G02*
X151194500Y-86152000I-150000J0D01*
G01*
X149544500Y-86152000D01*
G75*
G02*
X149394500Y-86002000I0J150000D01*
G01*
G37*
G36*
G01*
X149394500Y-87272000D02*
X149394500Y-86972000D01*
G75*
G02*
X149544500Y-86822000I150000J0D01*
G01*
X151194500Y-86822000D01*
G75*
G02*
X151344500Y-86972000I0J-150000D01*
G01*
X151344500Y-87272000D01*
G75*
G02*
X151194500Y-87422000I-150000J0D01*
G01*
X149544500Y-87422000D01*
G75*
G02*
X149394500Y-87272000I0J150000D01*
G01*
G37*
G36*
G01*
X149394500Y-88542000D02*
X149394500Y-88242000D01*
G75*
G02*
X149544500Y-88092000I150000J0D01*
G01*
X151194500Y-88092000D01*
G75*
G02*
X151344500Y-88242000I0J-150000D01*
G01*
X151344500Y-88542000D01*
G75*
G02*
X151194500Y-88692000I-150000J0D01*
G01*
X149544500Y-88692000D01*
G75*
G02*
X149394500Y-88542000I0J150000D01*
G01*
G37*
G36*
G01*
X149394500Y-89812000D02*
X149394500Y-89512000D01*
G75*
G02*
X149544500Y-89362000I150000J0D01*
G01*
X151194500Y-89362000D01*
G75*
G02*
X151344500Y-89512000I0J-150000D01*
G01*
X151344500Y-89812000D01*
G75*
G02*
X151194500Y-89962000I-150000J0D01*
G01*
X149544500Y-89962000D01*
G75*
G02*
X149394500Y-89812000I0J150000D01*
G01*
G37*
G36*
G01*
X149394500Y-91082000D02*
X149394500Y-90782000D01*
G75*
G02*
X149544500Y-90632000I150000J0D01*
G01*
X151194500Y-90632000D01*
G75*
G02*
X151344500Y-90782000I0J-150000D01*
G01*
X151344500Y-91082000D01*
G75*
G02*
X151194500Y-91232000I-150000J0D01*
G01*
X149544500Y-91232000D01*
G75*
G02*
X149394500Y-91082000I0J150000D01*
G01*
G37*
G36*
G01*
X149394500Y-92352000D02*
X149394500Y-92052000D01*
G75*
G02*
X149544500Y-91902000I150000J0D01*
G01*
X151194500Y-91902000D01*
G75*
G02*
X151344500Y-92052000I0J-150000D01*
G01*
X151344500Y-92352000D01*
G75*
G02*
X151194500Y-92502000I-150000J0D01*
G01*
X149544500Y-92502000D01*
G75*
G02*
X149394500Y-92352000I0J150000D01*
G01*
G37*
%TD*%
D22*
%TO.C,U28*%
X167697500Y-87689000D03*
X168497500Y-87689000D03*
X169297500Y-87689000D03*
X170097500Y-87689000D03*
X170897500Y-87689000D03*
X171697500Y-87689000D03*
X172497500Y-87689000D03*
X173297500Y-87689000D03*
D23*
X174747500Y-86239000D03*
X174747500Y-85439000D03*
X174747500Y-84639000D03*
X174747500Y-83839000D03*
X174747500Y-83039000D03*
X174747500Y-82239000D03*
X174747500Y-81439000D03*
X174747500Y-80639000D03*
D22*
X173297500Y-79189000D03*
X172497500Y-79189000D03*
X171697500Y-79189000D03*
X170897500Y-79189000D03*
X170097500Y-79189000D03*
X169297500Y-79189000D03*
X168497500Y-79189000D03*
X167697500Y-79189000D03*
D23*
X166247500Y-80639000D03*
X166247500Y-81439000D03*
X166247500Y-82239000D03*
X166247500Y-83039000D03*
X166247500Y-83839000D03*
X166247500Y-84639000D03*
X166247500Y-85439000D03*
X166247500Y-86239000D03*
%TD*%
%TO.C,U27*%
G36*
G01*
X129644000Y-98210500D02*
X129944000Y-98210500D01*
G75*
G02*
X130094000Y-98360500I0J-150000D01*
G01*
X130094000Y-100010500D01*
G75*
G02*
X129944000Y-100160500I-150000J0D01*
G01*
X129644000Y-100160500D01*
G75*
G02*
X129494000Y-100010500I0J150000D01*
G01*
X129494000Y-98360500D01*
G75*
G02*
X129644000Y-98210500I150000J0D01*
G01*
G37*
G36*
G01*
X130914000Y-98210500D02*
X131214000Y-98210500D01*
G75*
G02*
X131364000Y-98360500I0J-150000D01*
G01*
X131364000Y-100010500D01*
G75*
G02*
X131214000Y-100160500I-150000J0D01*
G01*
X130914000Y-100160500D01*
G75*
G02*
X130764000Y-100010500I0J150000D01*
G01*
X130764000Y-98360500D01*
G75*
G02*
X130914000Y-98210500I150000J0D01*
G01*
G37*
G36*
G01*
X132184000Y-98210500D02*
X132484000Y-98210500D01*
G75*
G02*
X132634000Y-98360500I0J-150000D01*
G01*
X132634000Y-100010500D01*
G75*
G02*
X132484000Y-100160500I-150000J0D01*
G01*
X132184000Y-100160500D01*
G75*
G02*
X132034000Y-100010500I0J150000D01*
G01*
X132034000Y-98360500D01*
G75*
G02*
X132184000Y-98210500I150000J0D01*
G01*
G37*
G36*
G01*
X133454000Y-98210500D02*
X133754000Y-98210500D01*
G75*
G02*
X133904000Y-98360500I0J-150000D01*
G01*
X133904000Y-100010500D01*
G75*
G02*
X133754000Y-100160500I-150000J0D01*
G01*
X133454000Y-100160500D01*
G75*
G02*
X133304000Y-100010500I0J150000D01*
G01*
X133304000Y-98360500D01*
G75*
G02*
X133454000Y-98210500I150000J0D01*
G01*
G37*
G36*
G01*
X134724000Y-98210500D02*
X135024000Y-98210500D01*
G75*
G02*
X135174000Y-98360500I0J-150000D01*
G01*
X135174000Y-100010500D01*
G75*
G02*
X135024000Y-100160500I-150000J0D01*
G01*
X134724000Y-100160500D01*
G75*
G02*
X134574000Y-100010500I0J150000D01*
G01*
X134574000Y-98360500D01*
G75*
G02*
X134724000Y-98210500I150000J0D01*
G01*
G37*
G36*
G01*
X135994000Y-98210500D02*
X136294000Y-98210500D01*
G75*
G02*
X136444000Y-98360500I0J-150000D01*
G01*
X136444000Y-100010500D01*
G75*
G02*
X136294000Y-100160500I-150000J0D01*
G01*
X135994000Y-100160500D01*
G75*
G02*
X135844000Y-100010500I0J150000D01*
G01*
X135844000Y-98360500D01*
G75*
G02*
X135994000Y-98210500I150000J0D01*
G01*
G37*
G36*
G01*
X137264000Y-98210500D02*
X137564000Y-98210500D01*
G75*
G02*
X137714000Y-98360500I0J-150000D01*
G01*
X137714000Y-100010500D01*
G75*
G02*
X137564000Y-100160500I-150000J0D01*
G01*
X137264000Y-100160500D01*
G75*
G02*
X137114000Y-100010500I0J150000D01*
G01*
X137114000Y-98360500D01*
G75*
G02*
X137264000Y-98210500I150000J0D01*
G01*
G37*
G36*
G01*
X138534000Y-98210500D02*
X138834000Y-98210500D01*
G75*
G02*
X138984000Y-98360500I0J-150000D01*
G01*
X138984000Y-100010500D01*
G75*
G02*
X138834000Y-100160500I-150000J0D01*
G01*
X138534000Y-100160500D01*
G75*
G02*
X138384000Y-100010500I0J150000D01*
G01*
X138384000Y-98360500D01*
G75*
G02*
X138534000Y-98210500I150000J0D01*
G01*
G37*
G36*
G01*
X138534000Y-93260500D02*
X138834000Y-93260500D01*
G75*
G02*
X138984000Y-93410500I0J-150000D01*
G01*
X138984000Y-95060500D01*
G75*
G02*
X138834000Y-95210500I-150000J0D01*
G01*
X138534000Y-95210500D01*
G75*
G02*
X138384000Y-95060500I0J150000D01*
G01*
X138384000Y-93410500D01*
G75*
G02*
X138534000Y-93260500I150000J0D01*
G01*
G37*
G36*
G01*
X137264000Y-93260500D02*
X137564000Y-93260500D01*
G75*
G02*
X137714000Y-93410500I0J-150000D01*
G01*
X137714000Y-95060500D01*
G75*
G02*
X137564000Y-95210500I-150000J0D01*
G01*
X137264000Y-95210500D01*
G75*
G02*
X137114000Y-95060500I0J150000D01*
G01*
X137114000Y-93410500D01*
G75*
G02*
X137264000Y-93260500I150000J0D01*
G01*
G37*
G36*
G01*
X135994000Y-93260500D02*
X136294000Y-93260500D01*
G75*
G02*
X136444000Y-93410500I0J-150000D01*
G01*
X136444000Y-95060500D01*
G75*
G02*
X136294000Y-95210500I-150000J0D01*
G01*
X135994000Y-95210500D01*
G75*
G02*
X135844000Y-95060500I0J150000D01*
G01*
X135844000Y-93410500D01*
G75*
G02*
X135994000Y-93260500I150000J0D01*
G01*
G37*
G36*
G01*
X134724000Y-93260500D02*
X135024000Y-93260500D01*
G75*
G02*
X135174000Y-93410500I0J-150000D01*
G01*
X135174000Y-95060500D01*
G75*
G02*
X135024000Y-95210500I-150000J0D01*
G01*
X134724000Y-95210500D01*
G75*
G02*
X134574000Y-95060500I0J150000D01*
G01*
X134574000Y-93410500D01*
G75*
G02*
X134724000Y-93260500I150000J0D01*
G01*
G37*
G36*
G01*
X133454000Y-93260500D02*
X133754000Y-93260500D01*
G75*
G02*
X133904000Y-93410500I0J-150000D01*
G01*
X133904000Y-95060500D01*
G75*
G02*
X133754000Y-95210500I-150000J0D01*
G01*
X133454000Y-95210500D01*
G75*
G02*
X133304000Y-95060500I0J150000D01*
G01*
X133304000Y-93410500D01*
G75*
G02*
X133454000Y-93260500I150000J0D01*
G01*
G37*
G36*
G01*
X132184000Y-93260500D02*
X132484000Y-93260500D01*
G75*
G02*
X132634000Y-93410500I0J-150000D01*
G01*
X132634000Y-95060500D01*
G75*
G02*
X132484000Y-95210500I-150000J0D01*
G01*
X132184000Y-95210500D01*
G75*
G02*
X132034000Y-95060500I0J150000D01*
G01*
X132034000Y-93410500D01*
G75*
G02*
X132184000Y-93260500I150000J0D01*
G01*
G37*
G36*
G01*
X130914000Y-93260500D02*
X131214000Y-93260500D01*
G75*
G02*
X131364000Y-93410500I0J-150000D01*
G01*
X131364000Y-95060500D01*
G75*
G02*
X131214000Y-95210500I-150000J0D01*
G01*
X130914000Y-95210500D01*
G75*
G02*
X130764000Y-95060500I0J150000D01*
G01*
X130764000Y-93410500D01*
G75*
G02*
X130914000Y-93260500I150000J0D01*
G01*
G37*
G36*
G01*
X129644000Y-93260500D02*
X129944000Y-93260500D01*
G75*
G02*
X130094000Y-93410500I0J-150000D01*
G01*
X130094000Y-95060500D01*
G75*
G02*
X129944000Y-95210500I-150000J0D01*
G01*
X129644000Y-95210500D01*
G75*
G02*
X129494000Y-95060500I0J150000D01*
G01*
X129494000Y-93410500D01*
G75*
G02*
X129644000Y-93260500I150000J0D01*
G01*
G37*
%TD*%
%TO.C,U26*%
G36*
G01*
X134602000Y-107471500D02*
X134802000Y-107471500D01*
G75*
G02*
X134902000Y-107571500I0J-100000D01*
G01*
X134902000Y-108846500D01*
G75*
G02*
X134802000Y-108946500I-100000J0D01*
G01*
X134602000Y-108946500D01*
G75*
G02*
X134502000Y-108846500I0J100000D01*
G01*
X134502000Y-107571500D01*
G75*
G02*
X134602000Y-107471500I100000J0D01*
G01*
G37*
G36*
G01*
X135252000Y-107471500D02*
X135452000Y-107471500D01*
G75*
G02*
X135552000Y-107571500I0J-100000D01*
G01*
X135552000Y-108846500D01*
G75*
G02*
X135452000Y-108946500I-100000J0D01*
G01*
X135252000Y-108946500D01*
G75*
G02*
X135152000Y-108846500I0J100000D01*
G01*
X135152000Y-107571500D01*
G75*
G02*
X135252000Y-107471500I100000J0D01*
G01*
G37*
G36*
G01*
X135902000Y-107471500D02*
X136102000Y-107471500D01*
G75*
G02*
X136202000Y-107571500I0J-100000D01*
G01*
X136202000Y-108846500D01*
G75*
G02*
X136102000Y-108946500I-100000J0D01*
G01*
X135902000Y-108946500D01*
G75*
G02*
X135802000Y-108846500I0J100000D01*
G01*
X135802000Y-107571500D01*
G75*
G02*
X135902000Y-107471500I100000J0D01*
G01*
G37*
G36*
G01*
X136552000Y-107471500D02*
X136752000Y-107471500D01*
G75*
G02*
X136852000Y-107571500I0J-100000D01*
G01*
X136852000Y-108846500D01*
G75*
G02*
X136752000Y-108946500I-100000J0D01*
G01*
X136552000Y-108946500D01*
G75*
G02*
X136452000Y-108846500I0J100000D01*
G01*
X136452000Y-107571500D01*
G75*
G02*
X136552000Y-107471500I100000J0D01*
G01*
G37*
G36*
G01*
X137202000Y-107471500D02*
X137402000Y-107471500D01*
G75*
G02*
X137502000Y-107571500I0J-100000D01*
G01*
X137502000Y-108846500D01*
G75*
G02*
X137402000Y-108946500I-100000J0D01*
G01*
X137202000Y-108946500D01*
G75*
G02*
X137102000Y-108846500I0J100000D01*
G01*
X137102000Y-107571500D01*
G75*
G02*
X137202000Y-107471500I100000J0D01*
G01*
G37*
G36*
G01*
X137852000Y-107471500D02*
X138052000Y-107471500D01*
G75*
G02*
X138152000Y-107571500I0J-100000D01*
G01*
X138152000Y-108846500D01*
G75*
G02*
X138052000Y-108946500I-100000J0D01*
G01*
X137852000Y-108946500D01*
G75*
G02*
X137752000Y-108846500I0J100000D01*
G01*
X137752000Y-107571500D01*
G75*
G02*
X137852000Y-107471500I100000J0D01*
G01*
G37*
G36*
G01*
X138502000Y-107471500D02*
X138702000Y-107471500D01*
G75*
G02*
X138802000Y-107571500I0J-100000D01*
G01*
X138802000Y-108846500D01*
G75*
G02*
X138702000Y-108946500I-100000J0D01*
G01*
X138502000Y-108946500D01*
G75*
G02*
X138402000Y-108846500I0J100000D01*
G01*
X138402000Y-107571500D01*
G75*
G02*
X138502000Y-107471500I100000J0D01*
G01*
G37*
G36*
G01*
X138502000Y-101746500D02*
X138702000Y-101746500D01*
G75*
G02*
X138802000Y-101846500I0J-100000D01*
G01*
X138802000Y-103121500D01*
G75*
G02*
X138702000Y-103221500I-100000J0D01*
G01*
X138502000Y-103221500D01*
G75*
G02*
X138402000Y-103121500I0J100000D01*
G01*
X138402000Y-101846500D01*
G75*
G02*
X138502000Y-101746500I100000J0D01*
G01*
G37*
G36*
G01*
X137852000Y-101746500D02*
X138052000Y-101746500D01*
G75*
G02*
X138152000Y-101846500I0J-100000D01*
G01*
X138152000Y-103121500D01*
G75*
G02*
X138052000Y-103221500I-100000J0D01*
G01*
X137852000Y-103221500D01*
G75*
G02*
X137752000Y-103121500I0J100000D01*
G01*
X137752000Y-101846500D01*
G75*
G02*
X137852000Y-101746500I100000J0D01*
G01*
G37*
G36*
G01*
X137202000Y-101746500D02*
X137402000Y-101746500D01*
G75*
G02*
X137502000Y-101846500I0J-100000D01*
G01*
X137502000Y-103121500D01*
G75*
G02*
X137402000Y-103221500I-100000J0D01*
G01*
X137202000Y-103221500D01*
G75*
G02*
X137102000Y-103121500I0J100000D01*
G01*
X137102000Y-101846500D01*
G75*
G02*
X137202000Y-101746500I100000J0D01*
G01*
G37*
G36*
G01*
X136552000Y-101746500D02*
X136752000Y-101746500D01*
G75*
G02*
X136852000Y-101846500I0J-100000D01*
G01*
X136852000Y-103121500D01*
G75*
G02*
X136752000Y-103221500I-100000J0D01*
G01*
X136552000Y-103221500D01*
G75*
G02*
X136452000Y-103121500I0J100000D01*
G01*
X136452000Y-101846500D01*
G75*
G02*
X136552000Y-101746500I100000J0D01*
G01*
G37*
G36*
G01*
X135902000Y-101746500D02*
X136102000Y-101746500D01*
G75*
G02*
X136202000Y-101846500I0J-100000D01*
G01*
X136202000Y-103121500D01*
G75*
G02*
X136102000Y-103221500I-100000J0D01*
G01*
X135902000Y-103221500D01*
G75*
G02*
X135802000Y-103121500I0J100000D01*
G01*
X135802000Y-101846500D01*
G75*
G02*
X135902000Y-101746500I100000J0D01*
G01*
G37*
G36*
G01*
X135252000Y-101746500D02*
X135452000Y-101746500D01*
G75*
G02*
X135552000Y-101846500I0J-100000D01*
G01*
X135552000Y-103121500D01*
G75*
G02*
X135452000Y-103221500I-100000J0D01*
G01*
X135252000Y-103221500D01*
G75*
G02*
X135152000Y-103121500I0J100000D01*
G01*
X135152000Y-101846500D01*
G75*
G02*
X135252000Y-101746500I100000J0D01*
G01*
G37*
G36*
G01*
X134602000Y-101746500D02*
X134802000Y-101746500D01*
G75*
G02*
X134902000Y-101846500I0J-100000D01*
G01*
X134902000Y-103121500D01*
G75*
G02*
X134802000Y-103221500I-100000J0D01*
G01*
X134602000Y-103221500D01*
G75*
G02*
X134502000Y-103121500I0J100000D01*
G01*
X134502000Y-101846500D01*
G75*
G02*
X134602000Y-101746500I100000J0D01*
G01*
G37*
%TD*%
D24*
%TO.C,U25*%
X195068500Y-156146500D03*
X195068500Y-155511500D03*
X195068500Y-154876500D03*
X195068500Y-154241500D03*
X195068500Y-153606500D03*
X195068500Y-152971500D03*
X195068500Y-152336500D03*
X195068500Y-151701500D03*
X195068500Y-151066500D03*
X195068500Y-150431500D03*
X189868500Y-150431500D03*
X189868500Y-151066500D03*
X189868500Y-151701500D03*
X189868500Y-152336500D03*
X189868500Y-152971500D03*
X189868500Y-153606500D03*
X189868500Y-154241500D03*
X189868500Y-154876500D03*
X189868500Y-155511500D03*
X189868500Y-156146500D03*
%TD*%
D25*
%TO.C,U24*%
X123961500Y-115443000D03*
D26*
X114811500Y-112903000D03*
X114811500Y-117983000D03*
%TD*%
D19*
%TO.C,U20*%
X125031500Y-128016000D03*
X132651500Y-135636000D03*
X127571500Y-128016000D03*
X130111500Y-135636000D03*
X130111500Y-128016000D03*
X127571500Y-135636000D03*
X132651500Y-128016000D03*
D20*
X125031500Y-135636000D03*
%TD*%
D19*
%TO.C,U19*%
X87058500Y-132715000D03*
X94678500Y-125095000D03*
X87058500Y-130175000D03*
X94678500Y-127635000D03*
X87058500Y-127635000D03*
X94678500Y-130175000D03*
X87058500Y-125095000D03*
D20*
X94678500Y-132715000D03*
%TD*%
D19*
%TO.C,U18*%
X87058500Y-120523000D03*
X94678500Y-112903000D03*
X87058500Y-117983000D03*
X94678500Y-115443000D03*
X87058500Y-115443000D03*
X94678500Y-117983000D03*
X87058500Y-112903000D03*
D20*
X94678500Y-120523000D03*
%TD*%
D19*
%TO.C,U17*%
X187325000Y-125603000D03*
X194945000Y-117983000D03*
X187325000Y-123063000D03*
X194945000Y-120523000D03*
X187325000Y-120523000D03*
X194945000Y-123063000D03*
X187325000Y-117983000D03*
D20*
X194945000Y-125603000D03*
%TD*%
D19*
%TO.C,U16*%
X200215500Y-125730000D03*
X207835500Y-118110000D03*
X200215500Y-123190000D03*
X207835500Y-120650000D03*
X200215500Y-120650000D03*
X207835500Y-123190000D03*
X200215500Y-118110000D03*
D20*
X207835500Y-125730000D03*
%TD*%
D19*
%TO.C,U14*%
X187325000Y-138303000D03*
X194945000Y-130683000D03*
X187325000Y-135763000D03*
X194945000Y-133223000D03*
X187325000Y-133223000D03*
X194945000Y-135763000D03*
X187325000Y-130683000D03*
D20*
X194945000Y-138303000D03*
%TD*%
D19*
%TO.C,U13*%
X116268500Y-139192000D03*
X123888500Y-146812000D03*
X118808500Y-139192000D03*
X121348500Y-146812000D03*
X121348500Y-139192000D03*
X118808500Y-146812000D03*
X123888500Y-139192000D03*
D20*
X116268500Y-146812000D03*
%TD*%
D19*
%TO.C,U12*%
X103822500Y-139192000D03*
X111442500Y-146812000D03*
X106362500Y-139192000D03*
X108902500Y-146812000D03*
X108902500Y-139192000D03*
X106362500Y-146812000D03*
X111442500Y-139192000D03*
D20*
X103822500Y-146812000D03*
%TD*%
D19*
%TO.C,U11*%
X128714500Y-139192000D03*
X136334500Y-146812000D03*
X131254500Y-139192000D03*
X133794500Y-146812000D03*
X133794500Y-139192000D03*
X131254500Y-146812000D03*
X136334500Y-139192000D03*
D20*
X128714500Y-146812000D03*
%TD*%
D19*
%TO.C,U10*%
X141160500Y-139192000D03*
X148780500Y-146812000D03*
X143700500Y-139192000D03*
X146240500Y-146812000D03*
X146240500Y-139192000D03*
X143700500Y-146812000D03*
X148780500Y-139192000D03*
D20*
X141160500Y-146812000D03*
%TD*%
D19*
%TO.C,U9*%
X153606500Y-139192000D03*
X161226500Y-146812000D03*
X156146500Y-139192000D03*
X158686500Y-146812000D03*
X158686500Y-139192000D03*
X156146500Y-146812000D03*
X161226500Y-139192000D03*
D20*
X153606500Y-146812000D03*
%TD*%
%TO.C,U3*%
G36*
G01*
X135415500Y-121607000D02*
X135415500Y-121807000D01*
G75*
G02*
X135315500Y-121907000I-100000J0D01*
G01*
X133890500Y-121907000D01*
G75*
G02*
X133790500Y-121807000I0J100000D01*
G01*
X133790500Y-121607000D01*
G75*
G02*
X133890500Y-121507000I100000J0D01*
G01*
X135315500Y-121507000D01*
G75*
G02*
X135415500Y-121607000I0J-100000D01*
G01*
G37*
G36*
G01*
X135415500Y-122257000D02*
X135415500Y-122457000D01*
G75*
G02*
X135315500Y-122557000I-100000J0D01*
G01*
X133890500Y-122557000D01*
G75*
G02*
X133790500Y-122457000I0J100000D01*
G01*
X133790500Y-122257000D01*
G75*
G02*
X133890500Y-122157000I100000J0D01*
G01*
X135315500Y-122157000D01*
G75*
G02*
X135415500Y-122257000I0J-100000D01*
G01*
G37*
G36*
G01*
X135415500Y-122907000D02*
X135415500Y-123107000D01*
G75*
G02*
X135315500Y-123207000I-100000J0D01*
G01*
X133890500Y-123207000D01*
G75*
G02*
X133790500Y-123107000I0J100000D01*
G01*
X133790500Y-122907000D01*
G75*
G02*
X133890500Y-122807000I100000J0D01*
G01*
X135315500Y-122807000D01*
G75*
G02*
X135415500Y-122907000I0J-100000D01*
G01*
G37*
G36*
G01*
X135415500Y-123557000D02*
X135415500Y-123757000D01*
G75*
G02*
X135315500Y-123857000I-100000J0D01*
G01*
X133890500Y-123857000D01*
G75*
G02*
X133790500Y-123757000I0J100000D01*
G01*
X133790500Y-123557000D01*
G75*
G02*
X133890500Y-123457000I100000J0D01*
G01*
X135315500Y-123457000D01*
G75*
G02*
X135415500Y-123557000I0J-100000D01*
G01*
G37*
G36*
G01*
X139640500Y-123557000D02*
X139640500Y-123757000D01*
G75*
G02*
X139540500Y-123857000I-100000J0D01*
G01*
X138115500Y-123857000D01*
G75*
G02*
X138015500Y-123757000I0J100000D01*
G01*
X138015500Y-123557000D01*
G75*
G02*
X138115500Y-123457000I100000J0D01*
G01*
X139540500Y-123457000D01*
G75*
G02*
X139640500Y-123557000I0J-100000D01*
G01*
G37*
G36*
G01*
X139640500Y-122907000D02*
X139640500Y-123107000D01*
G75*
G02*
X139540500Y-123207000I-100000J0D01*
G01*
X138115500Y-123207000D01*
G75*
G02*
X138015500Y-123107000I0J100000D01*
G01*
X138015500Y-122907000D01*
G75*
G02*
X138115500Y-122807000I100000J0D01*
G01*
X139540500Y-122807000D01*
G75*
G02*
X139640500Y-122907000I0J-100000D01*
G01*
G37*
G36*
G01*
X139640500Y-122257000D02*
X139640500Y-122457000D01*
G75*
G02*
X139540500Y-122557000I-100000J0D01*
G01*
X138115500Y-122557000D01*
G75*
G02*
X138015500Y-122457000I0J100000D01*
G01*
X138015500Y-122257000D01*
G75*
G02*
X138115500Y-122157000I100000J0D01*
G01*
X139540500Y-122157000D01*
G75*
G02*
X139640500Y-122257000I0J-100000D01*
G01*
G37*
G36*
G01*
X139640500Y-121607000D02*
X139640500Y-121807000D01*
G75*
G02*
X139540500Y-121907000I-100000J0D01*
G01*
X138115500Y-121907000D01*
G75*
G02*
X138015500Y-121807000I0J100000D01*
G01*
X138015500Y-121607000D01*
G75*
G02*
X138115500Y-121507000I100000J0D01*
G01*
X139540500Y-121507000D01*
G75*
G02*
X139640500Y-121607000I0J-100000D01*
G01*
G37*
%TD*%
D24*
%TO.C,U1*%
X175764500Y-155892500D03*
X175764500Y-155257500D03*
X175764500Y-154622500D03*
X175764500Y-153987500D03*
X175764500Y-153352500D03*
X175764500Y-152717500D03*
X175764500Y-152082500D03*
X175764500Y-151447500D03*
X175764500Y-150812500D03*
X175764500Y-150177500D03*
X170564500Y-150177500D03*
X170564500Y-150812500D03*
X170564500Y-151447500D03*
X170564500Y-152082500D03*
X170564500Y-152717500D03*
X170564500Y-153352500D03*
X170564500Y-153987500D03*
X170564500Y-154622500D03*
X170564500Y-155257500D03*
X170564500Y-155892500D03*
%TD*%
%TO.C,R63*%
G36*
G01*
X148510000Y-94444000D02*
X148035000Y-94444000D01*
G75*
G02*
X147797500Y-94206500I0J237500D01*
G01*
X147797500Y-93706500D01*
G75*
G02*
X148035000Y-93469000I237500J0D01*
G01*
X148510000Y-93469000D01*
G75*
G02*
X148747500Y-93706500I0J-237500D01*
G01*
X148747500Y-94206500D01*
G75*
G02*
X148510000Y-94444000I-237500J0D01*
G01*
G37*
G36*
G01*
X148510000Y-96269000D02*
X148035000Y-96269000D01*
G75*
G02*
X147797500Y-96031500I0J237500D01*
G01*
X147797500Y-95531500D01*
G75*
G02*
X148035000Y-95294000I237500J0D01*
G01*
X148510000Y-95294000D01*
G75*
G02*
X148747500Y-95531500I0J-237500D01*
G01*
X148747500Y-96031500D01*
G75*
G02*
X148510000Y-96269000I-237500J0D01*
G01*
G37*
%TD*%
%TO.C,R58*%
G36*
G01*
X129686500Y-103902500D02*
X129686500Y-104377500D01*
G75*
G02*
X129449000Y-104615000I-237500J0D01*
G01*
X128949000Y-104615000D01*
G75*
G02*
X128711500Y-104377500I0J237500D01*
G01*
X128711500Y-103902500D01*
G75*
G02*
X128949000Y-103665000I237500J0D01*
G01*
X129449000Y-103665000D01*
G75*
G02*
X129686500Y-103902500I0J-237500D01*
G01*
G37*
G36*
G01*
X131511500Y-103902500D02*
X131511500Y-104377500D01*
G75*
G02*
X131274000Y-104615000I-237500J0D01*
G01*
X130774000Y-104615000D01*
G75*
G02*
X130536500Y-104377500I0J237500D01*
G01*
X130536500Y-103902500D01*
G75*
G02*
X130774000Y-103665000I237500J0D01*
G01*
X131274000Y-103665000D01*
G75*
G02*
X131511500Y-103902500I0J-237500D01*
G01*
G37*
%TD*%
%TO.C,R57*%
G36*
G01*
X209290499Y-143579000D02*
X210190501Y-143579000D01*
G75*
G02*
X210440500Y-143828999I0J-249999D01*
G01*
X210440500Y-144479001D01*
G75*
G02*
X210190501Y-144729000I-249999J0D01*
G01*
X209290499Y-144729000D01*
G75*
G02*
X209040500Y-144479001I0J249999D01*
G01*
X209040500Y-143828999D01*
G75*
G02*
X209290499Y-143579000I249999J0D01*
G01*
G37*
G36*
G01*
X209290499Y-141529000D02*
X210190501Y-141529000D01*
G75*
G02*
X210440500Y-141778999I0J-249999D01*
G01*
X210440500Y-142429001D01*
G75*
G02*
X210190501Y-142679000I-249999J0D01*
G01*
X209290499Y-142679000D01*
G75*
G02*
X209040500Y-142429001I0J249999D01*
G01*
X209040500Y-141778999D01*
G75*
G02*
X209290499Y-141529000I249999J0D01*
G01*
G37*
%TD*%
%TO.C,R56*%
G36*
G01*
X183595000Y-130981000D02*
X184070000Y-130981000D01*
G75*
G02*
X184307500Y-131218500I0J-237500D01*
G01*
X184307500Y-131718500D01*
G75*
G02*
X184070000Y-131956000I-237500J0D01*
G01*
X183595000Y-131956000D01*
G75*
G02*
X183357500Y-131718500I0J237500D01*
G01*
X183357500Y-131218500D01*
G75*
G02*
X183595000Y-130981000I237500J0D01*
G01*
G37*
G36*
G01*
X183595000Y-129156000D02*
X184070000Y-129156000D01*
G75*
G02*
X184307500Y-129393500I0J-237500D01*
G01*
X184307500Y-129893500D01*
G75*
G02*
X184070000Y-130131000I-237500J0D01*
G01*
X183595000Y-130131000D01*
G75*
G02*
X183357500Y-129893500I0J237500D01*
G01*
X183357500Y-129393500D01*
G75*
G02*
X183595000Y-129156000I237500J0D01*
G01*
G37*
%TD*%
%TO.C,R55*%
G36*
G01*
X180547000Y-130981000D02*
X181022000Y-130981000D01*
G75*
G02*
X181259500Y-131218500I0J-237500D01*
G01*
X181259500Y-131718500D01*
G75*
G02*
X181022000Y-131956000I-237500J0D01*
G01*
X180547000Y-131956000D01*
G75*
G02*
X180309500Y-131718500I0J237500D01*
G01*
X180309500Y-131218500D01*
G75*
G02*
X180547000Y-130981000I237500J0D01*
G01*
G37*
G36*
G01*
X180547000Y-129156000D02*
X181022000Y-129156000D01*
G75*
G02*
X181259500Y-129393500I0J-237500D01*
G01*
X181259500Y-129893500D01*
G75*
G02*
X181022000Y-130131000I-237500J0D01*
G01*
X180547000Y-130131000D01*
G75*
G02*
X180309500Y-129893500I0J237500D01*
G01*
X180309500Y-129393500D01*
G75*
G02*
X180547000Y-129156000I237500J0D01*
G01*
G37*
%TD*%
%TO.C,R54*%
G36*
G01*
X205734499Y-143579000D02*
X206634501Y-143579000D01*
G75*
G02*
X206884500Y-143828999I0J-249999D01*
G01*
X206884500Y-144479001D01*
G75*
G02*
X206634501Y-144729000I-249999J0D01*
G01*
X205734499Y-144729000D01*
G75*
G02*
X205484500Y-144479001I0J249999D01*
G01*
X205484500Y-143828999D01*
G75*
G02*
X205734499Y-143579000I249999J0D01*
G01*
G37*
G36*
G01*
X205734499Y-141529000D02*
X206634501Y-141529000D01*
G75*
G02*
X206884500Y-141778999I0J-249999D01*
G01*
X206884500Y-142429001D01*
G75*
G02*
X206634501Y-142679000I-249999J0D01*
G01*
X205734499Y-142679000D01*
G75*
G02*
X205484500Y-142429001I0J249999D01*
G01*
X205484500Y-141778999D01*
G75*
G02*
X205734499Y-141529000I249999J0D01*
G01*
G37*
%TD*%
%TO.C,R52*%
G36*
G01*
X187979500Y-142383500D02*
X187979500Y-142858500D01*
G75*
G02*
X187742000Y-143096000I-237500J0D01*
G01*
X187242000Y-143096000D01*
G75*
G02*
X187004500Y-142858500I0J237500D01*
G01*
X187004500Y-142383500D01*
G75*
G02*
X187242000Y-142146000I237500J0D01*
G01*
X187742000Y-142146000D01*
G75*
G02*
X187979500Y-142383500I0J-237500D01*
G01*
G37*
G36*
G01*
X189804500Y-142383500D02*
X189804500Y-142858500D01*
G75*
G02*
X189567000Y-143096000I-237500J0D01*
G01*
X189067000Y-143096000D01*
G75*
G02*
X188829500Y-142858500I0J237500D01*
G01*
X188829500Y-142383500D01*
G75*
G02*
X189067000Y-142146000I237500J0D01*
G01*
X189567000Y-142146000D01*
G75*
G02*
X189804500Y-142383500I0J-237500D01*
G01*
G37*
%TD*%
%TO.C,R51*%
G36*
G01*
X187876000Y-145177500D02*
X187876000Y-145652500D01*
G75*
G02*
X187638500Y-145890000I-237500J0D01*
G01*
X187138500Y-145890000D01*
G75*
G02*
X186901000Y-145652500I0J237500D01*
G01*
X186901000Y-145177500D01*
G75*
G02*
X187138500Y-144940000I237500J0D01*
G01*
X187638500Y-144940000D01*
G75*
G02*
X187876000Y-145177500I0J-237500D01*
G01*
G37*
G36*
G01*
X189701000Y-145177500D02*
X189701000Y-145652500D01*
G75*
G02*
X189463500Y-145890000I-237500J0D01*
G01*
X188963500Y-145890000D01*
G75*
G02*
X188726000Y-145652500I0J237500D01*
G01*
X188726000Y-145177500D01*
G75*
G02*
X188963500Y-144940000I237500J0D01*
G01*
X189463500Y-144940000D01*
G75*
G02*
X189701000Y-145177500I0J-237500D01*
G01*
G37*
%TD*%
%TO.C,R49*%
G36*
G01*
X77348501Y-142298000D02*
X76448499Y-142298000D01*
G75*
G02*
X76198500Y-142048001I0J249999D01*
G01*
X76198500Y-141397999D01*
G75*
G02*
X76448499Y-141148000I249999J0D01*
G01*
X77348501Y-141148000D01*
G75*
G02*
X77598500Y-141397999I0J-249999D01*
G01*
X77598500Y-142048001D01*
G75*
G02*
X77348501Y-142298000I-249999J0D01*
G01*
G37*
G36*
G01*
X77348501Y-144348000D02*
X76448499Y-144348000D01*
G75*
G02*
X76198500Y-144098001I0J249999D01*
G01*
X76198500Y-143447999D01*
G75*
G02*
X76448499Y-143198000I249999J0D01*
G01*
X77348501Y-143198000D01*
G75*
G02*
X77598500Y-143447999I0J-249999D01*
G01*
X77598500Y-144098001D01*
G75*
G02*
X77348501Y-144348000I-249999J0D01*
G01*
G37*
%TD*%
%TO.C,R48*%
G36*
G01*
X95650500Y-134890500D02*
X95650500Y-135365500D01*
G75*
G02*
X95413000Y-135603000I-237500J0D01*
G01*
X94913000Y-135603000D01*
G75*
G02*
X94675500Y-135365500I0J237500D01*
G01*
X94675500Y-134890500D01*
G75*
G02*
X94913000Y-134653000I237500J0D01*
G01*
X95413000Y-134653000D01*
G75*
G02*
X95650500Y-134890500I0J-237500D01*
G01*
G37*
G36*
G01*
X97475500Y-134890500D02*
X97475500Y-135365500D01*
G75*
G02*
X97238000Y-135603000I-237500J0D01*
G01*
X96738000Y-135603000D01*
G75*
G02*
X96500500Y-135365500I0J237500D01*
G01*
X96500500Y-134890500D01*
G75*
G02*
X96738000Y-134653000I237500J0D01*
G01*
X97238000Y-134653000D01*
G75*
G02*
X97475500Y-134890500I0J-237500D01*
G01*
G37*
%TD*%
%TO.C,R39*%
G36*
G01*
X111702000Y-131387001D02*
X111702000Y-130486999D01*
G75*
G02*
X111951999Y-130237000I249999J0D01*
G01*
X112602001Y-130237000D01*
G75*
G02*
X112852000Y-130486999I0J-249999D01*
G01*
X112852000Y-131387001D01*
G75*
G02*
X112602001Y-131637000I-249999J0D01*
G01*
X111951999Y-131637000D01*
G75*
G02*
X111702000Y-131387001I0J249999D01*
G01*
G37*
G36*
G01*
X109652000Y-131387001D02*
X109652000Y-130486999D01*
G75*
G02*
X109901999Y-130237000I249999J0D01*
G01*
X110552001Y-130237000D01*
G75*
G02*
X110802000Y-130486999I0J-249999D01*
G01*
X110802000Y-131387001D01*
G75*
G02*
X110552001Y-131637000I-249999J0D01*
G01*
X109901999Y-131637000D01*
G75*
G02*
X109652000Y-131387001I0J249999D01*
G01*
G37*
%TD*%
%TO.C,R38*%
G36*
G01*
X109708500Y-120379500D02*
X109708500Y-119904500D01*
G75*
G02*
X109946000Y-119667000I237500J0D01*
G01*
X110446000Y-119667000D01*
G75*
G02*
X110683500Y-119904500I0J-237500D01*
G01*
X110683500Y-120379500D01*
G75*
G02*
X110446000Y-120617000I-237500J0D01*
G01*
X109946000Y-120617000D01*
G75*
G02*
X109708500Y-120379500I0J237500D01*
G01*
G37*
G36*
G01*
X107883500Y-120379500D02*
X107883500Y-119904500D01*
G75*
G02*
X108121000Y-119667000I237500J0D01*
G01*
X108621000Y-119667000D01*
G75*
G02*
X108858500Y-119904500I0J-237500D01*
G01*
X108858500Y-120379500D01*
G75*
G02*
X108621000Y-120617000I-237500J0D01*
G01*
X108121000Y-120617000D01*
G75*
G02*
X107883500Y-120379500I0J237500D01*
G01*
G37*
%TD*%
%TO.C,R37*%
G36*
G01*
X105683500Y-106823500D02*
X105683500Y-107298500D01*
G75*
G02*
X105446000Y-107536000I-237500J0D01*
G01*
X104946000Y-107536000D01*
G75*
G02*
X104708500Y-107298500I0J237500D01*
G01*
X104708500Y-106823500D01*
G75*
G02*
X104946000Y-106586000I237500J0D01*
G01*
X105446000Y-106586000D01*
G75*
G02*
X105683500Y-106823500I0J-237500D01*
G01*
G37*
G36*
G01*
X107508500Y-106823500D02*
X107508500Y-107298500D01*
G75*
G02*
X107271000Y-107536000I-237500J0D01*
G01*
X106771000Y-107536000D01*
G75*
G02*
X106533500Y-107298500I0J237500D01*
G01*
X106533500Y-106823500D01*
G75*
G02*
X106771000Y-106586000I237500J0D01*
G01*
X107271000Y-106586000D01*
G75*
G02*
X107508500Y-106823500I0J-237500D01*
G01*
G37*
%TD*%
%TO.C,R36*%
G36*
G01*
X116020000Y-131387001D02*
X116020000Y-130486999D01*
G75*
G02*
X116269999Y-130237000I249999J0D01*
G01*
X116920001Y-130237000D01*
G75*
G02*
X117170000Y-130486999I0J-249999D01*
G01*
X117170000Y-131387001D01*
G75*
G02*
X116920001Y-131637000I-249999J0D01*
G01*
X116269999Y-131637000D01*
G75*
G02*
X116020000Y-131387001I0J249999D01*
G01*
G37*
G36*
G01*
X113970000Y-131387001D02*
X113970000Y-130486999D01*
G75*
G02*
X114219999Y-130237000I249999J0D01*
G01*
X114870001Y-130237000D01*
G75*
G02*
X115120000Y-130486999I0J-249999D01*
G01*
X115120000Y-131387001D01*
G75*
G02*
X114870001Y-131637000I-249999J0D01*
G01*
X114219999Y-131637000D01*
G75*
G02*
X113970000Y-131387001I0J249999D01*
G01*
G37*
%TD*%
%TO.C,R34*%
G36*
G01*
X120465000Y-131387001D02*
X120465000Y-130486999D01*
G75*
G02*
X120714999Y-130237000I249999J0D01*
G01*
X121365001Y-130237000D01*
G75*
G02*
X121615000Y-130486999I0J-249999D01*
G01*
X121615000Y-131387001D01*
G75*
G02*
X121365001Y-131637000I-249999J0D01*
G01*
X120714999Y-131637000D01*
G75*
G02*
X120465000Y-131387001I0J249999D01*
G01*
G37*
G36*
G01*
X118415000Y-131387001D02*
X118415000Y-130486999D01*
G75*
G02*
X118664999Y-130237000I249999J0D01*
G01*
X119315001Y-130237000D01*
G75*
G02*
X119565000Y-130486999I0J-249999D01*
G01*
X119565000Y-131387001D01*
G75*
G02*
X119315001Y-131637000I-249999J0D01*
G01*
X118664999Y-131637000D01*
G75*
G02*
X118415000Y-131387001I0J249999D01*
G01*
G37*
%TD*%
%TO.C,R32*%
G36*
G01*
X83444501Y-124962500D02*
X82544499Y-124962500D01*
G75*
G02*
X82294500Y-124712501I0J249999D01*
G01*
X82294500Y-124062499D01*
G75*
G02*
X82544499Y-123812500I249999J0D01*
G01*
X83444501Y-123812500D01*
G75*
G02*
X83694500Y-124062499I0J-249999D01*
G01*
X83694500Y-124712501D01*
G75*
G02*
X83444501Y-124962500I-249999J0D01*
G01*
G37*
G36*
G01*
X83444501Y-127012500D02*
X82544499Y-127012500D01*
G75*
G02*
X82294500Y-126762501I0J249999D01*
G01*
X82294500Y-126112499D01*
G75*
G02*
X82544499Y-125862500I249999J0D01*
G01*
X83444501Y-125862500D01*
G75*
G02*
X83694500Y-126112499I0J-249999D01*
G01*
X83694500Y-126762501D01*
G75*
G02*
X83444501Y-127012500I-249999J0D01*
G01*
G37*
%TD*%
%TO.C,R31*%
G36*
G01*
X83889001Y-113342000D02*
X82988999Y-113342000D01*
G75*
G02*
X82739000Y-113092001I0J249999D01*
G01*
X82739000Y-112441999D01*
G75*
G02*
X82988999Y-112192000I249999J0D01*
G01*
X83889001Y-112192000D01*
G75*
G02*
X84139000Y-112441999I0J-249999D01*
G01*
X84139000Y-113092001D01*
G75*
G02*
X83889001Y-113342000I-249999J0D01*
G01*
G37*
G36*
G01*
X83889001Y-115392000D02*
X82988999Y-115392000D01*
G75*
G02*
X82739000Y-115142001I0J249999D01*
G01*
X82739000Y-114491999D01*
G75*
G02*
X82988999Y-114242000I249999J0D01*
G01*
X83889001Y-114242000D01*
G75*
G02*
X84139000Y-114491999I0J-249999D01*
G01*
X84139000Y-115142001D01*
G75*
G02*
X83889001Y-115392000I-249999J0D01*
G01*
G37*
%TD*%
%TO.C,R30*%
G36*
G01*
X121227001Y-135186000D02*
X120326999Y-135186000D01*
G75*
G02*
X120077000Y-134936001I0J249999D01*
G01*
X120077000Y-134285999D01*
G75*
G02*
X120326999Y-134036000I249999J0D01*
G01*
X121227001Y-134036000D01*
G75*
G02*
X121477000Y-134285999I0J-249999D01*
G01*
X121477000Y-134936001D01*
G75*
G02*
X121227001Y-135186000I-249999J0D01*
G01*
G37*
G36*
G01*
X121227001Y-137236000D02*
X120326999Y-137236000D01*
G75*
G02*
X120077000Y-136986001I0J249999D01*
G01*
X120077000Y-136335999D01*
G75*
G02*
X120326999Y-136086000I249999J0D01*
G01*
X121227001Y-136086000D01*
G75*
G02*
X121477000Y-136335999I0J-249999D01*
G01*
X121477000Y-136986001D01*
G75*
G02*
X121227001Y-137236000I-249999J0D01*
G01*
G37*
%TD*%
%TO.C,R27*%
G36*
G01*
X129164500Y-132530001D02*
X129164500Y-131629999D01*
G75*
G02*
X129414499Y-131380000I249999J0D01*
G01*
X130064501Y-131380000D01*
G75*
G02*
X130314500Y-131629999I0J-249999D01*
G01*
X130314500Y-132530001D01*
G75*
G02*
X130064501Y-132780000I-249999J0D01*
G01*
X129414499Y-132780000D01*
G75*
G02*
X129164500Y-132530001I0J249999D01*
G01*
G37*
G36*
G01*
X127114500Y-132530001D02*
X127114500Y-131629999D01*
G75*
G02*
X127364499Y-131380000I249999J0D01*
G01*
X128014501Y-131380000D01*
G75*
G02*
X128264500Y-131629999I0J-249999D01*
G01*
X128264500Y-132530001D01*
G75*
G02*
X128014501Y-132780000I-249999J0D01*
G01*
X127364499Y-132780000D01*
G75*
G02*
X127114500Y-132530001I0J249999D01*
G01*
G37*
%TD*%
%TO.C,R25*%
G36*
G01*
X99183500Y-120465001D02*
X99183500Y-119564999D01*
G75*
G02*
X99433499Y-119315000I249999J0D01*
G01*
X100083501Y-119315000D01*
G75*
G02*
X100333500Y-119564999I0J-249999D01*
G01*
X100333500Y-120465001D01*
G75*
G02*
X100083501Y-120715000I-249999J0D01*
G01*
X99433499Y-120715000D01*
G75*
G02*
X99183500Y-120465001I0J249999D01*
G01*
G37*
G36*
G01*
X97133500Y-120465001D02*
X97133500Y-119564999D01*
G75*
G02*
X97383499Y-119315000I249999J0D01*
G01*
X98033501Y-119315000D01*
G75*
G02*
X98283500Y-119564999I0J-249999D01*
G01*
X98283500Y-120465001D01*
G75*
G02*
X98033501Y-120715000I-249999J0D01*
G01*
X97383499Y-120715000D01*
G75*
G02*
X97133500Y-120465001I0J249999D01*
G01*
G37*
%TD*%
%TO.C,R24*%
G36*
G01*
X191760001Y-120639000D02*
X190509999Y-120639000D01*
G75*
G02*
X190260000Y-120389001I0J249999D01*
G01*
X190260000Y-119588999D01*
G75*
G02*
X190509999Y-119339000I249999J0D01*
G01*
X191760001Y-119339000D01*
G75*
G02*
X192010000Y-119588999I0J-249999D01*
G01*
X192010000Y-120389001D01*
G75*
G02*
X191760001Y-120639000I-249999J0D01*
G01*
G37*
G36*
G01*
X191760001Y-123739000D02*
X190509999Y-123739000D01*
G75*
G02*
X190260000Y-123489001I0J249999D01*
G01*
X190260000Y-122688999D01*
G75*
G02*
X190509999Y-122439000I249999J0D01*
G01*
X191760001Y-122439000D01*
G75*
G02*
X192010000Y-122688999I0J-249999D01*
G01*
X192010000Y-123489001D01*
G75*
G02*
X191760001Y-123739000I-249999J0D01*
G01*
G37*
%TD*%
%TO.C,R23*%
G36*
G01*
X204650501Y-120766000D02*
X203400499Y-120766000D01*
G75*
G02*
X203150500Y-120516001I0J249999D01*
G01*
X203150500Y-119715999D01*
G75*
G02*
X203400499Y-119466000I249999J0D01*
G01*
X204650501Y-119466000D01*
G75*
G02*
X204900500Y-119715999I0J-249999D01*
G01*
X204900500Y-120516001D01*
G75*
G02*
X204650501Y-120766000I-249999J0D01*
G01*
G37*
G36*
G01*
X204650501Y-123866000D02*
X203400499Y-123866000D01*
G75*
G02*
X203150500Y-123616001I0J249999D01*
G01*
X203150500Y-122815999D01*
G75*
G02*
X203400499Y-122566000I249999J0D01*
G01*
X204650501Y-122566000D01*
G75*
G02*
X204900500Y-122815999I0J-249999D01*
G01*
X204900500Y-123616001D01*
G75*
G02*
X204650501Y-123866000I-249999J0D01*
G01*
G37*
%TD*%
%TO.C,R22*%
G36*
G01*
X204650501Y-133339000D02*
X203400499Y-133339000D01*
G75*
G02*
X203150500Y-133089001I0J249999D01*
G01*
X203150500Y-132288999D01*
G75*
G02*
X203400499Y-132039000I249999J0D01*
G01*
X204650501Y-132039000D01*
G75*
G02*
X204900500Y-132288999I0J-249999D01*
G01*
X204900500Y-133089001D01*
G75*
G02*
X204650501Y-133339000I-249999J0D01*
G01*
G37*
G36*
G01*
X204650501Y-136439000D02*
X203400499Y-136439000D01*
G75*
G02*
X203150500Y-136189001I0J249999D01*
G01*
X203150500Y-135388999D01*
G75*
G02*
X203400499Y-135139000I249999J0D01*
G01*
X204650501Y-135139000D01*
G75*
G02*
X204900500Y-135388999I0J-249999D01*
G01*
X204900500Y-136189001D01*
G75*
G02*
X204650501Y-136439000I-249999J0D01*
G01*
G37*
%TD*%
%TO.C,R21*%
G36*
G01*
X191760001Y-133339000D02*
X190509999Y-133339000D01*
G75*
G02*
X190260000Y-133089001I0J249999D01*
G01*
X190260000Y-132288999D01*
G75*
G02*
X190509999Y-132039000I249999J0D01*
G01*
X191760001Y-132039000D01*
G75*
G02*
X192010000Y-132288999I0J-249999D01*
G01*
X192010000Y-133089001D01*
G75*
G02*
X191760001Y-133339000I-249999J0D01*
G01*
G37*
G36*
G01*
X191760001Y-136439000D02*
X190509999Y-136439000D01*
G75*
G02*
X190260000Y-136189001I0J249999D01*
G01*
X190260000Y-135388999D01*
G75*
G02*
X190509999Y-135139000I249999J0D01*
G01*
X191760001Y-135139000D01*
G75*
G02*
X192010000Y-135388999I0J-249999D01*
G01*
X192010000Y-136189001D01*
G75*
G02*
X191760001Y-136439000I-249999J0D01*
G01*
G37*
%TD*%
%TO.C,R20*%
G36*
G01*
X121232500Y-143500001D02*
X121232500Y-142249999D01*
G75*
G02*
X121482499Y-142000000I249999J0D01*
G01*
X122282501Y-142000000D01*
G75*
G02*
X122532500Y-142249999I0J-249999D01*
G01*
X122532500Y-143500001D01*
G75*
G02*
X122282501Y-143750000I-249999J0D01*
G01*
X121482499Y-143750000D01*
G75*
G02*
X121232500Y-143500001I0J249999D01*
G01*
G37*
G36*
G01*
X118132500Y-143500001D02*
X118132500Y-142249999D01*
G75*
G02*
X118382499Y-142000000I249999J0D01*
G01*
X119182501Y-142000000D01*
G75*
G02*
X119432500Y-142249999I0J-249999D01*
G01*
X119432500Y-143500001D01*
G75*
G02*
X119182501Y-143750000I-249999J0D01*
G01*
X118382499Y-143750000D01*
G75*
G02*
X118132500Y-143500001I0J249999D01*
G01*
G37*
%TD*%
%TO.C,R19*%
G36*
G01*
X108786500Y-143500001D02*
X108786500Y-142249999D01*
G75*
G02*
X109036499Y-142000000I249999J0D01*
G01*
X109836501Y-142000000D01*
G75*
G02*
X110086500Y-142249999I0J-249999D01*
G01*
X110086500Y-143500001D01*
G75*
G02*
X109836501Y-143750000I-249999J0D01*
G01*
X109036499Y-143750000D01*
G75*
G02*
X108786500Y-143500001I0J249999D01*
G01*
G37*
G36*
G01*
X105686500Y-143500001D02*
X105686500Y-142249999D01*
G75*
G02*
X105936499Y-142000000I249999J0D01*
G01*
X106736501Y-142000000D01*
G75*
G02*
X106986500Y-142249999I0J-249999D01*
G01*
X106986500Y-143500001D01*
G75*
G02*
X106736501Y-143750000I-249999J0D01*
G01*
X105936499Y-143750000D01*
G75*
G02*
X105686500Y-143500001I0J249999D01*
G01*
G37*
%TD*%
%TO.C,R18*%
G36*
G01*
X133678500Y-143500001D02*
X133678500Y-142249999D01*
G75*
G02*
X133928499Y-142000000I249999J0D01*
G01*
X134728501Y-142000000D01*
G75*
G02*
X134978500Y-142249999I0J-249999D01*
G01*
X134978500Y-143500001D01*
G75*
G02*
X134728501Y-143750000I-249999J0D01*
G01*
X133928499Y-143750000D01*
G75*
G02*
X133678500Y-143500001I0J249999D01*
G01*
G37*
G36*
G01*
X130578500Y-143500001D02*
X130578500Y-142249999D01*
G75*
G02*
X130828499Y-142000000I249999J0D01*
G01*
X131628501Y-142000000D01*
G75*
G02*
X131878500Y-142249999I0J-249999D01*
G01*
X131878500Y-143500001D01*
G75*
G02*
X131628501Y-143750000I-249999J0D01*
G01*
X130828499Y-143750000D01*
G75*
G02*
X130578500Y-143500001I0J249999D01*
G01*
G37*
%TD*%
%TO.C,R17*%
G36*
G01*
X146124500Y-143627001D02*
X146124500Y-142376999D01*
G75*
G02*
X146374499Y-142127000I249999J0D01*
G01*
X147174501Y-142127000D01*
G75*
G02*
X147424500Y-142376999I0J-249999D01*
G01*
X147424500Y-143627001D01*
G75*
G02*
X147174501Y-143877000I-249999J0D01*
G01*
X146374499Y-143877000D01*
G75*
G02*
X146124500Y-143627001I0J249999D01*
G01*
G37*
G36*
G01*
X143024500Y-143627001D02*
X143024500Y-142376999D01*
G75*
G02*
X143274499Y-142127000I249999J0D01*
G01*
X144074501Y-142127000D01*
G75*
G02*
X144324500Y-142376999I0J-249999D01*
G01*
X144324500Y-143627001D01*
G75*
G02*
X144074501Y-143877000I-249999J0D01*
G01*
X143274499Y-143877000D01*
G75*
G02*
X143024500Y-143627001I0J249999D01*
G01*
G37*
%TD*%
%TO.C,R16*%
G36*
G01*
X158570500Y-143627001D02*
X158570500Y-142376999D01*
G75*
G02*
X158820499Y-142127000I249999J0D01*
G01*
X159620501Y-142127000D01*
G75*
G02*
X159870500Y-142376999I0J-249999D01*
G01*
X159870500Y-143627001D01*
G75*
G02*
X159620501Y-143877000I-249999J0D01*
G01*
X158820499Y-143877000D01*
G75*
G02*
X158570500Y-143627001I0J249999D01*
G01*
G37*
G36*
G01*
X155470500Y-143627001D02*
X155470500Y-142376999D01*
G75*
G02*
X155720499Y-142127000I249999J0D01*
G01*
X156520501Y-142127000D01*
G75*
G02*
X156770500Y-142376999I0J-249999D01*
G01*
X156770500Y-143627001D01*
G75*
G02*
X156520501Y-143877000I-249999J0D01*
G01*
X155720499Y-143877000D01*
G75*
G02*
X155470500Y-143627001I0J249999D01*
G01*
G37*
%TD*%
%TO.C,R7*%
G36*
G01*
X181096499Y-141801000D02*
X181996501Y-141801000D01*
G75*
G02*
X182246500Y-142050999I0J-249999D01*
G01*
X182246500Y-142701001D01*
G75*
G02*
X181996501Y-142951000I-249999J0D01*
G01*
X181096499Y-142951000D01*
G75*
G02*
X180846500Y-142701001I0J249999D01*
G01*
X180846500Y-142050999D01*
G75*
G02*
X181096499Y-141801000I249999J0D01*
G01*
G37*
G36*
G01*
X181096499Y-139751000D02*
X181996501Y-139751000D01*
G75*
G02*
X182246500Y-140000999I0J-249999D01*
G01*
X182246500Y-140651001D01*
G75*
G02*
X181996501Y-140901000I-249999J0D01*
G01*
X181096499Y-140901000D01*
G75*
G02*
X180846500Y-140651001I0J249999D01*
G01*
X180846500Y-140000999D01*
G75*
G02*
X181096499Y-139751000I249999J0D01*
G01*
G37*
%TD*%
%TO.C,R4*%
G36*
G01*
X177794499Y-141801000D02*
X178694501Y-141801000D01*
G75*
G02*
X178944500Y-142050999I0J-249999D01*
G01*
X178944500Y-142701001D01*
G75*
G02*
X178694501Y-142951000I-249999J0D01*
G01*
X177794499Y-142951000D01*
G75*
G02*
X177544500Y-142701001I0J249999D01*
G01*
X177544500Y-142050999D01*
G75*
G02*
X177794499Y-141801000I249999J0D01*
G01*
G37*
G36*
G01*
X177794499Y-139751000D02*
X178694501Y-139751000D01*
G75*
G02*
X178944500Y-140000999I0J-249999D01*
G01*
X178944500Y-140651001D01*
G75*
G02*
X178694501Y-140901000I-249999J0D01*
G01*
X177794499Y-140901000D01*
G75*
G02*
X177544500Y-140651001I0J249999D01*
G01*
X177544500Y-140000999D01*
G75*
G02*
X177794499Y-139751000I249999J0D01*
G01*
G37*
%TD*%
%TO.C,R2*%
G36*
G01*
X168675500Y-142383500D02*
X168675500Y-142858500D01*
G75*
G02*
X168438000Y-143096000I-237500J0D01*
G01*
X167938000Y-143096000D01*
G75*
G02*
X167700500Y-142858500I0J237500D01*
G01*
X167700500Y-142383500D01*
G75*
G02*
X167938000Y-142146000I237500J0D01*
G01*
X168438000Y-142146000D01*
G75*
G02*
X168675500Y-142383500I0J-237500D01*
G01*
G37*
G36*
G01*
X170500500Y-142383500D02*
X170500500Y-142858500D01*
G75*
G02*
X170263000Y-143096000I-237500J0D01*
G01*
X169763000Y-143096000D01*
G75*
G02*
X169525500Y-142858500I0J237500D01*
G01*
X169525500Y-142383500D01*
G75*
G02*
X169763000Y-142146000I237500J0D01*
G01*
X170263000Y-142146000D01*
G75*
G02*
X170500500Y-142383500I0J-237500D01*
G01*
G37*
%TD*%
%TO.C,R1*%
G36*
G01*
X168675500Y-144923500D02*
X168675500Y-145398500D01*
G75*
G02*
X168438000Y-145636000I-237500J0D01*
G01*
X167938000Y-145636000D01*
G75*
G02*
X167700500Y-145398500I0J237500D01*
G01*
X167700500Y-144923500D01*
G75*
G02*
X167938000Y-144686000I237500J0D01*
G01*
X168438000Y-144686000D01*
G75*
G02*
X168675500Y-144923500I0J-237500D01*
G01*
G37*
G36*
G01*
X170500500Y-144923500D02*
X170500500Y-145398500D01*
G75*
G02*
X170263000Y-145636000I-237500J0D01*
G01*
X169763000Y-145636000D01*
G75*
G02*
X169525500Y-145398500I0J237500D01*
G01*
X169525500Y-144923500D01*
G75*
G02*
X169763000Y-144686000I237500J0D01*
G01*
X170263000Y-144686000D01*
G75*
G02*
X170500500Y-144923500I0J-237500D01*
G01*
G37*
%TD*%
D25*
%TO.C,Q4*%
X89144500Y-141732000D03*
D26*
X98294500Y-144272000D03*
X98294500Y-141732000D03*
X98294500Y-139192000D03*
%TD*%
D27*
%TO.C,Q2*%
X89868500Y-132207000D03*
X91868500Y-133157000D03*
X91868500Y-131257000D03*
%TD*%
%TO.C,Q1*%
X78025500Y-128778000D03*
X76025500Y-127828000D03*
X76025500Y-129728000D03*
%TD*%
%TO.C,L5*%
G36*
G01*
X182404501Y-80591500D02*
X181704499Y-80591500D01*
G75*
G02*
X181454500Y-80341501I0J249999D01*
G01*
X181454500Y-79791499D01*
G75*
G02*
X181704499Y-79541500I249999J0D01*
G01*
X182404501Y-79541500D01*
G75*
G02*
X182654500Y-79791499I0J-249999D01*
G01*
X182654500Y-80341501D01*
G75*
G02*
X182404501Y-80591500I-249999J0D01*
G01*
G37*
G36*
G01*
X182404501Y-82891500D02*
X181704499Y-82891500D01*
G75*
G02*
X181454500Y-82641501I0J249999D01*
G01*
X181454500Y-82091499D01*
G75*
G02*
X181704499Y-81841500I249999J0D01*
G01*
X182404501Y-81841500D01*
G75*
G02*
X182654500Y-82091499I0J-249999D01*
G01*
X182654500Y-82641501D01*
G75*
G02*
X182404501Y-82891500I-249999J0D01*
G01*
G37*
%TD*%
D28*
%TO.C,L4*%
X108711000Y-113411000D03*
X99696000Y-113411000D03*
%TD*%
D29*
%TO.C,J18*%
X190690500Y-101854000D03*
X188150500Y-101854000D03*
X190690500Y-99314000D03*
X188150500Y-99314000D03*
X190690500Y-96774000D03*
D14*
X188150500Y-96774000D03*
%TD*%
D18*
%TO.C,J16*%
X81597500Y-143002000D03*
G36*
G01*
X80047500Y-138292000D02*
X83147500Y-138292000D01*
G75*
G02*
X83397500Y-138542000I0J-250000D01*
G01*
X83397500Y-139842000D01*
G75*
G02*
X83147500Y-140092000I-250000J0D01*
G01*
X80047500Y-140092000D01*
G75*
G02*
X79797500Y-139842000I0J250000D01*
G01*
X79797500Y-138542000D01*
G75*
G02*
X80047500Y-138292000I250000J0D01*
G01*
G37*
%TD*%
%TO.C,J15*%
X81597500Y-132270500D03*
G36*
G01*
X80047500Y-127560500D02*
X83147500Y-127560500D01*
G75*
G02*
X83397500Y-127810500I0J-250000D01*
G01*
X83397500Y-129110500D01*
G75*
G02*
X83147500Y-129360500I-250000J0D01*
G01*
X80047500Y-129360500D01*
G75*
G02*
X79797500Y-129110500I0J250000D01*
G01*
X79797500Y-127810500D01*
G75*
G02*
X80047500Y-127560500I250000J0D01*
G01*
G37*
%TD*%
%TO.C,J14*%
X81597500Y-121031000D03*
G36*
G01*
X80047500Y-116321000D02*
X83147500Y-116321000D01*
G75*
G02*
X83397500Y-116571000I0J-250000D01*
G01*
X83397500Y-117871000D01*
G75*
G02*
X83147500Y-118121000I-250000J0D01*
G01*
X80047500Y-118121000D01*
G75*
G02*
X79797500Y-117871000I0J250000D01*
G01*
X79797500Y-116571000D01*
G75*
G02*
X80047500Y-116321000I250000J0D01*
G01*
G37*
%TD*%
%TO.C,J13*%
X202628500Y-63119000D03*
X202628500Y-66929000D03*
X202628500Y-70739000D03*
X202628500Y-74549000D03*
X202628500Y-78359000D03*
X202628500Y-82169000D03*
X202628500Y-85979000D03*
G36*
G01*
X204178500Y-90689000D02*
X201078500Y-90689000D01*
G75*
G02*
X200828500Y-90439000I0J250000D01*
G01*
X200828500Y-89139000D01*
G75*
G02*
X201078500Y-88889000I250000J0D01*
G01*
X204178500Y-88889000D01*
G75*
G02*
X204428500Y-89139000I0J-250000D01*
G01*
X204428500Y-90439000D01*
G75*
G02*
X204178500Y-90689000I-250000J0D01*
G01*
G37*
%TD*%
D30*
%TO.C,J12*%
X160718500Y-152273000D03*
X156908500Y-152273000D03*
X153098500Y-152273000D03*
X149288500Y-152273000D03*
X145478500Y-152273000D03*
G36*
G01*
X140768500Y-153823000D02*
X140768500Y-150723000D01*
G75*
G02*
X141018500Y-150473000I250000J0D01*
G01*
X142318500Y-150473000D01*
G75*
G02*
X142568500Y-150723000I0J-250000D01*
G01*
X142568500Y-153823000D01*
G75*
G02*
X142318500Y-154073000I-250000J0D01*
G01*
X141018500Y-154073000D01*
G75*
G02*
X140768500Y-153823000I0J250000D01*
G01*
G37*
%TD*%
%TO.C,J11*%
X133286500Y-152273000D03*
G36*
G01*
X128576500Y-153823000D02*
X128576500Y-150723000D01*
G75*
G02*
X128826500Y-150473000I250000J0D01*
G01*
X130126500Y-150473000D01*
G75*
G02*
X130376500Y-150723000I0J-250000D01*
G01*
X130376500Y-153823000D01*
G75*
G02*
X130126500Y-154073000I-250000J0D01*
G01*
X128826500Y-154073000D01*
G75*
G02*
X128576500Y-153823000I0J250000D01*
G01*
G37*
%TD*%
%TO.C,J10*%
X121094500Y-152273000D03*
G36*
G01*
X116384500Y-153823000D02*
X116384500Y-150723000D01*
G75*
G02*
X116634500Y-150473000I250000J0D01*
G01*
X117934500Y-150473000D01*
G75*
G02*
X118184500Y-150723000I0J-250000D01*
G01*
X118184500Y-153823000D01*
G75*
G02*
X117934500Y-154073000I-250000J0D01*
G01*
X116634500Y-154073000D01*
G75*
G02*
X116384500Y-153823000I0J250000D01*
G01*
G37*
%TD*%
%TO.C,J9*%
X172910500Y-31496000D03*
X176720500Y-31496000D03*
X180530500Y-31496000D03*
G36*
G01*
X185240500Y-29946000D02*
X185240500Y-33046000D01*
G75*
G02*
X184990500Y-33296000I-250000J0D01*
G01*
X183690500Y-33296000D01*
G75*
G02*
X183440500Y-33046000I0J250000D01*
G01*
X183440500Y-29946000D01*
G75*
G02*
X183690500Y-29696000I250000J0D01*
G01*
X184990500Y-29696000D01*
G75*
G02*
X185240500Y-29946000I0J-250000D01*
G01*
G37*
%TD*%
%TO.C,J8*%
X143700500Y-31496000D03*
X147510500Y-31496000D03*
X151320500Y-31496000D03*
G36*
G01*
X156030500Y-29946000D02*
X156030500Y-33046000D01*
G75*
G02*
X155780500Y-33296000I-250000J0D01*
G01*
X154480500Y-33296000D01*
G75*
G02*
X154230500Y-33046000I0J250000D01*
G01*
X154230500Y-29946000D01*
G75*
G02*
X154480500Y-29696000I250000J0D01*
G01*
X155780500Y-29696000D01*
G75*
G02*
X156030500Y-29946000I0J-250000D01*
G01*
G37*
%TD*%
%TO.C,J7*%
X114490500Y-31496000D03*
X118300500Y-31496000D03*
X122110500Y-31496000D03*
G36*
G01*
X126820500Y-29946000D02*
X126820500Y-33046000D01*
G75*
G02*
X126570500Y-33296000I-250000J0D01*
G01*
X125270500Y-33296000D01*
G75*
G02*
X125020500Y-33046000I0J250000D01*
G01*
X125020500Y-29946000D01*
G75*
G02*
X125270500Y-29696000I250000J0D01*
G01*
X126570500Y-29696000D01*
G75*
G02*
X126820500Y-29946000I0J-250000D01*
G01*
G37*
%TD*%
%TO.C,J6*%
X85280500Y-31496000D03*
X89090500Y-31496000D03*
X92900500Y-31496000D03*
G36*
G01*
X97610500Y-29946000D02*
X97610500Y-33046000D01*
G75*
G02*
X97360500Y-33296000I-250000J0D01*
G01*
X96060500Y-33296000D01*
G75*
G02*
X95810500Y-33046000I0J250000D01*
G01*
X95810500Y-29946000D01*
G75*
G02*
X96060500Y-29696000I250000J0D01*
G01*
X97360500Y-29696000D01*
G75*
G02*
X97610500Y-29946000I0J-250000D01*
G01*
G37*
%TD*%
D29*
%TO.C,J4*%
X190690500Y-112014000D03*
X188150500Y-112014000D03*
X190690500Y-109474000D03*
X188150500Y-109474000D03*
X190690500Y-106934000D03*
D14*
X188150500Y-106934000D03*
%TD*%
D30*
%TO.C,J2*%
X90360500Y-152273000D03*
G36*
G01*
X85650500Y-153823000D02*
X85650500Y-150723000D01*
G75*
G02*
X85900500Y-150473000I250000J0D01*
G01*
X87200500Y-150473000D01*
G75*
G02*
X87450500Y-150723000I0J-250000D01*
G01*
X87450500Y-153823000D01*
G75*
G02*
X87200500Y-154073000I-250000J0D01*
G01*
X85900500Y-154073000D01*
G75*
G02*
X85650500Y-153823000I0J250000D01*
G01*
G37*
%TD*%
%TO.C,J1*%
X108648500Y-152273000D03*
X104838500Y-152273000D03*
G36*
G01*
X100128500Y-153823000D02*
X100128500Y-150723000D01*
G75*
G02*
X100378500Y-150473000I250000J0D01*
G01*
X101678500Y-150473000D01*
G75*
G02*
X101928500Y-150723000I0J-250000D01*
G01*
X101928500Y-153823000D01*
G75*
G02*
X101678500Y-154073000I-250000J0D01*
G01*
X100378500Y-154073000D01*
G75*
G02*
X100128500Y-153823000I0J250000D01*
G01*
G37*
%TD*%
D31*
%TO.C,H4*%
X206184500Y-155829000D03*
%TD*%
%TO.C,H3*%
X78168500Y-27813000D03*
%TD*%
%TO.C,H2*%
X78168500Y-155829000D03*
%TD*%
%TO.C,H1*%
X206184500Y-27813000D03*
%TD*%
%TO.C,FB2*%
G36*
G01*
X205072500Y-149749500D02*
X205072500Y-150224500D01*
G75*
G02*
X204835000Y-150462000I-237500J0D01*
G01*
X204260000Y-150462000D01*
G75*
G02*
X204022500Y-150224500I0J237500D01*
G01*
X204022500Y-149749500D01*
G75*
G02*
X204260000Y-149512000I237500J0D01*
G01*
X204835000Y-149512000D01*
G75*
G02*
X205072500Y-149749500I0J-237500D01*
G01*
G37*
G36*
G01*
X206822500Y-149749500D02*
X206822500Y-150224500D01*
G75*
G02*
X206585000Y-150462000I-237500J0D01*
G01*
X206010000Y-150462000D01*
G75*
G02*
X205772500Y-150224500I0J237500D01*
G01*
X205772500Y-149749500D01*
G75*
G02*
X206010000Y-149512000I237500J0D01*
G01*
X206585000Y-149512000D01*
G75*
G02*
X206822500Y-149749500I0J-237500D01*
G01*
G37*
%TD*%
%TO.C,FB1*%
G36*
G01*
X182292000Y-152939000D02*
X181817000Y-152939000D01*
G75*
G02*
X181579500Y-152701500I0J237500D01*
G01*
X181579500Y-152126500D01*
G75*
G02*
X181817000Y-151889000I237500J0D01*
G01*
X182292000Y-151889000D01*
G75*
G02*
X182529500Y-152126500I0J-237500D01*
G01*
X182529500Y-152701500D01*
G75*
G02*
X182292000Y-152939000I-237500J0D01*
G01*
G37*
G36*
G01*
X182292000Y-154689000D02*
X181817000Y-154689000D01*
G75*
G02*
X181579500Y-154451500I0J237500D01*
G01*
X181579500Y-153876500D01*
G75*
G02*
X181817000Y-153639000I237500J0D01*
G01*
X182292000Y-153639000D01*
G75*
G02*
X182529500Y-153876500I0J-237500D01*
G01*
X182529500Y-154451500D01*
G75*
G02*
X182292000Y-154689000I-237500J0D01*
G01*
G37*
%TD*%
D32*
%TO.C,F1*%
X118534500Y-94939000D03*
X123634500Y-96139000D03*
%TD*%
D19*
%TO.C,D42*%
X74612500Y-148082000D03*
D20*
X82232500Y-148082000D03*
%TD*%
D19*
%TO.C,D41*%
X82232500Y-150939500D03*
D20*
X74612500Y-150939500D03*
%TD*%
D27*
%TO.C,D39*%
X89868500Y-127635000D03*
X91868500Y-128585000D03*
X91868500Y-126685000D03*
%TD*%
%TO.C,D38*%
X78025500Y-133350000D03*
X76025500Y-132400000D03*
X76025500Y-134300000D03*
%TD*%
D33*
%TO.C,D36*%
X174648500Y-51181000D03*
X169648500Y-51181000D03*
%TD*%
%TO.C,D34*%
X145057500Y-51181000D03*
X140057500Y-51181000D03*
%TD*%
%TO.C,D32*%
X174648500Y-46101000D03*
X169648500Y-46101000D03*
%TD*%
%TO.C,D30*%
X145057500Y-46101000D03*
X140057500Y-46101000D03*
%TD*%
%TO.C,D28*%
X184808500Y-51181000D03*
X179808500Y-51181000D03*
%TD*%
%TO.C,D26*%
X155217500Y-51181000D03*
X150217500Y-51181000D03*
%TD*%
%TO.C,D24*%
X184808500Y-46101000D03*
X179808500Y-46101000D03*
%TD*%
%TO.C,D22*%
X155217500Y-46101000D03*
X150217500Y-46101000D03*
%TD*%
%TO.C,D20*%
X115847500Y-51181000D03*
X110847500Y-51181000D03*
%TD*%
%TO.C,D18*%
X86891500Y-51181000D03*
X81891500Y-51181000D03*
%TD*%
%TO.C,D16*%
X115847500Y-46101000D03*
X110847500Y-46101000D03*
%TD*%
%TO.C,D14*%
X86891500Y-46101000D03*
X81891500Y-46101000D03*
%TD*%
%TO.C,D12*%
X126134500Y-51181000D03*
X121134500Y-51181000D03*
%TD*%
%TO.C,D10*%
X97178500Y-51181000D03*
X92178500Y-51181000D03*
%TD*%
%TO.C,D8*%
X126134500Y-46101000D03*
X121134500Y-46101000D03*
%TD*%
%TO.C,D6*%
X97178500Y-46101000D03*
X92178500Y-46101000D03*
%TD*%
D34*
%TO.C,D5*%
X78168500Y-63079000D03*
X78168500Y-58079000D03*
%TD*%
%TO.C,C46*%
G36*
G01*
X178007000Y-83916000D02*
X178482000Y-83916000D01*
G75*
G02*
X178719500Y-84153500I0J-237500D01*
G01*
X178719500Y-84728500D01*
G75*
G02*
X178482000Y-84966000I-237500J0D01*
G01*
X178007000Y-84966000D01*
G75*
G02*
X177769500Y-84728500I0J237500D01*
G01*
X177769500Y-84153500D01*
G75*
G02*
X178007000Y-83916000I237500J0D01*
G01*
G37*
G36*
G01*
X178007000Y-82166000D02*
X178482000Y-82166000D01*
G75*
G02*
X178719500Y-82403500I0J-237500D01*
G01*
X178719500Y-82978500D01*
G75*
G02*
X178482000Y-83216000I-237500J0D01*
G01*
X178007000Y-83216000D01*
G75*
G02*
X177769500Y-82978500I0J237500D01*
G01*
X177769500Y-82403500D01*
G75*
G02*
X178007000Y-82166000I237500J0D01*
G01*
G37*
%TD*%
%TO.C,C43*%
G36*
G01*
X178975500Y-80120500D02*
X178975500Y-79645500D01*
G75*
G02*
X179213000Y-79408000I237500J0D01*
G01*
X179788000Y-79408000D01*
G75*
G02*
X180025500Y-79645500I0J-237500D01*
G01*
X180025500Y-80120500D01*
G75*
G02*
X179788000Y-80358000I-237500J0D01*
G01*
X179213000Y-80358000D01*
G75*
G02*
X178975500Y-80120500I0J237500D01*
G01*
G37*
G36*
G01*
X177225500Y-80120500D02*
X177225500Y-79645500D01*
G75*
G02*
X177463000Y-79408000I237500J0D01*
G01*
X178038000Y-79408000D01*
G75*
G02*
X178275500Y-79645500I0J-237500D01*
G01*
X178275500Y-80120500D01*
G75*
G02*
X178038000Y-80358000I-237500J0D01*
G01*
X177463000Y-80358000D01*
G75*
G02*
X177225500Y-80120500I0J237500D01*
G01*
G37*
%TD*%
%TO.C,C45*%
G36*
G01*
X183849000Y-126588000D02*
X184324000Y-126588000D01*
G75*
G02*
X184561500Y-126825500I0J-237500D01*
G01*
X184561500Y-127400500D01*
G75*
G02*
X184324000Y-127638000I-237500J0D01*
G01*
X183849000Y-127638000D01*
G75*
G02*
X183611500Y-127400500I0J237500D01*
G01*
X183611500Y-126825500D01*
G75*
G02*
X183849000Y-126588000I237500J0D01*
G01*
G37*
G36*
G01*
X183849000Y-124838000D02*
X184324000Y-124838000D01*
G75*
G02*
X184561500Y-125075500I0J-237500D01*
G01*
X184561500Y-125650500D01*
G75*
G02*
X184324000Y-125888000I-237500J0D01*
G01*
X183849000Y-125888000D01*
G75*
G02*
X183611500Y-125650500I0J237500D01*
G01*
X183611500Y-125075500D01*
G75*
G02*
X183849000Y-124838000I237500J0D01*
G01*
G37*
%TD*%
%TO.C,C44*%
G36*
G01*
X186770000Y-154274000D02*
X187245000Y-154274000D01*
G75*
G02*
X187482500Y-154511500I0J-237500D01*
G01*
X187482500Y-155086500D01*
G75*
G02*
X187245000Y-155324000I-237500J0D01*
G01*
X186770000Y-155324000D01*
G75*
G02*
X186532500Y-155086500I0J237500D01*
G01*
X186532500Y-154511500D01*
G75*
G02*
X186770000Y-154274000I237500J0D01*
G01*
G37*
G36*
G01*
X186770000Y-152524000D02*
X187245000Y-152524000D01*
G75*
G02*
X187482500Y-152761500I0J-237500D01*
G01*
X187482500Y-153336500D01*
G75*
G02*
X187245000Y-153574000I-237500J0D01*
G01*
X186770000Y-153574000D01*
G75*
G02*
X186532500Y-153336500I0J237500D01*
G01*
X186532500Y-152761500D01*
G75*
G02*
X186770000Y-152524000I237500J0D01*
G01*
G37*
%TD*%
%TO.C,C42*%
G36*
G01*
X199399500Y-154206000D02*
X199399500Y-153896000D01*
G75*
G02*
X199554500Y-153741000I155000J0D01*
G01*
X199979500Y-153741000D01*
G75*
G02*
X200134500Y-153896000I0J-155000D01*
G01*
X200134500Y-154206000D01*
G75*
G02*
X199979500Y-154361000I-155000J0D01*
G01*
X199554500Y-154361000D01*
G75*
G02*
X199399500Y-154206000I0J155000D01*
G01*
G37*
G36*
G01*
X198264500Y-154206000D02*
X198264500Y-153896000D01*
G75*
G02*
X198419500Y-153741000I155000J0D01*
G01*
X198844500Y-153741000D01*
G75*
G02*
X198999500Y-153896000I0J-155000D01*
G01*
X198999500Y-154206000D01*
G75*
G02*
X198844500Y-154361000I-155000J0D01*
G01*
X198419500Y-154361000D01*
G75*
G02*
X198264500Y-154206000I0J155000D01*
G01*
G37*
%TD*%
%TO.C,C35*%
G36*
G01*
X163115000Y-83216000D02*
X162640000Y-83216000D01*
G75*
G02*
X162402500Y-82978500I0J237500D01*
G01*
X162402500Y-82403500D01*
G75*
G02*
X162640000Y-82166000I237500J0D01*
G01*
X163115000Y-82166000D01*
G75*
G02*
X163352500Y-82403500I0J-237500D01*
G01*
X163352500Y-82978500D01*
G75*
G02*
X163115000Y-83216000I-237500J0D01*
G01*
G37*
G36*
G01*
X163115000Y-84966000D02*
X162640000Y-84966000D01*
G75*
G02*
X162402500Y-84728500I0J237500D01*
G01*
X162402500Y-84153500D01*
G75*
G02*
X162640000Y-83916000I237500J0D01*
G01*
X163115000Y-83916000D01*
G75*
G02*
X163352500Y-84153500I0J-237500D01*
G01*
X163352500Y-84728500D01*
G75*
G02*
X163115000Y-84966000I-237500J0D01*
G01*
G37*
%TD*%
%TO.C,C41*%
G36*
G01*
X199422500Y-158098500D02*
X199422500Y-157623500D01*
G75*
G02*
X199660000Y-157386000I237500J0D01*
G01*
X200235000Y-157386000D01*
G75*
G02*
X200472500Y-157623500I0J-237500D01*
G01*
X200472500Y-158098500D01*
G75*
G02*
X200235000Y-158336000I-237500J0D01*
G01*
X199660000Y-158336000D01*
G75*
G02*
X199422500Y-158098500I0J237500D01*
G01*
G37*
G36*
G01*
X197672500Y-158098500D02*
X197672500Y-157623500D01*
G75*
G02*
X197910000Y-157386000I237500J0D01*
G01*
X198485000Y-157386000D01*
G75*
G02*
X198722500Y-157623500I0J-237500D01*
G01*
X198722500Y-158098500D01*
G75*
G02*
X198485000Y-158336000I-237500J0D01*
G01*
X197910000Y-158336000D01*
G75*
G02*
X197672500Y-158098500I0J237500D01*
G01*
G37*
%TD*%
%TO.C,C39*%
G36*
G01*
X199399500Y-151793000D02*
X199399500Y-151483000D01*
G75*
G02*
X199554500Y-151328000I155000J0D01*
G01*
X199979500Y-151328000D01*
G75*
G02*
X200134500Y-151483000I0J-155000D01*
G01*
X200134500Y-151793000D01*
G75*
G02*
X199979500Y-151948000I-155000J0D01*
G01*
X199554500Y-151948000D01*
G75*
G02*
X199399500Y-151793000I0J155000D01*
G01*
G37*
G36*
G01*
X198264500Y-151793000D02*
X198264500Y-151483000D01*
G75*
G02*
X198419500Y-151328000I155000J0D01*
G01*
X198844500Y-151328000D01*
G75*
G02*
X198999500Y-151483000I0J-155000D01*
G01*
X198999500Y-151793000D01*
G75*
G02*
X198844500Y-151948000I-155000J0D01*
G01*
X198419500Y-151948000D01*
G75*
G02*
X198264500Y-151793000I0J155000D01*
G01*
G37*
%TD*%
%TO.C,C38*%
G36*
G01*
X160179500Y-75675500D02*
X160179500Y-75200500D01*
G75*
G02*
X160417000Y-74963000I237500J0D01*
G01*
X160992000Y-74963000D01*
G75*
G02*
X161229500Y-75200500I0J-237500D01*
G01*
X161229500Y-75675500D01*
G75*
G02*
X160992000Y-75913000I-237500J0D01*
G01*
X160417000Y-75913000D01*
G75*
G02*
X160179500Y-75675500I0J237500D01*
G01*
G37*
G36*
G01*
X158429500Y-75675500D02*
X158429500Y-75200500D01*
G75*
G02*
X158667000Y-74963000I237500J0D01*
G01*
X159242000Y-74963000D01*
G75*
G02*
X159479500Y-75200500I0J-237500D01*
G01*
X159479500Y-75675500D01*
G75*
G02*
X159242000Y-75913000I-237500J0D01*
G01*
X158667000Y-75913000D01*
G75*
G02*
X158429500Y-75675500I0J237500D01*
G01*
G37*
%TD*%
%TO.C,C37*%
G36*
G01*
X159479500Y-82439500D02*
X159479500Y-82914500D01*
G75*
G02*
X159242000Y-83152000I-237500J0D01*
G01*
X158667000Y-83152000D01*
G75*
G02*
X158429500Y-82914500I0J237500D01*
G01*
X158429500Y-82439500D01*
G75*
G02*
X158667000Y-82202000I237500J0D01*
G01*
X159242000Y-82202000D01*
G75*
G02*
X159479500Y-82439500I0J-237500D01*
G01*
G37*
G36*
G01*
X161229500Y-82439500D02*
X161229500Y-82914500D01*
G75*
G02*
X160992000Y-83152000I-237500J0D01*
G01*
X160417000Y-83152000D01*
G75*
G02*
X160179500Y-82914500I0J237500D01*
G01*
X160179500Y-82439500D01*
G75*
G02*
X160417000Y-82202000I237500J0D01*
G01*
X160992000Y-82202000D01*
G75*
G02*
X161229500Y-82439500I0J-237500D01*
G01*
G37*
%TD*%
%TO.C,C36*%
G36*
G01*
X210136502Y-147563000D02*
X208836498Y-147563000D01*
G75*
G02*
X208586500Y-147313002I0J249998D01*
G01*
X208586500Y-146487998D01*
G75*
G02*
X208836498Y-146238000I249998J0D01*
G01*
X210136502Y-146238000D01*
G75*
G02*
X210386500Y-146487998I0J-249998D01*
G01*
X210386500Y-147313002D01*
G75*
G02*
X210136502Y-147563000I-249998J0D01*
G01*
G37*
G36*
G01*
X210136502Y-150688000D02*
X208836498Y-150688000D01*
G75*
G02*
X208586500Y-150438002I0J249998D01*
G01*
X208586500Y-149612998D01*
G75*
G02*
X208836498Y-149363000I249998J0D01*
G01*
X210136502Y-149363000D01*
G75*
G02*
X210386500Y-149612998I0J-249998D01*
G01*
X210386500Y-150438002D01*
G75*
G02*
X210136502Y-150688000I-249998J0D01*
G01*
G37*
%TD*%
%TO.C,C34*%
G36*
G01*
X115410500Y-124857500D02*
X115410500Y-125332500D01*
G75*
G02*
X115173000Y-125570000I-237500J0D01*
G01*
X114598000Y-125570000D01*
G75*
G02*
X114360500Y-125332500I0J237500D01*
G01*
X114360500Y-124857500D01*
G75*
G02*
X114598000Y-124620000I237500J0D01*
G01*
X115173000Y-124620000D01*
G75*
G02*
X115410500Y-124857500I0J-237500D01*
G01*
G37*
G36*
G01*
X117160500Y-124857500D02*
X117160500Y-125332500D01*
G75*
G02*
X116923000Y-125570000I-237500J0D01*
G01*
X116348000Y-125570000D01*
G75*
G02*
X116110500Y-125332500I0J237500D01*
G01*
X116110500Y-124857500D01*
G75*
G02*
X116348000Y-124620000I237500J0D01*
G01*
X116923000Y-124620000D01*
G75*
G02*
X117160500Y-124857500I0J-237500D01*
G01*
G37*
%TD*%
%TO.C,C31*%
G36*
G01*
X77124500Y-139074500D02*
X77434500Y-139074500D01*
G75*
G02*
X77589500Y-139229500I0J-155000D01*
G01*
X77589500Y-139654500D01*
G75*
G02*
X77434500Y-139809500I-155000J0D01*
G01*
X77124500Y-139809500D01*
G75*
G02*
X76969500Y-139654500I0J155000D01*
G01*
X76969500Y-139229500D01*
G75*
G02*
X77124500Y-139074500I155000J0D01*
G01*
G37*
G36*
G01*
X77124500Y-137939500D02*
X77434500Y-137939500D01*
G75*
G02*
X77589500Y-138094500I0J-155000D01*
G01*
X77589500Y-138519500D01*
G75*
G02*
X77434500Y-138674500I-155000J0D01*
G01*
X77124500Y-138674500D01*
G75*
G02*
X76969500Y-138519500I0J155000D01*
G01*
X76969500Y-138094500D01*
G75*
G02*
X77124500Y-137939500I155000J0D01*
G01*
G37*
%TD*%
%TO.C,C30*%
G36*
G01*
X107966500Y-135732000D02*
X108441500Y-135732000D01*
G75*
G02*
X108679000Y-135969500I0J-237500D01*
G01*
X108679000Y-136544500D01*
G75*
G02*
X108441500Y-136782000I-237500J0D01*
G01*
X107966500Y-136782000D01*
G75*
G02*
X107729000Y-136544500I0J237500D01*
G01*
X107729000Y-135969500D01*
G75*
G02*
X107966500Y-135732000I237500J0D01*
G01*
G37*
G36*
G01*
X107966500Y-133982000D02*
X108441500Y-133982000D01*
G75*
G02*
X108679000Y-134219500I0J-237500D01*
G01*
X108679000Y-134794500D01*
G75*
G02*
X108441500Y-135032000I-237500J0D01*
G01*
X107966500Y-135032000D01*
G75*
G02*
X107729000Y-134794500I0J237500D01*
G01*
X107729000Y-134219500D01*
G75*
G02*
X107966500Y-133982000I237500J0D01*
G01*
G37*
%TD*%
D35*
%TO.C,C29*%
X122308500Y-122809000D03*
D20*
X118808500Y-122809000D03*
%TD*%
%TO.C,C28*%
G36*
G01*
X112030500Y-135746000D02*
X112505500Y-135746000D01*
G75*
G02*
X112743000Y-135983500I0J-237500D01*
G01*
X112743000Y-136558500D01*
G75*
G02*
X112505500Y-136796000I-237500J0D01*
G01*
X112030500Y-136796000D01*
G75*
G02*
X111793000Y-136558500I0J237500D01*
G01*
X111793000Y-135983500D01*
G75*
G02*
X112030500Y-135746000I237500J0D01*
G01*
G37*
G36*
G01*
X112030500Y-133996000D02*
X112505500Y-133996000D01*
G75*
G02*
X112743000Y-134233500I0J-237500D01*
G01*
X112743000Y-134808500D01*
G75*
G02*
X112505500Y-135046000I-237500J0D01*
G01*
X112030500Y-135046000D01*
G75*
G02*
X111793000Y-134808500I0J237500D01*
G01*
X111793000Y-134233500D01*
G75*
G02*
X112030500Y-133996000I237500J0D01*
G01*
G37*
%TD*%
%TO.C,C27*%
G36*
G01*
X116475500Y-135859000D02*
X116950500Y-135859000D01*
G75*
G02*
X117188000Y-136096500I0J-237500D01*
G01*
X117188000Y-136671500D01*
G75*
G02*
X116950500Y-136909000I-237500J0D01*
G01*
X116475500Y-136909000D01*
G75*
G02*
X116238000Y-136671500I0J237500D01*
G01*
X116238000Y-136096500D01*
G75*
G02*
X116475500Y-135859000I237500J0D01*
G01*
G37*
G36*
G01*
X116475500Y-134109000D02*
X116950500Y-134109000D01*
G75*
G02*
X117188000Y-134346500I0J-237500D01*
G01*
X117188000Y-134921500D01*
G75*
G02*
X116950500Y-135159000I-237500J0D01*
G01*
X116475500Y-135159000D01*
G75*
G02*
X116238000Y-134921500I0J237500D01*
G01*
X116238000Y-134346500D01*
G75*
G02*
X116475500Y-134109000I237500J0D01*
G01*
G37*
%TD*%
D35*
%TO.C,C25*%
X112910500Y-123063000D03*
D20*
X109410500Y-123063000D03*
%TD*%
D35*
%TO.C,C24*%
X145168500Y-101219000D03*
D20*
X141668500Y-101219000D03*
%TD*%
D35*
%TO.C,C23*%
X145422500Y-114173000D03*
D20*
X141922500Y-114173000D03*
%TD*%
D35*
%TO.C,C19*%
X125610500Y-104521000D03*
D20*
X122110500Y-104521000D03*
%TD*%
D36*
%TO.C,C18*%
X113902500Y-102997000D03*
D37*
X108902500Y-102997000D03*
%TD*%
D36*
%TO.C,C17*%
X77486500Y-102743000D03*
D37*
X82486500Y-102743000D03*
%TD*%
%TO.C,C16*%
G36*
G01*
X137615500Y-127650002D02*
X137615500Y-126349998D01*
G75*
G02*
X137865498Y-126100000I249998J0D01*
G01*
X138690502Y-126100000D01*
G75*
G02*
X138940500Y-126349998I0J-249998D01*
G01*
X138940500Y-127650002D01*
G75*
G02*
X138690502Y-127900000I-249998J0D01*
G01*
X137865498Y-127900000D01*
G75*
G02*
X137615500Y-127650002I0J249998D01*
G01*
G37*
G36*
G01*
X134490500Y-127650002D02*
X134490500Y-126349998D01*
G75*
G02*
X134740498Y-126100000I249998J0D01*
G01*
X135565502Y-126100000D01*
G75*
G02*
X135815500Y-126349998I0J-249998D01*
G01*
X135815500Y-127650002D01*
G75*
G02*
X135565502Y-127900000I-249998J0D01*
G01*
X134740498Y-127900000D01*
G75*
G02*
X134490500Y-127650002I0J249998D01*
G01*
G37*
%TD*%
D35*
%TO.C,C15*%
X154566500Y-100965000D03*
D20*
X151066500Y-100965000D03*
%TD*%
%TO.C,C12*%
G36*
G01*
X165307000Y-137637000D02*
X165782000Y-137637000D01*
G75*
G02*
X166019500Y-137874500I0J-237500D01*
G01*
X166019500Y-138449500D01*
G75*
G02*
X165782000Y-138687000I-237500J0D01*
G01*
X165307000Y-138687000D01*
G75*
G02*
X165069500Y-138449500I0J237500D01*
G01*
X165069500Y-137874500D01*
G75*
G02*
X165307000Y-137637000I237500J0D01*
G01*
G37*
G36*
G01*
X165307000Y-135887000D02*
X165782000Y-135887000D01*
G75*
G02*
X166019500Y-136124500I0J-237500D01*
G01*
X166019500Y-136699500D01*
G75*
G02*
X165782000Y-136937000I-237500J0D01*
G01*
X165307000Y-136937000D01*
G75*
G02*
X165069500Y-136699500I0J237500D01*
G01*
X165069500Y-136124500D01*
G75*
G02*
X165307000Y-135887000I237500J0D01*
G01*
G37*
%TD*%
%TO.C,C5*%
G36*
G01*
X167085000Y-154147000D02*
X167560000Y-154147000D01*
G75*
G02*
X167797500Y-154384500I0J-237500D01*
G01*
X167797500Y-154959500D01*
G75*
G02*
X167560000Y-155197000I-237500J0D01*
G01*
X167085000Y-155197000D01*
G75*
G02*
X166847500Y-154959500I0J237500D01*
G01*
X166847500Y-154384500D01*
G75*
G02*
X167085000Y-154147000I237500J0D01*
G01*
G37*
G36*
G01*
X167085000Y-152397000D02*
X167560000Y-152397000D01*
G75*
G02*
X167797500Y-152634500I0J-237500D01*
G01*
X167797500Y-153209500D01*
G75*
G02*
X167560000Y-153447000I-237500J0D01*
G01*
X167085000Y-153447000D01*
G75*
G02*
X166847500Y-153209500I0J237500D01*
G01*
X166847500Y-152634500D01*
G75*
G02*
X167085000Y-152397000I237500J0D01*
G01*
G37*
%TD*%
%TO.C,C4*%
G36*
G01*
X178952500Y-153444000D02*
X178952500Y-153134000D01*
G75*
G02*
X179107500Y-152979000I155000J0D01*
G01*
X179532500Y-152979000D01*
G75*
G02*
X179687500Y-153134000I0J-155000D01*
G01*
X179687500Y-153444000D01*
G75*
G02*
X179532500Y-153599000I-155000J0D01*
G01*
X179107500Y-153599000D01*
G75*
G02*
X178952500Y-153444000I0J155000D01*
G01*
G37*
G36*
G01*
X177817500Y-153444000D02*
X177817500Y-153134000D01*
G75*
G02*
X177972500Y-152979000I155000J0D01*
G01*
X178397500Y-152979000D01*
G75*
G02*
X178552500Y-153134000I0J-155000D01*
G01*
X178552500Y-153444000D01*
G75*
G02*
X178397500Y-153599000I-155000J0D01*
G01*
X177972500Y-153599000D01*
G75*
G02*
X177817500Y-153444000I0J155000D01*
G01*
G37*
%TD*%
%TO.C,C3*%
G36*
G01*
X178340500Y-158733500D02*
X178340500Y-158258500D01*
G75*
G02*
X178578000Y-158021000I237500J0D01*
G01*
X179153000Y-158021000D01*
G75*
G02*
X179390500Y-158258500I0J-237500D01*
G01*
X179390500Y-158733500D01*
G75*
G02*
X179153000Y-158971000I-237500J0D01*
G01*
X178578000Y-158971000D01*
G75*
G02*
X178340500Y-158733500I0J237500D01*
G01*
G37*
G36*
G01*
X176590500Y-158733500D02*
X176590500Y-158258500D01*
G75*
G02*
X176828000Y-158021000I237500J0D01*
G01*
X177403000Y-158021000D01*
G75*
G02*
X177640500Y-158258500I0J-237500D01*
G01*
X177640500Y-158733500D01*
G75*
G02*
X177403000Y-158971000I-237500J0D01*
G01*
X176828000Y-158971000D01*
G75*
G02*
X176590500Y-158733500I0J237500D01*
G01*
G37*
%TD*%
%TO.C,C2*%
G36*
G01*
X178952500Y-151158000D02*
X178952500Y-150848000D01*
G75*
G02*
X179107500Y-150693000I155000J0D01*
G01*
X179532500Y-150693000D01*
G75*
G02*
X179687500Y-150848000I0J-155000D01*
G01*
X179687500Y-151158000D01*
G75*
G02*
X179532500Y-151313000I-155000J0D01*
G01*
X179107500Y-151313000D01*
G75*
G02*
X178952500Y-151158000I0J155000D01*
G01*
G37*
G36*
G01*
X177817500Y-151158000D02*
X177817500Y-150848000D01*
G75*
G02*
X177972500Y-150693000I155000J0D01*
G01*
X178397500Y-150693000D01*
G75*
G02*
X178552500Y-150848000I0J-155000D01*
G01*
X178552500Y-151158000D01*
G75*
G02*
X178397500Y-151313000I-155000J0D01*
G01*
X177972500Y-151313000D01*
G75*
G02*
X177817500Y-151158000I0J155000D01*
G01*
G37*
%TD*%
%TO.C,C1*%
G36*
G01*
X181662500Y-157210998D02*
X181662500Y-158511002D01*
G75*
G02*
X181412502Y-158761000I-249998J0D01*
G01*
X180587498Y-158761000D01*
G75*
G02*
X180337500Y-158511002I0J249998D01*
G01*
X180337500Y-157210998D01*
G75*
G02*
X180587498Y-156961000I249998J0D01*
G01*
X181412502Y-156961000D01*
G75*
G02*
X181662500Y-157210998I0J-249998D01*
G01*
G37*
G36*
G01*
X184787500Y-157210998D02*
X184787500Y-158511002D01*
G75*
G02*
X184537502Y-158761000I-249998J0D01*
G01*
X183712498Y-158761000D01*
G75*
G02*
X183462500Y-158511002I0J249998D01*
G01*
X183462500Y-157210998D01*
G75*
G02*
X183712498Y-156961000I249998J0D01*
G01*
X184537502Y-156961000D01*
G75*
G02*
X184787500Y-157210998I0J-249998D01*
G01*
G37*
%TD*%
M02*
