%TF.GenerationSoftware,KiCad,Pcbnew,(5.1.10)-1*%
%TF.CreationDate,2021-11-04T11:43:44+08:00*%
%TF.ProjectId,grbl_board,6772626c-5f62-46f6-9172-642e6b696361,rev?*%
%TF.SameCoordinates,Original*%
%TF.FileFunction,Legend,Bot*%
%TF.FilePolarity,Positive*%
%FSLAX46Y46*%
G04 Gerber Fmt 4.6, Leading zero omitted, Abs format (unit mm)*
G04 Created by KiCad (PCBNEW (5.1.10)-1) date 2021-11-04 11:43:44*
%MOMM*%
%LPD*%
G01*
G04 APERTURE LIST*
%ADD10C,0.120000*%
%ADD11C,0.150000*%
%ADD12C,3.500000*%
%ADD13C,1.700000*%
%ADD14R,1.700000X1.700000*%
%ADD15C,1.524000*%
%ADD16R,1.524000X1.524000*%
%ADD17C,7.000000*%
%ADD18O,3.600000X1.800000*%
%ADD19O,1.600000X1.600000*%
%ADD20R,1.600000X1.600000*%
%ADD21R,2.100000X1.725000*%
%ADD22R,0.550000X1.600000*%
%ADD23R,1.600000X0.550000*%
%ADD24R,1.200000X0.400000*%
%ADD25R,9.400000X10.800000*%
%ADD26R,4.600000X1.100000*%
%ADD27R,0.900000X0.800000*%
%ADD28R,3.175000X4.950000*%
%ADD29O,1.700000X1.700000*%
%ADD30O,1.800000X3.600000*%
%ADD31C,6.400000*%
%ADD32C,1.710000*%
%ADD33R,3.500000X1.800000*%
%ADD34R,1.800000X3.500000*%
%ADD35C,1.600000*%
%ADD36C,2.400000*%
%ADD37R,2.400000X2.400000*%
G04 APERTURE END LIST*
D10*
%TO.C,C22*%
X110111000Y-119614733D02*
X110111000Y-119907267D01*
X109091000Y-119614733D02*
X109091000Y-119907267D01*
%TO.C,Y2*%
X129065000Y-74812000D02*
X129065000Y-79112000D01*
X129065000Y-79112000D02*
X123665000Y-79112000D01*
%TO.C,U29*%
X119380000Y-80284000D02*
X121330000Y-80284000D01*
X119380000Y-80284000D02*
X117430000Y-80284000D01*
X119380000Y-90404000D02*
X121330000Y-90404000D01*
X119380000Y-90404000D02*
X115930000Y-90404000D01*
D11*
%TO.C,U28*%
X133408000Y-84651000D02*
X133408000Y-84426000D01*
X140658000Y-84651000D02*
X140658000Y-84326000D01*
X140658000Y-77401000D02*
X140658000Y-77726000D01*
X133408000Y-77401000D02*
X133408000Y-77726000D01*
X133408000Y-84651000D02*
X133733000Y-84651000D01*
X133408000Y-77401000D02*
X133733000Y-77401000D01*
X140658000Y-77401000D02*
X140333000Y-77401000D01*
X140658000Y-84651000D02*
X140333000Y-84651000D01*
X133408000Y-84426000D02*
X131983000Y-84426000D01*
D10*
%TO.C,U27*%
X105834500Y-94297500D02*
X105834500Y-96247500D01*
X105834500Y-94297500D02*
X105834500Y-92347500D01*
X95714500Y-94297500D02*
X95714500Y-96247500D01*
X95714500Y-94297500D02*
X95714500Y-90847500D01*
%TO.C,U26*%
X105797500Y-102933500D02*
X105797500Y-105133500D01*
X105797500Y-102933500D02*
X105797500Y-100733500D01*
X100577500Y-102933500D02*
X100577500Y-105133500D01*
X100577500Y-102933500D02*
X100577500Y-99333500D01*
D11*
%TO.C,U25*%
X156929000Y-154241000D02*
X156929000Y-155351000D01*
X161079000Y-155351000D02*
X161079000Y-154241000D01*
X161079000Y-146401000D02*
X161079000Y-147511000D01*
X156929000Y-146401000D02*
X156929000Y-147511000D01*
X156929000Y-155351000D02*
X161079000Y-155351000D01*
X156929000Y-146401000D02*
X161079000Y-146401000D01*
X156929000Y-154241000D02*
X155804000Y-154241000D01*
D10*
%TO.C,U24*%
X85672000Y-118230000D02*
X84172000Y-118230000D01*
X84172000Y-118230000D02*
X84172000Y-116420000D01*
X84172000Y-116420000D02*
X79047000Y-116420000D01*
X85672000Y-107830000D02*
X84172000Y-107830000D01*
X84172000Y-107830000D02*
X84172000Y-109640000D01*
X84172000Y-109640000D02*
X83072000Y-109640000D01*
%TO.C,U3*%
X103251000Y-121879000D02*
X101751000Y-121879000D01*
X103251000Y-121879000D02*
X104751000Y-121879000D01*
X103251000Y-118659000D02*
X101751000Y-118659000D01*
X103251000Y-118659000D02*
X106176000Y-118659000D01*
D11*
%TO.C,U1*%
X137625000Y-153987000D02*
X137625000Y-155097000D01*
X141775000Y-155097000D02*
X141775000Y-153987000D01*
X141775000Y-146147000D02*
X141775000Y-147257000D01*
X137625000Y-146147000D02*
X137625000Y-147257000D01*
X137625000Y-155097000D02*
X141775000Y-155097000D01*
X137625000Y-146147000D02*
X141775000Y-146147000D01*
X137625000Y-153987000D02*
X136500000Y-153987000D01*
D10*
%TO.C,R63*%
X115330500Y-92710724D02*
X115330500Y-92201276D01*
X114285500Y-92710724D02*
X114285500Y-92201276D01*
%TO.C,R58*%
X96901724Y-101204500D02*
X96392276Y-101204500D01*
X96901724Y-102249500D02*
X96392276Y-102249500D01*
%TO.C,R57*%
X175566000Y-140454748D02*
X175566000Y-140977252D01*
X176986000Y-140454748D02*
X176986000Y-140977252D01*
%TO.C,R56*%
X149845500Y-127888276D02*
X149845500Y-128397724D01*
X150890500Y-127888276D02*
X150890500Y-128397724D01*
%TO.C,R55*%
X146797500Y-127888276D02*
X146797500Y-128397724D01*
X147842500Y-127888276D02*
X147842500Y-128397724D01*
%TO.C,R54*%
X172010000Y-140454748D02*
X172010000Y-140977252D01*
X173430000Y-140454748D02*
X173430000Y-140977252D01*
%TO.C,R52*%
X155194724Y-139685500D02*
X154685276Y-139685500D01*
X155194724Y-140730500D02*
X154685276Y-140730500D01*
%TO.C,R51*%
X155091224Y-142479500D02*
X154581776Y-142479500D01*
X155091224Y-143524500D02*
X154581776Y-143524500D01*
%TO.C,R49*%
X44144000Y-140596252D02*
X44144000Y-140073748D01*
X42724000Y-140596252D02*
X42724000Y-140073748D01*
%TO.C,R48*%
X62865724Y-132192500D02*
X62356276Y-132192500D01*
X62865724Y-133237500D02*
X62356276Y-133237500D01*
%TO.C,R39*%
X77526248Y-129234000D02*
X78048752Y-129234000D01*
X77526248Y-127814000D02*
X78048752Y-127814000D01*
%TO.C,R38*%
X75564276Y-118251500D02*
X76073724Y-118251500D01*
X75564276Y-117206500D02*
X76073724Y-117206500D01*
%TO.C,R37*%
X72898724Y-104125500D02*
X72389276Y-104125500D01*
X72898724Y-105170500D02*
X72389276Y-105170500D01*
%TO.C,R36*%
X81844248Y-129234000D02*
X82366752Y-129234000D01*
X81844248Y-127814000D02*
X82366752Y-127814000D01*
%TO.C,R34*%
X86289248Y-129234000D02*
X86811752Y-129234000D01*
X86289248Y-127814000D02*
X86811752Y-127814000D01*
%TO.C,R32*%
X50240000Y-123260752D02*
X50240000Y-122738248D01*
X48820000Y-123260752D02*
X48820000Y-122738248D01*
%TO.C,R31*%
X50684500Y-111640252D02*
X50684500Y-111117748D01*
X49264500Y-111640252D02*
X49264500Y-111117748D01*
%TO.C,R30*%
X88022500Y-133484252D02*
X88022500Y-132961748D01*
X86602500Y-133484252D02*
X86602500Y-132961748D01*
%TO.C,R27*%
X94988748Y-130377000D02*
X95511252Y-130377000D01*
X94988748Y-128957000D02*
X95511252Y-128957000D01*
%TO.C,R25*%
X65007748Y-118312000D02*
X65530252Y-118312000D01*
X65007748Y-116892000D02*
X65530252Y-116892000D01*
%TO.C,R24*%
X158580500Y-119853064D02*
X158580500Y-118398936D01*
X156760500Y-119853064D02*
X156760500Y-118398936D01*
%TO.C,R23*%
X171471000Y-119980064D02*
X171471000Y-118525936D01*
X169651000Y-119980064D02*
X169651000Y-118525936D01*
%TO.C,R22*%
X171471000Y-132553064D02*
X171471000Y-131098936D01*
X169651000Y-132553064D02*
X169651000Y-131098936D01*
%TO.C,R21*%
X158580500Y-132553064D02*
X158580500Y-131098936D01*
X156760500Y-132553064D02*
X156760500Y-131098936D01*
%TO.C,R20*%
X86140936Y-141372000D02*
X87595064Y-141372000D01*
X86140936Y-139552000D02*
X87595064Y-139552000D01*
%TO.C,R19*%
X73694936Y-141372000D02*
X75149064Y-141372000D01*
X73694936Y-139552000D02*
X75149064Y-139552000D01*
%TO.C,R18*%
X98586936Y-141372000D02*
X100041064Y-141372000D01*
X98586936Y-139552000D02*
X100041064Y-139552000D01*
%TO.C,R17*%
X111032936Y-141499000D02*
X112487064Y-141499000D01*
X111032936Y-139679000D02*
X112487064Y-139679000D01*
%TO.C,R16*%
X123478936Y-141499000D02*
X124933064Y-141499000D01*
X123478936Y-139679000D02*
X124933064Y-139679000D01*
%TO.C,R7*%
X147372000Y-138676748D02*
X147372000Y-139199252D01*
X148792000Y-138676748D02*
X148792000Y-139199252D01*
%TO.C,R4*%
X144070000Y-138676748D02*
X144070000Y-139199252D01*
X145490000Y-138676748D02*
X145490000Y-139199252D01*
%TO.C,R2*%
X135890724Y-139685500D02*
X135381276Y-139685500D01*
X135890724Y-140730500D02*
X135381276Y-140730500D01*
%TO.C,R1*%
X135890724Y-142225500D02*
X135381276Y-142225500D01*
X135890724Y-143270500D02*
X135381276Y-143270500D01*
%TO.C,Q4*%
X60505000Y-134119000D02*
X62005000Y-134119000D01*
X62005000Y-134119000D02*
X62005000Y-135929000D01*
X62005000Y-135929000D02*
X67130000Y-135929000D01*
X60505000Y-144519000D02*
X62005000Y-144519000D01*
X62005000Y-144519000D02*
X62005000Y-142709000D01*
X62005000Y-142709000D02*
X63105000Y-142709000D01*
%TO.C,Q2*%
X56644000Y-131374000D02*
X56644000Y-130444000D01*
X56644000Y-128214000D02*
X56644000Y-129144000D01*
X56644000Y-128214000D02*
X58804000Y-128214000D01*
X56644000Y-131374000D02*
X58104000Y-131374000D01*
%TO.C,Q1*%
X44321000Y-124785000D02*
X44321000Y-125715000D01*
X44321000Y-127945000D02*
X44321000Y-127015000D01*
X44321000Y-127945000D02*
X42161000Y-127945000D01*
X44321000Y-124785000D02*
X42861000Y-124785000D01*
%TO.C,L5*%
X149150000Y-79213742D02*
X149150000Y-78393258D01*
X148030000Y-79213742D02*
X148030000Y-78393258D01*
%TO.C,L4*%
X65559000Y-113773000D02*
X65559000Y-116178000D01*
X65559000Y-116178000D02*
X75919000Y-116178000D01*
X75919000Y-116178000D02*
X75919000Y-113773000D01*
X65559000Y-108223000D02*
X65559000Y-105818000D01*
X65559000Y-105818000D02*
X75919000Y-105818000D01*
X75919000Y-105818000D02*
X75919000Y-108223000D01*
%TO.C,FB2*%
X172129267Y-147064000D02*
X171786733Y-147064000D01*
X172129267Y-148084000D02*
X171786733Y-148084000D01*
%TO.C,FB1*%
X149100000Y-151047267D02*
X149100000Y-150704733D01*
X148080000Y-151047267D02*
X148080000Y-150704733D01*
%TO.C,D42*%
X47078000Y-144549000D02*
X47078000Y-146789000D01*
X47078000Y-146789000D02*
X42838000Y-146789000D01*
X42838000Y-146789000D02*
X42838000Y-144549000D01*
X42838000Y-144549000D02*
X47078000Y-144549000D01*
X47728000Y-145669000D02*
X47078000Y-145669000D01*
X42188000Y-145669000D02*
X42838000Y-145669000D01*
X46358000Y-144549000D02*
X46358000Y-146789000D01*
X46238000Y-144549000D02*
X46238000Y-146789000D01*
X46478000Y-144549000D02*
X46478000Y-146789000D01*
%TO.C,D41*%
X42838000Y-149646500D02*
X42838000Y-147406500D01*
X42838000Y-147406500D02*
X47078000Y-147406500D01*
X47078000Y-147406500D02*
X47078000Y-149646500D01*
X47078000Y-149646500D02*
X42838000Y-149646500D01*
X42188000Y-148526500D02*
X42838000Y-148526500D01*
X47728000Y-148526500D02*
X47078000Y-148526500D01*
X43558000Y-149646500D02*
X43558000Y-147406500D01*
X43678000Y-149646500D02*
X43678000Y-147406500D01*
X43438000Y-149646500D02*
X43438000Y-147406500D01*
%TO.C,D39*%
X56644000Y-126802000D02*
X56644000Y-125872000D01*
X56644000Y-123642000D02*
X56644000Y-124572000D01*
X56644000Y-123642000D02*
X58804000Y-123642000D01*
X56644000Y-126802000D02*
X58104000Y-126802000D01*
%TO.C,D38*%
X44321000Y-129357000D02*
X44321000Y-130287000D01*
X44321000Y-132517000D02*
X44321000Y-131587000D01*
X44321000Y-132517000D02*
X42161000Y-132517000D01*
X44321000Y-129357000D02*
X42861000Y-129357000D01*
%TO.C,D36*%
X134284000Y-50418000D02*
X134284000Y-47118000D01*
X134284000Y-47118000D02*
X141184000Y-47118000D01*
X134284000Y-50418000D02*
X141184000Y-50418000D01*
%TO.C,D34*%
X104693000Y-50418000D02*
X104693000Y-47118000D01*
X104693000Y-47118000D02*
X111593000Y-47118000D01*
X104693000Y-50418000D02*
X111593000Y-50418000D01*
%TO.C,D32*%
X134284000Y-45338000D02*
X134284000Y-42038000D01*
X134284000Y-42038000D02*
X141184000Y-42038000D01*
X134284000Y-45338000D02*
X141184000Y-45338000D01*
%TO.C,D30*%
X104693000Y-45338000D02*
X104693000Y-42038000D01*
X104693000Y-42038000D02*
X111593000Y-42038000D01*
X104693000Y-45338000D02*
X111593000Y-45338000D01*
%TO.C,D28*%
X144444000Y-50418000D02*
X144444000Y-47118000D01*
X144444000Y-47118000D02*
X151344000Y-47118000D01*
X144444000Y-50418000D02*
X151344000Y-50418000D01*
%TO.C,D26*%
X114853000Y-50418000D02*
X114853000Y-47118000D01*
X114853000Y-47118000D02*
X121753000Y-47118000D01*
X114853000Y-50418000D02*
X121753000Y-50418000D01*
%TO.C,D24*%
X144444000Y-45338000D02*
X144444000Y-42038000D01*
X144444000Y-42038000D02*
X151344000Y-42038000D01*
X144444000Y-45338000D02*
X151344000Y-45338000D01*
%TO.C,D22*%
X114853000Y-45338000D02*
X114853000Y-42038000D01*
X114853000Y-42038000D02*
X121753000Y-42038000D01*
X114853000Y-45338000D02*
X121753000Y-45338000D01*
%TO.C,D20*%
X75483000Y-50418000D02*
X75483000Y-47118000D01*
X75483000Y-47118000D02*
X82383000Y-47118000D01*
X75483000Y-50418000D02*
X82383000Y-50418000D01*
%TO.C,D18*%
X46527000Y-50418000D02*
X46527000Y-47118000D01*
X46527000Y-47118000D02*
X53427000Y-47118000D01*
X46527000Y-50418000D02*
X53427000Y-50418000D01*
%TO.C,D16*%
X75483000Y-45338000D02*
X75483000Y-42038000D01*
X75483000Y-42038000D02*
X82383000Y-42038000D01*
X75483000Y-45338000D02*
X82383000Y-45338000D01*
%TO.C,D14*%
X46527000Y-45338000D02*
X46527000Y-42038000D01*
X46527000Y-42038000D02*
X53427000Y-42038000D01*
X46527000Y-45338000D02*
X53427000Y-45338000D01*
%TO.C,D12*%
X85770000Y-50418000D02*
X85770000Y-47118000D01*
X85770000Y-47118000D02*
X92670000Y-47118000D01*
X85770000Y-50418000D02*
X92670000Y-50418000D01*
%TO.C,D10*%
X56814000Y-50418000D02*
X56814000Y-47118000D01*
X56814000Y-47118000D02*
X63714000Y-47118000D01*
X56814000Y-50418000D02*
X63714000Y-50418000D01*
%TO.C,D8*%
X85770000Y-45338000D02*
X85770000Y-42038000D01*
X85770000Y-42038000D02*
X92670000Y-42038000D01*
X85770000Y-45338000D02*
X92670000Y-45338000D01*
%TO.C,D6*%
X56814000Y-45338000D02*
X56814000Y-42038000D01*
X56814000Y-42038000D02*
X63714000Y-42038000D01*
X56814000Y-45338000D02*
X63714000Y-45338000D01*
%TO.C,D5*%
X43054000Y-53766000D02*
X46354000Y-53766000D01*
X46354000Y-53766000D02*
X46354000Y-60666000D01*
X43054000Y-53766000D02*
X43054000Y-60666000D01*
%TO.C,C46*%
X144270000Y-80981733D02*
X144270000Y-81324267D01*
X145290000Y-80981733D02*
X145290000Y-81324267D01*
%TO.C,C43*%
X144989733Y-77980000D02*
X145332267Y-77980000D01*
X144989733Y-76960000D02*
X145332267Y-76960000D01*
%TO.C,C45*%
X150112000Y-123653733D02*
X150112000Y-123996267D01*
X151132000Y-123653733D02*
X151132000Y-123996267D01*
%TO.C,C44*%
X153033000Y-151339733D02*
X153033000Y-151682267D01*
X154053000Y-151339733D02*
X154053000Y-151682267D01*
%TO.C,C42*%
X165619165Y-151998000D02*
X165850835Y-151998000D01*
X165619165Y-151278000D02*
X165850835Y-151278000D01*
%TO.C,C35*%
X129923000Y-81324267D02*
X129923000Y-80981733D01*
X128903000Y-81324267D02*
X128903000Y-80981733D01*
%TO.C,C41*%
X165436733Y-155958000D02*
X165779267Y-155958000D01*
X165436733Y-154938000D02*
X165779267Y-154938000D01*
%TO.C,C39*%
X165619165Y-149585000D02*
X165850835Y-149585000D01*
X165619165Y-148865000D02*
X165850835Y-148865000D01*
%TO.C,C38*%
X126193733Y-73535000D02*
X126536267Y-73535000D01*
X126193733Y-72515000D02*
X126536267Y-72515000D01*
%TO.C,C37*%
X126536267Y-79754000D02*
X126193733Y-79754000D01*
X126536267Y-80774000D02*
X126193733Y-80774000D01*
%TO.C,C36*%
X176932000Y-146761252D02*
X176932000Y-145338748D01*
X175112000Y-146761252D02*
X175112000Y-145338748D01*
%TO.C,C34*%
X82467267Y-122172000D02*
X82124733Y-122172000D01*
X82467267Y-123192000D02*
X82124733Y-123192000D01*
%TO.C,C31*%
X43455000Y-136345665D02*
X43455000Y-136577335D01*
X44175000Y-136345665D02*
X44175000Y-136577335D01*
%TO.C,C30*%
X74229500Y-132797733D02*
X74229500Y-133140267D01*
X75249500Y-132797733D02*
X75249500Y-133140267D01*
%TO.C,C28*%
X78293500Y-132811733D02*
X78293500Y-133154267D01*
X79313500Y-132811733D02*
X79313500Y-133154267D01*
%TO.C,C27*%
X82738500Y-132924733D02*
X82738500Y-133267267D01*
X83758500Y-132924733D02*
X83758500Y-133267267D01*
%TO.C,C16*%
X102539748Y-125497000D02*
X103962252Y-125497000D01*
X102539748Y-123677000D02*
X103962252Y-123677000D01*
%TO.C,C12*%
X131570000Y-134702733D02*
X131570000Y-135045267D01*
X132590000Y-134702733D02*
X132590000Y-135045267D01*
%TO.C,C5*%
X133348000Y-151212733D02*
X133348000Y-151555267D01*
X134368000Y-151212733D02*
X134368000Y-151555267D01*
%TO.C,C4*%
X145172165Y-151236000D02*
X145403835Y-151236000D01*
X145172165Y-150516000D02*
X145403835Y-150516000D01*
%TO.C,C3*%
X144354733Y-156593000D02*
X144697267Y-156593000D01*
X144354733Y-155573000D02*
X144697267Y-155573000D01*
%TO.C,C2*%
X145172165Y-148950000D02*
X145403835Y-148950000D01*
X145172165Y-148230000D02*
X145403835Y-148230000D01*
%TO.C,C1*%
X149809252Y-154538000D02*
X148386748Y-154538000D01*
X149809252Y-156358000D02*
X148386748Y-156358000D01*
%TO.C,C22*%
D11*
X108528142Y-119118142D02*
X108575761Y-119070523D01*
X108623380Y-118927666D01*
X108623380Y-118832428D01*
X108575761Y-118689571D01*
X108480523Y-118594333D01*
X108385285Y-118546714D01*
X108194809Y-118499095D01*
X108051952Y-118499095D01*
X107861476Y-118546714D01*
X107766238Y-118594333D01*
X107671000Y-118689571D01*
X107623380Y-118832428D01*
X107623380Y-118927666D01*
X107671000Y-119070523D01*
X107718619Y-119118142D01*
X107718619Y-119499095D02*
X107671000Y-119546714D01*
X107623380Y-119641952D01*
X107623380Y-119880047D01*
X107671000Y-119975285D01*
X107718619Y-120022904D01*
X107813857Y-120070523D01*
X107909095Y-120070523D01*
X108051952Y-120022904D01*
X108623380Y-119451476D01*
X108623380Y-120070523D01*
X107718619Y-120451476D02*
X107671000Y-120499095D01*
X107623380Y-120594333D01*
X107623380Y-120832428D01*
X107671000Y-120927666D01*
X107718619Y-120975285D01*
X107813857Y-121022904D01*
X107909095Y-121022904D01*
X108051952Y-120975285D01*
X108623380Y-120403857D01*
X108623380Y-121022904D01*
%TO.C,Y2*%
X130651190Y-77192190D02*
X130651190Y-77668380D01*
X130984523Y-76668380D02*
X130651190Y-77192190D01*
X130317857Y-76668380D01*
X130032142Y-76763619D02*
X129984523Y-76716000D01*
X129889285Y-76668380D01*
X129651190Y-76668380D01*
X129555952Y-76716000D01*
X129508333Y-76763619D01*
X129460714Y-76858857D01*
X129460714Y-76954095D01*
X129508333Y-77096952D01*
X130079761Y-77668380D01*
X129460714Y-77668380D01*
%TO.C,U29*%
X120618095Y-90696380D02*
X120618095Y-91505904D01*
X120570476Y-91601142D01*
X120522857Y-91648761D01*
X120427619Y-91696380D01*
X120237142Y-91696380D01*
X120141904Y-91648761D01*
X120094285Y-91601142D01*
X120046666Y-91505904D01*
X120046666Y-90696380D01*
X119618095Y-90791619D02*
X119570476Y-90744000D01*
X119475238Y-90696380D01*
X119237142Y-90696380D01*
X119141904Y-90744000D01*
X119094285Y-90791619D01*
X119046666Y-90886857D01*
X119046666Y-90982095D01*
X119094285Y-91124952D01*
X119665714Y-91696380D01*
X119046666Y-91696380D01*
X118570476Y-91696380D02*
X118380000Y-91696380D01*
X118284761Y-91648761D01*
X118237142Y-91601142D01*
X118141904Y-91458285D01*
X118094285Y-91267809D01*
X118094285Y-90886857D01*
X118141904Y-90791619D01*
X118189523Y-90744000D01*
X118284761Y-90696380D01*
X118475238Y-90696380D01*
X118570476Y-90744000D01*
X118618095Y-90791619D01*
X118665714Y-90886857D01*
X118665714Y-91124952D01*
X118618095Y-91220190D01*
X118570476Y-91267809D01*
X118475238Y-91315428D01*
X118284761Y-91315428D01*
X118189523Y-91267809D01*
X118141904Y-91220190D01*
X118094285Y-91124952D01*
%TO.C,U28*%
X138271095Y-86528380D02*
X138271095Y-87337904D01*
X138223476Y-87433142D01*
X138175857Y-87480761D01*
X138080619Y-87528380D01*
X137890142Y-87528380D01*
X137794904Y-87480761D01*
X137747285Y-87433142D01*
X137699666Y-87337904D01*
X137699666Y-86528380D01*
X137271095Y-86623619D02*
X137223476Y-86576000D01*
X137128238Y-86528380D01*
X136890142Y-86528380D01*
X136794904Y-86576000D01*
X136747285Y-86623619D01*
X136699666Y-86718857D01*
X136699666Y-86814095D01*
X136747285Y-86956952D01*
X137318714Y-87528380D01*
X136699666Y-87528380D01*
X136128238Y-86956952D02*
X136223476Y-86909333D01*
X136271095Y-86861714D01*
X136318714Y-86766476D01*
X136318714Y-86718857D01*
X136271095Y-86623619D01*
X136223476Y-86576000D01*
X136128238Y-86528380D01*
X135937761Y-86528380D01*
X135842523Y-86576000D01*
X135794904Y-86623619D01*
X135747285Y-86718857D01*
X135747285Y-86766476D01*
X135794904Y-86861714D01*
X135842523Y-86909333D01*
X135937761Y-86956952D01*
X136128238Y-86956952D01*
X136223476Y-87004571D01*
X136271095Y-87052190D01*
X136318714Y-87147428D01*
X136318714Y-87337904D01*
X136271095Y-87433142D01*
X136223476Y-87480761D01*
X136128238Y-87528380D01*
X135937761Y-87528380D01*
X135842523Y-87480761D01*
X135794904Y-87433142D01*
X135747285Y-87337904D01*
X135747285Y-87147428D01*
X135794904Y-87052190D01*
X135842523Y-87004571D01*
X135937761Y-86956952D01*
%TO.C,U27*%
X94326880Y-93059404D02*
X95136404Y-93059404D01*
X95231642Y-93107023D01*
X95279261Y-93154642D01*
X95326880Y-93249880D01*
X95326880Y-93440357D01*
X95279261Y-93535595D01*
X95231642Y-93583214D01*
X95136404Y-93630833D01*
X94326880Y-93630833D01*
X94422119Y-94059404D02*
X94374500Y-94107023D01*
X94326880Y-94202261D01*
X94326880Y-94440357D01*
X94374500Y-94535595D01*
X94422119Y-94583214D01*
X94517357Y-94630833D01*
X94612595Y-94630833D01*
X94755452Y-94583214D01*
X95326880Y-94011785D01*
X95326880Y-94630833D01*
X94326880Y-94964166D02*
X94326880Y-95630833D01*
X95326880Y-95202261D01*
%TO.C,U26*%
X99189880Y-101695404D02*
X99999404Y-101695404D01*
X100094642Y-101743023D01*
X100142261Y-101790642D01*
X100189880Y-101885880D01*
X100189880Y-102076357D01*
X100142261Y-102171595D01*
X100094642Y-102219214D01*
X99999404Y-102266833D01*
X99189880Y-102266833D01*
X99285119Y-102695404D02*
X99237500Y-102743023D01*
X99189880Y-102838261D01*
X99189880Y-103076357D01*
X99237500Y-103171595D01*
X99285119Y-103219214D01*
X99380357Y-103266833D01*
X99475595Y-103266833D01*
X99618452Y-103219214D01*
X100189880Y-102647785D01*
X100189880Y-103266833D01*
X99189880Y-104123976D02*
X99189880Y-103933500D01*
X99237500Y-103838261D01*
X99285119Y-103790642D01*
X99427976Y-103695404D01*
X99618452Y-103647785D01*
X99999404Y-103647785D01*
X100094642Y-103695404D01*
X100142261Y-103743023D01*
X100189880Y-103838261D01*
X100189880Y-104028738D01*
X100142261Y-104123976D01*
X100094642Y-104171595D01*
X99999404Y-104219214D01*
X99761309Y-104219214D01*
X99666071Y-104171595D01*
X99618452Y-104123976D01*
X99570833Y-104028738D01*
X99570833Y-103838261D01*
X99618452Y-103743023D01*
X99666071Y-103695404D01*
X99761309Y-103647785D01*
%TO.C,U25*%
X160242095Y-155728380D02*
X160242095Y-156537904D01*
X160194476Y-156633142D01*
X160146857Y-156680761D01*
X160051619Y-156728380D01*
X159861142Y-156728380D01*
X159765904Y-156680761D01*
X159718285Y-156633142D01*
X159670666Y-156537904D01*
X159670666Y-155728380D01*
X159242095Y-155823619D02*
X159194476Y-155776000D01*
X159099238Y-155728380D01*
X158861142Y-155728380D01*
X158765904Y-155776000D01*
X158718285Y-155823619D01*
X158670666Y-155918857D01*
X158670666Y-156014095D01*
X158718285Y-156156952D01*
X159289714Y-156728380D01*
X158670666Y-156728380D01*
X157765904Y-155728380D02*
X158242095Y-155728380D01*
X158289714Y-156204571D01*
X158242095Y-156156952D01*
X158146857Y-156109333D01*
X157908761Y-156109333D01*
X157813523Y-156156952D01*
X157765904Y-156204571D01*
X157718285Y-156299809D01*
X157718285Y-156537904D01*
X157765904Y-156633142D01*
X157813523Y-156680761D01*
X157908761Y-156728380D01*
X158146857Y-156728380D01*
X158242095Y-156680761D01*
X158289714Y-156633142D01*
%TO.C,U24*%
X88360095Y-119132380D02*
X88360095Y-119941904D01*
X88312476Y-120037142D01*
X88264857Y-120084761D01*
X88169619Y-120132380D01*
X87979142Y-120132380D01*
X87883904Y-120084761D01*
X87836285Y-120037142D01*
X87788666Y-119941904D01*
X87788666Y-119132380D01*
X87360095Y-119227619D02*
X87312476Y-119180000D01*
X87217238Y-119132380D01*
X86979142Y-119132380D01*
X86883904Y-119180000D01*
X86836285Y-119227619D01*
X86788666Y-119322857D01*
X86788666Y-119418095D01*
X86836285Y-119560952D01*
X87407714Y-120132380D01*
X86788666Y-120132380D01*
X85931523Y-119465714D02*
X85931523Y-120132380D01*
X86169619Y-119084761D02*
X86407714Y-119799047D01*
X85788666Y-119799047D01*
%TO.C,U3*%
X104012904Y-117271380D02*
X104012904Y-118080904D01*
X103965285Y-118176142D01*
X103917666Y-118223761D01*
X103822428Y-118271380D01*
X103631952Y-118271380D01*
X103536714Y-118223761D01*
X103489095Y-118176142D01*
X103441476Y-118080904D01*
X103441476Y-117271380D01*
X103060523Y-117271380D02*
X102441476Y-117271380D01*
X102774809Y-117652333D01*
X102631952Y-117652333D01*
X102536714Y-117699952D01*
X102489095Y-117747571D01*
X102441476Y-117842809D01*
X102441476Y-118080904D01*
X102489095Y-118176142D01*
X102536714Y-118223761D01*
X102631952Y-118271380D01*
X102917666Y-118271380D01*
X103012904Y-118223761D01*
X103060523Y-118176142D01*
%TO.C,U1*%
X140461904Y-155474380D02*
X140461904Y-156283904D01*
X140414285Y-156379142D01*
X140366666Y-156426761D01*
X140271428Y-156474380D01*
X140080952Y-156474380D01*
X139985714Y-156426761D01*
X139938095Y-156379142D01*
X139890476Y-156283904D01*
X139890476Y-155474380D01*
X138890476Y-156474380D02*
X139461904Y-156474380D01*
X139176190Y-156474380D02*
X139176190Y-155474380D01*
X139271428Y-155617238D01*
X139366666Y-155712476D01*
X139461904Y-155760095D01*
%TO.C,R63*%
X116690380Y-91813142D02*
X116214190Y-91479809D01*
X116690380Y-91241714D02*
X115690380Y-91241714D01*
X115690380Y-91622666D01*
X115738000Y-91717904D01*
X115785619Y-91765523D01*
X115880857Y-91813142D01*
X116023714Y-91813142D01*
X116118952Y-91765523D01*
X116166571Y-91717904D01*
X116214190Y-91622666D01*
X116214190Y-91241714D01*
X115690380Y-92670285D02*
X115690380Y-92479809D01*
X115738000Y-92384571D01*
X115785619Y-92336952D01*
X115928476Y-92241714D01*
X116118952Y-92194095D01*
X116499904Y-92194095D01*
X116595142Y-92241714D01*
X116642761Y-92289333D01*
X116690380Y-92384571D01*
X116690380Y-92575047D01*
X116642761Y-92670285D01*
X116595142Y-92717904D01*
X116499904Y-92765523D01*
X116261809Y-92765523D01*
X116166571Y-92717904D01*
X116118952Y-92670285D01*
X116071333Y-92575047D01*
X116071333Y-92384571D01*
X116118952Y-92289333D01*
X116166571Y-92241714D01*
X116261809Y-92194095D01*
X115690380Y-93098857D02*
X115690380Y-93717904D01*
X116071333Y-93384571D01*
X116071333Y-93527428D01*
X116118952Y-93622666D01*
X116166571Y-93670285D01*
X116261809Y-93717904D01*
X116499904Y-93717904D01*
X116595142Y-93670285D01*
X116642761Y-93622666D01*
X116690380Y-93527428D01*
X116690380Y-93241714D01*
X116642761Y-93146476D01*
X116595142Y-93098857D01*
%TO.C,R58*%
X97289857Y-100749380D02*
X97623190Y-100273190D01*
X97861285Y-100749380D02*
X97861285Y-99749380D01*
X97480333Y-99749380D01*
X97385095Y-99797000D01*
X97337476Y-99844619D01*
X97289857Y-99939857D01*
X97289857Y-100082714D01*
X97337476Y-100177952D01*
X97385095Y-100225571D01*
X97480333Y-100273190D01*
X97861285Y-100273190D01*
X96385095Y-99749380D02*
X96861285Y-99749380D01*
X96908904Y-100225571D01*
X96861285Y-100177952D01*
X96766047Y-100130333D01*
X96527952Y-100130333D01*
X96432714Y-100177952D01*
X96385095Y-100225571D01*
X96337476Y-100320809D01*
X96337476Y-100558904D01*
X96385095Y-100654142D01*
X96432714Y-100701761D01*
X96527952Y-100749380D01*
X96766047Y-100749380D01*
X96861285Y-100701761D01*
X96908904Y-100654142D01*
X95766047Y-100177952D02*
X95861285Y-100130333D01*
X95908904Y-100082714D01*
X95956523Y-99987476D01*
X95956523Y-99939857D01*
X95908904Y-99844619D01*
X95861285Y-99797000D01*
X95766047Y-99749380D01*
X95575571Y-99749380D01*
X95480333Y-99797000D01*
X95432714Y-99844619D01*
X95385095Y-99939857D01*
X95385095Y-99987476D01*
X95432714Y-100082714D01*
X95480333Y-100130333D01*
X95575571Y-100177952D01*
X95766047Y-100177952D01*
X95861285Y-100225571D01*
X95908904Y-100273190D01*
X95956523Y-100368428D01*
X95956523Y-100558904D01*
X95908904Y-100654142D01*
X95861285Y-100701761D01*
X95766047Y-100749380D01*
X95575571Y-100749380D01*
X95480333Y-100701761D01*
X95432714Y-100654142D01*
X95385095Y-100558904D01*
X95385095Y-100368428D01*
X95432714Y-100273190D01*
X95480333Y-100225571D01*
X95575571Y-100177952D01*
%TO.C,R57*%
X175078380Y-140073142D02*
X174602190Y-139739809D01*
X175078380Y-139501714D02*
X174078380Y-139501714D01*
X174078380Y-139882666D01*
X174126000Y-139977904D01*
X174173619Y-140025523D01*
X174268857Y-140073142D01*
X174411714Y-140073142D01*
X174506952Y-140025523D01*
X174554571Y-139977904D01*
X174602190Y-139882666D01*
X174602190Y-139501714D01*
X174078380Y-140977904D02*
X174078380Y-140501714D01*
X174554571Y-140454095D01*
X174506952Y-140501714D01*
X174459333Y-140596952D01*
X174459333Y-140835047D01*
X174506952Y-140930285D01*
X174554571Y-140977904D01*
X174649809Y-141025523D01*
X174887904Y-141025523D01*
X174983142Y-140977904D01*
X175030761Y-140930285D01*
X175078380Y-140835047D01*
X175078380Y-140596952D01*
X175030761Y-140501714D01*
X174983142Y-140454095D01*
X174078380Y-141358857D02*
X174078380Y-142025523D01*
X175078380Y-141596952D01*
%TO.C,R56*%
X149390380Y-127500142D02*
X148914190Y-127166809D01*
X149390380Y-126928714D02*
X148390380Y-126928714D01*
X148390380Y-127309666D01*
X148438000Y-127404904D01*
X148485619Y-127452523D01*
X148580857Y-127500142D01*
X148723714Y-127500142D01*
X148818952Y-127452523D01*
X148866571Y-127404904D01*
X148914190Y-127309666D01*
X148914190Y-126928714D01*
X148390380Y-128404904D02*
X148390380Y-127928714D01*
X148866571Y-127881095D01*
X148818952Y-127928714D01*
X148771333Y-128023952D01*
X148771333Y-128262047D01*
X148818952Y-128357285D01*
X148866571Y-128404904D01*
X148961809Y-128452523D01*
X149199904Y-128452523D01*
X149295142Y-128404904D01*
X149342761Y-128357285D01*
X149390380Y-128262047D01*
X149390380Y-128023952D01*
X149342761Y-127928714D01*
X149295142Y-127881095D01*
X148390380Y-129309666D02*
X148390380Y-129119190D01*
X148438000Y-129023952D01*
X148485619Y-128976333D01*
X148628476Y-128881095D01*
X148818952Y-128833476D01*
X149199904Y-128833476D01*
X149295142Y-128881095D01*
X149342761Y-128928714D01*
X149390380Y-129023952D01*
X149390380Y-129214428D01*
X149342761Y-129309666D01*
X149295142Y-129357285D01*
X149199904Y-129404904D01*
X148961809Y-129404904D01*
X148866571Y-129357285D01*
X148818952Y-129309666D01*
X148771333Y-129214428D01*
X148771333Y-129023952D01*
X148818952Y-128928714D01*
X148866571Y-128881095D01*
X148961809Y-128833476D01*
%TO.C,R55*%
X146342380Y-127500142D02*
X145866190Y-127166809D01*
X146342380Y-126928714D02*
X145342380Y-126928714D01*
X145342380Y-127309666D01*
X145390000Y-127404904D01*
X145437619Y-127452523D01*
X145532857Y-127500142D01*
X145675714Y-127500142D01*
X145770952Y-127452523D01*
X145818571Y-127404904D01*
X145866190Y-127309666D01*
X145866190Y-126928714D01*
X145342380Y-128404904D02*
X145342380Y-127928714D01*
X145818571Y-127881095D01*
X145770952Y-127928714D01*
X145723333Y-128023952D01*
X145723333Y-128262047D01*
X145770952Y-128357285D01*
X145818571Y-128404904D01*
X145913809Y-128452523D01*
X146151904Y-128452523D01*
X146247142Y-128404904D01*
X146294761Y-128357285D01*
X146342380Y-128262047D01*
X146342380Y-128023952D01*
X146294761Y-127928714D01*
X146247142Y-127881095D01*
X145342380Y-129357285D02*
X145342380Y-128881095D01*
X145818571Y-128833476D01*
X145770952Y-128881095D01*
X145723333Y-128976333D01*
X145723333Y-129214428D01*
X145770952Y-129309666D01*
X145818571Y-129357285D01*
X145913809Y-129404904D01*
X146151904Y-129404904D01*
X146247142Y-129357285D01*
X146294761Y-129309666D01*
X146342380Y-129214428D01*
X146342380Y-128976333D01*
X146294761Y-128881095D01*
X146247142Y-128833476D01*
%TO.C,R54*%
X171522380Y-140073142D02*
X171046190Y-139739809D01*
X171522380Y-139501714D02*
X170522380Y-139501714D01*
X170522380Y-139882666D01*
X170570000Y-139977904D01*
X170617619Y-140025523D01*
X170712857Y-140073142D01*
X170855714Y-140073142D01*
X170950952Y-140025523D01*
X170998571Y-139977904D01*
X171046190Y-139882666D01*
X171046190Y-139501714D01*
X170522380Y-140977904D02*
X170522380Y-140501714D01*
X170998571Y-140454095D01*
X170950952Y-140501714D01*
X170903333Y-140596952D01*
X170903333Y-140835047D01*
X170950952Y-140930285D01*
X170998571Y-140977904D01*
X171093809Y-141025523D01*
X171331904Y-141025523D01*
X171427142Y-140977904D01*
X171474761Y-140930285D01*
X171522380Y-140835047D01*
X171522380Y-140596952D01*
X171474761Y-140501714D01*
X171427142Y-140454095D01*
X170855714Y-141882666D02*
X171522380Y-141882666D01*
X170474761Y-141644571D02*
X171189047Y-141406476D01*
X171189047Y-142025523D01*
%TO.C,R52*%
X155582857Y-139230380D02*
X155916190Y-138754190D01*
X156154285Y-139230380D02*
X156154285Y-138230380D01*
X155773333Y-138230380D01*
X155678095Y-138278000D01*
X155630476Y-138325619D01*
X155582857Y-138420857D01*
X155582857Y-138563714D01*
X155630476Y-138658952D01*
X155678095Y-138706571D01*
X155773333Y-138754190D01*
X156154285Y-138754190D01*
X154678095Y-138230380D02*
X155154285Y-138230380D01*
X155201904Y-138706571D01*
X155154285Y-138658952D01*
X155059047Y-138611333D01*
X154820952Y-138611333D01*
X154725714Y-138658952D01*
X154678095Y-138706571D01*
X154630476Y-138801809D01*
X154630476Y-139039904D01*
X154678095Y-139135142D01*
X154725714Y-139182761D01*
X154820952Y-139230380D01*
X155059047Y-139230380D01*
X155154285Y-139182761D01*
X155201904Y-139135142D01*
X154249523Y-138325619D02*
X154201904Y-138278000D01*
X154106666Y-138230380D01*
X153868571Y-138230380D01*
X153773333Y-138278000D01*
X153725714Y-138325619D01*
X153678095Y-138420857D01*
X153678095Y-138516095D01*
X153725714Y-138658952D01*
X154297142Y-139230380D01*
X153678095Y-139230380D01*
%TO.C,R51*%
X155479357Y-142024380D02*
X155812690Y-141548190D01*
X156050785Y-142024380D02*
X156050785Y-141024380D01*
X155669833Y-141024380D01*
X155574595Y-141072000D01*
X155526976Y-141119619D01*
X155479357Y-141214857D01*
X155479357Y-141357714D01*
X155526976Y-141452952D01*
X155574595Y-141500571D01*
X155669833Y-141548190D01*
X156050785Y-141548190D01*
X154574595Y-141024380D02*
X155050785Y-141024380D01*
X155098404Y-141500571D01*
X155050785Y-141452952D01*
X154955547Y-141405333D01*
X154717452Y-141405333D01*
X154622214Y-141452952D01*
X154574595Y-141500571D01*
X154526976Y-141595809D01*
X154526976Y-141833904D01*
X154574595Y-141929142D01*
X154622214Y-141976761D01*
X154717452Y-142024380D01*
X154955547Y-142024380D01*
X155050785Y-141976761D01*
X155098404Y-141929142D01*
X153574595Y-142024380D02*
X154146023Y-142024380D01*
X153860309Y-142024380D02*
X153860309Y-141024380D01*
X153955547Y-141167238D01*
X154050785Y-141262476D01*
X154146023Y-141310095D01*
%TO.C,R49*%
X45536380Y-139692142D02*
X45060190Y-139358809D01*
X45536380Y-139120714D02*
X44536380Y-139120714D01*
X44536380Y-139501666D01*
X44584000Y-139596904D01*
X44631619Y-139644523D01*
X44726857Y-139692142D01*
X44869714Y-139692142D01*
X44964952Y-139644523D01*
X45012571Y-139596904D01*
X45060190Y-139501666D01*
X45060190Y-139120714D01*
X44869714Y-140549285D02*
X45536380Y-140549285D01*
X44488761Y-140311190D02*
X45203047Y-140073095D01*
X45203047Y-140692142D01*
X45536380Y-141120714D02*
X45536380Y-141311190D01*
X45488761Y-141406428D01*
X45441142Y-141454047D01*
X45298285Y-141549285D01*
X45107809Y-141596904D01*
X44726857Y-141596904D01*
X44631619Y-141549285D01*
X44584000Y-141501666D01*
X44536380Y-141406428D01*
X44536380Y-141215952D01*
X44584000Y-141120714D01*
X44631619Y-141073095D01*
X44726857Y-141025476D01*
X44964952Y-141025476D01*
X45060190Y-141073095D01*
X45107809Y-141120714D01*
X45155428Y-141215952D01*
X45155428Y-141406428D01*
X45107809Y-141501666D01*
X45060190Y-141549285D01*
X44964952Y-141596904D01*
%TO.C,R48*%
X63952380Y-129786142D02*
X63476190Y-129452809D01*
X63952380Y-129214714D02*
X62952380Y-129214714D01*
X62952380Y-129595666D01*
X63000000Y-129690904D01*
X63047619Y-129738523D01*
X63142857Y-129786142D01*
X63285714Y-129786142D01*
X63380952Y-129738523D01*
X63428571Y-129690904D01*
X63476190Y-129595666D01*
X63476190Y-129214714D01*
X63285714Y-130643285D02*
X63952380Y-130643285D01*
X62904761Y-130405190D02*
X63619047Y-130167095D01*
X63619047Y-130786142D01*
X63380952Y-131309952D02*
X63333333Y-131214714D01*
X63285714Y-131167095D01*
X63190476Y-131119476D01*
X63142857Y-131119476D01*
X63047619Y-131167095D01*
X63000000Y-131214714D01*
X62952380Y-131309952D01*
X62952380Y-131500428D01*
X63000000Y-131595666D01*
X63047619Y-131643285D01*
X63142857Y-131690904D01*
X63190476Y-131690904D01*
X63285714Y-131643285D01*
X63333333Y-131595666D01*
X63380952Y-131500428D01*
X63380952Y-131309952D01*
X63428571Y-131214714D01*
X63476190Y-131167095D01*
X63571428Y-131119476D01*
X63761904Y-131119476D01*
X63857142Y-131167095D01*
X63904761Y-131214714D01*
X63952380Y-131309952D01*
X63952380Y-131500428D01*
X63904761Y-131595666D01*
X63857142Y-131643285D01*
X63761904Y-131690904D01*
X63571428Y-131690904D01*
X63476190Y-131643285D01*
X63428571Y-131595666D01*
X63380952Y-131500428D01*
%TO.C,R39*%
X78430357Y-130626380D02*
X78763690Y-130150190D01*
X79001785Y-130626380D02*
X79001785Y-129626380D01*
X78620833Y-129626380D01*
X78525595Y-129674000D01*
X78477976Y-129721619D01*
X78430357Y-129816857D01*
X78430357Y-129959714D01*
X78477976Y-130054952D01*
X78525595Y-130102571D01*
X78620833Y-130150190D01*
X79001785Y-130150190D01*
X78097023Y-129626380D02*
X77477976Y-129626380D01*
X77811309Y-130007333D01*
X77668452Y-130007333D01*
X77573214Y-130054952D01*
X77525595Y-130102571D01*
X77477976Y-130197809D01*
X77477976Y-130435904D01*
X77525595Y-130531142D01*
X77573214Y-130578761D01*
X77668452Y-130626380D01*
X77954166Y-130626380D01*
X78049404Y-130578761D01*
X78097023Y-130531142D01*
X77001785Y-130626380D02*
X76811309Y-130626380D01*
X76716071Y-130578761D01*
X76668452Y-130531142D01*
X76573214Y-130388285D01*
X76525595Y-130197809D01*
X76525595Y-129816857D01*
X76573214Y-129721619D01*
X76620833Y-129674000D01*
X76716071Y-129626380D01*
X76906547Y-129626380D01*
X77001785Y-129674000D01*
X77049404Y-129721619D01*
X77097023Y-129816857D01*
X77097023Y-130054952D01*
X77049404Y-130150190D01*
X77001785Y-130197809D01*
X76906547Y-130245428D01*
X76716071Y-130245428D01*
X76620833Y-130197809D01*
X76573214Y-130150190D01*
X76525595Y-130054952D01*
%TO.C,R38*%
X76461857Y-119611380D02*
X76795190Y-119135190D01*
X77033285Y-119611380D02*
X77033285Y-118611380D01*
X76652333Y-118611380D01*
X76557095Y-118659000D01*
X76509476Y-118706619D01*
X76461857Y-118801857D01*
X76461857Y-118944714D01*
X76509476Y-119039952D01*
X76557095Y-119087571D01*
X76652333Y-119135190D01*
X77033285Y-119135190D01*
X76128523Y-118611380D02*
X75509476Y-118611380D01*
X75842809Y-118992333D01*
X75699952Y-118992333D01*
X75604714Y-119039952D01*
X75557095Y-119087571D01*
X75509476Y-119182809D01*
X75509476Y-119420904D01*
X75557095Y-119516142D01*
X75604714Y-119563761D01*
X75699952Y-119611380D01*
X75985666Y-119611380D01*
X76080904Y-119563761D01*
X76128523Y-119516142D01*
X74938047Y-119039952D02*
X75033285Y-118992333D01*
X75080904Y-118944714D01*
X75128523Y-118849476D01*
X75128523Y-118801857D01*
X75080904Y-118706619D01*
X75033285Y-118659000D01*
X74938047Y-118611380D01*
X74747571Y-118611380D01*
X74652333Y-118659000D01*
X74604714Y-118706619D01*
X74557095Y-118801857D01*
X74557095Y-118849476D01*
X74604714Y-118944714D01*
X74652333Y-118992333D01*
X74747571Y-119039952D01*
X74938047Y-119039952D01*
X75033285Y-119087571D01*
X75080904Y-119135190D01*
X75128523Y-119230428D01*
X75128523Y-119420904D01*
X75080904Y-119516142D01*
X75033285Y-119563761D01*
X74938047Y-119611380D01*
X74747571Y-119611380D01*
X74652333Y-119563761D01*
X74604714Y-119516142D01*
X74557095Y-119420904D01*
X74557095Y-119230428D01*
X74604714Y-119135190D01*
X74652333Y-119087571D01*
X74747571Y-119039952D01*
%TO.C,R37*%
X73286857Y-103670380D02*
X73620190Y-103194190D01*
X73858285Y-103670380D02*
X73858285Y-102670380D01*
X73477333Y-102670380D01*
X73382095Y-102718000D01*
X73334476Y-102765619D01*
X73286857Y-102860857D01*
X73286857Y-103003714D01*
X73334476Y-103098952D01*
X73382095Y-103146571D01*
X73477333Y-103194190D01*
X73858285Y-103194190D01*
X72953523Y-102670380D02*
X72334476Y-102670380D01*
X72667809Y-103051333D01*
X72524952Y-103051333D01*
X72429714Y-103098952D01*
X72382095Y-103146571D01*
X72334476Y-103241809D01*
X72334476Y-103479904D01*
X72382095Y-103575142D01*
X72429714Y-103622761D01*
X72524952Y-103670380D01*
X72810666Y-103670380D01*
X72905904Y-103622761D01*
X72953523Y-103575142D01*
X72001142Y-102670380D02*
X71334476Y-102670380D01*
X71763047Y-103670380D01*
%TO.C,R36*%
X82748357Y-130626380D02*
X83081690Y-130150190D01*
X83319785Y-130626380D02*
X83319785Y-129626380D01*
X82938833Y-129626380D01*
X82843595Y-129674000D01*
X82795976Y-129721619D01*
X82748357Y-129816857D01*
X82748357Y-129959714D01*
X82795976Y-130054952D01*
X82843595Y-130102571D01*
X82938833Y-130150190D01*
X83319785Y-130150190D01*
X82415023Y-129626380D02*
X81795976Y-129626380D01*
X82129309Y-130007333D01*
X81986452Y-130007333D01*
X81891214Y-130054952D01*
X81843595Y-130102571D01*
X81795976Y-130197809D01*
X81795976Y-130435904D01*
X81843595Y-130531142D01*
X81891214Y-130578761D01*
X81986452Y-130626380D01*
X82272166Y-130626380D01*
X82367404Y-130578761D01*
X82415023Y-130531142D01*
X80938833Y-129626380D02*
X81129309Y-129626380D01*
X81224547Y-129674000D01*
X81272166Y-129721619D01*
X81367404Y-129864476D01*
X81415023Y-130054952D01*
X81415023Y-130435904D01*
X81367404Y-130531142D01*
X81319785Y-130578761D01*
X81224547Y-130626380D01*
X81034071Y-130626380D01*
X80938833Y-130578761D01*
X80891214Y-130531142D01*
X80843595Y-130435904D01*
X80843595Y-130197809D01*
X80891214Y-130102571D01*
X80938833Y-130054952D01*
X81034071Y-130007333D01*
X81224547Y-130007333D01*
X81319785Y-130054952D01*
X81367404Y-130102571D01*
X81415023Y-130197809D01*
%TO.C,R34*%
X87193357Y-130626380D02*
X87526690Y-130150190D01*
X87764785Y-130626380D02*
X87764785Y-129626380D01*
X87383833Y-129626380D01*
X87288595Y-129674000D01*
X87240976Y-129721619D01*
X87193357Y-129816857D01*
X87193357Y-129959714D01*
X87240976Y-130054952D01*
X87288595Y-130102571D01*
X87383833Y-130150190D01*
X87764785Y-130150190D01*
X86860023Y-129626380D02*
X86240976Y-129626380D01*
X86574309Y-130007333D01*
X86431452Y-130007333D01*
X86336214Y-130054952D01*
X86288595Y-130102571D01*
X86240976Y-130197809D01*
X86240976Y-130435904D01*
X86288595Y-130531142D01*
X86336214Y-130578761D01*
X86431452Y-130626380D01*
X86717166Y-130626380D01*
X86812404Y-130578761D01*
X86860023Y-130531142D01*
X85383833Y-129959714D02*
X85383833Y-130626380D01*
X85621928Y-129578761D02*
X85860023Y-130293047D01*
X85240976Y-130293047D01*
%TO.C,R32*%
X51632380Y-122356642D02*
X51156190Y-122023309D01*
X51632380Y-121785214D02*
X50632380Y-121785214D01*
X50632380Y-122166166D01*
X50680000Y-122261404D01*
X50727619Y-122309023D01*
X50822857Y-122356642D01*
X50965714Y-122356642D01*
X51060952Y-122309023D01*
X51108571Y-122261404D01*
X51156190Y-122166166D01*
X51156190Y-121785214D01*
X50632380Y-122689976D02*
X50632380Y-123309023D01*
X51013333Y-122975690D01*
X51013333Y-123118547D01*
X51060952Y-123213785D01*
X51108571Y-123261404D01*
X51203809Y-123309023D01*
X51441904Y-123309023D01*
X51537142Y-123261404D01*
X51584761Y-123213785D01*
X51632380Y-123118547D01*
X51632380Y-122832833D01*
X51584761Y-122737595D01*
X51537142Y-122689976D01*
X50727619Y-123689976D02*
X50680000Y-123737595D01*
X50632380Y-123832833D01*
X50632380Y-124070928D01*
X50680000Y-124166166D01*
X50727619Y-124213785D01*
X50822857Y-124261404D01*
X50918095Y-124261404D01*
X51060952Y-124213785D01*
X51632380Y-123642357D01*
X51632380Y-124261404D01*
%TO.C,R31*%
X52076880Y-110736142D02*
X51600690Y-110402809D01*
X52076880Y-110164714D02*
X51076880Y-110164714D01*
X51076880Y-110545666D01*
X51124500Y-110640904D01*
X51172119Y-110688523D01*
X51267357Y-110736142D01*
X51410214Y-110736142D01*
X51505452Y-110688523D01*
X51553071Y-110640904D01*
X51600690Y-110545666D01*
X51600690Y-110164714D01*
X51076880Y-111069476D02*
X51076880Y-111688523D01*
X51457833Y-111355190D01*
X51457833Y-111498047D01*
X51505452Y-111593285D01*
X51553071Y-111640904D01*
X51648309Y-111688523D01*
X51886404Y-111688523D01*
X51981642Y-111640904D01*
X52029261Y-111593285D01*
X52076880Y-111498047D01*
X52076880Y-111212333D01*
X52029261Y-111117095D01*
X51981642Y-111069476D01*
X52076880Y-112640904D02*
X52076880Y-112069476D01*
X52076880Y-112355190D02*
X51076880Y-112355190D01*
X51219738Y-112259952D01*
X51314976Y-112164714D01*
X51362595Y-112069476D01*
%TO.C,R30*%
X89414880Y-132580142D02*
X88938690Y-132246809D01*
X89414880Y-132008714D02*
X88414880Y-132008714D01*
X88414880Y-132389666D01*
X88462500Y-132484904D01*
X88510119Y-132532523D01*
X88605357Y-132580142D01*
X88748214Y-132580142D01*
X88843452Y-132532523D01*
X88891071Y-132484904D01*
X88938690Y-132389666D01*
X88938690Y-132008714D01*
X88414880Y-132913476D02*
X88414880Y-133532523D01*
X88795833Y-133199190D01*
X88795833Y-133342047D01*
X88843452Y-133437285D01*
X88891071Y-133484904D01*
X88986309Y-133532523D01*
X89224404Y-133532523D01*
X89319642Y-133484904D01*
X89367261Y-133437285D01*
X89414880Y-133342047D01*
X89414880Y-133056333D01*
X89367261Y-132961095D01*
X89319642Y-132913476D01*
X88414880Y-134151571D02*
X88414880Y-134246809D01*
X88462500Y-134342047D01*
X88510119Y-134389666D01*
X88605357Y-134437285D01*
X88795833Y-134484904D01*
X89033928Y-134484904D01*
X89224404Y-134437285D01*
X89319642Y-134389666D01*
X89367261Y-134342047D01*
X89414880Y-134246809D01*
X89414880Y-134151571D01*
X89367261Y-134056333D01*
X89319642Y-134008714D01*
X89224404Y-133961095D01*
X89033928Y-133913476D01*
X88795833Y-133913476D01*
X88605357Y-133961095D01*
X88510119Y-134008714D01*
X88462500Y-134056333D01*
X88414880Y-134151571D01*
%TO.C,R27*%
X95892857Y-131769380D02*
X96226190Y-131293190D01*
X96464285Y-131769380D02*
X96464285Y-130769380D01*
X96083333Y-130769380D01*
X95988095Y-130817000D01*
X95940476Y-130864619D01*
X95892857Y-130959857D01*
X95892857Y-131102714D01*
X95940476Y-131197952D01*
X95988095Y-131245571D01*
X96083333Y-131293190D01*
X96464285Y-131293190D01*
X95511904Y-130864619D02*
X95464285Y-130817000D01*
X95369047Y-130769380D01*
X95130952Y-130769380D01*
X95035714Y-130817000D01*
X94988095Y-130864619D01*
X94940476Y-130959857D01*
X94940476Y-131055095D01*
X94988095Y-131197952D01*
X95559523Y-131769380D01*
X94940476Y-131769380D01*
X94607142Y-130769380D02*
X93940476Y-130769380D01*
X94369047Y-131769380D01*
%TO.C,R25*%
X65911857Y-119704380D02*
X66245190Y-119228190D01*
X66483285Y-119704380D02*
X66483285Y-118704380D01*
X66102333Y-118704380D01*
X66007095Y-118752000D01*
X65959476Y-118799619D01*
X65911857Y-118894857D01*
X65911857Y-119037714D01*
X65959476Y-119132952D01*
X66007095Y-119180571D01*
X66102333Y-119228190D01*
X66483285Y-119228190D01*
X65530904Y-118799619D02*
X65483285Y-118752000D01*
X65388047Y-118704380D01*
X65149952Y-118704380D01*
X65054714Y-118752000D01*
X65007095Y-118799619D01*
X64959476Y-118894857D01*
X64959476Y-118990095D01*
X65007095Y-119132952D01*
X65578523Y-119704380D01*
X64959476Y-119704380D01*
X64054714Y-118704380D02*
X64530904Y-118704380D01*
X64578523Y-119180571D01*
X64530904Y-119132952D01*
X64435666Y-119085333D01*
X64197571Y-119085333D01*
X64102333Y-119132952D01*
X64054714Y-119180571D01*
X64007095Y-119275809D01*
X64007095Y-119513904D01*
X64054714Y-119609142D01*
X64102333Y-119656761D01*
X64197571Y-119704380D01*
X64435666Y-119704380D01*
X64530904Y-119656761D01*
X64578523Y-119609142D01*
%TO.C,R24*%
X159942880Y-118483142D02*
X159466690Y-118149809D01*
X159942880Y-117911714D02*
X158942880Y-117911714D01*
X158942880Y-118292666D01*
X158990500Y-118387904D01*
X159038119Y-118435523D01*
X159133357Y-118483142D01*
X159276214Y-118483142D01*
X159371452Y-118435523D01*
X159419071Y-118387904D01*
X159466690Y-118292666D01*
X159466690Y-117911714D01*
X159038119Y-118864095D02*
X158990500Y-118911714D01*
X158942880Y-119006952D01*
X158942880Y-119245047D01*
X158990500Y-119340285D01*
X159038119Y-119387904D01*
X159133357Y-119435523D01*
X159228595Y-119435523D01*
X159371452Y-119387904D01*
X159942880Y-118816476D01*
X159942880Y-119435523D01*
X159276214Y-120292666D02*
X159942880Y-120292666D01*
X158895261Y-120054571D02*
X159609547Y-119816476D01*
X159609547Y-120435523D01*
%TO.C,R23*%
X172833380Y-118610142D02*
X172357190Y-118276809D01*
X172833380Y-118038714D02*
X171833380Y-118038714D01*
X171833380Y-118419666D01*
X171881000Y-118514904D01*
X171928619Y-118562523D01*
X172023857Y-118610142D01*
X172166714Y-118610142D01*
X172261952Y-118562523D01*
X172309571Y-118514904D01*
X172357190Y-118419666D01*
X172357190Y-118038714D01*
X171928619Y-118991095D02*
X171881000Y-119038714D01*
X171833380Y-119133952D01*
X171833380Y-119372047D01*
X171881000Y-119467285D01*
X171928619Y-119514904D01*
X172023857Y-119562523D01*
X172119095Y-119562523D01*
X172261952Y-119514904D01*
X172833380Y-118943476D01*
X172833380Y-119562523D01*
X171833380Y-119895857D02*
X171833380Y-120514904D01*
X172214333Y-120181571D01*
X172214333Y-120324428D01*
X172261952Y-120419666D01*
X172309571Y-120467285D01*
X172404809Y-120514904D01*
X172642904Y-120514904D01*
X172738142Y-120467285D01*
X172785761Y-120419666D01*
X172833380Y-120324428D01*
X172833380Y-120038714D01*
X172785761Y-119943476D01*
X172738142Y-119895857D01*
%TO.C,R22*%
X172833380Y-131183142D02*
X172357190Y-130849809D01*
X172833380Y-130611714D02*
X171833380Y-130611714D01*
X171833380Y-130992666D01*
X171881000Y-131087904D01*
X171928619Y-131135523D01*
X172023857Y-131183142D01*
X172166714Y-131183142D01*
X172261952Y-131135523D01*
X172309571Y-131087904D01*
X172357190Y-130992666D01*
X172357190Y-130611714D01*
X171928619Y-131564095D02*
X171881000Y-131611714D01*
X171833380Y-131706952D01*
X171833380Y-131945047D01*
X171881000Y-132040285D01*
X171928619Y-132087904D01*
X172023857Y-132135523D01*
X172119095Y-132135523D01*
X172261952Y-132087904D01*
X172833380Y-131516476D01*
X172833380Y-132135523D01*
X171928619Y-132516476D02*
X171881000Y-132564095D01*
X171833380Y-132659333D01*
X171833380Y-132897428D01*
X171881000Y-132992666D01*
X171928619Y-133040285D01*
X172023857Y-133087904D01*
X172119095Y-133087904D01*
X172261952Y-133040285D01*
X172833380Y-132468857D01*
X172833380Y-133087904D01*
%TO.C,R21*%
X159942880Y-131183142D02*
X159466690Y-130849809D01*
X159942880Y-130611714D02*
X158942880Y-130611714D01*
X158942880Y-130992666D01*
X158990500Y-131087904D01*
X159038119Y-131135523D01*
X159133357Y-131183142D01*
X159276214Y-131183142D01*
X159371452Y-131135523D01*
X159419071Y-131087904D01*
X159466690Y-130992666D01*
X159466690Y-130611714D01*
X159038119Y-131564095D02*
X158990500Y-131611714D01*
X158942880Y-131706952D01*
X158942880Y-131945047D01*
X158990500Y-132040285D01*
X159038119Y-132087904D01*
X159133357Y-132135523D01*
X159228595Y-132135523D01*
X159371452Y-132087904D01*
X159942880Y-131516476D01*
X159942880Y-132135523D01*
X159942880Y-133087904D02*
X159942880Y-132516476D01*
X159942880Y-132802190D02*
X158942880Y-132802190D01*
X159085738Y-132706952D01*
X159180976Y-132611714D01*
X159228595Y-132516476D01*
%TO.C,R20*%
X87510857Y-142734380D02*
X87844190Y-142258190D01*
X88082285Y-142734380D02*
X88082285Y-141734380D01*
X87701333Y-141734380D01*
X87606095Y-141782000D01*
X87558476Y-141829619D01*
X87510857Y-141924857D01*
X87510857Y-142067714D01*
X87558476Y-142162952D01*
X87606095Y-142210571D01*
X87701333Y-142258190D01*
X88082285Y-142258190D01*
X87129904Y-141829619D02*
X87082285Y-141782000D01*
X86987047Y-141734380D01*
X86748952Y-141734380D01*
X86653714Y-141782000D01*
X86606095Y-141829619D01*
X86558476Y-141924857D01*
X86558476Y-142020095D01*
X86606095Y-142162952D01*
X87177523Y-142734380D01*
X86558476Y-142734380D01*
X85939428Y-141734380D02*
X85844190Y-141734380D01*
X85748952Y-141782000D01*
X85701333Y-141829619D01*
X85653714Y-141924857D01*
X85606095Y-142115333D01*
X85606095Y-142353428D01*
X85653714Y-142543904D01*
X85701333Y-142639142D01*
X85748952Y-142686761D01*
X85844190Y-142734380D01*
X85939428Y-142734380D01*
X86034666Y-142686761D01*
X86082285Y-142639142D01*
X86129904Y-142543904D01*
X86177523Y-142353428D01*
X86177523Y-142115333D01*
X86129904Y-141924857D01*
X86082285Y-141829619D01*
X86034666Y-141782000D01*
X85939428Y-141734380D01*
%TO.C,R19*%
X75064857Y-142734380D02*
X75398190Y-142258190D01*
X75636285Y-142734380D02*
X75636285Y-141734380D01*
X75255333Y-141734380D01*
X75160095Y-141782000D01*
X75112476Y-141829619D01*
X75064857Y-141924857D01*
X75064857Y-142067714D01*
X75112476Y-142162952D01*
X75160095Y-142210571D01*
X75255333Y-142258190D01*
X75636285Y-142258190D01*
X74112476Y-142734380D02*
X74683904Y-142734380D01*
X74398190Y-142734380D02*
X74398190Y-141734380D01*
X74493428Y-141877238D01*
X74588666Y-141972476D01*
X74683904Y-142020095D01*
X73636285Y-142734380D02*
X73445809Y-142734380D01*
X73350571Y-142686761D01*
X73302952Y-142639142D01*
X73207714Y-142496285D01*
X73160095Y-142305809D01*
X73160095Y-141924857D01*
X73207714Y-141829619D01*
X73255333Y-141782000D01*
X73350571Y-141734380D01*
X73541047Y-141734380D01*
X73636285Y-141782000D01*
X73683904Y-141829619D01*
X73731523Y-141924857D01*
X73731523Y-142162952D01*
X73683904Y-142258190D01*
X73636285Y-142305809D01*
X73541047Y-142353428D01*
X73350571Y-142353428D01*
X73255333Y-142305809D01*
X73207714Y-142258190D01*
X73160095Y-142162952D01*
%TO.C,R18*%
X99956857Y-142734380D02*
X100290190Y-142258190D01*
X100528285Y-142734380D02*
X100528285Y-141734380D01*
X100147333Y-141734380D01*
X100052095Y-141782000D01*
X100004476Y-141829619D01*
X99956857Y-141924857D01*
X99956857Y-142067714D01*
X100004476Y-142162952D01*
X100052095Y-142210571D01*
X100147333Y-142258190D01*
X100528285Y-142258190D01*
X99004476Y-142734380D02*
X99575904Y-142734380D01*
X99290190Y-142734380D02*
X99290190Y-141734380D01*
X99385428Y-141877238D01*
X99480666Y-141972476D01*
X99575904Y-142020095D01*
X98433047Y-142162952D02*
X98528285Y-142115333D01*
X98575904Y-142067714D01*
X98623523Y-141972476D01*
X98623523Y-141924857D01*
X98575904Y-141829619D01*
X98528285Y-141782000D01*
X98433047Y-141734380D01*
X98242571Y-141734380D01*
X98147333Y-141782000D01*
X98099714Y-141829619D01*
X98052095Y-141924857D01*
X98052095Y-141972476D01*
X98099714Y-142067714D01*
X98147333Y-142115333D01*
X98242571Y-142162952D01*
X98433047Y-142162952D01*
X98528285Y-142210571D01*
X98575904Y-142258190D01*
X98623523Y-142353428D01*
X98623523Y-142543904D01*
X98575904Y-142639142D01*
X98528285Y-142686761D01*
X98433047Y-142734380D01*
X98242571Y-142734380D01*
X98147333Y-142686761D01*
X98099714Y-142639142D01*
X98052095Y-142543904D01*
X98052095Y-142353428D01*
X98099714Y-142258190D01*
X98147333Y-142210571D01*
X98242571Y-142162952D01*
%TO.C,R17*%
X112402857Y-142861380D02*
X112736190Y-142385190D01*
X112974285Y-142861380D02*
X112974285Y-141861380D01*
X112593333Y-141861380D01*
X112498095Y-141909000D01*
X112450476Y-141956619D01*
X112402857Y-142051857D01*
X112402857Y-142194714D01*
X112450476Y-142289952D01*
X112498095Y-142337571D01*
X112593333Y-142385190D01*
X112974285Y-142385190D01*
X111450476Y-142861380D02*
X112021904Y-142861380D01*
X111736190Y-142861380D02*
X111736190Y-141861380D01*
X111831428Y-142004238D01*
X111926666Y-142099476D01*
X112021904Y-142147095D01*
X111117142Y-141861380D02*
X110450476Y-141861380D01*
X110879047Y-142861380D01*
%TO.C,R16*%
X124848857Y-142861380D02*
X125182190Y-142385190D01*
X125420285Y-142861380D02*
X125420285Y-141861380D01*
X125039333Y-141861380D01*
X124944095Y-141909000D01*
X124896476Y-141956619D01*
X124848857Y-142051857D01*
X124848857Y-142194714D01*
X124896476Y-142289952D01*
X124944095Y-142337571D01*
X125039333Y-142385190D01*
X125420285Y-142385190D01*
X123896476Y-142861380D02*
X124467904Y-142861380D01*
X124182190Y-142861380D02*
X124182190Y-141861380D01*
X124277428Y-142004238D01*
X124372666Y-142099476D01*
X124467904Y-142147095D01*
X123039333Y-141861380D02*
X123229809Y-141861380D01*
X123325047Y-141909000D01*
X123372666Y-141956619D01*
X123467904Y-142099476D01*
X123515523Y-142289952D01*
X123515523Y-142670904D01*
X123467904Y-142766142D01*
X123420285Y-142813761D01*
X123325047Y-142861380D01*
X123134571Y-142861380D01*
X123039333Y-142813761D01*
X122991714Y-142766142D01*
X122944095Y-142670904D01*
X122944095Y-142432809D01*
X122991714Y-142337571D01*
X123039333Y-142289952D01*
X123134571Y-142242333D01*
X123325047Y-142242333D01*
X123420285Y-142289952D01*
X123467904Y-142337571D01*
X123515523Y-142432809D01*
%TO.C,R7*%
X146884380Y-138771333D02*
X146408190Y-138438000D01*
X146884380Y-138199904D02*
X145884380Y-138199904D01*
X145884380Y-138580857D01*
X145932000Y-138676095D01*
X145979619Y-138723714D01*
X146074857Y-138771333D01*
X146217714Y-138771333D01*
X146312952Y-138723714D01*
X146360571Y-138676095D01*
X146408190Y-138580857D01*
X146408190Y-138199904D01*
X145884380Y-139104666D02*
X145884380Y-139771333D01*
X146884380Y-139342761D01*
%TO.C,R4*%
X143582380Y-138771333D02*
X143106190Y-138438000D01*
X143582380Y-138199904D02*
X142582380Y-138199904D01*
X142582380Y-138580857D01*
X142630000Y-138676095D01*
X142677619Y-138723714D01*
X142772857Y-138771333D01*
X142915714Y-138771333D01*
X143010952Y-138723714D01*
X143058571Y-138676095D01*
X143106190Y-138580857D01*
X143106190Y-138199904D01*
X142915714Y-139628476D02*
X143582380Y-139628476D01*
X142534761Y-139390380D02*
X143249047Y-139152285D01*
X143249047Y-139771333D01*
%TO.C,R2*%
X135802666Y-139230380D02*
X136136000Y-138754190D01*
X136374095Y-139230380D02*
X136374095Y-138230380D01*
X135993142Y-138230380D01*
X135897904Y-138278000D01*
X135850285Y-138325619D01*
X135802666Y-138420857D01*
X135802666Y-138563714D01*
X135850285Y-138658952D01*
X135897904Y-138706571D01*
X135993142Y-138754190D01*
X136374095Y-138754190D01*
X135421714Y-138325619D02*
X135374095Y-138278000D01*
X135278857Y-138230380D01*
X135040761Y-138230380D01*
X134945523Y-138278000D01*
X134897904Y-138325619D01*
X134850285Y-138420857D01*
X134850285Y-138516095D01*
X134897904Y-138658952D01*
X135469333Y-139230380D01*
X134850285Y-139230380D01*
%TO.C,R1*%
X135802666Y-141770380D02*
X136136000Y-141294190D01*
X136374095Y-141770380D02*
X136374095Y-140770380D01*
X135993142Y-140770380D01*
X135897904Y-140818000D01*
X135850285Y-140865619D01*
X135802666Y-140960857D01*
X135802666Y-141103714D01*
X135850285Y-141198952D01*
X135897904Y-141246571D01*
X135993142Y-141294190D01*
X136374095Y-141294190D01*
X134850285Y-141770380D02*
X135421714Y-141770380D01*
X135136000Y-141770380D02*
X135136000Y-140770380D01*
X135231238Y-140913238D01*
X135326476Y-141008476D01*
X135421714Y-141056095D01*
%TO.C,Q4*%
X59150238Y-133216619D02*
X59245476Y-133169000D01*
X59340714Y-133073761D01*
X59483571Y-132930904D01*
X59578809Y-132883285D01*
X59674047Y-132883285D01*
X59626428Y-133121380D02*
X59721666Y-133073761D01*
X59816904Y-132978523D01*
X59864523Y-132788047D01*
X59864523Y-132454714D01*
X59816904Y-132264238D01*
X59721666Y-132169000D01*
X59626428Y-132121380D01*
X59435952Y-132121380D01*
X59340714Y-132169000D01*
X59245476Y-132264238D01*
X59197857Y-132454714D01*
X59197857Y-132788047D01*
X59245476Y-132978523D01*
X59340714Y-133073761D01*
X59435952Y-133121380D01*
X59626428Y-133121380D01*
X58340714Y-132454714D02*
X58340714Y-133121380D01*
X58578809Y-132073761D02*
X58816904Y-132788047D01*
X58197857Y-132788047D01*
%TO.C,Q2*%
X57499238Y-127841619D02*
X57594476Y-127794000D01*
X57689714Y-127698761D01*
X57832571Y-127555904D01*
X57927809Y-127508285D01*
X58023047Y-127508285D01*
X57975428Y-127746380D02*
X58070666Y-127698761D01*
X58165904Y-127603523D01*
X58213523Y-127413047D01*
X58213523Y-127079714D01*
X58165904Y-126889238D01*
X58070666Y-126794000D01*
X57975428Y-126746380D01*
X57784952Y-126746380D01*
X57689714Y-126794000D01*
X57594476Y-126889238D01*
X57546857Y-127079714D01*
X57546857Y-127413047D01*
X57594476Y-127603523D01*
X57689714Y-127698761D01*
X57784952Y-127746380D01*
X57975428Y-127746380D01*
X57165904Y-126841619D02*
X57118285Y-126794000D01*
X57023047Y-126746380D01*
X56784952Y-126746380D01*
X56689714Y-126794000D01*
X56642095Y-126841619D01*
X56594476Y-126936857D01*
X56594476Y-127032095D01*
X56642095Y-127174952D01*
X57213523Y-127746380D01*
X56594476Y-127746380D01*
%TO.C,Q1*%
X43656238Y-129412619D02*
X43751476Y-129365000D01*
X43846714Y-129269761D01*
X43989571Y-129126904D01*
X44084809Y-129079285D01*
X44180047Y-129079285D01*
X44132428Y-129317380D02*
X44227666Y-129269761D01*
X44322904Y-129174523D01*
X44370523Y-128984047D01*
X44370523Y-128650714D01*
X44322904Y-128460238D01*
X44227666Y-128365000D01*
X44132428Y-128317380D01*
X43941952Y-128317380D01*
X43846714Y-128365000D01*
X43751476Y-128460238D01*
X43703857Y-128650714D01*
X43703857Y-128984047D01*
X43751476Y-129174523D01*
X43846714Y-129269761D01*
X43941952Y-129317380D01*
X44132428Y-129317380D01*
X42751476Y-129317380D02*
X43322904Y-129317380D01*
X43037190Y-129317380D02*
X43037190Y-128317380D01*
X43132428Y-128460238D01*
X43227666Y-128555476D01*
X43322904Y-128603095D01*
%TO.C,L5*%
X150592380Y-78636833D02*
X150592380Y-78160642D01*
X149592380Y-78160642D01*
X149592380Y-79446357D02*
X149592380Y-78970166D01*
X150068571Y-78922547D01*
X150020952Y-78970166D01*
X149973333Y-79065404D01*
X149973333Y-79303500D01*
X150020952Y-79398738D01*
X150068571Y-79446357D01*
X150163809Y-79493976D01*
X150401904Y-79493976D01*
X150497142Y-79446357D01*
X150544761Y-79398738D01*
X150592380Y-79303500D01*
X150592380Y-79065404D01*
X150544761Y-78970166D01*
X150497142Y-78922547D01*
%TO.C,L4*%
X70905666Y-117530380D02*
X71381857Y-117530380D01*
X71381857Y-116530380D01*
X70143761Y-116863714D02*
X70143761Y-117530380D01*
X70381857Y-116482761D02*
X70619952Y-117197047D01*
X70000904Y-117197047D01*
%TO.C,FB2*%
X172791333Y-146072571D02*
X173124666Y-146072571D01*
X173124666Y-146596380D02*
X173124666Y-145596380D01*
X172648476Y-145596380D01*
X171934190Y-146072571D02*
X171791333Y-146120190D01*
X171743714Y-146167809D01*
X171696095Y-146263047D01*
X171696095Y-146405904D01*
X171743714Y-146501142D01*
X171791333Y-146548761D01*
X171886571Y-146596380D01*
X172267523Y-146596380D01*
X172267523Y-145596380D01*
X171934190Y-145596380D01*
X171838952Y-145644000D01*
X171791333Y-145691619D01*
X171743714Y-145786857D01*
X171743714Y-145882095D01*
X171791333Y-145977333D01*
X171838952Y-146024952D01*
X171934190Y-146072571D01*
X172267523Y-146072571D01*
X171315142Y-145691619D02*
X171267523Y-145644000D01*
X171172285Y-145596380D01*
X170934190Y-145596380D01*
X170838952Y-145644000D01*
X170791333Y-145691619D01*
X170743714Y-145786857D01*
X170743714Y-145882095D01*
X170791333Y-146024952D01*
X171362761Y-146596380D01*
X170743714Y-146596380D01*
%TO.C,FB1*%
X149948571Y-150042666D02*
X149948571Y-149709333D01*
X150472380Y-149709333D02*
X149472380Y-149709333D01*
X149472380Y-150185523D01*
X149948571Y-150899809D02*
X149996190Y-151042666D01*
X150043809Y-151090285D01*
X150139047Y-151137904D01*
X150281904Y-151137904D01*
X150377142Y-151090285D01*
X150424761Y-151042666D01*
X150472380Y-150947428D01*
X150472380Y-150566476D01*
X149472380Y-150566476D01*
X149472380Y-150899809D01*
X149520000Y-150995047D01*
X149567619Y-151042666D01*
X149662857Y-151090285D01*
X149758095Y-151090285D01*
X149853333Y-151042666D01*
X149900952Y-150995047D01*
X149948571Y-150899809D01*
X149948571Y-150566476D01*
X150472380Y-152090285D02*
X150472380Y-151518857D01*
X150472380Y-151804571D02*
X149472380Y-151804571D01*
X149615238Y-151709333D01*
X149710476Y-151614095D01*
X149758095Y-151518857D01*
%TO.C,D42*%
X46172285Y-144001380D02*
X46172285Y-143001380D01*
X45934190Y-143001380D01*
X45791333Y-143049000D01*
X45696095Y-143144238D01*
X45648476Y-143239476D01*
X45600857Y-143429952D01*
X45600857Y-143572809D01*
X45648476Y-143763285D01*
X45696095Y-143858523D01*
X45791333Y-143953761D01*
X45934190Y-144001380D01*
X46172285Y-144001380D01*
X44743714Y-143334714D02*
X44743714Y-144001380D01*
X44981809Y-142953761D02*
X45219904Y-143668047D01*
X44600857Y-143668047D01*
X44267523Y-143096619D02*
X44219904Y-143049000D01*
X44124666Y-143001380D01*
X43886571Y-143001380D01*
X43791333Y-143049000D01*
X43743714Y-143096619D01*
X43696095Y-143191857D01*
X43696095Y-143287095D01*
X43743714Y-143429952D01*
X44315142Y-144001380D01*
X43696095Y-144001380D01*
X49029904Y-144321380D02*
X49029904Y-143321380D01*
X48458476Y-144321380D02*
X48887047Y-143749952D01*
X48458476Y-143321380D02*
X49029904Y-143892809D01*
%TO.C,D41*%
X46172285Y-151098880D02*
X46172285Y-150098880D01*
X45934190Y-150098880D01*
X45791333Y-150146500D01*
X45696095Y-150241738D01*
X45648476Y-150336976D01*
X45600857Y-150527452D01*
X45600857Y-150670309D01*
X45648476Y-150860785D01*
X45696095Y-150956023D01*
X45791333Y-151051261D01*
X45934190Y-151098880D01*
X46172285Y-151098880D01*
X44743714Y-150432214D02*
X44743714Y-151098880D01*
X44981809Y-150051261D02*
X45219904Y-150765547D01*
X44600857Y-150765547D01*
X43696095Y-151098880D02*
X44267523Y-151098880D01*
X43981809Y-151098880D02*
X43981809Y-150098880D01*
X44077047Y-150241738D01*
X44172285Y-150336976D01*
X44267523Y-150384595D01*
X41409904Y-150778880D02*
X41409904Y-149778880D01*
X40838476Y-150778880D02*
X41267047Y-150207452D01*
X40838476Y-149778880D02*
X41409904Y-150350309D01*
%TO.C,D39*%
X58618285Y-123174380D02*
X58618285Y-122174380D01*
X58380190Y-122174380D01*
X58237333Y-122222000D01*
X58142095Y-122317238D01*
X58094476Y-122412476D01*
X58046857Y-122602952D01*
X58046857Y-122745809D01*
X58094476Y-122936285D01*
X58142095Y-123031523D01*
X58237333Y-123126761D01*
X58380190Y-123174380D01*
X58618285Y-123174380D01*
X57713523Y-122174380D02*
X57094476Y-122174380D01*
X57427809Y-122555333D01*
X57284952Y-122555333D01*
X57189714Y-122602952D01*
X57142095Y-122650571D01*
X57094476Y-122745809D01*
X57094476Y-122983904D01*
X57142095Y-123079142D01*
X57189714Y-123126761D01*
X57284952Y-123174380D01*
X57570666Y-123174380D01*
X57665904Y-123126761D01*
X57713523Y-123079142D01*
X56618285Y-123174380D02*
X56427809Y-123174380D01*
X56332571Y-123126761D01*
X56284952Y-123079142D01*
X56189714Y-122936285D01*
X56142095Y-122745809D01*
X56142095Y-122364857D01*
X56189714Y-122269619D01*
X56237333Y-122222000D01*
X56332571Y-122174380D01*
X56523047Y-122174380D01*
X56618285Y-122222000D01*
X56665904Y-122269619D01*
X56713523Y-122364857D01*
X56713523Y-122602952D01*
X56665904Y-122698190D01*
X56618285Y-122745809D01*
X56523047Y-122793428D01*
X56332571Y-122793428D01*
X56237333Y-122745809D01*
X56189714Y-122698190D01*
X56142095Y-122602952D01*
%TO.C,D38*%
X44775285Y-133889380D02*
X44775285Y-132889380D01*
X44537190Y-132889380D01*
X44394333Y-132937000D01*
X44299095Y-133032238D01*
X44251476Y-133127476D01*
X44203857Y-133317952D01*
X44203857Y-133460809D01*
X44251476Y-133651285D01*
X44299095Y-133746523D01*
X44394333Y-133841761D01*
X44537190Y-133889380D01*
X44775285Y-133889380D01*
X43870523Y-132889380D02*
X43251476Y-132889380D01*
X43584809Y-133270333D01*
X43441952Y-133270333D01*
X43346714Y-133317952D01*
X43299095Y-133365571D01*
X43251476Y-133460809D01*
X43251476Y-133698904D01*
X43299095Y-133794142D01*
X43346714Y-133841761D01*
X43441952Y-133889380D01*
X43727666Y-133889380D01*
X43822904Y-133841761D01*
X43870523Y-133794142D01*
X42680047Y-133317952D02*
X42775285Y-133270333D01*
X42822904Y-133222714D01*
X42870523Y-133127476D01*
X42870523Y-133079857D01*
X42822904Y-132984619D01*
X42775285Y-132937000D01*
X42680047Y-132889380D01*
X42489571Y-132889380D01*
X42394333Y-132937000D01*
X42346714Y-132984619D01*
X42299095Y-133079857D01*
X42299095Y-133127476D01*
X42346714Y-133222714D01*
X42394333Y-133270333D01*
X42489571Y-133317952D01*
X42680047Y-133317952D01*
X42775285Y-133365571D01*
X42822904Y-133413190D01*
X42870523Y-133508428D01*
X42870523Y-133698904D01*
X42822904Y-133794142D01*
X42775285Y-133841761D01*
X42680047Y-133889380D01*
X42489571Y-133889380D01*
X42394333Y-133841761D01*
X42346714Y-133794142D01*
X42299095Y-133698904D01*
X42299095Y-133508428D01*
X42346714Y-133413190D01*
X42394333Y-133365571D01*
X42489571Y-133317952D01*
%TO.C,D36*%
X139898285Y-51720380D02*
X139898285Y-50720380D01*
X139660190Y-50720380D01*
X139517333Y-50768000D01*
X139422095Y-50863238D01*
X139374476Y-50958476D01*
X139326857Y-51148952D01*
X139326857Y-51291809D01*
X139374476Y-51482285D01*
X139422095Y-51577523D01*
X139517333Y-51672761D01*
X139660190Y-51720380D01*
X139898285Y-51720380D01*
X138993523Y-50720380D02*
X138374476Y-50720380D01*
X138707809Y-51101333D01*
X138564952Y-51101333D01*
X138469714Y-51148952D01*
X138422095Y-51196571D01*
X138374476Y-51291809D01*
X138374476Y-51529904D01*
X138422095Y-51625142D01*
X138469714Y-51672761D01*
X138564952Y-51720380D01*
X138850666Y-51720380D01*
X138945904Y-51672761D01*
X138993523Y-51625142D01*
X137517333Y-50720380D02*
X137707809Y-50720380D01*
X137803047Y-50768000D01*
X137850666Y-50815619D01*
X137945904Y-50958476D01*
X137993523Y-51148952D01*
X137993523Y-51529904D01*
X137945904Y-51625142D01*
X137898285Y-51672761D01*
X137803047Y-51720380D01*
X137612571Y-51720380D01*
X137517333Y-51672761D01*
X137469714Y-51625142D01*
X137422095Y-51529904D01*
X137422095Y-51291809D01*
X137469714Y-51196571D01*
X137517333Y-51148952D01*
X137612571Y-51101333D01*
X137803047Y-51101333D01*
X137898285Y-51148952D01*
X137945904Y-51196571D01*
X137993523Y-51291809D01*
%TO.C,D34*%
X110307285Y-51720380D02*
X110307285Y-50720380D01*
X110069190Y-50720380D01*
X109926333Y-50768000D01*
X109831095Y-50863238D01*
X109783476Y-50958476D01*
X109735857Y-51148952D01*
X109735857Y-51291809D01*
X109783476Y-51482285D01*
X109831095Y-51577523D01*
X109926333Y-51672761D01*
X110069190Y-51720380D01*
X110307285Y-51720380D01*
X109402523Y-50720380D02*
X108783476Y-50720380D01*
X109116809Y-51101333D01*
X108973952Y-51101333D01*
X108878714Y-51148952D01*
X108831095Y-51196571D01*
X108783476Y-51291809D01*
X108783476Y-51529904D01*
X108831095Y-51625142D01*
X108878714Y-51672761D01*
X108973952Y-51720380D01*
X109259666Y-51720380D01*
X109354904Y-51672761D01*
X109402523Y-51625142D01*
X107926333Y-51053714D02*
X107926333Y-51720380D01*
X108164428Y-50672761D02*
X108402523Y-51387047D01*
X107783476Y-51387047D01*
%TO.C,D32*%
X139898285Y-46640380D02*
X139898285Y-45640380D01*
X139660190Y-45640380D01*
X139517333Y-45688000D01*
X139422095Y-45783238D01*
X139374476Y-45878476D01*
X139326857Y-46068952D01*
X139326857Y-46211809D01*
X139374476Y-46402285D01*
X139422095Y-46497523D01*
X139517333Y-46592761D01*
X139660190Y-46640380D01*
X139898285Y-46640380D01*
X138993523Y-45640380D02*
X138374476Y-45640380D01*
X138707809Y-46021333D01*
X138564952Y-46021333D01*
X138469714Y-46068952D01*
X138422095Y-46116571D01*
X138374476Y-46211809D01*
X138374476Y-46449904D01*
X138422095Y-46545142D01*
X138469714Y-46592761D01*
X138564952Y-46640380D01*
X138850666Y-46640380D01*
X138945904Y-46592761D01*
X138993523Y-46545142D01*
X137993523Y-45735619D02*
X137945904Y-45688000D01*
X137850666Y-45640380D01*
X137612571Y-45640380D01*
X137517333Y-45688000D01*
X137469714Y-45735619D01*
X137422095Y-45830857D01*
X137422095Y-45926095D01*
X137469714Y-46068952D01*
X138041142Y-46640380D01*
X137422095Y-46640380D01*
%TO.C,D30*%
X110307285Y-46640380D02*
X110307285Y-45640380D01*
X110069190Y-45640380D01*
X109926333Y-45688000D01*
X109831095Y-45783238D01*
X109783476Y-45878476D01*
X109735857Y-46068952D01*
X109735857Y-46211809D01*
X109783476Y-46402285D01*
X109831095Y-46497523D01*
X109926333Y-46592761D01*
X110069190Y-46640380D01*
X110307285Y-46640380D01*
X109402523Y-45640380D02*
X108783476Y-45640380D01*
X109116809Y-46021333D01*
X108973952Y-46021333D01*
X108878714Y-46068952D01*
X108831095Y-46116571D01*
X108783476Y-46211809D01*
X108783476Y-46449904D01*
X108831095Y-46545142D01*
X108878714Y-46592761D01*
X108973952Y-46640380D01*
X109259666Y-46640380D01*
X109354904Y-46592761D01*
X109402523Y-46545142D01*
X108164428Y-45640380D02*
X108069190Y-45640380D01*
X107973952Y-45688000D01*
X107926333Y-45735619D01*
X107878714Y-45830857D01*
X107831095Y-46021333D01*
X107831095Y-46259428D01*
X107878714Y-46449904D01*
X107926333Y-46545142D01*
X107973952Y-46592761D01*
X108069190Y-46640380D01*
X108164428Y-46640380D01*
X108259666Y-46592761D01*
X108307285Y-46545142D01*
X108354904Y-46449904D01*
X108402523Y-46259428D01*
X108402523Y-46021333D01*
X108354904Y-45830857D01*
X108307285Y-45735619D01*
X108259666Y-45688000D01*
X108164428Y-45640380D01*
%TO.C,D28*%
X150058285Y-51720380D02*
X150058285Y-50720380D01*
X149820190Y-50720380D01*
X149677333Y-50768000D01*
X149582095Y-50863238D01*
X149534476Y-50958476D01*
X149486857Y-51148952D01*
X149486857Y-51291809D01*
X149534476Y-51482285D01*
X149582095Y-51577523D01*
X149677333Y-51672761D01*
X149820190Y-51720380D01*
X150058285Y-51720380D01*
X149105904Y-50815619D02*
X149058285Y-50768000D01*
X148963047Y-50720380D01*
X148724952Y-50720380D01*
X148629714Y-50768000D01*
X148582095Y-50815619D01*
X148534476Y-50910857D01*
X148534476Y-51006095D01*
X148582095Y-51148952D01*
X149153523Y-51720380D01*
X148534476Y-51720380D01*
X147963047Y-51148952D02*
X148058285Y-51101333D01*
X148105904Y-51053714D01*
X148153523Y-50958476D01*
X148153523Y-50910857D01*
X148105904Y-50815619D01*
X148058285Y-50768000D01*
X147963047Y-50720380D01*
X147772571Y-50720380D01*
X147677333Y-50768000D01*
X147629714Y-50815619D01*
X147582095Y-50910857D01*
X147582095Y-50958476D01*
X147629714Y-51053714D01*
X147677333Y-51101333D01*
X147772571Y-51148952D01*
X147963047Y-51148952D01*
X148058285Y-51196571D01*
X148105904Y-51244190D01*
X148153523Y-51339428D01*
X148153523Y-51529904D01*
X148105904Y-51625142D01*
X148058285Y-51672761D01*
X147963047Y-51720380D01*
X147772571Y-51720380D01*
X147677333Y-51672761D01*
X147629714Y-51625142D01*
X147582095Y-51529904D01*
X147582095Y-51339428D01*
X147629714Y-51244190D01*
X147677333Y-51196571D01*
X147772571Y-51148952D01*
%TO.C,D26*%
X120467285Y-51720380D02*
X120467285Y-50720380D01*
X120229190Y-50720380D01*
X120086333Y-50768000D01*
X119991095Y-50863238D01*
X119943476Y-50958476D01*
X119895857Y-51148952D01*
X119895857Y-51291809D01*
X119943476Y-51482285D01*
X119991095Y-51577523D01*
X120086333Y-51672761D01*
X120229190Y-51720380D01*
X120467285Y-51720380D01*
X119514904Y-50815619D02*
X119467285Y-50768000D01*
X119372047Y-50720380D01*
X119133952Y-50720380D01*
X119038714Y-50768000D01*
X118991095Y-50815619D01*
X118943476Y-50910857D01*
X118943476Y-51006095D01*
X118991095Y-51148952D01*
X119562523Y-51720380D01*
X118943476Y-51720380D01*
X118086333Y-50720380D02*
X118276809Y-50720380D01*
X118372047Y-50768000D01*
X118419666Y-50815619D01*
X118514904Y-50958476D01*
X118562523Y-51148952D01*
X118562523Y-51529904D01*
X118514904Y-51625142D01*
X118467285Y-51672761D01*
X118372047Y-51720380D01*
X118181571Y-51720380D01*
X118086333Y-51672761D01*
X118038714Y-51625142D01*
X117991095Y-51529904D01*
X117991095Y-51291809D01*
X118038714Y-51196571D01*
X118086333Y-51148952D01*
X118181571Y-51101333D01*
X118372047Y-51101333D01*
X118467285Y-51148952D01*
X118514904Y-51196571D01*
X118562523Y-51291809D01*
%TO.C,D24*%
X150058285Y-46640380D02*
X150058285Y-45640380D01*
X149820190Y-45640380D01*
X149677333Y-45688000D01*
X149582095Y-45783238D01*
X149534476Y-45878476D01*
X149486857Y-46068952D01*
X149486857Y-46211809D01*
X149534476Y-46402285D01*
X149582095Y-46497523D01*
X149677333Y-46592761D01*
X149820190Y-46640380D01*
X150058285Y-46640380D01*
X149105904Y-45735619D02*
X149058285Y-45688000D01*
X148963047Y-45640380D01*
X148724952Y-45640380D01*
X148629714Y-45688000D01*
X148582095Y-45735619D01*
X148534476Y-45830857D01*
X148534476Y-45926095D01*
X148582095Y-46068952D01*
X149153523Y-46640380D01*
X148534476Y-46640380D01*
X147677333Y-45973714D02*
X147677333Y-46640380D01*
X147915428Y-45592761D02*
X148153523Y-46307047D01*
X147534476Y-46307047D01*
%TO.C,D22*%
X120467285Y-46640380D02*
X120467285Y-45640380D01*
X120229190Y-45640380D01*
X120086333Y-45688000D01*
X119991095Y-45783238D01*
X119943476Y-45878476D01*
X119895857Y-46068952D01*
X119895857Y-46211809D01*
X119943476Y-46402285D01*
X119991095Y-46497523D01*
X120086333Y-46592761D01*
X120229190Y-46640380D01*
X120467285Y-46640380D01*
X119514904Y-45735619D02*
X119467285Y-45688000D01*
X119372047Y-45640380D01*
X119133952Y-45640380D01*
X119038714Y-45688000D01*
X118991095Y-45735619D01*
X118943476Y-45830857D01*
X118943476Y-45926095D01*
X118991095Y-46068952D01*
X119562523Y-46640380D01*
X118943476Y-46640380D01*
X118562523Y-45735619D02*
X118514904Y-45688000D01*
X118419666Y-45640380D01*
X118181571Y-45640380D01*
X118086333Y-45688000D01*
X118038714Y-45735619D01*
X117991095Y-45830857D01*
X117991095Y-45926095D01*
X118038714Y-46068952D01*
X118610142Y-46640380D01*
X117991095Y-46640380D01*
%TO.C,D20*%
X81097285Y-51720380D02*
X81097285Y-50720380D01*
X80859190Y-50720380D01*
X80716333Y-50768000D01*
X80621095Y-50863238D01*
X80573476Y-50958476D01*
X80525857Y-51148952D01*
X80525857Y-51291809D01*
X80573476Y-51482285D01*
X80621095Y-51577523D01*
X80716333Y-51672761D01*
X80859190Y-51720380D01*
X81097285Y-51720380D01*
X80144904Y-50815619D02*
X80097285Y-50768000D01*
X80002047Y-50720380D01*
X79763952Y-50720380D01*
X79668714Y-50768000D01*
X79621095Y-50815619D01*
X79573476Y-50910857D01*
X79573476Y-51006095D01*
X79621095Y-51148952D01*
X80192523Y-51720380D01*
X79573476Y-51720380D01*
X78954428Y-50720380D02*
X78859190Y-50720380D01*
X78763952Y-50768000D01*
X78716333Y-50815619D01*
X78668714Y-50910857D01*
X78621095Y-51101333D01*
X78621095Y-51339428D01*
X78668714Y-51529904D01*
X78716333Y-51625142D01*
X78763952Y-51672761D01*
X78859190Y-51720380D01*
X78954428Y-51720380D01*
X79049666Y-51672761D01*
X79097285Y-51625142D01*
X79144904Y-51529904D01*
X79192523Y-51339428D01*
X79192523Y-51101333D01*
X79144904Y-50910857D01*
X79097285Y-50815619D01*
X79049666Y-50768000D01*
X78954428Y-50720380D01*
%TO.C,D18*%
X52141285Y-51720380D02*
X52141285Y-50720380D01*
X51903190Y-50720380D01*
X51760333Y-50768000D01*
X51665095Y-50863238D01*
X51617476Y-50958476D01*
X51569857Y-51148952D01*
X51569857Y-51291809D01*
X51617476Y-51482285D01*
X51665095Y-51577523D01*
X51760333Y-51672761D01*
X51903190Y-51720380D01*
X52141285Y-51720380D01*
X50617476Y-51720380D02*
X51188904Y-51720380D01*
X50903190Y-51720380D02*
X50903190Y-50720380D01*
X50998428Y-50863238D01*
X51093666Y-50958476D01*
X51188904Y-51006095D01*
X50046047Y-51148952D02*
X50141285Y-51101333D01*
X50188904Y-51053714D01*
X50236523Y-50958476D01*
X50236523Y-50910857D01*
X50188904Y-50815619D01*
X50141285Y-50768000D01*
X50046047Y-50720380D01*
X49855571Y-50720380D01*
X49760333Y-50768000D01*
X49712714Y-50815619D01*
X49665095Y-50910857D01*
X49665095Y-50958476D01*
X49712714Y-51053714D01*
X49760333Y-51101333D01*
X49855571Y-51148952D01*
X50046047Y-51148952D01*
X50141285Y-51196571D01*
X50188904Y-51244190D01*
X50236523Y-51339428D01*
X50236523Y-51529904D01*
X50188904Y-51625142D01*
X50141285Y-51672761D01*
X50046047Y-51720380D01*
X49855571Y-51720380D01*
X49760333Y-51672761D01*
X49712714Y-51625142D01*
X49665095Y-51529904D01*
X49665095Y-51339428D01*
X49712714Y-51244190D01*
X49760333Y-51196571D01*
X49855571Y-51148952D01*
%TO.C,D16*%
X81097285Y-46640380D02*
X81097285Y-45640380D01*
X80859190Y-45640380D01*
X80716333Y-45688000D01*
X80621095Y-45783238D01*
X80573476Y-45878476D01*
X80525857Y-46068952D01*
X80525857Y-46211809D01*
X80573476Y-46402285D01*
X80621095Y-46497523D01*
X80716333Y-46592761D01*
X80859190Y-46640380D01*
X81097285Y-46640380D01*
X79573476Y-46640380D02*
X80144904Y-46640380D01*
X79859190Y-46640380D02*
X79859190Y-45640380D01*
X79954428Y-45783238D01*
X80049666Y-45878476D01*
X80144904Y-45926095D01*
X78716333Y-45640380D02*
X78906809Y-45640380D01*
X79002047Y-45688000D01*
X79049666Y-45735619D01*
X79144904Y-45878476D01*
X79192523Y-46068952D01*
X79192523Y-46449904D01*
X79144904Y-46545142D01*
X79097285Y-46592761D01*
X79002047Y-46640380D01*
X78811571Y-46640380D01*
X78716333Y-46592761D01*
X78668714Y-46545142D01*
X78621095Y-46449904D01*
X78621095Y-46211809D01*
X78668714Y-46116571D01*
X78716333Y-46068952D01*
X78811571Y-46021333D01*
X79002047Y-46021333D01*
X79097285Y-46068952D01*
X79144904Y-46116571D01*
X79192523Y-46211809D01*
%TO.C,D14*%
X52141285Y-46640380D02*
X52141285Y-45640380D01*
X51903190Y-45640380D01*
X51760333Y-45688000D01*
X51665095Y-45783238D01*
X51617476Y-45878476D01*
X51569857Y-46068952D01*
X51569857Y-46211809D01*
X51617476Y-46402285D01*
X51665095Y-46497523D01*
X51760333Y-46592761D01*
X51903190Y-46640380D01*
X52141285Y-46640380D01*
X50617476Y-46640380D02*
X51188904Y-46640380D01*
X50903190Y-46640380D02*
X50903190Y-45640380D01*
X50998428Y-45783238D01*
X51093666Y-45878476D01*
X51188904Y-45926095D01*
X49760333Y-45973714D02*
X49760333Y-46640380D01*
X49998428Y-45592761D02*
X50236523Y-46307047D01*
X49617476Y-46307047D01*
%TO.C,D12*%
X91384285Y-51720380D02*
X91384285Y-50720380D01*
X91146190Y-50720380D01*
X91003333Y-50768000D01*
X90908095Y-50863238D01*
X90860476Y-50958476D01*
X90812857Y-51148952D01*
X90812857Y-51291809D01*
X90860476Y-51482285D01*
X90908095Y-51577523D01*
X91003333Y-51672761D01*
X91146190Y-51720380D01*
X91384285Y-51720380D01*
X89860476Y-51720380D02*
X90431904Y-51720380D01*
X90146190Y-51720380D02*
X90146190Y-50720380D01*
X90241428Y-50863238D01*
X90336666Y-50958476D01*
X90431904Y-51006095D01*
X89479523Y-50815619D02*
X89431904Y-50768000D01*
X89336666Y-50720380D01*
X89098571Y-50720380D01*
X89003333Y-50768000D01*
X88955714Y-50815619D01*
X88908095Y-50910857D01*
X88908095Y-51006095D01*
X88955714Y-51148952D01*
X89527142Y-51720380D01*
X88908095Y-51720380D01*
%TO.C,D10*%
X62428285Y-51720380D02*
X62428285Y-50720380D01*
X62190190Y-50720380D01*
X62047333Y-50768000D01*
X61952095Y-50863238D01*
X61904476Y-50958476D01*
X61856857Y-51148952D01*
X61856857Y-51291809D01*
X61904476Y-51482285D01*
X61952095Y-51577523D01*
X62047333Y-51672761D01*
X62190190Y-51720380D01*
X62428285Y-51720380D01*
X60904476Y-51720380D02*
X61475904Y-51720380D01*
X61190190Y-51720380D02*
X61190190Y-50720380D01*
X61285428Y-50863238D01*
X61380666Y-50958476D01*
X61475904Y-51006095D01*
X60285428Y-50720380D02*
X60190190Y-50720380D01*
X60094952Y-50768000D01*
X60047333Y-50815619D01*
X59999714Y-50910857D01*
X59952095Y-51101333D01*
X59952095Y-51339428D01*
X59999714Y-51529904D01*
X60047333Y-51625142D01*
X60094952Y-51672761D01*
X60190190Y-51720380D01*
X60285428Y-51720380D01*
X60380666Y-51672761D01*
X60428285Y-51625142D01*
X60475904Y-51529904D01*
X60523523Y-51339428D01*
X60523523Y-51101333D01*
X60475904Y-50910857D01*
X60428285Y-50815619D01*
X60380666Y-50768000D01*
X60285428Y-50720380D01*
%TO.C,D8*%
X90908095Y-46640380D02*
X90908095Y-45640380D01*
X90670000Y-45640380D01*
X90527142Y-45688000D01*
X90431904Y-45783238D01*
X90384285Y-45878476D01*
X90336666Y-46068952D01*
X90336666Y-46211809D01*
X90384285Y-46402285D01*
X90431904Y-46497523D01*
X90527142Y-46592761D01*
X90670000Y-46640380D01*
X90908095Y-46640380D01*
X89765238Y-46068952D02*
X89860476Y-46021333D01*
X89908095Y-45973714D01*
X89955714Y-45878476D01*
X89955714Y-45830857D01*
X89908095Y-45735619D01*
X89860476Y-45688000D01*
X89765238Y-45640380D01*
X89574761Y-45640380D01*
X89479523Y-45688000D01*
X89431904Y-45735619D01*
X89384285Y-45830857D01*
X89384285Y-45878476D01*
X89431904Y-45973714D01*
X89479523Y-46021333D01*
X89574761Y-46068952D01*
X89765238Y-46068952D01*
X89860476Y-46116571D01*
X89908095Y-46164190D01*
X89955714Y-46259428D01*
X89955714Y-46449904D01*
X89908095Y-46545142D01*
X89860476Y-46592761D01*
X89765238Y-46640380D01*
X89574761Y-46640380D01*
X89479523Y-46592761D01*
X89431904Y-46545142D01*
X89384285Y-46449904D01*
X89384285Y-46259428D01*
X89431904Y-46164190D01*
X89479523Y-46116571D01*
X89574761Y-46068952D01*
%TO.C,D6*%
X61952095Y-46640380D02*
X61952095Y-45640380D01*
X61714000Y-45640380D01*
X61571142Y-45688000D01*
X61475904Y-45783238D01*
X61428285Y-45878476D01*
X61380666Y-46068952D01*
X61380666Y-46211809D01*
X61428285Y-46402285D01*
X61475904Y-46497523D01*
X61571142Y-46592761D01*
X61714000Y-46640380D01*
X61952095Y-46640380D01*
X60523523Y-45640380D02*
X60714000Y-45640380D01*
X60809238Y-45688000D01*
X60856857Y-45735619D01*
X60952095Y-45878476D01*
X60999714Y-46068952D01*
X60999714Y-46449904D01*
X60952095Y-46545142D01*
X60904476Y-46592761D01*
X60809238Y-46640380D01*
X60618761Y-46640380D01*
X60523523Y-46592761D01*
X60475904Y-46545142D01*
X60428285Y-46449904D01*
X60428285Y-46211809D01*
X60475904Y-46116571D01*
X60523523Y-46068952D01*
X60618761Y-46021333D01*
X60809238Y-46021333D01*
X60904476Y-46068952D01*
X60952095Y-46116571D01*
X60999714Y-46211809D01*
%TO.C,D5*%
X42656380Y-57427904D02*
X41656380Y-57427904D01*
X41656380Y-57666000D01*
X41704000Y-57808857D01*
X41799238Y-57904095D01*
X41894476Y-57951714D01*
X42084952Y-57999333D01*
X42227809Y-57999333D01*
X42418285Y-57951714D01*
X42513523Y-57904095D01*
X42608761Y-57808857D01*
X42656380Y-57666000D01*
X42656380Y-57427904D01*
X41656380Y-58904095D02*
X41656380Y-58427904D01*
X42132571Y-58380285D01*
X42084952Y-58427904D01*
X42037333Y-58523142D01*
X42037333Y-58761238D01*
X42084952Y-58856476D01*
X42132571Y-58904095D01*
X42227809Y-58951714D01*
X42465904Y-58951714D01*
X42561142Y-58904095D01*
X42608761Y-58856476D01*
X42656380Y-58761238D01*
X42656380Y-58523142D01*
X42608761Y-58427904D01*
X42561142Y-58380285D01*
%TO.C,C46*%
X143707142Y-80510142D02*
X143754761Y-80462523D01*
X143802380Y-80319666D01*
X143802380Y-80224428D01*
X143754761Y-80081571D01*
X143659523Y-79986333D01*
X143564285Y-79938714D01*
X143373809Y-79891095D01*
X143230952Y-79891095D01*
X143040476Y-79938714D01*
X142945238Y-79986333D01*
X142850000Y-80081571D01*
X142802380Y-80224428D01*
X142802380Y-80319666D01*
X142850000Y-80462523D01*
X142897619Y-80510142D01*
X143135714Y-81367285D02*
X143802380Y-81367285D01*
X142754761Y-81129190D02*
X143469047Y-80891095D01*
X143469047Y-81510142D01*
X142802380Y-82319666D02*
X142802380Y-82129190D01*
X142850000Y-82033952D01*
X142897619Y-81986333D01*
X143040476Y-81891095D01*
X143230952Y-81843476D01*
X143611904Y-81843476D01*
X143707142Y-81891095D01*
X143754761Y-81938714D01*
X143802380Y-82033952D01*
X143802380Y-82224428D01*
X143754761Y-82319666D01*
X143707142Y-82367285D01*
X143611904Y-82414904D01*
X143373809Y-82414904D01*
X143278571Y-82367285D01*
X143230952Y-82319666D01*
X143183333Y-82224428D01*
X143183333Y-82033952D01*
X143230952Y-81938714D01*
X143278571Y-81891095D01*
X143373809Y-81843476D01*
%TO.C,C43*%
X145803857Y-79257142D02*
X145851476Y-79304761D01*
X145994333Y-79352380D01*
X146089571Y-79352380D01*
X146232428Y-79304761D01*
X146327666Y-79209523D01*
X146375285Y-79114285D01*
X146422904Y-78923809D01*
X146422904Y-78780952D01*
X146375285Y-78590476D01*
X146327666Y-78495238D01*
X146232428Y-78400000D01*
X146089571Y-78352380D01*
X145994333Y-78352380D01*
X145851476Y-78400000D01*
X145803857Y-78447619D01*
X144946714Y-78685714D02*
X144946714Y-79352380D01*
X145184809Y-78304761D02*
X145422904Y-79019047D01*
X144803857Y-79019047D01*
X144518142Y-78352380D02*
X143899095Y-78352380D01*
X144232428Y-78733333D01*
X144089571Y-78733333D01*
X143994333Y-78780952D01*
X143946714Y-78828571D01*
X143899095Y-78923809D01*
X143899095Y-79161904D01*
X143946714Y-79257142D01*
X143994333Y-79304761D01*
X144089571Y-79352380D01*
X144375285Y-79352380D01*
X144470523Y-79304761D01*
X144518142Y-79257142D01*
%TO.C,C45*%
X149549142Y-123182142D02*
X149596761Y-123134523D01*
X149644380Y-122991666D01*
X149644380Y-122896428D01*
X149596761Y-122753571D01*
X149501523Y-122658333D01*
X149406285Y-122610714D01*
X149215809Y-122563095D01*
X149072952Y-122563095D01*
X148882476Y-122610714D01*
X148787238Y-122658333D01*
X148692000Y-122753571D01*
X148644380Y-122896428D01*
X148644380Y-122991666D01*
X148692000Y-123134523D01*
X148739619Y-123182142D01*
X148977714Y-124039285D02*
X149644380Y-124039285D01*
X148596761Y-123801190D02*
X149311047Y-123563095D01*
X149311047Y-124182142D01*
X148644380Y-125039285D02*
X148644380Y-124563095D01*
X149120571Y-124515476D01*
X149072952Y-124563095D01*
X149025333Y-124658333D01*
X149025333Y-124896428D01*
X149072952Y-124991666D01*
X149120571Y-125039285D01*
X149215809Y-125086904D01*
X149453904Y-125086904D01*
X149549142Y-125039285D01*
X149596761Y-124991666D01*
X149644380Y-124896428D01*
X149644380Y-124658333D01*
X149596761Y-124563095D01*
X149549142Y-124515476D01*
%TO.C,C44*%
X152503142Y-150741142D02*
X152550761Y-150693523D01*
X152598380Y-150550666D01*
X152598380Y-150455428D01*
X152550761Y-150312571D01*
X152455523Y-150217333D01*
X152360285Y-150169714D01*
X152169809Y-150122095D01*
X152026952Y-150122095D01*
X151836476Y-150169714D01*
X151741238Y-150217333D01*
X151646000Y-150312571D01*
X151598380Y-150455428D01*
X151598380Y-150550666D01*
X151646000Y-150693523D01*
X151693619Y-150741142D01*
X151931714Y-151598285D02*
X152598380Y-151598285D01*
X151550761Y-151360190D02*
X152265047Y-151122095D01*
X152265047Y-151741142D01*
X151931714Y-152550666D02*
X152598380Y-152550666D01*
X151550761Y-152312571D02*
X152265047Y-152074476D01*
X152265047Y-152693523D01*
%TO.C,C42*%
X166377857Y-153155142D02*
X166425476Y-153202761D01*
X166568333Y-153250380D01*
X166663571Y-153250380D01*
X166806428Y-153202761D01*
X166901666Y-153107523D01*
X166949285Y-153012285D01*
X166996904Y-152821809D01*
X166996904Y-152678952D01*
X166949285Y-152488476D01*
X166901666Y-152393238D01*
X166806428Y-152298000D01*
X166663571Y-152250380D01*
X166568333Y-152250380D01*
X166425476Y-152298000D01*
X166377857Y-152345619D01*
X165520714Y-152583714D02*
X165520714Y-153250380D01*
X165758809Y-152202761D02*
X165996904Y-152917047D01*
X165377857Y-152917047D01*
X165044523Y-152345619D02*
X164996904Y-152298000D01*
X164901666Y-152250380D01*
X164663571Y-152250380D01*
X164568333Y-152298000D01*
X164520714Y-152345619D01*
X164473095Y-152440857D01*
X164473095Y-152536095D01*
X164520714Y-152678952D01*
X165092142Y-153250380D01*
X164473095Y-153250380D01*
%TO.C,C35*%
X131200142Y-80510142D02*
X131247761Y-80462523D01*
X131295380Y-80319666D01*
X131295380Y-80224428D01*
X131247761Y-80081571D01*
X131152523Y-79986333D01*
X131057285Y-79938714D01*
X130866809Y-79891095D01*
X130723952Y-79891095D01*
X130533476Y-79938714D01*
X130438238Y-79986333D01*
X130343000Y-80081571D01*
X130295380Y-80224428D01*
X130295380Y-80319666D01*
X130343000Y-80462523D01*
X130390619Y-80510142D01*
X130295380Y-80843476D02*
X130295380Y-81462523D01*
X130676333Y-81129190D01*
X130676333Y-81272047D01*
X130723952Y-81367285D01*
X130771571Y-81414904D01*
X130866809Y-81462523D01*
X131104904Y-81462523D01*
X131200142Y-81414904D01*
X131247761Y-81367285D01*
X131295380Y-81272047D01*
X131295380Y-80986333D01*
X131247761Y-80891095D01*
X131200142Y-80843476D01*
X130295380Y-82367285D02*
X130295380Y-81891095D01*
X130771571Y-81843476D01*
X130723952Y-81891095D01*
X130676333Y-81986333D01*
X130676333Y-82224428D01*
X130723952Y-82319666D01*
X130771571Y-82367285D01*
X130866809Y-82414904D01*
X131104904Y-82414904D01*
X131200142Y-82367285D01*
X131247761Y-82319666D01*
X131295380Y-82224428D01*
X131295380Y-81986333D01*
X131247761Y-81891095D01*
X131200142Y-81843476D01*
%TO.C,C41*%
X166250857Y-157235142D02*
X166298476Y-157282761D01*
X166441333Y-157330380D01*
X166536571Y-157330380D01*
X166679428Y-157282761D01*
X166774666Y-157187523D01*
X166822285Y-157092285D01*
X166869904Y-156901809D01*
X166869904Y-156758952D01*
X166822285Y-156568476D01*
X166774666Y-156473238D01*
X166679428Y-156378000D01*
X166536571Y-156330380D01*
X166441333Y-156330380D01*
X166298476Y-156378000D01*
X166250857Y-156425619D01*
X165393714Y-156663714D02*
X165393714Y-157330380D01*
X165631809Y-156282761D02*
X165869904Y-156997047D01*
X165250857Y-156997047D01*
X164346095Y-157330380D02*
X164917523Y-157330380D01*
X164631809Y-157330380D02*
X164631809Y-156330380D01*
X164727047Y-156473238D01*
X164822285Y-156568476D01*
X164917523Y-156616095D01*
%TO.C,C39*%
X166377857Y-150742142D02*
X166425476Y-150789761D01*
X166568333Y-150837380D01*
X166663571Y-150837380D01*
X166806428Y-150789761D01*
X166901666Y-150694523D01*
X166949285Y-150599285D01*
X166996904Y-150408809D01*
X166996904Y-150265952D01*
X166949285Y-150075476D01*
X166901666Y-149980238D01*
X166806428Y-149885000D01*
X166663571Y-149837380D01*
X166568333Y-149837380D01*
X166425476Y-149885000D01*
X166377857Y-149932619D01*
X166044523Y-149837380D02*
X165425476Y-149837380D01*
X165758809Y-150218333D01*
X165615952Y-150218333D01*
X165520714Y-150265952D01*
X165473095Y-150313571D01*
X165425476Y-150408809D01*
X165425476Y-150646904D01*
X165473095Y-150742142D01*
X165520714Y-150789761D01*
X165615952Y-150837380D01*
X165901666Y-150837380D01*
X165996904Y-150789761D01*
X166044523Y-150742142D01*
X164949285Y-150837380D02*
X164758809Y-150837380D01*
X164663571Y-150789761D01*
X164615952Y-150742142D01*
X164520714Y-150599285D01*
X164473095Y-150408809D01*
X164473095Y-150027857D01*
X164520714Y-149932619D01*
X164568333Y-149885000D01*
X164663571Y-149837380D01*
X164854047Y-149837380D01*
X164949285Y-149885000D01*
X164996904Y-149932619D01*
X165044523Y-150027857D01*
X165044523Y-150265952D01*
X164996904Y-150361190D01*
X164949285Y-150408809D01*
X164854047Y-150456428D01*
X164663571Y-150456428D01*
X164568333Y-150408809D01*
X164520714Y-150361190D01*
X164473095Y-150265952D01*
%TO.C,C38*%
X127007857Y-71858142D02*
X127055476Y-71905761D01*
X127198333Y-71953380D01*
X127293571Y-71953380D01*
X127436428Y-71905761D01*
X127531666Y-71810523D01*
X127579285Y-71715285D01*
X127626904Y-71524809D01*
X127626904Y-71381952D01*
X127579285Y-71191476D01*
X127531666Y-71096238D01*
X127436428Y-71001000D01*
X127293571Y-70953380D01*
X127198333Y-70953380D01*
X127055476Y-71001000D01*
X127007857Y-71048619D01*
X126674523Y-70953380D02*
X126055476Y-70953380D01*
X126388809Y-71334333D01*
X126245952Y-71334333D01*
X126150714Y-71381952D01*
X126103095Y-71429571D01*
X126055476Y-71524809D01*
X126055476Y-71762904D01*
X126103095Y-71858142D01*
X126150714Y-71905761D01*
X126245952Y-71953380D01*
X126531666Y-71953380D01*
X126626904Y-71905761D01*
X126674523Y-71858142D01*
X125484047Y-71381952D02*
X125579285Y-71334333D01*
X125626904Y-71286714D01*
X125674523Y-71191476D01*
X125674523Y-71143857D01*
X125626904Y-71048619D01*
X125579285Y-71001000D01*
X125484047Y-70953380D01*
X125293571Y-70953380D01*
X125198333Y-71001000D01*
X125150714Y-71048619D01*
X125103095Y-71143857D01*
X125103095Y-71191476D01*
X125150714Y-71286714D01*
X125198333Y-71334333D01*
X125293571Y-71381952D01*
X125484047Y-71381952D01*
X125579285Y-71429571D01*
X125626904Y-71477190D01*
X125674523Y-71572428D01*
X125674523Y-71762904D01*
X125626904Y-71858142D01*
X125579285Y-71905761D01*
X125484047Y-71953380D01*
X125293571Y-71953380D01*
X125198333Y-71905761D01*
X125150714Y-71858142D01*
X125103095Y-71762904D01*
X125103095Y-71572428D01*
X125150714Y-71477190D01*
X125198333Y-71429571D01*
X125293571Y-71381952D01*
%TO.C,C37*%
X127261857Y-82145142D02*
X127309476Y-82192761D01*
X127452333Y-82240380D01*
X127547571Y-82240380D01*
X127690428Y-82192761D01*
X127785666Y-82097523D01*
X127833285Y-82002285D01*
X127880904Y-81811809D01*
X127880904Y-81668952D01*
X127833285Y-81478476D01*
X127785666Y-81383238D01*
X127690428Y-81288000D01*
X127547571Y-81240380D01*
X127452333Y-81240380D01*
X127309476Y-81288000D01*
X127261857Y-81335619D01*
X126928523Y-81240380D02*
X126309476Y-81240380D01*
X126642809Y-81621333D01*
X126499952Y-81621333D01*
X126404714Y-81668952D01*
X126357095Y-81716571D01*
X126309476Y-81811809D01*
X126309476Y-82049904D01*
X126357095Y-82145142D01*
X126404714Y-82192761D01*
X126499952Y-82240380D01*
X126785666Y-82240380D01*
X126880904Y-82192761D01*
X126928523Y-82145142D01*
X125976142Y-81240380D02*
X125309476Y-81240380D01*
X125738047Y-82240380D01*
%TO.C,C36*%
X178229142Y-145407142D02*
X178276761Y-145359523D01*
X178324380Y-145216666D01*
X178324380Y-145121428D01*
X178276761Y-144978571D01*
X178181523Y-144883333D01*
X178086285Y-144835714D01*
X177895809Y-144788095D01*
X177752952Y-144788095D01*
X177562476Y-144835714D01*
X177467238Y-144883333D01*
X177372000Y-144978571D01*
X177324380Y-145121428D01*
X177324380Y-145216666D01*
X177372000Y-145359523D01*
X177419619Y-145407142D01*
X177324380Y-145740476D02*
X177324380Y-146359523D01*
X177705333Y-146026190D01*
X177705333Y-146169047D01*
X177752952Y-146264285D01*
X177800571Y-146311904D01*
X177895809Y-146359523D01*
X178133904Y-146359523D01*
X178229142Y-146311904D01*
X178276761Y-146264285D01*
X178324380Y-146169047D01*
X178324380Y-145883333D01*
X178276761Y-145788095D01*
X178229142Y-145740476D01*
X177324380Y-147216666D02*
X177324380Y-147026190D01*
X177372000Y-146930952D01*
X177419619Y-146883333D01*
X177562476Y-146788095D01*
X177752952Y-146740476D01*
X178133904Y-146740476D01*
X178229142Y-146788095D01*
X178276761Y-146835714D01*
X178324380Y-146930952D01*
X178324380Y-147121428D01*
X178276761Y-147216666D01*
X178229142Y-147264285D01*
X178133904Y-147311904D01*
X177895809Y-147311904D01*
X177800571Y-147264285D01*
X177752952Y-147216666D01*
X177705333Y-147121428D01*
X177705333Y-146930952D01*
X177752952Y-146835714D01*
X177800571Y-146788095D01*
X177895809Y-146740476D01*
%TO.C,C34*%
X82938857Y-121609142D02*
X82986476Y-121656761D01*
X83129333Y-121704380D01*
X83224571Y-121704380D01*
X83367428Y-121656761D01*
X83462666Y-121561523D01*
X83510285Y-121466285D01*
X83557904Y-121275809D01*
X83557904Y-121132952D01*
X83510285Y-120942476D01*
X83462666Y-120847238D01*
X83367428Y-120752000D01*
X83224571Y-120704380D01*
X83129333Y-120704380D01*
X82986476Y-120752000D01*
X82938857Y-120799619D01*
X82605523Y-120704380D02*
X81986476Y-120704380D01*
X82319809Y-121085333D01*
X82176952Y-121085333D01*
X82081714Y-121132952D01*
X82034095Y-121180571D01*
X81986476Y-121275809D01*
X81986476Y-121513904D01*
X82034095Y-121609142D01*
X82081714Y-121656761D01*
X82176952Y-121704380D01*
X82462666Y-121704380D01*
X82557904Y-121656761D01*
X82605523Y-121609142D01*
X81129333Y-121037714D02*
X81129333Y-121704380D01*
X81367428Y-120656761D02*
X81605523Y-121371047D01*
X80986476Y-121371047D01*
%TO.C,C31*%
X43012142Y-135818642D02*
X43059761Y-135771023D01*
X43107380Y-135628166D01*
X43107380Y-135532928D01*
X43059761Y-135390071D01*
X42964523Y-135294833D01*
X42869285Y-135247214D01*
X42678809Y-135199595D01*
X42535952Y-135199595D01*
X42345476Y-135247214D01*
X42250238Y-135294833D01*
X42155000Y-135390071D01*
X42107380Y-135532928D01*
X42107380Y-135628166D01*
X42155000Y-135771023D01*
X42202619Y-135818642D01*
X42107380Y-136151976D02*
X42107380Y-136771023D01*
X42488333Y-136437690D01*
X42488333Y-136580547D01*
X42535952Y-136675785D01*
X42583571Y-136723404D01*
X42678809Y-136771023D01*
X42916904Y-136771023D01*
X43012142Y-136723404D01*
X43059761Y-136675785D01*
X43107380Y-136580547D01*
X43107380Y-136294833D01*
X43059761Y-136199595D01*
X43012142Y-136151976D01*
X43107380Y-137723404D02*
X43107380Y-137151976D01*
X43107380Y-137437690D02*
X42107380Y-137437690D01*
X42250238Y-137342452D01*
X42345476Y-137247214D01*
X42393095Y-137151976D01*
%TO.C,C30*%
X73666642Y-132326142D02*
X73714261Y-132278523D01*
X73761880Y-132135666D01*
X73761880Y-132040428D01*
X73714261Y-131897571D01*
X73619023Y-131802333D01*
X73523785Y-131754714D01*
X73333309Y-131707095D01*
X73190452Y-131707095D01*
X72999976Y-131754714D01*
X72904738Y-131802333D01*
X72809500Y-131897571D01*
X72761880Y-132040428D01*
X72761880Y-132135666D01*
X72809500Y-132278523D01*
X72857119Y-132326142D01*
X72761880Y-132659476D02*
X72761880Y-133278523D01*
X73142833Y-132945190D01*
X73142833Y-133088047D01*
X73190452Y-133183285D01*
X73238071Y-133230904D01*
X73333309Y-133278523D01*
X73571404Y-133278523D01*
X73666642Y-133230904D01*
X73714261Y-133183285D01*
X73761880Y-133088047D01*
X73761880Y-132802333D01*
X73714261Y-132707095D01*
X73666642Y-132659476D01*
X72761880Y-133897571D02*
X72761880Y-133992809D01*
X72809500Y-134088047D01*
X72857119Y-134135666D01*
X72952357Y-134183285D01*
X73142833Y-134230904D01*
X73380928Y-134230904D01*
X73571404Y-134183285D01*
X73666642Y-134135666D01*
X73714261Y-134088047D01*
X73761880Y-133992809D01*
X73761880Y-133897571D01*
X73714261Y-133802333D01*
X73666642Y-133754714D01*
X73571404Y-133707095D01*
X73380928Y-133659476D01*
X73142833Y-133659476D01*
X72952357Y-133707095D01*
X72857119Y-133754714D01*
X72809500Y-133802333D01*
X72761880Y-133897571D01*
%TO.C,C28*%
X77730642Y-132340142D02*
X77778261Y-132292523D01*
X77825880Y-132149666D01*
X77825880Y-132054428D01*
X77778261Y-131911571D01*
X77683023Y-131816333D01*
X77587785Y-131768714D01*
X77397309Y-131721095D01*
X77254452Y-131721095D01*
X77063976Y-131768714D01*
X76968738Y-131816333D01*
X76873500Y-131911571D01*
X76825880Y-132054428D01*
X76825880Y-132149666D01*
X76873500Y-132292523D01*
X76921119Y-132340142D01*
X76921119Y-132721095D02*
X76873500Y-132768714D01*
X76825880Y-132863952D01*
X76825880Y-133102047D01*
X76873500Y-133197285D01*
X76921119Y-133244904D01*
X77016357Y-133292523D01*
X77111595Y-133292523D01*
X77254452Y-133244904D01*
X77825880Y-132673476D01*
X77825880Y-133292523D01*
X77254452Y-133863952D02*
X77206833Y-133768714D01*
X77159214Y-133721095D01*
X77063976Y-133673476D01*
X77016357Y-133673476D01*
X76921119Y-133721095D01*
X76873500Y-133768714D01*
X76825880Y-133863952D01*
X76825880Y-134054428D01*
X76873500Y-134149666D01*
X76921119Y-134197285D01*
X77016357Y-134244904D01*
X77063976Y-134244904D01*
X77159214Y-134197285D01*
X77206833Y-134149666D01*
X77254452Y-134054428D01*
X77254452Y-133863952D01*
X77302071Y-133768714D01*
X77349690Y-133721095D01*
X77444928Y-133673476D01*
X77635404Y-133673476D01*
X77730642Y-133721095D01*
X77778261Y-133768714D01*
X77825880Y-133863952D01*
X77825880Y-134054428D01*
X77778261Y-134149666D01*
X77730642Y-134197285D01*
X77635404Y-134244904D01*
X77444928Y-134244904D01*
X77349690Y-134197285D01*
X77302071Y-134149666D01*
X77254452Y-134054428D01*
%TO.C,C27*%
X82175642Y-132453142D02*
X82223261Y-132405523D01*
X82270880Y-132262666D01*
X82270880Y-132167428D01*
X82223261Y-132024571D01*
X82128023Y-131929333D01*
X82032785Y-131881714D01*
X81842309Y-131834095D01*
X81699452Y-131834095D01*
X81508976Y-131881714D01*
X81413738Y-131929333D01*
X81318500Y-132024571D01*
X81270880Y-132167428D01*
X81270880Y-132262666D01*
X81318500Y-132405523D01*
X81366119Y-132453142D01*
X81366119Y-132834095D02*
X81318500Y-132881714D01*
X81270880Y-132976952D01*
X81270880Y-133215047D01*
X81318500Y-133310285D01*
X81366119Y-133357904D01*
X81461357Y-133405523D01*
X81556595Y-133405523D01*
X81699452Y-133357904D01*
X82270880Y-132786476D01*
X82270880Y-133405523D01*
X81270880Y-133738857D02*
X81270880Y-134405523D01*
X82270880Y-133976952D01*
%TO.C,C16*%
X103893857Y-126794142D02*
X103941476Y-126841761D01*
X104084333Y-126889380D01*
X104179571Y-126889380D01*
X104322428Y-126841761D01*
X104417666Y-126746523D01*
X104465285Y-126651285D01*
X104512904Y-126460809D01*
X104512904Y-126317952D01*
X104465285Y-126127476D01*
X104417666Y-126032238D01*
X104322428Y-125937000D01*
X104179571Y-125889380D01*
X104084333Y-125889380D01*
X103941476Y-125937000D01*
X103893857Y-125984619D01*
X102941476Y-126889380D02*
X103512904Y-126889380D01*
X103227190Y-126889380D02*
X103227190Y-125889380D01*
X103322428Y-126032238D01*
X103417666Y-126127476D01*
X103512904Y-126175095D01*
X102084333Y-125889380D02*
X102274809Y-125889380D01*
X102370047Y-125937000D01*
X102417666Y-125984619D01*
X102512904Y-126127476D01*
X102560523Y-126317952D01*
X102560523Y-126698904D01*
X102512904Y-126794142D01*
X102465285Y-126841761D01*
X102370047Y-126889380D01*
X102179571Y-126889380D01*
X102084333Y-126841761D01*
X102036714Y-126794142D01*
X101989095Y-126698904D01*
X101989095Y-126460809D01*
X102036714Y-126365571D01*
X102084333Y-126317952D01*
X102179571Y-126270333D01*
X102370047Y-126270333D01*
X102465285Y-126317952D01*
X102512904Y-126365571D01*
X102560523Y-126460809D01*
%TO.C,C12*%
X131007142Y-134231142D02*
X131054761Y-134183523D01*
X131102380Y-134040666D01*
X131102380Y-133945428D01*
X131054761Y-133802571D01*
X130959523Y-133707333D01*
X130864285Y-133659714D01*
X130673809Y-133612095D01*
X130530952Y-133612095D01*
X130340476Y-133659714D01*
X130245238Y-133707333D01*
X130150000Y-133802571D01*
X130102380Y-133945428D01*
X130102380Y-134040666D01*
X130150000Y-134183523D01*
X130197619Y-134231142D01*
X131102380Y-135183523D02*
X131102380Y-134612095D01*
X131102380Y-134897809D02*
X130102380Y-134897809D01*
X130245238Y-134802571D01*
X130340476Y-134707333D01*
X130388095Y-134612095D01*
X130197619Y-135564476D02*
X130150000Y-135612095D01*
X130102380Y-135707333D01*
X130102380Y-135945428D01*
X130150000Y-136040666D01*
X130197619Y-136088285D01*
X130292857Y-136135904D01*
X130388095Y-136135904D01*
X130530952Y-136088285D01*
X131102380Y-135516857D01*
X131102380Y-136135904D01*
%TO.C,C5*%
X132785142Y-151217333D02*
X132832761Y-151169714D01*
X132880380Y-151026857D01*
X132880380Y-150931619D01*
X132832761Y-150788761D01*
X132737523Y-150693523D01*
X132642285Y-150645904D01*
X132451809Y-150598285D01*
X132308952Y-150598285D01*
X132118476Y-150645904D01*
X132023238Y-150693523D01*
X131928000Y-150788761D01*
X131880380Y-150931619D01*
X131880380Y-151026857D01*
X131928000Y-151169714D01*
X131975619Y-151217333D01*
X131880380Y-152122095D02*
X131880380Y-151645904D01*
X132356571Y-151598285D01*
X132308952Y-151645904D01*
X132261333Y-151741142D01*
X132261333Y-151979238D01*
X132308952Y-152074476D01*
X132356571Y-152122095D01*
X132451809Y-152169714D01*
X132689904Y-152169714D01*
X132785142Y-152122095D01*
X132832761Y-152074476D01*
X132880380Y-151979238D01*
X132880380Y-151741142D01*
X132832761Y-151645904D01*
X132785142Y-151598285D01*
%TO.C,C4*%
X145454666Y-152393142D02*
X145502285Y-152440761D01*
X145645142Y-152488380D01*
X145740380Y-152488380D01*
X145883238Y-152440761D01*
X145978476Y-152345523D01*
X146026095Y-152250285D01*
X146073714Y-152059809D01*
X146073714Y-151916952D01*
X146026095Y-151726476D01*
X145978476Y-151631238D01*
X145883238Y-151536000D01*
X145740380Y-151488380D01*
X145645142Y-151488380D01*
X145502285Y-151536000D01*
X145454666Y-151583619D01*
X144597523Y-151821714D02*
X144597523Y-152488380D01*
X144835619Y-151440761D02*
X145073714Y-152155047D01*
X144454666Y-152155047D01*
%TO.C,C3*%
X144692666Y-157870142D02*
X144740285Y-157917761D01*
X144883142Y-157965380D01*
X144978380Y-157965380D01*
X145121238Y-157917761D01*
X145216476Y-157822523D01*
X145264095Y-157727285D01*
X145311714Y-157536809D01*
X145311714Y-157393952D01*
X145264095Y-157203476D01*
X145216476Y-157108238D01*
X145121238Y-157013000D01*
X144978380Y-156965380D01*
X144883142Y-156965380D01*
X144740285Y-157013000D01*
X144692666Y-157060619D01*
X144359333Y-156965380D02*
X143740285Y-156965380D01*
X144073619Y-157346333D01*
X143930761Y-157346333D01*
X143835523Y-157393952D01*
X143787904Y-157441571D01*
X143740285Y-157536809D01*
X143740285Y-157774904D01*
X143787904Y-157870142D01*
X143835523Y-157917761D01*
X143930761Y-157965380D01*
X144216476Y-157965380D01*
X144311714Y-157917761D01*
X144359333Y-157870142D01*
%TO.C,C2*%
X145454666Y-150107142D02*
X145502285Y-150154761D01*
X145645142Y-150202380D01*
X145740380Y-150202380D01*
X145883238Y-150154761D01*
X145978476Y-150059523D01*
X146026095Y-149964285D01*
X146073714Y-149773809D01*
X146073714Y-149630952D01*
X146026095Y-149440476D01*
X145978476Y-149345238D01*
X145883238Y-149250000D01*
X145740380Y-149202380D01*
X145645142Y-149202380D01*
X145502285Y-149250000D01*
X145454666Y-149297619D01*
X145073714Y-149297619D02*
X145026095Y-149250000D01*
X144930857Y-149202380D01*
X144692761Y-149202380D01*
X144597523Y-149250000D01*
X144549904Y-149297619D01*
X144502285Y-149392857D01*
X144502285Y-149488095D01*
X144549904Y-149630952D01*
X145121333Y-150202380D01*
X144502285Y-150202380D01*
%TO.C,C1*%
X149264666Y-153955142D02*
X149312285Y-154002761D01*
X149455142Y-154050380D01*
X149550380Y-154050380D01*
X149693238Y-154002761D01*
X149788476Y-153907523D01*
X149836095Y-153812285D01*
X149883714Y-153621809D01*
X149883714Y-153478952D01*
X149836095Y-153288476D01*
X149788476Y-153193238D01*
X149693238Y-153098000D01*
X149550380Y-153050380D01*
X149455142Y-153050380D01*
X149312285Y-153098000D01*
X149264666Y-153145619D01*
X148312285Y-154050380D02*
X148883714Y-154050380D01*
X148598000Y-154050380D02*
X148598000Y-153050380D01*
X148693238Y-153193238D01*
X148788476Y-153288476D01*
X148883714Y-153336095D01*
%TD*%
%LPC*%
%TO.C,C22*%
G36*
G01*
X109363500Y-120086000D02*
X109838500Y-120086000D01*
G75*
G02*
X110076000Y-120323500I0J-237500D01*
G01*
X110076000Y-120923500D01*
G75*
G02*
X109838500Y-121161000I-237500J0D01*
G01*
X109363500Y-121161000D01*
G75*
G02*
X109126000Y-120923500I0J237500D01*
G01*
X109126000Y-120323500D01*
G75*
G02*
X109363500Y-120086000I237500J0D01*
G01*
G37*
G36*
G01*
X109363500Y-118361000D02*
X109838500Y-118361000D01*
G75*
G02*
X110076000Y-118598500I0J-237500D01*
G01*
X110076000Y-119198500D01*
G75*
G02*
X109838500Y-119436000I-237500J0D01*
G01*
X109363500Y-119436000D01*
G75*
G02*
X109126000Y-119198500I0J237500D01*
G01*
X109126000Y-118598500D01*
G75*
G02*
X109363500Y-118361000I237500J0D01*
G01*
G37*
%TD*%
D12*
%TO.C,J17*%
X153258000Y-146188000D03*
X165298000Y-146188000D03*
D13*
X160528000Y-143478000D03*
X158028000Y-143478000D03*
X158028000Y-141478000D03*
D14*
X160528000Y-141478000D03*
%TD*%
D12*
%TO.C,J3*%
X133954000Y-146188000D03*
X145994000Y-146188000D03*
D13*
X141224000Y-143478000D03*
X138724000Y-143478000D03*
X138724000Y-141478000D03*
D14*
X141224000Y-141478000D03*
%TD*%
D15*
%TO.C,U7*%
X123063000Y-63373000D03*
X124714000Y-62103000D03*
X124714000Y-64643000D03*
D16*
X106934000Y-67183000D03*
D15*
X109474000Y-67183000D03*
X112014000Y-67183000D03*
X114554000Y-67183000D03*
X117094000Y-67183000D03*
X119634000Y-67183000D03*
X122174000Y-67183000D03*
X124714000Y-67183000D03*
X124714000Y-54483000D03*
X122174000Y-54483000D03*
X119634000Y-54483000D03*
X117094000Y-54483000D03*
X114554000Y-54483000D03*
X112014000Y-54483000D03*
X109474000Y-54483000D03*
X106934000Y-54483000D03*
%TD*%
%TO.C,U5*%
X64897000Y-63373000D03*
X66548000Y-62103000D03*
X66548000Y-64643000D03*
D16*
X48768000Y-67183000D03*
D15*
X51308000Y-67183000D03*
X53848000Y-67183000D03*
X56388000Y-67183000D03*
X58928000Y-67183000D03*
X61468000Y-67183000D03*
X64008000Y-67183000D03*
X66548000Y-67183000D03*
X66548000Y-54483000D03*
X64008000Y-54483000D03*
X61468000Y-54483000D03*
X58928000Y-54483000D03*
X56388000Y-54483000D03*
X53848000Y-54483000D03*
X51308000Y-54483000D03*
X48768000Y-54483000D03*
%TD*%
D17*
%TO.C,HS1*%
X63712000Y-35368000D03*
X63712000Y-87568000D03*
X153712000Y-35368000D03*
X153712000Y-87568000D03*
X108712000Y-35368000D03*
X108712000Y-87568000D03*
%TD*%
D18*
%TO.C,J5*%
X48514000Y-88900000D03*
X48514000Y-85090000D03*
X48514000Y-81280000D03*
G36*
G01*
X46964000Y-76570000D02*
X50064000Y-76570000D01*
G75*
G02*
X50314000Y-76820000I0J-250000D01*
G01*
X50314000Y-78120000D01*
G75*
G02*
X50064000Y-78370000I-250000J0D01*
G01*
X46964000Y-78370000D01*
G75*
G02*
X46714000Y-78120000I0J250000D01*
G01*
X46714000Y-76820000D01*
G75*
G02*
X46964000Y-76570000I250000J0D01*
G01*
G37*
%TD*%
D19*
%TO.C,U15*%
X166751000Y-135890000D03*
X174371000Y-128270000D03*
X166751000Y-133350000D03*
X174371000Y-130810000D03*
X166751000Y-130810000D03*
X174371000Y-133350000D03*
X166751000Y-128270000D03*
D20*
X174371000Y-135890000D03*
%TD*%
D15*
%TO.C,U8*%
X152527000Y-63373000D03*
X154178000Y-62103000D03*
X154178000Y-64643000D03*
D16*
X136398000Y-67183000D03*
D15*
X138938000Y-67183000D03*
X141478000Y-67183000D03*
X144018000Y-67183000D03*
X146558000Y-67183000D03*
X149098000Y-67183000D03*
X151638000Y-67183000D03*
X154178000Y-67183000D03*
X154178000Y-54483000D03*
X151638000Y-54483000D03*
X149098000Y-54483000D03*
X146558000Y-54483000D03*
X144018000Y-54483000D03*
X141478000Y-54483000D03*
X138938000Y-54483000D03*
X136398000Y-54483000D03*
%TD*%
%TO.C,U6*%
X93853000Y-63373000D03*
X95504000Y-62103000D03*
X95504000Y-64643000D03*
D16*
X77724000Y-67183000D03*
D15*
X80264000Y-67183000D03*
X82804000Y-67183000D03*
X85344000Y-67183000D03*
X87884000Y-67183000D03*
X90424000Y-67183000D03*
X92964000Y-67183000D03*
X95504000Y-67183000D03*
X95504000Y-54483000D03*
X92964000Y-54483000D03*
X90424000Y-54483000D03*
X87884000Y-54483000D03*
X85344000Y-54483000D03*
X82804000Y-54483000D03*
X80264000Y-54483000D03*
X77724000Y-54483000D03*
%TD*%
D21*
%TO.C,Y2*%
X127815000Y-75874500D03*
X124915000Y-75874500D03*
X124915000Y-78049500D03*
X127815000Y-78049500D03*
%TD*%
%TO.C,U29*%
G36*
G01*
X120880000Y-89939000D02*
X120880000Y-89639000D01*
G75*
G02*
X121030000Y-89489000I150000J0D01*
G01*
X122680000Y-89489000D01*
G75*
G02*
X122830000Y-89639000I0J-150000D01*
G01*
X122830000Y-89939000D01*
G75*
G02*
X122680000Y-90089000I-150000J0D01*
G01*
X121030000Y-90089000D01*
G75*
G02*
X120880000Y-89939000I0J150000D01*
G01*
G37*
G36*
G01*
X120880000Y-88669000D02*
X120880000Y-88369000D01*
G75*
G02*
X121030000Y-88219000I150000J0D01*
G01*
X122680000Y-88219000D01*
G75*
G02*
X122830000Y-88369000I0J-150000D01*
G01*
X122830000Y-88669000D01*
G75*
G02*
X122680000Y-88819000I-150000J0D01*
G01*
X121030000Y-88819000D01*
G75*
G02*
X120880000Y-88669000I0J150000D01*
G01*
G37*
G36*
G01*
X120880000Y-87399000D02*
X120880000Y-87099000D01*
G75*
G02*
X121030000Y-86949000I150000J0D01*
G01*
X122680000Y-86949000D01*
G75*
G02*
X122830000Y-87099000I0J-150000D01*
G01*
X122830000Y-87399000D01*
G75*
G02*
X122680000Y-87549000I-150000J0D01*
G01*
X121030000Y-87549000D01*
G75*
G02*
X120880000Y-87399000I0J150000D01*
G01*
G37*
G36*
G01*
X120880000Y-86129000D02*
X120880000Y-85829000D01*
G75*
G02*
X121030000Y-85679000I150000J0D01*
G01*
X122680000Y-85679000D01*
G75*
G02*
X122830000Y-85829000I0J-150000D01*
G01*
X122830000Y-86129000D01*
G75*
G02*
X122680000Y-86279000I-150000J0D01*
G01*
X121030000Y-86279000D01*
G75*
G02*
X120880000Y-86129000I0J150000D01*
G01*
G37*
G36*
G01*
X120880000Y-84859000D02*
X120880000Y-84559000D01*
G75*
G02*
X121030000Y-84409000I150000J0D01*
G01*
X122680000Y-84409000D01*
G75*
G02*
X122830000Y-84559000I0J-150000D01*
G01*
X122830000Y-84859000D01*
G75*
G02*
X122680000Y-85009000I-150000J0D01*
G01*
X121030000Y-85009000D01*
G75*
G02*
X120880000Y-84859000I0J150000D01*
G01*
G37*
G36*
G01*
X120880000Y-83589000D02*
X120880000Y-83289000D01*
G75*
G02*
X121030000Y-83139000I150000J0D01*
G01*
X122680000Y-83139000D01*
G75*
G02*
X122830000Y-83289000I0J-150000D01*
G01*
X122830000Y-83589000D01*
G75*
G02*
X122680000Y-83739000I-150000J0D01*
G01*
X121030000Y-83739000D01*
G75*
G02*
X120880000Y-83589000I0J150000D01*
G01*
G37*
G36*
G01*
X120880000Y-82319000D02*
X120880000Y-82019000D01*
G75*
G02*
X121030000Y-81869000I150000J0D01*
G01*
X122680000Y-81869000D01*
G75*
G02*
X122830000Y-82019000I0J-150000D01*
G01*
X122830000Y-82319000D01*
G75*
G02*
X122680000Y-82469000I-150000J0D01*
G01*
X121030000Y-82469000D01*
G75*
G02*
X120880000Y-82319000I0J150000D01*
G01*
G37*
G36*
G01*
X120880000Y-81049000D02*
X120880000Y-80749000D01*
G75*
G02*
X121030000Y-80599000I150000J0D01*
G01*
X122680000Y-80599000D01*
G75*
G02*
X122830000Y-80749000I0J-150000D01*
G01*
X122830000Y-81049000D01*
G75*
G02*
X122680000Y-81199000I-150000J0D01*
G01*
X121030000Y-81199000D01*
G75*
G02*
X120880000Y-81049000I0J150000D01*
G01*
G37*
G36*
G01*
X115930000Y-81049000D02*
X115930000Y-80749000D01*
G75*
G02*
X116080000Y-80599000I150000J0D01*
G01*
X117730000Y-80599000D01*
G75*
G02*
X117880000Y-80749000I0J-150000D01*
G01*
X117880000Y-81049000D01*
G75*
G02*
X117730000Y-81199000I-150000J0D01*
G01*
X116080000Y-81199000D01*
G75*
G02*
X115930000Y-81049000I0J150000D01*
G01*
G37*
G36*
G01*
X115930000Y-82319000D02*
X115930000Y-82019000D01*
G75*
G02*
X116080000Y-81869000I150000J0D01*
G01*
X117730000Y-81869000D01*
G75*
G02*
X117880000Y-82019000I0J-150000D01*
G01*
X117880000Y-82319000D01*
G75*
G02*
X117730000Y-82469000I-150000J0D01*
G01*
X116080000Y-82469000D01*
G75*
G02*
X115930000Y-82319000I0J150000D01*
G01*
G37*
G36*
G01*
X115930000Y-83589000D02*
X115930000Y-83289000D01*
G75*
G02*
X116080000Y-83139000I150000J0D01*
G01*
X117730000Y-83139000D01*
G75*
G02*
X117880000Y-83289000I0J-150000D01*
G01*
X117880000Y-83589000D01*
G75*
G02*
X117730000Y-83739000I-150000J0D01*
G01*
X116080000Y-83739000D01*
G75*
G02*
X115930000Y-83589000I0J150000D01*
G01*
G37*
G36*
G01*
X115930000Y-84859000D02*
X115930000Y-84559000D01*
G75*
G02*
X116080000Y-84409000I150000J0D01*
G01*
X117730000Y-84409000D01*
G75*
G02*
X117880000Y-84559000I0J-150000D01*
G01*
X117880000Y-84859000D01*
G75*
G02*
X117730000Y-85009000I-150000J0D01*
G01*
X116080000Y-85009000D01*
G75*
G02*
X115930000Y-84859000I0J150000D01*
G01*
G37*
G36*
G01*
X115930000Y-86129000D02*
X115930000Y-85829000D01*
G75*
G02*
X116080000Y-85679000I150000J0D01*
G01*
X117730000Y-85679000D01*
G75*
G02*
X117880000Y-85829000I0J-150000D01*
G01*
X117880000Y-86129000D01*
G75*
G02*
X117730000Y-86279000I-150000J0D01*
G01*
X116080000Y-86279000D01*
G75*
G02*
X115930000Y-86129000I0J150000D01*
G01*
G37*
G36*
G01*
X115930000Y-87399000D02*
X115930000Y-87099000D01*
G75*
G02*
X116080000Y-86949000I150000J0D01*
G01*
X117730000Y-86949000D01*
G75*
G02*
X117880000Y-87099000I0J-150000D01*
G01*
X117880000Y-87399000D01*
G75*
G02*
X117730000Y-87549000I-150000J0D01*
G01*
X116080000Y-87549000D01*
G75*
G02*
X115930000Y-87399000I0J150000D01*
G01*
G37*
G36*
G01*
X115930000Y-88669000D02*
X115930000Y-88369000D01*
G75*
G02*
X116080000Y-88219000I150000J0D01*
G01*
X117730000Y-88219000D01*
G75*
G02*
X117880000Y-88369000I0J-150000D01*
G01*
X117880000Y-88669000D01*
G75*
G02*
X117730000Y-88819000I-150000J0D01*
G01*
X116080000Y-88819000D01*
G75*
G02*
X115930000Y-88669000I0J150000D01*
G01*
G37*
G36*
G01*
X115930000Y-89939000D02*
X115930000Y-89639000D01*
G75*
G02*
X116080000Y-89489000I150000J0D01*
G01*
X117730000Y-89489000D01*
G75*
G02*
X117880000Y-89639000I0J-150000D01*
G01*
X117880000Y-89939000D01*
G75*
G02*
X117730000Y-90089000I-150000J0D01*
G01*
X116080000Y-90089000D01*
G75*
G02*
X115930000Y-89939000I0J150000D01*
G01*
G37*
%TD*%
D22*
%TO.C,U28*%
X134233000Y-85276000D03*
X135033000Y-85276000D03*
X135833000Y-85276000D03*
X136633000Y-85276000D03*
X137433000Y-85276000D03*
X138233000Y-85276000D03*
X139033000Y-85276000D03*
X139833000Y-85276000D03*
D23*
X141283000Y-83826000D03*
X141283000Y-83026000D03*
X141283000Y-82226000D03*
X141283000Y-81426000D03*
X141283000Y-80626000D03*
X141283000Y-79826000D03*
X141283000Y-79026000D03*
X141283000Y-78226000D03*
D22*
X139833000Y-76776000D03*
X139033000Y-76776000D03*
X138233000Y-76776000D03*
X137433000Y-76776000D03*
X136633000Y-76776000D03*
X135833000Y-76776000D03*
X135033000Y-76776000D03*
X134233000Y-76776000D03*
D23*
X132783000Y-78226000D03*
X132783000Y-79026000D03*
X132783000Y-79826000D03*
X132783000Y-80626000D03*
X132783000Y-81426000D03*
X132783000Y-82226000D03*
X132783000Y-83026000D03*
X132783000Y-83826000D03*
%TD*%
%TO.C,U27*%
G36*
G01*
X96179500Y-95797500D02*
X96479500Y-95797500D01*
G75*
G02*
X96629500Y-95947500I0J-150000D01*
G01*
X96629500Y-97597500D01*
G75*
G02*
X96479500Y-97747500I-150000J0D01*
G01*
X96179500Y-97747500D01*
G75*
G02*
X96029500Y-97597500I0J150000D01*
G01*
X96029500Y-95947500D01*
G75*
G02*
X96179500Y-95797500I150000J0D01*
G01*
G37*
G36*
G01*
X97449500Y-95797500D02*
X97749500Y-95797500D01*
G75*
G02*
X97899500Y-95947500I0J-150000D01*
G01*
X97899500Y-97597500D01*
G75*
G02*
X97749500Y-97747500I-150000J0D01*
G01*
X97449500Y-97747500D01*
G75*
G02*
X97299500Y-97597500I0J150000D01*
G01*
X97299500Y-95947500D01*
G75*
G02*
X97449500Y-95797500I150000J0D01*
G01*
G37*
G36*
G01*
X98719500Y-95797500D02*
X99019500Y-95797500D01*
G75*
G02*
X99169500Y-95947500I0J-150000D01*
G01*
X99169500Y-97597500D01*
G75*
G02*
X99019500Y-97747500I-150000J0D01*
G01*
X98719500Y-97747500D01*
G75*
G02*
X98569500Y-97597500I0J150000D01*
G01*
X98569500Y-95947500D01*
G75*
G02*
X98719500Y-95797500I150000J0D01*
G01*
G37*
G36*
G01*
X99989500Y-95797500D02*
X100289500Y-95797500D01*
G75*
G02*
X100439500Y-95947500I0J-150000D01*
G01*
X100439500Y-97597500D01*
G75*
G02*
X100289500Y-97747500I-150000J0D01*
G01*
X99989500Y-97747500D01*
G75*
G02*
X99839500Y-97597500I0J150000D01*
G01*
X99839500Y-95947500D01*
G75*
G02*
X99989500Y-95797500I150000J0D01*
G01*
G37*
G36*
G01*
X101259500Y-95797500D02*
X101559500Y-95797500D01*
G75*
G02*
X101709500Y-95947500I0J-150000D01*
G01*
X101709500Y-97597500D01*
G75*
G02*
X101559500Y-97747500I-150000J0D01*
G01*
X101259500Y-97747500D01*
G75*
G02*
X101109500Y-97597500I0J150000D01*
G01*
X101109500Y-95947500D01*
G75*
G02*
X101259500Y-95797500I150000J0D01*
G01*
G37*
G36*
G01*
X102529500Y-95797500D02*
X102829500Y-95797500D01*
G75*
G02*
X102979500Y-95947500I0J-150000D01*
G01*
X102979500Y-97597500D01*
G75*
G02*
X102829500Y-97747500I-150000J0D01*
G01*
X102529500Y-97747500D01*
G75*
G02*
X102379500Y-97597500I0J150000D01*
G01*
X102379500Y-95947500D01*
G75*
G02*
X102529500Y-95797500I150000J0D01*
G01*
G37*
G36*
G01*
X103799500Y-95797500D02*
X104099500Y-95797500D01*
G75*
G02*
X104249500Y-95947500I0J-150000D01*
G01*
X104249500Y-97597500D01*
G75*
G02*
X104099500Y-97747500I-150000J0D01*
G01*
X103799500Y-97747500D01*
G75*
G02*
X103649500Y-97597500I0J150000D01*
G01*
X103649500Y-95947500D01*
G75*
G02*
X103799500Y-95797500I150000J0D01*
G01*
G37*
G36*
G01*
X105069500Y-95797500D02*
X105369500Y-95797500D01*
G75*
G02*
X105519500Y-95947500I0J-150000D01*
G01*
X105519500Y-97597500D01*
G75*
G02*
X105369500Y-97747500I-150000J0D01*
G01*
X105069500Y-97747500D01*
G75*
G02*
X104919500Y-97597500I0J150000D01*
G01*
X104919500Y-95947500D01*
G75*
G02*
X105069500Y-95797500I150000J0D01*
G01*
G37*
G36*
G01*
X105069500Y-90847500D02*
X105369500Y-90847500D01*
G75*
G02*
X105519500Y-90997500I0J-150000D01*
G01*
X105519500Y-92647500D01*
G75*
G02*
X105369500Y-92797500I-150000J0D01*
G01*
X105069500Y-92797500D01*
G75*
G02*
X104919500Y-92647500I0J150000D01*
G01*
X104919500Y-90997500D01*
G75*
G02*
X105069500Y-90847500I150000J0D01*
G01*
G37*
G36*
G01*
X103799500Y-90847500D02*
X104099500Y-90847500D01*
G75*
G02*
X104249500Y-90997500I0J-150000D01*
G01*
X104249500Y-92647500D01*
G75*
G02*
X104099500Y-92797500I-150000J0D01*
G01*
X103799500Y-92797500D01*
G75*
G02*
X103649500Y-92647500I0J150000D01*
G01*
X103649500Y-90997500D01*
G75*
G02*
X103799500Y-90847500I150000J0D01*
G01*
G37*
G36*
G01*
X102529500Y-90847500D02*
X102829500Y-90847500D01*
G75*
G02*
X102979500Y-90997500I0J-150000D01*
G01*
X102979500Y-92647500D01*
G75*
G02*
X102829500Y-92797500I-150000J0D01*
G01*
X102529500Y-92797500D01*
G75*
G02*
X102379500Y-92647500I0J150000D01*
G01*
X102379500Y-90997500D01*
G75*
G02*
X102529500Y-90847500I150000J0D01*
G01*
G37*
G36*
G01*
X101259500Y-90847500D02*
X101559500Y-90847500D01*
G75*
G02*
X101709500Y-90997500I0J-150000D01*
G01*
X101709500Y-92647500D01*
G75*
G02*
X101559500Y-92797500I-150000J0D01*
G01*
X101259500Y-92797500D01*
G75*
G02*
X101109500Y-92647500I0J150000D01*
G01*
X101109500Y-90997500D01*
G75*
G02*
X101259500Y-90847500I150000J0D01*
G01*
G37*
G36*
G01*
X99989500Y-90847500D02*
X100289500Y-90847500D01*
G75*
G02*
X100439500Y-90997500I0J-150000D01*
G01*
X100439500Y-92647500D01*
G75*
G02*
X100289500Y-92797500I-150000J0D01*
G01*
X99989500Y-92797500D01*
G75*
G02*
X99839500Y-92647500I0J150000D01*
G01*
X99839500Y-90997500D01*
G75*
G02*
X99989500Y-90847500I150000J0D01*
G01*
G37*
G36*
G01*
X98719500Y-90847500D02*
X99019500Y-90847500D01*
G75*
G02*
X99169500Y-90997500I0J-150000D01*
G01*
X99169500Y-92647500D01*
G75*
G02*
X99019500Y-92797500I-150000J0D01*
G01*
X98719500Y-92797500D01*
G75*
G02*
X98569500Y-92647500I0J150000D01*
G01*
X98569500Y-90997500D01*
G75*
G02*
X98719500Y-90847500I150000J0D01*
G01*
G37*
G36*
G01*
X97449500Y-90847500D02*
X97749500Y-90847500D01*
G75*
G02*
X97899500Y-90997500I0J-150000D01*
G01*
X97899500Y-92647500D01*
G75*
G02*
X97749500Y-92797500I-150000J0D01*
G01*
X97449500Y-92797500D01*
G75*
G02*
X97299500Y-92647500I0J150000D01*
G01*
X97299500Y-90997500D01*
G75*
G02*
X97449500Y-90847500I150000J0D01*
G01*
G37*
G36*
G01*
X96179500Y-90847500D02*
X96479500Y-90847500D01*
G75*
G02*
X96629500Y-90997500I0J-150000D01*
G01*
X96629500Y-92647500D01*
G75*
G02*
X96479500Y-92797500I-150000J0D01*
G01*
X96179500Y-92797500D01*
G75*
G02*
X96029500Y-92647500I0J150000D01*
G01*
X96029500Y-90997500D01*
G75*
G02*
X96179500Y-90847500I150000J0D01*
G01*
G37*
%TD*%
%TO.C,U26*%
G36*
G01*
X101137500Y-105058500D02*
X101337500Y-105058500D01*
G75*
G02*
X101437500Y-105158500I0J-100000D01*
G01*
X101437500Y-106433500D01*
G75*
G02*
X101337500Y-106533500I-100000J0D01*
G01*
X101137500Y-106533500D01*
G75*
G02*
X101037500Y-106433500I0J100000D01*
G01*
X101037500Y-105158500D01*
G75*
G02*
X101137500Y-105058500I100000J0D01*
G01*
G37*
G36*
G01*
X101787500Y-105058500D02*
X101987500Y-105058500D01*
G75*
G02*
X102087500Y-105158500I0J-100000D01*
G01*
X102087500Y-106433500D01*
G75*
G02*
X101987500Y-106533500I-100000J0D01*
G01*
X101787500Y-106533500D01*
G75*
G02*
X101687500Y-106433500I0J100000D01*
G01*
X101687500Y-105158500D01*
G75*
G02*
X101787500Y-105058500I100000J0D01*
G01*
G37*
G36*
G01*
X102437500Y-105058500D02*
X102637500Y-105058500D01*
G75*
G02*
X102737500Y-105158500I0J-100000D01*
G01*
X102737500Y-106433500D01*
G75*
G02*
X102637500Y-106533500I-100000J0D01*
G01*
X102437500Y-106533500D01*
G75*
G02*
X102337500Y-106433500I0J100000D01*
G01*
X102337500Y-105158500D01*
G75*
G02*
X102437500Y-105058500I100000J0D01*
G01*
G37*
G36*
G01*
X103087500Y-105058500D02*
X103287500Y-105058500D01*
G75*
G02*
X103387500Y-105158500I0J-100000D01*
G01*
X103387500Y-106433500D01*
G75*
G02*
X103287500Y-106533500I-100000J0D01*
G01*
X103087500Y-106533500D01*
G75*
G02*
X102987500Y-106433500I0J100000D01*
G01*
X102987500Y-105158500D01*
G75*
G02*
X103087500Y-105058500I100000J0D01*
G01*
G37*
G36*
G01*
X103737500Y-105058500D02*
X103937500Y-105058500D01*
G75*
G02*
X104037500Y-105158500I0J-100000D01*
G01*
X104037500Y-106433500D01*
G75*
G02*
X103937500Y-106533500I-100000J0D01*
G01*
X103737500Y-106533500D01*
G75*
G02*
X103637500Y-106433500I0J100000D01*
G01*
X103637500Y-105158500D01*
G75*
G02*
X103737500Y-105058500I100000J0D01*
G01*
G37*
G36*
G01*
X104387500Y-105058500D02*
X104587500Y-105058500D01*
G75*
G02*
X104687500Y-105158500I0J-100000D01*
G01*
X104687500Y-106433500D01*
G75*
G02*
X104587500Y-106533500I-100000J0D01*
G01*
X104387500Y-106533500D01*
G75*
G02*
X104287500Y-106433500I0J100000D01*
G01*
X104287500Y-105158500D01*
G75*
G02*
X104387500Y-105058500I100000J0D01*
G01*
G37*
G36*
G01*
X105037500Y-105058500D02*
X105237500Y-105058500D01*
G75*
G02*
X105337500Y-105158500I0J-100000D01*
G01*
X105337500Y-106433500D01*
G75*
G02*
X105237500Y-106533500I-100000J0D01*
G01*
X105037500Y-106533500D01*
G75*
G02*
X104937500Y-106433500I0J100000D01*
G01*
X104937500Y-105158500D01*
G75*
G02*
X105037500Y-105058500I100000J0D01*
G01*
G37*
G36*
G01*
X105037500Y-99333500D02*
X105237500Y-99333500D01*
G75*
G02*
X105337500Y-99433500I0J-100000D01*
G01*
X105337500Y-100708500D01*
G75*
G02*
X105237500Y-100808500I-100000J0D01*
G01*
X105037500Y-100808500D01*
G75*
G02*
X104937500Y-100708500I0J100000D01*
G01*
X104937500Y-99433500D01*
G75*
G02*
X105037500Y-99333500I100000J0D01*
G01*
G37*
G36*
G01*
X104387500Y-99333500D02*
X104587500Y-99333500D01*
G75*
G02*
X104687500Y-99433500I0J-100000D01*
G01*
X104687500Y-100708500D01*
G75*
G02*
X104587500Y-100808500I-100000J0D01*
G01*
X104387500Y-100808500D01*
G75*
G02*
X104287500Y-100708500I0J100000D01*
G01*
X104287500Y-99433500D01*
G75*
G02*
X104387500Y-99333500I100000J0D01*
G01*
G37*
G36*
G01*
X103737500Y-99333500D02*
X103937500Y-99333500D01*
G75*
G02*
X104037500Y-99433500I0J-100000D01*
G01*
X104037500Y-100708500D01*
G75*
G02*
X103937500Y-100808500I-100000J0D01*
G01*
X103737500Y-100808500D01*
G75*
G02*
X103637500Y-100708500I0J100000D01*
G01*
X103637500Y-99433500D01*
G75*
G02*
X103737500Y-99333500I100000J0D01*
G01*
G37*
G36*
G01*
X103087500Y-99333500D02*
X103287500Y-99333500D01*
G75*
G02*
X103387500Y-99433500I0J-100000D01*
G01*
X103387500Y-100708500D01*
G75*
G02*
X103287500Y-100808500I-100000J0D01*
G01*
X103087500Y-100808500D01*
G75*
G02*
X102987500Y-100708500I0J100000D01*
G01*
X102987500Y-99433500D01*
G75*
G02*
X103087500Y-99333500I100000J0D01*
G01*
G37*
G36*
G01*
X102437500Y-99333500D02*
X102637500Y-99333500D01*
G75*
G02*
X102737500Y-99433500I0J-100000D01*
G01*
X102737500Y-100708500D01*
G75*
G02*
X102637500Y-100808500I-100000J0D01*
G01*
X102437500Y-100808500D01*
G75*
G02*
X102337500Y-100708500I0J100000D01*
G01*
X102337500Y-99433500D01*
G75*
G02*
X102437500Y-99333500I100000J0D01*
G01*
G37*
G36*
G01*
X101787500Y-99333500D02*
X101987500Y-99333500D01*
G75*
G02*
X102087500Y-99433500I0J-100000D01*
G01*
X102087500Y-100708500D01*
G75*
G02*
X101987500Y-100808500I-100000J0D01*
G01*
X101787500Y-100808500D01*
G75*
G02*
X101687500Y-100708500I0J100000D01*
G01*
X101687500Y-99433500D01*
G75*
G02*
X101787500Y-99333500I100000J0D01*
G01*
G37*
G36*
G01*
X101137500Y-99333500D02*
X101337500Y-99333500D01*
G75*
G02*
X101437500Y-99433500I0J-100000D01*
G01*
X101437500Y-100708500D01*
G75*
G02*
X101337500Y-100808500I-100000J0D01*
G01*
X101137500Y-100808500D01*
G75*
G02*
X101037500Y-100708500I0J100000D01*
G01*
X101037500Y-99433500D01*
G75*
G02*
X101137500Y-99333500I100000J0D01*
G01*
G37*
%TD*%
D24*
%TO.C,U25*%
X161604000Y-153733500D03*
X161604000Y-153098500D03*
X161604000Y-152463500D03*
X161604000Y-151828500D03*
X161604000Y-151193500D03*
X161604000Y-150558500D03*
X161604000Y-149923500D03*
X161604000Y-149288500D03*
X161604000Y-148653500D03*
X161604000Y-148018500D03*
X156404000Y-148018500D03*
X156404000Y-148653500D03*
X156404000Y-149288500D03*
X156404000Y-149923500D03*
X156404000Y-150558500D03*
X156404000Y-151193500D03*
X156404000Y-151828500D03*
X156404000Y-152463500D03*
X156404000Y-153098500D03*
X156404000Y-153733500D03*
%TD*%
D25*
%TO.C,U24*%
X90497000Y-113030000D03*
D26*
X81347000Y-110490000D03*
X81347000Y-115570000D03*
%TD*%
D19*
%TO.C,U20*%
X91567000Y-125603000D03*
X99187000Y-133223000D03*
X94107000Y-125603000D03*
X96647000Y-133223000D03*
X96647000Y-125603000D03*
X94107000Y-133223000D03*
X99187000Y-125603000D03*
D20*
X91567000Y-133223000D03*
%TD*%
D19*
%TO.C,U19*%
X53594000Y-130302000D03*
X61214000Y-122682000D03*
X53594000Y-127762000D03*
X61214000Y-125222000D03*
X53594000Y-125222000D03*
X61214000Y-127762000D03*
X53594000Y-122682000D03*
D20*
X61214000Y-130302000D03*
%TD*%
D19*
%TO.C,U18*%
X53594000Y-118110000D03*
X61214000Y-110490000D03*
X53594000Y-115570000D03*
X61214000Y-113030000D03*
X53594000Y-113030000D03*
X61214000Y-115570000D03*
X53594000Y-110490000D03*
D20*
X61214000Y-118110000D03*
%TD*%
D19*
%TO.C,U17*%
X153860500Y-123190000D03*
X161480500Y-115570000D03*
X153860500Y-120650000D03*
X161480500Y-118110000D03*
X153860500Y-118110000D03*
X161480500Y-120650000D03*
X153860500Y-115570000D03*
D20*
X161480500Y-123190000D03*
%TD*%
D19*
%TO.C,U16*%
X166751000Y-123317000D03*
X174371000Y-115697000D03*
X166751000Y-120777000D03*
X174371000Y-118237000D03*
X166751000Y-118237000D03*
X174371000Y-120777000D03*
X166751000Y-115697000D03*
D20*
X174371000Y-123317000D03*
%TD*%
D19*
%TO.C,U14*%
X153860500Y-135890000D03*
X161480500Y-128270000D03*
X153860500Y-133350000D03*
X161480500Y-130810000D03*
X153860500Y-130810000D03*
X161480500Y-133350000D03*
X153860500Y-128270000D03*
D20*
X161480500Y-135890000D03*
%TD*%
D19*
%TO.C,U13*%
X82804000Y-136779000D03*
X90424000Y-144399000D03*
X85344000Y-136779000D03*
X87884000Y-144399000D03*
X87884000Y-136779000D03*
X85344000Y-144399000D03*
X90424000Y-136779000D03*
D20*
X82804000Y-144399000D03*
%TD*%
D19*
%TO.C,U12*%
X70358000Y-136779000D03*
X77978000Y-144399000D03*
X72898000Y-136779000D03*
X75438000Y-144399000D03*
X75438000Y-136779000D03*
X72898000Y-144399000D03*
X77978000Y-136779000D03*
D20*
X70358000Y-144399000D03*
%TD*%
D19*
%TO.C,U11*%
X95250000Y-136779000D03*
X102870000Y-144399000D03*
X97790000Y-136779000D03*
X100330000Y-144399000D03*
X100330000Y-136779000D03*
X97790000Y-144399000D03*
X102870000Y-136779000D03*
D20*
X95250000Y-144399000D03*
%TD*%
D19*
%TO.C,U10*%
X107696000Y-136779000D03*
X115316000Y-144399000D03*
X110236000Y-136779000D03*
X112776000Y-144399000D03*
X112776000Y-136779000D03*
X110236000Y-144399000D03*
X115316000Y-136779000D03*
D20*
X107696000Y-144399000D03*
%TD*%
D19*
%TO.C,U9*%
X120142000Y-136779000D03*
X127762000Y-144399000D03*
X122682000Y-136779000D03*
X125222000Y-144399000D03*
X125222000Y-136779000D03*
X122682000Y-144399000D03*
X127762000Y-136779000D03*
D20*
X120142000Y-144399000D03*
%TD*%
%TO.C,U3*%
G36*
G01*
X101951000Y-119194000D02*
X101951000Y-119394000D01*
G75*
G02*
X101851000Y-119494000I-100000J0D01*
G01*
X100426000Y-119494000D01*
G75*
G02*
X100326000Y-119394000I0J100000D01*
G01*
X100326000Y-119194000D01*
G75*
G02*
X100426000Y-119094000I100000J0D01*
G01*
X101851000Y-119094000D01*
G75*
G02*
X101951000Y-119194000I0J-100000D01*
G01*
G37*
G36*
G01*
X101951000Y-119844000D02*
X101951000Y-120044000D01*
G75*
G02*
X101851000Y-120144000I-100000J0D01*
G01*
X100426000Y-120144000D01*
G75*
G02*
X100326000Y-120044000I0J100000D01*
G01*
X100326000Y-119844000D01*
G75*
G02*
X100426000Y-119744000I100000J0D01*
G01*
X101851000Y-119744000D01*
G75*
G02*
X101951000Y-119844000I0J-100000D01*
G01*
G37*
G36*
G01*
X101951000Y-120494000D02*
X101951000Y-120694000D01*
G75*
G02*
X101851000Y-120794000I-100000J0D01*
G01*
X100426000Y-120794000D01*
G75*
G02*
X100326000Y-120694000I0J100000D01*
G01*
X100326000Y-120494000D01*
G75*
G02*
X100426000Y-120394000I100000J0D01*
G01*
X101851000Y-120394000D01*
G75*
G02*
X101951000Y-120494000I0J-100000D01*
G01*
G37*
G36*
G01*
X101951000Y-121144000D02*
X101951000Y-121344000D01*
G75*
G02*
X101851000Y-121444000I-100000J0D01*
G01*
X100426000Y-121444000D01*
G75*
G02*
X100326000Y-121344000I0J100000D01*
G01*
X100326000Y-121144000D01*
G75*
G02*
X100426000Y-121044000I100000J0D01*
G01*
X101851000Y-121044000D01*
G75*
G02*
X101951000Y-121144000I0J-100000D01*
G01*
G37*
G36*
G01*
X106176000Y-121144000D02*
X106176000Y-121344000D01*
G75*
G02*
X106076000Y-121444000I-100000J0D01*
G01*
X104651000Y-121444000D01*
G75*
G02*
X104551000Y-121344000I0J100000D01*
G01*
X104551000Y-121144000D01*
G75*
G02*
X104651000Y-121044000I100000J0D01*
G01*
X106076000Y-121044000D01*
G75*
G02*
X106176000Y-121144000I0J-100000D01*
G01*
G37*
G36*
G01*
X106176000Y-120494000D02*
X106176000Y-120694000D01*
G75*
G02*
X106076000Y-120794000I-100000J0D01*
G01*
X104651000Y-120794000D01*
G75*
G02*
X104551000Y-120694000I0J100000D01*
G01*
X104551000Y-120494000D01*
G75*
G02*
X104651000Y-120394000I100000J0D01*
G01*
X106076000Y-120394000D01*
G75*
G02*
X106176000Y-120494000I0J-100000D01*
G01*
G37*
G36*
G01*
X106176000Y-119844000D02*
X106176000Y-120044000D01*
G75*
G02*
X106076000Y-120144000I-100000J0D01*
G01*
X104651000Y-120144000D01*
G75*
G02*
X104551000Y-120044000I0J100000D01*
G01*
X104551000Y-119844000D01*
G75*
G02*
X104651000Y-119744000I100000J0D01*
G01*
X106076000Y-119744000D01*
G75*
G02*
X106176000Y-119844000I0J-100000D01*
G01*
G37*
G36*
G01*
X106176000Y-119194000D02*
X106176000Y-119394000D01*
G75*
G02*
X106076000Y-119494000I-100000J0D01*
G01*
X104651000Y-119494000D01*
G75*
G02*
X104551000Y-119394000I0J100000D01*
G01*
X104551000Y-119194000D01*
G75*
G02*
X104651000Y-119094000I100000J0D01*
G01*
X106076000Y-119094000D01*
G75*
G02*
X106176000Y-119194000I0J-100000D01*
G01*
G37*
%TD*%
D24*
%TO.C,U1*%
X142300000Y-153479500D03*
X142300000Y-152844500D03*
X142300000Y-152209500D03*
X142300000Y-151574500D03*
X142300000Y-150939500D03*
X142300000Y-150304500D03*
X142300000Y-149669500D03*
X142300000Y-149034500D03*
X142300000Y-148399500D03*
X142300000Y-147764500D03*
X137100000Y-147764500D03*
X137100000Y-148399500D03*
X137100000Y-149034500D03*
X137100000Y-149669500D03*
X137100000Y-150304500D03*
X137100000Y-150939500D03*
X137100000Y-151574500D03*
X137100000Y-152209500D03*
X137100000Y-152844500D03*
X137100000Y-153479500D03*
%TD*%
%TO.C,R63*%
G36*
G01*
X115045500Y-92031000D02*
X114570500Y-92031000D01*
G75*
G02*
X114333000Y-91793500I0J237500D01*
G01*
X114333000Y-91293500D01*
G75*
G02*
X114570500Y-91056000I237500J0D01*
G01*
X115045500Y-91056000D01*
G75*
G02*
X115283000Y-91293500I0J-237500D01*
G01*
X115283000Y-91793500D01*
G75*
G02*
X115045500Y-92031000I-237500J0D01*
G01*
G37*
G36*
G01*
X115045500Y-93856000D02*
X114570500Y-93856000D01*
G75*
G02*
X114333000Y-93618500I0J237500D01*
G01*
X114333000Y-93118500D01*
G75*
G02*
X114570500Y-92881000I237500J0D01*
G01*
X115045500Y-92881000D01*
G75*
G02*
X115283000Y-93118500I0J-237500D01*
G01*
X115283000Y-93618500D01*
G75*
G02*
X115045500Y-93856000I-237500J0D01*
G01*
G37*
%TD*%
%TO.C,R58*%
G36*
G01*
X96222000Y-101489500D02*
X96222000Y-101964500D01*
G75*
G02*
X95984500Y-102202000I-237500J0D01*
G01*
X95484500Y-102202000D01*
G75*
G02*
X95247000Y-101964500I0J237500D01*
G01*
X95247000Y-101489500D01*
G75*
G02*
X95484500Y-101252000I237500J0D01*
G01*
X95984500Y-101252000D01*
G75*
G02*
X96222000Y-101489500I0J-237500D01*
G01*
G37*
G36*
G01*
X98047000Y-101489500D02*
X98047000Y-101964500D01*
G75*
G02*
X97809500Y-102202000I-237500J0D01*
G01*
X97309500Y-102202000D01*
G75*
G02*
X97072000Y-101964500I0J237500D01*
G01*
X97072000Y-101489500D01*
G75*
G02*
X97309500Y-101252000I237500J0D01*
G01*
X97809500Y-101252000D01*
G75*
G02*
X98047000Y-101489500I0J-237500D01*
G01*
G37*
%TD*%
%TO.C,R57*%
G36*
G01*
X175825999Y-141166000D02*
X176726001Y-141166000D01*
G75*
G02*
X176976000Y-141415999I0J-249999D01*
G01*
X176976000Y-142066001D01*
G75*
G02*
X176726001Y-142316000I-249999J0D01*
G01*
X175825999Y-142316000D01*
G75*
G02*
X175576000Y-142066001I0J249999D01*
G01*
X175576000Y-141415999D01*
G75*
G02*
X175825999Y-141166000I249999J0D01*
G01*
G37*
G36*
G01*
X175825999Y-139116000D02*
X176726001Y-139116000D01*
G75*
G02*
X176976000Y-139365999I0J-249999D01*
G01*
X176976000Y-140016001D01*
G75*
G02*
X176726001Y-140266000I-249999J0D01*
G01*
X175825999Y-140266000D01*
G75*
G02*
X175576000Y-140016001I0J249999D01*
G01*
X175576000Y-139365999D01*
G75*
G02*
X175825999Y-139116000I249999J0D01*
G01*
G37*
%TD*%
%TO.C,R56*%
G36*
G01*
X150130500Y-128568000D02*
X150605500Y-128568000D01*
G75*
G02*
X150843000Y-128805500I0J-237500D01*
G01*
X150843000Y-129305500D01*
G75*
G02*
X150605500Y-129543000I-237500J0D01*
G01*
X150130500Y-129543000D01*
G75*
G02*
X149893000Y-129305500I0J237500D01*
G01*
X149893000Y-128805500D01*
G75*
G02*
X150130500Y-128568000I237500J0D01*
G01*
G37*
G36*
G01*
X150130500Y-126743000D02*
X150605500Y-126743000D01*
G75*
G02*
X150843000Y-126980500I0J-237500D01*
G01*
X150843000Y-127480500D01*
G75*
G02*
X150605500Y-127718000I-237500J0D01*
G01*
X150130500Y-127718000D01*
G75*
G02*
X149893000Y-127480500I0J237500D01*
G01*
X149893000Y-126980500D01*
G75*
G02*
X150130500Y-126743000I237500J0D01*
G01*
G37*
%TD*%
%TO.C,R55*%
G36*
G01*
X147082500Y-128568000D02*
X147557500Y-128568000D01*
G75*
G02*
X147795000Y-128805500I0J-237500D01*
G01*
X147795000Y-129305500D01*
G75*
G02*
X147557500Y-129543000I-237500J0D01*
G01*
X147082500Y-129543000D01*
G75*
G02*
X146845000Y-129305500I0J237500D01*
G01*
X146845000Y-128805500D01*
G75*
G02*
X147082500Y-128568000I237500J0D01*
G01*
G37*
G36*
G01*
X147082500Y-126743000D02*
X147557500Y-126743000D01*
G75*
G02*
X147795000Y-126980500I0J-237500D01*
G01*
X147795000Y-127480500D01*
G75*
G02*
X147557500Y-127718000I-237500J0D01*
G01*
X147082500Y-127718000D01*
G75*
G02*
X146845000Y-127480500I0J237500D01*
G01*
X146845000Y-126980500D01*
G75*
G02*
X147082500Y-126743000I237500J0D01*
G01*
G37*
%TD*%
%TO.C,R54*%
G36*
G01*
X172269999Y-141166000D02*
X173170001Y-141166000D01*
G75*
G02*
X173420000Y-141415999I0J-249999D01*
G01*
X173420000Y-142066001D01*
G75*
G02*
X173170001Y-142316000I-249999J0D01*
G01*
X172269999Y-142316000D01*
G75*
G02*
X172020000Y-142066001I0J249999D01*
G01*
X172020000Y-141415999D01*
G75*
G02*
X172269999Y-141166000I249999J0D01*
G01*
G37*
G36*
G01*
X172269999Y-139116000D02*
X173170001Y-139116000D01*
G75*
G02*
X173420000Y-139365999I0J-249999D01*
G01*
X173420000Y-140016001D01*
G75*
G02*
X173170001Y-140266000I-249999J0D01*
G01*
X172269999Y-140266000D01*
G75*
G02*
X172020000Y-140016001I0J249999D01*
G01*
X172020000Y-139365999D01*
G75*
G02*
X172269999Y-139116000I249999J0D01*
G01*
G37*
%TD*%
%TO.C,R52*%
G36*
G01*
X154515000Y-139970500D02*
X154515000Y-140445500D01*
G75*
G02*
X154277500Y-140683000I-237500J0D01*
G01*
X153777500Y-140683000D01*
G75*
G02*
X153540000Y-140445500I0J237500D01*
G01*
X153540000Y-139970500D01*
G75*
G02*
X153777500Y-139733000I237500J0D01*
G01*
X154277500Y-139733000D01*
G75*
G02*
X154515000Y-139970500I0J-237500D01*
G01*
G37*
G36*
G01*
X156340000Y-139970500D02*
X156340000Y-140445500D01*
G75*
G02*
X156102500Y-140683000I-237500J0D01*
G01*
X155602500Y-140683000D01*
G75*
G02*
X155365000Y-140445500I0J237500D01*
G01*
X155365000Y-139970500D01*
G75*
G02*
X155602500Y-139733000I237500J0D01*
G01*
X156102500Y-139733000D01*
G75*
G02*
X156340000Y-139970500I0J-237500D01*
G01*
G37*
%TD*%
%TO.C,R51*%
G36*
G01*
X154411500Y-142764500D02*
X154411500Y-143239500D01*
G75*
G02*
X154174000Y-143477000I-237500J0D01*
G01*
X153674000Y-143477000D01*
G75*
G02*
X153436500Y-143239500I0J237500D01*
G01*
X153436500Y-142764500D01*
G75*
G02*
X153674000Y-142527000I237500J0D01*
G01*
X154174000Y-142527000D01*
G75*
G02*
X154411500Y-142764500I0J-237500D01*
G01*
G37*
G36*
G01*
X156236500Y-142764500D02*
X156236500Y-143239500D01*
G75*
G02*
X155999000Y-143477000I-237500J0D01*
G01*
X155499000Y-143477000D01*
G75*
G02*
X155261500Y-143239500I0J237500D01*
G01*
X155261500Y-142764500D01*
G75*
G02*
X155499000Y-142527000I237500J0D01*
G01*
X155999000Y-142527000D01*
G75*
G02*
X156236500Y-142764500I0J-237500D01*
G01*
G37*
%TD*%
%TO.C,R49*%
G36*
G01*
X43884001Y-139885000D02*
X42983999Y-139885000D01*
G75*
G02*
X42734000Y-139635001I0J249999D01*
G01*
X42734000Y-138984999D01*
G75*
G02*
X42983999Y-138735000I249999J0D01*
G01*
X43884001Y-138735000D01*
G75*
G02*
X44134000Y-138984999I0J-249999D01*
G01*
X44134000Y-139635001D01*
G75*
G02*
X43884001Y-139885000I-249999J0D01*
G01*
G37*
G36*
G01*
X43884001Y-141935000D02*
X42983999Y-141935000D01*
G75*
G02*
X42734000Y-141685001I0J249999D01*
G01*
X42734000Y-141034999D01*
G75*
G02*
X42983999Y-140785000I249999J0D01*
G01*
X43884001Y-140785000D01*
G75*
G02*
X44134000Y-141034999I0J-249999D01*
G01*
X44134000Y-141685001D01*
G75*
G02*
X43884001Y-141935000I-249999J0D01*
G01*
G37*
%TD*%
%TO.C,R48*%
G36*
G01*
X62186000Y-132477500D02*
X62186000Y-132952500D01*
G75*
G02*
X61948500Y-133190000I-237500J0D01*
G01*
X61448500Y-133190000D01*
G75*
G02*
X61211000Y-132952500I0J237500D01*
G01*
X61211000Y-132477500D01*
G75*
G02*
X61448500Y-132240000I237500J0D01*
G01*
X61948500Y-132240000D01*
G75*
G02*
X62186000Y-132477500I0J-237500D01*
G01*
G37*
G36*
G01*
X64011000Y-132477500D02*
X64011000Y-132952500D01*
G75*
G02*
X63773500Y-133190000I-237500J0D01*
G01*
X63273500Y-133190000D01*
G75*
G02*
X63036000Y-132952500I0J237500D01*
G01*
X63036000Y-132477500D01*
G75*
G02*
X63273500Y-132240000I237500J0D01*
G01*
X63773500Y-132240000D01*
G75*
G02*
X64011000Y-132477500I0J-237500D01*
G01*
G37*
%TD*%
%TO.C,R39*%
G36*
G01*
X78237500Y-128974001D02*
X78237500Y-128073999D01*
G75*
G02*
X78487499Y-127824000I249999J0D01*
G01*
X79137501Y-127824000D01*
G75*
G02*
X79387500Y-128073999I0J-249999D01*
G01*
X79387500Y-128974001D01*
G75*
G02*
X79137501Y-129224000I-249999J0D01*
G01*
X78487499Y-129224000D01*
G75*
G02*
X78237500Y-128974001I0J249999D01*
G01*
G37*
G36*
G01*
X76187500Y-128974001D02*
X76187500Y-128073999D01*
G75*
G02*
X76437499Y-127824000I249999J0D01*
G01*
X77087501Y-127824000D01*
G75*
G02*
X77337500Y-128073999I0J-249999D01*
G01*
X77337500Y-128974001D01*
G75*
G02*
X77087501Y-129224000I-249999J0D01*
G01*
X76437499Y-129224000D01*
G75*
G02*
X76187500Y-128974001I0J249999D01*
G01*
G37*
%TD*%
%TO.C,R38*%
G36*
G01*
X76244000Y-117966500D02*
X76244000Y-117491500D01*
G75*
G02*
X76481500Y-117254000I237500J0D01*
G01*
X76981500Y-117254000D01*
G75*
G02*
X77219000Y-117491500I0J-237500D01*
G01*
X77219000Y-117966500D01*
G75*
G02*
X76981500Y-118204000I-237500J0D01*
G01*
X76481500Y-118204000D01*
G75*
G02*
X76244000Y-117966500I0J237500D01*
G01*
G37*
G36*
G01*
X74419000Y-117966500D02*
X74419000Y-117491500D01*
G75*
G02*
X74656500Y-117254000I237500J0D01*
G01*
X75156500Y-117254000D01*
G75*
G02*
X75394000Y-117491500I0J-237500D01*
G01*
X75394000Y-117966500D01*
G75*
G02*
X75156500Y-118204000I-237500J0D01*
G01*
X74656500Y-118204000D01*
G75*
G02*
X74419000Y-117966500I0J237500D01*
G01*
G37*
%TD*%
%TO.C,R37*%
G36*
G01*
X72219000Y-104410500D02*
X72219000Y-104885500D01*
G75*
G02*
X71981500Y-105123000I-237500J0D01*
G01*
X71481500Y-105123000D01*
G75*
G02*
X71244000Y-104885500I0J237500D01*
G01*
X71244000Y-104410500D01*
G75*
G02*
X71481500Y-104173000I237500J0D01*
G01*
X71981500Y-104173000D01*
G75*
G02*
X72219000Y-104410500I0J-237500D01*
G01*
G37*
G36*
G01*
X74044000Y-104410500D02*
X74044000Y-104885500D01*
G75*
G02*
X73806500Y-105123000I-237500J0D01*
G01*
X73306500Y-105123000D01*
G75*
G02*
X73069000Y-104885500I0J237500D01*
G01*
X73069000Y-104410500D01*
G75*
G02*
X73306500Y-104173000I237500J0D01*
G01*
X73806500Y-104173000D01*
G75*
G02*
X74044000Y-104410500I0J-237500D01*
G01*
G37*
%TD*%
%TO.C,R36*%
G36*
G01*
X82555500Y-128974001D02*
X82555500Y-128073999D01*
G75*
G02*
X82805499Y-127824000I249999J0D01*
G01*
X83455501Y-127824000D01*
G75*
G02*
X83705500Y-128073999I0J-249999D01*
G01*
X83705500Y-128974001D01*
G75*
G02*
X83455501Y-129224000I-249999J0D01*
G01*
X82805499Y-129224000D01*
G75*
G02*
X82555500Y-128974001I0J249999D01*
G01*
G37*
G36*
G01*
X80505500Y-128974001D02*
X80505500Y-128073999D01*
G75*
G02*
X80755499Y-127824000I249999J0D01*
G01*
X81405501Y-127824000D01*
G75*
G02*
X81655500Y-128073999I0J-249999D01*
G01*
X81655500Y-128974001D01*
G75*
G02*
X81405501Y-129224000I-249999J0D01*
G01*
X80755499Y-129224000D01*
G75*
G02*
X80505500Y-128974001I0J249999D01*
G01*
G37*
%TD*%
%TO.C,R34*%
G36*
G01*
X87000500Y-128974001D02*
X87000500Y-128073999D01*
G75*
G02*
X87250499Y-127824000I249999J0D01*
G01*
X87900501Y-127824000D01*
G75*
G02*
X88150500Y-128073999I0J-249999D01*
G01*
X88150500Y-128974001D01*
G75*
G02*
X87900501Y-129224000I-249999J0D01*
G01*
X87250499Y-129224000D01*
G75*
G02*
X87000500Y-128974001I0J249999D01*
G01*
G37*
G36*
G01*
X84950500Y-128974001D02*
X84950500Y-128073999D01*
G75*
G02*
X85200499Y-127824000I249999J0D01*
G01*
X85850501Y-127824000D01*
G75*
G02*
X86100500Y-128073999I0J-249999D01*
G01*
X86100500Y-128974001D01*
G75*
G02*
X85850501Y-129224000I-249999J0D01*
G01*
X85200499Y-129224000D01*
G75*
G02*
X84950500Y-128974001I0J249999D01*
G01*
G37*
%TD*%
%TO.C,R32*%
G36*
G01*
X49980001Y-122549500D02*
X49079999Y-122549500D01*
G75*
G02*
X48830000Y-122299501I0J249999D01*
G01*
X48830000Y-121649499D01*
G75*
G02*
X49079999Y-121399500I249999J0D01*
G01*
X49980001Y-121399500D01*
G75*
G02*
X50230000Y-121649499I0J-249999D01*
G01*
X50230000Y-122299501D01*
G75*
G02*
X49980001Y-122549500I-249999J0D01*
G01*
G37*
G36*
G01*
X49980001Y-124599500D02*
X49079999Y-124599500D01*
G75*
G02*
X48830000Y-124349501I0J249999D01*
G01*
X48830000Y-123699499D01*
G75*
G02*
X49079999Y-123449500I249999J0D01*
G01*
X49980001Y-123449500D01*
G75*
G02*
X50230000Y-123699499I0J-249999D01*
G01*
X50230000Y-124349501D01*
G75*
G02*
X49980001Y-124599500I-249999J0D01*
G01*
G37*
%TD*%
%TO.C,R31*%
G36*
G01*
X50424501Y-110929000D02*
X49524499Y-110929000D01*
G75*
G02*
X49274500Y-110679001I0J249999D01*
G01*
X49274500Y-110028999D01*
G75*
G02*
X49524499Y-109779000I249999J0D01*
G01*
X50424501Y-109779000D01*
G75*
G02*
X50674500Y-110028999I0J-249999D01*
G01*
X50674500Y-110679001D01*
G75*
G02*
X50424501Y-110929000I-249999J0D01*
G01*
G37*
G36*
G01*
X50424501Y-112979000D02*
X49524499Y-112979000D01*
G75*
G02*
X49274500Y-112729001I0J249999D01*
G01*
X49274500Y-112078999D01*
G75*
G02*
X49524499Y-111829000I249999J0D01*
G01*
X50424501Y-111829000D01*
G75*
G02*
X50674500Y-112078999I0J-249999D01*
G01*
X50674500Y-112729001D01*
G75*
G02*
X50424501Y-112979000I-249999J0D01*
G01*
G37*
%TD*%
%TO.C,R30*%
G36*
G01*
X87762501Y-132773000D02*
X86862499Y-132773000D01*
G75*
G02*
X86612500Y-132523001I0J249999D01*
G01*
X86612500Y-131872999D01*
G75*
G02*
X86862499Y-131623000I249999J0D01*
G01*
X87762501Y-131623000D01*
G75*
G02*
X88012500Y-131872999I0J-249999D01*
G01*
X88012500Y-132523001D01*
G75*
G02*
X87762501Y-132773000I-249999J0D01*
G01*
G37*
G36*
G01*
X87762501Y-134823000D02*
X86862499Y-134823000D01*
G75*
G02*
X86612500Y-134573001I0J249999D01*
G01*
X86612500Y-133922999D01*
G75*
G02*
X86862499Y-133673000I249999J0D01*
G01*
X87762501Y-133673000D01*
G75*
G02*
X88012500Y-133922999I0J-249999D01*
G01*
X88012500Y-134573001D01*
G75*
G02*
X87762501Y-134823000I-249999J0D01*
G01*
G37*
%TD*%
%TO.C,R27*%
G36*
G01*
X95700000Y-130117001D02*
X95700000Y-129216999D01*
G75*
G02*
X95949999Y-128967000I249999J0D01*
G01*
X96600001Y-128967000D01*
G75*
G02*
X96850000Y-129216999I0J-249999D01*
G01*
X96850000Y-130117001D01*
G75*
G02*
X96600001Y-130367000I-249999J0D01*
G01*
X95949999Y-130367000D01*
G75*
G02*
X95700000Y-130117001I0J249999D01*
G01*
G37*
G36*
G01*
X93650000Y-130117001D02*
X93650000Y-129216999D01*
G75*
G02*
X93899999Y-128967000I249999J0D01*
G01*
X94550001Y-128967000D01*
G75*
G02*
X94800000Y-129216999I0J-249999D01*
G01*
X94800000Y-130117001D01*
G75*
G02*
X94550001Y-130367000I-249999J0D01*
G01*
X93899999Y-130367000D01*
G75*
G02*
X93650000Y-130117001I0J249999D01*
G01*
G37*
%TD*%
%TO.C,R25*%
G36*
G01*
X65719000Y-118052001D02*
X65719000Y-117151999D01*
G75*
G02*
X65968999Y-116902000I249999J0D01*
G01*
X66619001Y-116902000D01*
G75*
G02*
X66869000Y-117151999I0J-249999D01*
G01*
X66869000Y-118052001D01*
G75*
G02*
X66619001Y-118302000I-249999J0D01*
G01*
X65968999Y-118302000D01*
G75*
G02*
X65719000Y-118052001I0J249999D01*
G01*
G37*
G36*
G01*
X63669000Y-118052001D02*
X63669000Y-117151999D01*
G75*
G02*
X63918999Y-116902000I249999J0D01*
G01*
X64569001Y-116902000D01*
G75*
G02*
X64819000Y-117151999I0J-249999D01*
G01*
X64819000Y-118052001D01*
G75*
G02*
X64569001Y-118302000I-249999J0D01*
G01*
X63918999Y-118302000D01*
G75*
G02*
X63669000Y-118052001I0J249999D01*
G01*
G37*
%TD*%
%TO.C,R24*%
G36*
G01*
X158295500Y-118226000D02*
X157045500Y-118226000D01*
G75*
G02*
X156795500Y-117976000I0J250000D01*
G01*
X156795500Y-117176000D01*
G75*
G02*
X157045500Y-116926000I250000J0D01*
G01*
X158295500Y-116926000D01*
G75*
G02*
X158545500Y-117176000I0J-250000D01*
G01*
X158545500Y-117976000D01*
G75*
G02*
X158295500Y-118226000I-250000J0D01*
G01*
G37*
G36*
G01*
X158295500Y-121326000D02*
X157045500Y-121326000D01*
G75*
G02*
X156795500Y-121076000I0J250000D01*
G01*
X156795500Y-120276000D01*
G75*
G02*
X157045500Y-120026000I250000J0D01*
G01*
X158295500Y-120026000D01*
G75*
G02*
X158545500Y-120276000I0J-250000D01*
G01*
X158545500Y-121076000D01*
G75*
G02*
X158295500Y-121326000I-250000J0D01*
G01*
G37*
%TD*%
%TO.C,R23*%
G36*
G01*
X171186000Y-118353000D02*
X169936000Y-118353000D01*
G75*
G02*
X169686000Y-118103000I0J250000D01*
G01*
X169686000Y-117303000D01*
G75*
G02*
X169936000Y-117053000I250000J0D01*
G01*
X171186000Y-117053000D01*
G75*
G02*
X171436000Y-117303000I0J-250000D01*
G01*
X171436000Y-118103000D01*
G75*
G02*
X171186000Y-118353000I-250000J0D01*
G01*
G37*
G36*
G01*
X171186000Y-121453000D02*
X169936000Y-121453000D01*
G75*
G02*
X169686000Y-121203000I0J250000D01*
G01*
X169686000Y-120403000D01*
G75*
G02*
X169936000Y-120153000I250000J0D01*
G01*
X171186000Y-120153000D01*
G75*
G02*
X171436000Y-120403000I0J-250000D01*
G01*
X171436000Y-121203000D01*
G75*
G02*
X171186000Y-121453000I-250000J0D01*
G01*
G37*
%TD*%
%TO.C,R22*%
G36*
G01*
X171186000Y-130926000D02*
X169936000Y-130926000D01*
G75*
G02*
X169686000Y-130676000I0J250000D01*
G01*
X169686000Y-129876000D01*
G75*
G02*
X169936000Y-129626000I250000J0D01*
G01*
X171186000Y-129626000D01*
G75*
G02*
X171436000Y-129876000I0J-250000D01*
G01*
X171436000Y-130676000D01*
G75*
G02*
X171186000Y-130926000I-250000J0D01*
G01*
G37*
G36*
G01*
X171186000Y-134026000D02*
X169936000Y-134026000D01*
G75*
G02*
X169686000Y-133776000I0J250000D01*
G01*
X169686000Y-132976000D01*
G75*
G02*
X169936000Y-132726000I250000J0D01*
G01*
X171186000Y-132726000D01*
G75*
G02*
X171436000Y-132976000I0J-250000D01*
G01*
X171436000Y-133776000D01*
G75*
G02*
X171186000Y-134026000I-250000J0D01*
G01*
G37*
%TD*%
%TO.C,R21*%
G36*
G01*
X158295500Y-130926000D02*
X157045500Y-130926000D01*
G75*
G02*
X156795500Y-130676000I0J250000D01*
G01*
X156795500Y-129876000D01*
G75*
G02*
X157045500Y-129626000I250000J0D01*
G01*
X158295500Y-129626000D01*
G75*
G02*
X158545500Y-129876000I0J-250000D01*
G01*
X158545500Y-130676000D01*
G75*
G02*
X158295500Y-130926000I-250000J0D01*
G01*
G37*
G36*
G01*
X158295500Y-134026000D02*
X157045500Y-134026000D01*
G75*
G02*
X156795500Y-133776000I0J250000D01*
G01*
X156795500Y-132976000D01*
G75*
G02*
X157045500Y-132726000I250000J0D01*
G01*
X158295500Y-132726000D01*
G75*
G02*
X158545500Y-132976000I0J-250000D01*
G01*
X158545500Y-133776000D01*
G75*
G02*
X158295500Y-134026000I-250000J0D01*
G01*
G37*
%TD*%
%TO.C,R20*%
G36*
G01*
X87768000Y-141087000D02*
X87768000Y-139837000D01*
G75*
G02*
X88018000Y-139587000I250000J0D01*
G01*
X88818000Y-139587000D01*
G75*
G02*
X89068000Y-139837000I0J-250000D01*
G01*
X89068000Y-141087000D01*
G75*
G02*
X88818000Y-141337000I-250000J0D01*
G01*
X88018000Y-141337000D01*
G75*
G02*
X87768000Y-141087000I0J250000D01*
G01*
G37*
G36*
G01*
X84668000Y-141087000D02*
X84668000Y-139837000D01*
G75*
G02*
X84918000Y-139587000I250000J0D01*
G01*
X85718000Y-139587000D01*
G75*
G02*
X85968000Y-139837000I0J-250000D01*
G01*
X85968000Y-141087000D01*
G75*
G02*
X85718000Y-141337000I-250000J0D01*
G01*
X84918000Y-141337000D01*
G75*
G02*
X84668000Y-141087000I0J250000D01*
G01*
G37*
%TD*%
%TO.C,R19*%
G36*
G01*
X75322000Y-141087000D02*
X75322000Y-139837000D01*
G75*
G02*
X75572000Y-139587000I250000J0D01*
G01*
X76372000Y-139587000D01*
G75*
G02*
X76622000Y-139837000I0J-250000D01*
G01*
X76622000Y-141087000D01*
G75*
G02*
X76372000Y-141337000I-250000J0D01*
G01*
X75572000Y-141337000D01*
G75*
G02*
X75322000Y-141087000I0J250000D01*
G01*
G37*
G36*
G01*
X72222000Y-141087000D02*
X72222000Y-139837000D01*
G75*
G02*
X72472000Y-139587000I250000J0D01*
G01*
X73272000Y-139587000D01*
G75*
G02*
X73522000Y-139837000I0J-250000D01*
G01*
X73522000Y-141087000D01*
G75*
G02*
X73272000Y-141337000I-250000J0D01*
G01*
X72472000Y-141337000D01*
G75*
G02*
X72222000Y-141087000I0J250000D01*
G01*
G37*
%TD*%
%TO.C,R18*%
G36*
G01*
X100214000Y-141087000D02*
X100214000Y-139837000D01*
G75*
G02*
X100464000Y-139587000I250000J0D01*
G01*
X101264000Y-139587000D01*
G75*
G02*
X101514000Y-139837000I0J-250000D01*
G01*
X101514000Y-141087000D01*
G75*
G02*
X101264000Y-141337000I-250000J0D01*
G01*
X100464000Y-141337000D01*
G75*
G02*
X100214000Y-141087000I0J250000D01*
G01*
G37*
G36*
G01*
X97114000Y-141087000D02*
X97114000Y-139837000D01*
G75*
G02*
X97364000Y-139587000I250000J0D01*
G01*
X98164000Y-139587000D01*
G75*
G02*
X98414000Y-139837000I0J-250000D01*
G01*
X98414000Y-141087000D01*
G75*
G02*
X98164000Y-141337000I-250000J0D01*
G01*
X97364000Y-141337000D01*
G75*
G02*
X97114000Y-141087000I0J250000D01*
G01*
G37*
%TD*%
%TO.C,R17*%
G36*
G01*
X112660000Y-141214000D02*
X112660000Y-139964000D01*
G75*
G02*
X112910000Y-139714000I250000J0D01*
G01*
X113710000Y-139714000D01*
G75*
G02*
X113960000Y-139964000I0J-250000D01*
G01*
X113960000Y-141214000D01*
G75*
G02*
X113710000Y-141464000I-250000J0D01*
G01*
X112910000Y-141464000D01*
G75*
G02*
X112660000Y-141214000I0J250000D01*
G01*
G37*
G36*
G01*
X109560000Y-141214000D02*
X109560000Y-139964000D01*
G75*
G02*
X109810000Y-139714000I250000J0D01*
G01*
X110610000Y-139714000D01*
G75*
G02*
X110860000Y-139964000I0J-250000D01*
G01*
X110860000Y-141214000D01*
G75*
G02*
X110610000Y-141464000I-250000J0D01*
G01*
X109810000Y-141464000D01*
G75*
G02*
X109560000Y-141214000I0J250000D01*
G01*
G37*
%TD*%
%TO.C,R16*%
G36*
G01*
X125106000Y-141214000D02*
X125106000Y-139964000D01*
G75*
G02*
X125356000Y-139714000I250000J0D01*
G01*
X126156000Y-139714000D01*
G75*
G02*
X126406000Y-139964000I0J-250000D01*
G01*
X126406000Y-141214000D01*
G75*
G02*
X126156000Y-141464000I-250000J0D01*
G01*
X125356000Y-141464000D01*
G75*
G02*
X125106000Y-141214000I0J250000D01*
G01*
G37*
G36*
G01*
X122006000Y-141214000D02*
X122006000Y-139964000D01*
G75*
G02*
X122256000Y-139714000I250000J0D01*
G01*
X123056000Y-139714000D01*
G75*
G02*
X123306000Y-139964000I0J-250000D01*
G01*
X123306000Y-141214000D01*
G75*
G02*
X123056000Y-141464000I-250000J0D01*
G01*
X122256000Y-141464000D01*
G75*
G02*
X122006000Y-141214000I0J250000D01*
G01*
G37*
%TD*%
%TO.C,R7*%
G36*
G01*
X147631999Y-139388000D02*
X148532001Y-139388000D01*
G75*
G02*
X148782000Y-139637999I0J-249999D01*
G01*
X148782000Y-140288001D01*
G75*
G02*
X148532001Y-140538000I-249999J0D01*
G01*
X147631999Y-140538000D01*
G75*
G02*
X147382000Y-140288001I0J249999D01*
G01*
X147382000Y-139637999D01*
G75*
G02*
X147631999Y-139388000I249999J0D01*
G01*
G37*
G36*
G01*
X147631999Y-137338000D02*
X148532001Y-137338000D01*
G75*
G02*
X148782000Y-137587999I0J-249999D01*
G01*
X148782000Y-138238001D01*
G75*
G02*
X148532001Y-138488000I-249999J0D01*
G01*
X147631999Y-138488000D01*
G75*
G02*
X147382000Y-138238001I0J249999D01*
G01*
X147382000Y-137587999D01*
G75*
G02*
X147631999Y-137338000I249999J0D01*
G01*
G37*
%TD*%
%TO.C,R4*%
G36*
G01*
X144329999Y-139388000D02*
X145230001Y-139388000D01*
G75*
G02*
X145480000Y-139637999I0J-249999D01*
G01*
X145480000Y-140288001D01*
G75*
G02*
X145230001Y-140538000I-249999J0D01*
G01*
X144329999Y-140538000D01*
G75*
G02*
X144080000Y-140288001I0J249999D01*
G01*
X144080000Y-139637999D01*
G75*
G02*
X144329999Y-139388000I249999J0D01*
G01*
G37*
G36*
G01*
X144329999Y-137338000D02*
X145230001Y-137338000D01*
G75*
G02*
X145480000Y-137587999I0J-249999D01*
G01*
X145480000Y-138238001D01*
G75*
G02*
X145230001Y-138488000I-249999J0D01*
G01*
X144329999Y-138488000D01*
G75*
G02*
X144080000Y-138238001I0J249999D01*
G01*
X144080000Y-137587999D01*
G75*
G02*
X144329999Y-137338000I249999J0D01*
G01*
G37*
%TD*%
%TO.C,R2*%
G36*
G01*
X135211000Y-139970500D02*
X135211000Y-140445500D01*
G75*
G02*
X134973500Y-140683000I-237500J0D01*
G01*
X134473500Y-140683000D01*
G75*
G02*
X134236000Y-140445500I0J237500D01*
G01*
X134236000Y-139970500D01*
G75*
G02*
X134473500Y-139733000I237500J0D01*
G01*
X134973500Y-139733000D01*
G75*
G02*
X135211000Y-139970500I0J-237500D01*
G01*
G37*
G36*
G01*
X137036000Y-139970500D02*
X137036000Y-140445500D01*
G75*
G02*
X136798500Y-140683000I-237500J0D01*
G01*
X136298500Y-140683000D01*
G75*
G02*
X136061000Y-140445500I0J237500D01*
G01*
X136061000Y-139970500D01*
G75*
G02*
X136298500Y-139733000I237500J0D01*
G01*
X136798500Y-139733000D01*
G75*
G02*
X137036000Y-139970500I0J-237500D01*
G01*
G37*
%TD*%
%TO.C,R1*%
G36*
G01*
X135211000Y-142510500D02*
X135211000Y-142985500D01*
G75*
G02*
X134973500Y-143223000I-237500J0D01*
G01*
X134473500Y-143223000D01*
G75*
G02*
X134236000Y-142985500I0J237500D01*
G01*
X134236000Y-142510500D01*
G75*
G02*
X134473500Y-142273000I237500J0D01*
G01*
X134973500Y-142273000D01*
G75*
G02*
X135211000Y-142510500I0J-237500D01*
G01*
G37*
G36*
G01*
X137036000Y-142510500D02*
X137036000Y-142985500D01*
G75*
G02*
X136798500Y-143223000I-237500J0D01*
G01*
X136298500Y-143223000D01*
G75*
G02*
X136061000Y-142985500I0J237500D01*
G01*
X136061000Y-142510500D01*
G75*
G02*
X136298500Y-142273000I237500J0D01*
G01*
X136798500Y-142273000D01*
G75*
G02*
X137036000Y-142510500I0J-237500D01*
G01*
G37*
%TD*%
D25*
%TO.C,Q4*%
X55680000Y-139319000D03*
D26*
X64830000Y-141859000D03*
X64830000Y-139319000D03*
X64830000Y-136779000D03*
%TD*%
D27*
%TO.C,Q2*%
X56404000Y-129794000D03*
X58404000Y-130744000D03*
X58404000Y-128844000D03*
%TD*%
%TO.C,Q1*%
X44561000Y-126365000D03*
X42561000Y-125415000D03*
X42561000Y-127315000D03*
%TD*%
%TO.C,L5*%
G36*
G01*
X148940001Y-78178500D02*
X148239999Y-78178500D01*
G75*
G02*
X147990000Y-77928501I0J249999D01*
G01*
X147990000Y-77378499D01*
G75*
G02*
X148239999Y-77128500I249999J0D01*
G01*
X148940001Y-77128500D01*
G75*
G02*
X149190000Y-77378499I0J-249999D01*
G01*
X149190000Y-77928501D01*
G75*
G02*
X148940001Y-78178500I-249999J0D01*
G01*
G37*
G36*
G01*
X148940001Y-80478500D02*
X148239999Y-80478500D01*
G75*
G02*
X147990000Y-80228501I0J249999D01*
G01*
X147990000Y-79678499D01*
G75*
G02*
X148239999Y-79428500I249999J0D01*
G01*
X148940001Y-79428500D01*
G75*
G02*
X149190000Y-79678499I0J-249999D01*
G01*
X149190000Y-80228501D01*
G75*
G02*
X148940001Y-80478500I-249999J0D01*
G01*
G37*
%TD*%
D28*
%TO.C,L4*%
X75246500Y-110998000D03*
X66231500Y-110998000D03*
%TD*%
D29*
%TO.C,J18*%
X157226000Y-99441000D03*
X154686000Y-99441000D03*
X157226000Y-96901000D03*
X154686000Y-96901000D03*
X157226000Y-94361000D03*
D14*
X154686000Y-94361000D03*
%TD*%
D18*
%TO.C,J16*%
X48133000Y-140589000D03*
G36*
G01*
X46583000Y-135879000D02*
X49683000Y-135879000D01*
G75*
G02*
X49933000Y-136129000I0J-250000D01*
G01*
X49933000Y-137429000D01*
G75*
G02*
X49683000Y-137679000I-250000J0D01*
G01*
X46583000Y-137679000D01*
G75*
G02*
X46333000Y-137429000I0J250000D01*
G01*
X46333000Y-136129000D01*
G75*
G02*
X46583000Y-135879000I250000J0D01*
G01*
G37*
%TD*%
%TO.C,J15*%
X48133000Y-129857500D03*
G36*
G01*
X46583000Y-125147500D02*
X49683000Y-125147500D01*
G75*
G02*
X49933000Y-125397500I0J-250000D01*
G01*
X49933000Y-126697500D01*
G75*
G02*
X49683000Y-126947500I-250000J0D01*
G01*
X46583000Y-126947500D01*
G75*
G02*
X46333000Y-126697500I0J250000D01*
G01*
X46333000Y-125397500D01*
G75*
G02*
X46583000Y-125147500I250000J0D01*
G01*
G37*
%TD*%
%TO.C,J14*%
X48133000Y-118618000D03*
G36*
G01*
X46583000Y-113908000D02*
X49683000Y-113908000D01*
G75*
G02*
X49933000Y-114158000I0J-250000D01*
G01*
X49933000Y-115458000D01*
G75*
G02*
X49683000Y-115708000I-250000J0D01*
G01*
X46583000Y-115708000D01*
G75*
G02*
X46333000Y-115458000I0J250000D01*
G01*
X46333000Y-114158000D01*
G75*
G02*
X46583000Y-113908000I250000J0D01*
G01*
G37*
%TD*%
%TO.C,J13*%
X169164000Y-60706000D03*
X169164000Y-64516000D03*
X169164000Y-68326000D03*
X169164000Y-72136000D03*
X169164000Y-75946000D03*
X169164000Y-79756000D03*
X169164000Y-83566000D03*
G36*
G01*
X170714000Y-88276000D02*
X167614000Y-88276000D01*
G75*
G02*
X167364000Y-88026000I0J250000D01*
G01*
X167364000Y-86726000D01*
G75*
G02*
X167614000Y-86476000I250000J0D01*
G01*
X170714000Y-86476000D01*
G75*
G02*
X170964000Y-86726000I0J-250000D01*
G01*
X170964000Y-88026000D01*
G75*
G02*
X170714000Y-88276000I-250000J0D01*
G01*
G37*
%TD*%
D30*
%TO.C,J12*%
X127254000Y-149860000D03*
X123444000Y-149860000D03*
X119634000Y-149860000D03*
X115824000Y-149860000D03*
X112014000Y-149860000D03*
G36*
G01*
X107304000Y-151410000D02*
X107304000Y-148310000D01*
G75*
G02*
X107554000Y-148060000I250000J0D01*
G01*
X108854000Y-148060000D01*
G75*
G02*
X109104000Y-148310000I0J-250000D01*
G01*
X109104000Y-151410000D01*
G75*
G02*
X108854000Y-151660000I-250000J0D01*
G01*
X107554000Y-151660000D01*
G75*
G02*
X107304000Y-151410000I0J250000D01*
G01*
G37*
%TD*%
%TO.C,J11*%
X99822000Y-149860000D03*
G36*
G01*
X95112000Y-151410000D02*
X95112000Y-148310000D01*
G75*
G02*
X95362000Y-148060000I250000J0D01*
G01*
X96662000Y-148060000D01*
G75*
G02*
X96912000Y-148310000I0J-250000D01*
G01*
X96912000Y-151410000D01*
G75*
G02*
X96662000Y-151660000I-250000J0D01*
G01*
X95362000Y-151660000D01*
G75*
G02*
X95112000Y-151410000I0J250000D01*
G01*
G37*
%TD*%
%TO.C,J10*%
X87630000Y-149860000D03*
G36*
G01*
X82920000Y-151410000D02*
X82920000Y-148310000D01*
G75*
G02*
X83170000Y-148060000I250000J0D01*
G01*
X84470000Y-148060000D01*
G75*
G02*
X84720000Y-148310000I0J-250000D01*
G01*
X84720000Y-151410000D01*
G75*
G02*
X84470000Y-151660000I-250000J0D01*
G01*
X83170000Y-151660000D01*
G75*
G02*
X82920000Y-151410000I0J250000D01*
G01*
G37*
%TD*%
%TO.C,J9*%
X139446000Y-29083000D03*
X143256000Y-29083000D03*
X147066000Y-29083000D03*
G36*
G01*
X151776000Y-27533000D02*
X151776000Y-30633000D01*
G75*
G02*
X151526000Y-30883000I-250000J0D01*
G01*
X150226000Y-30883000D01*
G75*
G02*
X149976000Y-30633000I0J250000D01*
G01*
X149976000Y-27533000D01*
G75*
G02*
X150226000Y-27283000I250000J0D01*
G01*
X151526000Y-27283000D01*
G75*
G02*
X151776000Y-27533000I0J-250000D01*
G01*
G37*
%TD*%
%TO.C,J8*%
X110236000Y-29083000D03*
X114046000Y-29083000D03*
X117856000Y-29083000D03*
G36*
G01*
X122566000Y-27533000D02*
X122566000Y-30633000D01*
G75*
G02*
X122316000Y-30883000I-250000J0D01*
G01*
X121016000Y-30883000D01*
G75*
G02*
X120766000Y-30633000I0J250000D01*
G01*
X120766000Y-27533000D01*
G75*
G02*
X121016000Y-27283000I250000J0D01*
G01*
X122316000Y-27283000D01*
G75*
G02*
X122566000Y-27533000I0J-250000D01*
G01*
G37*
%TD*%
%TO.C,J7*%
X81026000Y-29083000D03*
X84836000Y-29083000D03*
X88646000Y-29083000D03*
G36*
G01*
X93356000Y-27533000D02*
X93356000Y-30633000D01*
G75*
G02*
X93106000Y-30883000I-250000J0D01*
G01*
X91806000Y-30883000D01*
G75*
G02*
X91556000Y-30633000I0J250000D01*
G01*
X91556000Y-27533000D01*
G75*
G02*
X91806000Y-27283000I250000J0D01*
G01*
X93106000Y-27283000D01*
G75*
G02*
X93356000Y-27533000I0J-250000D01*
G01*
G37*
%TD*%
%TO.C,J6*%
X51816000Y-29083000D03*
X55626000Y-29083000D03*
X59436000Y-29083000D03*
G36*
G01*
X64146000Y-27533000D02*
X64146000Y-30633000D01*
G75*
G02*
X63896000Y-30883000I-250000J0D01*
G01*
X62596000Y-30883000D01*
G75*
G02*
X62346000Y-30633000I0J250000D01*
G01*
X62346000Y-27533000D01*
G75*
G02*
X62596000Y-27283000I250000J0D01*
G01*
X63896000Y-27283000D01*
G75*
G02*
X64146000Y-27533000I0J-250000D01*
G01*
G37*
%TD*%
D29*
%TO.C,J4*%
X157226000Y-109601000D03*
X154686000Y-109601000D03*
X157226000Y-107061000D03*
X154686000Y-107061000D03*
X157226000Y-104521000D03*
D14*
X154686000Y-104521000D03*
%TD*%
D30*
%TO.C,J2*%
X56896000Y-149860000D03*
G36*
G01*
X52186000Y-151410000D02*
X52186000Y-148310000D01*
G75*
G02*
X52436000Y-148060000I250000J0D01*
G01*
X53736000Y-148060000D01*
G75*
G02*
X53986000Y-148310000I0J-250000D01*
G01*
X53986000Y-151410000D01*
G75*
G02*
X53736000Y-151660000I-250000J0D01*
G01*
X52436000Y-151660000D01*
G75*
G02*
X52186000Y-151410000I0J250000D01*
G01*
G37*
%TD*%
%TO.C,J1*%
X75184000Y-149860000D03*
X71374000Y-149860000D03*
G36*
G01*
X66664000Y-151410000D02*
X66664000Y-148310000D01*
G75*
G02*
X66914000Y-148060000I250000J0D01*
G01*
X68214000Y-148060000D01*
G75*
G02*
X68464000Y-148310000I0J-250000D01*
G01*
X68464000Y-151410000D01*
G75*
G02*
X68214000Y-151660000I-250000J0D01*
G01*
X66914000Y-151660000D01*
G75*
G02*
X66664000Y-151410000I0J250000D01*
G01*
G37*
%TD*%
D31*
%TO.C,H4*%
X172720000Y-153416000D03*
%TD*%
%TO.C,H3*%
X44704000Y-25400000D03*
%TD*%
%TO.C,H2*%
X44704000Y-153416000D03*
%TD*%
%TO.C,H1*%
X172720000Y-25400000D03*
%TD*%
%TO.C,FB2*%
G36*
G01*
X171608000Y-147336500D02*
X171608000Y-147811500D01*
G75*
G02*
X171370500Y-148049000I-237500J0D01*
G01*
X170795500Y-148049000D01*
G75*
G02*
X170558000Y-147811500I0J237500D01*
G01*
X170558000Y-147336500D01*
G75*
G02*
X170795500Y-147099000I237500J0D01*
G01*
X171370500Y-147099000D01*
G75*
G02*
X171608000Y-147336500I0J-237500D01*
G01*
G37*
G36*
G01*
X173358000Y-147336500D02*
X173358000Y-147811500D01*
G75*
G02*
X173120500Y-148049000I-237500J0D01*
G01*
X172545500Y-148049000D01*
G75*
G02*
X172308000Y-147811500I0J237500D01*
G01*
X172308000Y-147336500D01*
G75*
G02*
X172545500Y-147099000I237500J0D01*
G01*
X173120500Y-147099000D01*
G75*
G02*
X173358000Y-147336500I0J-237500D01*
G01*
G37*
%TD*%
%TO.C,FB1*%
G36*
G01*
X148827500Y-150526000D02*
X148352500Y-150526000D01*
G75*
G02*
X148115000Y-150288500I0J237500D01*
G01*
X148115000Y-149713500D01*
G75*
G02*
X148352500Y-149476000I237500J0D01*
G01*
X148827500Y-149476000D01*
G75*
G02*
X149065000Y-149713500I0J-237500D01*
G01*
X149065000Y-150288500D01*
G75*
G02*
X148827500Y-150526000I-237500J0D01*
G01*
G37*
G36*
G01*
X148827500Y-152276000D02*
X148352500Y-152276000D01*
G75*
G02*
X148115000Y-152038500I0J237500D01*
G01*
X148115000Y-151463500D01*
G75*
G02*
X148352500Y-151226000I237500J0D01*
G01*
X148827500Y-151226000D01*
G75*
G02*
X149065000Y-151463500I0J-237500D01*
G01*
X149065000Y-152038500D01*
G75*
G02*
X148827500Y-152276000I-237500J0D01*
G01*
G37*
%TD*%
D32*
%TO.C,F1*%
X85070000Y-92526000D03*
X90170000Y-93726000D03*
%TD*%
D19*
%TO.C,D42*%
X41148000Y-145669000D03*
D20*
X48768000Y-145669000D03*
%TD*%
D19*
%TO.C,D41*%
X48768000Y-148526500D03*
D20*
X41148000Y-148526500D03*
%TD*%
D27*
%TO.C,D39*%
X56404000Y-125222000D03*
X58404000Y-126172000D03*
X58404000Y-124272000D03*
%TD*%
%TO.C,D38*%
X44561000Y-130937000D03*
X42561000Y-129987000D03*
X42561000Y-131887000D03*
%TD*%
D33*
%TO.C,D36*%
X141184000Y-48768000D03*
X136184000Y-48768000D03*
%TD*%
%TO.C,D34*%
X111593000Y-48768000D03*
X106593000Y-48768000D03*
%TD*%
%TO.C,D32*%
X141184000Y-43688000D03*
X136184000Y-43688000D03*
%TD*%
%TO.C,D30*%
X111593000Y-43688000D03*
X106593000Y-43688000D03*
%TD*%
%TO.C,D28*%
X151344000Y-48768000D03*
X146344000Y-48768000D03*
%TD*%
%TO.C,D26*%
X121753000Y-48768000D03*
X116753000Y-48768000D03*
%TD*%
%TO.C,D24*%
X151344000Y-43688000D03*
X146344000Y-43688000D03*
%TD*%
%TO.C,D22*%
X121753000Y-43688000D03*
X116753000Y-43688000D03*
%TD*%
%TO.C,D20*%
X82383000Y-48768000D03*
X77383000Y-48768000D03*
%TD*%
%TO.C,D18*%
X53427000Y-48768000D03*
X48427000Y-48768000D03*
%TD*%
%TO.C,D16*%
X82383000Y-43688000D03*
X77383000Y-43688000D03*
%TD*%
%TO.C,D14*%
X53427000Y-43688000D03*
X48427000Y-43688000D03*
%TD*%
%TO.C,D12*%
X92670000Y-48768000D03*
X87670000Y-48768000D03*
%TD*%
%TO.C,D10*%
X63714000Y-48768000D03*
X58714000Y-48768000D03*
%TD*%
%TO.C,D8*%
X92670000Y-43688000D03*
X87670000Y-43688000D03*
%TD*%
%TO.C,D6*%
X63714000Y-43688000D03*
X58714000Y-43688000D03*
%TD*%
D34*
%TO.C,D5*%
X44704000Y-60666000D03*
X44704000Y-55666000D03*
%TD*%
%TO.C,C46*%
G36*
G01*
X144542500Y-81503000D02*
X145017500Y-81503000D01*
G75*
G02*
X145255000Y-81740500I0J-237500D01*
G01*
X145255000Y-82315500D01*
G75*
G02*
X145017500Y-82553000I-237500J0D01*
G01*
X144542500Y-82553000D01*
G75*
G02*
X144305000Y-82315500I0J237500D01*
G01*
X144305000Y-81740500D01*
G75*
G02*
X144542500Y-81503000I237500J0D01*
G01*
G37*
G36*
G01*
X144542500Y-79753000D02*
X145017500Y-79753000D01*
G75*
G02*
X145255000Y-79990500I0J-237500D01*
G01*
X145255000Y-80565500D01*
G75*
G02*
X145017500Y-80803000I-237500J0D01*
G01*
X144542500Y-80803000D01*
G75*
G02*
X144305000Y-80565500I0J237500D01*
G01*
X144305000Y-79990500D01*
G75*
G02*
X144542500Y-79753000I237500J0D01*
G01*
G37*
%TD*%
%TO.C,C43*%
G36*
G01*
X145511000Y-77707500D02*
X145511000Y-77232500D01*
G75*
G02*
X145748500Y-76995000I237500J0D01*
G01*
X146323500Y-76995000D01*
G75*
G02*
X146561000Y-77232500I0J-237500D01*
G01*
X146561000Y-77707500D01*
G75*
G02*
X146323500Y-77945000I-237500J0D01*
G01*
X145748500Y-77945000D01*
G75*
G02*
X145511000Y-77707500I0J237500D01*
G01*
G37*
G36*
G01*
X143761000Y-77707500D02*
X143761000Y-77232500D01*
G75*
G02*
X143998500Y-76995000I237500J0D01*
G01*
X144573500Y-76995000D01*
G75*
G02*
X144811000Y-77232500I0J-237500D01*
G01*
X144811000Y-77707500D01*
G75*
G02*
X144573500Y-77945000I-237500J0D01*
G01*
X143998500Y-77945000D01*
G75*
G02*
X143761000Y-77707500I0J237500D01*
G01*
G37*
%TD*%
%TO.C,C45*%
G36*
G01*
X150384500Y-124175000D02*
X150859500Y-124175000D01*
G75*
G02*
X151097000Y-124412500I0J-237500D01*
G01*
X151097000Y-124987500D01*
G75*
G02*
X150859500Y-125225000I-237500J0D01*
G01*
X150384500Y-125225000D01*
G75*
G02*
X150147000Y-124987500I0J237500D01*
G01*
X150147000Y-124412500D01*
G75*
G02*
X150384500Y-124175000I237500J0D01*
G01*
G37*
G36*
G01*
X150384500Y-122425000D02*
X150859500Y-122425000D01*
G75*
G02*
X151097000Y-122662500I0J-237500D01*
G01*
X151097000Y-123237500D01*
G75*
G02*
X150859500Y-123475000I-237500J0D01*
G01*
X150384500Y-123475000D01*
G75*
G02*
X150147000Y-123237500I0J237500D01*
G01*
X150147000Y-122662500D01*
G75*
G02*
X150384500Y-122425000I237500J0D01*
G01*
G37*
%TD*%
%TO.C,C44*%
G36*
G01*
X153305500Y-151861000D02*
X153780500Y-151861000D01*
G75*
G02*
X154018000Y-152098500I0J-237500D01*
G01*
X154018000Y-152673500D01*
G75*
G02*
X153780500Y-152911000I-237500J0D01*
G01*
X153305500Y-152911000D01*
G75*
G02*
X153068000Y-152673500I0J237500D01*
G01*
X153068000Y-152098500D01*
G75*
G02*
X153305500Y-151861000I237500J0D01*
G01*
G37*
G36*
G01*
X153305500Y-150111000D02*
X153780500Y-150111000D01*
G75*
G02*
X154018000Y-150348500I0J-237500D01*
G01*
X154018000Y-150923500D01*
G75*
G02*
X153780500Y-151161000I-237500J0D01*
G01*
X153305500Y-151161000D01*
G75*
G02*
X153068000Y-150923500I0J237500D01*
G01*
X153068000Y-150348500D01*
G75*
G02*
X153305500Y-150111000I237500J0D01*
G01*
G37*
%TD*%
%TO.C,C42*%
G36*
G01*
X165935000Y-151793000D02*
X165935000Y-151483000D01*
G75*
G02*
X166090000Y-151328000I155000J0D01*
G01*
X166515000Y-151328000D01*
G75*
G02*
X166670000Y-151483000I0J-155000D01*
G01*
X166670000Y-151793000D01*
G75*
G02*
X166515000Y-151948000I-155000J0D01*
G01*
X166090000Y-151948000D01*
G75*
G02*
X165935000Y-151793000I0J155000D01*
G01*
G37*
G36*
G01*
X164800000Y-151793000D02*
X164800000Y-151483000D01*
G75*
G02*
X164955000Y-151328000I155000J0D01*
G01*
X165380000Y-151328000D01*
G75*
G02*
X165535000Y-151483000I0J-155000D01*
G01*
X165535000Y-151793000D01*
G75*
G02*
X165380000Y-151948000I-155000J0D01*
G01*
X164955000Y-151948000D01*
G75*
G02*
X164800000Y-151793000I0J155000D01*
G01*
G37*
%TD*%
%TO.C,C35*%
G36*
G01*
X129650500Y-80803000D02*
X129175500Y-80803000D01*
G75*
G02*
X128938000Y-80565500I0J237500D01*
G01*
X128938000Y-79990500D01*
G75*
G02*
X129175500Y-79753000I237500J0D01*
G01*
X129650500Y-79753000D01*
G75*
G02*
X129888000Y-79990500I0J-237500D01*
G01*
X129888000Y-80565500D01*
G75*
G02*
X129650500Y-80803000I-237500J0D01*
G01*
G37*
G36*
G01*
X129650500Y-82553000D02*
X129175500Y-82553000D01*
G75*
G02*
X128938000Y-82315500I0J237500D01*
G01*
X128938000Y-81740500D01*
G75*
G02*
X129175500Y-81503000I237500J0D01*
G01*
X129650500Y-81503000D01*
G75*
G02*
X129888000Y-81740500I0J-237500D01*
G01*
X129888000Y-82315500D01*
G75*
G02*
X129650500Y-82553000I-237500J0D01*
G01*
G37*
%TD*%
%TO.C,C41*%
G36*
G01*
X165958000Y-155685500D02*
X165958000Y-155210500D01*
G75*
G02*
X166195500Y-154973000I237500J0D01*
G01*
X166770500Y-154973000D01*
G75*
G02*
X167008000Y-155210500I0J-237500D01*
G01*
X167008000Y-155685500D01*
G75*
G02*
X166770500Y-155923000I-237500J0D01*
G01*
X166195500Y-155923000D01*
G75*
G02*
X165958000Y-155685500I0J237500D01*
G01*
G37*
G36*
G01*
X164208000Y-155685500D02*
X164208000Y-155210500D01*
G75*
G02*
X164445500Y-154973000I237500J0D01*
G01*
X165020500Y-154973000D01*
G75*
G02*
X165258000Y-155210500I0J-237500D01*
G01*
X165258000Y-155685500D01*
G75*
G02*
X165020500Y-155923000I-237500J0D01*
G01*
X164445500Y-155923000D01*
G75*
G02*
X164208000Y-155685500I0J237500D01*
G01*
G37*
%TD*%
%TO.C,C39*%
G36*
G01*
X165935000Y-149380000D02*
X165935000Y-149070000D01*
G75*
G02*
X166090000Y-148915000I155000J0D01*
G01*
X166515000Y-148915000D01*
G75*
G02*
X166670000Y-149070000I0J-155000D01*
G01*
X166670000Y-149380000D01*
G75*
G02*
X166515000Y-149535000I-155000J0D01*
G01*
X166090000Y-149535000D01*
G75*
G02*
X165935000Y-149380000I0J155000D01*
G01*
G37*
G36*
G01*
X164800000Y-149380000D02*
X164800000Y-149070000D01*
G75*
G02*
X164955000Y-148915000I155000J0D01*
G01*
X165380000Y-148915000D01*
G75*
G02*
X165535000Y-149070000I0J-155000D01*
G01*
X165535000Y-149380000D01*
G75*
G02*
X165380000Y-149535000I-155000J0D01*
G01*
X164955000Y-149535000D01*
G75*
G02*
X164800000Y-149380000I0J155000D01*
G01*
G37*
%TD*%
%TO.C,C38*%
G36*
G01*
X126715000Y-73262500D02*
X126715000Y-72787500D01*
G75*
G02*
X126952500Y-72550000I237500J0D01*
G01*
X127527500Y-72550000D01*
G75*
G02*
X127765000Y-72787500I0J-237500D01*
G01*
X127765000Y-73262500D01*
G75*
G02*
X127527500Y-73500000I-237500J0D01*
G01*
X126952500Y-73500000D01*
G75*
G02*
X126715000Y-73262500I0J237500D01*
G01*
G37*
G36*
G01*
X124965000Y-73262500D02*
X124965000Y-72787500D01*
G75*
G02*
X125202500Y-72550000I237500J0D01*
G01*
X125777500Y-72550000D01*
G75*
G02*
X126015000Y-72787500I0J-237500D01*
G01*
X126015000Y-73262500D01*
G75*
G02*
X125777500Y-73500000I-237500J0D01*
G01*
X125202500Y-73500000D01*
G75*
G02*
X124965000Y-73262500I0J237500D01*
G01*
G37*
%TD*%
%TO.C,C37*%
G36*
G01*
X126015000Y-80026500D02*
X126015000Y-80501500D01*
G75*
G02*
X125777500Y-80739000I-237500J0D01*
G01*
X125202500Y-80739000D01*
G75*
G02*
X124965000Y-80501500I0J237500D01*
G01*
X124965000Y-80026500D01*
G75*
G02*
X125202500Y-79789000I237500J0D01*
G01*
X125777500Y-79789000D01*
G75*
G02*
X126015000Y-80026500I0J-237500D01*
G01*
G37*
G36*
G01*
X127765000Y-80026500D02*
X127765000Y-80501500D01*
G75*
G02*
X127527500Y-80739000I-237500J0D01*
G01*
X126952500Y-80739000D01*
G75*
G02*
X126715000Y-80501500I0J237500D01*
G01*
X126715000Y-80026500D01*
G75*
G02*
X126952500Y-79789000I237500J0D01*
G01*
X127527500Y-79789000D01*
G75*
G02*
X127765000Y-80026500I0J-237500D01*
G01*
G37*
%TD*%
%TO.C,C36*%
G36*
G01*
X176672001Y-145150000D02*
X175371999Y-145150000D01*
G75*
G02*
X175122000Y-144900001I0J249999D01*
G01*
X175122000Y-144074999D01*
G75*
G02*
X175371999Y-143825000I249999J0D01*
G01*
X176672001Y-143825000D01*
G75*
G02*
X176922000Y-144074999I0J-249999D01*
G01*
X176922000Y-144900001D01*
G75*
G02*
X176672001Y-145150000I-249999J0D01*
G01*
G37*
G36*
G01*
X176672001Y-148275000D02*
X175371999Y-148275000D01*
G75*
G02*
X175122000Y-148025001I0J249999D01*
G01*
X175122000Y-147199999D01*
G75*
G02*
X175371999Y-146950000I249999J0D01*
G01*
X176672001Y-146950000D01*
G75*
G02*
X176922000Y-147199999I0J-249999D01*
G01*
X176922000Y-148025001D01*
G75*
G02*
X176672001Y-148275000I-249999J0D01*
G01*
G37*
%TD*%
%TO.C,C34*%
G36*
G01*
X81946000Y-122444500D02*
X81946000Y-122919500D01*
G75*
G02*
X81708500Y-123157000I-237500J0D01*
G01*
X81133500Y-123157000D01*
G75*
G02*
X80896000Y-122919500I0J237500D01*
G01*
X80896000Y-122444500D01*
G75*
G02*
X81133500Y-122207000I237500J0D01*
G01*
X81708500Y-122207000D01*
G75*
G02*
X81946000Y-122444500I0J-237500D01*
G01*
G37*
G36*
G01*
X83696000Y-122444500D02*
X83696000Y-122919500D01*
G75*
G02*
X83458500Y-123157000I-237500J0D01*
G01*
X82883500Y-123157000D01*
G75*
G02*
X82646000Y-122919500I0J237500D01*
G01*
X82646000Y-122444500D01*
G75*
G02*
X82883500Y-122207000I237500J0D01*
G01*
X83458500Y-122207000D01*
G75*
G02*
X83696000Y-122444500I0J-237500D01*
G01*
G37*
%TD*%
%TO.C,C31*%
G36*
G01*
X43660000Y-136661500D02*
X43970000Y-136661500D01*
G75*
G02*
X44125000Y-136816500I0J-155000D01*
G01*
X44125000Y-137241500D01*
G75*
G02*
X43970000Y-137396500I-155000J0D01*
G01*
X43660000Y-137396500D01*
G75*
G02*
X43505000Y-137241500I0J155000D01*
G01*
X43505000Y-136816500D01*
G75*
G02*
X43660000Y-136661500I155000J0D01*
G01*
G37*
G36*
G01*
X43660000Y-135526500D02*
X43970000Y-135526500D01*
G75*
G02*
X44125000Y-135681500I0J-155000D01*
G01*
X44125000Y-136106500D01*
G75*
G02*
X43970000Y-136261500I-155000J0D01*
G01*
X43660000Y-136261500D01*
G75*
G02*
X43505000Y-136106500I0J155000D01*
G01*
X43505000Y-135681500D01*
G75*
G02*
X43660000Y-135526500I155000J0D01*
G01*
G37*
%TD*%
%TO.C,C30*%
G36*
G01*
X74502000Y-133319000D02*
X74977000Y-133319000D01*
G75*
G02*
X75214500Y-133556500I0J-237500D01*
G01*
X75214500Y-134131500D01*
G75*
G02*
X74977000Y-134369000I-237500J0D01*
G01*
X74502000Y-134369000D01*
G75*
G02*
X74264500Y-134131500I0J237500D01*
G01*
X74264500Y-133556500D01*
G75*
G02*
X74502000Y-133319000I237500J0D01*
G01*
G37*
G36*
G01*
X74502000Y-131569000D02*
X74977000Y-131569000D01*
G75*
G02*
X75214500Y-131806500I0J-237500D01*
G01*
X75214500Y-132381500D01*
G75*
G02*
X74977000Y-132619000I-237500J0D01*
G01*
X74502000Y-132619000D01*
G75*
G02*
X74264500Y-132381500I0J237500D01*
G01*
X74264500Y-131806500D01*
G75*
G02*
X74502000Y-131569000I237500J0D01*
G01*
G37*
%TD*%
D35*
%TO.C,C29*%
X88844000Y-120396000D03*
D20*
X85344000Y-120396000D03*
%TD*%
%TO.C,C28*%
G36*
G01*
X78566000Y-133333000D02*
X79041000Y-133333000D01*
G75*
G02*
X79278500Y-133570500I0J-237500D01*
G01*
X79278500Y-134145500D01*
G75*
G02*
X79041000Y-134383000I-237500J0D01*
G01*
X78566000Y-134383000D01*
G75*
G02*
X78328500Y-134145500I0J237500D01*
G01*
X78328500Y-133570500D01*
G75*
G02*
X78566000Y-133333000I237500J0D01*
G01*
G37*
G36*
G01*
X78566000Y-131583000D02*
X79041000Y-131583000D01*
G75*
G02*
X79278500Y-131820500I0J-237500D01*
G01*
X79278500Y-132395500D01*
G75*
G02*
X79041000Y-132633000I-237500J0D01*
G01*
X78566000Y-132633000D01*
G75*
G02*
X78328500Y-132395500I0J237500D01*
G01*
X78328500Y-131820500D01*
G75*
G02*
X78566000Y-131583000I237500J0D01*
G01*
G37*
%TD*%
%TO.C,C27*%
G36*
G01*
X83011000Y-133446000D02*
X83486000Y-133446000D01*
G75*
G02*
X83723500Y-133683500I0J-237500D01*
G01*
X83723500Y-134258500D01*
G75*
G02*
X83486000Y-134496000I-237500J0D01*
G01*
X83011000Y-134496000D01*
G75*
G02*
X82773500Y-134258500I0J237500D01*
G01*
X82773500Y-133683500D01*
G75*
G02*
X83011000Y-133446000I237500J0D01*
G01*
G37*
G36*
G01*
X83011000Y-131696000D02*
X83486000Y-131696000D01*
G75*
G02*
X83723500Y-131933500I0J-237500D01*
G01*
X83723500Y-132508500D01*
G75*
G02*
X83486000Y-132746000I-237500J0D01*
G01*
X83011000Y-132746000D01*
G75*
G02*
X82773500Y-132508500I0J237500D01*
G01*
X82773500Y-131933500D01*
G75*
G02*
X83011000Y-131696000I237500J0D01*
G01*
G37*
%TD*%
D35*
%TO.C,C25*%
X79446000Y-120650000D03*
D20*
X75946000Y-120650000D03*
%TD*%
D35*
%TO.C,C24*%
X111704000Y-98806000D03*
D20*
X108204000Y-98806000D03*
%TD*%
D35*
%TO.C,C23*%
X111958000Y-111760000D03*
D20*
X108458000Y-111760000D03*
%TD*%
D35*
%TO.C,C19*%
X92146000Y-102108000D03*
D20*
X88646000Y-102108000D03*
%TD*%
D36*
%TO.C,C18*%
X80438000Y-100584000D03*
D37*
X75438000Y-100584000D03*
%TD*%
D36*
%TO.C,C17*%
X44022000Y-100330000D03*
D37*
X49022000Y-100330000D03*
%TD*%
%TO.C,C16*%
G36*
G01*
X104151000Y-125237001D02*
X104151000Y-123936999D01*
G75*
G02*
X104400999Y-123687000I249999J0D01*
G01*
X105226001Y-123687000D01*
G75*
G02*
X105476000Y-123936999I0J-249999D01*
G01*
X105476000Y-125237001D01*
G75*
G02*
X105226001Y-125487000I-249999J0D01*
G01*
X104400999Y-125487000D01*
G75*
G02*
X104151000Y-125237001I0J249999D01*
G01*
G37*
G36*
G01*
X101026000Y-125237001D02*
X101026000Y-123936999D01*
G75*
G02*
X101275999Y-123687000I249999J0D01*
G01*
X102101001Y-123687000D01*
G75*
G02*
X102351000Y-123936999I0J-249999D01*
G01*
X102351000Y-125237001D01*
G75*
G02*
X102101001Y-125487000I-249999J0D01*
G01*
X101275999Y-125487000D01*
G75*
G02*
X101026000Y-125237001I0J249999D01*
G01*
G37*
%TD*%
D35*
%TO.C,C15*%
X121102000Y-98552000D03*
D20*
X117602000Y-98552000D03*
%TD*%
%TO.C,C12*%
G36*
G01*
X131842500Y-135224000D02*
X132317500Y-135224000D01*
G75*
G02*
X132555000Y-135461500I0J-237500D01*
G01*
X132555000Y-136036500D01*
G75*
G02*
X132317500Y-136274000I-237500J0D01*
G01*
X131842500Y-136274000D01*
G75*
G02*
X131605000Y-136036500I0J237500D01*
G01*
X131605000Y-135461500D01*
G75*
G02*
X131842500Y-135224000I237500J0D01*
G01*
G37*
G36*
G01*
X131842500Y-133474000D02*
X132317500Y-133474000D01*
G75*
G02*
X132555000Y-133711500I0J-237500D01*
G01*
X132555000Y-134286500D01*
G75*
G02*
X132317500Y-134524000I-237500J0D01*
G01*
X131842500Y-134524000D01*
G75*
G02*
X131605000Y-134286500I0J237500D01*
G01*
X131605000Y-133711500D01*
G75*
G02*
X131842500Y-133474000I237500J0D01*
G01*
G37*
%TD*%
%TO.C,C5*%
G36*
G01*
X133620500Y-151734000D02*
X134095500Y-151734000D01*
G75*
G02*
X134333000Y-151971500I0J-237500D01*
G01*
X134333000Y-152546500D01*
G75*
G02*
X134095500Y-152784000I-237500J0D01*
G01*
X133620500Y-152784000D01*
G75*
G02*
X133383000Y-152546500I0J237500D01*
G01*
X133383000Y-151971500D01*
G75*
G02*
X133620500Y-151734000I237500J0D01*
G01*
G37*
G36*
G01*
X133620500Y-149984000D02*
X134095500Y-149984000D01*
G75*
G02*
X134333000Y-150221500I0J-237500D01*
G01*
X134333000Y-150796500D01*
G75*
G02*
X134095500Y-151034000I-237500J0D01*
G01*
X133620500Y-151034000D01*
G75*
G02*
X133383000Y-150796500I0J237500D01*
G01*
X133383000Y-150221500D01*
G75*
G02*
X133620500Y-149984000I237500J0D01*
G01*
G37*
%TD*%
%TO.C,C4*%
G36*
G01*
X145488000Y-151031000D02*
X145488000Y-150721000D01*
G75*
G02*
X145643000Y-150566000I155000J0D01*
G01*
X146068000Y-150566000D01*
G75*
G02*
X146223000Y-150721000I0J-155000D01*
G01*
X146223000Y-151031000D01*
G75*
G02*
X146068000Y-151186000I-155000J0D01*
G01*
X145643000Y-151186000D01*
G75*
G02*
X145488000Y-151031000I0J155000D01*
G01*
G37*
G36*
G01*
X144353000Y-151031000D02*
X144353000Y-150721000D01*
G75*
G02*
X144508000Y-150566000I155000J0D01*
G01*
X144933000Y-150566000D01*
G75*
G02*
X145088000Y-150721000I0J-155000D01*
G01*
X145088000Y-151031000D01*
G75*
G02*
X144933000Y-151186000I-155000J0D01*
G01*
X144508000Y-151186000D01*
G75*
G02*
X144353000Y-151031000I0J155000D01*
G01*
G37*
%TD*%
%TO.C,C3*%
G36*
G01*
X144876000Y-156320500D02*
X144876000Y-155845500D01*
G75*
G02*
X145113500Y-155608000I237500J0D01*
G01*
X145688500Y-155608000D01*
G75*
G02*
X145926000Y-155845500I0J-237500D01*
G01*
X145926000Y-156320500D01*
G75*
G02*
X145688500Y-156558000I-237500J0D01*
G01*
X145113500Y-156558000D01*
G75*
G02*
X144876000Y-156320500I0J237500D01*
G01*
G37*
G36*
G01*
X143126000Y-156320500D02*
X143126000Y-155845500D01*
G75*
G02*
X143363500Y-155608000I237500J0D01*
G01*
X143938500Y-155608000D01*
G75*
G02*
X144176000Y-155845500I0J-237500D01*
G01*
X144176000Y-156320500D01*
G75*
G02*
X143938500Y-156558000I-237500J0D01*
G01*
X143363500Y-156558000D01*
G75*
G02*
X143126000Y-156320500I0J237500D01*
G01*
G37*
%TD*%
%TO.C,C2*%
G36*
G01*
X145488000Y-148745000D02*
X145488000Y-148435000D01*
G75*
G02*
X145643000Y-148280000I155000J0D01*
G01*
X146068000Y-148280000D01*
G75*
G02*
X146223000Y-148435000I0J-155000D01*
G01*
X146223000Y-148745000D01*
G75*
G02*
X146068000Y-148900000I-155000J0D01*
G01*
X145643000Y-148900000D01*
G75*
G02*
X145488000Y-148745000I0J155000D01*
G01*
G37*
G36*
G01*
X144353000Y-148745000D02*
X144353000Y-148435000D01*
G75*
G02*
X144508000Y-148280000I155000J0D01*
G01*
X144933000Y-148280000D01*
G75*
G02*
X145088000Y-148435000I0J-155000D01*
G01*
X145088000Y-148745000D01*
G75*
G02*
X144933000Y-148900000I-155000J0D01*
G01*
X144508000Y-148900000D01*
G75*
G02*
X144353000Y-148745000I0J155000D01*
G01*
G37*
%TD*%
%TO.C,C1*%
G36*
G01*
X148198000Y-154797999D02*
X148198000Y-156098001D01*
G75*
G02*
X147948001Y-156348000I-249999J0D01*
G01*
X147122999Y-156348000D01*
G75*
G02*
X146873000Y-156098001I0J249999D01*
G01*
X146873000Y-154797999D01*
G75*
G02*
X147122999Y-154548000I249999J0D01*
G01*
X147948001Y-154548000D01*
G75*
G02*
X148198000Y-154797999I0J-249999D01*
G01*
G37*
G36*
G01*
X151323000Y-154797999D02*
X151323000Y-156098001D01*
G75*
G02*
X151073001Y-156348000I-249999J0D01*
G01*
X150247999Y-156348000D01*
G75*
G02*
X149998000Y-156098001I0J249999D01*
G01*
X149998000Y-154797999D01*
G75*
G02*
X150247999Y-154548000I249999J0D01*
G01*
X151073001Y-154548000D01*
G75*
G02*
X151323000Y-154797999I0J-249999D01*
G01*
G37*
%TD*%
M02*
