%FSLAX45Y45*%
G04 Gerber Fmt 4.5, Leading zero omitted, Abs format (unit mm)*
G04 Created by KiCad (PCBNEW (5.1.10)-1) date 2021-11-24 08:50:35*
%MOMM*%
%LPD*%
G01*
G04 APERTURE LIST*
%TA.AperFunction,Profile*%
%ADD10C,0.050000*%
%TD*%
%ADD11C,0.200000*%
%ADD12C,0.300000*%
G04 APERTURE END LIST*
D10*
X20618450Y-16103600D02*
X7791450Y-16103600D01*
X7791450Y-16103600D02*
G75*
G02*
X7283450Y-15595600I0J508000D01*
G01*
X7283450Y-2781300D02*
X7283450Y-15595600D01*
X21126450Y-15595600D02*
G75*
G02*
X20618450Y-16103600I-508000J0D01*
G01*
X21126450Y-2781300D02*
X21126450Y-15595600D01*
X7283450Y-2781300D02*
G75*
G02*
X7791450Y-2273300I508000J0D01*
G01*
X20618450Y-2273300D02*
G75*
G02*
X21126450Y-2781300I0J-508000D01*
G01*
X20618450Y-2273300D02*
X7791450Y-2273300D01*
D11*
D12*
X7567378Y-16571814D02*
X7567378Y-16271814D01*
X7638807Y-16271814D01*
X7681664Y-16286100D01*
X7710236Y-16314671D01*
X7724521Y-16343243D01*
X7738807Y-16400386D01*
X7738807Y-16443243D01*
X7724521Y-16500386D01*
X7710236Y-16528957D01*
X7681664Y-16557529D01*
X7638807Y-16571814D01*
X7567378Y-16571814D01*
X7867378Y-16571814D02*
X7867378Y-16371814D01*
X7867378Y-16428957D02*
X7881664Y-16400386D01*
X7895950Y-16386100D01*
X7924521Y-16371814D01*
X7953093Y-16371814D01*
X8053093Y-16571814D02*
X8053093Y-16371814D01*
X8053093Y-16271814D02*
X8038807Y-16286100D01*
X8053093Y-16300386D01*
X8067378Y-16286100D01*
X8053093Y-16271814D01*
X8053093Y-16300386D01*
X8238807Y-16571814D02*
X8210236Y-16557529D01*
X8195950Y-16528957D01*
X8195950Y-16271814D01*
X8395950Y-16571814D02*
X8367378Y-16557529D01*
X8353093Y-16528957D01*
X8353093Y-16271814D01*
X8738807Y-16571814D02*
X8738807Y-16271814D01*
X8838807Y-16486100D01*
X8938807Y-16271814D01*
X8938807Y-16571814D01*
X9210236Y-16571814D02*
X9210236Y-16414671D01*
X9195950Y-16386100D01*
X9167378Y-16371814D01*
X9110236Y-16371814D01*
X9081664Y-16386100D01*
X9210236Y-16557529D02*
X9181664Y-16571814D01*
X9110236Y-16571814D01*
X9081664Y-16557529D01*
X9067378Y-16528957D01*
X9067378Y-16500386D01*
X9081664Y-16471814D01*
X9110236Y-16457529D01*
X9181664Y-16457529D01*
X9210236Y-16443243D01*
X9353093Y-16371814D02*
X9353093Y-16671814D01*
X9353093Y-16386100D02*
X9381664Y-16371814D01*
X9438807Y-16371814D01*
X9467378Y-16386100D01*
X9481664Y-16400386D01*
X9495950Y-16428957D01*
X9495950Y-16514671D01*
X9481664Y-16543243D01*
X9467378Y-16557529D01*
X9438807Y-16571814D01*
X9381664Y-16571814D01*
X9353093Y-16557529D01*
X9624521Y-16543243D02*
X9638807Y-16557529D01*
X9624521Y-16571814D01*
X9610236Y-16557529D01*
X9624521Y-16543243D01*
X9624521Y-16571814D01*
X9624521Y-16386100D02*
X9638807Y-16400386D01*
X9624521Y-16414671D01*
X9610236Y-16400386D01*
X9624521Y-16386100D01*
X9624521Y-16414671D01*
M02*
